/* XPM */
static char *result[] = {
/* columns rows colors chars-per-pixel */
"69 69 210 2 ",
"   c #020101",
".  c #0A0503",
"X  c #0D0A0C",
"o  c #0F0A06",
"O  c #130606",
"+  c #150C0B",
"@  c #1B0C0C",
"#  c #1A0607",
"$  c #1E120F",
"%  c #140D11",
"&  c #1B0E12",
"*  c #1C1312",
"=  c #191416",
"-  c #0A0C14",
";  c #210A08",
":  c #20100E",
">  c #231613",
",  c #221815",
"<  c #2A1B16",
"1  c #261B1B",
"2  c #2B1D1B",
"3  c #2A1718",
"4  c #331E1D",
"5  c #341B17",
"6  c #2D221E",
"7  c #25201D",
"8  c #34231C",
"9  c #38261B",
"0  c #1E1E23",
"q  c #271D24",
"w  c #351E21",
"e  c #2C2324",
"r  c #2E2727",
"t  c #342422",
"y  c #3A2525",
"u  c #352824",
"i  c #3C2B26",
"p  c #3A2528",
"a  c #342A29",
"s  c #3B2D2A",
"d  c #362529",
"f  c #3D312D",
"g  c #373232",
"h  c #3E3432",
"j  c #3C3639",
"k  c #5B250B",
"l  c #4A2717",
"z  c #592D1A",
"x  c #5B311C",
"c  c #7B390A",
"v  c #68291D",
"b  c #6F361E",
"n  c #6E2914",
"m  c #4A2A23",
"M  c #422C2A",
"N  c #442B28",
"B  c #443226",
"V  c #42322E",
"C  c #48382C",
"Z  c #423532",
"A  c #473937",
"S  c #4C3D3A",
"D  c #493D36",
"F  c #533C3A",
"G  c #5A3E3A",
"H  c #663926",
"J  c #6C2A27",
"K  c #4F423C",
"L  c #50413C",
"P  c #5B453E",
"I  c #714324",
"U  c #664638",
"Y  c #754E36",
"T  c #4E4343",
"R  c #534643",
"E  c #5A4B46",
"W  c #594645",
"Q  c #5C534B",
"!  c #52504D",
"~  c #684B48",
"^  c #68524A",
"/  c #67504E",
"(  c #76574D",
")  c #635552",
"_  c #6D5955",
"`  c #6D5C5A",
"'  c #67555B",
"]  c #7C5B53",
"[  c #72625E",
"{  c #7B635E",
"}  c #6F6063",
"|  c #7C6B62",
" . c #786867",
".. c #7E7571",
"X. c #853217",
"o. c #81400C",
"O. c #92400F",
"+. c #8A4417",
"@. c #995419",
"#. c #A04E18",
"$. c #A65719",
"%. c #B95E11",
"&. c #AC540B",
"*. c #BE6306",
"=. c #AC6019",
"-. c #B66011",
";. c #CA6408",
":. c #D46B03",
">. c #DA6C05",
",. c #D46D0C",
"<. c #DA6E0B",
"1. c #D86606",
"2. c #D7700E",
"3. c #DC730C",
"4. c #DB7006",
"5. c #C16014",
"6. c #CD7612",
"7. c #D97313",
"8. c #D67412",
"9. c #E67807",
"0. c #F27D01",
"q. c #E37109",
"w. c #D97E2C",
"e. c #C46E26",
"r. c #885A51",
"t. c #83645D",
"y. c #A0785F",
"u. c #856B67",
"i. c #8B716A",
"p. c #867A75",
"a. c #897B76",
"s. c #897976",
"d. c #946A6B",
"f. c #D64368",
"g. c #F18610",
"h. c #DE8632",
"j. c #E18630",
"k. c #90827C",
"l. c #B09478",
"z. c #D8975B",
"x. c #EFAE5D",
"c. c #DD9F64",
"v. c #C59B68",
"b. c #D1A678",
"n. c #A27F82",
"m. c #D77C97",
"M. c #8E8482",
"N. c #958A85",
"B. c #9A918E",
"V. c #9F8F90",
"C. c #9C9493",
"Z. c #9F9999",
"A. c #AE8F81",
"S. c #A69996",
"D. c #AD9988",
"F. c #AAA39D",
"G. c #B3A19C",
"H. c #B5A397",
"J. c #ADA6A3",
"K. c #BAB1AE",
"L. c #BEB5B4",
"P. c #B2A8A1",
"I. c #D9B78F",
"U. c #EA9EA1",
"Y. c #C8B6A7",
"T. c #C3BAB7",
"R. c #C5BDBC",
"E. c #E5AFBD",
"W. c #E6B9BC",
"Q. c #ECCC8B",
"!. c #CDC2BC",
"~. c #DAC9BE",
"^. c #E1C0AA",
"/. c #EBD4B7",
"(. c #E1B5C5",
"). c #CCC6C4",
"_. c #CFCCCA",
"`. c #D4CAC4",
"'. c #D4CBC8",
"]. c #DDD4CD",
"[. c #D7D4CE",
"{. c #DCD4D2",
"}. c #DED9D6",
"|. c #DDDBDA",
" X c #D7D5D5",
".X c #F1CECE",
"XX c #E5DFCE",
"oX c #E8D8C7",
"OX c #E1DCD6",
"+X c #E3DBD9",
"@X c #E5D7D6",
"#X c #E6E3DC",
"$X c #E5E2D5",
"%X c #F8F2DA",
"&X c #E8DFE0",
"*X c #EAE6E3",
"=X c #EDE9E3",
"-X c #EDEDEA",
";X c #F2EBE5",
":X c #F1EBEB",
">X c #EBF1ED",
",X c #F3F2EE",
"<X c #FAF4E7",
"1X c #F4F4F3",
"2X c #F9F6F3",
"3X c #F4F9F4",
"4X c #FBFAF5",
"5X c #FBFAF9",
"6X c #F4F9F9",
"7X c None",
/* pixels */
"7X7X7X7X7X7X7X7X7X7X7X7X7X7X7X7X7X7X7X7X7X7X7X7X7X7X7X7X7X7X7X7X7X7X7X7X7X7X7X7X7X7X7X7X7X7X7X7X7X7X7X7X7X7X7X7X7X7X7X7X7X7X7X7X7X7X7X7X7X",
"7X7X7X7X7X7X7X7X7X7X7X7X7X7X7X7X7X7X7X7X7X7X7X7X7X7X7X7X7X7X7X7X7X7X7X7X7X7X7X7X7X7X7X7X7X7X7X7X7X7X7X7X7X7X7X7X7X7X7X7X7X7X7X7X7X7X7X7X7X",
"7X7X7X7X7X7X7X7X7X7X7X7X7X7X7X7X7X7X7X7X7X7X7X7X7X7X7X7X7X7X7X7X7X7X7X7X7X7X7X7X7X7X7X7X7X7X7X7X7X7X7X7X7X7X7X7X7X7X7X7X7X7X7X7X7X7X7X7X7X",
"7X7X7X7X7X7X7X7X7X7X7X7X7X7X7X7X7X7X7X7X7X7X7X7X7X7X7X7X7X7X7X7X7X7X7X7X7X7X7X7X7X7X7X7X7X7X7X7X7X7X7X7X7X7X7X7X7X7X7X7X7X7X7X7X7X7X7X7X7X",
"7X7X7X7X7X7X7X7X7X7X7X7X7X7X7X7X7X7X7X7X7X7X7X7X7X7X7X7X7X7X7X7X7X7X7X7X7X7X7X7X7X7X7X7X7X7X7X7X7X7X7X7X7X7X7X7X7X7X7X7X7X7X7X7X7X7X7X7X7X",
"7X7X7X7X7X7X7X7X7X7X7X7X7X7X7X7X7X7X7X7X7X7X7X7X7X7X7X7X7X7X7X7X7X7X7X7X7X7X7X7X7X7X7X7X7X7X7X7X7X7X7X7X7X7X7X7X7X7X7X7X7X7X7X7X7X7X7X7X7X",
"7X7X7X7X7X7X7X7X7X7X7X7X7X7X7X7X7X7X7X7X7X7X7X7X7X7X7X7X7X7X7X7X7X7X7X7X7X7X7X7X7X7X7X7X7X7X7X7X7X7X7X7X7X7X7X7X7X7X7X7X7X7X7X7X7X7X7X7X7X",
"7X7X7X7X7X7X7X7X7X7X7X7X7X7X7X7X7X7X7X7X7X7X7X7X7X7X7X7X7X7X7X7X7X7X7X7X7X7X7X7X7X7X7X7X7X7X7X7X7X7X7X7X7X7X7X7X7X7X7X7X7X7X7X7X7X7X7X7X7X",
"7X7X7X7X7X7X7X7X7X7X7X7X7X7X7X7X7X7X7X7X7X7X7X7X7X7X7X7X7X7X7X7X7X7X7X7X7X7X7X7X7X7X7X7X7X7X7X7X7X7X7X7X7X7X7X7X7X7X7X7X7X7X7X7X7X7X7X7X7X",
"7X7X7X7X7X7X7X7X7X7X7X7X7X7X7X7X7X7X7X7X7X7X7X7X7X7X7X7X7X7X7X7X7X7X7X7X7X7X7X7X7X7X7X7X7X7X7X7X7X7X7X7X7X7X7X7X7X7X7X7X7X7X7X7X7X7X7X7X7X",
"7X7X7X7X7X7X7X7X7X7X7X7X7X7X7X7X7X7X7X7X7X7X7X7X7X7X7X7X7X7X7X7X7X7X7X7X7X7X7X7X7X7X7X7X7X7X7X7X7X7X7X7X7X7X7X7X7X7X7X7X7X7X7X7X7X7X7X7X7X",
"7X7X7X7X7X7X7X7X7X7X7X7X7X7X7X7X7X7X7X7X7X7X7X7X7X7X7X7X7X7X7X7X7X7X7X7X7X7X7X7X7X7X7X7X7X7X7X7X7X7X7X7X7X7X7X7X7X7X7X7X7X7X7X7X7X7X7X7X7X",
"7X7X7X7X7X7X7X7X7X7X7X7X7X7X7X7X7X7X7X7X7X7X7X7X7X7X7X7X7X7X7X7X7X7X7X7X7X7X7X7X7X7X7X7X7X7X7X7X7X7X7X7X7X7X7X7X7X7X7X7X7X7X7X7X7X7X7X7X7X",
"7X7X7X7X7X7X7X7X7X7X7X7X7X7X7X7X7X7X7X7X7X7X7X7X7X7X7X7X7X7X7X7X7X7X7X7X7X7X7X7X7X7X7X7X7X7X7X7X7X7X7X7X7X7X7X7X7X7X7X7X7X7X7X7X7X7X7X7X7X",
"7X7X7X7X7X7X7X7X7X7X7X7X7X7X7X7X7X7X7X7X7X7X7X7X7X7X7X7X7X7X7X7X7X7X7X7X7X7X7X7X7X7X7X7X7X7X7X7X7X7X7X7X7X7X7X7X7X7X7X7X7X7X7X7X7X7X7X7X7X",
"7X7X7X7X7X7X7X7X7X7X7X7X7X7X7X7X7X7X7X7X7X7X7X7X7X7X7X7X7X7X7X7X7X7X7X7X7X7X7X7X7X7X7X7X7X7X7X7X7X7X7X7X7X7X7X7X7X7X7X7X7X7X7X7X7X7X7X7X7X",
"7X7X7X7X7X7X7X7X7X7X7X7X7X7X7X7X7X7X7X7X7X7X7X7X7X7X7X7X7X7X7X7X7X7X7X7X7X7X7X7X7X7X7X7X7X7X7X7X7X7X7X7X7X7X7X7X7X7X7X7X7X7X7X7X7X7X7X7X7X",
"7X7X7X7X7X7X7X7X7X7X7X7X7X7X7X7X7X7X7X7X7X7X7X7X7X7X7X7X7X7X7X7X7X7X7X7X7X7X7X7X7X7X7X7X7X7X7X7X7X7X7X7X7X7X7X7X7X7X7X7X7X7X7X7X7X7X7X7X7X",
"7X7X7X7X7X7X7X7X7X7X7X7X7X7X7X7X7X7X7X7X7X7X7X7X7X7X7X7X7X7X7X7X7X7X7X7X7X7X7X7X7X7X7X7X7X7X7X7X7X7X7X7X7X7X7X7X7X7X7X7X7X7X7X7X7X7X7X7X7X",
"7X7X7X7X7X7X7X7X7X7X7X7X7X7X7X7X7X7X7X7X7X7X7X7X7X7X7X7X7X7X7X7X7X7X7X7X7X7X7X7X7X7X7X7X7X7X7X7X7X7X7X7X7X7X7X7X7X7X7X7X7X7X7X7X7X7X7X7X7X",
"7X7X7X7X7X7X7X7X7X7X7X7X7X7X7X7X7X7X7X7X7X7X7X7X7X7X7X7X7X7X7X7X7X7X7X7X7X7X7X7X7X7X7X7X7X7X7X7X7X7X7X7X7X7X7X7X7X7X7X7X7X7X7X7X7X7X7X7X7X",
"7X7X7X7X7X7X7X7X7X7X7X7X7X7X7X7X7X7X7X7X7X7X7X7X7X7X7X7X7X7X7X7X7X7X7X7X7X7X7X7X7X7X7X7X7X7X7X7X7X7X7X7X7X7X7X7X7X7X7X7X7X7X7X7X7X7X7X7X7X",
"7X7X7X7X7X7X7X7X7X7X7X7X7X7X7X7X7X7X7X7X7X7X7X7X7X7X7X7X7X7X7X7X7X7X7X7X7X7X7X7X7X7X7X7X7X7X7X7X7X7X7X7X7X7X7X7X7X7X7X7X7X7X7X7X7X7X7X7X7X",
"7X7X7X7X7X7X7X7X7X7X7X7X7X7X7X7X7X7X7X7X7X7X7X7X7X7X7X7X7X7X7X7X7X7X7X7X7X7X7X7X7X7X7X7X7X7X7X7X7X7X7X7X7X7X7X7X7X7X7X7X7X7X7X7X7X7X7X7X7X",
"7X7X7X7X7X7X7X7X7X7X7X7X7X7X7X7X7X7X7X7X7X7X7X7X7X7X7X7X7X7X7X7X7X7X7X7X7X7X7X7X7X7X7X7X7X7X7X7X7X7X7X7X7X7X7X7X7X7X7X7X7X7X7X7X7X7X7X7X7X",
"7X7X7X7X7X7X7X7X7X7X7X7X7X7X7X7X7X7X7X7X7X7X7X7X7X7X7X7X7X7X7X7X7X7X7X7X7X7X7X7X7X7X7X7X7X7X7X7X7X7X7X7X7X7X7X7X7X7X7X7X7X7X7X7X7X7X7X7X7X",
"7X7X7X7X7X7X7X7X7X7X7X7X7X7X7X7X7X7X7X7X7X7X7X7X7X7X7X7X7X7X7X7X7X7X7X7X7X7X7X7X7X7X7X7X7X7X7X7X7X7X7X7X7X7X7X7X7X7X7X7X7X7X7X7X7X7X7X7X7X",
"7X7X7X7X7X7X7X7X7X7X7X7X7X7X7X7X7X7X7X7X7X7X7X7X7X7X7X7X7X7X7X7X7X7X7X7X7X7X7X7X7X7X7X7X7X7X7X7X7X7X7X7X7X7X7X7X7X7X7X7X7X7X7X7X7X7X7X7X7X",
"7X7X7X7X7X7X7X7X7X7X7X7X7X7X7X7X7X7X7X7X7X7X7X7X7X7X7X7X7X7X7X7X7X7X7X7X7X7X7X7X7X7X7X7X7X7X7X7X7X7X7X7X7X7X7X7X7X7X7X7X7X7X7X7X7X7X7X7X7X",
"7X7X7X7X7X7X7X7X7X7X7X7X7X7X7X7X7X7X7X7X7X7X7X7X7X7X7X7X7X7X7X7X7X7X7X7X7X7X7X7X7X7X7X7X7X7X7X7X7X7X7X7X7X7X7X7X7X7X7X7X7X7X7X7X7X7X7X7X7X",
"7X7X7X7X7X7X7X7X7X7X7X7X7X7X7X7X7X7X7X7X7X7X7X7X7X7X7Xy y @ 7X7X7X7X7X7X7X7X7X7X7X7Xp V B 7X7X7X7X7X7X7X7X7X7X7X7X7X7X7X7X7X7X7X7X7X7X7X7X",
"7X7X7X7X7X7X7X7X7X7X7X7X7X7X7X7X7X7X7X7X7X7X7X7X7X7X= 2 ^ P 7X7X7X7X7X7X7X7X7X7X7Xs U t C 7X7X7X7X7X7X7X7X7X7X7X7X7X7X7X7X7X7X7X7X7X7X7X7X",
"7X7X7X7X7X7X7X7X7X7X7X7X7X7X7X7X7X7X7X7X7X7X7X7X7X7X& h `.!.) 7X7X7X7X7X7X7X7X7Xf Y.`._ 7 7X7X7X7X7X7X7X7X7X7X7X7X7X7X7X7X7X7X7X7X7X7X7X7X",
"7X7X7X7X7X7X7X7X7X7X7X7X7X7X7X7X7X7X7X7X7X7X7X7X7X7X& S =X1XF.> 7X7X7X7X7X7X7X7 u.<X$X| , 7X7X7X7X7X7X7X7X7X7X7X7X7X7X7X7X7X7X7X7X7X7X7X7X",
"7X7X7X7X7X7X7X7X7X7X7X7X7X7X7X7X7X7X7X7X7X7X7X7X7X7X# S ;X4X!.| g X - = + - a s.oX4X$X} > 7X7X7X7X7X7X7X7X7X7X7X7X7X7X7X7X7X7X7X7X7X7X7X7X",
"7X7X7X7X7X7X7X7X7X7X7X7X7X7X7X7X7X7X7X7X7X7X7X7X7X7X# D =X3X@XJ.p.e S Y H q / ~.;X4XOX[ , 7X7X7X7X7X7X7X7X7X7X7X7X7X7X7X7X7X7X7X7X7X7X7X7X",
"7X7X7X7X7X7X7X7X7X7X7X7X7X7X7X7X7X7X7X7X7X7X7X7X7X7XO S ;X,XI.e.#.c +.@.+.0 g ` k.2XOX` 2 7X7X7X7X7X7X7X7X7X7X7X7X7X7X7X7X7X7X7X7X7X7X7X7X",
"7X7X7X7X7X7X7X7X7X7X7X7X7X7X7X7X7X7X7X7X7X7X7X7X7X7XO F ;X#Xc.>.1.1.:.:.-.r a s ) 1X|._ 6 7X7X7X7X7X7X7X7X7X7X7X7X7X7X7X7X7X7X7X7X7X7X7X7X",
"7X7X7X7X7X7X7X7X7X7X7X7X7X7X7X7X7X7X7X7X7X7X7X7X7X5 x U oX/.h.>.<.q.2.=.I g h f R L.T.W i * 7X7X7X7X7X7X7X7X7X7X7X7X7X7X7X7X7X7X7X7X7X7X7X",
"7X7X7X7X7X7X7X7X7X7X7X7X7X7X7X7X7X7X7X7X7X7X8 $ > l &.*.w.w.8.<.<.,.$.C Z h h h Z R R Z V a w , > 7X7X7X7X7X7X7X7X7X7X7X7X7X7X7X7X7X7X7X7X",
"7X7X7X7X7X7X7X7X7X7X7X7X7X7X7X7X7X7X7X7X7X7X< N V H ,.,.,.,.2.,.<.,.@.j j j h h Z Z V V V s i 8 6 7X7X7X7X7X7X7X7X7X7X7X7X7X7X7X7X7X7X7X7X",
"7X7X7X7X7X7X7X7X7X7X7X7X7X7X7X7X7X7X7X7X7X7X7X, d H 3.8.,.,.,.4.<.,.@.g h h h Z Z Z Z V V V i & 7X7X7X7X7X7X7X7X7X7X7X7X7X7X7X7X7X7X7X7X7X",
"7X7X7X7X7X7X7X7X7X7X7X7X7X7X7X7X7X7X7X7X7X7X7X2 q z 3.2.,.,.;.*.<.1.$.) h h h h Z V Z f f s i , 7X7X7X7X7X7X7X7X7X7X7X7X7X7X7X7X7X7X7X7X7X",
"7X7X7X7X7X7X7X7X7X7X7X7X7X7X7X7X7X7X7X7X7X7X9 , q z 9.4.<.;.o.l %.7.z. XB.f s f s s f V s s i 6 < 7X7X7X7X7X7X7X7X7X7X7X7X7X7X7X7X7X7X7X7X",
"7X7X7X7X7X7X7X7X7X7X7X7X7X7X7X7X7X7X7X7X7X7X9 8 q b 7.7.7.5.x a &.j.W.>X_.E u a s f D D V u u 8 N 7X7X7X7X7X7X7X7X7X7X7X7X7X7X7X7X7X7X7X7X",
"7X7X7X7X7X7X7X7X7X7X7X7X7X7X7X7X7X7X7X7X7X7X7X< t ( /.XXoXY./ s y.oX-X6X,X).[ 6 S T.|.|.`.u.2 8 7X7X7X7X7X7X7X7X7X7X7X7X7X7X7X7X7X7X7X7X7X",
"7X7X7X7X7X7X7X7X7X7X7X7X7X7X7X7X7X7X7X7X7X7X7X7Xt t.$X3X3XOX .A S.3X6X1X4X1XT.M R -X5X5X=Xi.* 7X7X7X7X7X7X7X7X7X7X7X7X7X7X7X7X7X7X7X7X7X7X",
"7X7X7X7X7X7X7X7X7X7X7X7X7X7X7X7X7X7X7X7X7X7X7X7X7Xu } G.,X,X).S.+X3X@Xm.W.4X-XJ.Z.6X6X_...6 7X7X7X7X7X7X7X7X7X7X7X7X7X7X7X7X7X7X7X7X7X7X7X",
"7X7X7X7X7X7X7X7X7X7X7X7X7X7X7X7X7X7X7X7X7X7X7X7X7X7X1 ) *X5X1X>X6X1X(.f.m.4X5X1X>X4X|.! r 7X7X7X7X7X7X7X7X7X7X7X7X7X7X7X7X7X7X7X7X7X7X7X7X",
"7X7X7X7X7X7X7X7X7X7X7X7X7X7X7X7X7X7X7X7X7X7X7X7X7Xt t Z p.B.N.S.R.:X.XU.E.,X|.F.S.B.u.$.*.c 7X7X7X7X7X7X7X7X7X7X7X7X7X7X7X7X7X7X7X7X7X7X7X",
"7X7X7X7X7X7X7X7X7X7X7X7X7X7X7X7X7X7X7X7X7X7X7X7Xi M u t s i p N F r.d.n.u.~ N 4 u u m >.9.O.B 7X7X7X7X7X7X7X7X7X7X7X7X7X7X7X7X7X7X7X7X7X7X",
"7X7X7X7X7X7X7X7X7X7X7X7X7X7X7X7X7X7X7X7X7X7X7X7Xi M u t 4 2 p / G.{.@X&X@X'.G.~ p 1 9 >.:.X.u 7X7X7X7X7X7X7X7X7X7X7X7X7X7X7X7X7X7X7X7X7X7X",
"7X7X7X7X7X7X7X7X7X7X7X7X7X7X7X7X7X7X7X7X7X7X7X7Xs s d t 4 t ' '.:X2X5X2X6X2X:X`.a.1 8 :.:.X.6 7X7X7X7X7X7X7X7X7X7X7X7X7X7X7X7X7X7X7X7X7X7X",
"7X7X7X7X7X7X7X7X7X7X7X7X7X7X7X7X7X7X7X7X7X7X7X7Xu N W ` 2 Z V.5X5X5X5X5X5X5X5X2XR.1 u 6.2.J r 7X7X7X7X7X7X7X7X7X7X7X7X7X7X7X7X7X7X7X7X7X7X",
"7X7X7X7X7X7X7X7X7X7X7X7X7X7X7X7X7X7X7X7X7X7X7X7Xi r.S.H.4 A K.5X5X5X5X5X5X5X5X5X'.4 M v.b.r.C 7X7X7X7X7X7X7X7X7X7X7X7X7X7X7X7X7X7X7X7X7X7X",
"7X7X7X7X7X7X7X7X7X7X7X7X7X7X7X7X7X7X7X7X7X7X7X7X< ~ l.G.5 S R.5X&X X&X5X,X).+X5X].y V D.l.i.* 7X7X7X7X7X7X7X7X7X7X7X7X7X7X7X7X7X7X7X7X7X7X",
"7X7X7X7X7X7X7X7X7X7X7X7X7X7X7X7X7X7X7X7X7X7X7X7X. 2 U ] : S `.=XS.T M.2X).A  .5X Xi < W ( s   7X7X7X7X7X7X7X7X7X7X7X7X7X7X7X7X7X7X7X7X7X7X",
"7X7X7X7X7X7X7X7X7X7X7X7X7X7X7X7X7X7X7X7X7X7X7X7X7X  > N : S ].#Xs.3 ` ,XK.; G <X[.l & 2 ,   7X7X7X7X7X7X7X7X7X7X7X7X7X7X7X7X7X7X7X7X7X7X7X",
"7X7X7X7X7X7X7X7X7X7X7X7X7X7X7X7X7X7X7X7X7X7X7X7X7X  . + @ F {.#Xs.> ) :XF.; z x.z.v - o     7X7X7X7X7X7X7X7X7X7X7X7X7X7X7X7X7X7X7X7X7X7X7X",
"7X7X7X7X7X7X7X7X7X7X7X7X7X7X7X7X7X7X7X7X7X7X7X7X7X7X7X  + L ].#Xp.& E @XN.@ k g.8.v X   7X7X7X7X7X7X7X7X7X7X7X7X7X7X7X7X7X7X7X7X7X7X7X7X7X",
"7X7X7X7X7X7X7X7X7X7X7X7X7X7X7X7X7X7X7X7X7X7X7X7X7X7X7X  O K OX#Xa.@ V D.! & k 0.;.J O   7X7X7X7X7X7X7X7X7X7X7X7X7X7X7X7X7X7X7X7X7X7X7X7X7X",
"7X7X7X7X7X7X7X7X7X7X7X7X7X7X7X7X7X7X7X7X7X7X7X7X7X7X7X  . K OX#Xa.# > V u * k 0.*.v -   7X7X7X7X7X7X7X7X7X7X7X7X7X7X7X7X7X7X7X7X7X7X7X7X7X",
"7X7X7X7X7X7X7X7X7X7X7X7X7X7X7X7X7X7X7X7X7X7X7X7X7X7X7X  . F OX*Xk.# + + * , U Q.I.v X   7X7X7X7X7X7X7X7X7X7X7X7X7X7X7X7X7X7X7X7X7X7X7X7X7X",
"7X7X7X7X7X7X7X7X7X7X7X7X7X7X7X7X7X7X7X7X7X7X7X7X7X7X7X  o L OX=XN.# o   + 5 ^ %XXX( X   7X7X7X7X7X7X7X7X7X7X7X7X7X7X7X7X7X7X7X7X7X7X7X7X7X",
"7X7X7X7X7X7X7X7X7X7X7X7X7X7X7X7X7X7X7X7X7X7X7X7X7X7X7X7X. f Y.R.| ; .   X 5 P oXY.K     7X7X7X7X7X7X7X7X7X7X7X7X7X7X7X7X7X7X7X7X7X7X7X7X7X",
"7X7X7X7X7X7X7X7X7X7X7X7X7X7X7X7X7X7X7X7X7X7X7X7X7X7X7X7X  + A ( U l O   % m m | T =   7X7X7X7X7X7X7X7X7X7X7X7X7X7X7X7X7X7X7X7X7X7X7X7X7X7X",
"7X7X7X7X7X7X7X7X7X7X7X7X7X7X7X7X7X7X7X7X7X7X7X7X7X7X7X7X7X  . & , >     . * @ * X   7X7X7X7X7X7X7X7X7X7X7X7X7X7X7X7X7X7X7X7X7X7X7X7X7X7X7X",
"7X7X7X7X7X7X7X7X7X7X7X7X7X7X7X7X7X7X7X7X7X7X7X7X7X7X7X7X7X7X7X    . 7X7X7X      7X7X7X7X7X7X7X7X7X7X7X7X7X7X7X7X7X7X7X7X7X7X7X7X7X7X7X7X7X",
"7X7X7X7X7X7X7X7X7X7X7X7X7X7X7X7X7X7X7X7X7X7X7X7X7X7X7X7X7X7X7X7X7X7X7X7X7X7X7X7X7X7X7X7X7X7X7X7X7X7X7X7X7X7X7X7X7X7X7X7X7X7X7X7X7X7X7X7X7X"
};
