/* XPM */
static char *result[] = {
/* columns rows colors chars-per-pixel */
"69 69 207 2 ",
"   c #020101",
".  c #0B0505",
"X  c #0C090B",
"o  c #0C0807",
"O  c #120B07",
"+  c #130D0D",
"@  c #1C0F0C",
"#  c #1C110D",
"$  c #0C0F14",
"%  c #1D1312",
"&  c #1A1617",
"*  c #160D15",
"=  c #23120E",
"-  c #231513",
";  c #291514",
":  c #2D1B16",
">  c #25191A",
",  c #2C1C1A",
"<  c #261618",
"1  c #321E1C",
"2  c #391C16",
"3  c #2E211C",
"4  c #32221D",
"5  c #3A241C",
"6  c #3D2718",
"7  c #251B24",
"8  c #2B1C21",
"9  c #2C2121",
"0  c #2D252C",
"q  c #352522",
"w  c #3A2623",
"e  c #3B2A26",
"r  c #352D2B",
"t  c #3C2C2A",
"y  c #372927",
"u  c #3D312E",
"i  c #3D3433",
"p  c #3B2D36",
"a  c #441C14",
"s  c #492918",
"d  c #5A2E10",
"f  c #522D18",
"g  c #4F321B",
"h  c #653716",
"j  c #793B18",
"k  c #77380F",
"l  c #422E2A",
"z  c #433124",
"x  c #41322D",
"c  c #4B332A",
"v  c #49392D",
"b  c #5B3A2C",
"n  c #583829",
"m  c #432F30",
"M  c #423431",
"N  c #4C3934",
"B  c #463C3A",
"V  c #543E3B",
"C  c #653D27",
"Z  c #703F32",
"A  c #653935",
"S  c #7E4919",
"D  c #7E4214",
"F  c #4C413F",
"G  c #52423E",
"H  c #5D423D",
"J  c #754023",
"K  c #66493F",
"L  c #373D40",
"P  c #473F40",
"I  c #4B4241",
"U  c #474041",
"Y  c #524542",
"T  c #584642",
"R  c #5A4943",
"E  c #5B4D4B",
"W  c #554B47",
"Q  c #5C504E",
"!  c #5D4F50",
"~  c #6E5449",
"^  c #775648",
"/  c #6C5A56",
"(  c #6A5958",
")  c #745A56",
"_  c #715354",
"`  c #6D4B43",
"'  c #6E605D",
"]  c #786257",
"[  c #715F64",
"{  c #746563",
"}  c #796567",
"|  c #756A66",
" . c #7B6B65",
".. c #7C7273",
"X. c #79706B",
"o. c #81360F",
"O. c #843C17",
"+. c #894915",
"@. c #9A5618",
"#. c #8F4713",
"$. c #AA530A",
"%. c #B55608",
"&. c #A45916",
"*. c #BB5914",
"=. c #AE4908",
"-. c #BE6205",
";. c #BD6A1B",
":. c #965F30",
">. c #AF6C3A",
",. c #AD7038",
"<. c #CC5E03",
"1. c #C45B0A",
"2. c #C2640D",
"3. c #CB6507",
"4. c #DA6B05",
"5. c #D46E0C",
"6. c #D96D0B",
"7. c #D56904",
"8. c #DC710B",
"9. c #C86613",
"0. c #D86E15",
"q. c #E16E06",
"w. c #D77922",
"e. c #CB6B21",
"r. c #D23A6A",
"t. c #855D47",
"y. c #856459",
"u. c #8F6749",
"i. c #8E6D60",
"p. c #837572",
"a. c #8B7370",
"s. c #897C76",
"d. c #937969",
"f. c #CC727A",
"g. c #DA8130",
"h. c #D5822B",
"j. c #8A817D",
"k. c #98857A",
"l. c #A68A79",
"z. c #CA8649",
"x. c #D48A42",
"c. c #E1934D",
"v. c #D9996C",
"b. c #CCA071",
"n. c #967E84",
"m. c #D6708E",
"M. c #958985",
"N. c #9B8989",
"B. c #9B938F",
"V. c #9D9490",
"C. c #A28C8B",
"Z. c #A99797",
"A. c #B19E99",
"S. c #A7958D",
"D. c #AAA39E",
"F. c #A79FA1",
"G. c #ACA5A5",
"H. c #B5ADAC",
"J. c #B8AFAB",
"K. c #B7A8A2",
"L. c #BDB7B4",
"P. c #CF9597",
"I. c #D3B480",
"U. c #DCA983",
"Y. c #E0B787",
"T. c #E298AB",
"R. c #CAB6AA",
"E. c #C9BBB8",
"W. c #D1ADA6",
"Q. c #E4A1B1",
"!. c #C9C3BF",
"~. c #C7C2BF",
"^. c #D7C4B9",
"/. c #D9C9AE",
"(. c #E5D2BE",
"). c #C4BFC0",
"_. c #E5BEC9",
"`. c #CAC4C3",
"'. c #CAC5C4",
"]. c #D1CCCA",
"[. c #D4C8C4",
"{. c #DCD4CE",
"}. c #D6D1CF",
"|. c #DACED1",
" X c #DDD6D4",
".X c #DCDAD6",
"XX c #E5C8C9",
"oX c #E5DACB",
"OX c #E3D9D4",
"+X c #E1DBDA",
"@X c #E8DBD3",
"#X c #E8E5D7",
"$X c #E6E4E4",
"%X c #EBE5E4",
"&X c #EDEAE3",
"*X c #F2EDEB",
"=X c #EDF0EE",
"-X c #F3F2EE",
";X c #F9F5EE",
":X c #F5F4F2",
">X c #F9F6F4",
",X c #F5FAF6",
"<X c #FAF9F4",
"1X c #F4FAFA",
"2X c #FBFBF9",
"3X c #F8F6F8",
"4X c None",
/* pixels */
"4X4X4X4X4X4X4X4X4X4X4X4X4X4X4X4X4X4X4X4X4X4X4X4X4X4X4X4X4X4X4X4X4X4X4X4X4X4X4X4X4X4X4X4X4X4X4X4X4X4X4X4X4X4X4X4X4X4X4X4X4X4X4X4X4X4X4X4X4X",
"4X4X4X4X4X4X4X4X4X4X4X4X4X4X4X4X4X4X4X4X4X4X4X4X4X4X4X4X4X4X4X4X4X4X4X4X4X4X4X4X4X4X4X4X4X4X4X4X4X4X4X4X4X4X4X4X4X4X4X4X4X4X4X4X4X4X4X4X4X",
"4X4X4X4X4X4X4X4X4X4X4X4X4X4X4X4X4X4X4X4X4X4X4X4X4X4X4X4X4X4X4X4X4X4X4X4X4X4X4X4X4X4X4X4X4X4X4X4X4X4X4X4X4X4X4X4X4X4X4X4X4X4X4X4X4X4X4X4X4X",
"4X4X4X4X4X4X4X4X4X4X4X4X4X4X4X4X4X4X4X4X4X4X4X4X4X4X4X4X4X4X4X4X4X4X4X4X4X4X4X4X4X4X4X4X4X4X4X4X4X4X4X4X4X4X4X4X4X4X4X4X4X4X4X4X4X4X4X4X4X",
"4X4X4X4X4X4X4X4X4X4X4X4X4X4X4X4X4X4X4X4X4X4X4X4X4X4X4X4X4X4X4X4X4X4X4X4X4X4X4X4X4X4X4X4X4X4X4X4X4X4X4X4X4X4X4X4X4X4X4X4X4X4X4X4X4X4X4X4X4X",
"4X4X4X4X4X4X4X4X4X4X4X4X4X4X4X4X4X4X4X4X4X4X4X4X4X4X4X4X4X4X4X4X4X4X4X4X4X4X4X4X4X4X4X4X4X4X4X4X4X4X4X4X4X4X4X4X4X4X4X4X4X4X4X4X4X4X4X4X4X",
"4X4X4X4X4X4X4X4X4X4X4X4X4X4X4X4X4X4X4X4X4X4X4X4X4X4X4X4X4X4X4X4X4X4X4X4X4X4X4X4X4X4X4X4X4X4X4X4X4X4X4X4X4X4X4X4X4X4X4X4X4X4X4X4X4X4X4X4X4X",
"4X4X4X4X4X4X4X4X4X4X4X4X4X4X4X4X4X4X4X4X4X4X4X4X4X4X4X4X4X4X4X4X4X4X4X4X4X4X4X4X4X4X4X4X4X4X4X4X4X4X4X4X4X4X4X4X4X4X4X4X4X4X4X4X4X4X4X4X4X",
"4X4X4X4X4X4X4X4X4X4X4X4X4X4X4X4X4X4X4X4X4X4X4X4X4X4X4X4X4X4X4X4X4X4X4X4X4X4X4X4X4X4X4X4X4X4X4X4X4X4X4X4X4X4X4X4X4X4X4X4X4X4X4X4X4X4X4X4X4X",
"4X4X4X4X4X4X4X4X4X4X4X4X4X4X4X4X4X4X4X4X4X4X4X4X4X4X4X4X4X4X4X4X4X4X4X4X4X4X4X4X4X4X4X4X4X4X4X4X4X4X4X4X4X4X4X4X4X4X4X4X4X4X4X4X4X4X4X4X4X",
"4X4X4X4X4X4X4X4X4X4X4X4X4X4X4X4X4X4X4X4X4X4X4X4X4X4X4X4X4X4X4X4X4X4X4X4X4X4X4X4X4X4X4X4X4X4X4X4X4X4X4X4X4X4X4X4X4X4X4X4X4X4X4X4X4X4X4X4X4X",
"4X4X4X4X4X4X4X4X4X4X4X4X4X4X4X4X4X4X4X4X4X4X4X4X4X4X4X4X4X4X4X4X4X4X4X4X4X4X4X4X4X4X4X4X4X4X4X4X4X4X4X4X4X4X4X4X4X4X4X4X4X4X4X4X4X4X4X4X4X",
"4X4X4X4X4X4X4X4X4X4X4X4X4X4X4X4X4X4X4X4X4X4X4X4X4X4X4X4X4X4X4X4X4X4X4X4X4X4X4X4X4X4X4X4X4X4X4X4X4X4X4X4X4X4X4X4X4X4X4X4X4X4X4X4X4X4X4X4X4X",
"4X4X4X4X4X4X4X4X4X4X4X4X4X4X4X4X4X4X4X4X4X4X4X4X4X4X4X4X4X4X4X4X4X4X4X4X4X4X4X4X4X4X4X4X4X4X4X4X4X4X4X4X4X4X4X4X4X4X4X4X4X4X4X4X4X4X4X4X4X",
"4X4X4X4X4X4X4X4X4X4X4X4X4X4X4X4X4X4X4X4X4X4X4X4X4X4X4X4X4X4X4X4X4X4X4X4X4X4X4X4X4X4X4X4X4X4X4X4X4X4X4X4X4X4X4X4X4X4X4X4X4X4X4X4X4X4X4X4X4X",
"4X4X4X4X4X4X4X4X4X4X4X4X4X4X4X4X4X4X4X4X4X4X4X4X4X4X4X4X4X4X4X4X4X4X4X4X4X4X4X4X4X4X4X4X4X4X4X4X4X4X4X4X4X4X4X4X4X4X4X4X4X4X4X4X4X4X4X4X4X",
"4X4X4X4X4X4X4X4X4X4X4X4X4X4X4X4X4X4X4X4X4X4X4X4X4X4X4X4X4X4X4X4X4X4X4X4X4X4X4X4X4X4X4X4X4X4X4X4X4X4X4X4X4X4X4X4X4X4X4X4X4X4X4X4X4X4X4X4X4X",
"4X4X4X4X4X4X4X4X4X4X4X4X4X4X4X4X4X4X4X4X4X4X4X4X4X4X4X4X4X4X4X4X4X4X4X4X4X4X4X4X4X4X4X4X4X4X4X4X4X4X4X4X4X4X4X4X4X4X4X4X4X4X4X4X4X4X4X4X4X",
"4X4X4X4X4X4X4X4X4X4X4X4X4X4X4X4X4X4X4X4X4X4X4X4X4X4X4X4X4X4X4X4X4X4X4X4X4X4X4X4X4X4X4X4X4X4X4X4X4X4X4X4X4X4X4X4X4X4X4X4X4X4X4X4X4X4X4X4X4X",
"4X4X4X4X4X4X4X4X4X4X4X4X4X4X4X4X4X4X4X4X4X4X4X4X4X4X4X4X4X4X4X4X4X4X4X4X4X4X4X4X4X4X4X4X4X4X4X4X4X4X4X4X4X4X4X4X4X4X4X4X4X4X4X4X4X4X4X4X4X",
"4X4X4X4X4X4X4X4X4X4X4X4X4X4X4X4X4X4X4X4X4X4X4X4X4X4X4X4X4X4X4X4X4X4X4X4X4X4X4X4X4X4X4X4X4X4X4X4X4X4X4X4X4X4X4X4X4X4X4X4X4X4X4X4X4X4X4X4X4X",
"4X4X4X4X4X4X4X4X4X4X4X4X4X4X4X4X4X4X4X4X4X4X4X4X4X4X4X4X4X4X4X4X4X4X4X4X4X4X4X4X4X4X4X4X4X4X4X4X4X4X4X4X4X4X4X4X4X4X4X4X4X4X4X4X4X4X4X4X4X",
"4X4X4X4X4X4X4X4X4X4X4X4X4X4X4X4X4X4X4X4X4X4X4X4X4X4X4X4X4X4X4X4X4X4X4X4X4X4X4X4X4X4X4X4X4X4X4X4X4X4X4X4X4X4X4X4X4X4X4X4X4X4X4X4X4X4X4X4X4X",
"4X4X4X4X4X4X4X4X4X4X4X4X4X4X4X4X4X4X4X4X4X4X4X4X4X4X4X4X4X4X4X4X4X4X4X4X4X4X4X4X4X4X4X4X4X4X4X4X4X4X4X4X4X4X4X4X4X4X4X4X4X4X4X4X4X4X4X4X4X",
"4X4X4X4X4X4X4X4X4X4X4X4X4X4X4X4X4X4X4X4X4X4X4X4X4X4X4X4X4X4X4X4X4X4X4X4X4X4X4X4X4X4X4X4X4X4X4X4X4X4X4X4X4X4X4X4X4X4X4X4X4X4X4X4X4X4X4X4X4X",
"4X4X4X4X4X4X4X4X4X4X4X4X4X4X4X4X4X4X4X4X4X4X4X4X4X4X4X4X4X4X4X4X4X4X4X4X4X4X4X4X4X4X4X4X4X4X4X4X4X4X4X4X4X4X4X4X4X4X4X4X4X4X4X4X4X4X4X4X4X",
"4X4X4X4X4X4X4X4X4X4X4X4X4X4X4X4X4X4X4X4X4X4X4X4X4X4X4X4X4X4X4X4X4X4X4X4X4X4X4X4X4X4X4X4X4X4X4X4X4X4X4X4X4X4X4X4X4X4X4X4X4X4X4X4X4X4X4X4X4X",
"4X4X4X4X4X4X4X4X4X4X4X4X4X4X4X4X4X4X4X4X4X4X4X4X4X4X4X4X4X4X4X4X4X4X4X4X4X4X4X4X4X4X4X4X4X4X4X4X4X4X4X4X4X4X4X4X4X4X4X4X4X4X4X4X4X4X4X4X4X",
"4X4X4X4X4X4X4X4X4X4X4X4X4X4X4X4X4X4X4X4X4X4X4X4X4X4X0 q : O 4X4X4X4X4X4X4X4X4X4X4X$ > G u 4X4X4X4X4X4X4X4X4X4X4X4X4X4X4X4X4X4X4X4X4X4X4X4X",
"4X4X4X4X4X4X4X4X4X4X4X4X4X4X4X4X4X4X4X4X4X4X4X4X4X4X% l k.) - 4X4X4X4X4X4X4X4X4X4X~ y.V - 4X4X4X4X4X4X4X4X4X4X4X4X4X4X4X4X4X4X4X4X4X4X4X4X",
"4X4X4X4X4X4X4X4X4X4X4X4X4X4X4X4X4X4X4X4X4X4X4X4X4X4X+ K {.^.W X 4X4X4X4X4X4X4Xo R ^.@X .- 4X4X4X4X4X4X4X4X4X4X4X4X4X4X4X4X4X4X4X4X4X4X4X4X",
"4X4X4X4X4X4X4X4X4X4X4X4X4X4X4X4X4X4X4X4X4X4X4X4X4X4X@ ~ {.;Xj.9 4X4X4X4X4X4X4X9 S.&X-X .# 4X4X4X4X4X4X4X4X4X4X4X4X4X4X4X4X4X4X4X4X4X4X4X4X",
"4X4X4X4X4X4X4X4X4X4X4X4X4X4X4X4X4X4X4X4X4X4X4X4X4X4XO ) {.<XD.N.P $ * % - * Y a.[.;X;X .# 4X4X4X4X4X4X4X4X4X4X4X4X4X4X4X4X4X4X4X4X4X4X4X4X",
"4X4X4X4X4X4X4X4X4X4X4X4X4X4X4X4X4X4X4X4X4X4X4X4X4X4X. ) .X,X^.R./ L ! ^ n q ' A. X:X-X .# 4X4X4X4X4X4X4X4X4X4X4X4X4X4X4X4X4X4X4X4X4X4X4X4X",
"4X4X4X4X4X4X4X4X4X4X4X4X4X4X4X4X4X4X4X4X4X4X4X4X4X4X. ) .X,Xv.e.*.*.9.6.@.e r N Z.$X:X .# 4X4X4X4X4X4X4X4X4X4X4X4X4X4X4X4X4X4X4X4X4X4X4X4X",
"4X4X4X4X4X4X4X4X4X4X4X4X4X4X4X4X4X4X4X4X4X4X4X4X4X4XX y..X1Xc.8.4.6.q.q.&.z r r p..X=X| % 4X4X4X4X4X4X4X4X4X4X4X4X4X4X4X4X4X4X4X4X4X4X4X4X",
"4X4X4X4X4X4X4X4X4X4X4X4X4X4X4X4X4X4X4X4X4X4X4X4X4X6 C t.R.b.g.8.5.8.2.@.b u u u E G.G.E 3 > 4X4X4X4X4X4X4X4X4X4X4X4X4X4X4X4X4X4X4X4X4X4X4X",
"4X4X4X4X4X4X4X4X4X4X4X4X4X4X4X4X4X4X4X4X4X4Xs 6 : +.2.2.w.w.8.8.5.8.+.v i i M u M G F M t u u u x 4X4X4X4X4X4X4X4X4X4X4X4X4X4X4X4X4X4X4X4X",
"4X4X4X4X4X4X4X4X4X4X4X4X4X4X4X4X4X4X4X4X4X4X= : 9 C 2.5.5.5.5.5.8.8.S i i i i M i M M x z x e 4 , 4X4X4X4X4X4X4X4X4X4X4X4X4X4X4X4X4X4X4X4X",
"4X4X4X4X4X4X4X4X4X4X4X4X4X4X4X4X4X4X4X4X4X4X4X& p j 2.5.5.5.5.4.8.8.S i i i i i M M M x x x y > 4X4X4X4X4X4X4X4X4X4X4X4X4X4X4X4X4X4X4X4X4X",
"4X4X4X4X4X4X4X4X4X4X4X4X4X4X4X4X4X4X4X4X4X4X4X> 0 j 9.6.6.6.%.%.5.6.>.i.F r i u x i x x u t e > 4X4X4X4X4X4X4X4X4X4X4X4X4X4X4X4X4X4X4X4X4X",
"4X4X4X4X4X4X4X4X4X4X4X4X4X4X4X4X4X4X4X4X4X4Xg s 7 j 3.4.7.4.h s $.7.U..Xj.B u r u t t t t e e q e 4X4X4X4X4X4X4X4X4X4X4X4X4X4X4X4X4X4X4X4X",
"4X4X4X4X4X4X4X4X4X4X4X4X4X4X4X4X4X4X4X4X4X4X5 6 7 O.0.w.h.g.g & &.x.(.1X].( t y t F E R N y q 3 4 4X4X4X4X4X4X4X4X4X4X4X4X4X4X4X4X4X4X4X4X",
"4X4X4X4X4X4X4X4X4X4X4X4X4X4X4X4X4X4X4X4X4X4X4X3 8 u./.#X#X@XR < l.oX-X,X:X}.{ t Q L.+X+X{. .e > 4X4X4X4X4X4X4X4X4X4X4X4X4X4X4X4X4X4X4X4X4X",
"4X4X4X4X4X4X4X4X4X4X4X4X4X4X4X4X4X4X4X4X4X4X4X4X8 i.OX<X2X2X( 8 J.-X1X:X,X,XJ.W | .X2X2X#X| , 4X4X4X4X4X4X4X4X4X4X4X4X4X4X4X4X4X4X4X4X4X4X",
"4X4X4X4X4X4X4X4X4X4X4X4X4X4X4X4X4X4X4X4X4X4X4X4X4Xr p.E.*X2X].H.$X,X_.m.XX>X*XL.].-X,XG.( r 4X4X4X4X4X4X4X4X4X4X4X4X4X4X4X4X4X4X4X4X4X4X4X",
"4X4X4X4X4X4X4X4X4X4X4X4X4X4X4X4X4X4X4X4X4X4X4X4X4X4X> | OX2X3X=X<X1XT.r.Q.;X>X*X,X,X$X| > 4X4X4X4X4X4X4X4X4X4X4X4X4X4X4X4X4X4X4X4X4X4X4X4X",
"4X4X4X4X4X4X4X4X4X4X4X4X4X4X4X4X4X4X4X4X4X4X4X4X4X4X4X& { ..{ ..G.OXP.f.W.@XJ.a.X...( u 3 4X4X4X4X4X4X4X4X4X4X4X4X4X4X4X4X4X4X4X4X4X4X4X4X",
"4X4X4X4X4X4X4X4X4X4X4X4X4X4X4X4X4X4X4X4X4X4X4X4X4X4X4X4X> 4 , 2 V C.W.[.n.[ P w q w 5 4 , 4X4X4X4X4X4X4X4X4X4X4X4X4X4X4X4X4X4X4X4X4X4X4X4X",
"4X4X4X4X4X4X4X4X4X4X4X4X4X4X4X4X4X4X4X4X4X4X4X4X4X4X4X; = # ( Z.C.a.E.*X^.M.a.p.G 8 , q 3 4X4X4X4X4X4X4X4X4X4X4X4X4X4X4X4X4X4X4X4X4X4X4X4X",
"4X4X4X4X4X4X4X4X4X4X4X4X4X4X4X4X4X4X4X4X4X4X4X4X4X4X: 5 : - A.|.Z.n.|.3X%XZ.K.XXV.M , y 3 4X4X4X4X4X4X4X4X4X4X4X4X4X4X4X4X4X4X4X4X4X4X4X4X",
"4X4X4X4X4X4X4X4X4X4X4X4X4X4X4X4X4X4X4X4X4X4X4X4X4X4X5 e : , E.*X|.XX-X<X>X%X*X>XE.F 4 y q 4X4X4X4X4X4X4X4X4X4X4X4X4X4X4X4X4X4X4X4X4X4X4X4X",
"4X4X4X4X4X4X4X4X4X4X4X4X4X4X4X4X4X4X4X4X4X4X4X4X4X4X2 l ; 1 ).3X*X3X3X2X2X2X2X2X`.I 1 q 8 4X4X4X4X4X4X4X4X4X4X4X4X4X4X4X4X4X4X4X4X4X4X4X4X",
"4X4X4X4X4X4X4X4X4X4X4X4X4X4X4X4X4X4X4X4X4X4X4X4X4X< w w 1 q `.3X3X2X2X2X3X2X2X3X`.U w h D d 4X4X4X4X4X4X4X4X4X4X4X4X4X4X4X4X4X4X4X4X4X4X4X",
"4X4X4X4X4X4X4X4X4X4X4X4X4X4X4X4X4X4X4X4X4X4X4X4XN t y e ; q E.3X2X2X2X3X2X2X2X2X`.I f =.1.o.2 4X4X4X4X4X4X4X4X4X4X4X4X4X4X4X4X4X4X4X4X4X4X",
"4X4X4X4X4X4X4X4X4X4X4X4X4X4X4X4X4X4X4X4X4X4X4X4Xn t y t 1 q `.2X$X.X*X2X=X].%X3X[.B d =.<.k : X 4X4X4X4X4X4X4X4X4X4X4X4X4X4X4X4X4X4X4X4X4X",
"4X4X4X4X4X4X4X4X4X4X4X4X4X4X4X4X4X4X4X4X4X4X4X+ c m w l : q !.<Xs.Y H.-XH.E M.%X'.P d =.3.k < o 4X4X4X4X4X4X4X4X4X4X4X4X4X4X4X4X4X4X4X4X4X",
"4X4X4X4X4X4X4X4X4X4X4X4X4X4X4X4X4X4X4X4X4X4X4XX c e m x : y ~.<X( , B.*XM.q ^ {.`.B f $.<.j < . 4X4X4X4X4X4X4X4X4X4X4X4X4X4X4X4X4X4X4X4X4X",
"4X4X4X4X4X4X4X4X4X4X4X4X4X4X4X4X4X4X4X4X4X4X4X. M H k.k.e w !.<X{ - M.%Xp., J z.z.l w @.;.Z 8 . 4X4X4X4X4X4X4X4X4X4X4X4X4X4X4X4X4X4X4X4X4X",
"4X4X4X4X4X4X4X4X4X4X4X4X4X4X4X4X4X4X4X4X4X4X4X. 3 ^ l.k.e w !.;X{ : s.}.) - k 9.2.s 1 :.>.` 8 . 4X4X4X4X4X4X4X4X4X4X4X4X4X4X4X4X4X4X4X4X4X",
"4X4X4X4X4X4X4X4X4X4X4X4X4X4X4X4X4X4X4X4X4X4X4X  o w ^ ^ 3 w !.<X{ : Y k.V % +.<.2.s & C t.B +   4X4X4X4X4X4X4X4X4X4X4X4X4X4X4X4X4X4X4X4X4X",
"4X4X4X4X4X4X4X4X4X4X4X4X4X4X4X4X4X4X4X4X4X4X4X4X4X. w n = y !.<X{ , > z 3 % #.3.*.a * w y +   4X4X4X4X4X4X4X4X4X4X4X4X4X4X4X4X4X4X4X4X4X4X",
"4X4X4X4X4X4X4X4X4X4X4X4X4X4X4X4X4X4X4X4X4X4X4X4X4X  X 5 - t '.<X} < X O # = u.b.b.c 8 > X   4X4X4X4X4X4X4X4X4X4X4X4X4X4X4X4X4X4X4X4X4X4X4X",
"4X4X4X4X4X4X4X4X4X4X4X4X4X4X4X4X4X4X4X4X4X4X4X4X4X4X4X+ ; x ].2X} < .   + = d.#X/.H & X   4X4X4X4X4X4X4X4X4X4X4X4X4X4X4X4X4X4X4X4X4X4X4X4X",
"4X4X4X4X4X4X4X4X4X4X4X4X4X4X4X4X4X4X4X4X4X4X4X4X4X4X4X  . > J.OX_ ; .   X = y.R.J.B .   4X4X4X4X4X4X4X4X4X4X4X4X4X4X4X4X4X4X4X4X4X4X4X4X4X",
"4X4X4X4X4X4X4X4X4X4X4X4X4X4X4X4X4X4X4X4X4X4X4X4X4X4X4X4X  . M ] A 2 O   + s b / F +   4X4X4X4X4X4X4X4X4X4X4X4X4X4X4X4X4X4X4X4X4X4X4X4X4X4X",
"4X4X4X4X4X4X4X4X4X4X4X4X4X4X4X4X4X4X4X4X4X4X4X4X4X4X4X4X4X  . = ; # .   . - % & o   4X4X4X4X4X4X4X4X4X4X4X4X4X4X4X4X4X4X4X4X4X4X4X4X4X4X4X",
"4X4X4X4X4X4X4X4X4X4X4X4X4X4X4X4X4X4X4X4X4X4X4X4X4X4X4X4X4X4X4X      4X4X4X4X    4X4X4X4X4X4X4X4X4X4X4X4X4X4X4X4X4X4X4X4X4X4X4X4X4X4X4X4X4X",
"4X4X4X4X4X4X4X4X4X4X4X4X4X4X4X4X4X4X4X4X4X4X4X4X4X4X4X4X4X4X4X4X4X4X4X4X4X4X4X4X4X4X4X4X4X4X4X4X4X4X4X4X4X4X4X4X4X4X4X4X4X4X4X4X4X4X4X4X4X"
};
