/* XPM */
static char *result[] = {
/* columns rows colors chars-per-pixel */
"69 69 220 2 ",
"   c #010100",
".  c #0B0506",
"X  c #0D0906",
"o  c #0F090A",
"O  c #09070A",
"+  c #140B0A",
"@  c #1B0E0D",
"#  c #110706",
"$  c #1A110E",
"%  c #1D0E10",
"&  c #140D11",
"*  c #1E1412",
"=  c #1E1A19",
"-  c #0C0B13",
";  c #23130F",
":  c #221614",
">  c #2B1512",
",  c #241915",
"<  c #2B1A15",
"1  c #241A1A",
"2  c #2B1D1C",
"3  c #241218",
"4  c #321615",
"5  c #361C15",
"6  c #3B1C13",
"7  c #331D1B",
"8  c #3A1F1C",
"9  c #3A0C0A",
"0  c #27211E",
"q  c #2D211D",
"w  c #35221D",
"e  c #3B231D",
"r  c #3B2317",
"t  c #36210C",
"y  c #261A22",
"u  c #2B2422",
"i  c #352422",
"p  c #3A2421",
"a  c #352925",
"s  c #3B2A25",
"d  c #352929",
"f  c #3B2D2B",
"g  c #3D312D",
"h  c #3B3127",
"j  c #392D33",
"k  c #3E3231",
"l  c #363031",
"z  c #43291C",
"x  c #492519",
"c  c #542F1D",
"v  c #5F311F",
"b  c #6A3C1F",
"n  c #693518",
"m  c #723613",
"M  c #7A3C19",
"N  c #753B18",
"B  c #721625",
"V  c #442B26",
"C  c #452924",
"Z  c #42332E",
"A  c #4C332C",
"S  c #493026",
"D  c #51372A",
"F  c #413332",
"G  c #4E3B33",
"H  c #493837",
"J  c #543C34",
"K  c #5B3B33",
"L  c #533631",
"P  c #613827",
"I  c #703E21",
"U  c #643F30",
"Y  c #754417",
"T  c #55443C",
"R  c #5C4637",
"E  c #5B4026",
"W  c #724525",
"Q  c #684537",
"!  c #734836",
"~  c #614328",
"^  c #4E4546",
"/  c #5B4544",
"(  c #554944",
")  c #5A4A42",
"_  c #5B4D4B",
"`  c #58434A",
"'  c #504651",
"]  c #5A5257",
"[  c #62514B",
"{  c #635553",
"}  c #6C5854",
"|  c #7C5651",
" . c #74645B",
".. c #79675C",
"X. c #6D6159",
"o. c #775D61",
"O. c #7C6E6D",
"+. c #786B68",
"@. c #7D7372",
"#. c #884619",
"$. c #9C4C1A",
"%. c #AC4F0E",
"&. c #B95A0C",
"*. c #A75919",
"=. c #B15419",
"-. c #A3560E",
";. c #8E5229",
":. c #875639",
">. c #9C5630",
",. c #8D4D27",
"<. c #AA5D26",
"1. c #9F693D",
"2. c #B16C35",
"3. c #C25E0B",
"4. c #C85D05",
"5. c #D85F09",
"6. c #CC6506",
"7. c #C56109",
"8. c #CB6808",
"9. c #DD6902",
"0. c #D66908",
"q. c #C96314",
"w. c #C96B19",
"e. c #D87013",
"r. c #D8710F",
"t. c #E46E02",
"y. c #E66704",
"u. c #E97601",
"i. c #F47D06",
"p. c #CB7726",
"a. c #CD763D",
"s. c #D57F3B",
"d. c #AF314E",
"f. c #A6284D",
"g. c #825B48",
"h. c #826256",
"j. c #906A4F",
"k. c #B87155",
"l. c #886D66",
"z. c #86756E",
"x. c #857C74",
"c. c #897A76",
"v. c #8B7B7A",
"b. c #837977",
"n. c #917E76",
"m. c #B57C71",
"M. c #C07A42",
"N. c #D8833B",
"B. c #CD8B28",
"V. c #E98E2E",
"C. c #E18A36",
"Z. c #BD8750",
"A. c #968379",
"S. c #B9907E",
"D. c #A68779",
"F. c #E9A15F",
"G. c #CF916D",
"H. c #DD9B6D",
"J. c #E1A371",
"K. c #9A8D8C",
"L. c #958585",
"P. c #8E8785",
"I. c #A8938B",
"U. c #A69997",
"Y. c #B49E90",
"T. c #BB9383",
"R. c #B1A29A",
"E. c #ACA5AA",
"W. c #B5A9A4",
"Q. c #BAADA8",
"!. c #B9B3AD",
"~. c #B8AFB1",
"^. c #BEB6B7",
"/. c #BAB4B2",
"(. c #CD91A2",
"). c #D196A8",
"_. c #CDAFAA",
"`. c #C8B5AA",
"'. c #C4BBBB",
"]. c #CABEB3",
"[. c #EAC598",
"{. c #CCC3BC",
"}. c #D2C2B7",
"|. c #E5CAB5",
" X c #F7DCB1",
".X c #C7BDCB",
"XX c #CCC6C7",
"oX c #D2CAC7",
"OX c #DAD2CC",
"+X c #D4D0CF",
"@X c #D1CFD4",
"#X c #DBD4D3",
"$X c #D7D4DB",
"%X c #F3DCC5",
"&X c #E3DEDB",
"*X c #E5DAD6",
"=X c #EAD9CA",
"-X c #E3E1DD",
";X c #EBE3DC",
":X c #E9E0D5",
">X c #F6E8D7",
",X c #E4DCE1",
"<X c #E6E4E3",
"1X c #EAE6E5",
"2X c #EDEDEB",
"3X c #E9E9E8",
"4X c #F2EDEC",
"5X c #F1E8E4",
"6X c #EEF1EB",
"7X c #F3F1ED",
"8X c #FAF6EB",
"9X c #EFF0F1",
"0X c #F6F5F5",
"qX c #F8F6F5",
"wX c #FCFBF4",
"eX c #F6F7F8",
"rX c #F9F7FA",
"tX c #FBFBFA",
"yX c #F6F9F3",
"uX c None",
/* pixels */
"uXuXuXuXuXuXuXuXuXuXuXuXuXuXuXuXuXuXuXuXuXuXuXuXuXuXuXuXuXuXuXuXuXuXuXuXuXuXuXuXuXuXuXuXuXuXuXuXuXuXuXuXuXuXuXuXuXuXuXuXuXuXuXuXuXuXuXuXuX",
"uXuXuXuXuXuXuXuXuXuXuXuXuXuXuXuXuXuXuXuXuXuXuXuXuXuXuXuXuXuXuXuXuXuXuXuXuXuXuXuXuXuXuXuXuXuXuXuXuXuXuXuXuXuXuXuXuXuXuXuXuXuXuXuXuXuXuXuXuX",
"uXuXuXuXuXuXuXuXuXuXuXuXuXuXuXuXuXuXuXuXuXuXuXuXuXuXuXuXuXuXuXuXuXuXuXuXuXuXuXuXuXuXuXuXuXuXuXuXuXuXuXuXuXuXuXuXuXuXuXuXuXuXuXuXuXuXuXuXuX",
"uXuXuXuXuXuXuXuXuXuXuXuXuXuXuXuXuXuXuXuXuXuXuXuXuXuXuXuXuXuXuXuXuXuXuXuXuXuXuXuXuXuXuXuXuXuXuXuXuXuXuXuXuXuXuXuXuXuXuXuXuXuXuXuXuXuXuXuXuX",
"uXuXuXuXuXuXuXuXuXuXuXuXuXuXuXuXuXuXuXuXuXuXuXuXuXuXuXuXuXuXuXuXuXuXuXuXuXuXuXuXuXuXuXuXuXuXuXuXuXuXuXuXuXuXuXuXuXuXuXuXuXuXuXuXuXuXuXuXuX",
"uXuXuXuXuXuXuXuXuXuXuXuXuXuXuXuXuXuXuXuXuXuXuXuXuXuXuXuXuXuXuXuXuXuXuXuXuXuXuXuXuXuXuXuXuXuXuXuXuXuXuXuXuXuXuXuXuXuXuXuXuXuXuXuXuXuXuXuXuX",
"uXuXuXuXuXuXuXuXuXuXuXuXuXuXuXuXuXuXuXuXuXuXuXuXuXuXuXuXuXuXuXuXuXuXuXuXuXuXuXuXuXuXuXuXuXuXuXuXuXuXuXuXuXuXuXuXuXuXuXuXuXuXuXuXuXuXuXuXuX",
"uXuXuXuXuXuXuXuXuXuXuXuXuXuXuXuXuXuXuXuXuXuXuXuXuXuXuXuXuXuXuXuXuXuXuXuXuXuXuXuXuXuXuXuXuXuXuXuXuXuXuXuXuXuXuXuXuXuXuXuXuXuXuXuXuXuXuXuXuX",
"uXuXuXuXuXuXuXuXuXuXuXuXuXuXuXuXuXuXuXuXuXuXuXuXuXuXuXuXuXuXuXuXuXuXuXuXuXuXuXuXuXuXuXuXuXuXuXuXuXuXuXuXuXuXuXuXuXuXuXuXuXuXuXuXuXuXuXuXuX",
"uXuXuXuXuXuXuXuXuXuXuXuXuXuXuXuXuXuXuXuXuXuXuXuXuXuXuXuXuXuXuXuXuXuXuXuXuXuXuXuXuXuXuXuXuXuXuXuXuXuXuXuXuXuXuXuXuXuXuXuXuXuXuXuXuXuXuXuXuX",
"uXuXuXuXuXuXuXuXuXuXuXuXuXuXuXuXuXuXuXuXuXuXuXuXuXuXuXuXuXuXuXuXuXuXuXuXuXuXuXuXuXuXuXuXuXuXuXuXuXuXuXuXuXuXuXuXuXuXuXuXuXuXuXuXuXuXuXuXuX",
"uXuXuXuXuXuXuXuXuXuXuXuXuXuXuXuXuXuXuXuXuXuXuXuXuXuXuXuXuXuXuXuXuXuXuXuXuXuXuXuXuXuXuXuXuXuXuXuXuXuXuXuXuXuXuXuXuXuXuXuXuXuXuXuXuXuXuXuXuX",
"uXuXuXuXuXuXuXuXuXuXuXuXuXuXuXuXuXuXuXuXuXuXuXuXuXuXuXuXuXuXuXuXuXuXuXuXuXuXuXuXuXuXuXuXuXuXuXuXuXuXuXuXuXuXuXuXuXuXuXuXuXuXuXuXuXuXuXuXuX",
"uXuXuXuXuXuXuXuXuXuXuXuXuXuXuXuXuXuXuXuXuXuXuXuXuXuXuXuXuXuXuXuXuXuXuXuXuXuXuXuXuXuXuXuXuXuXuXuXuXuXuXuXuXuXuXuXuXuXuXuXuXuXuXuXuXuXuXuXuX",
"uXuXuXuXuXuXuXuXuXuXuXuXuXuXuXuXuXuXuXuXuXuXuXuXuXuXuXuXuXuXuXuXuXuXuXuXuXuXuXuXuXuXuXuXuXuXuXuXuXuXuXuXuXuXuXuXuXuXuXuXuXuXuXuXuXuXuXuXuX",
"uXuXuXuXuXuXuXuXuXuXuXuXuXuXuXuXuXuXuXuXuXuXuXuXuXuXuXuXuXuXuXuXuXuXuXuXuXuXuXuXuXuXuXuXuXuXuXuXuXuXuXuXuXuXuXuXuXuXuXuXuXuXuXuXuXuXuXuXuX",
"uXuXuXuXuXuXuXuXuXuXuXuXuXuXuXuXuXuXuXuXuXuXuXuXuXuXuXuXuXuXuXuXuXuXuXuXuXuXuXuXuXuXuXuXuXuXuXuXuXuXuXuXuXuXuXuXuXuXuXuXuXuXuXuXuXuXuXuXuX",
"uXuXuXuXuXuXuXuXuXuXuXuXuXuXuXuXuXuXuXuXuXuXuXuXuXuXuXuXuXuXuXuXuXuXuXuXuXuXuXuXuXuXuXuXuXuXuXuXuXuXuXuXuXuXuXuXuXuXuXuXuXuXuXuXuXuXuXuXuX",
"uXuXuXuXuXuXuXuXuXuXuXuXuXuXuXuXuXuXuXuXuXuXuXuXuXuXuXuXuXuXuXuXuXuXuXuXuXuXuXuXuXuXuXuXuXuXuXuXuXuXuXuXuXuXuXuXuXuXuXuXuXuXuXuXuXuXuXuXuX",
"uXuXuXuXuXuXuXuXuXuXuXuXuXuXuXuXuXuXuXuXuXuXuXuXuXuXuXuXuXuXuXuXuXuXuXuXuXuXuXuXuXuXuXuXuXuXuXuXuXuXuXuXuXuXuXuXuXuXuXuXuXuXuXuXuXuXuXuXuX",
"uXuXuXuXuXuXuXuXuXuXuXuXuXuXuXuXuXuXuXuXuXuXuXuXuXuXuXuXuXuXuXuXuXuXuXuXuXuXuXuXuXuXuXuXuXuXuXuXuXuXuXuXuXuXuXuXuXuXuXuXuXuXuXuXuXuXuXuXuX",
"uXuXuXuXuXuXuXuXuXuXuXuXuXuXuXuXuXuXuXuXuXuXuXuXuXuXuXuXuXuXuXuXuXuXuXuXuXuXuXuXuXuXuXuXuXuXuXuXuXuXuXuXuXuXuXuXuXuXuXuXuXuXuXuXuXuXuXuXuX",
"uXuXuXuXuXuXuXuXuXuXuXuXuXuXuXuXuXuXuXuXuXuXuXuXuXuXuXuXuXuXuXuXuXuXuXuXuXuXuXuXuXuXuXuXuXuXuXuXuXuXuXuXuXuXuXuXuXuXuXuXuXuXuXuXuXuXuXuXuX",
"uXuXuXuXuXuXuXuXuXuXuXuXuXuXuXuXuXuXuXuXuXuXuXuXuXuXuXuXuXuXuXuXuXuXuXuXuXuXuXuXuXuXuXuXuXuXuXuXuXuXuXuXuXuXuXuXuXuXuXuXuXuXuXuXuXuXuXuXuX",
"uXuXuXuXuXuXuXuXuXuXuXuXuXuXuXuXuXuXuXuXuXuXuXuXuXuXuXuXuXuXuXuXuXuXuXuXuXuXuXuXuXuXuXuXuXuXuXuXuXuXuXuXuXuXuXuXuXuXuXuXuXuXuXuXuXuXuXuXuX",
"uXuXuXuXuXuXuXuXuXuXuXuXuXuXuXuXuXuXuXuXuXuXuXuXuXuXuXuXuXuXuXuXuXuXuXuXuXuXuXuXuXuXuXuXuXuXuXuXuXuXuXuXuXuXuXuXuXuXuXuXuXuXuXuXuXuXuXuXuX",
"uXuXuXuXuXuXuXuXuXuXuXuXuXuXuXuXuXuXuXuXuXuXuXuXuXuXuXuXuXuXuXuXuXuXuXuXuXuXuXuXuXuXuXuXuXuXuXuXuXuXuXuXuXuXuXuXuXuXuXuXuXuXuXuXuXuXuXuXuX",
"uXuXuXuXuXuXuXuXuXuXuXuXuXuXuXuXuXuXuXuXuXuXuXuXuXuXuXuXuXuXuXuXuXuXuXuXuXuXuXuXuXuXuXuXuXuXuXuXuXuXuXuXuXuXuXuXuXuXuXuXuXuXuXuXuXuXuXuXuX",
"uXuXuXuXuXuXuXuXuXuXuXuXuXuXuXuXuXuXuXuXuXuXuXuXuXuXuXuXuXuXuXuXuXuXuXuXuXuXuXuXuXuXuXuXuXuXuXuXuXuXuXuXuXuXuXuXuXuXuXuXuXuXuXuXuXuXuXuXuX",
"uXuXuXuXuXuXuXuXuXuXuXuXuXuXuXuXuXuXuXuXuXuXuXuXuXuXuXuXuXuXuXuXuXuXuXuXuXuXuXuXuXuXuXuXuXuXuXuXuXuXuXuXuXuXuXuXuXuXuXuXuXuXuXuXuXuXuXuXuX",
"uXuXuXuXuXuXuXuXuXuXuXuXuXuXuXuXuXuXuXuXuXuXuXuXuXuXuXuXuXuXuXuXuXuXuXuXuXuXuXuXuXuXuXuXuXuXuXuXuXuXuXuXuXuXuXuXuXuXuXuXuXuXuXuXuXuXuXuXuX",
"uXuXuXuXuXuXuXuXuXuXuXuXuXuXuXuXuXuXuXuXuXuXuXuXuXuXuXuXuXuXuXuXuXuXuXuXuXuXuXuXuXuXuXuXuXuXuXuXuXuXuXuXuXuXuXuXuXuXuXuXuXuXuXuXuXuXuXuXuX",
"uXuXuXuXuXuXuXuXuXuXuXuXuXuXuXuXuXuXuXuXuXuXuXuXuXuXuXuXuXuXuXuXuXuXuXuXuXuXuXuXuXuXuXuXuXuXuXuXuXuXuXuXuXuXuXuXuXuXuXuXuXuXuXuXuXuXuXuXuX",
"uXuXuXuXuXuXuXuXuXuXuXuXuXuXuXuXuXuXuXuXuXuXuXuXuXuXuXuXuXuXuXuXuXuXuXuXuXuXuXuXuXuXuXuXuXuXuXuXuXuXuXuXuXuXuXuXuXuXuXuXuXuXuXuXuXuXuXuXuX",
"uXuXuXuXuXuXuXuXuXuXuXuXuXuXuXuXuXuXuXuXuXuXuXuXuXuXuXuXuXuXuXuXuXuXuXuXuXuXuXuXuXuXuXuXuXuXuXuXuXuXuXuXuXuXuXuXuXuXuXuXuXuXuXuXuXuXuXuXuX",
"uXuXuXuXuXuXuXuXuXuXuXuXuXuXuXuXuXuXuXuXuXuXuXuXuXuXuXuXuXuXuXuXuXuXuXuXuXuXuXuXuXuXuXuXuXuXuXuXuXuXuXuXuXuXuXuXuXuXuXuXuXuXuXuXuXuXuXuXuX",
"uXuXuXuXuXuXuXuXuXuXuXuXuXuXuXuXuXuXuXuXuXuXuXuXuXuXuXuXuXuXuXuXuXuXuXuXuXuXuXuXuXuXuXuXuXuXuXuXuXuXuXuXuXuXuXuXuXuXuXuXuXuXuXuXuXuXuXuXuX",
"uXuXuXuXuXuXuXuXuXuXuXuXuXuXuXuXuXuXuXuXuXuXuXuXuXuXuXuXuXuXuXuXuXuXuXuXuXuXuXuXuXuXuXuXuXuXuXuXuXuXuXuXuXuXuXuXuXuXuXuXuXuXuXuXuXuXuXuXuX",
"uXuXuXuXuXuXuXuXuXuXuXuXuXuXuXuXuXuXuXuXuXuXuXuXuXuXuXuXuXuXuXuXuXuXuXuXuXuXuXuXuXuXuXuXuXuXuXuXuXuXuXuXuXuXuXuXuXuXuXuXuXuXuXuXuXuXuXuXuX",
"uXuXuXuXuXuXuXuXuXuXuXuXuXuXuXuXuXuXuXuXuXuXuXuXuXuXuXuXuXuXuXuXuXuXuXuXuXuXuXuXuXuXuXuXuXuXuXuXuXuXuXuXuXuXuXuXuXuXuXuXuXuXuXuXuXuXuXuXuX",
"uXuXuXuXuXuXuXuXuXuXuXuXuXuXuXuXuXuXuXuXuXuXuXuXuXuXuXuXuXuXuXuXuXuXuXuXuXuXuXuXuXuXuXuXuXuXuXuXuXuXuXuXuXuXuXuXuXuXuXuXuXuXuXuXuXuXuXuXuX",
"uXuXuXuXuXuXuXuXuXuXuXuXuXuXuXuXuXuXuXuX0 0 , uXuXuXuXuXuXuXuXuXuXuXuXuXuXuXuXuXuXuXuXuXuXuXuXuXuXuXuXuXuXuXuXuXuXuXuXuXuXuXuXuXuXuXuXuXuX",
"uXuXuXuXuXuXuXuXuXuXuXuXuXuXuXuXuXuXuX( .... .( uXuXuXuXuXuXuXuXuXuXuXuXuXuXuXuXuXuXuXuXuXuXuXuXuXuXuXuXuXuXuXuXuXuXuXuXuXuXuXuXuXuXuXuXuX",
"uXuXuXuXuXuXuXuXuXuXuXuXuXuXuXuXuXuXH Y.>X8X:XQ.T uXuXuXuXuXuXuXuXuXuXuXuXuXuXuXuXuXuXuXuXuXuXuXuXuXuXuXuXuXuXuXuXuXuXuXuXuXuXuXuXuXuXuXuX",
"uXuXuXuXuXuXuXuXuXuXuXuXuXuXuXuXuXC [ T.yX6X:XW.R a uXuXuXuXuXuXuXuXuXuXuXuXuXuXuXuXuXuXuXuXuXuXuXuXuXuXuXuXuXuXuXuXuXuXuXuXuXuXuXuXuXuXuX",
"uXuXuXuXuXuXuXuXuXuXuXuXuXuXuXuXU $.=.m.3X/.z.) s r uXuXuXuXuXuXuXuXuXuXuXuXuXuXuXuX< > + uXuXuXuXuXuXuXuXo q uXuXuXuXuXuXuXuXuXuXuXuXuXuX",
"uXuXuXuXuXuXuXuXuXuXuXuXuXuXuXj g.5.0.k.{.z., w R e uXuXuXuXuXuXuXuXuXuXuXuXuXuXuX1 S [ T uXuXuXuXuXuXuXT T D p uXuXuXuXuXuXuXuXuXuXuXuXuX",
"uXuXuXuXuXuXuXuXuXuXuXuXuXuXuXd :.4.6.>.X.s X X uXuXuXuXuXuXuXuXuXuXuXuXuXuXuXuXuX* J ].].O.uXuXuXuXuXX.}.].i : uXuXuXuXuXuXuXuXuXuXuXuXuX",
"uXuXuXuXuXuXuXuXuXuXuXuXuXuXuXl :.7.&.M z # uXuXuXuXuXuXuXuXuXuXuXuXuXuXuXuXuXuXuX% ) wX4XP.# uXuXuXa A.8X7Xs , uXuXuXuXuXuXuXuXuXuXuXuXuX",
"uXuXuXuXuXuXuXuXuXuXuXuXuXuXuXf ! $.,.b #.t O uXuXuXuXuXuXuXuXuXuXuXuXuXuXuXuXuXuX% R wX2Xx.+ & - o :  .4X&Xw u : uXuXuXuXuXuXuXuXuXuXuXuX",
"uXuXuXuXuXuXuXuXuXuXuXuXuXuXuXp G u u b q.Y i q w p p p i d d d f f f f f d q uXuX% ) 8X3X .3 y 2 : > T OX!.p d d a uXuXuXuXuXuXuXuXuXuXuX",
"uXuXuXuXuXuXuXuXuXuXuXuXuXuXuXf Q ~ Y -.q.2.n.n.n.j.,.M s f k k k k k k g g s $ & : R |.}.;.n N #.M m P I.O.s d f f q uXuXuXuXuXuXuXuXuXuX",
"uXuXuXuXuXuXuXuXuXuXuXuXuXuXuXS :.w.i.u.e.J.8XtXwX XV.4.c h f F F k F F Z g g a u 0 S M.N.9.t.9.t.y.y.=.K k f f g g g 1 uXuXuXuXuXuXuXuXuX",
"uXuXuXuXuXuXuXuXuXuXuXuXuXuXuXuXM %.8.9.e.J.rXtXtX%XC.&.c f j F F k F F Z Z g a a f N 5.9.y.t.0.8.7.4.<...] s f f f g a 2 uXuXuXuXuXuXuXuX",
"uXuXuXuXuXuXuXuXuXuXuXuXuXuXuXuXuX6 m 3.0.H.rXtXtX%XN.&.D Z Z F F F F Z g g s s s #.5.5.0.5.4.n t 6 8 ` 1XXXs a s d d s s e 2 1 uXuXuXuXuX",
"uXuXuXuXuXuXuXuXuXuXuXuXuXuXuXuXuXuX6 $.q.G.eXtXtX>XF.p.#.c Z F k F F g Z g Z [ h.a.s.N.s.a.2./ ' ^ ^ v.7X5X{ _ _ { { { F 2 7 a uXuXuXuXuX",
"uXuXuXuXuXuXuXuXuXuXuXuXuXuXuXuXuXuXuXx ,.S.eXtXrXwX>X[.B.#.D F k H F F Z Z { oX1X*X&X;X<X,X,X$X$X@XXX,XtXrX@XXX$X3X9X<Xb.; # uXuXuXuXuXuX",
"uXuXuXuXuXuXuXuXuXuXuXuXuXuXuXuXuXuXuXO d K.&XrXtXtXtX*XZ.*.W D J G Z g F K l.5XrXrXwXrXrXrXrXrXrXtXtXtXtXtX4X4XtXtXtXyXc.@ . uXuXuXuXuXuX",
"uXuXuXuXuXuXuXuXuXuXuXuXuXuXuXuXuXuXuXo * u x.OXtXtXtX*Xh.b *.$.*.*.W Z L *.2.`.3XrXrXrXtXtXrXrXtXtXtXtXtXeX).(.wXtXtX*Xe > , $ uXuXuXuXuX",
"uXuXuXuXuXuXuXuXuXuXuXuXuXuXuXuXuXuXX q G a q +.1XwXyXOXX.S w.u.9.8.*.G W r.B.I..XyXtXrXtXtXtXrX3X<X<X2XrX2Xd.f.wXwX*XA.J r E h +.uXuXuXuX",
"uXuXuXuXuXuXuXuXuXuXuXuXuXuXuXuXuXuX0 c.{.c.2 H U.~.^.K.s Z 1.2.<.m U { | M g.&XrXwXrXtXtXtX4X'.L.c.c.K.5X:XB B ;X1Xl.V s o uXuXuXuXuXuXuX",
"uXuXuXuXuXuXuXuXuXuXuXuXuXuXuXuXuX= _ ].yX~.i 2 w i p i w Z l.I.v.j ] E.L.8 o.qXrXrXyXeX9X,X.XA 2 > < p _._.9 6 W.R.K : uXuXuXuXuXuXuXuXuX",
"uXuXuXuXuXuXuXuXuXuXuXuXuXuXuXuXh +.Q.2X2XU.w w i i p i w d / z.O.@.W.1X~._ | ~.^.^.'.~.U.n.} C r r 5 w | h.5 7  .g.A uXuXuXuXuXuXuXuXuXuX",
"uXuXuXuXuXuXuXuXuXuXuXuXuXuXuX* ..=XwXyXOXl.2 8 w p w w i w 7 ` #XrXtXtX0X*XU.> ; ; > < > 4 4 e r z z z p x x z A x uXuXuXuXuXuXuXuXuXuXuX",
"uXuXuXuXuXuXuXuXuXuXuXuXuXuXuX8 | `.oX`.D./ ; : : ; * * : , 1 H I.XXXXoX{.W.v.$ # + + + + + @ @ $ * * = * * * 1 1 @ uXuXuXuXuXuXuXuXuXuXuX",
"uXuXuXuXuXuXuXuXuXuXuXuXuXuXuX5 x w C C S :               X $ < 4 5 w s s p 2                             uXuXuXuXuXuXuXuXuXuXuXuXuXuXuXuX",
"uXuXuXuXuXuXuXuXuXuXuXuXuXuXuXuXi * + @ +   uXuXuXuXuXuXuX  @ < * + + @ % @ o   uXuXuXuXuXuXuXuXuXuXuXuXuXuXuXuXuXuXuXuXuXuXuXuXuXuXuXuXuX",
"uXuXuXuXuXuXuXuXuXuXuXuXuXuXuXuXuXuX      uXuXuXuXuXuXuXuXuXuX                uXuXuXuXuXuXuXuXuXuXuXuXuXuXuXuXuXuXuXuXuXuXuXuXuXuXuXuXuXuX",
"uXuXuXuXuXuXuXuXuXuXuXuXuXuXuXuXuXuXuXuXuXuXuXuXuXuXuXuXuXuXuXuXuXuXuXuXuXuXuXuXuXuXuXuXuXuXuXuXuXuXuXuXuXuXuXuXuXuXuXuXuXuXuXuXuXuXuXuXuX"
};
