/* XPM */
static char *result[] = {
/* columns rows colors chars-per-pixel */
"69 69 228 2 ",
"   c #020101",
".  c #0D090B",
"X  c #090606",
"o  c #140B0B",
"O  c #190D0D",
"+  c #140907",
"@  c #1B100E",
"#  c #160F14",
"$  c #1D1313",
"%  c #171619",
"&  c #26140D",
"*  c #221512",
"=  c #251A14",
"-  c #2B1A14",
";  c #231B1C",
":  c #2D1D1B",
">  c #281715",
",  c #321913",
"<  c #3B1A15",
"1  c #321D1C",
"2  c #3A1A19",
"3  c #2E221E",
"4  c #25201F",
"5  c #34221D",
"6  c #3C251C",
"7  c #3C281B",
"8  c #2A1E21",
"9  c #1D2325",
"0  c #2D2423",
"q  c #2B272A",
"w  c #332523",
"e  c #3A2724",
"r  c #352924",
"t  c #3B2A25",
"y  c #352B2A",
"u  c #3B2C2B",
"i  c #362429",
"p  c #3E312E",
"a  c #3C3127",
"s  c #3B2F30",
"d  c #3D3232",
"f  c #272B31",
"g  c #43261C",
"h  c #4E2C1D",
"j  c #482816",
"k  c #592E1C",
"l  c #572715",
"z  c #4C341D",
"x  c #5C351D",
"c  c #683716",
"v  c #723913",
"b  c #6B2B0F",
"n  c #422D23",
"m  c #4A2E27",
"M  c #43332C",
"N  c #4A3528",
"B  c #5C3B22",
"V  c #54392B",
"C  c #533628",
"Z  c #433432",
"A  c #4A3A34",
"S  c #4C3D3B",
"D  c #443839",
"F  c #513837",
"G  c #532E27",
"H  c #623D25",
"J  c #673C29",
"K  c #733D20",
"L  c #7D4415",
"P  c #7E431F",
"I  c #5D402F",
"U  c #4F413F",
"Y  c #52423D",
"T  c #5B443D",
"R  c #64422B",
"E  c #6A422B",
"W  c #684938",
"Q  c #74472E",
"!  c #443E40",
"~  c #4F4542",
"^  c #5B4A43",
"/  c #594947",
"(  c #595150",
")  c #664C48",
"_  c #66554C",
"`  c #765649",
"'  c #6B5553",
"]  c #645855",
"[  c #75635B",
"{  c #6F635E",
"}  c #705E60",
"|  c #6F6462",
" . c #766966",
".. c #7B6C6A",
"X. c #766B69",
"o. c #7E716B",
"O. c #803A10",
"+. c #8D4A13",
"@. c #86481D",
"#. c #934C15",
"$. c #9A4C16",
"%. c #934F10",
"&. c #AE580C",
"*. c #B95708",
"=. c #A45415",
"-. c #AA5516",
";. c #B35912",
":. c #B65E19",
">. c #A6480E",
",. c #BD610E",
"<. c #854B24",
"1. c #865534",
"2. c #A55628",
"3. c #9A6D3D",
"4. c #A46A3C",
"5. c #B2672C",
"6. c #C45E09",
"7. c #C9610D",
"8. c #CB690C",
"9. c #C8640A",
"0. c #DC6D05",
"q. c #D46D0C",
"w. c #DA6D0B",
"e. c #D6650A",
"r. c #CD6913",
"t. c #C86315",
"y. c #D36E10",
"u. c #D46816",
"i. c #D47011",
"p. c #D87719",
"a. c #D47009",
"s. c #E46B04",
"d. c #EA7503",
"f. c #E67610",
"g. c #D77E26",
"h. c #C37534",
"j. c #8B4F52",
"k. c #85665B",
"l. c #8F6E50",
"z. c #AA774F",
"x. c #BD4B71",
"c. c #846D65",
"v. c #806F6A",
"b. c #84736A",
"n. c #867974",
"m. c #897974",
"M. c #877876",
"N. c #91766F",
"B. c #DD8228",
"V. c #D98833",
"C. c #E08125",
"Z. c #BE8559",
"A. c #BA814D",
"S. c #8F847F",
"D. c #97877D",
"F. c #B58C67",
"G. c #B58E73",
"H. c #DC9649",
"J. c #DB9B59",
"K. c #CC8D4C",
"L. c #E29445",
"P. c #E0A259",
"I. c #DD9C61",
"U. c #D2A477",
"Y. c #E3AF75",
"T. c #D37D9A",
"R. c #9A8A84",
"E. c #968A89",
"W. c #A48B84",
"Q. c #A3948D",
"!. c #AC9889",
"~. c #AB9D98",
"^. c #A49994",
"/. c #ACA59E",
"(. c #B3A59A",
"). c #ACA7A4",
"_. c #B5ACAC",
"`. c #B7ACA6",
"'. c #B9B1AC",
"]. c #BAB1A8",
"[. c #BEB7B5",
"{. c #C8A98B",
"}. c #DBB18A",
"|. c #C9AC93",
" X c #EAB786",
".X c #C9B9A9",
"XX c #C4BABB",
"oX c #CAA7AF",
"OX c #E2A1B7",
"+X c #D8C29C",
"@X c #EACA96",
"#X c #ECC98B",
"$X c #CBC2BD",
"%X c #C7C0BB",
"&X c #D6C9B4",
"*X c #E6D5B8",
"=X c #CEC6C3",
"-X c #CBC8C4",
";X c #D3CCC5",
":X c #DCCEC7",
">X c #D9D3CB",
",X c #DAD5D5",
"<X c #D9D8DA",
"1X c #CDD1CD",
"2X c #E8DBC9",
"3X c #E5DED6",
"4X c #E2DEDB",
"5X c #ECDADC",
"6X c #E4E2DC",
"7X c #E8E3DB",
"8X c #F0DBE3",
"9X c #EBE7E4",
"0X c #EDEAE1",
"qX c #E7E8E7",
"wX c #F1ECEA",
"eX c #F4EAE4",
"rX c #F4F3ED",
"tX c #F8F6EB",
"yX c #F3F4F3",
"uX c #F9F7F5",
"iX c #FAFBF4",
"pX c #F7F7FA",
"aX c #F9F5FA",
"sX c #F6FAFB",
"dX c #FBFBFB",
"fX c #F6F8F2",
"gX c #EFF2F3",
"hX c None",
/* pixels */
"hXhXhXhXhXhXhXhXhXhXhXhXhXhXhXhXhXhXhXhXhXhXhXhXhXhXhXhXhXhXhXhXhXhXhXhXhXhXhXhXhXhXhXhXhXhXhXhXhXhXhXhXhXhXhXhXhXhXhXhXhXhXhXhXhXhXhXhXhX",
"hXhXhXhXhXhXhXhXhXhXhXhXhXhXhXhXhXhXhXhXhXhXhXhXhXhXhXhXhXhXhXhXhXhXhXhXhXhXhXhXhXhXhXhXhXhXhXhXhXhXhXhXhXhXhXhXhXhXhXhXhXhXhXhXhXhXhXhXhX",
"hXhXhXhXhXhXhXhXhXhXhXhXhXhXhXhXhXhXhXhXhXhXhXhXhXhXhXhXhXhXhXhXhXhXhXhXhXhXhXhXhXhXhXhXhXhXhXhXhXhXhXhXhXhXhXhXhXhXhXhXhXhXhXhXhXhXhXhXhX",
"hXhXhXhXhXhXhXhXhXhXhXhXhXhXhXhXhXhXhXhXhXhXhXhXhXhXhXhXhXhXhXhXhXhXhXhXhXhXhXhXhXhXhXhXhXhXhXhXhXhXhXhXhXhXhXhXhXhXhXhXhXhXhXhXhXhXhXhXhX",
"hXhXhXhXhXhXhXhXhXhXhXhXhXhXhXhXhXhXhXhXhXhXhXhXhXhXhXhXhXhXhXhXhXhXhXhXhXhXhXhXhXhXhXhXhXhXhXhXhXhXhXhXhXhXhXhXhXhXhXhXhXhXhXhXhXhXhXhXhX",
"hXhXhXhXhXhXhXhXhXhXhXhXhXhXhXhXhXhXhXhXhXhXhXhXhXhXhXhXhXhXhXhXhXhXhXhXhXhXhXhXhXhXhXhXhXhXhXhXhXhXhXhXhXhXhXhXhXhXhXhXhXhXhXhXhXhXhXhXhX",
"hXhXhXhXhXhXhXhXhXhXhXhXhXhXhXhXhXhXhXhXhXhXhXhXhXhXhXhXhXhXhXhXhXhXhXhXhXhXhXhXhXhXhXhXhXhXhXhXhXhXhXhXhXhXhXhXhXhXhXhXhXhXhXhXhXhXhXhXhX",
"hXhXhXhXhXhXhXhXhXhXhXhXhXhXhXhXhXhXhXhXhXhXhXhXhXhXhXhXhXhXhXhXhXhXhXhXhXhXhXhXhXhXhXhXhXhXhXhXhXhXhXhXhXhXhXhXhXhXhXhXhXhXhXhXhXhXhXhXhX",
"hXhXhXhXhXhXhXhXhXhXhXhXhXhXhXhXhXhXhXhXhXhXhXhXhXhXhXhXhXhXhXhXhXhXhXhXhXhXhXhXhXhXhXhXhXhXhXhXhXhXhXhXhXhXhXhXhXhXhXhXhXhXhXhXhXhXhXhXhX",
"hXhXhXhXhXhXhXhXhXhXhXhXhXhXhXhXhXhXhXhXhXhXhXhXhXhXhXhXhXhXhXhXhXhXhXhXhXhXhXhXhXhXhXhXhXhXhXhXhXhXhXhXhXhXhXhXhXhXhXhXhXhXhXhXhXhXhXhXhX",
"hXhXhXhXhXhXhXhXhXhXhXhXhXhXhXhXhXhXhXhXhXhXhXhXhXhXhXhXhXhXhXhXhXhXhXhXhXhXhXhXhXhXhXhXhXhXhXhXhXhXhXhXhXhXhXhXhXhXhXhXhXhXhXhXhXhXhXhXhX",
"hXhXhXhXhXhXhXhXhXhXhXhXhXhXhXhXhXhXhXhXhXhXhXhXhXhXhXhXhXhXhXhXhXhXhXhXhXhXhXhXhXhXhXhXhXhXhXhXhXhXhXhXhXhXhXhXhXhXhXhXhXhXhXhXhXhXhXhXhX",
"hXhXhXhXhXhXhXhXhXhXhXhXhXhXhXhXhXhXhXhXhXhXhXhXhXhXhXhXhXhXhXhXhXhXhXhXhXhXhXhXhXhXhXhXhXhXhXhXhXhXhXhXhXhXhXhXhXhXhXhXhXhXhXhXhXhXhXhXhX",
"hXhXhXhXhXhXhXhXhXhXhXhXhXhXhXhXhXhXhXhXhXhXhXhXhXhXhXhXhXhXhXhXhXhXhXhXhXhXhXhXhXhXhXhXhXhXhXhXhXhXhXhXhXhXhXhXhXhXhXhXhXhXhXhXhXhXhXhXhX",
"hXhXhXhXhXhXhXhXhXhXhXhXhXhXhXhXhXhXhXhXhXhXhXhXhXhXhXhXhXhXhXhXhXhXhXhXhXhXhXhXhXhXhXhXhXhXhXhXhXhXhXhXhXhXhXhXhXhXhXhXhXhXhXhXhXhXhXhXhX",
"hXhXhXhXhXhXhXhXhXhXhXhXhXhXhXhXhXhXhXhXhXhXhXhXhXhXhXhXhXhXhXhXhXhXhXhXhXhXhXhXhXhXhXhXhXhXhXhXhXhXhXhXhXhXhXhXhXhXhXhXhXhXhXhXhXhXhXhXhX",
"hXhXhXhXhXhXhXhXhXhXhXhXhXhXhXhXhXhXhXhXhXhXhXhXhXhXhXhXhXhXhXhXhXhXhXhXhXhXhXhXhXhXhXhXhXhXhXhXhXhXhXhXhXhXhXhXhXhXhXhXhXhXhXhXhXhXhXhXhX",
"hXhXhXhXhXhXhXhXhXhXhXhXhXhXhXhXhXhXhXhXhXhXhXhXhXhXhXhXhXhXhXhXhXhXhXhXhXhXhXhXhXhXhXhXhXhXhXhXhXhXhXhXhXhXhXhXhXhXhXhXhXhXhXhXhXhXhXhXhX",
"hXhXhXhXhXhXhXhXhXhXhXhXhXhXhXhXhXhXhXhXhXhXhXhXhXhXhXhXhXhXhXhXhXhXhXhXhXhXhXhXhXhXhXhXhXhXhXhXhXhXhXhXhXhXhXhXhXhXhXhXhXhXhXhXhXhXhXhXhX",
"hXhXhXhXhXhXhXhXhXhXhXhXhXhXhXhXhXhXhXhXhXhXhXhXhXhXhXhXhXhXhXhXhXhXhXhXhXhXhXhXhXhXhXhXhXhXhXhXhXhXhXhXhXhXhXhXhXhXhXhXhXhXhXhXhXhXhXhXhX",
"hXhXhXhXhXhXhXhXhXhXhXhXhXhXhXhXhXhXhXhXhXhXhXhXhXhXhXhXhXhXhXhXhXhXhXhXhXhXhXhXhXhXhXhXhXhXhXhXhXhXhXhXhXhXhXhXhXhXhXhXhXhXhXhXhXhXhXhXhX",
"hXhXhXhXhXhXhXhXhXhXhXhXhXhXhXhXhXhXhXhXhXhXhXhXhXhXhXhXhXhXhXhXhXhXhXhXhXhXhXhXhXhXhXhXhXhXhXhXhXhXhXhXhXhXhXhXhXhXhXhXhXhXhXhXhXhXhXhXhX",
"hXhXhXhXhXhXhXhXhXhXhXhXhXhXhXhXhXhXhXhXhXhXhXhXhXhXhXhXhXhXhXhXhXhXhXhXhXhXhXhXhXhXhXhXhXhXhXhXhXhXhXhXhXhXhXhXhXhXhXhXhXhXhXhXhXhXhXhXhX",
"hXhXhXhXhXhXhXhXhXhXhXhXhXhXhXhXhXhXhXhXhXhXhXhXhXhXhXhXhXhXhXhXhXhXhXhXhXhXhXhXhXhXhXhXhXhXhXhXhXhXhXhXhXhXhXhXhXhXhXhXhXhXhXhXhXhXhXhXhX",
"hXhXhXhXhXhXhXhXhXhXhXhXhXhXhXhXhXhXhXhXhXhXhXhXhXhXhXhXhXhXhXhXhXhXhXhXhXhXhXhXhXhXhXhXhXhXhXhXhXhXhXhXhXhXhXhXhXhXhXhXhXhXhXhXhXhXhXhXhX",
"hXhXhXhXhXhXhXhXhXhXhXhXhXhXhXhXhXhXhXhXhXhXhXhXhXhXhXhXhXhXhXhXhXhXhXhXhXhXhXhXhXhXhXhXhXhXhXhXhXhXhXhXhXhXhXhXhXhXhXhXhXhXhXhXhXhXhXhXhX",
"hXhXhXhXhXhXhXhXhXhXhXhXhXhXhXhXhXhXhXhXhXhXhXhXhXhXhXhXhXhXhXhXhXhXhXhXhXhXhXhXhXhXhXhXhXhXhXhXhXhXhXhXhXhXhXhXhXhXhXhXhXhXhXhXhXhXhXhXhX",
"hXhXhXhXhXhXhXhXhXhXhXhXhXhXhXhXhXhXhXhXhXhXhXhXhXhXhXhXhXhXhXhXhXhXhXhXhXhXhXhXhXhXhXhXhXhXhXhXhXhXhXhXhXhXhXhXhXhXhXhXhXhXhXhXhXhXhXhXhX",
"hXhXhXhXhXhXhXhXhXhXhXhXhXhXhXhXhXhXhXhXhXhXhXhXhXhXhXhXhXhXhXhXhXhXhXhXhXhXhXhXhXhXhXhXhXhXhXhXhXhXhXhXhXhXhXhXhXhXhXhXhXhXhXhXhXhXhXhXhX",
"hXhXhXhXhXhXhXhXhXhXhXhXhXhXhXhXhXhXhXhXhXhXhXhXhXhXhXhXhXhXhXhXhXhXhXhXhXhXhXhXhXhXhXhXhXhXhXhXhXhXhXhXhXhXhXhXhXhXhXhXhXhXhXhXhXhXhXhXhX",
"hXhXhXhXhXhXhXhXhXhXhXhXhXhXhXhXhXhXhXhXhXhXhXhXhXhXhXhXhXhXhXhXhXhXhXhXhXhXhXhXhXhXhXhXhXhXhXhXhXhXhXhXhXhXhXhXhXhXhXhXhXhXhXhXhXhXhXhXhX",
"hXhXhXhXhXhXhXhXhXhXhXhXhXhXhXhXhXhXhXhXhXhXhXhXhXhXhXhXhXhXhXhXhXhXhXhXhXhXhXhXhXhXhXhXhXhXhXhXhXhXhXhXhXhXhXhXhXhXhXhXhXhXhXhXhXhXhXhXhX",
"hXhXhXhXhXhXhXhXhXhXhXhXhXhXhXhXhXhXhXhXo = r hXhXhXhXhXhXhXhXhXhXhXhXhXhXhXhXhXhXhXhXhXhXhXhXhXhXhXhXhXhXhXhXhXhXhXhXhXhXhXhXhXhXhXhXhXhX",
"hXhXhXhXhXhXhXhXhXhXhXhXhXhXhXhXhXhXhXq ^ T Y 3 hXhXhXhXhXhXhXhXhXhXhXhXhXhXhXhXhXhXhXhXhXhXhXhXhXhXhXhXhXhXhXhXhXhXhXhXhXhXhXhXhXhXhXhXhX",
"hXhXhXhXhXhXhXhXhXhXhXhXhXhXhXhXhXhXhXo.&XQ._ N 1 hXhXhXhXhXhXhXhXhXhXhXhXhXhXhXhXhXhXhXhXhXhXhXhXhXhXhXhXhXhXhXhXhXhXhXhXhXhXhXhXhXhXhXhX",
"hXhXhXhXhXhXhXhXhXhXhXhXhXhXhXhXhX$ M ].tX7Xo.N 6 $ hXhXhXhXhXhXhXhXhXhXhXhXhXhXhXhXhXhXhXhXhXhXhXhXS S T M hXhXhXhXhXhXhXhXhXhXhXhXhXhXhX",
"hXhXhXhXhXhXhXhXhXhXhXhXhXhXhXhXhXW N.7XiX-X_ n 6 = hXhXhXhXhXhXhXhXhXhXhXhXhXhXhXhXhXhXhXhXhXhXhXc.!.k.T a hXhXhXhXhXhXhXhXhXhXhXhXhXhXhX",
"hXhXhXhXhXhXhXhXhXhXhXhXhXhXhX. T N.:XuXfXR.M 7 G > hXhXhXhXhXhXhXhXhXhXhXhXhX0 t M r hXhXhXhXhX; (.tX]._ 4 hXhXhXhXhXhXhXhXhXhXhXhXhXhXhX",
"hXhXhXhXhXhXhXhXhXhXhXhXhXhXhX. ) K.}..X'.^ : > V hXhXhXhXhXhXhXhXhXhXhXhXhXhXO T W.D.Y hXhXhX$ = /.fX`._ = hXhXhXhXhXhXhXhXhXhXhXhXhXhXhX",
"hXhXhXhXhXhXhXhXhXhXhXhXhXhXhX# W r.s.v i . hXhXhXhXhXhXhXhXhXhXhXhXhXhXhXhXhX+ c.3X4X| o hXhXo $ /.fX/.T $ hXhXhXhXhXhXhXhXhXhXhXhXhXhXhX",
"hXhXhXhXhXhXhXhXhXhXhXhXhXhXhX# W t.d.b - o hXhXhXhXhXhXhXhXhXhXhXhXhXhXhXhXhX+ m.4X6X] O . hX@ O /.rX^.S * hXhXhXhXhXhXhXhXhXhXhXhXhXhXhX",
"hXhXhXhXhXhXhXhXhXhXhXhXhXhXhX% E 6.d.b , X hXhXhXhXhXhXhXhXhXhXhXhXhXhXhXhXhX+ m.6X6X] @ % 4 4 * Q.7XS.M = hXhXhXhXhXhXhXhXhXhXhXhXhXhXhX",
"hXhXhXhXhXhXhXhXhXhXhXhXhXhXhX% J ;.e.l 2 o hXhXhXhXhXhXhXhXhXhXhXhXhXhXhXhXhXo n.4X6X[ j z B B k k._.{ t : hXhXhXhXhXhXhXhXhXhXhXhXhXhXhX",
"hXhXhXhXhXhXhXhXhXhXhXhXhXhXhX; m J 1.i u o hXhXhXhXhXhXhXhXhXhXhXhXhXhXhXhXhXo n.9X6XK.:.t.u.u.7.<.( D r u 3 hXhXhXhXhXhXhXhXhXhXhXhXhXhX",
"hXhXhXhXhXhXhXhXhXhXhXhXhXhXhX; 7 Z M t g & hXhXhXhXhXhXhXhXhXhXhXhXhXhXhXhXhXo N.3X*XH.i.i.y.y.q.;.H Z d d y 0 hXhXhXhXhXhXhXhXhXhXhXhXhX",
"hXhXhXhXhXhXhXhXhXhXhXhXhXhXhX% G =.9.*.*.v j hXhXhXhXhXhXhXhXhXhXhXhXhXhXhXhXo k.}.P.p.i.i.i.i.q.q.;.E Z d d p r hXhXhXhXhXhXhXhXhXhXhXhX",
"hXhXhXhXhXhXhXhXhXhXhXhXhXhXhXq k *.d.d.d.;.E $ hXhXhXhXhXhXhXhXhXhXhXhXhXhXhX* L 9.a.i.i.y.i.q.i.i.q.%.C d d d Z r hXhXhXhXhXhXhXhXhXhXhX",
"hXhXhXhXhXhXhXhXhXhXhXhXhXhXhXy l c +.e.s.>.N ; % hXhXhXhXhXhXhXhXhXhXhXhX$ 6 c &.e.8.a.i.y.y.i.i.w.w.$.V d d p d M r $ hXhXhXhXhXhXhXhXhX",
"hXhXhXhXhXhXhXhXhXhXhXhXhXhXhX0 h g w 5.r.2.F C g 5 w w y y y s u u u u u i V -.r.q.y.i.q.i.i.a.a.a.0.=.W ! s s Z u u w 3 5 hXhXhXhXhXhXhX",
"hXhXhXhXhXhXhXhXhXhXhXhXhXhXhXhXn t y z.{.(.!.z.#.k t u s s d d d u Z u u i ` G.K.p.q.q.q.q.q.;.%.*.s.h.G...d u d u t i w 1 hXhXhXhXhXhXhX",
"hXhXhXhXhXhXhXhXhXhXhXhXhXhXhXhXhXu i &XtXiXiX#Xp.=.B p d d d d Z d u u e e M.<X&XB.a.8.q.q.i.v ; #.p. XeX).S i Z u y w $ hXhXhXhXhXhXhXhX",
"hXhXhXhXhXhXhXhXhXhXhXhXhXhXhXhXhXhXO R.:XtXdX@Xp.9.$.H Z d d d d Z M u e w m.<XeXY.J.J.J.J.I.W 4 3.I.2XsX'.~ Z ....S i : hXhXhXhXhXhXhXhX",
"hXhXhXhXhXhXhXhXhXhXhXhXhXhXhXhXhXhXhX8 c.2XdX Xp.a.e.=.C d d d d Z u y i e m.5XdXsXaXaXaXsXpXM.0 D.0XsXsX'.S ] =X7X .0 w 6 hXhXhXhXhXhXhX",
"hXhXhXhXhXhXhXhXhXhXhXhXhXhXhXhXhXhXhXhX# Q.:XU.J.B.w.9.@.E R R J H G y m G k.`.,XqXpXpXdXdXpXE.U `.gXyX8XXX..X.'.$X{ 5 7 N hXhXhXhXhXhXhX",
"hXhXhXhXhXhXhXhXhXhXhXhXhXhXhXhXhXhXhXhXhX8 ) G.7X@XC.q.u.e.q.q.q.8.L a K t.#.V ] Q.,XpXdXdXdX<X[.4XsX5XT.OXeXXXv./ 0 hXhXhXhXhXhXhXhXhXhX",
"hXhXhXhXhXhXhXhXhXhXhXhXhXhXhXhXhXhXhXhXhXhX$ S.>X+XB.a.,.,.e.w.a.0.&.H :.L.z.` ' v.XXwXyX4X,X4X6X6X6XoXx.T.5X;X| O hXhXhXhXhXhXhXhXhXhXhX",
"hXhXhXhXhXhXhXhXhXhXhXhXhXhXhXhXhXhXhXhXhXhX@ $ n.4.a.0.L E 6.q.0.0.0.$.K.*X1X%X,XyXuXyX=X ./ } ..v.N.k.j.j.W.n.u hXhXhXhXhXhXhXhXhXhXhXhX",
"hXhXhXhXhXhXhXhXhXhXhXhXhXhXhXhXhXhXhXhXhXs ~ y y 1.t.8.j p 5.B.9.e.i.h.|.1XqXiXdXpXuX,XM.m : : 8 : 1 6 g N A w hXhXhXhXhXhXhXhXhXhXhXhXhX",
"hXhXhXhXhXhXhXhXhXhXhXhXhXhXhXhXhXhXhXhX% Q.7X| f u +.<.5 D .X&XQ P F.2XR.( ).rXpXpXgXE.A C g @         hXhXhXhXhXhXhXhXhXhXhXhXhXhXhXhXhX",
"hXhXhXhXhXhXhXhXhXhXhXhXhXhXhXhXhXhXhXhX3 ;XdX$XD 9 q t 4 ~ %X6X{ p `.tXQ.t  .<XaXgX-X( : 5 r $ X hXhXhXhXhXhXhXhXhXhXhXhXhXhXhXhXhXhXhXhX",
"hXhXhXhXhXhXhXhXhXhXhXhXhXhXhXhXhXhXhXX & ;XdXwXn.~ y t 3 y S.^.A w ].tX.XZ T ~.XX_.k.O.#.4.l.T $   hXhXhXhXhXhXhXhXhXhXhXhXhXhXhXhXhXhXhX",
"hXhXhXhXhXhXhXhXhXhXhXhXhXhXhXhXhXhXhX. > ;XyXwX6X~.F 1 7 5 : 5 : w `.tX].Z O * * ; K r.f.H.U.k.i . hXhXhXhXhXhXhXhXhXhXhXhXhXhXhXhXhXhXhX",
"hXhXhXhXhXhXhXhXhXhXhXhXhXhXhXhXhXhXhXo , Q.`.~.D.) C 5 @ = 5 5 5 5 S.%XE.w X X X > k @.5.A.F.W V - hXhXhXhXhXhXhXhXhXhXhXhXhXhXhXhXhXhXhX",
"hXhXhXhXhXhXhXhXhXhXhXhXhXhXhXhXhXhXhXhXg , , < < < m 7 o   j 6 6 5 5 r @       o j j : > , < 6 I a hXhXhXhXhXhXhXhXhXhXhXhXhXhXhXhXhXhXhX",
"hXhXhXhXhXhXhXhXhXhXhXhXhXhXhXhXhXhXhXhX> * $ * * * > $     @ $ * $ $ O X hXhXhX  o * * O @ @ * 3 hXhXhXhXhXhXhXhXhXhXhXhXhXhXhXhXhXhXhXhX",
"hXhXhXhXhXhXhXhXhXhXhXhXhXhXhXhXhXhXhXhXhXhXhXhXhXhXhXhXhXhXhX          hXhXhXhXhX        hXhXhXhXhXhXhXhXhXhXhXhXhXhXhXhXhXhXhXhXhXhXhXhX",
"hXhXhXhXhXhXhXhXhXhXhXhXhXhXhXhXhXhXhXhXhXhXhXhXhXhXhXhXhXhXhXhXhXhXhXhXhXhXhXhXhXhXhXhXhXhXhXhXhXhXhXhXhXhXhXhXhXhXhXhXhXhXhXhXhXhXhXhXhX",
"hXhXhXhXhXhXhXhXhXhXhXhXhXhXhXhXhXhXhXhXhXhXhXhXhXhXhXhXhXhXhXhXhXhXhXhXhXhXhXhXhXhXhXhXhXhXhXhXhXhXhXhXhXhXhXhXhXhXhXhXhXhXhXhXhXhXhXhXhX",
"hXhXhXhXhXhXhXhXhXhXhXhXhXhXhXhXhXhXhXhXhXhXhXhXhXhXhXhXhXhXhXhXhXhXhXhXhXhXhXhXhXhXhXhXhXhXhXhXhXhXhXhXhXhXhXhXhXhXhXhXhXhXhXhXhXhXhXhXhX"
};
