/* XPM */
static char *result[] = {
/* columns rows colors chars-per-pixel */
"69 69 211 2 ",
"   c #020101",
".  c #090605",
"X  c #0E090A",
"o  c #0C0608",
"O  c #130B0B",
"+  c #190B0A",
"@  c #160806",
"#  c #1E110F",
"$  c #14100E",
"%  c #161213",
"&  c #1C1312",
"*  c #1E161C",
"=  c #0B0C12",
"-  c #3F1D0A",
";  c #230E11",
":  c #231412",
">  c #2A1613",
",  c #2C1A15",
"<  c #221619",
"1  c #241B1C",
"2  c #2C1C1B",
"3  c #221A14",
"4  c #321E1C",
"5  c #351716",
"6  c #310A10",
"7  c #2D211D",
"8  c #242116",
"9  c #34221D",
"0  c #3B2417",
"q  c #261D21",
"w  c #2C1F21",
"e  c #2B2123",
"r  c #352523",
"t  c #3A2624",
"y  c #372924",
"u  c #3A2B26",
"i  c #392728",
"p  c #352B2A",
"a  c #3C2D2B",
"s  c #3C312C",
"d  c #282C31",
"f  c #3D3332",
"g  c #383336",
"h  c #461419",
"j  c #41200D",
"k  c #58270A",
"l  c #422B1B",
"z  c #442812",
"x  c #56261A",
"c  c #4B311E",
"v  c #51311D",
"b  c #6B3617",
"n  c #6B3A19",
"m  c #713716",
"M  c #713F1D",
"N  c #64290C",
"B  c #412D2C",
"V  c #422622",
"C  c #512D24",
"Z  c #42322D",
"A  c #43352A",
"S  c #54342C",
"D  c #423431",
"F  c #4C3934",
"G  c #4D3D3A",
"H  c #483737",
"J  c #573D37",
"K  c #7D3B22",
"L  c #663231",
"P  c #653E25",
"I  c #4D413D",
"U  c #52433F",
"Y  c #574236",
"T  c #7A4627",
"R  c #664537",
"E  c #79523A",
"W  c #4F4441",
"Q  c #544542",
"!  c #594543",
"~  c #554A43",
"^  c #5F4C47",
"/  c #53494B",
"(  c #6D4B41",
")  c #614C44",
"_  c #60514F",
"`  c #645452",
"'  c #675957",
"]  c #6A5958",
"[  c #765A52",
"{  c #7B5941",
"}  c #6E615C",
"|  c #7C6659",
" . c #6F6463",
".. c #7A6D6B",
"X. c #766865",
"o. c #7D716F",
"O. c #8A3B0F",
"+. c #87371A",
"@. c #8D4D13",
"#. c #994F13",
"$. c #975216",
"%. c #AA5417",
"&. c #B2550C",
"*. c #BB6015",
"=. c #AD6B2F",
"-. c #B46525",
";. c #C65F0B",
":. c #C9650D",
">. c #CD6A0E",
",. c #D76B06",
"<. c #DC6C05",
"1. c #D36C0C",
"2. c #D96D0A",
"3. c #D5710E",
"4. c #DB710A",
"5. c #DC7B09",
"6. c #C86715",
"7. c #D46E12",
"8. c #DD7517",
"9. c #EA7B06",
"0. c #E77112",
"q. c #E76F0A",
"w. c #D67B25",
"e. c #C27A30",
"r. c #D37D35",
"t. c #906355",
"y. c #916B52",
"u. c #B1794C",
"i. c #836C66",
"p. c #81726C",
"a. c #8B7467",
"s. c #8B7C75",
"d. c #857977",
"f. c #97786F",
"g. c #E14E74",
"h. c #DC8106",
"j. c #EA8211",
"k. c #D29232",
"l. c #8E827C",
"z. c #94847C",
"x. c #9B817A",
"c. c #A1897F",
"v. c #D7985A",
"b. c #C29758",
"n. c #E9A85E",
"m. c #E0A66F",
"M. c #9A7F84",
"N. c #D47799",
"B. c #9B8B89",
"V. c #958784",
"C. c #9E9695",
"Z. c #A79A96",
"A. c #B59C96",
"S. c #AF9289",
"D. c #AFA99E",
"F. c #BEAD9E",
"G. c #B0A5A3",
"H. c #B9A8A8",
"J. c #B9ADB2",
"K. c #BDB4B5",
"L. c #D1908D",
"P. c #DFBA92",
"I. c #D0B585",
"U. c #E1BA9E",
"Y. c #DA85A2",
"T. c #C3AFA4",
"R. c #C0B1AE",
"E. c #C6B9B5",
"W. c #DBB7B9",
"Q. c #E1B1BC",
"!. c #E7C694",
"~. c #D5C4BB",
"^. c #E1C4AB",
"/. c #CBC4C3",
"(. c #C7C2C0",
"). c #D4CCC9",
"_. c #D7C9C6",
"`. c #D6D0CD",
"'. c #DCD1CB",
"]. c #DED8CF",
"[. c #D6D1D2",
"{. c #DAD5D4",
"}. c #DDD9D6",
"|. c #DCD9D8",
" X c #E6D7C9",
".X c #E1D5D2",
"XX c #E3DCD5",
"oX c #E3DCDA",
"OX c #ECD7D9",
"+X c #E5E2DA",
"@X c #E8E7DC",
"#X c #F1E4D8",
"$X c #F5F0D9",
"%X c #E8DDE4",
"&X c #EAE5E1",
"*X c #EDE9E5",
"=X c #E9E9E7",
"-X c #F4EFEC",
";X c #F4ECE1",
":X c #F4F2ED",
">X c #FAF6EB",
",X c #FDFAEF",
"<X c #F2EFF0",
"1X c #F4F4F3",
"2X c #F9F5F3",
"3X c #FBF9F6",
"4X c #F5F6F9",
"5X c #F5F9F9",
"6X c #FBFAFA",
"7X c #F7F8F6",
"8X c None",
/* pixels */
"8X8X8X8X8X8X8X8X8X8X8X8X8X8X8X8X8X8X8X8X8X8X8X8X8X8X8X8X8X8X8X8X8X8X8X8X8X8X8X8X8X8X8X8X8X8X8X8X8X8X8X8X8X8X8X8X8X8X8X8X8X8X8X8X8X8X8X8X8X",
"8X8X8X8X8X8X8X8X8X8X8X8X8X8X8X8X8X8X8X8X8X8X8X8X8X8X8X8X8X8X8X8X8X8X8X8X8X8X8X8X8X8X8X8X8X8X8X8X8X8X8X8X8X8X8X8X8X8X8X8X8X8X8X8X8X8X8X8X8X",
"8X8X8X8X8X8X8X8X8X8X8X8X8X8X8X8X8X8X8X8X8X8X8X8X8X8X8X8X8X8X8X8X8X8X8X8X8X8X8X8X8X8X8X8X8X8X8X8X8X8X8X8X8X8X8X8X8X8X8X8X8X8X8X8X8X8X8X8X8X",
"8X8X8X8X8X8X8X8X8X8X8X8X8X8X8X8X8X8X8X8X8X8X8X8X8X8X8X8X8X8X8X8X8X8X8X8X8X8X8X8X8X8X8X8X8X8X8X8X8X8X8X8X8X8X8X8X8X8X8X8X8X8X8X8X8X8X8X8X8X",
"8X8X8X8X8X8X8X8X8X8X8X8X8X8X8X8X8X8X8X8X8X8X8X8X8X8X8X8X8X8X8X8X8X8X8X8X8X8X8X8X8X8X8X8X8X8X8X8X8X8X8X8X8X8X8X8X8X8X8X8X8X8X8X8X8X8X8X8X8X",
"8X8X8X8X8X8X8X8X8X8X8X8X8X8X8X8X8X8X8X8X8X8X8X8X8X8X8X8X8X8X8X8X8X8X8X8X8X8X8X8X8X8X8X8X8X8X8X8X8X8X8X8X8X8X8X8X8X8X8X8X8X8X8X8X8X8X8X8X8X",
"8X8X8X8X8X8X8X8X8X8X8X8X8X8X8X8X8X8X8X8X8X8X8X8X8X8X8X8X8X8X8X8X8X8X8X8X8X8X8X8X8X8X8X8X8X8X8X8X8X8X8X8X8X8X8X8X8X8X8X8X8X8X8X8X8X8X8X8X8X",
"8X8X8X8X8X8X8X8X8X8X8X8X8X8X8X8X8X8X8X8X8X8X8X8X8X8X8X8X8X8X8X8X8X8X8X8X8X8X8X8X8X8X8X8X8X8X8X8X8X8X8X8X8X8X8X8X8X8X8X8X8X8X8X8X8X8X8X8X8X",
"8X8X8X8X8X8X8X8X8X8X8X8X8X8X8X8X8X8X8X8X8X8X8X8X8X8X8X8X8X8X8X8X8X8X8X8X8X8X8X8X8X8X8X8X8X8X8X8X8X8X8X8X8X8X8X8X8X8X8X8X8X8X8X8X8X8X8X8X8X",
"8X8X8X8X8X8X8X8X8X8X8X8X8X8X8X8X8X8X8X8X8X8X8X8X8X8X8X8X8X8X8X8X8X8X8X8X8X8X8X8X8X8X8X8X8X8X8X8X8X8X8X8X8X8X8X8X8X8X8X8X8X8X8X8X8X8X8X8X8X",
"8X8X8X8X8X8X8X8X8X8X8X8X8X8X8X8X8X8X8X8X8X8X8X8X8X8X8X8X8X8X8X8X8X8X8X8X8X8X8X8X8X8X8X8X8X8X8X8X8X8X8X8X8X8X8X8X8X8X8X8X8X8X8X8X8X8X8X8X8X",
"8X8X8X8X8X8X8X8X8X8X8X8X8X8X8X8X8X8X8X8X8X8X8X8X8X8X8X8X8X8X8X8X8X8X8X8X8X8X8X8X8X8X8X8X8X8X8X8X8X8X8X8X8X8X8X8X8X8X8X8X8X8X8X8X8X8X8X8X8X",
"8X8X8X8X8X8X8X8X8X8X8X8X8X8X8X8X8X8X8X8X8X8X8X8X8X8X8X8X8X8X8X8X8X8X8X8X8X8X8X8X8X8X8X8X8X8X8X8X8X8X8X8X8X8X8X8X8X8X8X8X8X8X8X8X8X8X8X8X8X",
"8X8X8X8X8X8X8X8X8X8X8X8X8X8X8X8X8X8X8X8X8X8X8X8X8X8X8X8X8X8X8X8X8X8X8X8X8X8X8X8X8X8X8X8X8X8X8X8X8X8X8X8X8X8X8X8X8X8X8X8X8X8X8X8X8X8X8X8X8X",
"8X8X8X8X8X8X8X8X8X8X8X8X8X8X8X8X8X8X8X8X8X8X8X8X8X8X8X8X8X8X8X8X8X8X8X8X8X8X8X8X8X8X8X8X8X8X8X8X8X8X8X8X8X8X8X8X8X8X8X8X8X8X8X8X8X8X8X8X8X",
"8X8X8X8X8X8X8X8X8X8X8X8X8X8X8X8X8X8X8X8X8X8X8X8X8X8X8X8X8X8X8X8X8X8X8X8X8X8X8X8X8X8X8X8X8X8X8X8X8X8X8X8X8X8X8X8X8X8X8X8X8X8X8X8X8X8X8X8X8X",
"8X8X8X8X8X8X8X8X8X8X8X8X8X8X8X8X8X8X8X8X8X8X8X8X8X8X8X8X8X8X8X8X8X8X8X8X8X8X8X8X8X8X8X8X8X8X8X8X8X8X8X8X8X8X8X8X8X8X8X8X8X8X8X8X8X8X8X8X8X",
"8X8X8X8X8X8X8X8X8X8X8X8X8X8X8X8X8X8X8X8X8X8X8X8X8X8X8X8X8X8X8X8X8X8X8X8X8X8X8X8X8X8X8X8X8X8X8X8X8X8X8X8X8X8X8X8X8X8X8X8X8X8X8X8X8X8X8X8X8X",
"8X8X8X8X8X8X8X8X8X8X8X8X8X8X8X8X8X8X8X8X8X8X8X8X8X8X8X8X8X8X8X8X8X8X8X8X8X8X8X8X8X8X8X8X8X8X8X8X8X8X8X8X8X8X8X8X8X8X8X8X8X8X8X8X8X8X8X8X8X",
"8X8X8X8X8X8X8X8X8X8X8X8X8X8X8X8X8X8X8X8X8X8X8X8X8X8X8X8X8X8X8X8X8X8X8X8X8X8X8X8X8X8X8X8X8X8X8X8X8X8X8X8X8X8X8X8X8X8X8X8X8X8X8X8X8X8X8X8X8X",
"8X8X8X8X8X8X8X8X8X8X8X8X8X8X8X8X8X8X8X8X8X8X8X8X8X8X8X8X8X8X8X8X8X8X8X8X8X8X8X8X8X8X8X8X8X8X8X8X8X8X8X8X8X8X8X8X8X8X8X8X8X8X8X8X8X8X8X8X8X",
"8X8X8X8X8X8X8X8X8X8X8X8X8X8X8X8X8X8X8X8X8X8X8X8X8X8X8X8X8X8X8X8X8X8X8X8X8X8X8X8X8X8X8X8X8X8X8X8X8X8X8X8X8X8X8X8X8X8X8X8X8X8X8X8X8X8X8X8X8X",
"8X8X8X8X8X8X8X8X8X8X8X8X8X8X8X8X8X8X8X8X8X8X8X8X8X8X8X8X8X8X8X8X8X8X8X8X8X8X8X8X8X8X8X8X8X8X8X8X8X8X8X8X8X8X8X8X8X8X8X8X8X8X8X8X8X8X8X8X8X",
"8X8X8X8X8X8X8X8X8X8X8X8X8X8X8X8X8X8X8X8X8X8X8X8X8X8X8X8X8X8X8X8X8X8X8X8X8X8X8X8X8X8X8X8X8X8X8X8X8X8X8X8X8X8X8X8X8X8X8X8X8X8X8X8X8X8X8X8X8X",
"8X8X8X8X8X8X8X8X8X8X8X8X8X8X8X8X8X8X8X8X8X8X8X8X8X8X8X8X8X8X8X8X8X8X8X8X8X8X8X8X8X8X8X8X8X8X8X8X8X8X8X8X8X8X8X8X8X8X8X8X8X8X8X8X8X8X8X8X8X",
"8X8X8X8X8X8X8X8X8X8X8X8X8X8X8X8X8X8X8X8X8X8X8X8X8X8X8X8X8X8X8X8X8X8X8X8X8X8X8X8X8X8X8X8X8X8X8X8X8X8X8X8X8X8X8X8X8X8X8X8X8X8X8X8X8X8X8X8X8X",
"8X8X8X8X8X8X8X8X8X8X8X8X8X8X8X8X8X8X8X8X8X8X8X8X8X8X8X8X8X8X8X8X8X8X8X8X8X8X8X8X8X8X8X8X8X8X8X8X8X8X8X8X8X8X8X8X8X8X8X8X8X8X8X8X8X8X8X8X8X",
"8X8X8X8X8X8X8X8X8X8X8X8X8X8X8X8X8X8X8X8X8X8X8X8X8X8X8X8X8X8X8X8X8X8X8X8X8X8X8X8X8X8X8X8X8X8X8X8X8X8X8X8X8X8X8X8X8X8X8X8X8X8X8X8X8X8X8X8X8X",
"8X8X8X8X8X8X8X8X8X8X8X8X8X8X8X8X8X8X8X8X8X8X8X8X8X8Xq B u @ 8X8X8X8X8X8X8X8X8X8X8X8X8 Z R 8X8X8X8X8X8X8X8X8X8X8X8X8X8X8X8X8X8X8X8X8X8X8X8X",
"8X8X8X8X8X8X8X8X8X8X8X8X8X8X8X8X8X8X8X8X8X8X8X8X8X8X< A f.i.8X8X8X8X8X8X8X8X8X8X8XU a.F Y 8X8X8X8X8X8X8X8X8X8X8X8X8X8X8X8X8X8X8X8X8X8X8X8X",
"8X8X8X8X8X8X8X8X8X8X8X8X8X8X8X8X8X8X8X8X8X8X8X8X8X8X& I #X`.]   8X8X8X8X8X8X8XO I ~.].p.u 8X8X8X8X8X8X8X8X8X8X8X8X8X8X8X8X8X8X8X8X8X8X8X8X",
"8X8X8X8X8X8X8X8X8X8X8X8X8X8X8X8X8X8X8X8X8X8X8X8X8X8X+ U >X;XD.A 8X8X8X8X8X8X8Xp z.>X@Xl.7 8X8X8X8X8X8X8X8X8X8X8X8X8X8X8X8X8X8X8X8X8X8X8X8X",
"8X8X8X8X8X8X8X8X8X8X8X8X8X8X8X8X8X8X8X8X8X8X8X8X8X8X+ Q ,X1X`.s.~ = % , 3 % G M.).3X@Xd.8 8X8X8X8X8X8X8X8X8X8X8X8X8X8X8X8X8X8X8X8X8X8X8X8X",
"8X8X8X8X8X8X8X8X8X8X8X8X8X8X8X8X8X8X8X8X8X8X8X8X8X8X@ Q 3X2X.XD.a.d / E T e ' W.XX6X+Xd.7 8X8X8X8X8X8X8X8X8X8X8X8X8X8X8X8X8X8X8X8X8X8X8X8X",
"8X8X8X8X8X8X8X8X8X8X8X8X8X8X8X8X8X8X8X8X8X8X8X8X8X8X@ Q ,X:XP.6.*.%.;.6.%.e g Q l.6X+Xp.9 8X8X8X8X8X8X8X8X8X8X8X8X8X8X8X8X8X8X8X8X8X8X8X8X",
"8X8X8X8X8X8X8X8X8X8X8X8X8X8X8X8X8X8X8X8X8X8X8X8X8X8X@ Y 3X*Xm.<.1.2.<.<.*.p p s ' 6XoXo.y 8X8X8X8X8X8X8X8X8X8X8X8X8X8X8X8X8X8X8X8X8X8X8X8X",
"8X8X8X8X8X8X8X8X8X8X8X8X8X8X8X8X8X8X8X8X8X8X8X8X8Xc T E ^.U.k.<.4.4.3.$.R g s s G C.C.! u & 8X8X8X8X8X8X8X8X8X8X8X8X8X8X8X8X8X8X8X8X8X8X8X",
"8X8X8X8X8X8X8X8X8X8X8X8X8X8X8X8X8X8X8X8X8X8Xv z 0 b 6.6.w.8.,.2.1.1.$.f f f f f D G I Z Z a a A F 8X8X8X8X8X8X8X8X8X8X8X8X8X8X8X8X8X8X8X8X",
"8X8X8X8X8X8X8X8X8X8X8X8X8X8X8X8X8X8X8X8X8X8X> , 7 n >.2.1.1.7.2.3.1.$.g g f D f D D D D Z Z a 7 9 8X8X8X8X8X8X8X8X8X8X8X8X8X8X8X8X8X8X8X8X",
"8X8X8X8X8X8X8X8X8X8X8X8X8X8X8X8X8X8X8X8X8X8X8Xq a b 4.3.1.1.1.2.2.>.$.f f f f D D f Z Z B A i & 8X8X8X8X8X8X8X8X8X8X8X8X8X8X8X8X8X8X8X8X8X",
"8X8X8X8X8X8X8X8X8X8X8X8X8X8X8X8X8X8X8X8X8X8X8X% q m 4.<.1.1.7.4.q.<.-.i./ g g s a a D B A a u & 8X8X8X8X8X8X8X8X8X8X8X8X8X8X8X8X8X8X8X8X8X",
"8X8X8X8X8X8X8X8X8X8X8X8X8X8X8X8X8X8X8X8X8X8Xv l w m <.*.k j - k #.q.v.|.Z.a y p y y y y u u y r J 8X8X8X8X8X8X8X8X8X8X8X8X8X8X8X8X8X8X8X8X",
"8X8X8X8X8X8X8X8X8X8X8X8X8X8X8X8X8X8X8X8X8X8X0 l 2 K w.=.S D a A T r.U.<X(.Z a y 9 u s Z D y r 9 y 8X8X8X8X8X8X8X8X8X8X8X8X8X8X8X8X8X8X8X8X",
"8X8X8X8X8X8X8X8X8X8X8X8X8X8X8X8X8X8X8X8X8X8X8X2 l t. X+XXX|.|.[. X#X-X4X<X{.[.[.[.[.}.}.`.z.# 9 8X8X8X8X8X8X8X8X8X8X8X8X8X8X8X8X8X8X8X8X8X",
"8X8X8X8X8X8X8X8X8X8X8X8X8X8X8X8X8X8X8X8X8X8X8X8Xi f.#X5X6X6X6X6X2X3X4X<X4X6X6X6X6X6X6X6X=Xs.X 8X8X8X8X8X8X8X8X8X8X8X8X8X8X8X8X8X8X8X8X8X8X",
"8X8X8X8X8X8X8X8X8X8X8X8X8X8X8X8X8X8X8X8X8X8X8X8X8XH z.E.3X6X6X6X6X4X%XN.Q.6X6X6X6X6X1XE.` 7 8X8X8X8X8X8X8X8X8X8X8X8X8X8X8X8X8X8X8X8X8X8X8X",
"8X8X8X8X8X8X8X8X8X8X8X8X8X8X8X8X8X8X8X8X8X8X8X8X8X8Xq ' OX6X4X4X4X4XOXg.Y.5X6X4X5X5X|.` r 8X8X8X8X8X8X8X8X8X8X8X8X8X8X8X8X8X8X8X8X8X8X8X8X",
"8X8X8X8X8X8X8X8X8X8X8X8X8X8X8X8X8X8X8X8X8X8X8X8X8X8X8Xq  .s.X. .Z..XQ.L.L.|.G.X. . ._ 9 y 8X8X8X8X8X8X8X8X8X8X8X8X8X8X8X8X8X8X8X8X8X8X8X8X",
"8X8X8X8X8X8X8X8X8X8X8X8X8X8X8X8X8X8X8X8X8X8X8X8X8X8X8X8X1 r 4 5 ! L.S._.M.d.J 9 4 y 9 9 y 8X8X8X8X8X8X8X8X8X8X8X8X8X8X8X8X8X8X8X8X8X8X8X8X",
"8X8X8X8X8X8X8X8X8X8X8X8X8X8X8X8X8X8X8X8X8X8X8X8X8X8X8X3 < 2 ! Z.A.T.R.2X[.B.i.i.` 1 2 r u 8X8X8X8X8X8X8X8X8X8X8X8X8X8X8X8X8X8X8X8X8X8X8X8X",
"8X8X8X8X8X8X8X8X8X8X8X8X8X8X8X8X8X8X8X8X8X8X8X8X8X8X4 4 w a V..XE.B.%X3X%XB.Z..XR.4 7 r a 8X8X8X8X8X8X8X8X8X8X8X8X8X8X8X8X8X8X8X8X8X8X8X8X",
"8X8X8X8X8X8X8X8X8X8X8X8X8X8X8X8X8X8X8X8X8X8X8X8X8X8X4 4 q H H.<X%X).2X3X2X%X*X2X).r e y a 8X8X8X8X8X8X8X8X8X8X8X8X8X8X8X8X8X8X8X8X8X8X8X8X",
"8X8X8X8X8X8X8X8X8X8X8X8X8X8X8X8X8X8X8X8X8X8X8X8X8X8X4 0 4 H J.4X<X-X6X2X3X3X3X3X[.i w i p 8X8X8X8X8X8X8X8X8X8X8X8X8X8X8X8X8X8X8X8X8X8X8X8X",
"8X8X8X8X8X8X8X8X8X8X8X8X8X8X8X8X8X8X8X8X8X8X8X8X8X> t y 9 G K.6X4X6X3X6X4X6X6X3X{.a r M @.0 8X8X8X8X8X8X8X8X8X8X8X8X8X8X8X8X8X8X8X8X8X8X8X",
"8X8X8X8X8X8X8X8X8X8X8X8X8X8X8X8X8X8X8X8X8X8X8X8Xi t u t 4 G E.5X6X6X6X6X4X6X6X6X{.a 0 ;.<.O.< 8X8X8X8X8X8X8X8X8X8X8X8X8X8X8X8X8X8X8X8X8X8X",
"8X8X8X8X8X8X8X8X8X8X8X8X8X8X8X8X8X8X8X8X8X8X8X8Xy t a t 4 G E.5X*X).%X6X<X/.oX6X{.a l ,.4.O.&   8X8X8X8X8X8X8X8X8X8X8X8X8X8X8X8X8X8X8X8X8X",
"8X8X8X8X8X8X8X8X8X8X8X8X8X8X8X8X8X8X8X8X8X8X8X% a t u t 4 I ~.-XZ.Q s.<X`.U X.3X{.i l <.5.+.&   8X8X8X8X8X8X8X8X8X8X8X8X8X8X8X8X8X8X8X8X8X",
"8X8X8X8X8X8X8X8X8X8X8X8X8X8X8X8X8X8X8X8X8X8X8X$ t t D G 4 Q /.*XV.3 ` *XE.> J ;X).4 l 3.5.+.*   8X8X8X8X8X8X8X8X8X8X8X8X8X8X8X8X8X8X8X8X8X",
"8X8X8X8X8X8X8X8X8X8X8X8X8X8X8X8X8X8X8X8X8X8X8XX 9 J s.x., Q _.@Xs.: ! oXZ.6 x m.v.5 t e.k.L <   8X8X8X8X8X8X8X8X8X8X8X8X8X8X8X8X8X8X8X8X8X",
"8X8X8X8X8X8X8X8X8X8X8X8X8X8X8X8X8X8X8X8X8X8X8X. 1 ( c.Z.> Q '.@Xl.& G '.l.; k j.>.5 i u.b.[ <   8X8X8X8X8X8X8X8X8X8X8X8X8X8X8X8X8X8X8X8X8X",
"8X8X8X8X8X8X8X8X8X8X8X8X8X8X8X8X8X8X8X8X8X8X8X  O t [ a.; U .X*Xl.+ u S.U : N 9.;.5 w ( y.H o   8X8X8X8X8X8X8X8X8X8X8X8X8X8X8X8X8X8X8X8X8X",
"8X8X8X8X8X8X8X8X8X8X8X8X8X8X8X8X8X8X8X8X8X8X8X8X8XO 0 R : ~ +X@Xz.+ 3 A 9 3 m 9.:.5 q i C X 8X8X8X8X8X8X8X8X8X8X8X8X8X8X8X8X8X8X8X8X8X8X8X",
"8X8X8X8X8X8X8X8X8X8X8X8X8X8X8X8X8X8X8X8X8X8X8X8X8X  X , > ~ +X*XV.+ $ O 3 7 { !.I.x 1 1 X   8X8X8X8X8X8X8X8X8X8X8X8X8X8X8X8X8X8X8X8X8X8X8X",
"8X8X8X8X8X8X8X8X8X8X8X8X8X8X8X8X8X8X8X8X8X8X8X8X8X8X8X. # ^ +X:XB.@ X . X , | $X X( q o   8X8X8X8X8X8X8X8X8X8X8X8X8X8X8X8X8X8X8X8X8X8X8X8X",
"8X8X8X8X8X8X8X8X8X8X8X8X8X8X8X8X8X8X8X8X8X8X8X8X8X8X8X  o D T.~.i.6 .   . 2 R  XF.I X   8X8X8X8X8X8X8X8X8X8X8X8X8X8X8X8X8X8X8X8X8X8X8X8X8X",
"8X8X8X8X8X8X8X8X8X8X8X8X8X8X8X8X8X8X8X8X8X8X8X8X8X8X8X8X  O F ] R h .   $ C S ..W %   8X8X8X8X8X8X8X8X8X8X8X8X8X8X8X8X8X8X8X8X8X8X8X8X8X8X",
"8X8X8X8X8X8X8X8X8X8X8X8X8X8X8X8X8X8X8X8X8X8X8X8X8X8X8X8X8X  . % , , .   . : # & X   8X8X8X8X8X8X8X8X8X8X8X8X8X8X8X8X8X8X8X8X8X8X8X8X8X8X8X",
"8X8X8X8X8X8X8X8X8X8X8X8X8X8X8X8X8X8X8X8X8X8X8X8X8X8X8X8X8X8X8X    . 8X8X8X      8X8X8X8X8X8X8X8X8X8X8X8X8X8X8X8X8X8X8X8X8X8X8X8X8X8X8X8X8X",
"8X8X8X8X8X8X8X8X8X8X8X8X8X8X8X8X8X8X8X8X8X8X8X8X8X8X8X8X8X8X8X8X8X8X8X8X8X8X8X8X8X8X8X8X8X8X8X8X8X8X8X8X8X8X8X8X8X8X8X8X8X8X8X8X8X8X8X8X8X"
};
