/* XPM */
static char *result[] = {
/* columns rows colors chars-per-pixel */
"69 69 219 2 ",
"   c #020101",
".  c #0D090A",
"X  c #0D0606",
"o  c #120906",
"O  c #140C0B",
"+  c #1B0D0D",
"@  c #120605",
"#  c #1C120E",
"$  c #160E11",
"%  c #1C1313",
"&  c #1C1616",
"*  c #23120C",
"=  c #2B140E",
"-  c #241514",
";  c #2C1513",
":  c #2A1A14",
">  c #241D1A",
",  c #2C1D1B",
"<  c #261915",
"1  c #331E1B",
"2  c #391E1C",
"3  c #341A14",
"4  c #200E0A",
"5  c #2C221E",
"6  c #27201F",
"7  c #32221D",
"8  c #3A211C",
"9  c #3F2714",
"0  c #161F28",
"q  c #0E1523",
"w  c #2E2323",
"e  c #2B2329",
"r  c #292829",
"t  c #342622",
"y  c #3C2524",
"u  c #352925",
"i  c #3C2B25",
"p  c #362A2B",
"a  c #3B2D2B",
"s  c #31262B",
"d  c #3E312E",
"f  c #382F31",
"g  c #3D3231",
"h  c #432215",
"j  c #4A2A1C",
"k  c #472A1B",
"l  c #582918",
"z  c #58381B",
"x  c #43230D",
"c  c #6C371E",
"v  c #773E1B",
"b  c #76340B",
"n  c #442D25",
"m  c #4C2B23",
"M  c #422D2A",
"N  c #462928",
"B  c #4A3324",
"V  c #4C342C",
"C  c #46342C",
"Z  c #573828",
"A  c #432E30",
"S  c #423332",
"D  c #4D3C3B",
"F  c #483837",
"G  c #513C37",
"H  c #643B24",
"J  c #723920",
"K  c #7A451C",
"L  c #5B443A",
"P  c #4C413D",
"I  c #65452F",
"U  c #7B4427",
"Y  c #66473B",
"T  c #4D4447",
"R  c #554944",
"E  c #554849",
"W  c #55504A",
"Q  c #684E44",
"!  c #6B514D",
"~  c #655149",
"^  c #74544C",
"/  c #73564A",
"(  c #655552",
")  c #6C5D5C",
"_  c #6A5956",
"`  c #774C40",
"'  c #6E645A",
"]  c #74625E",
"[  c #716663",
"{  c #796964",
"}  c #7A716B",
"|  c #7B7572",
" . c #9E3C10",
".. c #8F440F",
"X. c #874818",
"o. c #964A17",
"O. c #985317",
"+. c #BB5B08",
"@. c #A95713",
"#. c #B65D11",
"$. c #B96417",
"%. c #BD6109",
"&. c #884A25",
"*. c #9C5A28",
"=. c #9B5933",
"-. c #8A633D",
";. c #B56C33",
":. c #C35C0A",
">. c #CB5C0A",
",. c #DA5F00",
"<. c #C95F10",
"1. c #CA630C",
"2. c #C86104",
"3. c #DE6B04",
"4. c #D46B0C",
"5. c #DB6E0A",
"6. c #D76404",
"7. c #D9700A",
"8. c #C76815",
"9. c #C77516",
"0. c #D67319",
"q. c #D26A12",
"w. c #E47907",
"e. c #E3760C",
"r. c #CD712F",
"t. c #D37B38",
"y. c #D26C23",
"u. c #845F57",
"i. c #B85553",
"p. c #8C675A",
"a. c #936A5D",
"s. c #AC7349",
"d. c #826E6A",
"f. c #88756E",
"g. c #8A7A74",
"h. c #897C7C",
"j. c #92746F",
"k. c #AA7D61",
"l. c #C84D68",
"z. c #D68535",
"x. c #E38E32",
"c. c #E38D2D",
"v. c #B98849",
"b. c #8B807F",
"n. c #938378",
"m. c #B79175",
"M. c #C48954",
"N. c #C8965B",
"B. c #E4AD70",
"V. c #877F81",
"C. c #D06782",
"Z. c #928681",
"A. c #988B88",
"S. c #979192",
"D. c #9E908B",
"F. c #A18B87",
"G. c #A8948D",
"H. c #A39B9C",
"J. c #A29891",
"K. c #B69D8F",
"L. c #ACA19D",
"P. c #B9A799",
"I. c #B19FA2",
"U. c #ABA2A3",
"Y. c #B7A8A6",
"T. c #BCB2AB",
"R. c #BBB5B6",
"E. c #CD858D",
"W. c #C7A997",
"Q. c #D4B090",
"!. c #E8B48F",
"~. c #E3B290",
"^. c #D399B0",
"/. c #C4B4AF",
"(. c #C2BABA",
"). c #C5B8B5",
"_. c #D2B2A9",
"`. c #E0B1BE",
"'. c #E0C19F",
"]. c #DBC1A5",
"[. c #CDC4BE",
"{. c #D8CABA",
"}. c #E2C1A1",
"|. c #F9E0B4",
" X c #CBC5C1",
".X c #D3CAC3",
"XX c #D4CCCA",
"oX c #D6CBC6",
"OX c #DBD2CD",
"+X c #D5D1CE",
"@X c #D5D2D4",
"#X c #DAD6D5",
"$X c #DFD9D6",
"%X c #DAD6DB",
"&X c #E2D5C7",
"*X c #E2DEDC",
"=X c #E6D7D5",
"-X c #E3E0DD",
";X c #E9E2D5",
":X c #F5E8D9",
">X c #F1E2CD",
",X c #DFDFE2",
"<X c #E7DFE5",
"1X c #ECE5E4",
"2X c #EDEBEA",
"3X c #E7E7E4",
"4X c #F2EEEC",
"5X c #F1E8E4",
"6X c #EFF3EE",
"7X c #F4F1ED",
"8X c #F4EFF1",
"9X c #ECF5F5",
"0X c #F5F5F4",
"qX c #F9F7F7",
"wX c #FBFAF5",
"eX c #F6F6F9",
"rX c #F6FAFA",
"tX c #FAFAFA",
"yX c None",
/* pixels */
"yXyXyXyXyXyXyXyXyXyXyXyXyXyXyXyXyXyXyXyXyXyXyXyXyXyXyXyXyXyXyXyXyXyXyXyXyXyXyXyXyXyXyXyXyXyXyXyXyXyXyXyXyXyXyXyXyXyXyXyXyXyXyXyXyXyXyXyXyX",
"yXyXyXyXyXyXyXyXyXyXyXyXyXyXyXyXyXyXyXyXyXyXyXyXyXyXyXyXyXyXyXyXyXyXyXyXyXyXyXyXyXyXyXyXyXyXyXyXyXyXyXyXyXyXyXyXyXyXyXyXyXyXyXyXyXyXyXyXyX",
"yXyXyXyXyXyXyXyXyXyXyXyXyXyXyXyXyXyXyXyXyXyXyXyXyXyXyXyXyXyXyXyXyXyXyXyXyXyXyXyXyXyXyXyXyXyXyXyXyXyXyXyXyXyXyXyXyXyXyXyXyXyXyXyXyXyXyXyXyX",
"yXyXyXyXyXyXyXyXyXyXyXyXyXyXyXyXyXyXyXyXyXyXyXyXyXyXyXyXyXyXyXyXyXyXyXyXyXyXyXyXyXyXyXyXyXyXyXyXyXyXyXyXyXyXyXyXyXyXyXyXyXyXyXyXyXyXyXyXyX",
"yXyXyXyXyXyXyXyXyXyXyXyXyXyXyXyXyXyXyXyXyXyXyXyXyXyXyXyXyXyXyXyXyXyXyXyXyXyXyXyXyXyXyXyXyXyXyXyXyXyXyXyXyXyXyXyXyXyXyXyXyXyXyXyXyXyXyXyXyX",
"yXyXyXyXyXyXyXyXyXyXyXyXyXyXyXyXyXyXyXyXyXyXyXyXyXyXyXyXyXyXyXyXyXyXyXyXyXyXyXyXyXyXyXyXyXyXyXyXyXyXyXyXyXyXyXyXyXyXyXyXyXyXyXyXyXyXyXyXyX",
"yXyXyXyXyXyXyXyXyXyXyXyXyXyXyXyXyXyXyXyXyXyXyXyXyXyXyXyXyXyXyXyXyXyXyXyXyXyXyXyXyXyXyXyXyXyXyXyXyXyXyXyXyXyXyXyXyXyXyXyXyXyXyXyXyXyXyXyXyX",
"yXyXyXyXyXyXyXyXyXyXyXyXyXyXyXyXyXyXyXyXyXyXyXyXyXyXyXyXyXyXyXyXyXyXyXyXyXyXyXyXyXyXyXyXyXyXyXyXyXyXyXyXyXyXyXyXyXyXyXyXyXyXyXyXyXyXyXyXyX",
"yXyXyXyXyXyXyXyXyXyXyXyXyXyXyXyXyXyXyXyXyXyXyXyXyXyXyXyXyXyXyXyXyXyXyXyXyXyXyXyXyXyXyXyXyXyXyXyXyXyXyXyXyXyXyXyXyXyXyXyXyXyXyXyXyXyXyXyXyX",
"yXyXyXyXyXyXyXyXyXyXyXyXyXyXyXyXyXyXyXyXyXyXyXyXyXyXyXyXyXyXyXyXyXyXyXyXyXyXyXyXyXyXyXyXyXyXyXyXyXyXyXyXyXyXyXyXyXyXyXyXyXyXyXyXyXyXyXyXyX",
"yXyXyXyXyXyXyXyXyXyXyXyXyXyXyXyXyXyXyXyXyXyXyXyXyXyXyXyXyXyXyXyXyXyXyXyXyXyXyXyXyXyXyXyXyXyXyXyXyXyXyXyXyXyXyXyXyXyXyXyXyXyXyXyXyXyXyXyXyX",
"yXyXyXyXyXyXyXyXyXyXyXyXyXyXyXyXyXyXyXyXyXyXyXyXyXyXyXyXyXyXyXyXyXyXyXyXyXyXyXyXyXyXyXyXyXyXyXyXyXyXyXyXyXyXyXyXyXyXyXyXyXyXyXyXyXyXyXyXyX",
"yXyXyXyXyXyXyXyXyXyXyXyXyXyXyXyXyXyXyXyXyXyXyXyXyXyXyXyXyXyXyXyXyXyXyXyXyXyXyXyXyXyXyXyXyXyXyXyXyXyXyXyXyXyXyXyXyXyXyXyXyXyXyXyXyXyXyXyXyX",
"yXyXyXyXyXyXyXyXyXyXyXyXyXyXyXyXyXyXyXyXyXyXyXyXyXyXyXyXyXyXyXyXyXyXyXyXyXyXyXyXyXyXyXyXyXyXyXyXyXyXyXyXyXyXyXyXyXyXyXyXyXyXyXyXyXyXyXyXyX",
"yXyXyXyXyXyXyXyXyXyXyXyXyXyXyXyXyXyXyXyXyXyXyXyXyXyXyXyXyXyXyXyXyXyXyXyXyXyXyXyXyXyXyXyXyXyXyXyXyXyXyXyXyXyXyXyXyXyXyXyXyXyXyXyXyXyXyXyXyX",
"yXyXyXyXyXyXyXyXyXyXyXyXyXyXyXyXyXyXyXyXyXyXyXyXyXyXyXyXyXyXyXyXyXyXyXyXyXyXyXyXyXyXyXyXyXyXyXyXyXyXyXyXyXyXyXyXyXyXyXyXyXyXyXyXyXyXyXyXyX",
"yXyXyXyXyXyXyXyXyXyXyXyXyXyXyXyXyXyXyXyXyXyXyXyXyXyXyXyXyXyXyXyXyXyXyXyXyXyXyXyXyXyXyXyXyXyXyXyXyXyXyXyXyXyXyXyXyXyXyXyXyXyXyXyXyXyXyXyXyX",
"yXyXyXyXyXyXyXyXyXyXyXyXyXyXyXyXyXyXyXyXyXyXyXyXyXyXyXyXyXyXyXyXyXyXyXyXyXyXyXyXyXyXyXyXyXyXyXyXyXyXyXyXyXyXyXyXyXyXyXyXyXyXyXyXyXyXyXyXyX",
"yXyXyXyXyXyXyXyXyXyXyXyXyXyXyXyXyXyXyXyXyXyXyXyXyXyXyXyXyXyXyXyXyXyXyXyXyXyXyXyXyXyXyXyXyXyXyXyXyXyXyXyXyXyXyXyXyXyXyXyXyXyXyXyXyXyXyXyXyX",
"yXyXyXyXyXyXyXyXyXyXyXyXyXyXyXyXyXyXyXyXyXyXyXyXyXyXyXyXyXyXyXyXyXyXyXyXyXyXyXyXyXyXyXyXyXyXyXyXyXyXyXyXyXyXyXyXyXyXyXyXyXyXyXyXyXyXyXyXyX",
"yXyXyXyXyXyXyXyXyXyXyXyXyXyXyXyXyXyXyXyXyXyXyXyXyXyXyXyXyXyXyXyXyXyXyXyXyXyXyXyXyXyXyXyXyXyXyXyXyXyXyXyXyXyXyXyXyXyXyXyXyXyXyXyXyXyXyXyXyX",
"yXyXyXyXyXyXyXyXyXyXyXyXyXyXyXyXyXyXyXyXyXyXyXyXyXyXyXyXyXyXyXyXyXyXyXyXyXyXyXyXyXyXyXyXyXyXyXyXyXyXyXyXyXyXyXyXyXyXyXyXyXyXyXyXyXyXyXyXyX",
"yXyXyXyXyXyXyXyXyXyXyXyXyXyXyXyXyXyXyXyXyXyXyXyXyXyXyXyXyXyXyXyXyXyXyXyXyXyXyXyXyXyXyXyXyXyXyXyXyXyXyXyXyXyXyXyXyXyXyXyXyXyXyXyXyXyXyXyXyX",
"yXyXyXyXyXyXyXyXyXyXyXyXyXyXyXyXyXyXyXyXyXyXyXyXyXyXyXyXyXyXyXyXyXyXyXyXyXyXyXyXyXyXyXyXyXyXyXyXyXyXyXyXyXyXyXyXyXyXyXyXyXyXyXyXyXyXyXyXyX",
"yXyXyXyXyXyXyXyXyXyXyXyXyXyXyXyXyXyXyXyXyXyXyXyXyXyXyXyXyXyXyXyXyXyXyXyXyXyXyXyXyXyXyXyXyXyXyXyXyXyXyXyXyXyXyXyXyXyXyXyXyXyXyXyXyXyXyXyXyX",
"yXyXyXyXyXyXyXyXyXyXyXyXyXyXyXyXyXyXyXyXyXyXyXyXyXyXyXyXyXyXyXyXyXyXyXyXyXyXyXyXyXyXyXyXyXyXyXyXyXyXyXyXyXyXyXyXyXyXyXyXyXyXyXyXyXyXyXyXyX",
"yXyXyXyXyXyXyXyXyXyXyXyXyXyXyXyXyXyXyXyXyXyXyXyXyXyXyXyXyXyXyXyXyXyXyXyXyXyXyXyXyXyXyXyXyXyXyXyXyXyXyXyXyXyXyXyXyXyXyXyXyXyXyXyXyXyXyXyXyX",
"yXyXyXyXyXyXyXyXyXyXyXyXyXyXyXyXyXyXyXyXyXyXyXyXyXyXyXyXyXyXyXyXyXyXyXyXyXyXyXyXyXyXyXyXyXyXyXyXyXyXyXyXyXyXyXyXyXyXyXyXyXyXyXyXyXyXyXyXyX",
"yXyXyXyXyXyXyXyXyXyXyXyXyXyXyXyXyXyXyXyXyXyXyXyXyXyXyXyXyXyXyXyXyXyXyXyXyXyXyXyXyXyXyXyXyXyXyXyXyXyXyXyXyXyXyXyXyXyXyXyXyXyXyXyXyXyXyXyXyX",
"yXyXyXyXyXyXyXyXyXyXyXyXyXyXyXyXyXyXyXyXyXyXyXyXyXyXyXyXyXyXyXyXyXyXyXyXyXyXyXyXyXyXyXyXyXyXyXyXyXyXyXyXyXyXyXyXyXyXyXyXyXyXyXyXyXyXyXyXyX",
"yXyXyXyXyXyXyXyXyXyXyXyXyXyXyXyXyXyXyXyXyXyXyXyXyXyXyXyXyXyXyXyXyXyXyXyXyXyXyXyXyXyXyXyXyXyXyXyXyXyXyXyXyXyXyXyXyXyXyXyXyXyXyXyXyXyXyXyXyX",
"yXyXyXyXyXyXyXyXyXyXyXyXyXyXyXyXyXyXyXyXyXyXyXyXyXyXyXyXyXyXyXyXyXyXyXyXyXyXyXyXyXyXyXyXyXyXyXyXyXyXyXyXyXyXyXyXyXyXyXyXyXyXyXyXyXyXyXyXyX",
"yXyXyXyXyXyXyXyXyXyXyXyXyXyXyXyXyXyXyXyXyXyXyXyXyXyXyXyXyXyXyXyXyXyXyXyXyXyXyXyXyXyXyXyXyXyXyXyXyXyXyXyXyXyXyXyXyXyXyXyXyXyXyXyXyXyXyXyXyX",
"yXyXyXyXyXyXyXyXyXyXyXyXyXyXyXyXyXyXyXyXyXyXyXyXyXyXyXyXyXyXyXyXyXyXyXyXyXyXyXyXyXyXyXyXyXyXyXyXyXyXyXyXyXyXyXyXyXyXyXyXyXyXyXyXyXyXyXyXyX",
"yXyXyXyXyXyXyXyXyXyXyXyXyXyXyXyXyXyXyXyXyXyXyXyXyXyXyXyXyXyXyXyXyXyXyXyXyXyXyXyXyXyXyXyXyXyXyXyXyXyXyXyXyXyXyXyXyXyXyXyXyXyXyXyXyXyXyXyXyX",
"yXyXyXyXyXyXyXyXyXyXyXyXyXyXyXyXyXyXyXyXyXyXyXyXyXyXyXyXyXyXyXyXyXyXyXyXyXyXyXyXyXyXyXyXyXyXyXyXyXyXyXyXyXyXyXyXyXyXyXyXyXyXyXyXyXyXyXyXyX",
"yXyXyXyXyXyXyXyXyXyXyXyXyXyXyXyXyXyXyXyXyXyXyXyXyXyXyXyXyXyXyXyXyXyXyXyXyXyXyXyXyXyXyXyXyXyXyXyXyXyXyXyXyXyXyXyXyXyXyXyXyXyXyXyXyXyXyXyXyX",
"yXyXyXyXyXyXyXyXyXyXyXyXyXyXyXyXyXyXyXyXyXyXyXyXyXyXyXyXyXyXyXyXyXyXyXyXyXyXyXyXyXyXyXyXyXyXyXyXyXyXyXyXyXyXyXyXyXyXyXyXyXyXyXyXyXyXyXyXyX",
"yXyXyXyXyXyXyXyXyXyXyXyXyXyXyXyXyXyXyXyXyXyXyXyXyXyXyXyXyXyXyXyXyXyXyXyXyXyXyXyXyXyXyXyXyXyXyXyXyXyXyXyXyXyXyXyXyXyXyXyXyXyXyXyXyXyXyXyXyX",
"yXyXyXyXyXyXyXyXyXyXyXyXyXyXyXyXyXyXyXyXt u > yXyXyXyXyXyXyXyXyXyXyXyXyXyXyXyXyXyXyXyXyXyXyXyXyXyXyXyXyXyXyXyXyXyXyXyXyXyXyXyXyXyXyXyXyXyX",
"yXyXyXyXyXyXyXyXyXyXyXyXyXyXyXyXyXyXyXW _ ' ' T yXyXyXyXyXyXyXyXyXyXyXyXyXyXyXyXyXyXyXyXyXyXyXyXyXyXyXyXyXyXyXyXyXyXyXyXyXyXyXyXyXyXyXyXyX",
"yXyXyXyXyXyXyXyXyXyXyXyXyXyXyXyXyXyX- P.>X:X=XT.F yXyXyXyXyXyXyXyXyXyXyXyXyXyXyXyXyXyXyXyXyXyXyXyXyXyXyXyXyXyXyXyXyXyXyXyXyXyXyXyXyXyXyXyX",
"yXyXyXyXyXyXyXyXyXyXyXyXyXyXyXyXyXm J W.7X7X*XL.G # yXyXyXyXyXyXyXyXyXyXyXyXyXyXyXyXyXyXyXyXyXyXyXyXyXyXyXyXyXyXyXyXyXyXyXyXyXyXyXyXyXyXyX",
"yXyXyXyXyXyXyXyXyXyXyXyXyXyXyXyXZ  .<.Q.-X/.f.C j # yXyXyXyXyXyXyXyXyXyXyXyXyXyXyXyX: # O yXyXyXyXyXyXyX. $ 5 yXyXyXyXyXyXyXyXyXyXyXyXyXyX",
"yXyXyXyXyXyXyXyXyXyXyXyXyXyXyXq &.1.c.m./.( M G I : yXyXyXyXyXyXyXyXyXyXyXyXyXyXyXS V Y ~ yXyXyXyXyXyXyXL P V 7 yXyXyXyXyXyXyXyXyXyXyXyXyX",
"yXyXyXyXyXyXyXyXyXyXyXyXyXyXyX0 K 4.w.&.) 5 yXyXyXyXyXyXyXyXyXyXyXyXyXyXyXyXyXyXyXu Q P.&X} & yXyXyX$ n.{./.W + yXyXyXyXyXyXyXyXyXyXyXyXyX",
"yXyXyXyXyXyXyXyXyXyXyXyXyXyXyX0 c 1.4.c h O yXyXyXyXyXyXyXyXyXyXyXyXyXyXyXyXyXyXyX, ! [.wX| 6 O yXO % J.7XOX( o yXyXyXyXyXyXyXyXyXyXyXyXyX",
"yXyXyXyXyXyXyXyXyXyXyXyXyXyXyX0 l O.&.&.O.x $ yXyXyXyXyXyXyXyXyXyXyXyXyXyXyXyXyXyX- !  XwX} & > % O + Z.1XT.P O yXyXyXyXyXyXyXyXyXyXyXyXyX",
"yXyXyXyXyXyXyXyXyXyXyXyXyXyXyXe 2 p p &.#.U M F D D L m yXyXyXyXyXyXyXyXyXyXyXyXyX% ^ .X6X{ 7 n j : - [  XZ.i # yXyXyXyXyXyXyXyXyXyXyXyXyX",
"yXyXyXyXyXyXyXyXyXyXyXyXyXyXyXe k H X.+.1.s.A.F.G.k.*.X.2 yXyXyXyXyXyXyXyXyXyXyXyX& ` Q._.s.X.o.o.l 6 P b.( 7 - yXyXyXyXyXyXyXyXyXyXyXyXyX",
"yXyXyXyXyXyXyXyXyXyXyXyXyXyXyXr v 8.3.3.6.!.4XwXwX|.x.#.m s p p p a p p p i 6 yXyX> K $.7.3.5.5.3.@.B r p p u , yXyXyXyXyXyXyXyXyXyXyXyXyX",
"yXyXyXyXyXyXyXyXyXyXyXyXyXyXyXyXj ..2.>.6.!.7XwXtX>Xx.+.m p p g g g g g d d i & % z @.4.7.7.5.5.5.q.X.Z g p p u , yXyXyXyXyXyXyXyXyXyXyXyX",
"yXyXyXyXyXyXyXyXyXyXyXyXyXyXyXyXyX3 v :.,.~.0XtXtX>Xc.:.Z y a g g g g g d C i w n o.>.4.4.4.5.5.5.3.3.O.Z f a a d w yXyXyXyXyXyXyXyXyXyXyX",
"yXyXyXyXyXyXyXyXyXyXyXyXyXyXyXyXyXyXN o.:.Q.2XtXtX:XB.r.X.Z A C g g g g d d i r I M.z.q.4.4.4.2.%.2.:.;.d.E p p u i t yXyXyXyXyXyXyXyXyXyX",
"yXyXyXyXyXyXyXyXyXyXyXyXyXyXyXyXyXyXyX2 J W.4XtXtXtX4X}.c.@.Z S g g g C C d i t ^  X].z.4.1.:.b x h h d.oXH.F w w 5 , t t t yXyXyXyXyXyXyX",
"yXyXyXyXyXyXyXyXyXyXyXyXyXyXyXyXyXyXyX  1 h.OX0XtXtXtX5Xv.#.U Z Z Z V g V Z z m | %X0XB.t.t.;.^ E T T H.5X+X} E W R M 1 > w yXyXyXyXyXyXyX",
"yXyXyXyXyXyXyXyXyXyXyXyXyXyXyXyXyXyXyX  # * ' XXwXtXtX4X~ H #.1.1.>.K p U $.$.p.Y.8XeX5X=X=X%X%X%X@X@X2XtXqXOXXX1X*X[ - % yXyXyXyXyXyXyXyX",
"yXyXyXyXyXyXyXyXyXyXyXyXyXyXyXyXyXyX  5 R u < h.$X2X2X.XD N $.e.0.y.*.C =.t.N.].1X2X0XeX0X0XeXeXeXtXqX0X4X8XtXtXtX2X[ : , yXyXyXyXyXyXyXyX",
"yXyXyXyXyXyXyXyXyXyXyXyXyXyXyXyXyXyXO n.;Xf.u S V.S.A.( w e =.M._.].W.! m.|.6XrX8X X@X8XqXtXtXtXeXtXrX3X^.`.7XtXtX/.D 7 i 7 yXyXyXyXyXyXyX",
"yXyXyXyXyXyXyXyXyXyXyXyXyXyXyXyXyX5 ( OXwXL.d 5 7 , , , 1 s F.=X;X-X$XU.%XrXrXrX2XI.I.*XqXtXtXtXrXeX,X^.l.C.=X0X-Xg.i V Z B yXyXyXyXyXyXyX",
"yXyXyXyXyXyXyXyXyXyXyXyXyXyXyXyXt n.OX4X7Xg.M t t t 7 C ' h.[.oXh.| U.-XrXtXtXrXqX$X*X0XtXtXtXtXrX#XV.a.i.E.=X=XF.~ u . yXyXyXyXyXyXyXyXyX",
"yXyXyXyXyXyXyXyXyXyXyXyXyXyXyXO Q OXwX4X[.Q y 7 y 7 7 E /.OXOX).( D L.2XrXrXwXrXtXtXtXtXtXtXeXeX9XS.a ^ m._.OXK.Y < yXyXyXyXyXyXyXyXyXyXyX",
"yXyXyXyXyXyXyXyXyXyXyXyXyXyXyXw Y Y.[.G.p.B % $ $ % 7 n p.D.g.[ ) S.$XqXqXqXOXR./.).(.(.(.R.R.R.R.) 7 N ^ u.a.p.d yXyXyXyXyXyXyXyXyXyXyXyX",
"yXyXyXyXyXyXyXyXyXyXyXyXyXyXyXL h 3 1 8 y +       . k k 7 = < D [.0XtXtX4X$X{ : + * * * * - = ; ; 3 h 8 1 y A 7 yXyXyXyXyXyXyXyXyXyXyXyXyX",
"yXyXyXyXyXyXyXyXyXyXyXyXyXyXyXyX- % % + o   yXyXyX  O < ; % 7 n D. XXX XL.g.D + @ @ @ X @ @ o O O O O O $ # $ yXyXyXyXyXyXyXyXyXyXyXyXyXyX",
"yXyXyXyXyXyXyXyXyXyXyXyXyXyXyXyXyXyXyXyXyXyXyXyXyXyXyX      1 = ; 2 i M n A > X                       yXyXyXyXyXyXyXyXyXyXyXyXyXyXyXyXyXyX",
"yXyXyXyXyXyXyXyXyXyXyXyXyXyXyXyXyXyXyXyXyXyXyXyXyXyXyXyXyX  O < * O o O O % X   yXyXyXyXyXyXyXyXyXyXyXyXyXyXyXyXyXyXyXyXyXyXyXyXyXyXyXyXyX",
"yXyXyXyXyXyXyXyXyXyXyXyXyXyXyXyXyXyXyXyXyXyXyXyXyXyXyXyXyXyXyX              yXyXyXyXyXyXyXyXyXyXyXyXyXyXyXyXyXyXyXyXyXyXyXyXyXyXyXyXyXyXyX",
"yXyXyXyXyXyXyXyXyXyXyXyXyXyXyXyXyXyXyXyXyXyXyXyXyXyXyXyXyXyXyXyXyXyXyXyXyXyXyXyXyXyXyXyXyXyXyXyXyXyXyXyXyXyXyXyXyXyXyXyXyXyXyXyXyXyXyXyXyX"
};
