/* XPM */
static char *result[] = {
/* columns rows colors chars-per-pixel */
"69 69 217 2 ",
"   c #030202",
".  c #0A0505",
"X  c #060509",
"o  c #05090A",
"O  c #0D0B0B",
"+  c #140D0B",
"@  c #1C0D0B",
"#  c #160709",
"$  c #1B120F",
"%  c #0B0A11",
"&  c #160E11",
"*  c #111316",
"=  c #1A1313",
"-  c #14131B",
";  c #19181D",
":  c #251209",
">  c #39130E",
",  c #34150D",
"<  c #211415",
"1  c #2A1613",
"2  c #261A15",
"3  c #23151A",
"4  c #241B1B",
"5  c #2B1D1C",
"6  c #2A1A17",
"7  c #351F14",
"8  c #2E231C",
"9  c #32241D",
"0  c #3C251B",
"q  c #1A1F29",
"w  c #191A23",
"e  c #231B22",
"r  c #291D21",
"t  c #201D2F",
"y  c #351E28",
"u  c #18242C",
"i  c #1C2832",
"p  c #252126",
"a  c #2B2225",
"s  c #232329",
"d  c #2C282B",
"f  c #342422",
"g  c #3A2423",
"h  c #352924",
"j  c #3A2B26",
"k  c #352C2B",
"l  c #3B2D2B",
"z  c #38262D",
"x  c #37302E",
"c  c #3E312D",
"v  c #3C3026",
"b  c #292B36",
"n  c #362E32",
"m  c #3E3332",
"M  c #353537",
"N  c #2D353D",
"B  c #46241A",
"V  c #542E1A",
"C  c #50271C",
"Z  c #4D301D",
"A  c #542D11",
"S  c #732F0E",
"D  c #763817",
"F  c #6C3412",
"G  c #412B27",
"H  c #412D2B",
"J  c #4B2A24",
"K  c #5D2D20",
"L  c #463224",
"P  c #42322E",
"I  c #49312E",
"U  c #4D3529",
"Y  c #543A2E",
"T  c #583526",
"R  c #423432",
"E  c #4A3634",
"W  c #41363A",
"Q  c #493C39",
"!  c #473A35",
"~  c #533A33",
"^  c #543D39",
"/  c #602E27",
"(  c #683C25",
")  c #743D23",
"_  c #78421B",
"`  c #584636",
"'  c #49413D",
"]  c #784529",
"[  c #654839",
"{  c #724A33",
"}  c #7A523A",
"|  c #5F504E",
" . c #634F41",
".. c #734F4D",
"X. c #62504D",
"o. c #7E564E",
"O. c #675956",
"+. c #715C55",
"@. c #6D6158",
"#. c #7D6157",
"$. c #625E60",
"%. c #6C6564",
"&. c #776864",
"*. c #7E706E",
"=. c #9C3D0B",
"-. c #843E12",
";. c #97440D",
":. c #854419",
">. c #974A14",
",. c #A4470E",
"<. c #BB590B",
"1. c #A14D14",
"2. c #BB4F1F",
"3. c #A95313",
"4. c #B65913",
"5. c #B96217",
"6. c #AD6319",
"7. c #824E2A",
"8. c #86502F",
"9. c #9B5422",
"0. c #884F30",
"q. c #865539",
"w. c #A75C26",
"e. c #976038",
"r. c #B37130",
"t. c #AB672F",
"y. c #CD5D04",
"u. c #C3580A",
"i. c #D65D01",
"p. c #D85B07",
"a. c #C55E12",
"s. c #E35E08",
"d. c #CA6303",
"f. c #C8640C",
"g. c #D36104",
"h. c #DC6703",
"j. c #D66904",
"k. c #DA6901",
"l. c #DA630D",
"z. c #D46A0C",
"x. c #D9710C",
"c. c #CA6817",
"v. c #D26B10",
"b. c #D97010",
"n. c #E26C02",
"m. c #E66C0A",
"M. c #E67204",
"N. c #EB7103",
"B. c #E0710B",
"V. c #E57712",
"C. c #C67927",
"Z. c #D97522",
"A. c #EC7C20",
"S. c #933854",
"D. c #A45866",
"F. c #82746F",
"G. c #957767",
"H. c #827674",
"J. c #8A7976",
"K. c #A27E62",
"L. c #C7507A",
"P. c #E38C1E",
"I. c #D5903A",
"U. c #EB9237",
"Y. c #9E8479",
"T. c #E1974D",
"R. c #E09971",
"E. c #E8A768",
"W. c #A57F83",
"Q. c #998684",
"!. c #A7958C",
"~. c #A69D97",
"^. c #AD938D",
"/. c #ADA59B",
"(. c #AEA6A7",
"). c #B1A6A9",
"_. c #B7ABA4",
"`. c #BEB4AD",
"'. c #B7ADB0",
"]. c #BCB8B5",
"[. c #D78898",
"{. c #E7B786",
"}. c #D38FA6",
"|. c #C3BDBA",
" X c #CEBBB1",
".X c #CBB2A6",
"XX c #F4CE9C",
"oX c #CBC1BE",
"OX c #CEC8BF",
"+X c #D6C8B7",
"@X c #E0CEBF",
"#X c #EBD5BA",
"$X c #DCBAC1",
"%X c #CCC5C4",
"&X c #CFCAC9",
"*X c #CBC7C8",
"=X c #D3CCC9",
"-X c #D3C8C3",
";X c #DBD4CC",
":X c #DCDADA",
">X c #DBD3D2",
",X c #E6DCDA",
"<X c #ECD1CA",
"1X c #EDE4C8",
"2X c #ECE4DC",
"3X c #ECEAE3",
"4X c #F5EFE9",
"5X c #ECF0EF",
"6X c #F4F3E5",
"7X c #F4F4ED",
"8X c #F9F8EA",
"9X c #E8F5F3",
"0X c #F3F4F2",
"qX c #FBFBF5",
"wX c #FCFDFC",
"eX c #F6F7F4",
"rX c None",
/* pixels */
"rXrXrXrXrXrXrXrXrXrXrXrXrXrXrXrXrXrXrXrXrXrXrXrXrXrXrXrXrXrXrXrXrXrXrXrXrXrXrXrXrXrXrXrXrXrXrXrXrXrXrXrXrXrXrXrXrXrXrXrXrXrXrXrXrXrXrXrXrX",
"rXrXrXrXrXrXrXrXrXrXrXrXrXrXrXrXrXrXrXrXrXrXrXrXrXrXrXrXrXrXrXrXrXrXrXrXrXrXrXrXrXrXrXrXrXrXrXrXrXrXrXrXrXrXrXrXrXrXrXrXrXrXrXrXrXrXrXrXrX",
"rXrXrXrXrXrXrXrXrXrXrXrXrXrXrXrXrXrXrXrXrXrXrXrXrXrXrXrXrXrXrXrXrXrXrXrXrXrXrXrXrXrXrXrXrXrXrXrXrXrXrXrXrXrXrXrXrXrXrXrXrXrXrXrXrXrXrXrXrX",
"rXrXrXrXrXrXrXrXrXrXrXrXrXrXrXrXrXrXrXrXrXrXrXrXrXrXrXrXrXrXrXrXrXrXrXrXrXrXrXrXrXrXrXrXrXrXrXrXrXrXrXrXrXrXrXrXrXrXrXrXrXrXrXrXrXrXrXrXrX",
"rXrXrXrXrXrXrXrXrXrXrXrXrXrXrXrXrXrXrXrXrXrXrXrXrXrXrXrXrXrXrXrXrXrXrXrXrXrXrXrXrXrXrXrXrXrXrXrXrXrXrXrXrXrXrXrXrXrXrXrXrXrXrXrXrXrXrXrXrX",
"rXrXrXrXrXrXrXrXrXrXrXrXrXrXrXrXrXrXrXrXrXrXrXrXrXrXrXrXrXrXrXrXrXrXrXrXrXrXrXrXrXrXrXrXrXrXrXrXrXrXrXrXrXrXrXrXrXrXrXrXrXrXrXrXrXrXrXrXrX",
"rXrXrXrXrXrXrXrXrXrXrXrXrXrXrXrXrXrXrXrXrXrXrXrXrXrXrXrXrXrXrXrXrXrXrXrXrXrXrXrXrXrXrXrXrXrXrXrXrXrXrXrXrXrXrXrXrXrXrXrXrXrXrXrXrXrXrXrXrX",
"rXrXrXrXrXrXrXrXrXrXrXrXrXrXrXrXrXrXrXrXrXrXrXrXrXrXrXrXrXrXrXrXrXrXrXrXrXrXrXrXrXrXrXrXrXrXrXrXrXrXrXrXrXrXrXrXrXrXrXrXrXrXrXrXrXrXrXrXrX",
"rXrXrXrXrXrXrXrXrXrXrXrXrXrXrXrXrXrXrXrXrXrXrXrXrXrXrXrXrXrXrXrXrXrXrXrXrXrXrXrXrXrXrXrXrXrXrXrXrXrXrXrXrXrXrXrXrXrXrXrXrXrXrXrXrXrXrXrXrX",
"rXrXrXrXrXrXrXrXrXrXrXrXrXrXrXrXrXrXrXrXrXrXrXrXrXrXrXrXrXrXrXrXrXrXrXrXrXrXrXrXrXrXrXrXrXrXrXrXrXrXrXrXrXrXrXrXrXrXrXrXrXrXrXrXrXrXrXrXrX",
"rXrXrXrXrXrXrXrXrXrXrXrXrXrXrXrXrXrXrXrXrXrXrXrXrXrXrXrXrXrXrXrXrXrXrXrXrXrXrXrXrXrXrXrXrXrXrXrXrXrXrXrXrXrXrXrXrXrXrXrXrXrXrXrXrXrXrXrXrX",
"rXrXrXrXrXrXrXrXrXrXrXrXrXrXrXrXrXrXrXrXrXrXrXrXrXrXrXrXrXrXrXrXrXrXrXrXrXrXrXrXrXrXrXrXrXrXrXrXrXrXrXrXrXrXrXrXrXrXrXrXrXrXrXrXrXrXrXrXrX",
"rXrXrXrXrXrXrXrXrXrXrXrXrXrXrXrXrXrXrXrXrXrXrXrXrXrXrXrXrXrXrXrXrXrXrXrXrXrXrXrXrXrXrXrXrXrXrXrXrXrXrXrXrXrXrXrXrXrXrXrXrXrXrXrXrXrXrXrXrX",
"rXrXrXrXrXrXrXrXrXrXrXrXrXrXrXrXrXrXrXrXrXrXrXrXrXrXrXrXrXrXrXrXrXrXrXrXrXrXrXrXrXrXrXrXrXrXrXrXrXrXrXrXrXrXrXrXrXrXrXrXrXrXrXrXrXrXrXrXrX",
"rXrXrXrXrXrXrXrXrXrXrXrXrXrXrXrXrXrXrXrXrXrXrXrXrXrXrXrXrXrXrXrXrXrXrXrXrXrXrXrXrXrXrXrXrXrXrXrXrXrXrXrXrXrXrXrXrXrXrXrXrXrXrXrXrXrXrXrXrX",
"rXrXrXrXrXrXrXrXrXrXrXrXrXrXrXrXrXrXrXrXrXrXrXrXrXrXrXrXrXrXrXrXrXrXrXrXrXrXrXrXrXrXrXrXrXrXrXrXrXrXrXrXrXrXrXrXrXrXrXrXrXrXrXrXrXrXrXrXrX",
"rXrXrXrXrXrXrXrXrXrXrXrXrXrXrXrXrXrXrXrXrXrXrXrXrXrXrXrXrXrXrXrXrXrXrXrXrXrXrXrXrXrXrXrXrXrXrXrXrXrXrXrXrXrXrXrXrXrXrXrXrXrXrXrXrXrXrXrXrX",
"rXrXrXrXrXrXrXrXrXrXrXrXrXrXrXrXrXrXrXrXrXrXrXrXrXrXrXrXrXrXrXrXrXrXrXrXrXrXrXrXrXrXrXrXrXrXrXrXrXrXrXrXrXrXrXrXrXrXrXrXrXrXrXrXrXrXrXrXrX",
"rXrXrXrXrXrXrXrXrXrXrXrXrXrXrXrXrXrXrXrXrXrXrXrXrXrXrXrXrXrXrXrXrXrXrXrXrXrXrXrXrXrXrXrXrXrXrXrXrXrXrXrXrXrXrXrXrXrXrXrXrXrXrXrXrXrXrXrXrX",
"rXrXrXrXrXrXrXrXrXrXrXrXrXrXrXrXrXrXrXrXrXrXrXrXrXrXrXrXrXrXrXrXrXrXrXrXrXrXrXrXrXrXrXrXrXrXrXrXrXrXrXrXrXrXrXrXrXrXrXrXrXrXrXrXrXrXrXrXrX",
"rXrXrXrXrXrXrXrXrXrXrXrXrXrXrXrXrXrXrXrXrXrXrXrXrXrXrXrXrXrXrXrXrXrXrXrXrXrXrXrXrXrXrXrXrXrXrXrXrXrXrXrXrXrXrXrXrXrXrXrXrXrXrXrXrXrXrXrXrX",
"rXrXrXrXrXrXrXrXrXrXrXrXrXrXrXrXrXrXrXrXrXrXrXrXrXrXrXrXrXrXrXrXrXrXrXrXrXrXrXrXrXrXrXrXrXrXrXrXrXrXrXrXrXrXrXrXrXrXrXrXrXrXrXrXrXrXrXrXrX",
"rXrXrXrXrXrXrXrXrXrXrXrXrXrXrXrXrXrXrXrXrXrXrXrXrXrXrXrXrXrXrXrXrXrXrXrXrXrXrXrXrXrXrXrXrXrXrXrXrXrXrXrXrXrXrXrXrXrXrXrXrXrXrXrXrXrXrXrXrX",
"rXrXrXrXrXrXrXrXrXrXrXrXrXrXrXrXrXrXrXrXrXrXrXrXrXrXrXrXrXrXrXrXrXrXrXrXrXrXrXrXrXrXrXrXrXrXrXrXrXrXrXrXrXrXrXrXrXrXrXrXrXrXrXrXrXrXrXrXrX",
"rXrXrXrXrXrXrXrXrXrXrXrXrXrXrXrXrXrXrXrXrXrXrXrXrXrXrXrXrXrXrXrXrXrXrXrXrXrXrXrXrXrXrXrXrXrXrXrXrXrXrXrXrXrXrXrXrXrXrXrXrXrXrXrXrXrXrXrXrX",
"rXrXrXrXrXrXrXrXrXrXrXrXrXrXrXrXrXrXrXrXrXrXrXrXrXrXrXrXrXrXrXrXrXrXrXrXrXrXrXrXrXrXrXrXrXrXrXrXrXrXrXrXrXrXrXrXrXrXrXrXrXrXrXrXrXrXrXrXrX",
"rXrXrXrXrXrXrXrXrXrXrXrXrXrXrXrXrXrXrXrXrXrXrXrXrXrXrXrXrXrXrXrXrXrXrXrXrXrXrXrXrXrXrXrXrXrXrXrXrXrXrXrXrXrXrXrXrXrXrXrXrXrXrXrXrXrXrXrXrX",
"rXrXrXrXrXrXrXrXrXrXrXrXrXrXrXrXrXrXrXrXrXrXrXrXrXrXrXrXrXrXrXrXrXrXrXrXrXrXrXrXrXrXrXrXrXrXrXrXrXrXrXrXrXrXrXrXrXrXrXrXrXrXrXrXrXrXrXrXrX",
"rXrXrXrXrXrXrXrXrXrXrXrXrXrXrXrXrXrXrXrXrXrXrXrXrXrXrXrXrXrXrXrXrXrXrXrXrXrXrXrXrXrXrXrXrXrXrXrXrXrXrXrXrXrXrXrXrXrXrXrXrXrXrXrXrXrXrXrXrX",
"rXrXrXrXrXrXrXrXrXrXrXrXrXrXrXrXrXrXrXrXrXrXrXrXrXrXrXrXrXrXrXrXrXrXrXrXrXrXrXrXrXrXrXrXrXrXrXrXrXrXrXrXrXrXrXrXrXrXrXrXrXrXrXrXrXrXrXrXrX",
"rXrXrXrXrXrXrXrXrXrXrXrXrXrXrXrXrXrXrXrXrXrXrXrXrXrXrXrXrXrXrXrXrXrXrXrXrXrXrXrXrXrXrXrXrXrXrXrXrXrXrXrXrXrXrXrXrXrXrXrXrXrXrXrXrXrXrXrXrX",
"rXrXrXrXrXrXrXrXrXrXrXrXrXrXrXrXrXrXrXrXrXrXrXrXrXrXrXrXrXrXrXrXrXrXrXrXrXrXrXrXrXrXrXrXrXrXrXrXrXrXrXrXrXrXrXrXrXrXrXrXrXrXrXrXrXrXrXrXrX",
"rXrXrXrXrXrXrXrXrXrXrXrXrXrXrXrXrXrXrXrXrXrXrXrXrXrXrXrXrXrXrXrXrXrXrXrXrXrXrXrXrXrXrXrXrXrXrXrXrXrXrXrXrXrXrXrXrXrXrXrXrXrXrXrXrXrXrXrXrX",
"rXrXrXrXrXrXrXrXrXrXrXrXrXrXrXrXrXrXrXrXrXrXrXrXrXrXrXrXrXrXrXrXrXrXrXrXrXrXrXrXrXrXrXrXrXrXrXrXrXrXrXrXrXrXrXrXrXrXrXrXrXrXrXrXrXrXrXrXrX",
"rXrXrXrXrXrXrXrXrXrXrXrXrXrXrXrXrXrXrXrXrXrXrXrXrXrXrXrXrXrXrXrXrXrXrXrXrXrXrXrXrXrXrXrXrXrXrXrXrXrXrXrXrXrXrXrXrXrXrXrXrXrXrXrXrXrXrXrXrX",
"rXrXrXrXrXrXrXrXrXrXrXrXrXrXrXrXrXrXrXrXrXrXrXrXrXrXrXrXrXrXrXrXrXrXrXrXrXrXrXrXrXrXrXrXrXrXrXrXrXrXrXrXrXrXrXrXrXrXrXrXrXrXrXrXrXrXrXrXrX",
"rXrXrXrXrXrXrXrXrXrXrXrXrXrXrXrXrXrXrXrXrXrXrXrXrXrXrXrXrXrXrXrXrXrXrXrXrXrXrXrXrXrXrXrXrXrXrXrXrXrXrXrXrXrXrXrXrXrXrXrXrXrXrXrXrXrXrXrXrX",
"rXrXrXrXrXrXrXrXrXrXrXrXrXrXrXrXrXrXrXrXrXrXrXrXrXrXrXrXH H c l M m E P P G P x m L 8 rXrXrXrXrXrXrXrXrXrXrXrXrXrXrXrXrXrXrXrXrXrXrXrXrXrX",
"rXrXrXrXrXrXrXrXrXrXrXrXrXrXrXrXrXrXrXrXrXrXrXrXrXrXrXrXl l x x K F Z v l b n T D F V 7 rXrXrXrXrXrXrXrXrXrXrXrXrXrXrXrXrXrXrXrXrXrXrXrXrX",
"rXrXrXrXrXrXrXrXrXrXrXrXrXrXrXrXrXrXrXrXrXrXrXrXrXrXz H E P M Y c.l.>.P b N { v.s.<.;.F 1 rXrXrXrXrXrXrXrXrXrXrXrXrXrXrXrXrXrXrXrXrXrXrXrX",
"rXrXrXrXrXrXrXrXrXrXrXrXrXrXrXrXrXrXrXrXrXrXrXrXrXrXH E m m m Y w.Z.7.M N ^ 1.u.f.C.r.8.T 2 rXrXrXrXrXrXrXrXrXrXrXrXrXrXrXrXrXrXrXrXrXrXrX",
"rXrXrXrXrXrXrXrXrXrXrXrXrXrXrXrXrXrXrXrXrXrXrXrXl I R m R R R c m c m M 0.B.n.g.T.1X6X+XY.^ $ rXrXrXrXrXrXrXrXrXrXrXrXrXrXrXrXrXrXrXrXrXrX",
"rXrXrXrXrXrXrXrXrXrXrXrXrXrXrXrXrXrXrXrXrXrXrXr H R R R R P P R R M M M 9.V.B.v.E.1X6X8X2X!.I # rXrXrXrXrXrXrXrXrXrXrXrXrXrXrXrXrXrXrXrXrX",
"rXrXrXrXrXrXrXrXrXrXrXrXrXrXrXrXrXrXrXrXrXrX3 j R m c c l l l l P m R R c L Z B 0 I @.OXqX,XJ.~ 2 rXrXrXrXrXrXrXrXrXrXrXrXrXrXrXrXrXrXrXrX",
"rXrXrXrXrXrXrXrXrXrXrXrXrXrXrXrXrXrXrXrXrXrX6 l m m P P l j P R c c m m m k k d 8 $ Q |.qXqX'.#.L $ rXrXrXrXrXrXrXrXrXrXrXrXrXrXrXrXrXrXrX",
"rXrXrXrXrXrXrXrXrXrXrXrXrXrXrXrXrXrXrXrXrXrXz m R c l P j l /.%X| c l l x k *.;X%X! ! |.qXqX3XO.6 $ rXrXrXrXrXrXrXrXrXrXrXrXrXrXrXrXrXrXrX",
"rXrXrXrXrXrXrXrXrXrXrXrXrXrXrXrXrXrXrXrXrX= l m R P c G h P &X7X@.l l l l h H.:X=X' ' |.wXwXeXG.7 + rXrXrXrXrXrXrXrXrXrXrXrXrXrXrXrXrXrXrX",
"rXrXrXrXrXrXrXrXrXrXrXrXrXrXrXrXrXrXrXrXh y n m m P P G h P &X7X@.l k l l h &.;X.XM Q |.wXwXeXR.2.S : rXrXrXrXrXrXrXrXrXrXrXrXrXrXrXrXrXrX",
"rXrXrXrXrXrXrXrXrXrXrXrXrXrXrXrXrXrXrXrX0 c R m m m P G 9 P &X5X+.G l l x v X.oX!.l Q ].qXwXqXE.l.-.:   rXrXrXrXrXrXrXrXrXrXrXrXrXrXrXrXrX",
"rXrXrXrXrXrXrXrXrXrXrXrXrXrXrXrXrXrXrX4 E m m m m E ] :.0 9 .X+Xe.D L j v c R J.| 9 h J. X#XXXU.n.;., . rXrXrXrXrXrXrXrXrXrXrXrXrXrXrXrXrX",
"rXrXrXrXrXrXrXrXrXrXrXrXrXrXrXrXrXrXrX; E M m m R 7.c.x.V p :.u.n.n.:.L m c c P l h h h T 4.N.N.N.;.>   rXrXrXrXrXrXrXrXrXrXrXrXrXrXrXrXrX",
"rXrXrXrXrXrXrXrXrXrXrXrXrXrXrXrXrXrXrX* U ~ ( _ _ :.3.;.h s 4.n.k.k._ R m m R R m l H l z ( 3.j.n.=.> . rXrXrXrXrXrXrXrXrXrXrXrXrXrXrXrXrX",
"rXrXrXrXrXrXrXrXrXrXrXrXrXrXrXrXrXrXrX* ` w.N.B.f.4.) k u d <.k.k.k._ m M R R R R P c P c l I 4.n.,.>   rXrXrXrXrXrXrXrXrXrXrXrXrXrXrXrXrX",
"rXrXrXrXrXrXrXrXrXrXrXrXrXrXrXrXrXrXrX% [ 5.n.V.V.3.l i k D d.n.P.U.{ R m R ! R R E R R P l R e.I.9.>   rXrXrXrXrXrXrXrXrXrXrXrXrXrXrXrXrX",
"rXrXrXrXrXrXrXrXrXrXrXrXrXrXrXrXrXrXrX%  .f.h.=.g u u ( b.N.n.m.#X9XJ.W m R R R R R R P P l P /.7X^.G   rXrXrXrXrXrXrXrXrXrXrXrXrXrXrXrXrX",
"rXrXrXrXrXrXrXrXrXrXrXrXrXrXrXrXrXrXrXX  .C.4.D z t q ) x.N.M.A.1X9XJ.R M c c P P P P c l k g /.8X^.j   rXrXrXrXrXrXrXrXrXrXrXrXrXrXrXrXrX",
"rXrXrXrXrXrXrXrXrXrXrXrXrXrXrXrXrXrXrXX ` .X9X5X'.%.d ; 1 B C J oX0X*.c k k l l l l l j h g g !.3XY.9   rXrXrXrXrXrXrXrXrXrXrXrXrXrXrXrXrX",
"rXrXrXrXrXrXrXrXrXrXrXrXrXrXrXrXrXrXrX  ~ @XqXqX7X_.W w ; ; - 4 |.5X*.g a 9 9 f h h h h y f 5 J.-X!.v   rXrXrXrXrXrXrXrXrXrXrXrXrXrXrXrXrX",
"rXrXrXrXrXrXrXrXrXrXrXrXrXrXrXrXrXrXrX    @.F.%.M 5 3 | ;X7X:X:X0XwX>X|.|.%X%X%X=X&X%X_.J.E 3 E G.` . rXrXrXrXrXrXrXrXrXrXrXrXrXrXrXrXrXrX",
"rXrXrXrXrXrXrXrXrXrXrXrXrXrXrXrXrXrXrXrX  . + - w u e O.;XqXqXwXqXqXwXwXwXwXwXwXwXwXwXwX2X&.< < < O rXrXrXrXrXrXrXrXrXrXrXrXrXrXrXrXrXrXrX",
"rXrXrXrXrXrXrXrXrXrXrXrXrXrXrXrXrXrXrXrXrX+ A >.a.l.l.=.T %.:XwX$X}.,XwXwXwXwXwXwXwX5XQ.g : $ + .   rXrXrXrXrXrXrXrXrXrXrXrXrXrXrXrXrXrXrX",
"rXrXrXrXrXrXrXrXrXrXrXrXrXrXrXrXrXrXrXrXrX  T ;.y.p.g.p.B y %XeX[.L.<XqXwXwXwXwXwX9XQ.H J q.} 6   rXrXrXrXrXrXrXrXrXrXrXrXrXrXrXrXrXrXrXrX",
"rXrXrXrXrXrXrXrXrXrXrXrXrXrXrXrXrXrXrXrXrX  . C S <.d.i.C e (.$XD.S.W.~.~.).'.).W...o.H X X     rXrXrXrXrXrXrXrXrXrXrXrXrXrXrXrXrXrXrXrXrX",
"rXrXrXrXrXrXrXrXrXrXrXrXrXrXrXrXrXrXrXrXrXrXrX. T 1.y.i.J q - - - - = @ @ @ @ @ # 6 $ . rXrXrXrXrXrXrXrXrXrXrXrXrXrXrXrXrXrXrXrXrXrXrXrXrX",
"rXrXrXrXrXrXrXrXrXrXrXrXrXrXrXrXrXrXrXrXrXrXrX  O K ,.<.l y :.1.>.9.K.~.#.G G h < + .   rXrXrXrXrXrXrXrXrXrXrXrXrXrXrXrXrXrXrXrXrXrXrXrXrX",
"rXrXrXrXrXrXrXrXrXrXrXrXrXrXrXrXrXrXrXrXrXrXrXrX  o [ ( d { f.h.d.d.{.6X^.l *       rXrXrXrXrXrXrXrXrXrXrXrXrXrXrXrXrXrXrXrXrXrXrXrXrXrXrX",
"rXrXrXrXrXrXrXrXrXrXrXrXrXrXrXrXrXrXrXrXrXrXrXrXrX  o 4 e ( u.z.j.z.{.6X/.x     rXrXrXrXrXrXrXrXrXrXrXrXrXrXrXrXrXrXrXrXrXrXrXrXrXrXrXrXrX",
"rXrXrXrXrXrXrXrXrXrXrXrXrXrXrXrXrXrXrXrXrXrXrXrXrXrX  o 5 a t r y 5 G P 4 .   rXrXrXrXrXrXrXrXrXrXrXrXrXrXrXrXrXrXrXrXrXrXrXrXrXrXrXrXrXrX",
"rXrXrXrXrXrXrXrXrXrXrXrXrXrXrXrXrXrXrXrXrXrXrXrXrXrXrX  9 h a d a r 5 y @   rXrXrXrXrXrXrXrXrXrXrXrXrXrXrXrXrXrXrXrXrXrXrXrXrXrXrXrXrXrXrX"
};
