/* XPM */
static char *result[] = {
/* columns rows colors chars-per-pixel */
"69 69 224 2 ",
"   c #020000",
".  c #0B0505",
"X  c #0E0A09",
"o  c #140B0B",
"O  c #1B0C0B",
"+  c #120706",
"@  c #1B110E",
"#  c #16110E",
"$  c #1C1413",
"%  c #1B1616",
"&  c #230F0D",
"*  c #24140E",
"=  c #301A0F",
"-  c #200F11",
";  c #241513",
":  c #2B1411",
">  c #2B1915",
",  c #261B1B",
"<  c #2B1C1B",
"1  c #251916",
"2  c #3C1B14",
"3  c #321D1C",
"4  c #331913",
"5  c #2D211E",
"6  c #2D291D",
"7  c #33221E",
"8  c #3C241B",
"9  c #3D281B",
"0  c #38261A",
"q  c #181C23",
"w  c #241C21",
"e  c #2C2222",
"r  c #272A29",
"t  c #342523",
"y  c #342924",
"u  c #3A2924",
"i  c #352C2B",
"p  c #3A2D2B",
"a  c #362724",
"s  c #3D312E",
"d  c #332E31",
"f  c #3A2C37",
"g  c #3D3231",
"h  c #41200F",
"j  c #43231A",
"k  c #4B2A1F",
"l  c #482215",
"z  c #532B1A",
"x  c #54311D",
"c  c #70330D",
"v  c #683617",
"b  c #743616",
"n  c #422B24",
"m  c #4D2D23",
"M  c #412E2A",
"N  c #4A2E2B",
"B  c #512E22",
"V  c #4D3225",
"C  c #46322C",
"Z  c #4B342D",
"A  c #4C392A",
"S  c #533425",
"D  c #5D3D28",
"F  c #593A25",
"G  c #422F33",
"H  c #443532",
"J  c #443A35",
"K  c #4B3A36",
"L  c #483C38",
"P  c #563838",
"I  c #683B26",
"U  c #713C29",
"Y  c #74421F",
"T  c #5B4135",
"R  c #56433D",
"E  c #564338",
"W  c #6C412E",
"Q  c #644739",
"!  c #774B27",
"~  c #4A4349",
"^  c #544542",
"/  c #5A4745",
"(  c #5E514E",
")  c #5F5553",
"_  c #644A45",
"`  c #6D5148",
"'  c #685858",
"]  c #765D58",
"[  c #73645E",
"{  c #7A6259",
"}  c #6E6564",
"|  c #716664",
" . c #7B6966",
".. c #7C7271",
"X. c #7C716B",
"o. c #8D3D0D",
"O. c #8D4A16",
"+. c #88451B",
"@. c #994A15",
"#. c #974C0D",
"$. c #B8590A",
"%. c #A14F13",
"&. c #B04F10",
"*. c #A45111",
"=. c #AA5614",
"-. c #B75B12",
";. c #A9520D",
":. c #9E601D",
">. c #BE6005",
",. c #B16118",
"<. c #905122",
"1. c #854E35",
"2. c #8C592A",
"3. c #A15F3C",
"4. c #AA5E32",
"5. c #AB6829",
"6. c #BD6926",
"7. c #A46130",
"8. c #B5722E",
"9. c #C35C0A",
"0. c #C35A07",
"q. c #CC6609",
"w. c #D56C0C",
"e. c #DA6D0A",
"r. c #D56906",
"t. c #DA700A",
"y. c #DD7006",
"u. c #DF771B",
"i. c #D77414",
"p. c #EA7604",
"a. c #E26A03",
"s. c #D57929",
"d. c #E67D29",
"f. c #85595E",
"g. c #91615E",
"h. c #AF6F46",
"j. c #B27B4F",
"k. c #806F66",
"l. c #89746E",
"z. c #887263",
"x. c #877A75",
"c. c #927A74",
"v. c #CF4F52",
"b. c #C64C77",
"n. c #DA851D",
"m. c #E08115",
"M. c #D9842A",
"N. c #BE8254",
"B. c #92847C",
"V. c #BD9060",
"C. c #A1867B",
"Z. c #BD8B65",
"A. c #D38D4D",
"S. c #E39B4D",
"D. c #C5906B",
"F. c #D9A97C",
"G. c #CDA378",
"H. c #8F7E81",
"J. c #BE7282",
"K. c #8E8182",
"L. c #958988",
"P. c #978C94",
"I. c #9E928B",
"U. c #A78E82",
"Y. c #A7938A",
"T. c #B29B88",
"R. c #A89898",
"E. c #BD9F91",
"W. c #BAA59A",
"Q. c #AEA39A",
"!. c #9C92A0",
"~. c #BCAEAB",
"^. c #B6A9A5",
"/. c #B9B3AE",
"(. c #BDB5B1",
"). c #B1ABAE",
"_. c #D98A9E",
"`. c #D6B89C",
"'. c #CEA792",
"]. c #E8BA8A",
"[. c #E1BB98",
"{. c #D889A1",
"}. c #C6BEBD",
"|. c #CFB8B0",
" X c #F4D09C",
".X c #CAC2BE",
"XX c #DDCEB8",
"oX c #DBD0B7",
"OX c #F5D0AE",
"+X c #E0D1BD",
"@X c #F3CDAB",
"#X c #CDC5C3",
"$X c #C9C8C2",
"%X c #D5CBC9",
"&X c #D9D2CD",
"*X c #DDD1C4",
"=X c #DAD4D2",
"-X c #DEDBDA",
";X c #DAD7D4",
":X c #E5D9CF",
">X c #E4DAD7",
",X c #EBD4C4",
"<X c #E8E4DC",
"1X c #F6E9DB",
"2X c #E5E4E4",
"3X c #EAE6E4",
"4X c #ECE8E4",
"5X c #EDEBEB",
"6X c #F3EDE6",
"7X c #F1EDEC",
"8X c #F4E7E9",
"9X c #ECF0EC",
"0X c #F4F3EE",
"qX c #F7F2EA",
"wX c #F4F4F4",
"eX c #FAF5F4",
"rX c #F6FAF4",
"tX c #FBFAF5",
"yX c #FBF6F8",
"uX c #F6FCFB",
"iX c #FBFAFA",
"pX c #F6F7F8",
"aX c #F2F2F2",
"sX c None",
/* pixels */
"sXsXsXsXsXsXsXsXsXsXsXsXsXsXsXsXsXsXsXsXsXsXsXsXsXsXsXsXsXsXsXsXsXsXsXsXsXsXsXsXsXsXsXsXsXsXsXsXsXsXsXsXsXsXsXsXsXsXsXsXsXsXsXsXsXsXsXsXsX",
"sXsXsXsXsXsXsXsXsXsXsXsXsXsXsXsXsXsXsXsXsXsXsXsXsXsXsXsXsXsXsXsXsXsXsXsXsXsXsXsXsXsXsXsXsXsXsXsXsXsXsXsXsXsXsXsXsXsXsXsXsXsXsXsXsXsXsXsXsX",
"sXsXsXsXsXsXsXsXsXsXsXsXsXsXsXsXsXsXsXsXsXsXsXsXsXsXsXsXsXsXsXsXsXsXsXsXsXsXsXsXsXsXsXsXsXsXsXsXsXsXsXsXsXsXsXsXsXsXsXsXsXsXsXsXsXsXsXsXsX",
"sXsXsXsXsXsXsXsXsXsXsXsXsXsXsXsXsXsXsXsXsXsXsXsXsXsXsXsXsXsXsXsXsXsXsXsXsXsXsXsXsXsXsXsXsXsXsXsXsXsXsXsXsXsXsXsXsXsXsXsXsXsXsXsXsXsXsXsXsX",
"sXsXsXsXsXsXsXsXsXsXsXsXsXsXsXsXsXsXsXsXsXsXsXsXsXsXsXsXsXsXsXsXsXsXsXsXsXsXsXsXsXsXsXsXsXsXsXsXsXsXsXsXsXsXsXsXsXsXsXsXsXsXsXsXsXsXsXsXsX",
"sXsXsXsXsXsXsXsXsXsXsXsXsXsXsXsXsXsXsXsXsXsXsXsXsXsXsXsXsXsXsXsXsXsXsXsXsXsXsXsXsXsXsXsXsXsXsXsXsXsXsXsXsXsXsXsXsXsXsXsXsXsXsXsXsXsXsXsXsX",
"sXsXsXsXsXsXsXsXsXsXsXsXsXsXsXsXsXsXsXsXsXsXsXsXsXsXsXsXsXsXsXsXsXsXsXsXsXsXsXsXsXsXsXsXsXsXsXsXsXsXsXsXsXsXsXsXsXsXsXsXsXsXsXsXsXsXsXsXsX",
"sXsXsXsXsXsXsXsXsXsXsXsXsXsXsXsXsXsXsXsXsXsXsXsXsXsXsXsXsXsXsXsXsXsXsXsXsXsXsXsXsXsXsXsXsXsXsXsXsXsXsXsXsXsXsXsXsXsXsXsXsXsXsXsXsXsXsXsXsX",
"sXsXsXsXsXsXsXsXsXsXsXsXsXsXsXsXsXsXsXsXsXsXsXsXsXsXsXsXsXsXsXsXsXsXsXsXsXsXsXsXsXsXsXsXsXsXsXsXsXsXsXsXsXsXsXsXsXsXsXsXsXsXsXsXsXsXsXsXsX",
"sXsXsXsXsXsXsXsXsXsXsXsXsXsXsXsXsXsXsXsXsXsXsXsXsXsXsXsXsXsXsXsXsXsXsXsXsXsXsXsXsXsXsXsXsXsXsXsXsXsXsXsXsXsXsXsXsXsXsXsXsXsXsXsXsXsXsXsXsX",
"sXsXsXsXsXsXsXsXsXsXsXsXsXsXsXsXsXsXsXsXsXsXsXsXsXsXsXsXsXsXsXsXsXsXsXsXsXsXsXsXsXsXsXsXsXsXsXsXsXsXsXsXsXsXsXsXsXsXsXsXsXsXsXsXsXsXsXsXsX",
"sXsXsXsXsXsXsXsXsXsXsXsXsXsXsXsXsXsXsXsXsXsXsXsXsXsXsXsXsXsXsXsXsXsXsXsXsXsXsXsXsXsXsXsXsXsXsXsXsXsXsXsXsXsXsXsXsXsXsXsXsXsXsXsXsXsXsXsXsX",
"sXsXsXsXsXsXsXsXsXsXsXsXsXsXsXsXsXsXsXsXsXsXsXsXsXsXsXsXsXsXsXsXsXsXsXsXsXsXsXsXsXsXsXsXsXsXsXsXsXsXsXsXsXsXsXsXsXsXsXsXsXsXsXsXsXsXsXsXsX",
"sXsXsXsXsXsXsXsXsXsXsXsXsXsXsXsXsXsXsXsXsXsXsXsXsXsXsXsXsXsXsXsXsXsXsXsXsXsXsXsXsXsXsXsXsXsXsXsXsXsXsXsXsXsXsXsXsXsXsXsXsXsXsXsXsXsXsXsXsX",
"sXsXsXsXsXsXsXsXsXsXsXsXsXsXsXsXsXsXsXsXsXsXsXsXsXsXsXsXsXsXsXsXsXsXsXsXsXsXsXsXsXsXsXsXsXsXsXsXsXsXsXsXsXsXsXsXsXsXsXsXsXsXsXsXsXsXsXsXsX",
"sXsXsXsXsXsXsXsXsXsXsXsXsXsXsXsXsXsXsXsXsXsXsXsXsXsXsXsXsXsXsXsXsXsXsXsXsXsXsXsXsXsXsXsXsXsXsXsXsXsXsXsXsXsXsXsXsXsXsXsXsXsXsXsXsXsXsXsXsX",
"sXsXsXsXsXsXsXsXsXsXsXsXsXsXsXsXsXsXsXsXsXsXsXsXsXsXsXsXsXsXsXsXsXsXsXsXsXsXsXsXsXsXsXsXsXsXsXsXsXsXsXsXsXsXsXsXsXsXsXsXsXsXsXsXsXsXsXsXsX",
"sXsXsXsXsXsXsXsXsXsXsXsXsXsXsXsXsXsXsXsXsXsXsXsXsXsXsXsXsXsXsXsXsXsXsXsXsXsXsXsXsXsXsXsXsXsXsXsXsXsXsXsXsXsXsXsXsXsXsXsXsXsXsXsXsXsXsXsXsX",
"sXsXsXsXsXsXsXsXsXsXsXsXsXsXsXsXsXsXsXsXsXsXsXsXsXsXsXsXsXsXsXsXsXsXsXsXsXsXsXsXsXsXsXsXsXsXsXsXsXsXsXsXsXsXsXsXsXsXsXsXsXsXsXsXsXsXsXsXsX",
"sXsXsXsXsXsXsXsXsXsXsXsXsXsXsXsXsXsXsXsXsXsXsXsXsXsXsXsXsXsXsXsXsXsXsXsXsXsXsXsXsXsXsXsXsXsXsXsXsXsXsXsXsXsXsXsXsXsXsXsXsXsXsXsXsXsXsXsXsX",
"sXsXsXsXsXsXsXsXsXsXsXsXsXsXsXsXsXsXsXsXsXsXsXsXsXsXsXsXsXsXsXsXsXsXsXsXsXsXsXsXsXsXsXsXsXsXsXsXsXsXsXsXsXsXsXsXsXsXsXsXsXsXsXsXsXsXsXsXsX",
"sXsXsXsXsXsXsXsXsXsXsXsXsXsXsXsXsXsXsXsXsXsXsXsXsXsXsXsXsXsXsXsXsXsXsXsXsXsXsXsXsXsXsXsXsXsXsXsXsXsXsXsXsXsXsXsXsXsXsXsXsXsXsXsXsXsXsXsXsX",
"sXsXsXsXsXsXsXsXsXsXsXsXsXsXsXsXsXsXsXsXsXsXsXsXsXsXsXsXsXsXsXsXsXsXsXsXsXsXsXsXsXsXsXsXsXsXsXsXsXsXsXsXsXsXsXsXsXsXsXsXsXsXsXsXsXsXsXsXsX",
"sXsXsXsXsXsXsXsXsXsXsXsXsXsXsXsXsXsXsXsXsXsXsXsXsXsXsXsXsXsXsXsXsXsXsXsXsXsXsXsXsXsXsXsXsXsXsXsXsXsXsXsXsXsXsXsXsXsXsXsXsXsXsXsXsXsXsXsXsX",
"sXsXsXsXsXsXsXsXsXsXsXsXsXsXsXsXsXsXsXsXsXsXsXsXsXsXsXsXsXsXsXsXsXsXsXsXsXsXsXsXsXsXsXsXsXsXsXsXsXsXsXsXsXsXsXsXsXsXsXsXsXsXsXsXsXsXsXsXsX",
"sXsXsXsXsXsXsXsXsXsXsXsXsXsXsXsXsXsXsXsXsXsXsXsXsXsXsXsXsXsXsXsXsXsXsXsXsXsXsXsXsXsXsXsXsXsXsXsXsXsXsXsXsXsXsXsXsXsXsXsXsXsXsXsXsXsXsXsXsX",
"sXsXsXsXsXsXsXsXsXsXsXsXsXsXsXsXsXsXsXsXsXsXsXsXsXsXsXsXsXsXsXsXsXsXsXsXsXsXsXsXsXsXsXsXsXsXsXsXsXsXsXsXsXsXsXsXsXsXsXsXsXsXsXsXsXsXsXsXsX",
"sXsXsXsXsXsXsXsXsXsXsXsXsXsXsXsXsXsXsXsXsXsXsXsXsXsXsXsXsXsXsXsXsXsXsXsXsXsXsXsXsXsXsXsXsXsXsXsXsXsXsXsXsXsXsXsXsXsXsXsXsXsXsXsXsXsXsXsXsX",
"sXsXsXsXsXsXsXsXsXsXsXsXsXsXsXsXsXsXsXsXsXsXsXsXsXsXsXsXsXsXsXsXsXsXsXsXsXsXsXsXsXsXsXsXsXsXsXsXsXsXsXsXsXsXsXsXsXsXsXsXsXsXsXsXsXsXsXsXsX",
"sXsXsXsXsXsXsXsXsXsXsXsXsXsXsXsXsXsXsXsXsXsXsXsXsXsXsXsXsXsXsXsXsXsXsXsXsXsXsXsXsXsXsXsXsXsXsXsXsXsXsXsXsXsXsXsXsXsXsXsXsXsXsXsXsXsXsXsXsX",
"sXsXsXsXsXsXsXsXsXsXsXsXsXsXsXsXsXsXsXsXsXsXsXsXsXsXsXsXsXsXsXsXsXsXsXsXsXsXsXsXsXsXsXsXsXsXsXsXsXsXsXsXsXsXsXsXsXsXsXsXsXsXsXsXsXsXsXsXsX",
"sXsXsXsXsXsXsXsXsXsXsXsXsXsXsXsXsXsXsXsXsXsXsXsXsXsXsXsXsXsXsXsXsXsXsXsXsXsXsXsXsXsXsXsXsXsXsXsXsXsXsXsXsXsXsXsXsXsXsXsXsXsXsXsXsXsXsXsXsX",
"sXsXsXsXsXsXsXsXsXsXsXsXsXsXsXsXsXsXsXsXsXsXsXsXsXsXsXsXsXsXsXsXsXsXsXsXsXsXsXsXsXsXsXsXsXsXsXsXsXsXsXsXsXsXsXsXsXsXsXsXsXsXsXsXsXsXsXsXsX",
"sXsXsXsXsXsXsXsXsXsXsXsXsXsXsXsXsXsXsXsXsXsXsXsXsXsXsXsXsXsXsXsXsXsXsXsXsXsXsXsXsXsXsXsXsXsXsXsXsXsXsXsXsXsXsXsXsXsXsXsXsXsXsXsXsXsXsXsXsX",
"sXsXsXsXsXsXsXsXsXsXsXsXsXsXsXsXsXsXsXsXsXsXsXsXsXsXsXsXsXsXsXsXsXsXsXsXsXsXsXsXsXsXsXsXsXsXsXsXsXsXsXsXsXsXsXsXsXsXsXsXsXsXsXsXsXsXsXsXsX",
"sXsXsXsXsXsXsXsXsXsXsXsXsXsXsXsXsXy E R K sXsXsXsXsXsXsXsXsXsXsXsXsXsXsXsXsXsXsXsXsXsXsXsXsXsXsXsXsXsXsXsXsXsXsXsXsXsXsXsXsXsXsXsXsXsXsXsX",
"sXsXsXsXsXsXsXsXsXsXsXsXsXsXsXsXsXk.T.T.Y.X.sXsXsXsXsXsXsXsXsXsXsXsXsXsXsXsXsXsXsXsXsXsXsXsXsXsXsXsXsXsXsXsXsXsXsXsXsXsXsXsXsXsXsXsXsXsXsX",
"sXsXsXsXsXsXsXsXsXsXsXsXsXsXsX, ` `.rXiX6X^.K sXsXsXsXsXsXsXsXsXsXsXsXsXsXsXsXsXsXsXsXsXsXsXsXsXsXsXsXsXsXsXsXsXsXsXsXsXsXsXsXsXsXsXsXsXsX",
"sXsXsXsXsXsXsXsXsXsXsXsXsXsX0 b 7.'.0X;X(.B.Z ; sXsXsXsXsXsXsXsXsXsXsXsXsXsXsXsXsXsXsXsXsXsXsXsXsXsXsXsXsXsXsXsXsXsXsXsXsXsXsXsXsXsXsXsXsX",
"sXsXsXsXsXsXsXsXsXsXsXsXsX@ z &.M.F.$Xl.N 9 V 9 sXsXsXsXsXsXsXsXsXsXsXsXsXsXsXsXsXsXsXsXsXsXsXsXsXsXsXsXsXsXsXsXsXsXsXsXsXsXsXsXsXsXsXsXsX",
"sXsXsXsXsXsXsXsXsXsXsXsXsX* v >.m.j.l.^ , u S sXsXsXsXsXsXsXsXsXsXsXsXsXsXsXsXsXsXsXsXsXsXsXsXsXsXsXsXsXsXsXsXsXsXsXsXsXsXsXsXsXsXsXsXsXsX",
"sXsXsXsXsXsXsXsXsXsXsXsXsX$ b 9.w.@.P i sXsXsXsXsXsXsXsXsXsXsXsXsXsXsXsXsXsXsXsXsX$ t u t sXsXsXsXsXsXsX% , 1 $ sXsXsXsXsXsXsXsXsXsXsXsXsX",
"sXsXsXsXsXsXsXsXsXsXsXsXsX; v $.&.I t sXsXsXsXsXsXsXsXsXsXsXsXsXsXsXsXsXsXsXsXsXsX$ m c.l.J sXsXsXsXsXi  .] ; - sXsXsXsXsXsXsXsXsXsXsXsXsX",
"sXsXsXsXsXsXsXsXsXsXsXsXsX* S U I G f sXsXsXsXsXsXsXsXsXsXsXsXsXsXsXsXsXsXsXsXsXsXX P :X&Xx.. sXsXsX1 [ 1X<X: + sXsXsXsXsXsXsXsXsXsXsXsXsX",
"sXsXsXsXsXsXsXsXsXsXsXsXsX$ u s A V m 4 sXsXsXsXsXsXsXsXsXsXsXsXsXsXsXsXsXsXsXsXsXo / 4X6Xl.o # sXsX7 [ iX4X* + sXsXsXsXsXsXsXsXsXsXsXsXsX",
"sXsXsXsXsXsXsXsXsXsXsXsXsX# x #.q.$.&.o.* sXsXsXsXsXsXsXsXsXsXsXsXsXsXsXsXsXsXsXsXo / 4X5XX.$ % o o @ ^ tX:X: + sXsXsXsXsXsXsXsXsXsXsXsXsX",
"sXsXsXsXsXsXsXsXsXsXsXsXsX$ v q.p.p.r.O.9 X sXsXsXsXsXsXsXsXsXsXsXsXsXsXsXsXsXsXsXO / <X2X{ = 9 h > % J >X/.3 O sXsXsXsXsXsXsXsXsXsXsXsXsX",
"sXsXsXsXsXsXsXsXsXsXsXsXsX> z v @.q.r.O.w $ # sXsXsXsXsXsXsXsXsXsXsXsXsXsXsXsXsXsX$ Q [.`.7.#.*.;.b q i L.| t > sXsXsXsXsXsXsXsXsXsXsXsXsX",
"sXsXsXsXsXsXsXsXsXsXsXsXsX4 V u B &.w.<.f f p n j 0 e K sXsXsXsXsXsXsXsXsXsXsXsXsXi I i.e.e.t.e.e.-.n r d i i t sXsXsXsXsXsXsXsXsXsXsXsXsX",
"sXsXsXsXsXsXsXsXsXsXsXsXsXsXn n I &.e.N.P.I.U.j.*.b < e % sXsXsXsXsXsXsXsXsXsXsX6 ! @.w.e.e.e.e.y.r.*.S d d i i 1 sXsXsXsXsXsXsXsXsXsXsXsX",
"sXsXsXsXsXsXsXsXsXsXsXsXsXsXsXC U 0.u.].iXyXqX Xt.o.7 i i i p p p p p p p p p a C 5.w.w.i.w.w.e.y.y.a.-.E d i s s t sXsXsXsXsXsXsXsXsXsXsX",
"sXsXsXsXsXsXsXsXsXsXsXsXsXsXsXsXl @.6.'.iXiXtXOXe.o.2 i i g g d g g g s s p p y E V.M.w.w.w.w.$.$.$.$.7.Y.} y i i u > sXsXsXsXsXsXsXsXsXsX",
"sXsXsXsXsXsXsXsXsXsXsXsXsXsXsXsXsXj 1.E.iXiXtXOXu.#.m p p p g g g g g g s p u y g ^.].i.a.r.0.c 2 2 j ( 0X-Xt e e < 3 8 t A sXsXsXsXsXsXsX",
"sXsXsXsXsXsXsXsXsXsXsXsXsXsXsXsXsXsXK R.>XtXtX,XS.6.+.S M g g H g g H s s p M H ~ !.*XA.A.j.h._ ~ ~ ~ ..yX5X' ^ ( ' i 7 u T sXsXsXsXsXsXsX",
"sXsXsXsXsXsXsXsXsXsXsXsXsXsXsXsXsXsXsXi L.:XtXtX1X].n.:.Z g g g g H g p M M G  .P.L.%XyXaX7X8XaXqX3X-XwXiXeX>X&XeX0X] X . sXsXsXsXsXsXsXsX",
"sXsXsXsXsXsXsXsXsXsXsXsXsXsXsXsXsXsXsX. 5 l.=XrXuXXX8.,.Y F D D D D S M N S U '.-XH.).yXyXyXiXyXiXiXiXiX8X8XiXiXiX0X' ; @ sXsXsXsXsXsXsXsX",
"sXsXsXsXsXsXsXsXsXsXsXsXsXsXsXsXsXsXsXX @ , | &XiX#XQ ! q.$.9.9.9.-.O.C I =.4.6X3XH.R.wXyXyXiXiXyXyXyX8X{._.rXrXrX&XM t j 9 sXsXsXsXsXsXsX",
"sXsXsXsXsXsXsXsXsXsXsXsXsXsXsXsXsXsXsXH R t 5 X.>X).C A -.y.u.s.M.s.5.Q 1.s.D.iXaXR.R.aXyXiXiXiXyXpX=X|.v.b.rX0X>Xl.3 A 8 D sXsXsXsXsXsXsX",
"sXsXsXsXsXsXsXsXsXsXsXsXsXsXsXsXsXsXt I.=X .5 s | } 6 r n 2.G.oXXXXX|.W.W.`.3XiXiX2X=XyXiXiXiXiXpX=X' z.v.J.7X,XC.R e sXsXsXsXsXsXsXsXsXsX",
"sXsXsXsXsXsXsXsXsXsXsXsXsXsXsXsXsXX H R.iX(.n 6 e a 0 y e ~ #XuXuXpXwX4X5XuXaX<X4XeXiXiXiXuXiXpX2XH.$ P Z.W.#XT.k o sXsXsXsXsXsXsXsXsXsXsX",
"sXsXsXsXsXsXsXsXsXsXsXsXsXsXsXsXsX. H ^.iX>Xc.A 5 t u 7 5 L ^.pX9X4X.XL.).iX-XX.L.4XwXwXwXwXaX=XP.t : 3 _ ' f.f.% sXsXsXsXsXsXsXsXsXsXsXsX",
"sXsXsXsXsXsXsXsXsXsXsXsXsXsXsXsXsX+ H |.iXwX:XC.t 8 9 9 e C c.&X~.(.} R ..iX$X$ a |.%X#X.X#X}.] 4 j l j Z P P 3 sXsXsXsXsXsXsXsXsXsXsXsXsX",
"sXsXsXsXsXsXsXsXsXsXsXsXsXsXsXsXsXo Z L.}.^.U.] , o # % , j P { R ( ( B./.iX$X- 3 ` ` _ _ / _ j 2 > - $ o . . sXsXsXsXsXsXsXsXsXsXsXsXsXsX",
"sXsXsXsXsXsXsXsXsXsXsXsXsXsXsXsXsX: 8 = < < 3 1   sX  O n k 4 * : J ~.iXiXiX%X3 : : : : : : 4 2 m 7 sXsXsXsXsXsXsXsXsXsXsXsXsXsXsXsXsXsXsX",
"sXsXsXsXsXsXsXsXsXsXsXsXsXsXsXsXsXsX> $ % 1 @ . sXsXsX  o ; ; @ * M X..X%X%XQ.1 o o o O o o O @ ; sXsXsXsXsXsXsXsXsXsXsXsXsXsXsXsXsXsXsXsX",
"sXsXsXsXsXsXsXsXsXsXsXsXsXsXsXsXsXsXsXsXsXsXsXsXsXsXsXsXsX    . ; 2 & 4 C g <           sXsXsXsXsXsXsXsXsXsXsXsXsXsXsXsXsXsXsXsXsXsXsXsXsX",
"sXsXsXsXsXsXsXsXsXsXsXsXsXsXsXsXsXsXsXsXsXsXsXsXsXsXsXsXsXsXsXsXo 5 ; O X +     sXsXsXsXsXsXsXsXsXsXsXsXsXsXsXsXsXsXsXsXsXsXsXsXsXsXsXsXsX",
"sXsXsXsXsXsXsXsXsXsXsXsXsXsXsXsXsXsXsXsXsXsXsXsXsXsXsXsXsXsXsXsXsX          sXsXsXsXsXsXsXsXsXsXsXsXsXsXsXsXsXsXsXsXsXsXsXsXsXsXsXsXsXsXsX",
"sXsXsXsXsXsXsXsXsXsXsXsXsXsXsXsXsXsXsXsXsXsXsXsXsXsXsXsXsXsXsXsXsXsXsXsXsXsXsXsXsXsXsXsXsXsXsXsXsXsXsXsXsXsXsXsXsXsXsXsXsXsXsXsXsXsXsXsXsX"
};
