/* XPM */
static char *result[] = {
/* columns rows colors chars-per-pixel */
"69 69 226 2 ",
"   c #010101",
".  c #0A0404",
"X  c #0C060A",
"o  c #0E0A0A",
"O  c #060708",
"+  c #130403",
"@  c #130D0C",
"#  c #1A0D0C",
"$  c #150908",
"%  c #1B120E",
"&  c #12100B",
"*  c #160C13",
"=  c #1C1413",
"-  c #1C1719",
";  c #0C0E1A",
":  c #22130B",
">  c #231313",
",  c #2B1513",
"<  c #2C1B15",
"1  c #251B1B",
"2  c #2B1D1C",
"3  c #251815",
"4  c #341D15",
"5  c #321E1B",
"6  c #391716",
"7  c #2C0D0B",
"8  c #2C211C",
"9  c #29241A",
"0  c #33231D",
"q  c #1E1C24",
"w  c #241C21",
"e  c #281E24",
"r  c #1C2226",
"t  c #2C2324",
"y  c #2D2529",
"u  c #2C292B",
"i  c #2A2727",
"p  c #332423",
"a  c #392522",
"s  c #342A25",
"d  c #3B2B24",
"f  c #342528",
"g  c #352C2B",
"h  c #3B2D2B",
"j  c #2A312F",
"k  c #3D322E",
"l  c #30302E",
"z  c #282D34",
"x  c #362D34",
"c  c #343334",
"v  c #3C3333",
"b  c #3E3637",
"n  c #52270F",
"m  c #48261A",
"M  c #522415",
"N  c #552B19",
"B  c #59361E",
"V  c #673216",
"C  c #7C3E11",
"Z  c #762814",
"A  c #442D24",
"S  c #4C2C22",
"D  c #432A2A",
"F  c #5B2E2A",
"G  c #4C3624",
"H  c #44322B",
"J  c #583425",
"K  c #423432",
"L  c #4B3E3D",
"P  c #473C38",
"I  c #563B34",
"U  c #4C2A30",
"Y  c #723E2A",
"T  c #793E2A",
"R  c #623E36",
"E  c #603D2A",
"W  c #774519",
"Q  c #7B460C",
"!  c #4F423B",
"~  c #55423A",
"^  c #7C4B27",
"/  c #694836",
"(  c #704D34",
")  c #79553A",
"_  c #654328",
"`  c #574A47",
"'  c #5B5052",
"]  c #634B44",
"[  c #694943",
"{  c #6A544B",
"}  c #695755",
"|  c #725955",
" . c #714C4A",
".. c #74645D",
"X. c #796258",
"o. c #685E62",
"O. c #796A6B",
"+. c #73686B",
"@. c #6F676A",
"#. c #853715",
"$. c #8D440F",
"%. c #99460D",
"&. c #9C5916",
"*. c #914E19",
"=. c #B04F0E",
"-. c #AA550A",
";. c #B85705",
":. c #B04E10",
">. c #AA5414",
",. c #A8571B",
"<. c #B25E14",
"1. c #B55714",
"2. c #A64E10",
"3. c #BC6218",
"4. c #894825",
"5. c #98703B",
"6. c #A26E36",
"7. c #C75B0C",
"8. c #D15F05",
"9. c #C35D12",
"0. c #C8650A",
"q. c #D36A06",
"w. c #DC6D06",
"e. c #D46D0D",
"r. c #D96E0B",
"t. c #D96507",
"y. c #DB710C",
"u. c #DA700A",
"i. c #C56A17",
"p. c #D56E10",
"a. c #D97311",
"s. c #D37A1B",
"d. c #D27819",
"f. c #E36D0B",
"g. c #E06E05",
"h. c #E57509",
"j. c #F37B04",
"k. c #E07211",
"l. c #FB7F15",
"z. c #CF7121",
"x. c #CE6F34",
"c. c #D87827",
"v. c #826556",
"b. c #B97B5D",
"n. c #856868",
"m. c #87756B",
"M. c #8C7B74",
"N. c #887677",
"B. c #97746B",
"V. c #CB7847",
"C. c #DF4373",
"Z. c #DA4167",
"A. c #D28014",
"S. c #E18519",
"D. c #D1813F",
"F. c #C48532",
"G. c #8F827D",
"H. c #98837D",
"J. c #A58373",
"K. c #D09054",
"L. c #F8B147",
"P. c #C5926E",
"I. c #DAAB76",
"U. c #E4B46F",
"Y. c #858180",
"T. c #968986",
"R. c #9D8D93",
"E. c #AA9685",
"W. c #B49186",
"Q. c #AD9B9B",
"!. c #AC968F",
"~. c #B5A297",
"^. c #B5A58D",
"/. c #ABA6A3",
"(. c #BAAAAA",
"). c #B5A8A5",
"_. c #B9B2AA",
"`. c #BCB6B8",
"'. c #C2A08D",
"]. c #D8B799",
"[. c #D3A68E",
"{. c #E6BC85",
"}. c #C6A9A4",
"|. c #D2A1A0",
" X c #D3BDAA",
".X c #C6B9B6",
"XX c #E4AAB9",
"oX c #EDC88F",
"OX c #D6C7BB",
"+X c #E6CDB2",
"@X c #E8A9C7",
"#X c #C9C6C6",
"$X c #D3CAC7",
"%X c #DBD1CB",
"&X c #D4D0C2",
"*X c #D8D5D8",
"=X c #D9CCD0",
"-X c #EAD9C8",
";X c #E2D8D5",
":X c #E3C8CE",
">X c #EFE2CE",
",X c #F7E5CC",
"<X c #EDE5D8",
"1X c #F4E8D9",
"2X c #EFF0DB",
"3X c #EDEDEA",
"4X c #EBEBE2",
"5X c #F3EAE3",
"6X c #F3EEED",
"7X c #F2E7E1",
"8X c #F2F3ED",
"9X c #FCF6EB",
"0X c #F5F8ED",
"qX c #FBFAEE",
"wX c #F7F4E4",
"eX c #F4EEF2",
"rX c #EFF5F3",
"tX c #F5F5F4",
"yX c #F8F6F7",
"uX c #F6FBF5",
"iX c #FBFBF5",
"pX c #F4F4F9",
"aX c #F4FBFA",
"sX c #FCFBFB",
"dX c #F9F5F9",
"fX c None",
/* pixels */
"fXfXfXfXfXfXfXfXfXfXfXfXfXfXfXfXfXfXfXfXfXfXfXfXfXfXfXfXfXfXfXfXfXfXfXfXfXfXfXfXfXfXfXfXfXfXfXfXfXfXfXfXfXfXfXfXfXfXfXfXfXfXfXfXfXfXfXfXfX",
"fXfXfXfXfXfXfXfXfXfXfXfXfXfXfXfXfXfXfXfXfXfXfXfXfXfXfXfXfXfXfXfXfXfXfXfXfXfXfXfXfXfXfXfXfXfXfXfXfXfXfXfXfXfXfXfXfXfXfXfXfXfXfXfXfXfXfXfXfX",
"fXfXfXfXfXfXfXfXfXfXfXfXfXfXfXfXfXfXfXfXfXfXfXfXfXfXfXfXfXfXfXfXfXfXfXfXfXfXfXfXfXfXfXfXfXfXfXfXfXfXfXfXfXfXfXfXfXfXfXfXfXfXfXfXfXfXfXfXfX",
"fXfXfXfXfXfXfXfXfXfXfXfXfXfXfXfXfXfXfXfXfXfXfXfXfXfXfXfXfXfXfXfXfXfXfXfXfXfXfXfXfXfXfXfXfXfXfXfXfXfXfXfXfXfXfXfXfXfXfXfXfXfXfXfXfXfXfXfXfX",
"fXfXfXfXfXfXfXfXfXfXfXfXfXfXfXfXfXfXfXfXfXfXfXfXfXfXfXfXfXfXfXfXfXfXfXfXfXfXfXfXfXfXfXfXfXfXfXfXfXfXfXfXfXfXfXfXfXfXfXfXfXfXfXfXfXfXfXfXfX",
"fXfXfXfXfXfXfXfXfXfXfXfXfXfXfXfXfXfXfXfXfXfXfXfXfXfXfXfXfXfXfXfXfXfXfXfXfXfXfXfXfXfXfXfXfXfXfXfXfXfXfXfXfXfXfXfXfXfXfXfXfXfXfXfXfXfXfXfXfX",
"fXfXfXfXfXfXfXfXfXfXfXfXfXfXfXfXfXfXfXfXfXfXfXfXfXfXfXfXfXfXfXfXfXfXfXfXfXfXfXfXfXfXfXfXfXfXfXfXfXfXfXfXfXfXfXfXfXfXfXfXfXfXfXfXfXfXfXfXfX",
"fXfXfXfXfXfXfXfXfXfXfXfXfXfXfXfXfXfXfXfXfXfXfXfXfXfXfXfXfXfXfXfXfXfXfXfXfXfXfXfXfXfXfXfXfXfXfXfXfXfXfXfXfXfXfXfXfXfXfXfXfXfXfXfXfXfXfXfXfX",
"fXfXfXfXfXfXfXfXfXfXfXfXfXfXfXfXfXfXfXfXfXfXfXfXfXfXfXfXfXfXfXfXfXfXfXfXfXfXfXfXfXfXfXfXfXfXfXfXfXfXfXfXfXfXfXfXfXfXfXfXfXfXfXfXfXfXfXfXfX",
"fXfXfXfXfXfXfXfXfXfXfXfXfXfXfXfXfXfXfXfXfXfXfXfXfXfXfXfXfXfXfXfXfXfXfXfXfXfXfXfXfXfXfXfXfXfXfXfXfXfXfXfXfXfXfXfXfXfXfXfXfXfXfXfXfXfXfXfXfX",
"fXfXfXfXfXfXfXfXfXfXfXfXfXfXfXfXfXfXfXfXfXfXfXfXfXfXfXfXfXfXfXfXfXfXfXfXfXfXfXfXfXfXfXfXfXfXfXfXfXfXfXfXfXfXfXfXfXfXfXfXfXfXfXfXfXfXfXfXfX",
"fXfXfXfXfXfXfXfXfXfXfXfXfXfXfXfXfXfXfXfXfXfXfXfXfXfXfXfXfXfXfXfXfXfXfXfXfXfXfXfXfXfXfXfXfXfXfXfXfXfXfXfXfXfXfXfXfXfXfXfXfXfXfXfXfXfXfXfXfX",
"fXfXfXfXfXfXfXfXfXfXfXfXfXfXfXfXfXfXfXfXfXfXfXfXfXfXfXfXfXfXfXfXfXfXfXfXfXfXfXfXfXfXfXfXfXfXfXfXfXfXfXfXfXfXfXfXfXfXfXfXfXfXfXfXfXfXfXfXfX",
"fXfXfXfXfXfXfXfXfXfXfXfXfXfXfXfXfXfXfXfXfXfXfXfXfXfXfXfXfXfXfXfXfXfXfXfXfXfXfXfXfXfXfXfXfXfXfXfXfXfXfXfXfXfXfXfXfXfXfXfXfXfXfXfXfXfXfXfXfX",
"fXfXfXfXfXfXfXfXfXfXfXfXfXfXfXfXfXfXfXfXfXfXfXfXfXfXfXfXfXfXfXfXfXfXfXfXfXfXfXfXfXfXfXfXfXfXfXfXfXfXfXfXfXfXfXfXfXfXfXfXfXfXfXfXfXfXfXfXfX",
"fXfXfXfXfXfXfXfXfXfXfXfXfXfXfXfXfXfXfXfXfXfXfXfXfXfXfXfXfXfXfXfXfXfXfXfXfXfXfXfXfXfXfXfXfXfXfXfXfXfXfXfXfXfXfXfXfXfXfXfXfXfXfXfXfXfXfXfXfX",
"fXfXfXfXfXfXfXfXfXfXfXfXfXfXfXfXfXfXfXfXfXfXfXfXfXfXfXfXfXfXfXfXfXfXfXfXfXfXfXfXfXfXfXfXfXfXfXfXfXfXfXfXfXfXfXfXfXfXfXfXfXfXfXfXfXfXfXfXfX",
"fXfXfXfXfXfXfXfXfXfXfXfXfXfXfXfXfXfXfXfXfXfXfXfXfXfXfXfXfXfXfXfXfXfXfXfXfXfXfXfXfXfXfXfXfXfXfXfXfXfXfXfXfXfXfXfXfXfXfXfXfXfXfXfXfXfXfXfXfX",
"fXfXfXfXfXfXfXfXfXfXfXfXfXfXfXfXfXfXfXfXfXfXfXfXfXfXfXfXfXfXfXfXfXfXfXfXfXfXfXfXfXfXfXfXfXfXfXfXfXfXfXfXfXfXfXfXfXfXfXfXfXfXfXfXfXfXfXfXfX",
"fXfXfXfXfXfXfXfXfXfXfXfXfXfXfXfXfXfXfXfXfXfXfXfXfXfXfXfXfXfXfXfXfXfXfXfXfXfXfXfXfXfXfXfXfXfXfXfXfXfXfXfXfXfXfXfXfXfXfXfXfXfXfXfXfXfXfXfXfX",
"fXfXfXfXfXfXfXfXfXfXfXfXfXfXfXfXfXfXfXfXfXfXfXfXfXfXfXfXfXfXfXfXfXfXfXfXfXfXfXfXfXfXfXfXfXfXfXfXfXfXfXfXfXfXfXfXfXfXfXfXfXfXfXfXfXfXfXfXfX",
"fXfXfXfXfXfXfXfXfXfXfXfXfXfXfXfXfXfXfXfXfXfXfXfXfXfXfXfXfXfXfXfXfXfXfXfXfXfXfXfXfXfXfXfXfXfXfXfXfXfXfXfXfXfXfXfXfXfXfXfXfXfXfXfXfXfXfXfXfX",
"fXfXfXfXfXfXfXfXfXfXfXfXfXfXfXfXfXfXfXfXfXfXfXfXfXfXfXfXfXfXfXfXfXfXfXfXfXfXfXfXfXfXfXfXfXfXfXfXfXfXfXfXfXfXfXfXfXfXfXfXfXfXfXfXfXfXfXfXfX",
"fXfXfXfXfXfXfXfXfXfXfXfXfXfXfXfXfXfXfXfXfXfXfXfXfXfXfXfXfXfXfXfXfXfXfXfXfXfXfXfXfXfXfXfXfXfXfXfXfXfXfXfXfXfXfXfXfXfXfXfXfXfXfXfXfXfXfXfXfX",
"fXfXfXfXfXfXfXfXfXfXfXfXfXfXfXfXfXfXfXfXfXfXfXfXfXfXfXfXfXfXfXfXfXfXfXfXfXfXfXfXfXfXfXfXfXfXfXfXfXfXfXfXfXfXfXfXfXfXfXfXfXfXfXfXfXfXfXfXfX",
"fXfXfXfXfXfXfXfXfXfXfXfXfXfXfXfXfXfXfXfXfXfXfXfXfXfXfXfXfXfXfXfXfXfXfXfXfXfXfXfXfXfXfXfXfXfXfXfXfXfXfXfXfXfXfXfXfXfXfXfXfXfXfXfXfXfXfXfXfX",
"fXfXfXfXfXfXfXfXfXfXfXfXfXfXfXfXfXfXfXfXfXfXfXfXfXfXfXfXfXfXfXfXfXfXfXfXfXfXfXfXfXfXfXfXfXfXfXfXfXfXfXfXfXfXfXfXfXfXfXfXfXfXfXfXfXfXfXfXfX",
"fXfXfXfXfXfXfXfXfXfXfXfXfXfXfXfXfXfXfXfXfXfXfXfXfXfXfXfXfXfXfXfXfXfXfXfXfXfXfXfXfXfXfXfXfXfXfXfXfXfXfXfXfXfXfXfXfXfXfXfXfXfXfXfXfXfXfXfXfX",
"fXfXfXfXfXfXfXfXfXfXfXfXfXfXfXfXfXfXfXfXfXfXfXfXfXfXfXfXfXfXfXfXfXfXfXfXfXfXfXfXfXfXfXfXfXfXfXfXfXfXfXfXfXfXfXfXfXfXfXfXfXfXfXfXfXfXfXfXfX",
"fXfXfXfXfXfXfXfXfXfXfXfXfXfXfXfXfXfXfXfXfXfXfXfXfXfXfXfXfXfXfXfXfXfXfXfXfXfXfXfXfXfXfXfXfXfXfXfXfXfXfXfXfXfXfXfXfXfXfXfXfXfXfXfXfXfXfXfXfX",
"fXfXfXfXfXfXfXfXfXfXfXfXfXfXfXfXfXfXfXfXfXfXfXfXfXfXfXfXfXfXfXfXfXfXfXfXfXfXfXfXfXfXfXfXfXfXfXfXfXfXfXfXfXfXfXfXfXfXfXfXfXfXfXfXfXfXfXfXfX",
"fXfXfXfXfXfXfXfXfXfXfXfXfXfXfXfXfXfXfXfXfXfXfXfXfXfXfXfXfXfXfXfXfXfXfXfXfXfXfXfXfXfXfXfXfXfXfXfXfXfXfXfXfXfXfXfXfXfXfXfXfXfXfXfXfXfXfXfXfX",
"fXfXfXfXfXfXfXfXfXfXfXfXfXfXfXfXfXfXfXfXfXfXfXfXfXfXfXfXfXfXfXfXfXfXfXfXfXfXfXfXfXfXfXfXfXfXfXfXfXfXfXfXfXfXfXfXfXfXfXfXfXfXfXfXfXfXfXfXfX",
"fXfXfXfXfXfXfXfXfXfXfXfXfXfXfXfXfXfXfXfXfXfXfXfXfXfXfXfXfXfXfXfXfXfXfXfXfXfXfXfXfXfXfXfXfXfXfXfXfXfXfXfXfXfXfXfXfXfXfXfXfXfXfXfXfXfXfXfXfX",
"fXfXfXfXfXfXfXfXfXfXfXfXfXfXfXfXfXfXfXfXfXfXfXfXfXfXfXfXfXfXfXfXfXfXfXfXfXfXfXfXfXfXfXfXfXfXfXfXfXfXfXfXfXfXfXfXfXfXfXfXfXfXfXfXfXfXfXfXfX",
"fXfXfXfXfXfXfXfXfXfXfXfXfXfXfXf I G A fXfXfXfXfXfXfXfXfXfXfXfXfXfXfXfXfXfXfXfXfXfXfXfXfXfXfXfXfXfXfXfXfXfXfXfXfXfXfXfXfXfXfXfXfXfXfXfXfXfX",
"fXfXfXfXfXfXfXfXfXfXfXfXfXfXfX9 { E.~.m.fXfXfXfXfXfXfXfXfXfXfXfXfXfXfXfXfXfXfXfXfXfXfXfXfXfXfXfXfXfXfXfXfXfXfXfXfXfXfXfXfXfXfXfXfXfXfXfXfX",
"fXfXfXfXfXfXfXfXfXfXfXfXfXfXfX1 ..%XqX_.3 fXfXfXfXfXfXfXfXfXfXfXfXfXfXfXfXfXfXfXfXfXfXfXfXfXfXfXfXfXfXfXfXfXfXfXfXfXfXfXfXfXfXfXfXfXfXfXfX",
"fXfXfXfXfXfXfXfXfXfXfXfXfXfXfX1 ..%XiX_.- o fXfXfXfXfXfXfXfXfXfXfXfXfXfXfXfXfXfXfXfXfXfXfXfXfXfXfXfXfXfXfXfXfXfXfXfXfXfXfXfXfXfXfXfXfXfXfX",
"fXfXfXfXfXfXfXfXfXfXfXfXfXfXfX2 X.OX0X~.- @ fXfXfXfXfXfXfXfXfXfXfXfXfXfXfXfXfXfXfXfXfXfXfXfXfXfX9 p f h I d fXfXfXfXfXfXfXfXfXfXfXfXfXfXfX",
"fXfXfXfXfXfXfXfXfXfXfXfXfXfXfXs X.].2XE.= & fXfXfXfXfXfXfXfXfXfXfXfXfXfXfXfXfXfXfXfXfXfXfXfXfXp ( [ | ~ p 8 fXfXfXfXfXfXfXfXfXfXfXfXfXfXfX",
"fXfXfXfXfXfXfXfXfXfXfXfXfXfXfXu ) z.A.&.3 & fXfXfXfXfXfXfXfXfXfXfXfXfXk t e w w w 1 3 fXfXfXk '.<XiXiX%X` = fXfXfXfXfXfXfXfXfXfXfXfXfXfXfX",
"fXfXfXfXfXfXfXfXfXfXfXfXfXfXfXg ) <.q.$.4 & fXfXfXfXfXfXfXfXfXfXfXfXfXG [ +.X.{ [ / J fXfXs ]  X<X3X8X&XH . fXfXfXfXfXfXfXfXfXfXfXfXfXfXfX",
"fXfXfXfXfXfXfXfXfXfXfXfXfXfXfXs I m F U D & fXfXfXfXfXfXfXfXfXfXfXfXfXK E.<X7X7X+X6.W 4 ; w q - g ` ' p fXfXfXfXfXfXfXfXfXfXfXfXfXfXfXfXfX",
"fXfXfXfXfXfXfXfXfXfXfXfXfXfXfXs ! 0 i 0 5 % fXfXfXfXfXfXfXfXfXfXfXfXfXh }.uXtXtX-XF.$.m q c l z z u 1 = fXfXfXfXfXfXfXfXfXfXfXfXfXfXfXfXfX",
"fXfXfXfXfXfXfXfXfXfXfXfXfXfXfXl ( ,.y.-.#.W : fXfXfXfXfXfX1 9 fXfXfXfXfXP m.J.P.K.8.q.7.9.t.0.H c j c c 0 fXfXfXfXfXfXfXfXfXfXfXfXfXfXfXfX",
"fXfXfXfXfXfXfXfXfXfXfXfXfXfXfXl ) 0.j.q.3.>.4.$ fXfXfXfXp h h h fXfXfXfX. = M =.8.q.e.p.a.r.r.<.c c k c g a fXfXfXfXfXfXfXfXfXfXfXfXfXfXfX",
"fXfXfXfXfXfXfXfXfXfXfXfXfXfXfXu / ,.K.].I.i.1.V & o @ 3 p h h h h e @ @ = q B g.t.q.e.e.r.y.r.r.1.G k v c k 0 fXfXfXfXfXfXfXfXfXfXfXfXfXfX",
"fXfXfXfXfXfXfXfXfXfXfXfXfXfXfX- / P.,XyXuXoXs.=.B 2 A H b v c v v h y t i u J q.e.e.p.a.a.q.q.w.r.1.P v h v h 0 fXfXfXfXfXfXfXfXfXfXfXfXfX",
"fXfXfXfXfXfXfXfXfXfXfXfXfXfXfXfX3 ~ J.-XiX9XoXs.-.N D c v v v K H k h u x Y 2.p.e.e.p.a.e.;.Q w.g.c.}.} t h h g 8 fXfXfXfXfXfXfXfXfXfXfXfX",
"fXfXfXfXfXfXfXfXfXfXfXfXfXfXfXfXfXX H W.1X0XwX{.d.&.G x x v b b k k h g F e.9.e.p.e.p.p.e.Q 9 2.h.[.tX#Xp t s s t R / E fXfXfXfXfXfXfXfXfX",
"fXfXfXfXfXfXfXfXfXfXfXfXfXfXfXfXfXfX+ K W.1X0X2XU.d.>.Y ^ ^ K b ~ *.D y S ;.9.I.K.e.e.u.q.#.d v.K.3XtX#X5 8 T.G.e 1 3 1 fXfXfXfXfXfXfXfXfX",
"fXfXfXfXfXfXfXfXfXfXfXfXfXfXfXfXfXfXfXX f E.1XiX2XI.a.k.h.i._ P 4.y.*.i F 9.V.pX-Xc.y.u.t.#.x M.rXpXtX`.p ` qX5XK p   fXfXfXfXfXfXfXfXfXfX",
"fXfXfXfXfXfXfXfXfXfXfXfXfXfXfXfXfXfXfX$ > s m.;XuX3XU.S.g.0.W G 2.j.3.s M 1.b.pX2XK.d.s.z.#.f (.aXtXtX_.2 m.sX8XL > = fXfXfXfXfXfXfXfXfXfX",
"fXfXfXfXfXfXfXfXfXfXfXfXfXfXfXfXfXfXfXG ( < a M.uXuXrX+XS.w.f.t.f.t.x.}.(.Q.=XsXsXsXdXpXpXdXeXdXtX:XZ.XX8XiXiX8X! 3 G 4 fXfXfXfXfXfXfXfXfX",
"fXfXfXfXfXfXfXfXfXfXfXfXfXfXfXfXfXfXfXfXd a d O.8XuXiX,XL.j.w.w.f.V.|.*X#X#X7XsXsXyXaXdXdXdXsXsXtX:XC.@XuXiXsX<X5 = a 1 fXfXfXfXfXfXfXfXfX",
"fXfXfXfXfXfXfXfXfXfXfXfXfXfXfXfXfXfXfXfX  * 0 M.tX*X@.5 0 6 m R ^.aXaXpX*XT.R.(.*XsXsXsXdXsXsXsXsXaXeXeX8X7X~.K fXfXfXfXfXfXfXfXfXfXfXfXfX",
"fXfXfXfXfXfXfXfXfXfXfXfXfXfXfXfXfXfXfXfXfXo p G.0X`.H p g y f L `.aXsXsXrX(.T.N.R.tXsXsXyXdXpXpXsXsXdXtX*Xn.a . fXfXfXfXfXfXfXfXfXfXfXfXfX",
"fXfXfXfXfXfXfXfXfXfXfXfXfXfXfXfXfXfXfXfXfX  X ' Q.X.0 s p g } ).f ' `.sXyXsXsXsXtXrX=XO.o.@.O.N.N.N.n.|  .| . fXfXfXfXfXfXfXfXfXfXfXfXfXfX",
"fXfXfXfXfXfXfXfXfXfXfXfXfXfXfXfXfXfXfXfXfXfXfX@ 0 A s s h ` `.%X{ > h .XuXsXsXsXpX*X` 7 * * * * # $ + + $ + fXfXfXfXfXfXfXfXfXfXfXfXfXfXfX",
"fXfXfXfXfXfXfXfXfXfXfXfXfXfXfXfXfXfXfXfXfXfXfX  o 8 0 K ~.5XiX8X/.] / p K O.OXuX3XY.M y.f.%., O         fXfXfXfXfXfXfXfXfXfXfXfXfXfXfXfXfX",
"fXfXfXfXfXfXfXfXfXfXfXfXfXfXfXfXfXfXfXfXfXfXfXfXfX@ p m.9XsXsXsXsX0XOX< : 0 | dX*XL G l.j.2.;     fXfXfXfXfXfXfXfXfXfXfXfXfXfXfXfXfXfXfXfX",
"fXfXfXfXfXfXfXfXfXfXfXfXfXfXfXfXfXfXfXfXfXfXfXfXfX    b .X;X;X$X).B.~ O % : b .X).> 0 Z :.M ,     fXfXfXfXfXfXfXfXfXfXfXfXfXfXfXfXfXfXfXfX",
"fXfXfXfXfXfXfXfXfXfXfXfXfXfXfXfXfXfXfXfXfXfXfXfXfXfXfX. X # # % % # .   > / 4 , 5 Y ^ N 6 M T   fXfXfXfXfXfXfXfXfXfXfXfXfXfXfXfXfXfXfXfXfX",
"fXfXfXfXfXfXfXfXfXfXfXfXfXfXfXfXfXfXfXfXfXfXfXfXfXfXfX    . . o X .       @ @ @ X O o @ o & =   fXfXfXfXfXfXfXfXfXfXfXfXfXfXfXfXfXfXfXfXfX",
"fXfXfXfXfXfXfXfXfXfXfXfXfXfXfXfXfXfXfXfXfXfXfXfXfXfXfXfXfX          fXfXfX                    fXfXfXfXfXfXfXfXfXfXfXfXfXfXfXfXfXfXfXfXfXfX",
"fXfXfXfXfXfXfXfXfXfXfXfXfXfXfXfXfXfXfXfXfXfXfXfXfXfXfXfXfXfXfXfXfXfXfXfXfXfXfXfXfXfXfXfXfXfXfXfXfXfXfXfXfXfXfXfXfXfXfXfXfXfXfXfXfXfXfXfXfX",
"fXfXfXfXfXfXfXfXfXfXfXfXfXfXfXfXfXfXfXfXfXfXfXfXfXfXfXfXfXfXfXfXfXfXfXfXfXfXfXfXfXfXfXfXfXfXfXfXfXfXfXfXfXfXfXfXfXfXfXfXfXfXfXfXfXfXfXfXfX",
"fXfXfXfXfXfXfXfXfXfXfXfXfXfXfXfXfXfXfXfXfXfXfXfXfXfXfXfXfXfXfXfXfXfXfXfXfXfXfXfXfXfXfXfXfXfXfXfXfXfXfXfXfXfXfXfXfXfXfXfXfXfXfXfXfXfXfXfXfX"
};
