/* XPM */
static char *result[] = {
/* columns rows colors chars-per-pixel */
"69 69 221 2 ",
"   c #020102",
".  c #0A0405",
"X  c #0C0B0B",
"o  c #090409",
"O  c #130C0B",
"+  c #1C0D0B",
"@  c #18110E",
"#  c #0F0E13",
"$  c #160E12",
"%  c #161114",
"&  c #1C1415",
"*  c #12111B",
"=  c #1A171A",
"-  c #220D0C",
";  c #241614",
":  c #231B15",
">  c #241B19",
",  c #2D1D1B",
"<  c #2A1616",
"1  c #3A1D1C",
"2  c #351C18",
"3  c #37190E",
"4  c #2D231B",
"5  c #33241D",
"6  c #382A1F",
"7  c #181B26",
"8  c #2A1D21",
"9  c #251C27",
"0  c #351D25",
"q  c #232125",
"w  c #2B2124",
"e  c #2C2627",
"r  c #342523",
"t  c #3A2523",
"y  c #342924",
"u  c #3A2B26",
"i  c #342B2B",
"p  c #3C2D2B",
"a  c #38252A",
"s  c #3E312D",
"d  c #39312A",
"f  c #212932",
"g  c #252530",
"h  c #352C37",
"j  c #2C3137",
"k  c #343236",
"l  c #3E3232",
"z  c #333139",
"x  c #3D3339",
"c  c #631E0C",
"v  c #492719",
"b  c #532719",
"n  c #4C301C",
"m  c #55351C",
"M  c #5D3B1F",
"N  c #5B2107",
"B  c #63280E",
"V  c #6E3C13",
"C  c #733A1B",
"Z  c #7D3F1D",
"A  c #432D2C",
"S  c #4B2E25",
"D  c #512F23",
"F  c #4B3224",
"G  c #41332E",
"H  c #4B322B",
"J  c #4F392E",
"K  c #523728",
"L  c #472F30",
"P  c #413432",
"I  c #4A3431",
"U  c #453836",
"Y  c #4A3A31",
"T  c #4C3D3A",
"R  c #593D39",
"E  c #643A2A",
"W  c #723C27",
"Q  c #75431C",
"!  c #4F413D",
"~  c #544238",
"^  c #774A28",
"/  c #694736",
"(  c #61452D",
")  c #484342",
"_  c #524643",
"`  c #574946",
"'  c #5D534E",
"]  c #68554A",
"[  c #615451",
"{  c #6A5A57",
"}  c #6E5046",
"|  c #72675C",
" . c #7A6A65",
".. c #796A68",
"X. c #7F7571",
"o. c #767066",
"O. c #9D2F09",
"+. c #853F11",
"@. c #933E0C",
"#. c #803C22",
"$. c #8B410A",
"%. c #9C440A",
"&. c #96490B",
"*. c #844718",
"=. c #9E4B11",
"-. c #924619",
";. c #9D5316",
":. c #A9490A",
">. c #B44E0C",
",. c #B7540E",
"<. c #BA5505",
"1. c #A5561B",
"2. c #A65D18",
"3. c #AA5516",
"4. c #B65919",
"5. c #B95917",
"6. c #AA520B",
"7. c #854A24",
"8. c #9C5223",
"9. c #955323",
"0. c #8D5D33",
"q. c #9C5E32",
"w. c #804539",
"e. c #AE5824",
"r. c #946438",
"t. c #B76820",
"y. c #CC5D02",
"u. c #C75D0D",
"i. c #D75904",
"p. c #CC6806",
"a. c #CC620B",
"s. c #DC6504",
"d. c #D56902",
"f. c #DB6A02",
"g. c #D76609",
"h. c #DB710A",
"j. c #D16E14",
"k. c #DA7310",
"l. c #CA6811",
"z. c #E46401",
"x. c #E36C03",
"c. c #E66B0D",
"v. c #E97202",
"b. c #E5750D",
"n. c #E97805",
"m. c #F27604",
"M. c #E67A1C",
"N. c #CD7A25",
"B. c #8C2A41",
"V. c #BE3C65",
"C. c #987358",
"Z. c #B4775C",
"A. c #8D6E6B",
"S. c #87736C",
"D. c #9D6E74",
"F. c #8F7876",
"G. c #E5801A",
"H. c #DB822C",
"J. c #EC8B35",
"K. c #94837D",
"L. c #AE8066",
"P. c #B78E72",
"I. c #B08B75",
"U. c #D88C46",
"Y. c #D9A149",
"T. c #CF9E6D",
"R. c #DB9861",
"E. c #E9AE7F",
"W. c #C8738A",
"Q. c #8C8484",
"!. c #998886",
"~. c #9C908F",
"^. c #9D9794",
"/. c #A18C85",
"(. c #A6958B",
"). c #A59A97",
"_. c #B69D9A",
"`. c #A8A19D",
"'. c #B1A59C",
"]. c #BAA392",
"[. c #B2A7AA",
"{. c #BBB5B5",
"}. c #B5ACAA",
"|. c #C4B6A8",
" X c #C5BCBA",
".X c #C5B7B3",
"XX c #E2B5BC",
"oX c #E8C299",
"OX c #CAC1BD",
"+X c #DAC3B0",
"@X c #E8C4A9",
"#X c #F6D3AF",
"$X c #C5B5C0",
"%X c #E4BAC9",
"&X c #CBC4C3",
"*X c #D3CCC8",
"=X c #D8D1CC",
"-X c #DCD7D4",
";X c #DEDCDD",
":X c #E3CACF",
">X c #E2D9CE",
",X c #EBDDD5",
"<X c #E4DCDB",
"1X c #E4D9D6",
"2X c #EAE3DC",
"3X c #E5E3DB",
"4X c #EDF0DB",
"5X c #D7EDEB",
"6X c #EAE5E2",
"7X c #EEEAE5",
"8X c #E8E7E7",
"9X c #F3ECE4",
"0X c #F5EDEA",
"qX c #F3E1E2",
"wX c #ECF0EC",
"eX c #F4F1ED",
"rX c #F5F3E3",
"tX c #FAFAF5",
"yX c #FCFDFB",
"uX c #F6F8F8",
"iX c None",
/* pixels */
"iXiXiXiXiXiXiXiXiXiXiXiXiXiXiXiXiXiXiXiXiXiXiXiXiXiXiXiXiXiXiXiXiXiXiXiXiXiXiXiXiXiXiXiXiXiXiXiXiXiXiXiXiXiXiXiXiXiXiXiXiXiXiXiXiXiXiXiXiX",
"iXiXiXiXiXiXiXiXiXiXiXiXiXiXiXiXiXiXiXiXiXiXiXiXiXiXiXiXiXiXiXiXiXiXiXiXiXiXiXiXiXiXiXiXiXiXiXiXiXiXiXiXiXiXiXiXiXiXiXiXiXiXiXiXiXiXiXiXiX",
"iXiXiXiXiXiXiXiXiXiXiXiXiXiXiXiXiXiXiXiXiXiXiXiXiXiXiXiXiXiXiXiXiXiXiXiXiXiXiXiXiXiXiXiXiXiXiXiXiXiXiXiXiXiXiXiXiXiXiXiXiXiXiXiXiXiXiXiXiX",
"iXiXiXiXiXiXiXiXiXiXiXiXiXiXiXiXiXiXiXiXiXiXiXiXiXiXiXiXiXiXiXiXiXiXiXiXiXiXiXiXiXiXiXiXiXiXiXiXiXiXiXiXiXiXiXiXiXiXiXiXiXiXiXiXiXiXiXiXiX",
"iXiXiXiXiXiXiXiXiXiXiXiXiXiXiXiXiXiXiXiXiXiXiXiXiXiXiXiXiXiXiXiXiXiXiXiXiXiXiXiXiXiXiXiXiXiXiXiXiXiXiXiXiXiXiXiXiXiXiXiXiXiXiXiXiXiXiXiXiX",
"iXiXiXiXiXiXiXiXiXiXiXiXiXiXiXiXiXiXiXiXiXiXiXiXiXiXiXiXiXiXiXiXiXiXiXiXiXiXiXiXiXiXiXiXiXiXiXiXiXiXiXiXiXiXiXiXiXiXiXiXiXiXiXiXiXiXiXiXiX",
"iXiXiXiXiXiXiXiXiXiXiXiXiXiXiXiXiXiXiXiXiXiXiXiXiXiXiXiXiXiXiXiXiXiXiXiXiXiXiXiXiXiXiXiXiXiXiXiXiXiXiXiXiXiXiXiXiXiXiXiXiXiXiXiXiXiXiXiXiX",
"iXiXiXiXiXiXiXiXiXiXiXiXiXiXiXiXiXiXiXiXiXiXiXiXiXiXiXiXiXiXiXiXiXiXiXiXiXiXiXiXiXiXiXiXiXiXiXiXiXiXiXiXiXiXiXiXiXiXiXiXiXiXiXiXiXiXiXiXiX",
"iXiXiXiXiXiXiXiXiXiXiXiXiXiXiXiXiXiXiXiXiXiXiXiXiXiXiXiXiXiXiXiXiXiXiXiXiXiXiXiXiXiXiXiXiXiXiXiXiXiXiXiXiXiXiXiXiXiXiXiXiXiXiXiXiXiXiXiXiX",
"iXiXiXiXiXiXiXiXiXiXiXiXiXiXiXiXiXiXiXiXiXiXiXiXiXiXiXiXiXiXiXiXiXiXiXiXiXiXiXiXiXiXiXiXiXiXiXiXiXiXiXiXiXiXiXiXiXiXiXiXiXiXiXiXiXiXiXiXiX",
"iXiXiXiXiXiXiXiXiXiXiXiXiXiXiXiXiXiXiXiXiXiXiXiXiXiXiXiXiXiXiXiXiXiXiXiXiXiXiXiXiXiXiXiXiXiXiXiXiXiXiXiXiXiXiXiXiXiXiXiXiXiXiXiXiXiXiXiXiX",
"iXiXiXiXiXiXiXiXiXiXiXiXiXiXiXiXiXiXiXiXiXiXiXiXiXiXiXiXiXiXiXiXiXiXiXiXiXiXiXiXiXiXiXiXiXiXiXiXiXiXiXiXiXiXiXiXiXiXiXiXiXiXiXiXiXiXiXiXiX",
"iXiXiXiXiXiXiXiXiXiXiXiXiXiXiXiXiXiXiXiXiXiXiXiXiXiXiXiXiXiXiXiXiXiXiXiXiXiXiXiXiXiXiXiXiXiXiXiXiXiXiXiXiXiXiXiXiXiXiXiXiXiXiXiXiXiXiXiXiX",
"iXiXiXiXiXiXiXiXiXiXiXiXiXiXiXiXiXiXiXiXiXiXiXiXiXiXiXiXiXiXiXiXiXiXiXiXiXiXiXiXiXiXiXiXiXiXiXiXiXiXiXiXiXiXiXiXiXiXiXiXiXiXiXiXiXiXiXiXiX",
"iXiXiXiXiXiXiXiXiXiXiXiXiXiXiXiXiXiXiXiXiXiXiXiXiXiXiXiXiXiXiXiXiXiXiXiXiXiXiXiXiXiXiXiXiXiXiXiXiXiXiXiXiXiXiXiXiXiXiXiXiXiXiXiXiXiXiXiXiX",
"iXiXiXiXiXiXiXiXiXiXiXiXiXiXiXiXiXiXiXiXiXiXiXiXiXiXiXiXiXiXiXiXiXiXiXiXiXiXiXiXiXiXiXiXiXiXiXiXiXiXiXiXiXiXiXiXiXiXiXiXiXiXiXiXiXiXiXiXiX",
"iXiXiXiXiXiXiXiXiXiXiXiXiXiXiXiXiXiXiXiXiXiXiXiXiXiXiXiXiXiXiXiXiXiXiXiXiXiXiXiXiXiXiXiXiXiXiXiXiXiXiXiXiXiXiXiXiXiXiXiXiXiXiXiXiXiXiXiXiX",
"iXiXiXiXiXiXiXiXiXiXiXiXiXiXiXiXiXiXiXiXiXiXiXiXiXiXiXiXiXiXiXiXiXiXiXiXiXiXiXiXiXiXiXiXiXiXiXiXiXiXiXiXiXiXiXiXiXiXiXiXiXiXiXiXiXiXiXiXiX",
"iXiXiXiXiXiXiXiXiXiXiXiXiXiXiXiXiXiXiXiXiXiXiXiXiXiXiXiXiXiXiXiXiXiXiXiXiXiXiXiXiXiXiXiXiXiXiXiXiXiXiXiXiXiXiXiXiXiXiXiXiXiXiXiXiXiXiXiXiX",
"iXiXiXiXiXiXiXiXiXiXiXiXiXiXiXiXiXiXiXiXiXiXiXiXiXiXiXiXiXiXiXiXiXiXiXiXiXiXiXiXiXiXiXiXiXiXiXiXiXiXiXiXiXiXiXiXiXiXiXiXiXiXiXiXiXiXiXiXiX",
"iXiXiXiXiXiXiXiXiXiXiXiXiXiXiXiXiXiXiXiXiXiXiXiXiXiXiXiXiXiXiXiXiXiXiXiXiXiXiXiXiXiXiXiXiXiXiXiXiXiXiXiXiXiXiXiXiXiXiXiXiXiXiXiXiXiXiXiXiX",
"iXiXiXiXiXiXiXiXiXiXiXiXiXiXiXiXiXiXiXiXiXiXiXiXiXiXiXiXiXiXiXiXiXiXiXiXiXiXiXiXiXiXiXiXiXiXiXiXiXiXiXiXiXiXiXiXiXiXiXiXiXiXiXiXiXiXiXiXiX",
"iXiXiXiXiXiXiXiXiXiXiXiXiXiXiXiXiXiXiXiXiXiXiXiXiXiXiXiXiXiXiXiXiXiXiXiXiXiXiXiXiXiXiXiXiXiXiXiXiXiXiXiXiXiXiXiXiXiXiXiXiXiXiXiXiXiXiXiXiX",
"iXiXiXiXiXiXiXiXiXiXiXiXiXiXiXiXiXiXiXiXiXiXiXiXiXiXiXiXiXiXiXiXiXiXiXiXiXiXiXiXiXiXiXiXiXiXiXiXiXiXiXiXiXiXiXiXiXiXiXiXiXiXiXiXiXiXiXiXiX",
"iXiXiXiXiXiXiXiXiXiXiXiXiXiXiXiXiXiXiXiXiXiXiXiXiXiXiXiXiXiXiXiXiXiXiXiXiXiXiXiXiXiXiXiXiXiXiXiXiXiXiXiXiXiXiXiXiXiXiXiXiXiXiXiXiXiXiXiXiX",
"iXiXiXiXiXiXiXiXiXiXiXiXiXiXiXiXiXiXiXiXiXiXiXiXiXiXiXiXiXiXiXiXiXiXiXiXiXiXiXiXiXiXiXiXiXiXiXiXiXiXiXiXiXiXiXiXiXiXiXiXiXiXiXiXiXiXiXiXiX",
"iXiXiXiXiXiXiXiXiXiXiXiXiXiXiXiXiXiXiXiXiXiXiXiXiXiXiXiXiXiXiXiXiXiXiXiXiXiXiXiXiXiXiXiXiXiXiXiXiXiXiXiXiXiXiXiXiXiXiXiXiXiXiXiXiXiXiXiXiX",
"iXiXiXiXiXiXiXiXiXiXiXiXiXiXiXiXiXiXiXiXiXiXiXiXiXiXiXiXiXiXiXiXiXiXiXiXiXiXiXiXiXiXiXiXiXiXiXiXiXiXiXiXiXiXiXiXiXiXiXiXiXiXiXiXiXiXiXiXiX",
"iXiXiXiXiXiXiXiXiXiXiXiXiXiXiXiXiXiXiXiXiXiXiXiXiXiXiXiXiXiXiXiXiXiXiXiXiXiXiXiXiXiXiXiXiXiXiXiXiXiXiXiXiXiXiXiXiXiXiXiXiXiXiXiXiXiXiXiXiX",
"iXiXiXiXiXiXiXiXiXiXiXiXiXiXiXiXiXiXiXiXiXiXiXiXiXiXiXiXiXiXiXiXiXiXiXiXiXiXiXiXiXiXiXiXiXiXiXiXiXiXiXiXiXiXiXiXiXiXiXiXiXiXiXiXiXiXiXiXiX",
"iXiXiXiXiXiXiXiXiXiXiXiXiXiXiXiXiXiXiXiXiXiXiXiXiXiXiXiXiXiXiXiXiXiXiXiXiXiXiXiXiXiXiXiXiXiXiXiXiXiXiXiXiXiXiXiXiXiXiXiXiXiXiXiXiXiXiXiXiX",
"iXiXiXiXiXiXiXiXiXiXiXiXiXiXiXiXiXiXiXiXiXiXiXiXiXiXiXiXiXiXiXiXiXiXiXiXiXiXiXiXiXiXiXiXiXiXiXiXiXiXiXiXiXiXiXiXiXiXiXiXiXiXiXiXiXiXiXiXiX",
"iXiXiXiXiXiXiXiXiXiXiXiXiXiXiXiXiXiXiXiXiXiXiXiXiXiXiXiXiXiXiXiXiXiXiXiXiXiXiXiXiXiXiXiXiXiXiXiXiXiXiXiXiXiXiXiXiXiXiXiXiXiXiXiXiXiXiXiXiX",
"iXiXiXiXiXiXiXiXiXiXiXiXiXiXiXiXiXiXiXiXiXiXiXiXiXiXiXiXiXiXiXiXiXiXiXiXiXiXiXiXiXiXiXiXiXiXiXiXiXiXiXiXiXiXiXiXiXiXiXiXiXiXiXiXiXiXiXiXiX",
"iXiXiXiXiXiXiXiXiXiXiXiXiXiXiXiXiXiXiXiXiXiXiXiXiXiXiXiXiXiXiXiXiXiXiXiXiXiXiXiXiXiXiXiXiXiXiXiXiXiXiXiXiXiXiXiXiXiXiXiXiXiXiXiXiXiXiXiXiX",
"iXiXiXiXiXiXiXiXiXiXiXiXiXiXiXiXiXiXiXiXiXiXiXiXiXiXiXiXiXiXr r > > 4 r , r t D ( iXiXiXiXiXiXiXiXiXiXiXiXiXiXiXiXiXiXiXiXiXiXiXiXiXiXiXiX",
"iXiXiXiXiXiXiXiXiXiXiXiXiXiXiXiXiXiXiXiXiXiXiXiXiXiXiXiXiX& w I C &.C h l z l Q *.+ iXiXiXiXiXiXiXiXiXiXiXiXiXiXiXiXiXiXiXiXiXiXiXiXiXiXiX",
"iXiXiXiXiXiXiXiXiXiXiXiXiXiXiXiXiXiXiXiXiXiXiXiXiXiXa a d l l T 4.m.6.i j j Y c.p.v q ~ : iXiXiXiXiXiXiXiXiXiXiXiXiXiXiXiXiXiXiXiXiXiXiXiX",
"iXiXiXiXiXiXiXiXiXiXiXiXiXiXiXiXiXiXiXiXiXiXiXiXiXr p s l s l Y 4.n.3.i z j Y f.f.c S C.I.& iXiXiXiXiXiXiXiXiXiXiXiXiXiXiXiXiXiXiXiXiXiXiX",
"iXiXiXiXiXiXiXiXiXiXiXiXiXiXiXiXiXiXiXiXiXiXiXiXr G P l s l l J 5.b.1.h z z K d.x.O.Z P.OX] o iXiXiXiXiXiXiXiXiXiXiXiXiXiXiXiXiXiXiXiXiXiX",
"iXiXiXiXiXiXiXiXiXiXiXiXiXiXiXiXiXiXiXiXiXiXiX8 A l P l P P G J 8.j.7.z k Y -.f.x.4.Z.,XrX!.H + iXiXiXiXiXiXiXiXiXiXiXiXiXiXiXiXiXiXiXiXiX",
"iXiXiXiXiXiXiXiXiXiXiXiXiXiXiXiXiXiXiXiXiXiX0 a P P P P P P G G I Y l x / c.v.h.J.rXyXyXtXqX/.} @ iXiXiXiXiXiXiXiXiXiXiXiXiXiXiXiXiXiXiXiX",
"iXiXiXiXiXiXiXiXiXiXiXiXiXiXiXiXiXiXiXiXiXiXA p P P P P G G G P l l x U 7.b.h.k.U.2XwXyXyXtX=X{ K   iXiXiXiXiXiXiXiXiXiXiXiXiXiXiXiXiXiXiX",
"iXiXiXiXiXiXiXiXiXiXiXiXiXiXiXiXiXiXiXiXiXiXG l P P G G p s p p s l l s s F n v 3 1 { 7XyXyX7XF.r   iXiXiXiXiXiXiXiXiXiXiXiXiXiXiXiXiXiXiX",
"iXiXiXiXiXiXiXiXiXiXiXiXiXiXiXiXiXiXiXiXiX8 A P P G G G p u s G s l l l l i i i w - P <XyXtXeX[.; % iXiXiXiXiXiXiXiXiXiXiXiXiXiXiXiXiXiXiX",
"iXiXiXiXiXiXiXiXiXiXiXiXiXiXiXiXiXiXiXiXr A l l P P s p u T ).{.[ i p s d u [ 0X=X, U -XtXtXyX<X_./.4 iXiXiXiXiXiXiXiXiXiXiXiXiXiXiXiXiXiX",
"iXiXiXiXiXiXiXiXiXiXiXiXiXiXiXiXiXiXiXiXL P P P P s G s u _ OX6XX.y p d p i ' tX-Xt T -XyXuXyXqX+XL.~ . iXiXiXiXiXiXiXiXiXiXiXiXiXiXiXiXiX",
"iXiXiXiXiXiXiXiXiXiXiXiXiXiXiXiXiXiXiX, A l l l s G G s a _ &X3Xo.y a u i i ` 7X=Xr T -XyXyXuX@Xi.@.6 . iXiXiXiXiXiXiXiXiXiXiXiXiXiXiXiXiX",
"iXiXiXiXiXiXiXiXiXiXiXiXiXiXiXiXiXiXiX; p l l P A G G A t _  X;X| 6 p u i u ` *X.Xr ! =XtXyXeXE.z.:.A . iXiXiXiXiXiXiXiXiXiXiXiXiXiXiXiXiX",
"iXiXiXiXiXiXiXiXiXiXiXiXiXiXiXiXiXiXiX> A l P G l Y ^ *.t U (.+X0.V K p s u Y o. .y U K..X#X#XJ.z.>.u . iXiXiXiXiXiXiXiXiXiXiXiXiXiXiXiXiX",
"iXiXiXiXiXiXiXiXiXiXiXiXiXiXiXiXiXiXiX> p P l P l ^ M.h.m r C <.x.f.;.s s s s s u u u u K 4.m.v.f.>.u . iXiXiXiXiXiXiXiXiXiXiXiXiXiXiXiXiX",
"iXiXiXiXiXiXiXiXiXiXiXiXiXiXiXiXiXiXiX= A I K Q Q *.1.2.e k 1.z.f.d.;.P l l l U l s s s u ( 5.c.s.<.u . iXiXiXiXiXiXiXiXiXiXiXiXiXiXiXiXiX",
"iXiXiXiXiXiXiXiXiXiXiXiXiXiXiXiXiXiXiX& H 8.v.x.a.3.W g f P ,.f.d.p.9.x l l U l P l G s s d H 3.f.>.r . iXiXiXiXiXiXiXiXiXiXiXiXiXiXiXiXiX",
"iXiXiXiXiXiXiXiXiXiXiXiXiXiXiXiXiXiXiX% S 3.x.b.G.2.r f i *.y.s.M.Y.r.l x l l U Y P G U G s P 0.N.=.4 . iXiXiXiXiXiXiXiXiXiXiXiXiXiXiXiXiX",
"iXiXiXiXiXiXiXiXiXiXiXiXiXiXiXiXiXiXiX# S 6.s.=., 7 7 H h.v.f.M.oX5X).p l x P P P G G G G p P ~.;X&X<   iXiXiXiXiXiXiXiXiXiXiXiXiXiXiXiXiX",
"iXiXiXiXiXiXiXiXiXiXiXiXiXiXiXiXiXiXiX# S 1.t.7.0 9 7 K b.x.x.H.+XwX`.s d l l P G G G s p y s F.6XOX- . iXiXiXiXiXiXiXiXiXiXiXiXiXiXiXiXiX",
"iXiXiXiXiXiXiXiXiXiXiXiXiXiXiXiXiXiXiX# H L.0XwX.X{ 9 = 3 v b R '.7X`.r i i u p p p p p u r u S.3X).+ . iXiXiXiXiXiXiXiXiXiXiXiXiXiXiXiXiX",
"iXiXiXiXiXiXiXiXiXiXiXiXiXiXiXiXiXiXiXX Y P.yXyXrX'.r = 7 = & e ).wX).5 r w r r y i y 5 5 2 r  .3XK.: . iXiXiXiXiXiXiXiXiXiXiXiXiXiXiXiXiX",
"iXiXiXiXiXiXiXiXiXiXiXiXiXiXiXiXiXiXiX# F q.T.P./ > & ) 2X0X;X-XeXuX6X.X X&X&X&X*X&X X.X~.r 4  .,XK.& . iXiXiXiXiXiXiXiXiXiXiXiXiXiXiXiXiX",
"iXiXiXiXiXiXiXiXiXiXiXiXiXiXiXiXiXiXiXO n $.@.N 2 q q ` >XtXyXtXyXuXyXyXyXyXyXyXyXyXyXyX2XI ,  .>X].< o iXiXiXiXiXiXiXiXiXiXiXiXiXiXiXiXiX",
"iXiXiXiXiXiXiXiXiXiXiXiXiXiXiXiXiXiXiX  X b -.@.:.u.g.:.A Q.3XuX:XW.qXyXyXyXyXyXyXyX6X-X<XR ; ` ].|   iXiXiXiXiXiXiXiXiXiXiXiXiXiXiXiXiXiX",
"iXiXiXiXiXiXiXiXiXiXiXiXiXiXiXiXiXiXiXiX  $ b %.a.g.g.y.b ) {.0XXXV.%XtXyXyXyXyXyX0X1X0X7X] + J ]     iXiXiXiXiXiXiXiXiXiXiXiXiXiXiXiXiXiX",
"iXiXiXiXiXiXiXiXiXiXiXiXiXiXiXiXiXiXiXiXiX  X 5 +.<.z.y.c z Q.$XD.B.D.^.).`.[.[.).A.A.A.I.!         iXiXiXiXiXiXiXiXiXiXiXiXiXiXiXiXiXiXiX",
"iXiXiXiXiXiXiXiXiXiXiXiXiXiXiXiXiXiXiXiXiXiXiXo v e.g.y.B 7 * * = * + + + + + - - - & + X . iXiXiXiXiXiXiXiXiXiXiXiXiXiXiXiXiXiXiXiXiXiXiX",
"iXiXiXiXiXiXiXiXiXiXiXiXiXiXiXiXiXiXiXiXiXiXiX  # b 5.5.t 9 W =.=.9.C.(.S., , & $ O O O .   iXiXiXiXiXiXiXiXiXiXiXiXiXiXiXiXiXiXiXiXiXiXiX",
"iXiXiXiXiXiXiXiXiXiXiXiXiXiXiXiXiXiXiXiXiXiXiXiX  X A ^ h E c.s.y.l.R.4X|.i >           iXiXiXiXiXiXiXiXiXiXiXiXiXiXiXiXiXiXiXiXiXiXiXiXiX",
"iXiXiXiXiXiXiXiXiXiXiXiXiXiXiXiXiXiXiXiXiXiXiXiXiX  X : r W 5.d.h.j.R.4X{.+     iXiXiXiXiXiXiXiXiXiXiXiXiXiXiXiXiXiXiXiXiXiXiXiXiXiXiXiXiX",
"iXiXiXiXiXiXiXiXiXiXiXiXiXiXiXiXiXiXiXiXiXiXiXiXiXiX  X = 4 q q 8 0 1 t <   iXiXiXiXiXiXiXiXiXiXiXiXiXiXiXiXiXiXiXiXiXiXiXiXiXiXiXiXiXiXiX",
"iXiXiXiXiXiXiXiXiXiXiXiXiXiXiXiXiXiXiXiXiXiXiXiXiXiXiXo & u e e w w , , & . iXiXiXiXiXiXiXiXiXiXiXiXiXiXiXiXiXiXiXiXiXiXiXiXiXiXiXiXiXiXiX"
};
