/* XPM */
static char *result[] = {
/* columns rows colors chars-per-pixel */
"69 69 222 2 ",
"   c #010101",
".  c #0B0404",
"X  c #0D090B",
"o  c #050508",
"O  c #130C0C",
"+  c #1C0E0C",
"@  c #160704",
"#  c #16110B",
"$  c #1D120C",
"%  c #0A0A13",
"&  c #140C13",
"*  c #190D13",
"=  c #1C1413",
"-  c #1E191D",
";  c #270E0A",
":  c #221515",
">  c #241A15",
",  c #2C1B14",
"<  c #261B1A",
"1  c #2D1D1B",
"2  c #26141A",
"3  c #331B14",
"4  c #301E1F",
"5  c #3F1918",
"6  c #27140F",
"7  c #2D201E",
"8  c #2D2117",
"9  c #34231C",
"0  c #3A2319",
"q  c #151727",
"w  c #241E21",
"e  c #2A1E24",
"r  c #321E22",
"t  c #1C202A",
"y  c #242124",
"u  c #2D2324",
"i  c #2B2629",
"p  c #27262B",
"a  c #322424",
"s  c #332A26",
"d  c #3C2B23",
"f  c #332B2A",
"g  c #3A2D2C",
"h  c #382627",
"j  c #3D312D",
"k  c #262C31",
"l  c #3B2E30",
"z  c #353331",
"x  c #3D3232",
"c  c #2D3035",
"v  c #4B1E15",
"b  c #452718",
"n  c #572B16",
"m  c #49311E",
"M  c #663509",
"N  c #683914",
"B  c #763918",
"V  c #6A2C11",
"C  c #412E2A",
"Z  c #462A25",
"A  c #473121",
"S  c #41312D",
"D  c #4A352B",
"F  c #4E3523",
"G  c #5D3525",
"H  c #5A3D29",
"J  c #543726",
"K  c #443432",
"L  c #4A3834",
"P  c #543B34",
"I  c #533C3A",
"U  c #502D24",
"Y  c #613729",
"T  c #743D24",
"R  c #693F31",
"E  c #77451C",
"W  c #4E413F",
"Q  c #5C4233",
"!  c #6A4628",
"~  c #7D4422",
"^  c #78482C",
"/  c #664739",
"(  c #764934",
")  c #4C4445",
"_  c #514342",
"`  c #584747",
"'  c #5C5451",
"]  c #675149",
"[  c #685B58",
"{  c #745A55",
"}  c #694B47",
"|  c #6E605C",
" . c #70605B",
".. c #6C6263",
"X. c #756967",
"o. c #7A6E70",
"O. c #8A3609",
"+. c #974A0B",
"@. c #86481B",
"#. c #9E5414",
"$. c #904E1A",
"%. c #A94C09",
"&. c #A6510A",
"*. c #B3570B",
"=. c #BF590C",
"-. c #A64C15",
";. c #A85713",
":. c #B55B13",
">. c #BB6B13",
",. c #9D5F30",
"<. c #B05A21",
"1. c #A06E3D",
"2. c #B56032",
"3. c #C85E04",
"4. c #D65D02",
"5. c #C35A11",
"6. c #CD660A",
"7. c #D66E04",
"8. c #DC6B05",
"9. c #D2640D",
"0. c #D46D0D",
"q. c #D96E0C",
"w. c #D96508",
"e. c #D9710C",
"r. c #D97207",
"t. c #CC6410",
"y. c #C66618",
"u. c #D56E11",
"i. c #D86E11",
"p. c #CD741A",
"a. c #DA7A1A",
"s. c #D67315",
"d. c #E47607",
"f. c #E97209",
"g. c #CC742C",
"h. c #D57C2F",
"j. c #835945",
"k. c #896958",
"l. c #867369",
"z. c #887775",
"x. c #947A76",
"c. c #836C6E",
"v. c #D7831B",
"b. c #E0821E",
"n. c #CB8638",
"m. c #D98435",
"M. c #D2872C",
"N. c #F4AA33",
"B. c #92807C",
"V. c #B68C75",
"C. c #A68975",
"Z. c #CF9053",
"A. c #D69753",
"S. c #E48D4F",
"D. c #DAA05E",
"F. c #CF9371",
"G. c #C2916B",
"H. c #D5A26A",
"J. c #DEB07B",
"K. c #E2B869",
"L. c #E5B472",
"P. c #8E7E84",
"I. c #D95586",
"U. c #9B8E8B",
"Y. c #938986",
"T. c #968B8D",
"R. c #A3938B",
"E. c #AA938D",
"W. c #B49688",
"Q. c #B6978A",
"!. c #A39493",
"~. c #AD978D",
"^. c #B4A29C",
"/. c #A79FA0",
"(. c #B19CA4",
"). c #ADA5A5",
"_. c #B2A5A5",
"`. c #B4B0AE",
"'. c #BBB1B0",
"]. c #CB9C84",
"[. c #DFBD92",
"{. c #CCA192",
"}. c #E4B68F",
"|. c #E29CB5",
" X c #C2B1A7",
".X c #DEBFA6",
"XX c #C1B9B0",
"oX c #E5A8B9",
"OX c #E7C796",
"+X c #D5C8BE",
"@X c #D0C3B4",
"#X c #E4CBB6",
"$X c #C9C6C6",
"%X c #D5CDC5",
"&X c #D4CCCB",
"*X c #D8CBCB",
"=X c #DDD3CB",
"-X c #DAD7D8",
";X c #EADACA",
":X c #E6DCD4",
">X c #F3E2CD",
",X c #E8E3DA",
"<X c #F2E5D5",
"1X c #F3F3DD",
"2X c #E4DEE0",
"3X c #EDEAE3",
"4X c #ECEBEA",
"5X c #E9E4E4",
"6X c #F4EBE4",
"7X c #F3EDEB",
"8X c #EFF6EE",
"9X c #F3F1ED",
"0X c #FBF9ED",
"qX c #EBF8F7",
"wX c #F5F4F4",
"eX c #F9F7F4",
"rX c #F5F9F5",
"tX c #FAFAF4",
"yX c #F5FBFA",
"uX c #FBFBFB",
"iX c #F8F4F9",
"pX c None",
/* pixels */
"pXpXpXpXpXpXpXpXpXpXpXpXpXpXpXpXpXpXpXpXpXpXpXpXpXpXpXpXpXpXpXpXpXpXpXpXpXpXpXpXpXpXpXpXpXpXpXpXpXpXpXpXpXpXpXpXpXpXpXpXpXpXpXpXpXpXpXpXpX",
"pXpXpXpXpXpXpXpXpXpXpXpXpXpXpXpXpXpXpXpXpXpXpXpXpXpXpXpXpXpXpXpXpXpXpXpXpXpXpXpXpXpXpXpXpXpXpXpXpXpXpXpXpXpXpXpXpXpXpXpXpXpXpXpXpXpXpXpXpX",
"pXpXpXpXpXpXpXpXpXpXpXpXpXpXpXpXpXpXpXpXpXpXpXpXpXpXpXpXpXpXpXpXpXpXpXpXpXpXpXpXpXpXpXpXpXpXpXpXpXpXpXpXpXpXpXpXpXpXpXpXpXpXpXpXpXpXpXpXpX",
"pXpXpXpXpXpXpXpXpXpXpXpXpXpXpXpXpXpXpXpXpXpXpXpXpXpXpXpXpXpXpXpXpXpXpXpXpXpXpXpXpXpXpXpXpXpXpXpXpXpXpXpXpXpXpXpXpXpXpXpXpXpXpXpXpXpXpXpXpX",
"pXpXpXpXpXpXpXpXpXpXpXpXpXpXpXpXpXpXpXpXpXpXpXpXpXpXpXpXpXpXpXpXpXpXpXpXpXpXpXpXpXpXpXpXpXpXpXpXpXpXpXpXpXpXpXpXpXpXpXpXpXpXpXpXpXpXpXpXpX",
"pXpXpXpXpXpXpXpXpXpXpXpXpXpXpXpXpXpXpXpXpXpXpXpXpXpXpXpXpXpXpXpXpXpXpXpXpXpXpXpXpXpXpXpXpXpXpXpXpXpXpXpXpXpXpXpXpXpXpXpXpXpXpXpXpXpXpXpXpX",
"pXpXpXpXpXpXpXpXpXpXpXpXpXpXpXpXpXpXpXpXpXpXpXpXpXpXpXpXpXpXpXpXpXpXpXpXpXpXpXpXpXpXpXpXpXpXpXpXpXpXpXpXpXpXpXpXpXpXpXpXpXpXpXpXpXpXpXpXpX",
"pXpXpXpXpXpXpXpXpXpXpXpXpXpXpXpXpXpXpXpXpXpXpXpXpXpXpXpXpXpXpXpXpXpXpXpXpXpXpXpXpXpXpXpXpXpXpXpXpXpXpXpXpXpXpXpXpXpXpXpXpXpXpXpXpXpXpXpXpX",
"pXpXpXpXpXpXpXpXpXpXpXpXpXpXpXpXpXpXpXpXpXpXpXpXpXpXpXpXpXpXpXpXpXpXpXpXpXpXpXpXpXpXpXpXpXpXpXpXpXpXpXpXpXpXpXpXpXpXpXpXpXpXpXpXpXpXpXpXpX",
"pXpXpXpXpXpXpXpXpXpXpXpXpXpXpXpXpXpXpXpXpXpXpXpXpXpXpXpXpXpXpXpXpXpXpXpXpXpXpXpXpXpXpXpXpXpXpXpXpXpXpXpXpXpXpXpXpXpXpXpXpXpXpXpXpXpXpXpXpX",
"pXpXpXpXpXpXpXpXpXpXpXpXpXpXpXpXpXpXpXpXpXpXpXpXpXpXpXpXpXpXpXpXpXpXpXpXpXpXpXpXpXpXpXpXpXpXpXpXpXpXpXpXpXpXpXpXpXpXpXpXpXpXpXpXpXpXpXpXpX",
"pXpXpXpXpXpXpXpXpXpXpXpXpXpXpXpXpXpXpXpXpXpXpXpXpXpXpXpXpXpXpXpXpXpXpXpXpXpXpXpXpXpXpXpXpXpXpXpXpXpXpXpXpXpXpXpXpXpXpXpXpXpXpXpXpXpXpXpXpX",
"pXpXpXpXpXpXpXpXpXpXpXpXpXpXpXpXpXpXpXpXpXpXpXpXpXpXpXpXpXpXpXpXpXpXpXpXpXpXpXpXpXpXpXpXpXpXpXpXpXpXpXpXpXpXpXpXpXpXpXpXpXpXpXpXpXpXpXpXpX",
"pXpXpXpXpXpXpXpXpXpXpXpXpXpXpXpXpXpXpXpXpXpXpXpXpXpXpXpXpXpXpXpXpXpXpXpXpXpXpXpXpXpXpXpXpXpXpXpXpXpXpXpXpXpXpXpXpXpXpXpXpXpXpXpXpXpXpXpXpX",
"pXpXpXpXpXpXpXpXpXpXpXpXpXpXpXpXpXpXpXpXpXpXpXpXpXpXpXpXpXpXpXpXpXpXpXpXpXpXpXpXpXpXpXpXpXpXpXpXpXpXpXpXpXpXpXpXpXpXpXpXpXpXpXpXpXpXpXpXpX",
"pXpXpXpXpXpXpXpXpXpXpXpXpXpXpXpXpXpXpXpXpXpXpXpXpXpXpXpXpXpXpXpXpXpXpXpXpXpXpXpXpXpXpXpXpXpXpXpXpXpXpXpXpXpXpXpXpXpXpXpXpXpXpXpXpXpXpXpXpX",
"pXpXpXpXpXpXpXpXpXpXpXpXpXpXpXpXpXpXpXpXpXpXpXpXpXpXpXpXpXpXpXpXpXpXpXpXpXpXpXpXpXpXpXpXpXpXpXpXpXpXpXpXpXpXpXpXpXpXpXpXpXpXpXpXpXpXpXpXpX",
"pXpXpXpXpXpXpXpXpXpXpXpXpXpXpXpXpXpXpXpXpXpXpXpXpXpXpXpXpXpXpXpXpXpXpXpXpXpXpXpXpXpXpXpXpXpXpXpXpXpXpXpXpXpXpXpXpXpXpXpXpXpXpXpXpXpXpXpXpX",
"pXpXpXpXpXpXpXpXpXpXpXpXpXpXpXpXpXpXpXpXpXpXpXpXpXpXpXpXpXpXpXpXpXpXpXpXpXpXpXpXpXpXpXpXpXpXpXpXpXpXpXpXpXpXpXpXpXpXpXpXpXpXpXpXpXpXpXpXpX",
"pXpXpXpXpXpXpXpXpXpXpXpXpXpXpXpXpXpXpXpXpXpXpXpXpXpXpXpXpXpXpXpXpXpXpXpXpXpXpXpXpXpXpXpXpXpXpXpXpXpXpXpXpXpXpXpXpXpXpXpXpXpXpXpXpXpXpXpXpX",
"pXpXpXpXpXpXpXpXpXpXpXpXpXpXpXpXpXpXpXpXpXpXpXpXpXpXpXpXpXpXpXpXpXpXpXpXpXpXpXpXpXpXpXpXpXpXpXpXpXpXpXpXpXpXpXpXpXpXpXpXpXpXpXpXpXpXpXpXpX",
"pXpXpXpXpXpXpXpXpXpXpXpXpXpXpXpXpXpXpXpXpXpXpXpXpXpXpXpXpXpXpXpXpXpXpXpXpXpXpXpXpXpXpXpXpXpXpXpXpXpXpXpXpXpXpXpXpXpXpXpXpXpXpXpXpXpXpXpXpX",
"pXpXpXpXpXpXpXpXpXpXpXpXpXpXpXpXpXpXpXpXpXpXpXpXpXpXpXpXpXpXpXpXpXpXpXpXpXpXpXpXpXpXpXpXpXpXpXpXpXpXpXpXpXpXpXpXpXpXpXpXpXpXpXpXpXpXpXpXpX",
"pXpXpXpXpXpXpXpXpXpXpXpXpXpXpXpXpXpXpXpXpXpXpXpXpXpXpXpXpXpXpXpXpXpXpXpXpXpXpXpXpXpXpXpXpXpXpXpXpXpXpXpXpXpXpXpXpXpXpXpXpXpXpXpXpXpXpXpXpX",
"pXpXpXpXpXpXpXpXpXpXpXpXpXpXpXpXpXpXpXpXpXpXpXpXpXpXpXpXpXpXpXpXpXpXpXpXpXpXpXpXpXpXpXpXpXpXpXpXpXpXpXpXpXpXpXpXpXpXpXpXpXpXpXpXpXpXpXpXpX",
"pXpXpXpXpXpXpXpXpXpXpXpXpXpXpXpXpXpXpXpXpXpXpXpXpXpXpXpXpXpXpXpXpXpXpXpXpXpXpXpXpXpXpXpXpXpXpXpXpXpXpXpXpXpXpXpXpXpXpXpXpXpXpXpXpXpXpXpXpX",
"pXpXpXpXpXpXpXpXpXpXpXpXpXpXpXpXpXpXpXpXpXpXpXpXpXpXpXpXpXpXpXpXpXpXpXpXpXpXpXpXpXpXpXpXpXpXpXpXpXpXpXpXpXpXpXpXpXpXpXpXpXpXpXpXpXpXpXpXpX",
"pXpXpXpXpXpXpXpXpXpXpXpXpXpXpXpXpXpXpXpXpXpXpXpXpXpXpXpXpXpXpXpXpXpXpXpXpXpXpXpXpXpXpXpXpXpXpXpXpXpXpXpXpXpXpXpXpXpXpXpXpXpXpXpXpXpXpXpXpX",
"pXpXpXpXpXpXpXpXpXpXpXpXpXpXpXpXpXpXpXpXpXpXpXpXpXpXpXpXpXpXpXpXpXpXpXpXpXpXpXpXpXpXpXpXpXpXpXpXpXpXpXpXpXpXpXpXpXpXpXpXpXpXpXpXpXpXpXpXpX",
"pXpXpXpXpXpXpXpXpXpXpXpXpXpXpXpXpXpXpXpXpXpXpXpXpXpXpXpXpXpXpXpXpXpXpXpXpXpXpXpXpXpXpXpXpXpXpXpXpXpXpXpXpXpXpXpXpXpXpXpXpXpXpXpXpXpXpXpXpX",
"pXpXpXpXpXpXpXpXpXpXpXpXpXpXpXpXpXpXpXpXpXpXpXpXpXpXpXpXpXpXpXpXpXpXpXpXpXpXpXpXpXpXpXpXpXpXpXpXpXpXpXpXpXpXpXpXpXpXpXpXpXpXpXpXpXpXpXpXpX",
"pXpXpXpXpXpXpXpXpXpXpXpXpXpXpXpXpXpXpXpXpXpXpXpXpXpXpXpXpXpXpXpXpXpXpXpXpXpXpXpXpXpXpXpXpXpXpXpXpXpXpXpXpXpXpXpXpXpXpXpXpXpXpXpXpXpXpXpXpX",
"pXpXpXpXpXpXpXpXpXpXpXpXpXpXpXpXpXpXpXpXpXpXpXpXpXpXpXpXpXpXpXpXpXpXpXpXpXpXpXpXpXpXpXpXpXpXpXpXpXpXpXpXpXpXpXpXpXpXpXpXpXpXpXpXpXpXpXpXpX",
"pXpXpXpXpXpXpXpXpXpXpXpXpXpXpXpXpXpXpXpXpXpXpXpXpXpXpXpXpXpXpXpXpXpXpXpXpXpXpXpXpXpXpXpXpXpXpXpXpXpXpXpXpXpXpXpXpXpXpXpXpXpXpXpXpXpXpXpXpX",
"pXpXpXpXpXpXpXpXpXpXpXpXpXpXpXpXpXpXpXpXpXpXpXpXpXpXpXpXpXpXpXpXpXpXpXpXpXpXpXpXpXpXpXpXpXpXpXpXpXpXpXpXpXpXpXpXpXpXpXpXpXpXpXpXpXpXpXpXpX",
"pXpXpXpXpXpXpXpXpXpXpXpXpXpXpXe 0 0 d pXpXpXpXpXpXpXpXpXpXpXpXpXpXpXpXpXpXpXpXpXpXpXpXpXpXpXpXpXpXpXpXpXpXpXpXpXpXpXpXpXpXpXpXpXpXpXpXpXpX",
"pXpXpXpXpXpXpXpXpXpXpXpXpXpXpX= F E.Q.] pXpXpXpXpXpXpXpXpXpXpXpXpXpXpXpXpXpXpXpXpXpXpXpXpXpXpXpXpXpXpXpXpXpXpXpXpXpXpXpXpXpXpXpXpXpXpXpXpX",
"pXpXpXpXpXpXpXpXpXpXpXpXpXpXpXO b %XeXY.s pXpXpXpXpXpXpXpXpXpXpXpXpXpXpXpXpXpXpXpXpXpXpXpXpXpXpXpXpXpXpXpXpXpXpXpXpXpXpXpXpXpXpXpXpXpXpXpX",
"pXpXpXpXpXpXpXpXpXpXpXpXpXpXpXX A %XtXl.s X pXpXpXpXpXpXpXpXpXpXpXpXpXpXpXpXpXpXpXpXpXpXpXpXpXpXpXpXpXpXpXpXpXpXpXpXpXpXpXpXpXpXpXpXpXpXpX",
"pXpXpXpXpXpXpXpXpXpXpXpXpXpXpX= U +X0Xz.j O pXpXpXpXpXpXpXpXpXpXpXpXpXpXpXpXpXpXpXpXpXpXpXpXpXpXu s h g P C pXpXpXpXpXpXpXpXpXpXpXpXpXpXpX",
"pXpXpXpXpXpXpXpXpXpXpXpXpXpXpX- G .X<Xk.S O pXpXpXpXpXpXpXpXpXpXpXpXpXpXpXpXpXpXpXpXpXpXpXpXpXS / ] ] L C 1 pXpXpXpXpXpXpXpXpXpXpXpXpXpXpX",
"pXpXpXpXpXpXpXpXpXpXpXpXpXpXpXp J n.N.$.A # pXpXpXpXpXpXpXpXpXpXpXpXpXf s u y y w 7 = pXpXpXL ~.>XtXuX@X| > pXpXpXpXpXpXpXpXpXpXpXpXpXpXpX",
"pXpXpXpXpXpXpXpXpXpXpXpXpXpXpXi J >.d.V m # pXpXpXpXpXpXpXpXpXpXpXpXpXd `  .{ ] / Y b O pXg {  X,X7X7XXX' O pXpXpXpXpXpXpXpXpXpXpXpXpXpXpX",
"pXpXpXpXpXpXpXpXpXpXpXpXpXpXpX- b U G Z U $ pXpXpXpXpXpXpXpXpXpXpXpXpXZ R.:X6X6XOX1.B 3 % = > y g W W a pXpXpXpXpXpXpXpXpXpXpXpXpXpXpXpXpX",
"pXpXpXpXpXpXpXpXpXpXpXpXpXpXpX% 9 f f 9 8 # pXpXpXpXpXpXpXpXpXpXpXpXpX, _.9XrXeX<Xn.+.b < f c k k i 7 = pXpXpXpXpXpXpXpXpXpXpXpXpXpXpXpXpX",
"pXpXpXpXpXpXpXpXpXpXpXpXpXpXpX% D >.7.%.-.N $ pXpXpXpX< < < < < < = O pXK l.C.G.g.t.9.t.5.w.*.J c c z f 7 pXpXpXpXpXpXpXpXpXpXpXpXpXpXpXpX",
"pXpXpXpXpXpXpXpXpXpXpXpXpXpXpX% Q p.d.e.>.%.N 6 pXpXh f l f j f j g < pXo & n %.3.9.0.i.i.q.8.$.K g z j S 9 pXpXpXpXpXpXpXpXpXpXpXpXpXpXpX",
"pXpXpXpXpXpXpXpXpXpXpXpXpXpXpXo ! 2.H.[.Z.p.&.n & w l x x x x j j j s - - q @.0.u.u.0.q.q.e.e.q.;.Q z j x S 7 pXpXpXpXpXpXpXpXpXpXpXpXpXpX",
"pXpXpXpXpXpXpXpXpXpXpXpXpXpXpXo j.V.;XeXeXJ.M.:.b g K l x x x j S S g i w t E t.0.u.0.s.0.7.7.8.7.#.P z x x f < pXpXpXpXpXpXpXpXpXpXpXpXpX",
"pXpXpXpXpXpXpXpXpXpXpXpXpXpXpXpXO I V.;X0X0XL.v.;.J C x x K x K S C g i C ~ :.0.u.0.0.u.u.&.+.6.d.h.].[ x f j g 9 # pXpXpXpXpXpXpXpXpXpXpX",
"pXpXpXpXpXpXpXpXpXpXpXpXpXpXpXpXpX. Z Q.>X0X9XK.v.#.H K K x x K S S g p ~ =.3.7.0.u.0.u.0.M , +.e.}.9X).` f s s h P ( H pXpXpXpXpXpXpXpXpX",
"pXpXpXpXpXpXpXpXpXpXpXpXpXpXpXpXpXpX. S Q.<XeX1XK.a.-.T ^ ! L z / E A t ~ *.g.H.M.u.0.e.8.M 9 ,.J.,XyX!.L S z.z.l = : = pXpXpXpXpXpXpXpXpX",
"pXpXpXpXpXpXpXpXpXpXpXpXpXpXpXpXpXpXpXo a ~.,X0X8XH.a.s.d.s.! z :.9.E u T *.F.2X#Xm.r.8.w.V 3 !.7XrXeXU.K | %X-X[ $ O pXpXpXpXpXpXpXpXpXpX",
"pXpXpXpXpXpXpXpXpXpXpXpXpXpXpXpXpXpXpXo 9 0 X.;XrX8XL.a.e.8.@.J y.9.+.3 n %.].7X5XA.p.p.p.B a /.wXrX8XR.D T.8X,X..: $ pXpXpXpXpXpXpXpXpXpX",
"pXpXpXpXpXpXpXpXpXpXpXpXpXpXpXpXpXpXpX= H , + ^.9XyXyXOXb.7.w.4.3.4.S. X(.!.-XtXuXiXiXiXwXiXwXiXrXoXI.|.3XtXuX3XX.3 Z 0 pXpXpXpXpXpXpXpXpX",
"pXpXpXpXpXpXpXpXpXpXpXpXpXpXpXpXpXpXpXpXD 0 + R.3XyXtX>Xm.r.r.i.i.y.].*X*X*X5XiXuXuXuXuXuXiXuXuXyXoXI.|.6XtXuX=X[ , 1 1 pXpXpXpXpXpXpXpXpX",
"pXpXpXpXpXpXpXpXpXpXpXpXpXpXpXpXpXpXpXpX  : + R.4X4X..a Z { %XqXwXyXyXuX-X!.P.(.2XyXuXuXuXuXuXuXuXuXuXiXeX:XE._ O pXpXpXpXpXpXpXpXpXpXpXpX",
"pXpXpXpXpXpXpXpXpXpXpXpXpXpXpXpXpXpXpXpXpX< O Y.4X`.W s a [ &XrXyXiXuXuX2X_.!.o.(.5XiXuXiXiXuXiXuXuXuXiX-Xx.d X pXpXpXpXpXpXpXpXpXpXpXpXpX",
"pXpXpXpXpXpXpXpXpXpXpXpXpXpXpXpXpXpXpXpXpX= > ` Y.K d u i w l z.&X7XwXiXiXuXuXuXyXwX$XY...X.o.c.z.z.c.} } P = pXpXpXpXpXpXpXpXpXpXpXpXpXpX",
"pXpXpXpXpXpXpXpXpXpXpXpXpXpXpXpXpXpXpXpXpXX Z 9 1 0 d h a r 1 a ` '.+X=X7XuXuXuXqX-X' ; & & % & + + @ @ @ . pXpXpXpXpXpXpXpXpXpXpXpXpXpXpX",
"pXpXpXpXpXpXpXpXpXpXpXpXpXpXpXpXpXpXpXpXpX  o 9 1 | $X,X2X$XT.` g r a 3 S X.%XtX4X' B t.d.O.v O         pXpXpXpXpXpXpXpXpXpXpXpXpXpXpXpXpX",
"pXpXpXpXpXpXpXpXpXpXpXpXpXpXpXpXpXpXpXpXpXpX  X 1 Q.7XuXuXuXuXyXx.1 9 F b , z.:X&X) T 9.f.B e O   pXpXpXpXpXpXpXpXpXpXpXpXpXpXpXpXpXpXpXpX",
"pXpXpXpXpXpXpXpXpXpXpXpXpXpXpXpXpXpXpXpXpXpXpX    [ '.%X$X'.E.{ Y U $ X = d I ).X.e * V %.V , O pXpXpXpXpXpXpXpXpXpXpXpXpXpXpXpXpXpXpXpXpX",
"pXpXpXpXpXpXpXpXpXpXpXpXpXpXpXpXpXpXpXpXpXpXpXpXpX. O + ; ; ; ; v G > o = F 9 : 3 ( ( b , v G 3 pXpXpXpXpXpXpXpXpXpXpXpXpXpXpXpXpXpXpXpXpX",
"pXpXpXpXpXpXpXpXpXpXpXpXpXpXpXpXpXpXpXpXpXpXpXpXpX  . . . O O O O O o     X O O X X O O O # O . pXpXpXpXpXpXpXpXpXpXpXpXpXpXpXpXpXpXpXpXpX",
"pXpXpXpXpXpXpXpXpXpXpXpXpXpXpXpXpXpXpXpXpXpXpXpXpXpXpX              pXpXpX                    pXpXpXpXpXpXpXpXpXpXpXpXpXpXpXpXpXpXpXpXpXpX",
"pXpXpXpXpXpXpXpXpXpXpXpXpXpXpXpXpXpXpXpXpXpXpXpXpXpXpXpXpXpXpXpXpXpXpXpXpXpXpXpXpXpXpXpXpXpXpXpXpXpXpXpXpXpXpXpXpXpXpXpXpXpXpXpXpXpXpXpXpX",
"pXpXpXpXpXpXpXpXpXpXpXpXpXpXpXpXpXpXpXpXpXpXpXpXpXpXpXpXpXpXpXpXpXpXpXpXpXpXpXpXpXpXpXpXpXpXpXpXpXpXpXpXpXpXpXpXpXpXpXpXpXpXpXpXpXpXpXpXpX",
"pXpXpXpXpXpXpXpXpXpXpXpXpXpXpXpXpXpXpXpXpXpXpXpXpXpXpXpXpXpXpXpXpXpXpXpXpXpXpXpXpXpXpXpXpXpXpXpXpXpXpXpXpXpXpXpXpXpXpXpXpXpXpXpXpXpXpXpXpX"
};
