/* XPM */
static char *walkup41750930680[] = {
/* columns rows colors chars-per-pixel */
"64 64 210 2 ",
"   c #030201",
".  c #0A0904",
"X  c #180904",
"o  c #130C0D",
"O  c #1A0D0B",
"+  c #0C1908",
"@  c #18170A",
"#  c #0B0816",
"$  c #1A0E10",
"%  c #1E1613",
"&  c #28130D",
"*  c #261713",
"=  c #2B1A15",
"-  c #2B1C1E",
";  c #3A1E15",
":  c #331E18",
">  c #0F290F",
",  c #142707",
"<  c #143207",
"1  c #1A3A08",
"2  c #27260C",
"3  c #2A360E",
"4  c #233C0B",
"5  c #262715",
"6  c #2C2B1D",
"7  c #34241D",
"8  c #3E241C",
"9  c #33291A",
"0  c #3D2A1D",
"q  c #283919",
"w  c #37321B",
"e  c #36351B",
"r  c #333C1D",
"t  c #0F0D21",
"y  c #251A22",
"u  c #371A23",
"i  c #2D2423",
"p  c #26252A",
"a  c #332523",
"s  c #392523",
"d  c #362925",
"f  c #3C2925",
"g  c #30272A",
"h  c #332A2C",
"j  c #3C2D2A",
"k  c #2F3321",
"l  c #3A3F22",
"z  c #3E302D",
"x  c #292A32",
"c  c #362E32",
"v  c #3A3338",
"b  c #57280A",
"n  c #4B3A0D",
"m  c #462717",
"M  c #462B1C",
"N  c #4C2E1E",
"B  c #532A14",
"V  c #582E16",
"C  c #593319",
"Z  c #60300D",
"A  c #6B310C",
"S  c #6C3510",
"D  c #633719",
"F  c #422723",
"G  c #432C24",
"H  c #40312D",
"J  c #493628",
"K  c #553423",
"L  c #5B3421",
"P  c #5E3823",
"I  c #533929",
"U  c #5A3A2A",
"Y  c #4A3B36",
"T  c #543E34",
"R  c #623926",
"E  c #2A4C0D",
"W  c #2D560D",
"Q  c #254512",
"!  c #374A17",
"~  c #345712",
"^  c #315810",
"/  c #37700F",
"(  c #386618",
")  c #2F7010",
"_  c #3B7215",
"`  c #337A12",
"'  c #2C742A",
"]  c #31752B",
"[  c #494A1F",
"{  c #45561C",
"}  c #496D18",
"|  c #516E1A",
" . c #434826",
".. c #50542E",
"X. c #51423D",
"o. c #59433D",
"O. c #6C4321",
"+. c #784A29",
"@. c #7F5231",
"#. c #75713A",
"$. c #3A3744",
"%. c #4F4444",
"&. c #594744",
"*. c #564943",
"=. c #5D524F",
"-. c #644B42",
";. c #62534C",
":. c #795847",
">. c #695956",
",. c #6D635A",
"<. c #7A6659",
"1. c #726763",
"2. c #796A61",
"3. c #756A6B",
"4. c #7E7272",
"5. c #9B4C0C",
"6. c #834414",
"7. c #944C15",
"8. c #9C5315",
"9. c #93501D",
"0. c #A94F0B",
"q. c #AC5105",
"w. c #A5540A",
"e. c #B55203",
"r. c #BC5A05",
"t. c #B2540B",
"y. c #A65112",
"u. c #B8610D",
"i. c #AA6012",
"p. c #B96B34",
"a. c #C35903",
"s. c #C95D04",
"d. c #C56405",
"f. c #C96507",
"g. c #CC640A",
"h. c #D56402",
"j. c #D46D06",
"k. c #DB6C05",
"l. c #D46D08",
"z. c #D67005",
"x. c #D97105",
"c. c #CA7213",
"v. c #E97805",
"b. c #D37828",
"n. c #CA7834",
"m. c #83554A",
"M. c #966A4B",
"N. c #81756E",
"B. c #847A7B",
"V. c #C07E44",
"C. c #368112",
"Z. c #3C8C15",
"A. c #3A9311",
"S. c #3D9815",
"D. c #3F9319",
"F. c #328530",
"G. c #448219",
"H. c #55861E",
"J. c #409A16",
"K. c #54961B",
"L. c #43A117",
"P. c #44A318",
"I. c #54A513",
"U. c #58AC14",
"Y. c #588C21",
"T. c #62AE20",
"R. c #72BB22",
"E. c #70C725",
"W. c #CE863D",
"Q. c #D58536",
"!. c #94FF30",
"~. c #BC8251",
"^. c #96867C",
"/. c #D3894B",
"(. c #D59F6E",
"). c #988A86",
"_. c #A3938B",
"`. c #AA9C9B",
"'. c #ABA09A",
"]. c #B5ABAB",
"[. c #BFB3AA",
"{. c #C8AF94",
"}. c #C4BAB6",
"|. c #CABAB2",
" X c #EBC49F",
".X c #D6C1AD",
"XX c #C9C2BF",
"oX c #D7CABE",
"OX c #E9CEB1",
"+X c #C6BFC0",
"@X c #CDC6C3",
"#X c #D2C9C3",
"$X c #D4CBC5",
"%X c #DED6CE",
"&X c #D5CFD0",
"*X c #DCD5D3",
"=X c #D9D4D4",
"-X c #E7D8CC",
";X c #E3DBD5",
":X c #ECDFD6",
">X c #E2DDDB",
",X c #E5DFE0",
"<X c #EEEAE4",
"1X c #EFECEB",
"2X c #F2E8E0",
"3X c #F1EDEC",
"4X c #F4F3F1",
"5X c #F9F6F5",
"6X c #FAF9F6",
"7X c #FAF9F9",
/* pixels */
"E.F.P.E.P.P.U.!.U.P.E.F.E.P.F.P.E.F.P.E.P.P.U.E.U.P.E.F.E.P.F.P.E.F.P.E.P.P.U.!.U.P.E.F.E.P.F.P.E.F.P.E.P.P.U.E.U.P.E.F.E.P.F.P.",
"E.P.P.P.A.P.!.P.P.P.P.E.P.P.P.P.E.P.F.P.P.P.P.E.P.P.P.E.F.P.P.F.E.P.P.P.A.P.!.P.P.P.P.E.P.P.P.P.E.P.F.P.P.P.P.E.P.P.P.E.F.P.P.F.",
"P.P.E.U.P.A.E.P.P.F.S.E.P.P.S.F.P.P.F.P.!.P.F.P.P.P.P.E.P.P.P.F.P.P.E.U.P.A.E.P.P.F.S.E.P.P.S.F.P.P.F.P.!.L.F.P.P.P.P.E.P.P.P.F.",
"F.P.P.E.S.P.P.P.E.U.F.P.P.E.!.P.F.P.P.!.P.P.P.U.P.E.U.P.U.P.E.P.F.P.P.E.S.P.P.P.E.U.F.P.P.E.!.P.F.P.L.!.P.P.P.U.P.E.U.P.U.P.E.P.",
"P.P.A.E.A.E.P.A.P.E.F.P.A.P.F.!.P.F.P.E.P.E.P.F.P.P.E.P.P.P.U.E.P.P.A.E.A.E.P.A.P.E.F.P.A.P.F.!.P.F.P.E.P.E.P.F.P.P.E.P.P.P.U.E.",
"P.E.U.P.S.F.P.P.P.E.P.P.P.P.P.E.P.F.P.P.F.U.F.U.P.P.E.F.P.P.P.E.P.E.U.P.S.F.P.P.P.E.P.P.P.P.L.E.P.F.P.P.F.U.F.U.P.P.E.F.P.P.P.E.",
"P.P.E.P.F.P.U.!.P.P.P.P.E.P.E.F.P.E.U.F.P.P.P.P.F.P.P.P.F.P.E.F.P.P.E.P.F.P.U.!.P.P.P.P.E.P.E.F.P.E.U.F.P.P.P.P.F.P.P.P.F.P.E.F.",
"F.A.E.A.F.P.!.P.P.P.E.P.P.E.P.E.F.P.E.F.U.!.P.F.P.P.U.P.F.P.P.E.F.A.E.A.F.P.!.P.P.P.E.P.P.E.P.E.F.P.E.F.U.!.P.F.P.P.U.P.F.P.P.E.",
"P.A.A.A.A.P.E.P.F.S.P.E.P.F.P.E.L.F.E.P.!.P.P.F.P.F.P.P.P.U.P.E.P.A.A.A.A.P.E.P.F.D.P.E.P.F.P.E.P.F.E.P.!.P.P.F.P.F.P.P.P.U.P.E.",
"S.F.S.E.U.P.P.P.E.F.P.P.F.S.P.P.J.F.L.P.E.F.P.P.P.P.F.!.U.P.P.P.S.F.S.E.U.P.P.P.E.F.P.P.F.S.P.P.J.F.P.P.E.F.P.P.P.P.F.!.U.P.P.P.",
"E.P.F.P.U.E.P.A.S.F.P.!.U.E.A.P.E.U.P.F.P.P.F.E.U.P.F.P.!.P.F.P.E.P.F.P.U.E.P.A.S.F.P.!.U.E.A.P.E.U.P.F.P.P.F.E.U.P.F.P.!.P.F.P.",
"P.P.F.P.E.P.P.P.E.U.P.P.!.P.P.A.U.E.F.P.U.P.F.P.E.P.U.P.E.F.P.A.P.P.F.P.E.P.P.P.E.U.P.P.!.P.P.A.U.E.F.P.U.P.F.P.E.P.U.P.E.F.P.A.",
"P.!.P.P.E.P.F.S.P.E.P.A.E.A.P.P.P.P.F.P.P.P.L.q w k 3 P.P.F.P.P.P.!.L.L.E.+ k w ..E.P.A.E.A.P.P.L.P.F.P.P.P.P.P.E.P.P.P.L.F.P.P.",
"P.P.!.S.F.U.E.F.P.E.P.A.A.P.S.F.P.E.U.P.E.U.E.5 7 <.,.P.U.P.P.F.P.P.!.S.F.*.<.....E.P.A.A.P.S.F.P.E.U.P.E.U.E.P.P.P.F.P.U.P.P.F.",
"F.S.E.F.P.E.A.F.A.P.F.S.P.E.F.P.F.P.E.P.P.E.U.@ J %X$X,., I.P.P.F.S.E.+ %.oX;X2. .P.F.S.P.E.F.P.F.P.E.P.P.E.U.P.U.P.P.F.P.U.P.P.",
"P.F.P.F.P.E.P.A.A.E.P.F.U.P.F.!.P.F.E.F.P.E.P.@ Y <X3X'.Y ! ' T.Z.' J.X.^.7X;XN.e E.P.F.U.P.F.!.P.F.E.F.P.E.P.A.E.P.P.F.U.P.F.E.",
"E.F.P.E.P.P.U.E.U.P.E.F.E.P.F.P.!.F.P.E.P.P.U.2 T 1X4X&X).%.o o . o z ^.%X7X%X2.r P.E.F.E.P.F.P.!.F.P.E.P.P.U.!.U.P.E.F.E.P.F.P.",
"E.P.F.P.P.P.P.E.P.P.P.E.F.P.P.F.E.P.P.P.A.P.!.2 Y XX#X[.).*.i p i M @.(.OXOX.X<.r P.P.E.F.P.P.F.E.L.P.P.A.P.!.L.P.P.P.E.P.P.P.P.",
"P.P.F.P.E.P.F.P.P.P.P.E.P.P.P.F.P.P.E.U.P.A.E.5 f >.1.;.X.z g z I 7.f.b.Q.Q.V.+.l L.P.E.P.P.P.F.P.P.E.U.P.A.E.P.P.F.S.E.P.P.S.F.",
"F.P.P.E.P.P.P.U.P.!.U.P.U.P.E.P.F.P.P.E.D.P._ 6 j j z j z h z I 9.h.k.l.z.x.d.7.P R.U.P.U.P.E.P.F.P.P.E.S.P.P.P.E.U.F.P.P.E.F.P.",
"P.F.P.E.P.E.P.F.P.P.!.P.P.P.U.E.P.P.S.Y.~ | 6 d z z z j j z I 9.g.l.l.l.j.j.j.r.7.n H.( G.P.U.E.P.P.A.E.A.E.P.A.P.E.F.P.A.P.F.E.",
"P.F.P.P.F.U.F.U.P.P.E.F.P.P.P.E.P.E.U.~ = s j H H H z H H j U 8.g.l.l.l.j.z.j.j.u.Z O = ( P.P.E.P.E.U.P.J.F.P.P.P.E.P.P.P.P.P.E.",
"P.E.U.F.P.P.P.P.F.P.P.P.F.P.E.F.P.P.E.Z.5 7 j z z H H H H j H K +.g.l.l.z.l.z.z.d.Z # 4 ] P.E.F.P.P.E.P.F.P.U.E.P.P.P.P.E.P.E.F.",
"F.P.E.F.U.!.P.F.P.P.U.P.F.P.P.E.F.A.E.A.Q s z z H H H H H j j j R u.l.l.l.l.x.x.d.b # E F.P.P.E.F.A.E.A.F.P.E.P.P.P.E.P.P.E.P.E.",
"P.F.E.P.!.P.P.F.P.F.P.P.P.U.P.E.P.A.A.~ 8 7 j j z H z H H f j s C t.j.j.z.j.x.x.f.Z t 9 } U.P.E.L.A.A.A.A.P.E.P.F.S.P.E.P.F.P.E.",
"S.F.P.P.E.F.P.P.P.P.F.!.U.P.P.P.S.F.D.| ; 8 f j z z H j j j f %.-.8.d.j.j.j.x.x.f.Z # u } L.P.P.S.F.J.E.U.P.P.P.E.F.P.L.F.S.P.P.",
"E.U.P.F.P.P.F.E.U.P.F.P.!.P.F.P.E.P.F.P.! : f j H H H f f f o.'.[.&.C u.d.d.j.j.a.V $ W !.P.F.P.E.P.F.P.U.!.P.A.S.F.P.!.U.E.A.P.",
"U.E.F.P.U.P.F.P.E.P.U.P.E.F.P.A.P.P.F.P.!.! M f f j j G F F -.'.{.*.M w.r.w.q.e.0.P { P.E.F.P.A.P.P.F.P.!.L.P.P.E.U.P.P.!.P.P.A.",
"P.P.F.P.P.P.P.P.E.P.P.P.P.F.P.P.P.E.P.P.E.P.q 0 F j j H F F R p.n.K f q.e.B m S 6.{ P.P.P.F.P.P.P.E.P.P.E.P.F.S.P.E.P.A.E.A.P.P.",
"P.!.U.P.E.U.E.P.P.P.F.P.U.P.P.F.P.P.E.S.F.U.E.r u f G R L s L t.e.V 0 5.5.7 y I #.P.F.P.U.P.P.F.P.P.E.S.F.U.E.F.P.E.P.A.A.P.S.F.",
"F.P.!.P.P.E.U.P.U.P.P.F.P.U.P.P.F.S.E.F.P.E.A.F.Q - K 9.5.m V t.a.V a P U g y Q U.P.P.F.P.U.P.P.F.S.E.F.P.E.A.F.A.P.F.S.P.E.F.P.",
"P.F.E.F.P.E.P.A.E.P.P.F.U.P.F.E.P.F.P.F.P.E.P.A./ 8 S s.e.B M 5.0.M p x x c i ( E.P.P.F.U.P.F.E.P.F.P.F.P.E.P.A.A.E.P.F.U.P.F.E.",
"E.F.P.E.P.P.U.!.U.P.E.F.E.P.F.P.E.F.P.E.P.P.U.H.B 6.r.h.e.B y C R d x x c z g w H.P.E.F.E.P.F.P.E.F.P.E.P.P.U.E.U.P.E.F.E.P.F.P.",
"E.P.P.P.A.L.!.P.P.P.P.E.P.P.P.P.E.P.F.P.P.P.L.w D a.k.g.5.7 y K C 7 p O.O.j j a  .P.P.E.P.P.P.P.E.P.F.P.P.P.P.E.P.P.P.E.F.P.P.F.",
"P.P.E.U.P.A.E.P.P.F.S.E.P.P.S.F.P.P.F.P.!.P.F.6 C h.l.8.I p F 7.8.J J i.u.M g a  .F.S.E.P.P.S.F.P.P.F.P.!.P.F.P.P.P.P.E.P.P.P.F.",
"F.P.P.E.S.P.P.P.E.U.F.P.P.E.!.L.F.P.P.!.P.P.P.6 V t.y.U x v m.V.~.m.:.c.l.m d 6 [ U.F.P.P.E.!.P.F.P.P.!.P.P.P.U.P.E.U.P.U.P.E.P.",
"P.P.A.E.A.E.P.A.P.E.F.P.A.P.F.!.P.F.P.E.P.E.P.6 M R K c $.B.}.-X:X;X|.n.w.f h a { E.F.P.A.P.F.!.P.F.P.E.P.E.P.F.P.P.E.P.P.P.U.E.",
"P.E.U.P.S.F.P.P.P.E.P.P.P.P.P.E.P.F.P.P.F.U.F.5 F G c ;.3.`.>X5X5X5X:XV.8.C K a J ^ L.L.P.P.L.E.P.F.P.P.F.U.F.U.P.P.E.F.P.P.P.E.",
"P.P.E.P.F.P.U.!.P.P.P.P.E.P.E.F.P.E.U.F.P.P., & a h ;.@X=X`.].1X7X7X2Xn.a.k.a.B d < P.P.E.P.E.F.P.E.U.F.P.L.P.P.F.P.P.P.F.P.E.F.",
"F.A.E.A.F.L.!.P.P.P.E.P.P.E.P.E.F.P.E.F.I.!., $ : u >.,X4X@X}.1X7X7X2X/.b.v.s.A 7 < E.P.P.E.P.E.F.P.E.F.U.!.P.F.P.P.U.P.F.P.P.E.",
"P.A.A.A.A.P.E.P.F.S.P.E.P.F.P.E.P.F.E.P.!.P., $ : y >.&X7X3X3X7X7X7X7X2X Xv.f.Z a < P.E.P.F.P.E.P.F.E.P.!.P.P.F.P.F.P.P.P.U.P.E.",
"S.F.S.E.U.P.P.P.E.F.P.P.F.S.P.P.S.F.P.P.E.F., & ; N m.$X5X7X5X=X&X3X7X7X2Xn.q.B j > P.P.F.S.P.P.S.F.P.P.E.F.P.P.P.P.F.!.U.P.P.P.",
"E.P.F.P.U.E.P.A.S.F.P.!.U.E.A.P.E.U.P.F.P.P.@ = b e.Q.oX5X5X>XB.1.&X5X5X*Xm.C a j > P.!.U.E.A.P.E.U.P.F.P.P.F.E.U.P.F.P.!.P.F.P.",
"P.P.F.P.E.P.P.P.E.U.P.P.!.P.P.A.U.E.F.P.U.P.+ O b q.W.-X7X4X@X>.Y +X3X,X'.X.p i 0 < P.P.!.P.P.A.U.E.F.P.U.P.F.P.E.P.U.P.E.F.P.A.",
"L.!.P.P.E.P.F.S.P.E.P.A.E.A.P.P.P.P.F.P.P.P.E 1 X b M.-X6X2X}.=.h ].+X).&.h h s 0 Q P.A.E.A.P.P.P.P.F.P.P.P.P.P.E.P.P.P.P.F.P.P.",
"P.P.!.S.F.U.E.F.P.E.P.A.A.P.S.F.P.E.U.P.E.U.E.P.. O >.oX*X|.).Y y ).4.&.;.N.>.H M 4 P.A.A.P.S.F.P.E.U.P.E.U.E.P.P.P.F.P.U.P.P.F.",
"F.S.E.F.P.E.A.F.A.P.F.S.P.E.F.P.F.P.E.P.P.E.U.P.. * U ;.;.o.J % o %.>._.}.*X@X2.6 < F.S.P.E.F.L.F.P.E.P.P.E.U.P.U.P.P.F.P.U.P.P.",
"P.F.P.F.P.E.P.A.A.E.P.F.U.P.F.!.P.F.E.F.P.E.P.A.. O : O O O .     & &._.#X>X$X2.o Q P.F.U.P.F.!.P.F.E.F.P.E.P.A.E.P.P.F.U.P.F.E.",
"E.F.P.E.P.P.U.E.U.P.E.F.E.P.F.P.!.F.P.E.P.P.U.!.} ) .       > ) 4 & ; G o.>.=.= + C.E.F.E.P.F.P.!.F.P.E.P.P.U.!.U.P.E.F.E.P.F.P.",
"E.P.F.P.P.P.P.E.P.P.P.E.F.P.P.F.E.P.P.P.A.P.!.P.P.P.` K.` ` Z.P.~ & = O X . @ K.C.P.P.E.F.P.P.F.E.P.P.P.A.P.!.P.P.P.P.E.P.P.P.P.",
"P.P.F.P.E.P.F.P.P.L.P.E.P.P.P.F.P.P.E.U.P.A.E.P.P.F.S.E.P.P.S.F.S.<         ] L.L.L.P.E.P.P.P.F.P.P.E.U.P.A.E.P.P.F.S.E.P.P.S.F.",
"F.P.P.E.P.P.P.U.P.!.U.P.U.P.E.P.F.P.P.E.S.P.P.P.E.U.F.P.P.E.F.P.F.J.S.R.S.S.P.U.P.!.U.P.U.P.E.P.F.P.P.E.S.P.P.P.E.U.F.P.P.E.F.P.",
"P.F.P.E.P.E.P.F.P.P.!.P.P.P.U.E.P.P.A.E.A.E.P.A.P.E.F.P.A.P.F.E.P.F.P.E.P.E.P.F.P.P.!.P.P.P.U.E.P.P.A.E.A.E.P.A.P.E.F.P.A.P.F.E.",
"P.F.P.P.F.U.F.U.P.P.E.F.P.P.P.E.P.E.U.P.S.F.P.P.P.E.P.P.P.P.P.E.P.F.P.P.F.U.F.U.P.P.E.F.P.P.P.E.P.E.U.P.S.F.P.P.P.E.P.P.P.P.P.E.",
"P.E.U.F.P.P.P.P.F.P.P.P.F.P.E.F.P.P.E.P.F.P.U.E.P.P.P.P.E.P.E.F.P.E.U.F.P.P.P.P.F.P.P.P.F.P.E.F.P.P.E.P.F.P.U.E.P.P.P.P.E.P.E.F.",
"F.P.E.F.U.!.P.F.P.P.U.P.F.P.P.E.F.A.E.A.F.P.E.P.P.P.E.P.P.E.P.E.F.P.E.F.U.!.P.F.P.P.U.P.F.P.P.E.F.A.E.A.F.P.E.P.P.P.E.P.P.E.P.E.",
"P.F.E.P.!.P.P.F.P.F.L.P.P.U.P.E.P.A.A.A.A.P.E.P.F.S.P.E.P.F.P.E.P.F.E.P.!.P.P.F.P.F.P.P.P.U.P.E.P.A.A.A.A.P.E.P.F.S.P.E.P.F.P.E.",
"S.F.P.P.E.F.P.P.P.P.F.!.U.P.P.P.S.F.S.E.U.P.P.P.E.F.P.P.F.S.P.P.S.F.P.P.E.F.P.P.P.P.F.!.U.P.P.P.S.F.S.E.U.P.P.P.E.F.P.P.F.S.P.P.",
"E.U.P.F.L.P.F.E.U.P.F.P.!.P.F.P.E.P.F.P.U.!.P.A.S.F.P.!.U.E.A.P.E.U.P.F.P.P.F.E.U.P.F.P.!.P.F.P.E.P.F.P.U.!.P.A.S.F.P.!.U.E.A.P.",
"U.E.F.P.U.P.F.P.E.P.U.P.E.F.P.A.P.P.F.P.!.P.P.P.E.U.P.P.!.P.P.A.U.E.F.P.U.P.F.P.E.P.U.P.E.F.P.A.P.P.F.P.!.P.P.P.E.U.P.P.!.P.P.A.",
"P.P.F.P.P.P.P.P.E.P.P.P.P.F.P.P.P.E.P.P.E.P.F.S.P.E.P.A.E.A.P.P.P.P.F.P.P.P.P.P.E.P.P.P.P.F.P.P.P.E.P.P.E.P.F.S.P.E.P.A.E.A.P.P.",
"P.!.U.P.E.U.E.P.P.P.F.P.U.P.P.F.P.P.E.S.F.U.E.F.P.E.P.A.A.P.S.F.P.!.U.P.E.U.E.P.P.P.F.P.U.P.P.F.P.P.E.S.F.U.E.F.P.E.P.A.A.P.S.F.",
"F.P.!.L.P.E.U.P.U.P.P.F.P.U.P.P.F.S.E.F.P.E.A.F.A.P.F.S.P.E.F.P.F.P.!.P.P.E.U.P.U.P.P.F.P.U.P.P.F.S.E.F.P.E.A.F.A.P.F.S.P.E.F.P.",
"P.F.E.F.P.E.P.A.E.P.P.F.U.P.F.E.P.F.P.F.P.E.P.A.A.E.P.F.U.P.F.E.P.F.E.F.P.E.P.A.E.P.P.F.U.P.F.E.P.F.P.F.P.E.P.A.A.E.P.F.U.P.F.E."
};
