/* XPM */
static char *fish41750847957[] = {
/* columns rows colors chars-per-pixel */
"64 64 153 2 ",
"   c #1B2035",
".  c #58371D",
"X  c #58381D",
"o  c #5F3B20",
"O  c #7B2920",
"+  c #633C22",
"@  c #6B3924",
"#  c #703020",
"$  c #7C3026",
"%  c #1C7737",
"&  c #17743E",
"*  c #1B753D",
"=  c #1E793C",
"-  c #227C35",
";  c #207A3B",
":  c #5C422B",
">  c #594934",
",  c #624220",
"<  c #7B4532",
"1  c #794F3A",
"2  c #177441",
"3  c #1A7641",
"4  c #1D7841",
"5  c #177749",
"6  c #1B7950",
"7  c #287F76",
"8  c #51564A",
"9  c #564454",
"0  c #4F5B55",
"q  c #6E5A5C",
"w  c #58674B",
"e  c #576F55",
"r  c #7A5B69",
"t  c #496D6F",
"y  c #5F6E6D",
"u  c #437074",
"i  c #951B20",
"p  c #991B20",
"a  c #8A2220",
"s  c #8B2B20",
"d  c #9C2220",
"f  c #A52D32",
"g  c #A63230",
"h  c #884539",
"j  c #AE3D43",
"k  c #8F4E43",
"l  c #904F43",
"z  c #845845",
"x  c #935643",
"c  c #B14543",
"v  c #A3544E",
"b  c #A95754",
"n  c #AA5A54",
"m  c #9C675C",
"M  c #9B7172",
"N  c #AF6462",
"B  c #AB6966",
"V  c #B57A6E",
"C  c #AE7772",
"Z  c #B27671",
"A  c #B57974",
"S  c #BD7F7D",
"D  c #C25F65",
"F  c #C3656A",
"G  c #C66B69",
"H  c #C57A7E",
"J  c #348E00",
"K  c #359300",
"L  c #389500",
"P  c #369A00",
"I  c #399A00",
"U  c #278814",
"Y  c #37A400",
"T  c #3AA500",
"R  c #37AA00",
"E  c #3BAD00",
"W  c #3EB100",
"Q  c #42AE00",
"!  c #4CAF00",
"~  c #52AF00",
"^  c #41B300",
"/  c #49B300",
"(  c #44B900",
")  c #55B300",
"_  c #5AB600",
"`  c #5DB900",
"'  c #60BA00",
"]  c #65C300",
"[  c #6ED500",
"{  c #6FD800",
"}  c #71D700",
"|  c #74DC00",
" . c #79DD00",
".. c #76E000",
"X. c #7AE100",
"o. c #2B8652",
"O. c #3CB344",
"+. c #2B8561",
"@. c #28826A",
"#. c #2A8275",
"$. c #26847A",
"%. c #29827C",
"&. c #4E8B74",
"*. c #9AF900",
"=. c #A5FE00",
"-. c #ABFF00",
";. c #B1FF00",
":. c #9E8074",
">. c #A08874",
",. c #C2857D",
"<. c #267E83",
"1. c #277E87",
"2. c #3C7F8E",
"3. c #997D88",
"4. c #CF7C81",
"5. c #1C9799",
"6. c #268185",
"7. c #298283",
"8. c #24828A",
"9. c #288188",
"0. c #289A86",
"q. c #228595",
"w. c #398799",
"e. c #25A088",
"r. c #0091AE",
"t. c #1B98A2",
"y. c #008FB0",
"u. c #0094B3",
"i. c #0097B8",
"p. c #3194AF",
"a. c #23A3B9",
"s. c #4AA08E",
"d. c #27A2C6",
"f. c #2BA5C6",
"g. c #2CA8C7",
"h. c #2CA6C8",
"j. c #2CA8C8",
"k. c #3ED2C6",
"l. c #3ED3C8",
"z. c #41D7C6",
"x. c #B09292",
"c. c #CE8684",
"v. c #D78A8D",
"b. c #D78D93",
"n. c #D39192",
"m. c #DD969C",
"M. c #E09E9D",
"N. c #C0A9A0",
"B. c #DDA7AC",
"V. c #DDAEB3",
"C. c #D3BBC1",
"Z. c #DDC7CC",
"A. c #E0CECC",
/* pixels */
"| * E | E E E ;._ E  .* | W = E | * E | P P _ } ` E  .*  .E * ^ } = E  .W E E =._ E } = | W = E } * W  .E T _ } _ R | *  .W * W ",
"| E E E K R -.Y E E R  .E E W E | W ; W P E E } E Q R  .3 E ^ *  .E E E K R -.R E W E | E E W E ..W ; E E E E | E W R  .* E W = ",
"E E  ._ W K } W E = I | E E P 4 E W * Y -.E & E E E E | E E E ; E E  .) E J | E E * L | E E Y * W W = E -.E * E E E R | R W E % ",
"* W E | E E E E  ._ ; W E { =.W 3 W R -.E E E ' E .._ E ' T | / 3 W R } E E E E ..) - E E { -.W * W E -.E W E ` E  .) E ` R ../ ",
"W E J  .J ..R K E  .= ^ J W 3 -.R = W | R  .W * ^ E | E E Q ) } E E J  .J  .E J E | = W J E 3 =.E - W | R  .E = ^ E  .E W E _  .",
"W  .) R E 3 W R W } E W E W E } W = W W 3 ` 4 ` E E | 3 W ^ E  .R ..) E Q * E E E  .R W ^ E E { E 3 R W 3 _ 3 ' W E  .* W W R | ",
"E R | W = E _  .E E E E ..E  .* E | _ % W E W / 4 ^ E ^ - E  .3 W E ..R = E _ | E E W E  .E  .= E  ._ = W E ^ ) * ^ E E - W | = ",
"= K | P = E | E E E | E R | R | * E X.* W -.E - ^ E ' E = E E | = L } K * E | R E E | E R | R  .* E  .= R =.E % W E ` W = W R | ",
"^ L K L K E } W * I R | W 3 E  .W *  .R =.R E = W * E W W _ E  .W P K K L R  .W 3 I E | E * E } E *  .E -.R E = ^ * E E Q _ E } ",
"K 3 P  ._ E E E X.= E R * Y E E P 4 W E } * ^ E E W 4 =.) E E E K 2 L | _ E E R  .= W R 3 Y Q E P = E E } * W E E ^ 3 -._ E W E ",
" .R ; E _ } E J I 3 E -.)  .J E  .) ^ * E W =  ._ E = R =.R 4 E ..E ; E _ | R K L = E =.) } K E | _ E * E E *  .` E = R -.E 3 E ",
"E E = E | E E E  .) E E -.E W J W  .= E ` W * E } E ` R | = W K E R = E  .E W E ..) W R ;.R E K / ..; W ' E = R  .E ` E | ; E K ",
"E =.~ E | E = I R | E K } J W E E R 4 E E W R E  .E J W W * E W E =.) R | R = W R | W J } K ^ W E E = E E W W E  .E E E E ; E E ",
"W R -.R 4 ) | 4 R | W L K W I * E | _ E | J ..R E L 2 L _ K ' W P P -.R 4 W W % L | E P K W P 4 E .._ E | ) | E W E ; ^ ` E Q ; ",
"= P } = W | J * P E 3 P W ..= W W W ..R P & L L L * & L L * P L 2 = W R | _ L 4 L W P L 2 ` 3 W 3 W  .R E | ) E _ E W ; E ' E E ",
") = E = R | R K K | W = _ Y = W 2 K { K * & & & K K W 2 & & & & I & 4 K K K 2 * 2 L 2 2 & L & W W = | * E | E J  .E E = ` E =  .",
"| = W  .R E ) | ` E | 3  .E 3 * * & P 3 & ^ * % W W W * ^ E 2 ^ W & * = & * * ^ & & * & W & 3 4 P 4 W  .E E E -.) E  .3 | E = E ",
"| E ; E E E E } E E E | * ^ W 2 = & 3 7.7.6.<.8.8.1.i.u.i.i.u.i.i.7.6.#.6.7.%.6.u.7 #.1.#.7.K I 2 W E E K R -.R E W E | R E W E ",
"R E = W  .E = E E E E } E L 2 % K K i.r.u.i.u.u.r.u.6.6.9.1.9.9.6.%.u.u.k.k.u.i.u.u.u.u.u.i.@.%.* K | ) W K | E E = T  .E E I * ",
"= W W | E E W ` E =./ R E 3 W e.+.#.u.u.u.u.r.r.u.u.u.u.i.u.u.u.u.u.u.r.u.r.r.u.r.k.k.k.u.r.i.#.& 2 L | E E R E  .) = ^ E  .= ^ ",
"W ; E | R  .R 4 W R -.R L & L #.#.u.r.u.g.f.f.f.f.f.g.r.u.u.u.y.u.u.f.f.f.f.f.g.f.f.f.f.d.y.y.u.#.* * E J X.E J E | * ^ J W = | ",
"W 4 E W * ) 4 ` E E  .K * & #.%.i.u.f.f.z.k.k.f.f.d.f.f.h.h.f.f.f.g.f.f.0 o o o o o . r.z.z.k.u.u.7.& 2 I 4 E E E | E E E E E } ",
"E .._ 4 W E W / 4 W W & & #.i.u.r.f.f.f.f.f.f.f.f.k.k.f.f.f.f.f.h.f.f.f.0 + + + X + o u.u.y.f.d.u.u.2 ^ * E ) | E E E W  .R ..= ",
"= E | = R =.E ; W E } P 4 ^ u.u.j.d.k.k.d.f.f.f.f.f.d.d.h.f.f.f.: : : : C n.n.n.A + X f.f.f.f.f.f.u.t.* L W | E E E | R R  .R | ",
"W = | R -.R W 4 W 3 E / L & a.u.u.f.f.f.f.h.h.f.f.f.h.f.d.z.l.l., , o o A M.m.m.S o o f.f.f.d.f.d.u.5.$.L J  .E 3 L E  .R 4 E  .",
"L = W E } * W E E W = } I & a.u.u.f.f.f.f.f.f.f.h.2.0 0 0 8 e e s s V Z q 9 M m.c.v v 8 0 l.z.k.f.f.q.^ & K R E  .; W E 4 P E E ",
"| / E * E ^ = .._ W 3 P 2 & %.r.g.h.f.f.f.f.f.f.f.7 + + o o o o p p b.m.9   r m.v.D D o + f.d.d.f.z.q.* * K W K L * R =.~  .J W ",
"E  .= W ' E = R | R L 3 % 9.i.u.f.f.f.f.f.f.z.s.&.q k h o o O O p p b.m.3.3.3.m.v.D D o o f.f.f.f.r.o.& L W E W | ) W E =.E E K ",
"E R * E E W E E | R 3 & 6.u.r.j.f.h.f.f.h.f.h.0 # k D b + o p p p p b.m.C.Z.V.m.v.G D + X f.f.f.k.u.* L W E 4 I E | E J | J E W ",
"E =._ E  .) | E R W K & i.u.g.f.f.h.h.f.h.f.h.0 . x G n , , g g f f b.m.B.C.B.m.v.b b 8 8 f.f.r.u.i.* T 5 ) | 4 R } R K L W L = ",
"3 E -.E E  .) E _ W K U i.f.f.f.f.d.h.f.f.f.h.0 o l D b o o D D D D b.m.m.m.m.m.>.@ o f.j.f.f.r.i.6 K & I ..K * L R = I W } 4 W ",
"_ =  .3 R | R J X.P & U u.g.f.d.k.k.f.f.h.f.f.0 o l D b o o D D D D m.m.m.m.m.m.H o o j.j.f.f.r.r.i.P 4 I | E L K  .W = ' E = | ",
"} = E  .T E W -./ K * * i.g.f.k.z.f.f.f.j.h.f.f.f.u , < D D m.m.Z.Z.F D D D j p a o o h.f.h.h.y.r.i.L 3 T E ' } ' E  .*  .E = R ",
"| R E E K E -.R E W L & 7.u.j.f.f.f.f.f.j.f.f.f.a.t o $ D D m.m.Z.Z.F D F D c d s , o f.h.f.f.f.r.u.2 ^ E E E | E E E } = E W = ",
"E E  .) W J  .R E * W L 7.i.u.f.f.f.d.f.f.f.f.f.j.u o q m.m.Z.Z.m.m.D D f p a o 8 f.h.h.f.d.h.f.f.i.* J W W = E Q E T | R E E = ",
"= W E | E E E E | _ { E K i.r.u.f.f.z.z.f.h.f.g.f.u o z m.m.Z.A.M.M.F D f p O o 9 h.h.h.f.f.f.f.f.f.u.5 K E E _ E } ) E ` E | / ",
"W E J } J | E J E | E L & 6.u.r.f.f.f.f.g.> : : , $ i f F G M.M.G G @ + + + t d.p.h.h.h.f.d.f.f.f.k.i.e.* ' W 4 E E | E E E _ } ",
"E  ._ E W 4 W E E } L & = #.u.i.f.f.f.f.g.: X o + O i f F D m.m.D F , o + o t f.f.f.h.z.z.z.f.f.f.r.u.K * K 4 / E E | ; W W E  .",
"E R  .E = E ) | E R 2 P 7.7.r.g.f.f.f.0 0 x.x.B v h # $ f f z z < < C A 1 o u f.f.f.f.f.f.d.f.f.f.k.r.5.I ` E W ; Q E W ; E | = ",
"= L } P = E  .E W K 3 W $.u.r.f.f.f.f.+ X Z.Z.c.F k o # p p o o + + b.m.z o u f.f.f.f.f.f.f.d.d.k.r.u.2 W -.R ; W E ` W = E E { ",
"W P L K L E | E 4 P L * 8.u.k.g.f.f.f.o . :.>.,.4.N k h O O u u o o m m y u w.f.h.f.h.f.h.h.f.y.u.u.2 K -.E E = / = W E W ' E  .",
"L 4 P  ._ E Y E | = * & 8.k.g.f.f.f.f.. . . . Z m.4.D b o o h.f.o o o o w.g.g.f.f.f.f.f.h.f.f.z.u.i.2 K  .3 W E W W = =.) E E E ",
"| E = E ) | E L L 4 W & q.u.g.g.l.l.d.8 8 8 8 M S S H B o o g.f.8 8 w w w.j.f.d.f.f.h.f.d.f.f.u.u.1.* & E E * .._ E 4 R -.E = E ",
"E E = E } E E W ..Y & W 3 i.u.j.k.k.z.k.a.f.f.0 o C A.N.o o f.f.f.f.d.f.f.f.h.f.f.f.f.d.k.z.f.u.i.* * L ' E * E  .E ` E } ; W K ",
"E -.Q W  .E = I E W * L %.u.u.u.d.d.f.f.j.h.f.0 o :.A.N.o + f.f.f.f.f.f.f.f.h.h.f.f.z.k.k.d.u.i.7 * E E E W E E | E E Q W = E E ",
"E R -.R 4 ) | = W ' P & ^ 2 u.u.r.z.z.f.j.h.f.f.f.u X 8 f.f.f.d.f.f.f.d.f.f.f.k.l.f.f.d.f.u.i.7 9.K E E | ) | E E W = E ` E W ; ",
"4 K X.= E | K = P E 5 % L W K i.y.r.u.u.r.r.h.f.k.&., 8 f.f.h.f.f.f.l.k.z.f.h.y.y.u.u.u.u.u.1.8.* K ' E E } ) E _ E E - ^ ` W E ",
"_ ; E = E | W P K | ) & 4 * / 3 i.u.u.u.u.u.u.r.u.r.k.k.k.k.k.k.f.f.f.f.y.u.u.u.u.u.u.u.u.7 <.^ * 5 L 4 E } R J  .E E * ` E 3  .",
"| = W | E T /  .) E } 2 ( & * ( 8.6.* u.u.u.u.u.u.u.u.u.u.u.u.y.r.y.u.r.u.u.h.i.g.j.i.3 3 & e.& * * K } Y E E =.) E  .*  .E = E ",
"} R % E E Q E } Y E E  .4 = & = 3 * & O.0.0.2 5 4 2 2 W W W u.u.u.u.u.u.i.3 1.7 $.7 & I ^ ^ * & & W E T K E -.Y E W E | R E E E ",
"E E ; E | E * E W E E } R W ^ K _ W 4 2 & = 2 4 L W * * P * W W * <.3 3 2 0.3 * P 2 L W 3 I 2 L W E | _ E J } E E * E | E E P * ",
"= W E | E E W ` E -.) R ` E | W = E W L = 3 W L W W K W K 3 % o.o.o.Q E & * T W 5 L W E W K | W 3 W E | E E E E  ._ ; E R  .= E ",
"^ = E  .E  .W = W R =.E E E / | E E J { K ] E L P E J E W K 4 _ I 3 5 ^ J ` E K W 3 } E E E _  .E E K | J | R K E ..= E K E = | ",
"E = W W * _ = ' ^ E  .4 W E E | R { _ E E 3 W W E  .E E E W E | E K ^ E I = E E W E | = W W E } R  .) R W = E E E } E E E E E | ",
"E  .` = W E W ^ * ^ E W ; E } ; W E | E ; W _ | E E E E } R | = W } _ W ; E _ | E E E W ; W  .= W E | E % W ) | E E E E | E  .= ",
"4 E } = E *.E - ^ Q _ W = W E | 4 P | K * W | E E E | E E  .E } * E } L 3 E | E E E ` E = E E | 4 L } P = W  .R E E  .E R | R { ",
"W = ..Y =.R E = ^ = / E ^ ` E  .R P L L L R } W * P E } E = E | W = | K L E | W = I W E E ' E } E L L L L E | E ; I R  .E * E  .",
"I = W E } = W W E E ; *.) E E E Y = L | ` E E E  .; W E = P E E P = E ..) E E E | = E -.) Q E E R = P | _ E E E  .; E R * Y E E ",
" .) ^ * W ^ % X._ E = E =.E * W  .R = W _  .E K P = E =.) | K E | ) E = ) } E J P = E E -.E = W ..W = E ` } E K L = E -.~  .K W ",
"E } - Q ' E = E | T _ R  .= E K E E = E } E E W  .) E E =.E W K E | = R | E W W ..) ! E  .= W J R E = E | E R W  .) W R *.E E K ",
"E E * ^ E E E E | E Q W W = W E E =./ T  .W = I E | E J | K E E E W 4 E } E 4 I R ..W / ^ ; E E E =./ E  .E = I R | R K } K E E ",
"W =.) E  ./  .E E E = ^ ` E W 4 W E -.E = _ | = E | E L K W P 3 E -.) E 4 _ { o.E | P L ] E ^ 4 W R -.E = _ | = W ..R L I W T ; ",
"= R =.Y E | ) E _ W E - W ` W W 4 P ..= E | K = P E 4 P E  .; W 3 E =.K E | K * P W 3 I E ` E E 4 I  .; W | L * P E = P W  .= T ",
"W = [ = E } E K | E E ; _ E = | R = W = E | Y K K  .E * ` E =  .E * } P E ..R L L  .E 4 _ E =  .E ; E = R | R L K } W = _ W = } "
};
