/* XPM */
static char *fish11750780516[] = {
/* columns rows colors chars-per-pixel */
"64 64 136 2 ",
"   c #001135",
".  c #0A3039",
"X  c #062940",
"o  c #032D4C",
"O  c #0D3147",
"+  c #0D3E4F",
"@  c #12394C",
"#  c #1C3E4B",
"$  c #0B3C54",
"%  c #023C5A",
"&  c #0C435F",
"*  c #054A5F",
"=  c #134552",
"-  c #1B4654",
";  c #14425E",
":  c #1C435A",
">  c #034465",
",  c #0B4463",
"<  c #0C4964",
"1  c #05446B",
"2  c #0D426C",
"3  c #02496B",
"4  c #0A496B",
"5  c #144461",
"6  c #1B4361",
"7  c #12446C",
"8  c #124A6D",
"9  c #075160",
"0  c #004470",
"q  c #014B73",
"w  c #084C72",
"e  c #045377",
"r  c #0D5573",
"t  c #01527A",
"y  c #155B7E",
"u  c #1A5A7B",
"i  c #126175",
"p  c #22607C",
"a  c #366A7B",
"s  c #8E5337",
"d  c #9C5F35",
"f  c #A7643C",
"g  c #B66D3C",
"h  c #B5713E",
"j  c #C57C37",
"k  c #C1773E",
"l  c #CD7E3D",
"z  c #D37E3C",
"x  c #AF6A41",
"c  c #B56D42",
"v  c #B77143",
"b  c #B87343",
"n  c #BE7842",
"m  c #C17640",
"M  c #C88037",
"N  c #CE833E",
"B  c #D4813C",
"V  c #DB843A",
"C  c #D7883D",
"Z  c #DA8B3D",
"A  c #E58B37",
"S  c #EB8E36",
"D  c #E18738",
"F  c #E38A39",
"G  c #E88E38",
"H  c #EE9236",
"J  c #E4923B",
"K  c #ED9438",
"L  c #EE9A3A",
"P  c #F09636",
"I  c #F59C37",
"U  c #F39C38",
"Y  c #FAA437",
"T  c #F5A038",
"R  c #F9A238",
"E  c #145C81",
"W  c #1A6887",
"Q  c #106A8D",
"!  c #206591",
"~  c #297696",
"^  c #28769D",
"/  c #2F7E98",
"(  c #337EA5",
")  c #417490",
"_  c #437F9F",
"`  c #1C818C",
"'  c #278299",
"]  c #2F839E",
"[  c #3E8297",
"{  c #37829A",
"}  c #2E84A5",
"|  c #3685A4",
" . c #368DAA",
".. c #3B97A4",
"X. c #478AA5",
"o. c #5A87A5",
"O. c #5395AC",
"+. c #5D9CB9",
"@. c #6995B6",
"#. c #5BA4BD",
"$. c #6DA6BC",
"%. c #5EACD2",
"&. c #63A6C8",
"*. c #7AAFCF",
"=. c #68B2C7",
"-. c #63B5CC",
";. c #7BBDCE",
":. c #6AB5D1",
">. c #6FBED7",
",. c #6EBDDB",
"<. c #7DB6D2",
"1. c #76BAD5",
"2. c #7DBCD5",
"3. c #76B7DB",
"4. c #75BDDC",
"5. c #7DBBDB",
"6. c #17C0CA",
"7. c #77C1D7",
"8. c #7AC2D5",
"9. c #7BC5DD",
"0. c #7ECBDA",
"q. c #82BDDC",
"w. c #84C5DE",
"e. c #8ECCE0",
"r. c #8CD7EC",
"t. c #8FDCEB",
"y. c #97D3EC",
"u. c #95E6F7",
"i. c #9BE4F2",
"p. c #9FECFA",
"a. c #A5E8F6",
"s. c #A6EDFE",
"d. c #ACEEFF",
"f. c #B2EDFF",
"g. c #A6F1FE",
"h. c #ACF2FF",
/* pixels */
"c v R P P I U P C C V S S A T T b b m H H S S S Z Z C G S S I I v v I I U I I U Z Z V S S S T T b b m P S S H K C Z V S S A R I ",
"c c T U U I U L Z Z V S S S T T b b V P S S K K Z Z V S S S I I c c I I P I L U Z C C S S A T T b b z P S S K G Z C C S S A T R ",
"c v z z z D F F Z C Z S S z T R b b m S S D D F Z Z F S H z I I v c m z m V V F Z Z D S S z I R b b z H S F V Z C Z Z S A z R R ",
"b b B S S D V V Z Z U S S V P P b b m S S D m A Z Z L S H z I H v b D H I F V V Z C P S S V P P v v b S S D V V Z Z U S S V P P ",
"b b z S S A z V Z Z P S S V P P b b b H S D V C Z Z P H S z H I m v z H H D z D C C P S S D P P v b b H S D V B Z Z P S S V H P ",
"b b A S H A A A Z V P S S z I I b b m H S D V V Z Z P S H z I I v v A S S S A D C C P P S z I I v v m H S D D V Z V P S H z I I ",
"v v z S H D z z m B S S S z S S b b m S S D V V m C H S S z P H v c z H S A z z z l S S S z H H b b z S S D V V m V S S S z H H ",
"v v z S S D z z B B S S S z S P b m V S S D V V B m H S H m H H v v z S S A z z z z S S S z S S b b z H S D V V m B S S H z H S ",
"c c V S H A D V m C z S S S S S v b S D D S L P N z z S S S S S c c D S S A z S m m A H S S S S b b S F F S U K V B V A S S S S ",
"c c D S S S V D B z V S S S S S v m S D F S P P l z V S S S H S c c z S S S A z z z z H S S S S v v S F D S K P N N B S S S S S ",
"c c A S S S S A l z B S S S S S c c I H H P H S C C V S S V I R c c S S S S S S m z z H S S S S c c I S S H S S C C V S S V I I ",
"c c S H S S A S N l A S S A S S s s m D m V c c M M A S S D P P c c S S S S A S z z S H S A H S s s m z B z g c l M G S S A P P ",
"c c S S S S S A z z A H S A S S s s m m V m c c M M A S S D P P c c H H S S S S z z A S S A S S s s m B z N v v M N A S S A P P ",
"c c z S S S S A l z z S S z S S x c K K P U J K N l V S S z I I c c z H S H H H V m V S S z S S x x L K K U S J B m V S S z I I ",
"c v z S S A z V l z k S H z S S c c D m z D Z J Z Z V S S m I R c c m H S z z z B V m S S V S S c c z z z F F J Z Z V S S n I R ",
"c c z S S A V V l N k S S z S P m m m D m D J J Z Z V S S m R I c c z H H A A z N m m H S z S S c c z z z Z F J Z Z V S S k R I ",
"b b S S S A G A B N m H S m H P m v z H H A z z Z Z J S S S I R b b G S S S G A z N m S S z P P b b B S S A z z Z Z F S S S R I ",
"b b S S H S G A N N m P H z P P v v z S S A z z Z Z Z S S S R R b b G S S S A G N B l S A z S H b b m S S D z D Z Z F S S S R R ",
"c c z S S D F Z Z Z K S H z I I v b S H H S S A Z Z K F A A R R v c z S S F A F Z Z H S S z I R b b H P S S A A Z Z P A F S R R ",
"b b z S S S G K C Z V S S A P P v b m P S A z z Z C I S H V Y R b b z H , , , , < , 6 S S A P P b b z H S A z z Z Z I H S V R R ",
"b b m H S S G J C C C S S A P P b c z S H z z z Z Z T H S V Y R b b N S 0 > > 3 3 0 > H S A P P v v m H H A z z Z Z U K H V R R ",
"b b D H S D V V Z Z V S S m P P c c A S S A z A k h J J J J Z Z b b : , 4.5.5.4.3.E 3 S A l P P c c D S S A D z h k Z Z J J V Z ",
"v v V H S D C V Z Z D S S z R R c c A H S S H S g g l B N N m l v v 8 r w.q.@.*.q.u 3   S B R R c c D S S S S A h h N N N N m m ",
"v v m S S D V V Z Z F S S z R R c c z S S S S S g g O 5 , > , 7 0 > ' { f.q.X ) q.p 3 q 7 z Y R c c D S S S S S g g N N C B B m ",
"v b m P S D V V Z Z K F A S U U c c z S S A D D C X / _ i W q 0 ! Q } / y.e.o.@.1.X.| 0 2 S I U c c z S H A D V Z Z K F F V K K ",
"b b z H S D V V Z Z P F A S U I c c z S S A D D @ , &.q.] } 1 0 ( | } { 4.e.f.r.q.7.7.8 : S I I c c z S S A D D Z Z K F F V P K ",
"v v z H S D V D Z Z P S S D Y Y c c A S S D m m X 4 ( X.e t ^ ^ :.=.i.t. ...O.&.1.W y S S V Y Y c c A S S V m z C B V G S S Y Y ",
"v m S S A S L P C C R R R I U I c m z S H H H D 9 4 ^ ( q 3 ( } 4.1.d.h.' / ( +.5.y * R I R U P v b z S S S D D C Z H H S z P P ",
"v v H S A S H P B B Y R R I U P c v z S S S D D Z C $ 0 ^ | 1.2.a.d.h.h.g.u.1.{ , C R R R R P U b b z S S S D A Z Z S S S z K P ",
"c c I I H S A A x x h n n m b b v c S H S S F S Z Z @ 4 | } 7.;.d.g.s.h.h.p.5.[ 5 f h n m m b b c c H S S S A A Z Z P S S A R R ",
"s s c m z m m x h j Y F Z z A A d d H S S D D Z N B @ > ,.7.g.h.h.g.g.g.2.&.w o j j Y V V m A A d d H S S D Z Z C B S S A z H P ",
"s s v m z m c c j j Y V V z A A d d H S S A V V B B , 3 4.1.d.d.d.d.d.h.2.$.5 . j l Y V F V A A d d H S S D D Z B B P S S z P H ",
"v c Y P P T P U Z C V S S A R I b b z S H , 4 5 ; 4 ^ ( 3.2.q.;.2.<.1 1 3 $ P U Z C C S S S T T b b m P S S K K C Z V S S A I R ",
"c c R P U T U P C C V S S S R I b b z S S > e 2 , > ~ ] 1.2.4.7.7.,.q 3 > @ L U C C V H S A T T b b z P S S K G Z C C S S A I R ",
"c c z z B D V F Z Z D S S z Y Y b b l : < 4.9.f.d.d.9.7.{ { 3 3 3 q 3.5.* = Z F Z Z F S S z I R b b z H S D V Z Z C Z S P m R R ",
"b b B S S D B V Z Z P S S V P P v b b ; 8 >.9.s.s.s.0.8.{ { < & & % q.1.> + V V Z Z P S S V P P v v b S S D V V Z Z U S H V P P ",
"b b B S S D V V Z Z L H S z P P v v b ; > } ] / #.8.a.s.3 & K P b b 6 3 1 i V V C Z P S S D P P b v b H S D V V Z Z H S H z I P ",
"b b A H S S D D Z C P S S z I I b b m : @ a a ..O.-.a.d.3 > T I b n - i u S D D C C P H S z I I b v m H S D V V V D P S S z I I ",
"b b z S S D z z l z S S S z S H b v V S S A V V 6.' r.d.> , S S v v z S S D z z z l S S S z S S b b z S S D V V m V S H H z H H ",
"c b z S S D V z N l S S H z S S b v B S S V V C ` | r.r., , S S v v V S S D z B z z S S S z S S b b z H S D V V m B S S S z S S ",
"c c V S S S D V l z B S S S S S b b S F F S K P # } %.4.< : H S c c V S S S D z m V D H S S S S b b S D D S P P V B V S S S S S ",
"c c D S S A D D N l V S A S S S b b S D D S K U B e E E S A S H c c V S S A D D V m z S S S S S b b S D D S L P N N B S S S S S ",
"c c A S S S A S l z z S S A S P c c U S S H H G C , , , S V P I c c A S S S S A m V z H S S S S c c I S S H S A Z C V S S V I I ",
"c c S S S S A G N z A S S A S S s s n B z B g c M j F S S A P P c v H S S S S S V m A H S A P S s s m V D m v c l j G S S A P P ",
"c c S H S S S S B z F H H A S S s s m m B N c v l M G S S A P P c c H S S S S A m V A S S D S S s s n z m D v c M M G S S D P P ",
"c c z H H S S F B m B S S z S S c c I P K U J S N N V S S V I I c c z H H S A S m V V S S V S S c x U K L U S K N z B S S z I I ",
"c c z P S A V V z z k S S z S S v c z z m D F F Z Z D S S m I R c c m H H A z A V V m H A V S S c c m V V F Z F Z Z V S S n R I ",
"c c m S S D V z z z k S H z H H c c z z V Z J F Z Z V S S b R I c c z H S A z z N m m H S z S S c v z z m D J J Z Z V S S k I R ",
"m b G S S S G G m V m H S z I P b b m H S D D z Z Z F H S S R R b b S S S S A F B B m S S z P P b b m P H A z z S F F S S S I R ",
"b b S S S S G F Z m m S S m P H v b D H S D z D Z Z F S S S I R b b S H S S S F N V m S S z S P b b z H H z z z Z Z F S S S R I ",
"c m m P S D Z J F Z K S P m I I v b S S S S A S Z Z L A A A Y R v c z P S D Z J Z Z H S S z R I m m S H S S S S Z Z L A F F R Y ",
"m m m H K G G G Z Z V K H A P P m m m S S D m z Z V I S S V Y Y b b m H H A G G Z Z V S S D P P v m m S S A z z Z Z I H H D Y Y ",
"v v D H H S S G C Z V S H S H P c m z S S A z z Z Z T K H V R Y b v m P S S S K C C C S S A P P v v m I H A z z Z Z U K H V R R ",
"b b m H S D V V Z Z V S H m P P c c D S S A D z m m Z Z J J Z Z b b z H S D C V Z Z V S S m P P c c D S S A z z h n Z J J J Z V ",
"v v m H S z D D Z Z D S H D I I c c z H S S S S g g l N N N l k c m m I S D C V Z Z Z S S z Y R c c D H S S S A h g m C N N m m ",
"v v z H S A z D Z Z D S H m R R c c A S S S A A g g N N N N m l c m z H S V V V Z Z D S S B R Y c c z H S S S S g g N N C B B m ",
"b b z H S D V V Z Z K F F S P I c c m H H S A A Z C P A D D P P v v z P H S z A Z Z U A A S I I c c z S H A D A Z Z K F F V K K ",
"b b z H S V V V Z Z L G S H I I c c z H S S z A Z Z K A D D L P m v m S H z D z Z Z K G A S I P c c z S S A D A Z Z K F F V P K ",
"b b m P S A V Z Z Z L G S D R Y c c D H S z z m B B z H S F I R v v m S S D D D Z Z P A S V Y Y c c D H H V m m C C V S S S Y R ",
"b b S A A S U P N C R R I I I I v v z S S S A D Z Z H H P m P P v v I S F K P P B C Y R R I U U v v z S H A D A C Z S S S z P P ",
"b b S A A S P P B N Y R R R U U v v z S S A D D Z Z J K H z P P c m S S A S U P C C R R I I I I v v z S S A A D Z Z S S S z K P ",
"c c I S S S S A x x b m m m b b c c S H S S A G Z Z P H H H I I c c I H S S G G f f h n m m m v v c H S H S A A Z Z P S S A R R ",
"s s b z z k x x k j R V F z F A d d H S H D Z Z V Z H S H m H H s s m m m m c c j j Y V V m A A d d H H S D V F C B P S S z P H ",
"s s v z l l x c j j R D F m A F d f H S S D F Z B m H S P m H H s s m z z m x x N m Y V F V A A d d S S S D Z Z N B S S S z S P "
};
