/* XPM */
static char *fish21750846495[] = {
/* columns rows colors chars-per-pixel */
"64 64 163 2 ",
"   c #155139",
".  c #16533D",
"X  c #1E6537",
"o  c #22672F",
"O  c #2C6B2D",
"+  c #2F7D25",
"@  c #206333",
"#  c #226836",
"$  c #2B7832",
"%  c #2F7F31",
"&  c #2B7C3B",
"*  c #387935",
"=  c #002C49",
"-  c #002D4D",
";  c #002F51",
":  c #003255",
">  c #003357",
",  c #003359",
"<  c #00355D",
"1  c #033A5C",
"2  c #003A6A",
"3  c #003F77",
"4  c #0F4841",
"5  c #0C4159",
"6  c #257746",
"7  c #22704C",
"8  c #257849",
"9  c #227554",
"0  c #0C4C6E",
"q  c #19566A",
"w  c #115E6E",
"e  c #004373",
"r  c #004375",
"t  c #014576",
"y  c #0E4A71",
"u  c #004278",
"i  c #00417B",
"p  c #00437E",
"a  c #044978",
"s  c #00487E",
"d  c #0F5478",
"f  c #11527B",
"g  c #215E65",
"h  c #156567",
"j  c #196660",
"k  c #1F6172",
"l  c #2D6D6B",
"z  c #29696D",
"x  c #2A7D76",
"c  c #328516",
"v  c #368C15",
"b  c #3A9311",
"n  c #3D9815",
"m  c #3B931D",
"M  c #348624",
"N  c #3B9726",
"B  c #3C9725",
"V  c #2F853B",
"C  c #328530",
"Z  c #308334",
"A  c #348D31",
"S  c #338E37",
"D  c #3C8B38",
"F  c #409B1A",
"G  c #409D1E",
"H  c #4D9B19",
"J  c #44A318",
"K  c #52A316",
"L  c #58AC14",
"P  c #4A953B",
"I  c #69BD26",
"U  c #62B52A",
"Y  c #62B631",
"T  c #70C725",
"R  c #38875A",
"E  c #4D9E44",
"W  c #49957F",
"Q  c #82E432",
"!  c #8BF435",
"~  c #94FF30",
"^  c #004583",
"/  c #004584",
"(  c #004787",
")  c #004880",
"_  c #00498C",
"`  c #045086",
"'  c #09548E",
"]  c #125C87",
"[  c #005099",
"{  c #005A9E",
"}  c #125F91",
"|  c #1A6993",
" . c #196C9C",
".. c #217397",
"X. c #247696",
"o. c #2D7F93",
"O. c #21779C",
"+. c #005CAC",
"@. c #0F6CA2",
"#. c #1F75A0",
"$. c #006BBE",
"%. c #0C72BB",
"&. c #157EBC",
"*. c #0068C0",
"=. c #0071C9",
"-. c #0074D3",
";. c #0078DA",
":. c #007CE1",
">. c #2C858E",
",. c #32818B",
"<. c #2D8199",
"1. c #2F859D",
"2. c #328695",
"3. c #338FA9",
"4. c #328FAC",
"5. c #4A9F96",
"6. c #49A29C",
"7. c #50A592",
"8. c #44A0A3",
"9. c #49A4A1",
"0. c #4BABAC",
"q. c #4CAEAE",
"w. c #44A9B8",
"e. c #54B8B0",
"r. c #57C0BC",
"t. c #65C6A8",
"y. c #6ED1AB",
"u. c #329FC6",
"i. c #33ABD7",
"p. c #32ADDD",
"a. c #0080E7",
"s. c #0685E5",
"d. c #0084ED",
"f. c #0C91EF",
"g. c #1296EC",
"h. c #068CF1",
"j. c #0088F4",
"k. c #1FA0E7",
"l. c #2DADE0",
"z. c #32AFE0",
"x. c #39A7EC",
"c. c #40B8D2",
"v. c #44BDD3",
"b. c #40B6DE",
"n. c #44BDD9",
"m. c #4EBEDC",
"M. c #57C4C4",
"N. c #5DCBC4",
"B. c #5DCDC8",
"V. c #49C3D5",
"C. c #64D6CD",
"Z. c #66D8CB",
"A. c #6BDCC9",
"S. c #6FE0C7",
"D. c #7BEAC1",
"F. c #80EDBB",
"G. c #87F4BB",
"H. c #82F0BD",
"J. c #84F2BD",
"K. c #89F7B9",
"L. c #8DF9B8",
"P. c #90FCB7",
"I. c #93FFB6",
/* pixels */
"T C J T J J L ~ L J T C T J C J T C J T J J L T L J T C T J C J T C J T J J L ~ L J T C T J C J T C J T J J L T L J T C T J C J ",
"T J J J b J ~ J J J J T J J J J T J C J J J J T J J J T C J J C T J J J b J ~ J J J J T J J J J T J C J J J J T J J J T C J J C ",
"J J T L J b T J J C n T J J n C J J C J ~ J C J J J J T J J J C J J T L J b T J J C n T J J n C J J C J ~ J C J J J J T J J J C ",
"C J J T n J J J T L C J J T ~ J C J J ~ J J J L J T L J L J T J C J J T n J J J T L C J J T ~ J C J J ~ J J J L J T L J L J T J ",
"J J b T b T J b J T C J b J C ~ J C J T J T J C J J T J J J L T J J b T b T J b J T C J b J C ~ J C J T J T J C J J T J J J L T ",
"J T L J n C J J J T J J J J J T J C J J C L C L J J T C J J J T J T L J n C J J J T J J J J J T J C J J C L C L J J T C J J J T ",
"J J T J C J L ~ J J J J T J T C J T L C J J J J C J J J C J T C J J T J C J L ~ J J J J T J T C J T L C J J J J C J J J C J T C ",
"C b T b C J ~ J J J T J J T J T C J T C L ~ J C J J L J C J J T C b T b C J ~ J J J T J J T J T C J T C L ~ J C J J L J C J J T ",
"J b b b b J T J C n J T J C J T J C T J ~ J J C J C J J J L J T J b b b b J T J C n J T J C J T J C T J ~ J J C J C J J J L J T ",
"n C n T L J J J T C J J C n J J n C J J T C J J J J C ~ L J J J n C n T L J J J T C J J C n J J n C J J T C J J J J C ~ L J J J ",
"T J C J L T J b n C J ~ L T b J T L J C J J C T L J C J ~ J C J T J C J L T J b n C J ~ L T b J T L J C J J C T L J C J ~ J C J ",
"J J C J T J J J T L J J ~ J J b L T C J L J C J T J L J T C J b J J C J T J J J T L J J ~ J J b L T C J L J C J T J L J T C J b ",
"J ~ J J T J C n J T J b T b J J J J C J J J J J T J J J J C J J J ~ J J T J C n J T J b T b J J J J C J J J J J T J J J J C J J ",
"J J ~ n C L T C J T J b b J n C J T L J T L T J J J C J L J J C J J ~ n C L T C J T J b b J n C J T L J T L T J J J C J L J J C ",
"C n T C J T b C b J C n J T C J C J T J J T L J L J J C J L J J C n T C J T b C b J C n J T C J C J T J J T L J L J J C J L J J ",
"J C J C J T J b b T J C L J C ~ J C T C J T J b T J J C L J C T J C J C J T J b b T J C L J C ~ J C T C J T J b T J J C L J C T ",
"T C J T J J L T L J T C T J C J ~ C J T J J L ~ L J T C T J C J T C J T J J L T L J T C T J C J ~ C J T J J L ~ L J T C T J C J ",
"T J C J J J J T J J J T C J J C T J J J b J ~ J J J J T J J J J T J C J J J J R _ _ _ _ _ J J C T J J J b J ~ J J J J T J J J J ",
"J J C J T J C J J J J T J J J C J J T L J b T J J C n T J J n C J J C J T J C 9 _ _ _ _ _ J J C J J T L J b T J J C n T J J n C ",
"C J J T J J J L J ~ L J L J T J C J J T n J J J T L C J J T C J C J J I = , _ 3.C.F.P.| _ _ _ J C J J T n J J J T L C J J T C J ",
"J C J T J T J C J J ~ J J J L T J J b T b T J b J T Z G v F % I F % F U - < ' 1.N.F.P.| ' ^ / T J J b T b T J b J T C J b J C T ",
"J C J J C L C L J J T C J J J T J T L J n C J J J T h _ ; = = = = = = = _ X.I.5.= 8.C.L.I.= = T J T L J n C J J J T J J J J J T ",
"J T L C J J J J C J J J C J T C J J T J C J L T N S x X.a r = = , , r t _ X.G.7.q q.C.F.G.= = C J J T J C J L T J J J J T J T C ",
"C J T C L ~ J C J J L J C J J T C b T b C J T J 9 _ t.I.g.j.= = _ _ j.d._  .C.C.C.C.C.C.Z.= = T C b T b C J T J J J T J J T J T ",
"J C T J ~ J J C J C J J J L J T J b b b b J T J j _ e.D.@.{ 2 2 9.9.V.v.$.%.4.u.p.p.z.2.,.O # T J b b b b J T J C n J T J C J T ",
"n C J J T C J J J J C ~ L J J J n C n T L J J J R _ w.C.5 = _ _ I.I.I.K.j.;._ *.j.j.j.1 = J J J n C n T L J J J T C J J C n J J ",
"T L J C J J C T L J C J ~ J C J T J C J L ~ J b X < &.k.1 = w.w.l.l.<.1.n.i.-.*.+.+.+.> = J C J T J C J L ~ J b n C J ~ L T b J ",
"L T C J L J C J T J L J T C J b J J C J ~ J J J * = $.j.1 = C.C.j.j._ ' C.V.j.*._ _ _ ; = C J b J J C J ~ J J J T L J J ~ J J b ",
"J J C J J J J J T J J J J C J J J T J J T J C n o = > < p / f.f.[ [ :.s.C.A.F.c.a.) > M m C J J J T J J T J C n J T J b T b J J ",
"J ~ L J T L T J J J C J L J J C J J T n C L T C o = = = ^ _ j.j._ _ j.h.C.S.I.V.j.p = m L J J C J J T n C L T C J T J b b J n C ",
"C J ~ J J T L J L J J C J L J J C n T C J T b C b J 4 = r.C._ _ I.I.C.Z.I.y._ _ _ < = $ J L J J C n T C J T b C b J C n J T C J ",
"J C T C J T J b T J J C L J C T J C J C J T J b b T   = r.C._ _ I.I.C.C.I.y._ _ _ < = $ L J C T J C J C J T J b b T J C L J C T ",
"T C J T J J L ~ L J T C T J C J T C J T J J L T O = 3 _ M.C.= = I.I.I.K.j.=.= = = + T C T J C J T C J T J J L T L J T C T J C J ",
"T J J J b J ~ J J J J T J J J J T J C J J J J T @ = 3 _ M.C.= = I.I.I.K.j.=.= = = + J T J J J J T J C J J J J T J J J T C J J C ",
"J J T L J b T J J C n T J J n C J J C J ~ J C J @ = 3 _ :.j.= = _ _ _ / = = = @ J C n T J J n C J J C J ~ J C J J J J T J J J C ",
"C J J T n J J J T L C J J T ~ J C J J ! G F F K @ = 3 _ :.j.= = _ _ / / - = = # T L C J J T ~ J C J J ~ J J J L J T L J L J T J ",
"J J b T b T J b J T C J b J C ~ J C J _ ^ = = = = = t _ _ _ = = = = = - _ u = o J T C J b J C ~ J C J T J T J C J J T J J J L T ",
"J T L J n C J J J T J J J J J T J 8 S X.X.g g q 0 e u r u t = = = = r r  .] = o J T J J J J J T J C J J C L C L J J T C J J J T ",
"J J T J C J L ~ J J J J T J T C J _ _ I.I.I.K.Z.z.j./ = = = = = = = j.h.C.q.= P J J J J T J T C J T L C J J J J C J J J C J T C ",
"C b T b C J ~ J J J T J J T J T C _ _ 9.6.W 5.m.b.z.f = . @ = = { { p.p.4.>.P M J J T J J T J T C J T C L ~ J C J J L J C J J T ",
"J b b b b J T J C n J T J C J T J _ _ _ / = y x.m.Z.g = m L = = j.j.Z.B._ w T J C n J T J C J T J C T J ~ J J C J C J J J L J T ",
"n C n T L J J J T C J J C n J J F _ _ V E # 8 f 5.F.z = H J = = p s O.O.D A J J T C J J C n J J n C J J T C J J J J C ~ L J J J ",
"T J C J L T J b n C J ~ L T b J T _ _ C J J # = 5.I.l = Q J = = = = _ ( L T J b n C J ~ L T b J T L J C J J C T L J C J ~ J C J ",
"J J C J T J J J T L J J ~ J J b L U & J L J 6 ^ 6.I.o./ Y C m c m m & B T J J J T L J J ~ J J b L T C J L J C J T J L J T C J b ",
"J ~ J J T J C n J T J b T b J J J J C J J J S _ 9.I.<._ B C J J J ~ J J T J C n J T J b T b J J J J C J J J J J T J J J J C J J ",
"J J ~ n C L T C J T J b b J n C J T L J T _ _ _ _ _ 7 J L J J C J J ~ n C L T C J T J b b J n C J T L J T L T J J J C J L J J C ",
"C n T C J T b C b J C n J T C J C J T J G _ _ _ _ _ V C J L J J C n T C J T b C b J C n J T C J C J T J J T L J L J J C J L J J ",
"J C J C J T J b b T J C L J C ~ J C T C J T J b T J J C L J C T J C J C J T J b b T J C L J C ~ J C T C J T J b T J J C L J C T ",
"T C J T J J L T L J T C T J C J ~ C J T J J L ~ L J T C T J C J T C J T J J L T L J T C T J C J ~ C J T J J L ~ L J T C T J C J ",
"T J C J J J J T J J J T C J J C T J J J b J ~ J J J J T J J J J T J C J J J J T J J J T C J J C T J J J b J ~ J J J J T J J J J ",
"J J C J T J C J J J J T J J J C J J T L J b T J J C n T J J n C J J C J T J C J J J J T J J J C J J T L J b T J J C n T J J n C ",
"C J J T J J J L J ~ L J L J T J C J J T n J J J T L C J J T C J C J J T J J J L J ~ L J L J T J C J J T n J J J T L C J J T C J ",
"J C J T J T J C J J ~ J J J L T J J b T b T J b J T C J b J C T J C J T J T J C J J ~ J J J L T J J b T b T J b J T C J b J C T ",
"J C J J C L C L J J T C J J J T J T L J n C J J J T J J J J J T J C J J C L C L J J T C J J J T J T L J n C J J J T J J J J J T ",
"J T L C J J J J C J J J C J T C J J T J C J L T J J J J T J T C J T L C J J J J C J J J C J T C J J T J C J L T J J J J T J T C ",
"C J T C L ~ J C J J L J C J J T C b T b C J T J J J T J J T J T C J T C L ~ J C J J L J C J J T C b T b C J T J J J T J J T J T ",
"J C T J ~ J J C J C J J J L J T J b b b b J T J C n J T J C J T J C T J ~ J J C J C J J J L J T J b b b b J T J C n J T J C J T ",
"n C J J T C J J J J C ~ L J J J n C n T L J J J T C J J C n J J n C J J T C J J J J C ~ L J J J n C n T L J J J T C J J C n J J ",
"T L J C J J C T L J C J ~ J C J T J C J L ~ J b n C J ~ L T b J T L J C J J C T L J C J ~ J C J T J C J L ~ J b n C J ~ L T b J ",
"L T C J L J C J T J L J T C J b J J C J ~ J J J T L J J ~ J J b L T C J L J C J T J L J T C J b J J C J ~ J J J T L J J ~ J J b ",
"J J C J J J J J T J J J J C J J J T J J T J C n J T J b T b J J J J C J J J J J T J J J J C J J J T J J T J C n J T J b T b J J ",
"J ~ L J T L T J J J C J L J J C J J T n C L T C J T J b b J n C J ~ L J T L T J J J C J L J J C J J T n C L T C J T J b b J n C ",
"C J ~ J J T L J L J J C J L J J C n T C J T b C b J C n J T C J C J ~ J J T L J L J J C J L J J C n T C J T b C b J C n J T C J ",
"J C T C J T J b T J J C L J C T J C J C J T J b b T J C L J C T J C T C J T J b T J J C L J C T J C J C J T J b b T J C L J C T "
};
