/* XPM */
static char *result[] = {
/* columns rows colors chars-per-pixel */
"30 30 135 2 ",
"   c #041838",
".  c #12333C",
"X  c #001F42",
"o  c #0E2D42",
"O  c #0A314D",
"+  c #133E46",
"@  c #153449",
"#  c #10394F",
"$  c #193C4D",
"%  c #093E5A",
"&  c #133E55",
"*  c #133F5A",
"=  c #17404E",
"-  c #07435F",
";  c #0D4B5F",
":  c #154050",
">  c #1A4753",
",  c #14455F",
"<  c #1B445E",
"1  c #22404C",
"2  c #214855",
"3  c #22435A",
"4  c #21495A",
"5  c #044666",
"6  c #0E4464",
"7  c #0C4864",
"8  c #03466F",
"9  c #0D466B",
"0  c #044B6B",
"q  c #0B4A6B",
"w  c #134663",
"e  c #1B4661",
"r  c #144A64",
"t  c #15446C",
"y  c #19466C",
"u  c #124A6B",
"i  c #194B6D",
"p  c #105260",
"a  c #155069",
"s  c #0B4671",
"d  c #054B73",
"f  c #0A4C71",
"g  c #114D71",
"h  c #0D5476",
"j  c #075379",
"k  c #155672",
"l  c #1C5B7D",
"z  c #214561",
"x  c #205A7A",
"c  c #196174",
"v  c #236275",
"b  c #27607B",
"n  c #396A7A",
"m  c #1B5C80",
"M  c #1C6180",
"N  c #1B6F82",
"B  c #176A8C",
"V  c #206886",
"C  c #3D6386",
"Z  c #396980",
"A  c #267188",
"S  c #256590",
"D  c #2D7595",
"F  c #2C759C",
"G  c #2F799D",
"H  c #337D97",
"J  c #3A7F99",
"K  c #367DA3",
"L  c #43738F",
"P  c #457E9E",
"I  c #22808B",
"U  c #2B8198",
"Y  c #3A8297",
"T  c #33829D",
"R  c #3A829C",
"E  c #2E85A1",
"W  c #3383A3",
"Q  c #3984A2",
"!  c #3D8DA2",
"~  c #398CA8",
"^  c #3E96A2",
"/  c #408196",
"(  c #4682A2",
")  c #4989A3",
"_  c #408CAC",
"`  c #5A86A3",
"'  c #5794A7",
"]  c #5193AC",
"[  c #5D9BB8",
"{  c #6994B5",
"}  c #5BA2BC",
"|  c #65A3BF",
" . c #6DA4BB",
".. c #1EBFC9",
"X. c #6C9FC0",
"o. c #5EAAD1",
"O. c #63A4C7",
"+. c #79ADCE",
"@. c #68B0C6",
"#. c #63B4CB",
"$. c #6FB0CE",
"%. c #7ABCCD",
"&. c #6AB3D0",
"*. c #6FBDD6",
"=. c #6EBCDA",
"-. c #76B7D4",
";. c #7CB5D1",
":. c #73BCD5",
">. c #7CBBD4",
",. c #75B6DA",
"<. c #7EB7D8",
"1. c #74BCDB",
"2. c #7ABCDB",
"3. c #76C0D6",
"4. c #79C1D4",
"5. c #7AC4DC",
"6. c #7DCAD9",
"7. c #7ECEE9",
"8. c #81BCDB",
"9. c #8DC0D5",
"0. c #83C4DD",
"q. c #8DCBDF",
"w. c #8BD6EB",
"e. c #8EDBEA",
"r. c #96D2EB",
"t. c #94E5F7",
"y. c #9AE3F2",
"u. c #9EEBFA",
"i. c #A4E7F6",
"p. c #A5ECFE",
"a. c #ABEDFF",
"s. c #B1ECFF",
"d. c #A5F1FE",
"f. c #ABF2FF",
"g. c None",
/* pixels */
"g.g.g.g.g.g.g.g.g.g.g.g.g.g.g.g.g.g.g.g.g.g.g.g.g.g.g.g.g.g.",
"g.g.g.g.g.g.g.g.g.g.g.g.g.g.g.g.g.g.g.g.g.g.g.g.g.g.g.g.g.g.",
"g.g.g.g.g.g.g.g.g.g.g.g.g.g.g.g.g.g.g.r w , , r w e g.g.g.g.",
"g.g.g.g.g.g.g.g.g.g.g.g.g.g.g.g.g.g.g.8 0 5 q q 8 7 g.g.g.g.",
"g.g.g.g.g.g.g.g.g.g.g.g.g.g.g.g.g.4 w 1.2.<.2.,.m q g.g.g.g.",
"g.g.g.g.g.g.g.g.g.g.g.g.g.g.g.g.g.i k 0.8.{ +.<.x q   g.g.g.",
"g.g.g.g.g.g.g.g.g.@ e w 7 w y 9 5 U J s.8.o L 8.b q d y g.g.",
"g.g.g.g.g.g.g.g.o L P c V f s S B W H r.q.` { -.) Q 8 t g.g.",
"g.g.g.g.g.g.g.+ w O.5.T W 8 8 K Q E T 1.0.s.r.<.3.3.i 3 g.g.",
"g.g.g.g.g.g.g.o u K _ h j F F &.@.y.e.~ ^ ] O.-.A l g.g.g.g.",
"g.g.g.g.g.g.g.p u F K d 0 K W 1.-.a.f.U T R [ 2.l ; g.g.g.g.",
"g.g.g.g.g.g.g.g.g.& 8 F Q -.>.i.a.f.f.d.t.:./ w g.g.g.g.g.g.",
"g.g.g.g.g.g.g.g.g.$ u Q T 3.%.a.d.p.f.f.u.2./ < g.g.g.g.g.g.",
"g.g.g.g.g.g.g.g.g.$ 5 =.:.d.f.f.d.d.d.>.O.g O g.g.g.g.g.g.g.",
"g.g.g.g.g.g.g.g.g., q 1.:.a.a.a.a.a.a.>. .e . g.g.g.g.g.g.g.",
"g.g.g.g.w u e < u F K ,.<.8.%.>.;.9 9 q & g.g.g.g.g.g.g.g.g.",
"g.g.g.g.q h t 6 6 D T -.>.1.3.3.=.f q 7 $ g.g.g.g.g.g.g.g.g.",
"g.g.3 r :.5.s.a.f.5.3.Y J 0 0 0 f ,.2.; > g.g.g.g.g.g.g.g.g.",
"g.g.< i *.5.p.p.p.6.3.Y Y r , , % 8.-.6 : g.g.g.g.g.g.g.g.g.",
"g.g.< 9 W T H } 4.i.p.q , g.g.g.g.z 9 9 c g.g.g.g.g.g.g.g.g.",
"g.g.4 $ n n ^ ' #.i.a.0 6 g.g.g.g.2 N v g.g.g.g.g.g.g.g.g.g.",
"g.g.g.g.g.g.g...U w.a.5 w g.g.g.g.g.g.g.g.g.g.g.g.g.g.g.g.g.",
"g.g.g.g.g.g.g.I W w.w.7 w g.g.g.g.g.g.g.g.g.g.g.g.g.g.g.g.g.",
"g.g.g.g.g.g.g.1 W o.1.r 3 g.g.g.g.g.g.g.g.g.g.g.g.g.g.g.g.g.",
"g.g.g.g.g.g.g.g.h m l g.g.g.g.g.g.g.g.g.g.g.g.g.g.g.g.g.g.g.",
"g.g.g.g.g.g.g.g.w w , g.g.g.g.g.g.g.g.g.g.g.g.g.g.g.g.g.g.g.",
"g.g.g.g.g.g.g.g.g.g.g.g.g.g.g.g.g.g.g.g.g.g.g.g.g.g.g.g.g.g.",
"g.g.g.g.g.g.g.g.g.g.g.g.g.g.g.g.g.g.g.g.g.g.g.g.g.g.g.g.g.g.",
"g.g.g.g.g.g.g.g.g.g.g.g.g.g.g.g.g.g.g.g.g.g.g.g.g.g.g.g.g.g.",
"g.g.g.g.g.g.g.g.g.g.g.g.g.g.g.g.g.g.g.g.g.g.g.g.g.g.g.g.g.g."
};
