/* XPM */
static char *result[] = {
/* columns rows colors chars-per-pixel */
"69 69 209 2 ",
"   c #020101",
".  c #0A0505",
"X  c #0C0807",
"o  c #0C0A0B",
"O  c #090509",
"+  c #130D0C",
"@  c #1B0D0C",
"#  c #1D100E",
"$  c #1B0D12",
"%  c #150F10",
"&  c #151211",
"*  c #1C1212",
"=  c #1A1617",
"-  c #25140E",
";  c #241513",
":  c #2C1614",
">  c #271A16",
",  c #2C1A14",
"<  c #25191B",
"1  c #2C1C1B",
"2  c #28151C",
"3  c #321D1B",
"4  c #311F15",
"5  c #220B17",
"6  c #2E211D",
"7  c #32221D",
"8  c #3B251B",
"9  c #372415",
"0  c #2B1E24",
"q  c #341F21",
"w  c #252024",
"e  c #2B2423",
"r  c #2C272B",
"t  c #352523",
"y  c #3B2524",
"u  c #362924",
"i  c #3B2925",
"p  c #352B2B",
"a  c #3C2D2A",
"s  c #37302E",
"d  c #3D312E",
"f  c #362E30",
"g  c #3D3330",
"h  c #3B3539",
"j  c #471E11",
"k  c #452819",
"l  c #5A2A11",
"z  c #512A15",
"x  c #5F3015",
"c  c #53240D",
"v  c #7C3B0E",
"b  c #7A340D",
"n  c #663519",
"m  c #743A16",
"M  c #7E3913",
"N  c #79381C",
"B  c #422D2B",
"V  c #492C21",
"C  c #42332E",
"Z  c #493528",
"A  c #503027",
"S  c #423531",
"D  c #453835",
"F  c #453C3D",
"G  c #4C3D3B",
"H  c #4A3737",
"J  c #523D3B",
"K  c #533B31",
"L  c #663620",
"P  c #78431B",
"I  c #4F433C",
"U  c #54433D",
"Y  c #5C453A",
"T  c #674439",
"R  c #7B4628",
"E  c #453943",
"W  c #713745",
"Q  c #584343",
"!  c #574945",
"~  c #5B4D4C",
"^  c #594846",
"/  c #5C5256",
"(  c #4E4444",
")  c #654C48",
"_  c #61504B",
"`  c #685349",
"'  c #635652",
"]  c #6A5956",
"[  c #6B5C5A",
"{  c #665855",
"}  c #735651",
"|  c #6E625E",
" . c #7A665D",
".. c #796257",
"X. c #6F5B63",
"o. c #6F6460",
"O. c #746463",
"+. c #7A6763",
"@. c #7A6A64",
"#. c #786B68",
"$. c #766D70",
"%. c #7C716A",
"&. c #833B15",
"*. c #963E10",
"=. c #884716",
"-. c #914210",
";. c #85400B",
":. c #AB4E09",
">. c #B64E0A",
",. c #B85709",
"<. c #BA5F11",
"1. c #BE6209",
"2. c #8C5E3E",
"3. c #B4682B",
"4. c #AA6A39",
"5. c #CB5E05",
"6. c #C65B02",
"7. c #D45508",
"8. c #CB6204",
"9. c #CC610A",
"0. c #C5640A",
"q. c #D56D0D",
"w. c #D96D0A",
"e. c #D66A06",
"r. c #C46419",
"t. c #D56D10",
"y. c #D86D11",
"u. c #D6710D",
"i. c #CC7529",
"p. c #815243",
"a. c #884D58",
"s. c #A45953",
"d. c #916554",
"f. c #A76356",
"g. c #8B746C",
"h. c #977968",
"j. c #827373",
"k. c #8A7D7B",
"l. c #887A76",
"z. c #927F7B",
"x. c #A66773",
"c. c #DA6871",
"v. c #BA865E",
"b. c #8B817C",
"n. c #D59458",
"m. c #CD8C52",
"M. c #CB9765",
"N. c #DFA36F",
"B. c #D8A779",
"V. c #8C7F82",
"C. c #E27F80",
"Z. c #8E8081",
"A. c #978A86",
"S. c #9D918E",
"D. c #9D9391",
"F. c #A78C84",
"G. c #A99B8F",
"H. c #A29490",
"J. c #A59C99",
"K. c #B9A69B",
"L. c #ADA5A3",
"P. c #AFA8A4",
"I. c #BCACA4",
"U. c #B3ACAA",
"Y. c #BCB3AE",
"T. c #B6B2AE",
"R. c #B0AEB2",
"E. c #BCB6B2",
"W. c #BAB7B5",
"Q. c #CFAB8B",
"!. c #CCAA99",
"~. c #D4A898",
"^. c #E1BB95",
"/. c #C5B4A8",
"(. c #C3BBB5",
"). c #C9BEB9",
"_. c #C3BAB7",
"`. c #EABAB6",
"'. c #D1C1AE",
"]. c #CCC2BB",
"[. c #D6C8BB",
"{. c #E5D0BC",
"}. c #CECAC7",
"|. c #CEC7C5",
" X c #D4C9C4",
".X c #D5CBC9",
"XX c #DAD4CE",
"oX c #DDD5D1",
"OX c #DCD9D6",
"+X c #E4D8CB",
"@X c #E4DEDB",
"#X c #E5DDD5",
"$X c #E9E1D9",
"%X c #F1E9DF",
"&X c #E7E6E4",
"*X c #E9E4E3",
"=X c #ECE9E4",
"-X c #EAECEC",
";X c #F1EEEB",
":X c #F2E9E3",
">X c #F3F2EE",
",X c #FAF6EC",
"<X c #F4EFF2",
"1X c #F5F4F2",
"2X c #F9F7F5",
"3X c #FCFAF5",
"4X c #FAFCFA",
"5X c #F7FAF6",
"6X c None",
/* pixels */
"6X6X6X6X6X6X6X6X6X6X6X6X6X6X6X6X6X6X6X6X6X6X6X6X6X6X6X6X6X6X6X6X6X6X6X6X6X6X6X6X6X6X6X6X6X6X6X6X6X6X6X6X6X6X6X6X6X6X6X6X6X6X6X6X6X6X6X6X6X",
"6X6X6X6X6X6X6X6X6X6X6X6X6X6X6X6X6X6X6X6X6X6X6X6X6X6X6X6X6X6X6X6X6X6X6X6X6X6X6X6X6X6X6X6X6X6X6X6X6X6X6X6X6X6X6X6X6X6X6X6X6X6X6X6X6X6X6X6X6X",
"6X6X6X6X6X6X6X6X6X6X6X6X6X6X6X6X6X6X6X6X6X6X6X6X6X6X6X6X6X6X6X6X6X6X6X6X6X6X6X6X6X6X6X6X6X6X6X6X6X6X6X6X6X6X6X6X6X6X6X6X6X6X6X6X6X6X6X6X6X",
"6X6X6X6X6X6X6X6X6X6X6X6X6X6X6X6X6X6X6X6X6X6X6X6X6X6X6X6X6X6X6X6X6X6X6X6X6X6X6X6X6X6X6X6X6X6X6X6X6X6X6X6X6X6X6X6X6X6X6X6X6X6X6X6X6X6X6X6X6X",
"6X6X6X6X6X6X6X6X6X6X6X6X6X6X6X6X6X6X6X6X6X6X6X6X6X6X6X6X6X6X6X6X6X6X6X6X6X6X6X6X6X6X6X6X6X6X6X6X6X6X6X6X6X6X6X6X6X6X6X6X6X6X6X6X6X6X6X6X6X",
"6X6X6X6X6X6X6X6X6X6X6X6X6X6X6X6X6X6X6X6X6X6X6X6X6X6X6X6X6X6X6X6X6X6X6X6X6X6X6X6X6X6X6X6X6X6X6X6X6X6X6X6X6X6X6X6X6X6X6X6X6X6X6X6X6X6X6X6X6X",
"6X6X6X6X6X6X6X6X6X6X6X6X6X6X6X6X6X6X6X6X6X6X6X6X6X6X6X6X6X6X6X6X6X6X6X6X6X6X6X6X6X6X6X6X6X6X6X6X6X6X6X6X6X6X6X6X6X6X6X6X6X6X6X6X6X6X6X6X6X",
"6X6X6X6X6X6X6X6X6X6X6X6X6X6X6X6X6X6X6X6X6X6X6X6X6X6X6X6X6X6X6X6X6X6X6X6X6X6X6X6X6X6X6X6X6X6X6X6X6X6X6X6X6X6X6X6X6X6X6X6X6X6X6X6X6X6X6X6X6X",
"6X6X6X6X6X6X6X6X6X6X6X6X6X6X6X6X6X6X6X6X6X6X6X6X6X6X6X6X6X6X6X6X6X6X6X6X6X6X6X6X6X6X6X6X6X6X6X6X6X6X6X6X6X6X6X6X6X6X6X6X6X6X6X6X6X6X6X6X6X",
"6X6X6X6X6X6X6X6X6X6X6X6X6X6X6X6X6X6X6X6X6X6X6X6X6X6X6X6X6X6X6X6X6X6X6X6X6X6X6X6X6X6X6X6X6X6X6X6X6X6X6X6X6X6X6X6X6X6X6X6X6X6X6X6X6X6X6X6X6X",
"6X6X6X6X6X6X6X6X6X6X6X6X6X6X6X6X6X6X6X6X6X6X6X6X6X6X6X6X6X6X6X6X6X6X6X6X6X6X6X6X6X6X6X6X6X6X6X6X6X6X6X6X6X6X6X6X6X6X6X6X6X6X6X6X6X6X6X6X6X",
"6X6X6X6X6X6X6X6X6X6X6X6X6X6X6X6X6X6X6X6X6X6X6X6X6X6X6X6X6X6X6X6X6X6X6X6X6X6X6X6X6X6X6X6X6X6X6X6X6X6X6X6X6X6X6X6X6X6X6X6X6X6X6X6X6X6X6X6X6X",
"6X6X6X6X6X6X6X6X6X6X6X6X6X6X6X6X6X6X6X6X6X6X6X6X6X6X6X6X6X6X6X6X6X6X6X6X6X6X6X6X6X6X6X6X6X6X6X6X6X6X6X6X6X6X6X6X6X6X6X6X6X6X6X6X6X6X6X6X6X",
"6X6X6X6X6X6X6X6X6X6X6X6X6X6X6X6X6X6X6X6X6X6X6X6X6X6X6X6X6X6X6X6X6X6X6X6X6X6X6X6X6X6X6X6X6X6X6X6X6X6X6X6X6X6X6X6X6X6X6X6X6X6X6X6X6X6X6X6X6X",
"6X6X6X6X6X6X6X6X6X6X6X6X6X6X6X6X6X6X6X6X6X6X6X6X6X6X6X6X6X6X6X6X6X6X6X6X6X6X6X6X6X6X6X6X6X6X6X6X6X6X6X6X6X6X6X6X6X6X6X6X6X6X6X6X6X6X6X6X6X",
"6X6X6X6X6X6X6X6X6X6X6X6X6X6X6X6X6X6X6X6X6X6X6X6X6X6X6X6X6X6X6X6X6X6X6X6X6X6X6X6X6X6X6X6X6X6X6X6X6X6X6X6X6X6X6X6X6X6X6X6X6X6X6X6X6X6X6X6X6X",
"6X6X6X6X6X6X6X6X6X6X6X6X6X6X6X6X6X6X6X6X6X6X6X6X6X6X6X6X6X6X6X6X6X6X6X6X6X6X6X6X6X6X6X6X6X6X6X6X6X6X6X6X6X6X6X6X6X6X6X6X6X6X6X6X6X6X6X6X6X",
"6X6X6X6X6X6X6X6X6X6X6X6X6X6X6X6X6X6X6X6X6X6X6X6X6X6X6X6X6X6X6X6X6X6X6X6X6X6X6X6X6X6X6X6X6X6X6X6X6X6X6X6X6X6X6X6X6X6X6X6X6X6X6X6X6X6X6X6X6X",
"6X6X6X6X6X6X6X6X6X6X6X6X6X6X6X6X6X6X6X6X6X6X6X6X6X6X6X6X6X6X6X6X6X6X6X6X6X6X6X6X6X6X6X6X6X6X6X6X6X6X6X6X6X6X6X6X6X6X6X6X6X6X6X6X6X6X6X6X6X",
"6X6X6X6X6X6X6X6X6X6X6X6X6X6X6X6X6X6X6X6X6X6X6X6X6X6X6X6X6X6X6X6X6X6X6X6X6X6X6X6X6X6X6X6X6X6X6X6X6X6X6X6X6X6X6X6X6X6X6X6X6X6X6X6X6X6X6X6X6X",
"6X6X6X6X6X6X6X6X6X6X6X6X6X6X6X6X6X6X6X6X6X6X6X6X6X6X6X6X6X6X6X6X6X6X6X6X6X6X6X6X6X6X6X6X6X6X6X6X6X6X6X6X6X6X6X6X6X6X6X6X6X6X6X6X6X6X6X6X6X",
"6X6X6X6X6X6X6X6X6X6X6X6X6X6X6X6X6X6X6X6X6X6X6X6X6X6X6X6X6X6X6X6X6X6X6X6X6X6X6X6X6X6X6X6X6X6X6X6X6X6X6X6X6X6X6X6X6X6X6X6X6X6X6X6X6X6X6X6X6X",
"6X6X6X6X6X6X6X6X6X6X6X6X6X6X6X6X6X6X6X6X6X6X6X6X6X6X6X6X6X6X6X6X6X6X6X6X6X6X6X6X6X6X6X6X6X6X6X6X6X6X6X6X6X6X6X6X6X6X6X6X6X6X6X6X6X6X6X6X6X",
"6X6X6X6X6X6X6X6X6X6X6X6X6X6X6X6X6X6X6X6X6X6X6X6X6X6X6X6X6X6X6X6X6X6X6X6X6X6X6X6X6X6X6X6X6X6X6X6X6X6X6X6X6X6X6X6X6X6X6X6X6X6X6X6X6X6X6X6X6X",
"6X6X6X6X6X6X6X6X6X6X6X6X6X6X6X6X6X6X6X6X6X6X6X6X6X6X6X6X6X6X6X6X6X6X6X6X6X6X6X6X6X6X6X6X6X6X6X6X6X6X6X6X6X6X6X6X6X6X6X6X6X6X6X6X6X6X6X6X6X",
"6X6X6X6X6X6X6X6X6X6X6X6X6X6X6X6X6X6X6X6X6X6X6X6X6X6X6X6X6X6X6X6X6X6X6X6X6X6X6X6X6X6X6X6X6X6X6X6X6X6X6X6X6X6X6X6X6X6X6X6X6X6X6X6X6X6X6X6X6X",
"6X6X6X6X6X6X6X6X6X6X6X6X6X6X6X6X6X6X6X6X6X6X6X6X6X6X6X6X6X6X6X6X6X6X6X6X6X6X6X6X6X6X6X6X6X6X6X6X6X6X6X6X6X6X6X6X6X6X6X6X6X6X6X6X6X6X6X6X6X",
"6X6X6X6X6X6X6X6X6X6X6X6X6X6X6X6X6X6X6X6X6X6X6X6X6X6X6X6X6X6X6X6X6X6X6X6X6X6X6X6X6X6X6X6X6X6X6X6X6X6X6X6X6X6X6X6X6X6X6X6X6X6X6X6X6X6X6X6X6X",
"6X6X6X6X6X6X6X6X6X6X6X6X6X6X6X6X6X6X6X6X6X6X6X6X6X6X6X6X6X6X6X6X6X6X6X6X6X6X6X6X6X6X6X6X6X6X6X6X6X6X6X6X6X6X6X6X6X6X6X6X6X6X6X6X6X6X6X6X6X",
"6X6X6X6X6X6X6X6X6X6X6X6X6X6X6X6X6X6X6X6X6X6X6X6X6X6X6X6X6X6X6X6X6X6X6X6X6X6X6X6X6X6X6X6X6X6X6X6X6X6X6X6X6X6X6X6X6X6X6X6X6X6X6X6X6X6X6X6X6X",
"6X6X6X6X6X6X6X6X6X6X6X6X6X6X6X6X6X6X6X6X6X6X6X6X6X6X6X3 Z 6X6X6X6X6X6X6X6X6X6X6X6X6X0 J a 6X6X6X6X6X6X6X6X6X6X6X6X6X6X6X6X6X6X6X6X6X6X6X6X",
"6X6X6X6X6X6X6X6X6X6X6X6X6X6X6X6X6X6X6X6X6X6X6X6X6X6X< B g.) 6X6X6X6X6X6X6X6X6X6X6X` [ Q 1 6X6X6X6X6X6X6X6X6X6X6X6X6X6X6X6X6X6X6X6X6X6X6X6X",
"6X6X6X6X6X6X6X6X6X6X6X6X6X6X6X6X6X6X6X6X6X6X6X6X6X6X# J (.L.F + 6X6X6X6X6X6X6X6X! /.].] # 6X6X6X6X6X6X6X6X6X6X6X6X6X6X6X6X6X6X6X6X6X6X6X6X",
"6X6X6X6X6X6X6X6X6X6X6X6X6X6X6X6X6X6X6X6X6X6X6X6X6X6X* ) oX=Xb.s 6X6X6X6X6X6X6Xe F.=X;X .# 6X6X6X6X6X6X6X6X6X6X6X6X6X6X6X6X6X6X6X6X6X6X6X6X",
"6X6X6X6X6X6X6X6X6X6X6X6X6X6X6X6X6X6X6X6X6X6X6X6X6X6X* ) oX3X(.g.p = 6X6X6X= d @.[.>X1X#.# 6X6X6X6X6X6X6X6X6X6X6X6X6X6X6X6X6X6X6X6X6X6X6X6X",
"6X6X6X6X6X6X6X6X6X6X6X6X6X6X6X6X6X6X6X6X6X6X6X6X6X6X@ ` oX4X#XK.` e r p p e { I.:X5X>XO.# 6X6X6X6X6X6X6X6X6X6X6X6X6X6X6X6X6X6X6X6X6X6X6X6X",
"6X6X6X6X6X6X6X6X6X6X6X6X6X6X6X6X6X6X6X6X6X6X6X6X6X6X+ T !.^.N.m.3.=.Z s s s U O.Y.=X>XO.@ 6X6X6X6X6X6X6X6X6X6X6X6X6X6X6X6X6X6X6X6X6X6X6X6X",
"6X6X6X6X6X6X6X6X6X6X6X6X6X6X6X6X6X6X6X6X6X6X6X6X6X6X# n i.i.q.w.e.8.P S s d s u $.OX-XO.* 6X6X6X6X6X6X6X6X6X6X6X6X6X6X6X6X6X6X6X6X6X6X6X6X",
"6X6X6X6X6X6X6X6X6X6X6X6X6X6X6X6X6X6X6X6X6X6X6X6X6X- 8 -.5.q.q.q.w.w.=.D g g d d ~ L.W._ 1 ; 6X6X6X6X6X6X6X6X6X6X6X6X6X6X6X6X6X6X6X6X6X6X6X",
"6X6X6X6X6X6X6X6X6X6X6X6X6X6X6X6X6X6X6X6X6X6X8 , , k =.9.t.q.q.u.q.w.=.S g d g S D { { G i t 7 , 7 6X6X6X6X6X6X6X6X6X6X6X6X6X6X6X6X6X6X6X6X",
"6X6X6X6X6X6X6X6X6X6X6X6X6X6X6X6X6X6X6X6X6X6X9 8 t x <.y.q.t.u.u.q.w.4.g.( s C g D S S C C a y 1 1 6X6X6X6X6X6X6X6X6X6X6X6X6X6X6X6X6X6X6X6X",
"6X6X6X6X6X6X6X6X6X6X6X6X6X6X6X6X6X6X6X6X6X6X6Xe f m r.q.u.q.e.w.w.w.B.+Xb.F d S g S C S C a u < 6X6X6X6X6X6X6X6X6X6X6X6X6X6X6X6X6X6X6X6X6X",
"6X6X6X6X6X6X6X6X6X6X6X6X6X6X6X6X6X6X6X6X6X6X6X$ r m 0.e.1.0.8.8.w.n.+X1X}.| S S g g d C d a i < 6X6X6X6X6X6X6X6X6X6X6X6X6X6X6X6X6X6X6X6X6X",
"6X6X6X6X6X6X6X6X6X6X6X6X6X6X6X6X6X6X6X6X6X6X, 6 w &.8.e.v n m m v.{.;X2X>X_.O.S a a i i a i u 1 > 6X6X6X6X6X6X6X6X6X6X6X6X6X6X6X6X6X6X6X6X",
"6X6X6X6X6X6X6X6X6X6X6X6X6X6X6X6X6X6X6X6X6X6X9 9 w =.r.3.J E E ~ _.;X=X}.=X2XE.' S S U ! ( a 7 1 1 6X6X6X6X6X6X6X6X6X6X6X6X6X6X6X6X6X6X6X6X",
"6X6X6X6X6X6X6X6X6X6X6X6X6X6X6X6X6X6X6X6X6X6X6X1 7 s.!.'.E.R.R.W.*X2XL.] P.;X<X).L.L.T.W.Y.[ i , 6X6X6X6X6X6X6X6X6X6X6X6X6X6X6X6X6X6X6X6X6X",
"6X6X6X6X6X6X6X6X6X6X6X6X6X6X6X6X6X6X6X6X6X6X6X6X1 h.@X4X4X4X2X<X1X<X$.3 $.@X4X4X5X4X4X5X#X@.t 6X6X6X6X6X6X6X6X6X6X6X6X6X6X6X6X6X6X6X6X6X6X",
"6X6X6X6X6X6X6X6X6X6X6X6X6X6X6X6X6X6X6X6X6X6X6X6X6XJ l.J.@X=XD.$.!.`.F.j.H.OX2X4X4X4X4XR.%.D 6X6X6X6X6X6X6X6X6X6X6X6X6X6X6X6X6X6X6X6X6X6X6X",
"6X6X6X6X6X6X6X6X6X6X6X6X6X6X6X6X6X6X6X6X6X6X6X6X6X6X3 d _. XJ $ s.C.~./.).|.*X2X4X5X-XO.; 6X6X6X6X6X6X6X6X6X6X6X6X6X6X6X6X6X6X6X6X6X6X6X6X",
"6X6X6X6X6X6X6X6X6X6X6X6X6X6X6X6X6X6X6X6X6X6X6X6X6X6Xi ; +.+.y 5 s.C.x.O.O.] O.k.J.R.A._ 1 6X6X6X6X6X6X6X6X6X6X6X6X6X6X6X6X6X6X6X6X6X6X6X6X",
"6X6X6X6X6X6X6X6X6X6X6X6X6X6X6X6X6X6X6X6X6X6X6X6X6X6Xu ; y y 3 2 s.c.W 0 2 ; ; 3 p H p C 8 6X6X6X6X6X6X6X6X6X6X6X6X6X6X6X6X6X6X6X6X6X6X6X6X",
"6X6X6X6X6X6X6X6X6X6X6X6X6X6X6X6X6X6X6X6X6X6X6X6X6X6X6 B l.H.H.V.a.a.} / / ~ ~ _ H 0 V &.*.l 6X6X6X6X6X6X6X6X6X6X6X6X6X6X6X6X6X6X6X6X6X6X6X",
"6X6X6X6X6X6X6X6X6X6X6X6X6X6X6X6X6X6X6X6X6X6X6X6X6X6X> U  X1X1X*XX.H V.I./.E._.).A.r L >.7.b - 6X6X6X6X6X6X6X6X6X6X6X6X6X6X6X6X6X6X6X6X6X6X",
"6X6X6X6X6X6X6X6X6X6X6X6X6X6X6X6X6X6X6X6X6X6X6X6X6X: , G .X2X3X4XX.p X.V.(.+X:X3XW.h x >.5.v , 6X6X6X6X6X6X6X6X6X6X6X6X6X6X6X6X6X6X6X6X6X6X",
"6X6X6X6X6X6X6X6X6X6X6X6X6X6X6X6X6X6X6X6X6X6X6X6Xi 9 < t ).3X3X5XX.t q B { I.:X3X].h x >.5.M : O 6X6X6X6X6X6X6X6X6X6X6X6X6X6X6X6X6X6X6X6X6X",
"6X6X6X6X6X6X6X6X6X6X6X6X6X6X6X6X6X6X6X6X6X6X6X6XZ 7 , , O.J. X$X{ B ~ X.^ O..X2X|.E l >.8.M : . 6X6X6X6X6X6X6X6X6X6X6X6X6X6X6X6X6X6X6X6X6X",
"6X6X6X6X6X6X6X6X6X6X6X6X6X6X6X6X6X6X6X6X6X6X6Xo Z q 2 , 3 B [ j.+.A.(.XXb.i H.;X|.I c :.6.m : . 6X6X6X6X6X6X6X6X6X6X6X6X6X6X6X6X6X6X6X6X6X",
"6X6X6X6X6X6X6X6X6X6X6X6X6X6X6X6X6X6X6X6X6X6X6Xo S y S D B : 1 : A.$X3X4XH.i d.+X].I z :.6.N 2   6X6X6X6X6X6X6X6X6X6X6X6X6X6X6X6X6X6X6X6X6X",
"6X6X6X6X6X6X6X6X6X6X6X6X6X6X6X6X6X6X6X6X6X6X6Xo D ` D.L.J. .y @ S.$X,X4XZ.0 R M.M.V V 2.m.p.1 . 6X6X6X6X6X6X6X6X6X6X6X6X6X6X6X6X6X6X6X6X6X",
"6X6X6X6X6X6X6X6X6X6X6X6X6X6X6X6X6X6X6X6X6X6X6X  6  .[.#X1XoX^ @ k.[.#X:XO.2 v 8.1.j u v.Q. .1 . 6X6X6X6X6X6X6X6X6X6X6X6X6X6X6X6X6X6X6X6X6X",
"6X6X6X6X6X6X6X6X6X6X6X6X6X6X6X6X6X6X6X6X6X6X6X  . u +.G.=X4XJ.` { d.b.b.J = &.8.,.j 1 } h.! %   6X6X6X6X6X6X6X6X6X6X6X6X6X6X6X6X6X6X6X6X6X",
"6X6X6X6X6X6X6X6X6X6X6X6X6X6X6X6X6X6X6X6X6X6X6X6X6X  @  .#X3X>X/._ - 4 8 6 ; -.0.<.j $ 8 i &   6X6X6X6X6X6X6X6X6X6X6X6X6X6X6X6X6X6X6X6X6X6X",
"6X6X6X6X6X6X6X6X6X6X6X6X6X6X6X6X6X6X6X6X6X6X6X6X6X    G K./.K.F.H X   & = - 2.B.M.A 0 ; .   6X6X6X6X6X6X6X6X6X6X6X6X6X6X6X6X6X6X6X6X6X6X6X",
"6X6X6X6X6X6X6X6X6X6X6X6X6X6X6X6X6X6X6X6X6X6X6X6X6X6X  o I Y K C @       & * h.+X[.U < +   6X6X6X6X6X6X6X6X6X6X6X6X6X6X6X6X6X6X6X6X6X6X6X6X",
"6X6X6X6X6X6X6X6X6X6X6X6X6X6X6X6X6X6X6X6X6X6X6X6X6X6X6X  X + # o   6X6X6Xo - ..I.G.g X   6X6X6X6X6X6X6X6X6X6X6X6X6X6X6X6X6X6X6X6X6X6X6X6X6X",
"6X6X6X6X6X6X6X6X6X6X6X6X6X6X6X6X6X6X6X6X6X6X6X6X6X6X6X6X6X      6X6X6X6Xo V K _ I &   6X6X6X6X6X6X6X6X6X6X6X6X6X6X6X6X6X6X6X6X6X6X6X6X6X6X",
"6X6X6X6X6X6X6X6X6X6X6X6X6X6X6X6X6X6X6X6X6X6X6X6X6X6X6X6X6X6X6X6X6X6X6X6XO 7 > * X   6X6X6X6X6X6X6X6X6X6X6X6X6X6X6X6X6X6X6X6X6X6X6X6X6X6X6X",
"6X6X6X6X6X6X6X6X6X6X6X6X6X6X6X6X6X6X6X6X6X6X6X6X6X6X6X6X6X6X6X6X6X6X6X6X6X        6X6X6X6X6X6X6X6X6X6X6X6X6X6X6X6X6X6X6X6X6X6X6X6X6X6X6X6X",
"6X6X6X6X6X6X6X6X6X6X6X6X6X6X6X6X6X6X6X6X6X6X6X6X6X6X6X6X6X6X6X6X6X6X6X6X6X6X6X6X6X6X6X6X6X6X6X6X6X6X6X6X6X6X6X6X6X6X6X6X6X6X6X6X6X6X6X6X6X"
};
