/* XPM */
static char *_10cda1b41bb408bd076da566bdbd8e2cXu2RuHyI0SprPXR[] = {
/* columns rows colors chars-per-pixel */
"64 64 212 2 ",
"   c #040201",
".  c #0B0504",
"X  c #0D0804",
"o  c #130B0B",
"O  c #190B08",
"+  c #1F110F",
"@  c #190D11",
"#  c #1D1312",
"$  c #1F1A19",
"%  c #27150B",
"&  c #23130C",
"*  c #2A160D",
"=  c #361E0F",
"-  c #231414",
";  c #2A1612",
":  c #2A1A15",
">  c #241819",
",  c #261A1A",
"<  c #2D1C1B",
"1  c #321B13",
"2  c #331F1D",
"3  c #3A2113",
"4  c #34211D",
"5  c #3D231D",
"6  c #2A1F25",
"7  c #362422",
"8  c #3A2622",
"9  c #372A27",
"0  c #3B2925",
"q  c #3B2D2A",
"w  c #3D302E",
"e  c #3C3131",
"r  c #441F07",
"t  c #49220A",
"y  c #442514",
"u  c #4B2413",
"i  c #4A2B1B",
"p  c #552C16",
"a  c #4E311B",
"s  c #5B3414",
"d  c #533119",
"f  c #5D361B",
"g  c #693207",
"h  c #773B0A",
"j  c #643615",
"k  c #6B3B14",
"l  c #653A19",
"z  c #753E15",
"x  c #412720",
"c  c #412E2B",
"v  c #48342B",
"b  c #553825",
"n  c #433633",
"m  c #4A3936",
"M  c #4D3D39",
"N  c #553B33",
"B  c #533F38",
"V  c #693F21",
"C  c #6A4119",
"Z  c #75431B",
"A  c #794419",
"S  c #53423D",
"D  c #5B433A",
"F  c #6D4227",
"G  c #794725",
"H  c #4C3D40",
"J  c #534542",
"K  c #564A46",
"L  c #5D4A43",
"P  c #594A47",
"I  c #5E504B",
"U  c #5E5254",
"Y  c #614A44",
"T  c #695247",
"R  c #65544D",
"E  c #74594C",
"W  c #7A5A48",
"Q  c #645552",
"!  c #695551",
"~  c #665956",
"^  c #6B5A55",
"/  c #6B5B58",
"(  c #725F5A",
")  c #6D605C",
"_  c #74635C",
"`  c #7C6A61",
"'  c #786866",
"]  c #7E7371",
"[  c #8A4812",
"{  c #95541E",
"}  c #AF4E06",
"|  c #AB5609",
" . c #B65706",
".. c #BC5D03",
"X. c #AF631B",
"o. c #8B5424",
"O. c #87552E",
"+. c #975B24",
"@. c #915A2A",
"#. c #845433",
"$. c #8E5337",
"%. c #905E31",
"&. c #9C5F35",
"*. c #9B6326",
"=. c #9C6335",
"-. c #A4672A",
";. c #B26C2A",
":. c #BE752C",
">. c #A7643C",
",. c #A66A3A",
"<. c #B66D3C",
"1. c #BC7336",
"2. c #B6723E",
"3. c #C36203",
"4. c #C76307",
"5. c #D56C02",
"6. c #D76C03",
"7. c #DA7106",
"8. c #DA710A",
"9. c #CC6D17",
"0. c #E06B01",
"q. c #CD7B2F",
"w. c #C47C37",
"e. c #C87D36",
"r. c #C1773E",
"t. c #CD7D3D",
"y. c #D37E3C",
"u. c #8C654C",
"i. c #81685A",
"p. c #AF6A41",
"a. c #B56D42",
"s. c #B77243",
"d. c #B87343",
"f. c #BE7842",
"g. c #86726B",
"h. c #887672",
"j. c #8E7E7B",
"k. c #C17640",
"l. c #D9822D",
"z. c #C68035",
"x. c #C88037",
"c. c #CE833E",
"v. c #DC8534",
"b. c #D4813C",
"n. c #DB843A",
"m. c #D7893E",
"M. c #DA8B3D",
"N. c #E58B37",
"B. c #EB8E36",
"V. c #E18738",
"C. c #E38A39",
"Z. c #E88E38",
"A. c #EE9236",
"S. c #E4923B",
"D. c #ED9438",
"F. c #EE9A3A",
"G. c #F09636",
"H. c #F59C37",
"J. c #FAA437",
"K. c #F5A038",
"L. c #F9A238",
"P. c #B58354",
"I. c #98847B",
"U. c #B18F72",
"Y. c #D49253",
"T. c #DDA879",
"R. c #D06E8B",
"E. c #958883",
"W. c #9B8C89",
"Q. c #A59185",
"!. c #A39491",
"~. c #A99A98",
"^. c #AEA19D",
"/. c #AAA0A0",
"(. c #B6A8A7",
"). c #BCB1AC",
"_. c #BEBAB8",
"`. c #C78B98",
"'. c #CFB69F",
"]. c #D9BC9E",
"[. c #D795A9",
"{. c #C7B4A5",
"}. c #D0B4AE",
"|. c #C7BDB8",
" X c #C5BEBC",
".X c #E6C59F",
"XX c #C6C1BF",
"oX c #CBC1BC",
"OX c #E4CCB8",
"+X c #CBC4C3",
"@X c #C9C6C5",
"#X c #CECAC9",
"$X c #D4CAC4",
"%X c #D7CBC7",
"&X c #D5D1CF",
"*X c #D6D2D1",
"=X c #DCD6D4",
"-X c #DCD9D8",
";X c #DDD9D9",
":X c #E2C7C5",
">X c #E7DAD5",
",X c #E1DDD9",
"<X c #EBE4DC",
"1X c #EDDCE3",
"2X c #E7E8E2",
"3X c #EBE8E5",
"4X c #F0E6E6",
"5X c #F3F2EE",
"6X c #F4F3F2",
"7X c #F8F8F7",
"8X c #F9F8F7",
"9X c #F9F9F9",
/* pixels */
"a.a.L.G.G.H.G.G.M.M.n.Z.Z.Z.K.K.d.d.y.B.B.Z.D.D.M.M.n.Z.Z.Z.K.K.a.a.L.G.G.H.G.G.M.M.n.Z.Z.Z.K.K.d.d.y.B.B.Z.D.D.M.M.n.Z.Z.Z.K.K.",
"a.a.L.G.G.H.G.G.M.M.n.Z.Z.Z.K.K.d.d.y.B.B.Z.D.D.M.M.n.Z.Z.Z.K.K.a.a.L.G.G.H.G.G.M.M.n.Z.Z.Z.K.K.d.d.y.B.B.Z.D.D.M.M.n.Z.Z.Z.K.K.",
"a.a.y.b.b.V.M.M.M.M.V.B.Z.y.L.L.d.d.y.B.B.V.M.M.M.M.n.Z.Z.y.L.L.a.a.y.b.b.V.M.M.M.M.n.Z.Z.y.L.L.d.d.y.B.B.V.M.M.M.M.n.Z.Z.y.L.L.",
"d.d.b.B.A.V.n.n.M.M.G.B.B.n.G.G.s.s.d.B.B.V.n.n.M.M.G.B.B.n.G.G.d.d.b.B.B.V.n.n.M.M.G.B.B.n.G.G.d.d.d.B.B.V.n.n.M.M.G.B.B.n.G.G.",
"d.d.b.B.A.V.n.n.M.M.G.B.B.n.G.G.s.s.d.B.B.V.n.n.M.M.G.B.B.n.G.G.d.d.b.B.B.V.n.n.M.M.G.B.B.n.G.G.s.s.d.B.B.V.n.n.M.M.G.B.B.n.G.G.",
"d.d.N.B.A.Z.V.V.m.m.G.B.B.y.H.H.d.d.k.B.B.V.n.n.M.M.G.B.B.y.H.H.d.d.N.B.B.Z.V.V.m.m.G.B.B.y.H.H.d.d.k.B.B.V.n.n.M.M.G.B.B.y.H.H.",
"s.s.y.B.B.V.y.y.t.y.Z.B.B.y.B.B.d.d.b.Z.Z.V.n.n.y.y.Z.B.B.y.B.B.s.s.y.B.B.V.y.y.y.c.Z.B.B.y.B.B.d.d.b.Z.Z.V.n.n.y.y.Z.B.B.y.B.B.",
"s.s.y.B.B.V.y.y.t.t.Z.B.B.y.B.B.d.d.b.Z.Z.V.n.n.y.y.Z.B.B.y.B.B.s.s.y.B.B.V.y.y.y.b.Z.B.B.y.B.B.d.d.b.Z.Z.V.n.n.y.y.Z.B.B.y.B.B.",
"a.a.n.B.B.N.n.n.t.t.n.Z.Z.Z.B.B.d.d.A.V.V.Z.D.D.b.b.b.Z.Z.Z.B.B.a.a.n.B.B.N.n.n.y.y.n.B.Z.Z.B.B.d.d.Z.V.V.Z.D.D.b.b.n.Z.B.Z.B.B.",
"a.a.n.B.B.N.n.n.t.t.n.B.Z.Z.B.B.d.d.Z.V.V.Z.D.D.b.b.b.Z.Z.Z.B.B.a.a.n.B.B.N.n.V.t.y.n.B.Z.Z.B.B.d.d.Z.V.V.A.D.D.b.b.n.Z.B.Z.B.B.",
"a.a.N.B.B.B.Z.Z.y.y.b.B.Z.Z.B.B.a.a.H.A.B.A.Z.Z.m.m.n.Z.B.n.H.H.a.a.N.B.B.B.Z.Z.t.t.b.B.Z.Z.B.B.a.a.H.B.B.A.A.Z.m.m.n.Z.B.n.H.H.",
"a.a.B.B.B.B.Z.Z.y.y.N.B.B.N.B.B.$.$.k.b.b.b.a.a.x.x.C.Z.B.N.G.G.a.a.B.B.B.B.Z.Z.t.t.N.B.B.N.B.B.$.$.k.b.b.b.a.a.x.x.C.Z.B.C.G.G.",
"a.a.B.B.B.B.Z.Z.t.t.N.A.B.N.B.B.$.$.k.b.b.b.<.a.x.x.C.B.B.C.G.G.a.a.B.B.B.B.Z.Z.t.t.N.B.B.N.B.B.$.$.k.b.b.b.a.a.z.z.C.Z.B.N.G.G.",
"a.a.y.B.B.B.Z.Z.t.t.b.Z.B.n.B.B.p.p.F.D.D.G.S.S.1.1.b.Z.Z.y.H.H.a.a.y.B.B.B.q.v.t.t.b.Z.Z.n.B.B.p.p.F.D.D.G.S.S.c.c.b.Z.B.y.H.H.",
"a.a.y.B.B.N.n.n.t.t.r.Z.Z.b.B.B.a.a.y.y.y.V.C.w.5 N t.Z.Z.f.H.H.a.a.y.B.B.t.8 N 1.y.r.Z.Z.b.B.B.a.a.y.y.y.V.C.C.M.M.n.Z.B.f.H.H.",
"a.a.y.B.B.N.n.n.t.t.r.Z.Z.n.B.B.a.a.y.y.y.V.C.3 m I.i.w.:.f.H.H.a.a.y.B.x.` g.H i y.r.Z.Z.b.B.B.a.a.y.y.y.V.C.C.M.M.n.Z.B.f.H.H.",
"d.d.Z.B.B.Z.N.N.b.b.t.Z.Z.y.A.A.d.d.y.B.B.V.b.* T %X|.I a B.L.L.d.d.Z.;.i.%X$XR 3 b.t.Z.Z.y.A.A.d.d.y.B.B.V.b.b.M.M.V.Z.Z.B.L.L.",
"d.d.Z.B.Z.Z.N.N.b.b.t.Z.Z.y.A.A.d.d.y.B.B.V.b.% _ ,X3XW.T @.:.L.d.#.,.L !.4X2X^ 3 b.t.Z.Z.y.A.A.d.d.y.B.B.V.b.b.M.M.V.Z.Z.B.L.L.",
"a.a.y.B.Z.V.C.C.M.M.A.B.B.y.L.L.d.d.C.B.B.Z.V.% _ ,X5X|.I.e b -.#.3 J I.%X6X2X^ = M.A.B.B.y.L.L.d.d.Z.B.B.Z.V.V.M.M.G.N.N.Z.L.L.",
"d.d.y.B.Z.N.D.D.m.m.n.Z.Z.C.G.G.s.s.y.B.B.V.y.& _ ,X5X].U.O.l z k 3 S j.XX5X2X/ = m.n.Z.Z.C.G.G.s.s.b.B.B.V.y.y.M.M.H.A.A.n.J.L.",
"d.d.y.B.B.Z.D.D.m.m.n.Z.Z.C.G.G.s.s.y.B.B.V.y.& ' ,X<XY.9.4...3.| d q n h.<X2X) 3 m.n.Z.Z.C.G.G.s.s.y.B.B.V.y.y.M.M.H.A.A.n.J.J.",
"d.d.y.B.B.V.n.n.M.M.n.Z.Z.t.G.G.a.a.V.B.B.N.G r u.OX.Xl.6.6.6...[ v q 9 Q _._.Q 1 G n.Z.Z.t.G.G.a.a.V.B.B.N.n.n.r.r.M.S.S.S.M.M.",
"s.s.y.B.B.V.n.n.M.M.n.Z.Z.y.L.L.a.a.n.{ t y p h X.Y.M.8.6.6...A v q q w m ' ' M 4 4 i d -.y.L.L.a.a.n.B.B.B.Z.Z.<.<.t.c.c.c.t.t.",
"s.s.y.B.B.V.n.n.M.M.n.Z.Z.y.L.L.a.a.n.A * ; p | 6.7.6.6.6.7. .f e e w e w n v c q 8 < , o.y.L.L.a.a.n.B.B.B.Z.Z.<.<.t.c.c.c.t.t.",
"d.d.y.B.B.V.n.n.M.M.D.N.N.B.H.H.a.a.y.B.Z 6 F ..6.6.6.6.7.7.| f q e e e w c w q q 9 < G N.B.H.H.a.a.y.B.B.N.n.n.M.M.D.V.V.n.D.D.",
"d.d.y.B.B.V.n.n.M.M.D.N.N.A.H.H.a.a.y.N.f $ V 3.6.....3.6.0.9.u.Q n w q q 9 q 0 9 8 : Z v.B.H.H.a.a.y.B.B.N.n.n.M.M.D.V.V.n.D.D.",
"d.d.b.Z.Z.V.M.M.M.M.G.Z.Z.n.J.J.a.a.V.A & , z 4.4.h j j [ 4.n.'.~.J q 8 8 8 8 9 8 8 4 : o.n.J.J.a.a.V.B.B.n.t.t.b.b.b.Z.Z.Z.L.L.",
"d.d.A.N.N.B.D.D.b.b.J.L.L.L.H.H.s.s.y.{ = , G 2.f.( U U W f.T.<X#X] K J J K I U P c : 3 -.L.H.H.s.s.y.B.B.Z.V.V.M.M.D.B.B.y.G.G.",
"s.s.A.N.N.B.D.D.b.b.J.L.L.L.H.H.s.s.y.B.+.3 W '.:X#X#X#X+X%X>X6X3X&X+X XXX@X@X@X(.R v -.L.L.H.H.d.d.y.B.B.Z.V.V.M.M.D.B.B.y.G.G.",
"a.a.H.A.A.A.N.N.>.>.2.f.f.f.d.d.s.s.Z.B.B.o.E ).<X8X8X8X8X8X6X1X1X6X8X8X8X9X8X;X^.T #.f.f.f.d.d.s.s.Z.B.B.B.N.N.M.M.G.B.B.N.L.L.",
"$.$.d.y.y.t.a.a.w.w.J.n.n.y.N.N.&.&.A.B.B.V.=.~ ^.3X8X8X8X8X1X[.[.4X8X8X8X8X2XE.D %.J.n.n.y.N.N.&.&.A.B.B.V.M.M.b.b.A.B.B.y.A.A.",
"$.$.d.y.y.t.a.a.w.w.J.n.n.y.N.N.&.&.A.B.B.V.M.O./ |.#X XXX;X:XR.`.>X;X@X+X#X(.P y w.J.n.n.y.N.N.&.&.A.B.B.V.M.M.b.b.A.B.B.y.A.A.",
"a.a.L.G.G.H.G.G.M.M.n.Z.Z.Z.K.K.d.d.y.B.B.Z.D.D.,.~ ~ J Y W.}.[.`.(.E.! L ~ P 0 i M.n.Z.Z.Z.K.K.d.d.y.B.B.Z.D.D.M.M.n.Z.Z.Z.K.K.",
"a.a.L.G.G.H.G.G.M.M.n.Z.Z.Z.K.K.d.d.y.B.B.Z.D.D.l : < D / g.(.%X|.W./ N 8 < < 4 b M.n.Z.Z.Z.K.K.d.d.y.B.B.Z.D.D.M.M.n.Z.Z.Z.K.K.",
"a.a.y.b.b.V.M.M.M.M.n.Z.Z.y.L.L.d.d.y.B.B.V.M.V 1 - < !.(.h.~.2X3X(.h.h.Y < , < b M.n.Z.Z.y.L.L.d.d.y.B.B.V.M.M.M.M.n.Z.Z.y.L.L.",
"d.d.b.B.B.V.n.n.M.M.G.A.B.n.G.G.s.s.d.B.B.V.n.y 4 ; c +X=X/.+X5X8X=X|.%XE.7 5 s k o.G.B.B.n.G.G.s.s.d.B.B.V.n.n.M.M.G.B.B.n.G.G.",
"d.d.b.B.B.V.n.n.M.M.G.B.B.n.G.G.s.s.d.B.B.F x 4 2 * n *X6X3X6X8X8X8X8X8X).e s }  .z o.B.B.n.G.G.s.s.d.B.A.V.n.n.M.M.G.B.B.n.G.G.",
"d.d.N.B.B.Z.V.V.m.m.G.B.B.y.H.H.d.d.k.B.B.F 0 4 2 * M *X6X*X;X6X5X&X=X6X Xn j } 3.A * C B.y.H.H.d.d.k.B.A.V.n.n.M.M.G.B.B.y.H.H.",
"s.s.y.B.B.V.y.y.t.t.Z.B.B.y.B.B.d.d.b.Z.s 1 2 4 1 - M *X;X' j.=X&X] j.;XoXn j  . .k + k B.y.B.B.d.d.b.Z.Z.V.n.n.y.y.Z.B.B.y.B.B.",
"s.s.y.B.B.V.y.y.y.y.Z.B.B.y.B.B.d.d.b.Z.s ; 7 K S 1 M *X#XS Q +X).M T {.{.c j | ..z + k B.y.B.B.d.d.b.Z.Z.V.n.n.y.y.Z.B.B.y.B.B.",
"a.a.n.B.B.N.V.V.y.y.n.Z.Z.Z.B.B.d.d.Z.V.d , L !.!.c M *X#XS P ).~.c l w.r.y b P.Y.W , l Z.Z.B.B.d.d.Z.V.V.Z.D.D.b.b.n.B.Z.Z.B.B.",
"a.a.n.B.B.N.V.V.t.t.n.Z.Z.Z.B.B.d.d.Z.V.d o S Q.)._ ~  X(.m m W.j.7 g ....t 0 I.U.T # l Z.Z.B.B.d.d.Z.V.V.Z.G.G.b.b.n.B.Z.Z.B.B.",
"a.a.N.B.B.B.Z.Z.t.t.b.Z.Z.Z.B.B.a.a.H.B.o.s : B E.|.^.h.R 8 5 J S ; h ....r # Y T < % +.B.Z.B.B.a.a.H.B.B.A.Z.Z.m.m.n.B.Z.n.H.H.",
"a.a.B.B.B.B.Z.Z.t.t.N.B.B.N.B.B.$.$.k.b.b.b.& o ^ %X).N : ; & & & + Z z.e.u @ : # & +.B.B.N.B.B.$.$.k.b.b.b.a.a.x.x.C.B.Z.C.G.G.",
"a.a.B.B.Z.B.Z.Z.y.y.N.B.B.N.B.B.$.$.k.b.b.b.G X $ ` E i 1 X .   . O W ].].D - X O @.N.B.B.N.B.B.$.$.k.b.b.b.a.a.x.x.C.Z.Z.C.G.G.",
"a.a.y.B.Z.Z.Z.Z.y.y.n.Z.B.n.B.B.p.p.F.D.D.G.S.*.. # 1 * & = *.*.1 O E {.{.m X O @.y.n.Z.B.n.B.B.p.p.F.D.D.G.S.S.c.c.b.Z.Z.y.H.H.",
"a.a.y.B.Z.V.n.n.y.y.r.Z.Z.b.B.B.a.a.y.y.y.V.C.C.*.@.. . 1 &.H.H.a : D ` R # . +.y.y.r.Z.Z.b.B.B.a.a.y.y.y.V.C.C.M.M.n.Z.Z.f.H.H.",
"a.a.y.B.Z.N.n.n.t.t.r.Z.Z.b.B.B.a.a.y.y.y.V.C.C.M.M.-.;.:.f.H.H.a : 4 < o   -.n.t.t.r.Z.Z.b.B.B.a.a.y.y.y.V.C.C.M.M.n.Z.Z.f.H.H.",
"d.d.Z.B.B.Z.N.N.b.b.t.Z.Z.y.A.A.d.d.y.B.B.V.b.b.M.M.V.Z.Z.B.L.L.,.3     ;.q.N.N.b.b.t.Z.Z.y.A.A.d.d.y.B.B.V.b.b.M.M.V.Z.Z.B.L.L.",
"d.d.Z.B.B.Z.N.N.b.b.t.Z.Z.y.A.A.d.d.y.B.B.V.n.n.M.M.V.Z.Z.B.L.L.d.a.v.v.Z.Z.N.N.b.b.t.Z.Z.y.A.A.d.d.y.B.B.V.n.n.M.M.V.Z.Z.B.L.L.",
"a.a.y.B.B.V.C.C.M.M.D.B.B.y.K.L.d.d.C.B.B.Z.N.V.M.M.D.N.N.Z.L.L.a.a.y.B.B.V.C.C.M.M.D.B.B.y.K.L.d.d.C.B.B.Z.N.V.M.M.D.N.N.Z.L.L.",
"d.d.y.B.B.Z.D.D.m.m.n.B.Z.C.D.D.d.s.y.B.B.V.y.y.M.M.H.A.A.n.J.J.s.d.y.B.B.Z.D.D.m.m.n.B.Z.C.D.D.d.s.y.B.B.V.y.y.M.M.H.A.A.n.J.J.",
"d.d.y.Z.B.Z.D.D.M.M.n.B.Z.C.G.G.s.s.y.B.B.V.y.y.M.M.H.A.A.n.J.J.d.d.y.Z.B.Z.D.D.M.M.n.B.Z.C.G.G.s.s.y.B.B.V.y.y.M.M.H.A.A.n.J.J.",
"d.d.y.Z.B.V.n.n.M.M.n.Z.Z.t.G.G.a.a.V.B.B.N.n.n.r.r.M.S.S.S.M.M.d.d.y.Z.B.V.n.n.M.M.n.Z.Z.t.G.G.a.a.V.B.B.N.n.n.r.r.M.S.S.S.M.M.",
"s.s.y.Z.B.V.n.n.M.M.n.Z.Z.y.L.L.a.a.n.B.B.B.Z.Z.<.<.t.c.c.c.t.t.s.s.y.Z.B.V.n.n.M.M.n.Z.Z.y.L.L.a.a.n.B.B.B.Z.Z.<.<.t.c.c.c.t.t.",
"s.s.y.B.B.V.n.n.M.M.n.Z.Z.y.L.L.a.a.n.B.B.B.Z.Z.<.<.t.c.c.c.t.t.s.s.y.B.B.V.n.n.M.M.n.Z.Z.y.L.L.a.a.n.B.B.B.Z.Z.<.<.t.c.c.c.t.t.",
"d.d.y.B.B.V.n.n.M.M.D.N.N.B.H.H.a.a.y.B.B.N.n.n.M.M.D.N.V.n.D.D.d.d.y.B.B.V.n.n.M.M.D.N.N.B.H.H.a.a.y.B.B.N.n.n.M.M.D.N.V.n.D.D.",
"d.d.y.B.B.V.n.n.M.M.D.N.N.B.H.H.a.a.y.B.B.N.n.n.M.M.D.N.V.n.D.D.d.d.y.B.B.V.n.n.M.M.D.N.N.B.H.H.a.a.y.B.B.N.n.n.M.M.D.N.V.n.D.D.",
"d.d.b.Z.Z.V.n.n.M.M.G.Z.Z.n.J.J.a.a.V.B.B.n.t.t.b.b.b.B.Z.Z.L.L.d.d.b.Z.Z.V.n.n.M.M.G.Z.Z.n.J.J.a.a.V.B.B.n.t.t.b.b.b.B.Z.Z.L.L.",
"d.d.A.N.N.Z.D.D.b.b.J.L.L.L.H.H.s.s.y.B.B.Z.V.V.M.M.A.B.B.y.G.G.d.d.A.N.N.Z.D.D.b.b.J.L.L.L.H.H.s.s.y.B.B.Z.V.V.M.M.A.B.B.y.G.G.",
"d.d.A.N.N.B.D.D.b.b.J.L.L.L.H.H.s.s.y.B.B.Z.V.V.M.M.D.B.B.y.G.G.d.d.A.N.N.B.D.D.b.b.J.L.L.L.H.H.s.s.y.B.B.Z.V.V.M.M.D.B.B.y.G.G.",
"a.a.H.A.A.A.N.N.>.>.2.f.f.f.d.d.s.s.Z.B.B.Z.N.N.M.M.G.B.B.N.L.L.a.a.H.A.A.A.N.N.>.>.2.f.f.f.d.d.s.s.Z.B.B.Z.N.N.M.M.G.B.B.N.L.L.",
"$.$.d.y.y.t.a.a.w.w.J.n.n.y.N.N.&.&.A.B.B.V.M.M.b.b.A.B.B.y.A.A.$.$.d.y.y.t.a.a.w.w.J.n.n.y.N.N.&.&.A.B.B.V.M.M.b.b.A.B.B.y.A.A.",
"$.$.d.y.y.t.a.a.w.w.J.n.n.y.N.N.&.&.A.B.B.V.M.M.b.b.A.B.B.y.A.A.$.$.d.y.y.t.a.a.w.w.J.n.n.y.N.N.&.&.A.B.B.V.M.M.b.b.A.B.B.y.A.A."
};
