/* XPM */
static char *result[] = {
/* columns rows colors chars-per-pixel */
"69 69 213 2 ",
"   c #020101",
".  c #0B0505",
"X  c #0C0A0B",
"o  c #080608",
"O  c #150E0C",
"+  c #1A0E0C",
"@  c #110706",
"#  c #0E0F15",
"$  c #180D10",
"%  c #171212",
"&  c #1E1413",
"*  c #200F0B",
"=  c #23120D",
"-  c #2E170D",
";  c #30150E",
":  c #231514",
">  c #291614",
",  c #251A16",
"<  c #2B1C16",
"1  c #271A1B",
"2  c #2B1D1B",
"3  c #321F17",
"4  c #331E1B",
"5  c #381F1B",
"6  c #2D2014",
"7  c #2E211D",
"8  c #34211D",
"9  c #3B241D",
"0  c #39291E",
"q  c #281E23",
"w  c #2D2324",
"e  c #29272A",
"r  c #352423",
"t  c #3A2622",
"y  c #342822",
"u  c #3A2A27",
"i  c #352C2C",
"p  c #3D2D2A",
"a  c #3C312E",
"s  c #3E3433",
"d  c #3D3638",
"f  c #302731",
"g  c #461F11",
"h  c #4B260F",
"j  c #432A1D",
"k  c #472719",
"l  c #552F18",
"z  c #5C371E",
"x  c #7E3D0E",
"c  c #613719",
"v  c #683918",
"b  c #733C13",
"n  c #402E2B",
"m  c #432B25",
"M  c #42322E",
"N  c #483127",
"B  c #56382B",
"V  c #583B2C",
"C  c #573728",
"Z  c #413431",
"A  c #4C3533",
"S  c #453934",
"D  c #4C3D37",
"F  c #463A3B",
"G  c #513F3A",
"H  c #543B35",
"J  c #683A21",
"K  c #7B4114",
"L  c #784118",
"P  c #4C403C",
"I  c #57433C",
"U  c #7D4927",
"Y  c #684531",
"T  c #4A3E45",
"R  c #4D4641",
"E  c #564946",
"W  c #594946",
"Q  c #634E48",
"!  c #63514A",
"~  c #68544B",
"^  c #645553",
"/  c #695955",
"(  c #755E54",
")  c #705959",
"_  c #74635D",
"`  c #7B6358",
"'  c #756663",
"]  c #766965",
"[  c #7C6B65",
"{  c #796E6A",
"}  c #8D4B14",
"|  c #84471B",
" . c #8B481A",
".. c #944D18",
"X. c #98501D",
"o. c #8D480E",
"O. c #B04F0F",
"+. c #A7540F",
"@. c #BC5E0C",
"#. c #B4560A",
"$. c #A35814",
"%. c #BF620A",
"&. c #B96519",
"*. c #8D4621",
"=. c #9D5E33",
"-. c #A25C2F",
";. c #B66F32",
":. c #AB622B",
">. c #C65C07",
",. c #C46506",
"<. c #CD6405",
"1. c #CA660B",
"2. c #D56D0A",
"3. c #DA6E0C",
"4. c #D46705",
"5. c #DC7007",
"6. c #CC6D10",
"7. c #D87212",
"8. c #E16C0A",
"9. c #C06D25",
"0. c #DC7F28",
"q. c #D27D34",
"w. c #CA3369",
"e. c #94694B",
"r. c #81695E",
"t. c #B07948",
"y. c #816D6A",
"u. c #897268",
"i. c #937B68",
"p. c #846E71",
"a. c #8B7A72",
"s. c #8B7C7A",
"d. c #867775",
"f. c #997E7B",
"g. c #C55F7A",
"h. c #D78335",
"j. c #BE8453",
"k. c #8D807F",
"l. c #988274",
"z. c #AD9177",
"x. c #DF914B",
"c. c #CF8E51",
"v. c #D38F54",
"b. c #D2935D",
"n. c #D29B6F",
"m. c #D8AD77",
"M. c #8B8080",
"N. c #948684",
"B. c #998A8B",
"V. c #988A84",
"C. c #9E918E",
"Z. c #A58A88",
"A. c #AC9A91",
"S. c #A59B9B",
"D. c #A69A97",
"F. c #A89B8D",
"G. c #ACA19E",
"H. c #B5A69F",
"J. c #ACA4A3",
"K. c #AFAAA7",
"L. c #B4ADAB",
"P. c #B8A8A6",
"I. c #B7B2AF",
"U. c #BEB1AA",
"Y. c #B9AEB1",
"T. c #B6B2B4",
"R. c #BDB3B4",
"E. c #CF8C94",
"W. c #DEB18C",
"Q. c #D2B495",
"!. c #DE9CB1",
"~. c #D88AA8",
"^. c #C7A6A7",
"/. c #C4B3A9",
"(. c #C6B3A7",
"). c #D6BBA7",
"_. c #C6BBB6",
"`. c #DAB2B7",
"'. c #E5C299",
"]. c #D3C4B8",
"[. c #E5C7AD",
"{. c #E3D4BD",
"}. c #CECAC9",
"|. c #CBC5C3",
" X c #D4C7C5",
".X c #D9CFCD",
"XX c #DAD5D4",
"oX c #DEDAD7",
"OX c #DCD7D9",
"+X c #DBD2C9",
"@X c #E0D1C6",
"#X c #E6CDD6",
"$X c #E2DCD5",
"%X c #E2DCDA",
"&X c #EBE4DE",
"*X c #E7E2D4",
"=X c #F0E8DE",
"-X c #DFDFE0",
";X c #ECEAE7",
":X c #ECEDEA",
">X c #EBE6E3",
",X c #F1EDEA",
"<X c #EEF1EA",
"1X c #F4F1EB",
"2X c #F5F5F3",
"3X c #F9F6F5",
"4X c #F7F9F7",
"5X c #F9F9F5",
"6X c #F7F7F9",
"7X c #F6F9F9",
"8X c #FBFBF9",
"9X c #EFF6FA",
"0X c None",
/* pixels */
"0X0X0X0X0X0X0X0X0X0X0X0X0X0X0X0X0X0X0X0X0X0X0X0X0X0X0X0X0X0X0X0X0X0X0X0X0X0X0X0X0X0X0X0X0X0X0X0X0X0X0X0X0X0X0X0X0X0X0X0X0X0X0X0X0X0X0X0X0X",
"0X0X0X0X0X0X0X0X0X0X0X0X0X0X0X0X0X0X0X0X0X0X0X0X0X0X0X0X0X0X0X0X0X0X0X0X0X0X0X0X0X0X0X0X0X0X0X0X0X0X0X0X0X0X0X0X0X0X0X0X0X0X0X0X0X0X0X0X0X",
"0X0X0X0X0X0X0X0X0X0X0X0X0X0X0X0X0X0X0X0X0X0X0X0X0X0X0X0X0X0X0X0X0X0X0X0X0X0X0X0X0X0X0X0X0X0X0X0X0X0X0X0X0X0X0X0X0X0X0X0X0X0X0X0X0X0X0X0X0X",
"0X0X0X0X0X0X0X0X0X0X0X0X0X0X0X0X0X0X0X0X0X0X0X0X0X0X0X0X0X0X0X0X0X0X0X0X0X0X0X0X0X0X0X0X0X0X0X0X0X0X0X0X0X0X0X0X0X0X0X0X0X0X0X0X0X0X0X0X0X",
"0X0X0X0X0X0X0X0X0X0X0X0X0X0X0X0X0X0X0X0X0X0X0X0X0X0X0X0X0X0X0X0X0X0X0X0X0X0X0X0X0X0X0X0X0X0X0X0X0X0X0X0X0X0X0X0X0X0X0X0X0X0X0X0X0X0X0X0X0X",
"0X0X0X0X0X0X0X0X0X0X0X0X0X0X0X0X0X0X0X0X0X0X0X0X0X0X0X0X0X0X0X0X0X0X0X0X0X0X0X0X0X0X0X0X0X0X0X0X0X0X0X0X0X0X0X0X0X0X0X0X0X0X0X0X0X0X0X0X0X",
"0X0X0X0X0X0X0X0X0X0X0X0X0X0X0X0X0X0X0X0X0X0X0X0X0X0X0X0X0X0X0X0X0X0X0X0X0X0X0X0X0X0X0X0X0X0X0X0X0X0X0X0X0X0X0X0X0X0X0X0X0X0X0X0X0X0X0X0X0X",
"0X0X0X0X0X0X0X0X0X0X0X0X0X0X0X0X0X0X0X0X0X0X0X0X0X0X0X0X0X0X0X0X0X0X0X0X0X0X0X0X0X0X0X0X0X0X0X0X0X0X0X0X0X0X0X0X0X0X0X0X0X0X0X0X0X0X0X0X0X",
"0X0X0X0X0X0X0X0X0X0X0X0X0X0X0X0X0X0X0X0X0X0X0X0X0X0X0X0X0X0X0X0X0X0X0X0X0X0X0X0X0X0X0X0X0X0X0X0X0X0X0X0X0X0X0X0X0X0X0X0X0X0X0X0X0X0X0X0X0X",
"0X0X0X0X0X0X0X0X0X0X0X0X0X0X0X0X0X0X0X0X0X0X0X0X0X0X0X0X0X0X0X0X0X0X0X0X0X0X0X0X0X0X0X0X0X0X0X0X0X0X0X0X0X0X0X0X0X0X0X0X0X0X0X0X0X0X0X0X0X",
"0X0X0X0X0X0X0X0X0X0X0X0X0X0X0X0X0X0X0X0X0X0X0X0X0X0X0X0X0X0X0X0X0X0X0X0X0X0X0X0X0X0X0X0X0X0X0X0X0X0X0X0X0X0X0X0X0X0X0X0X0X0X0X0X0X0X0X0X0X",
"0X0X0X0X0X0X0X0X0X0X0X0X0X0X0X0X0X0X0X0X0X0X0X0X0X0X0X0X0X0X0X0X0X0X0X0X0X0X0X0X0X0X0X0X0X0X0X0X0X0X0X0X0X0X0X0X0X0X0X0X0X0X0X0X0X0X0X0X0X",
"0X0X0X0X0X0X0X0X0X0X0X0X0X0X0X0X0X0X0X0X0X0X0X0X0X0X0X0X0X0X0X0X0X0X0X0X0X0X0X0X0X0X0X0X0X0X0X0X0X0X0X0X0X0X0X0X0X0X0X0X0X0X0X0X0X0X0X0X0X",
"0X0X0X0X0X0X0X0X0X0X0X0X0X0X0X0X0X0X0X0X0X0X0X0X0X0X0X0X0X0X0X0X0X0X0X0X0X0X0X0X0X0X0X0X0X0X0X0X0X0X0X0X0X0X0X0X0X0X0X0X0X0X0X0X0X0X0X0X0X",
"0X0X0X0X0X0X0X0X0X0X0X0X0X0X0X0X0X0X0X0X0X0X0X0X0X0X0X0X0X0X0X0X0X0X0X0X0X0X0X0X0X0X0X0X0X0X0X0X0X0X0X0X0X0X0X0X0X0X0X0X0X0X0X0X0X0X0X0X0X",
"0X0X0X0X0X0X0X0X0X0X0X0X0X0X0X0X0X0X0X0X0X0X0X0X0X0X0X0X0X0X0X0X0X0X0X0X0X0X0X0X0X0X0X0X0X0X0X0X0X0X0X0X0X0X0X0X0X0X0X0X0X0X0X0X0X0X0X0X0X",
"0X0X0X0X0X0X0X0X0X0X0X0X0X0X0X0X0X0X0X0X0X0X0X0X0X0X0X0X0X0X0X0X0X0X0X0X0X0X0X0X0X0X0X0X0X0X0X0X0X0X0X0X0X0X0X0X0X0X0X0X0X0X0X0X0X0X0X0X0X",
"0X0X0X0X0X0X0X0X0X0X0X0X0X0X0X0X0X0X0X0X0X0X0X0X0X0X0X0X0X0X0X0X0X0X0X0X0X0X0X0X0X0X0X0X0X0X0X0X0X0X0X0X0X0X0X0X0X0X0X0X0X0X0X0X0X0X0X0X0X",
"0X0X0X0X0X0X0X0X0X0X0X0X0X0X0X0X0X0X0X0X0X0X0X0X0X0X0X0X0X0X0X0X0X0X0X0X0X0X0X0X0X0X0X0X0X0X0X0X0X0X0X0X0X0X0X0X0X0X0X0X0X0X0X0X0X0X0X0X0X",
"0X0X0X0X0X0X0X0X0X0X0X0X0X0X0X0X0X0X0X0X0X0X0X0X0X0X0X0X0X0X0X0X0X0X0X0X0X0X0X0X0X0X0X0X0X0X0X0X0X0X0X0X0X0X0X0X0X0X0X0X0X0X0X0X0X0X0X0X0X",
"0X0X0X0X0X0X0X0X0X0X0X0X0X0X0X0X0X0X0X0X0X0X0X0X0X0X0X0X0X0X0X0X0X0X0X0X0X0X0X0X0X0X0X0X0X0X0X0X0X0X0X0X0X0X0X0X0X0X0X0X0X0X0X0X0X0X0X0X0X",
"0X0X0X0X0X0X0X0X0X0X0X0X0X0X0X0X0X0X0X0X0X0X0X0X0X0X0X0X0X0X0X0X0X0X0X0X0X0X0X0X0X0X0X0X0X0X0X0X0X0X0X0X0X0X0X0X0X0X0X0X0X0X0X0X0X0X0X0X0X",
"0X0X0X0X0X0X0X0X0X0X0X0X0X0X0X0X0X0X0X0X0X0X0X0X0X0X0X0X0X0X0X0X0X0X0X0X0X0X0X0X0X0X0X0X0X0X0X0X0X0X0X0X0X0X0X0X0X0X0X0X0X0X0X0X0X0X0X0X0X",
"0X0X0X0X0X0X0X0X0X0X0X0X0X0X0X0X0X0X0X0X0X0X0X0X0X0X0X0X0X0X0X0X0X0X0X0X0X0X0X0X0X0X0X0X0X0X0X0X0X0X0X0X0X0X0X0X0X0X0X0X0X0X0X0X0X0X0X0X0X",
"0X0X0X0X0X0X0X0X0X0X0X0X0X0X0X0X0X0X0X0X0X0X0X0X0X0X0X0X0X0X0X0X0X0X0X0X0X0X0X0X0X0X0X0X0X0X0X0X0X0X0X0X0X0X0X0X0X0X0X0X0X0X0X0X0X0X0X0X0X",
"0X0X0X0X0X0X0X0X0X0X0X0X0X0X0X0X0X0X0X0X0X0X0X0X0X0X0X0X0X0X0X0X0X0X0X0X0X0X0X0X0X0X0X0X0X0X0X0X0X0X0X0X0X0X0X0X0X0X0X0X0X0X0X0X0X0X0X0X0X",
"0X0X0X0X0X0X0X0X0X0X0X0X0X0X0X0X0X0X0X0X0X0X0X0X0X0X0X0X0X0X0X0X0X0X0X0X0X0X0X0X0X0X0X0X0X0X0X0X0X0X0X0X0X0X0X0X0X0X0X0X0X0X0X0X0X0X0X0X0X",
"0X0X0X0X0X0X0X0X0X0X0X0X0X0X0X0X0X0X0X0X0X0X0X0X0X0X0X0X0X0X0X0X0X0X0X0X0X0X0X0X0X0X0X0X0X0X0X0X0X0X0X0X0X0X0X0X0X0X0X0X0X0X0X0X0X0X0X0X0X",
"0X0X0X0X0X0X0X0X0X0X0X0X0X0X0X0X0X0X0X0X0X0X0X0X0X0X0X0X0X0X0X0X0X0X0X0X0X0X0X0X0X0X0X0X0X0X0X0X0X0X0X0X0X0X0X0X0X0X0X0X0X0X0X0X0X0X0X0X0X",
"0X0X0X0X0X0X0X0X0X0X0X0X0X0X0X0X0X0X0X0X0X0X0X0X0X0X0X0X0X0X0X0X0X0X0X0X0X0X0X0X0X0X0X0X0X0X0X0X0X0X0X0X0X0X0X0X0X0X0X0X0X0X0X0X0X0X0X0X0X",
"0X0X0X0X0X0X0X0X0X0X0X0X0X0X0X0X0X0X0X0X0X0X0X0X0X0X0X4 m 0X0X0X0X0X0X0X0X0X0X0X0X0X2 A 0X0X0X0X0X0X0X0X0X0X0X0X0X0X0X0X0X0X0X0X0X0X0X0X0X",
"0X0X0X0X0X0X0X0X0X0X0X0X0X0X0X0X0X0X0X0X0X0X0X0X0X0X, A u.Q 0X0X0X0X0X0X0X0X0X0X0X~ ( T 8 0X0X0X0X0X0X0X0X0X0X0X0X0X0X0X0X0X0X0X0X0X0X0X0X",
"0X0X0X0X0X0X0X0X0X0X0X0X0X0X0X0X0X0X0X0X0X0X0X0X0X0X& ~ ].U.E X 0X0X0X0X0X0X0X0X! /.]./ & 0X0X0X0X0X0X0X0X0X0X0X0X0X0X0X0X0X0X0X0X0X0X0X0X",
"0X0X0X0X0X0X0X0X0X0X0X0X0X0X0X0X0X0X0X0X0X0X0X0X0X0XO ` oX<Xk.a 0X0X0X0X0X0X0Xw Z.>X;X_ & 0X0X0X0X0X0X0X0X0X0X0X0X0X0X0X0X0X0X0X0X0X0X0X0X",
"0X0X0X0X0X0X0X0X0X0X0X0X0X0X0X0X0X0X0X0X0X0X0X0X0X0XO [ oX5X_.a.i # 0X0X0X% E y._.1X<X' + 0X0X0X0X0X0X0X0X0X0X0X0X0X0X0X0X0X0X0X0X0X0X0X0X",
"0X0X0X0X0X0X0X0X0X0X0X0X0X0X0X0X0X0X0X0X0X0X0X0X0X0X@ [ $X5X+X(.( i p C j 2 [ (.&X5X<X' + 0X0X0X0X0X0X0X0X0X0X0X0X0X0X0X0X0X0X0X0X0X0X0X0X",
"0X0X0X0X0X0X0X0X0X0X0X0X0X0X0X0X0X0X0X0X0X0X0X0X0X0XX [ oX7XW.v.:.} o.+.b 0 P ] T.<X<X] + 0X0X0X0X0X0X0X0X0X0X0X0X0X0X0X0X0X0X0X0X0X0X0X0X",
"0X0X0X0X0X0X0X0X0X0X0X0X0X0X0X0X0X0X0X0X0X0X0X0X0X0X@ y.oX<Xx.2.4.<.4.5...p i y { oX<X{ : 0X0X0X0X0X0X0X0X0X0X0X0X0X0X0X0X0X0X0X0X0X0X0X0X",
"0X0X0X0X0X0X0X0X0X0X0X0X0X0X0X0X0X0X0X0X0X0X0X0X0Xj h e.[.'.h.2.5.5.%.+.Y s a a ^ K.T./ 4 : 0X0X0X0X0X0X0X0X0X0X0X0X0X0X0X0X0X0X0X0X0X0X0X",
"0X0X0X0X0X0X0X0X0X0X0X0X0X0X0X0X0X0X0X0X0X0X- = , l o.&.h.h.3.5.2.2.o.P a a s s S ^ / D u r q < 0 0X0X0X0X0X0X0X0X0X0X0X0X0X0X0X0X0X0X0X0X",
"0X0X0X0X0X0X0X0X0X0X0X0X0X0X0X0X0X0X0X0X0X0X= 8 2 J @.2.2.2.2.2.7.3.L M d s s s Z Z M M M p t q 7 0X0X0X0X0X0X0X0X0X0X0X0X0X0X0X0X0X0X0X0X",
"0X0X0X0X0X0X0X0X0X0X0X0X0X0X0X0X0X0X0X0X0X0X0X< f U >.2.2.2.2.5.7.3.L a s s s s Z M Z a M a u 1 0X0X0X0X0X0X0X0X0X0X0X0X0X0X0X0X0X0X0X0X0X",
"0X0X0X0X0X0X0X0X0X0X0X0X0X0X0X0X0X0X0X0X0X0X0X$ e U 1.2.@.%.,.4.8.8.=._ R s s a M p a n p p y , 0X0X0X0X0X0X0X0X0X0X0X0X0X0X0X0X0X0X0X0X0X",
"0X0X0X0X0X0X0X0X0X0X0X0X0X0X0X0X0X0X0X0X0X0X* < e | 1.<.x v v b >.8.n.|.{ a p u u u u u u u u 7 7 0X0X0X0X0X0X0X0X0X0X0X0X0X0X0X0X0X0X0X0X",
"0X0X0X0X0X0X0X0X0X0X0X0X0X0X0X0X0X0X0X0X0X0X- 6 q *.;.;.Q T T H -.q.[.3XS.E s M Z S D P P n 8 < 7 0X0X0X0X0X0X0X0X0X0X0X0X0X0X0X0X0X0X0X0X",
"0X0X0X0X0X0X0X0X0X0X0X0X0X0X0X0X0X0X0X0X0X0X0X< 4 e.Q.).R.T.Y.Y.(.[.&X6XoXI.J.J.J.K.L.T.L._ a < 0X0X0X0X0X0X0X0X0X0X0X0X0X0X0X0X0X0X0X0X0X",
"0X0X0X0X0X0X0X0X0X0X0X0X0X0X0X0X0X0X0X0X0X0X0X0X1 u.$X8X4X3X6X3X5X6X7X6X6X5X7X6X8X7X7X6X%Xu.i 0X0X0X0X0X0X0X0X0X0X0X0X0X0X0X0X0X0X0X0X0X0X",
"0X0X0X0X0X0X0X0X0X0X0X0X0X0X0X0X0X0X0X0X0X0X0X0X0XH N.].2X8X8X8X8X7X#X~.#X5X8X8X8X8X7XI.{ Z 0X0X0X0X0X0X0X0X0X0X0X0X0X0X0X0X0X0X0X0X0X0X0X",
"0X0X0X0X0X0X0X0X0X0X0X0X0X0X0X0X0X0X0X0X0X0X0X0X0X0Xq s.%X3X3X2X6X9X!.w.`.2X3X3X7X7XoX' : 0X0X0X0X0X0X0X0X0X0X0X0X0X0X0X0X0X0X0X0X0X0X0X0X",
"0X0X0X0X0X0X0X0X0X0X0X0X0X0X0X0X0X0X0X0X0X0X0X0X0X0X0XF D.J.B.k.L.#XE.g.^.OXR.B.C.S.M.G < 0X0X0X0X0X0X0X0X0X0X0X0X0X0X0X0X0X0X0X0X0X0X0X0X",
"0X0X0X0X0X0X0X0X0X0X0X0X0X0X0X0X0X0X0X0X0X0X0X0X0X0X0X0XZ Z 5 5 Q P.^.`.Z.B./ m t Z p t 8 0X0X0X0X0X0X0X0X0X0X0X0X0X0X0X0X0X0X0X0X0X0X0X0X",
"0X0X0X0X0X0X0X0X0X0X0X0X0X0X0X0X0X0X0X0X0X0X0X0X0X0X0X: : & Q d.' f. X1X^.s.Q H m 1 1 t t 0X0X0X0X0X0X0X0X0X0X0X0X0X0X0X0X0X0X0X0X0X0X0X0X",
"0X0X0X0X0X0X0X0X0X0X0X0X0X0X0X0X0X0X0X0X0X0X0X0X0X0X2 8 1 > S.#Xs.p..X8X>XA.a.Z.Q r q w y 0X0X0X0X0X0X0X0X0X0X0X0X0X0X0X0X0X0X0X0X0X0X0X0X",
"0X0X0X0X0X0X0X0X0X0X0X0X0X0X0X0X0X0X0X0X0X0X0X0X0X0X5 u 4 8 |.,XJ.Y.;X8X8X.X X%XN.i m v b l 0X0X0X0X0X0X0X0X0X0X0X0X0X0X0X0X0X0X0X0X0X0X0X",
"0X0X0X0X0X0X0X0X0X0X0X0X0X0X0X0X0X0X0X0X0X0X0X0Xn t t r < r }.3X;X2X8X8X8X8X8X8XJ.d z O.>...j 0X0X0X0X0X0X0X0X0X0X0X0X0X0X0X0X0X0X0X0X0X0X",
"0X0X0X0X0X0X0X0X0X0X0X0X0X0X0X0X0X0X0X0X0X0X0X0XN p r r < p }.8XXX}.:X8X;X|.%X6XR.F c O.<.X.j X 0X0X0X0X0X0X0X0X0X0X0X0X0X0X0X0X0X0X0X0X0X",
"0X0X0X0X0X0X0X0X0X0X0X0X0X0X0X0X0X0X0X0X0X0X0X  j r r 4 1 p }.6Xs./ R.4XR.^ C.:X_.F z #.>. .8 . 0X0X0X0X0X0X0X0X0X0X0X0X0X0X0X0X0X0X0X0X0X",
"0X0X0X0X0X0X0X0X0X0X0X0X0X0X0X0X0X0X0X0X0X0X0X  5 r R D 4 p }.<X^ r S.:XN.8 r.@X(.S z +.>. .8   0X0X0X0X0X0X0X0X0X0X0X0X0X0X0X0X0X0X0X0X0X",
"0X0X0X0X0X0X0X0X0X0X0X0X0X0X0X0X0X0X0X0X0X0X0X  p Q D.N.p p }.2X^ r N.>Xp.2 U v.j.j V t.c.e.p o 0X0X0X0X0X0X0X0X0X0X0X0X0X0X0X0X0X0X0X0X0X",
"0X0X0X0X0X0X0X0X0X0X0X0X0X0X0X0X0X0X0X0X0X0X0X  1 ( (._.W M }.:X^ r { XX) : x ,.@.h M z.Q.i.u o 0X0X0X0X0X0X0X0X0X0X0X0X0X0X0X0X0X0X0X0X0X",
"0X0X0X0X0X0X0X0X0X0X0X0X0X0X0X0X0X0X0X0X0X0X0X  . u ` A.G.N.C.N.A 8 I s.H & o.>.@.h 1 ( i.I %   0X0X0X0X0X0X0X0X0X0X0X0X0X0X0X0X0X0X0X0X0X",
"0X0X0X0X0X0X0X0X0X0X0X0X0X0X0X0X0X0X0X0X0X0X0X0X0X  1 a.&X%X~ 4 5 8 4 0 4 & } 6.@.g $ t a %   0X0X0X0X0X0X0X0X0X0X0X0X0X0X0X0X0X0X0X0X0X0X",
"0X0X0X0X0X0X0X0X0X0X0X0X0X0X0X0X0X0X0X0X0X0X0X0X0X  . D H.A.V 8 > & O O & > e.m.n.C q & .   0X0X0X0X0X0X0X0X0X0X0X0X0X0X0X0X0X0X0X0X0X0X0X",
"0X0X0X0X0X0X0X0X0X0X0X0X0X0X0X0X0X0X0X0X0X0X0X0X0X0X    D C k j O       X > l.*X{.Q 1 O   0X0X0X0X0X0X0X0X0X0X0X0X0X0X0X0X0X0X0X0X0X0X0X0X",
"0X0X0X0X0X0X0X0X0X0X0X0X0X0X0X0X0X0X0X0X0X0X0X0X0X0X0X  . = > , . 0X0X0XX > r.(.F.s .   0X0X0X0X0X0X0X0X0X0X0X0X0X0X0X0X0X0X0X0X0X0X0X0X0X",
"0X0X0X0X0X0X0X0X0X0X0X0X0X0X0X0X0X0X0X0X0X0X0X0X0X0X0X0X0X      0X0X0X0Xo N I ! Z O   0X0X0X0X0X0X0X0X0X0X0X0X0X0X0X0X0X0X0X0X0X0X0X0X0X0X",
"0X0X0X0X0X0X0X0X0X0X0X0X0X0X0X0X0X0X0X0X0X0X0X0X0X0X0X0X0X0X0X0X0X0X0X0X  0 < & .   0X0X0X0X0X0X0X0X0X0X0X0X0X0X0X0X0X0X0X0X0X0X0X0X0X0X0X",
"0X0X0X0X0X0X0X0X0X0X0X0X0X0X0X0X0X0X0X0X0X0X0X0X0X0X0X0X0X0X0X0X0X0X0X0X0X      0X0X0X0X0X0X0X0X0X0X0X0X0X0X0X0X0X0X0X0X0X0X0X0X0X0X0X0X0X",
"0X0X0X0X0X0X0X0X0X0X0X0X0X0X0X0X0X0X0X0X0X0X0X0X0X0X0X0X0X0X0X0X0X0X0X0X0X0X0X0X0X0X0X0X0X0X0X0X0X0X0X0X0X0X0X0X0X0X0X0X0X0X0X0X0X0X0X0X0X"
};
