/* XPM */
static char *_2c8c67531fa4f73bee6c392290b35f6JsHHkT3Pbu7uX8nt[] = {
/* columns rows colors chars-per-pixel */
"64 64 221 2 ",
"   c #030101",
".  c #0A0402",
"X  c #0E0806",
"o  c #0D060A",
"O  c #150C05",
"+  c #140A09",
"@  c #1E0E0C",
"#  c #1C110B",
"$  c #1A0D14",
"%  c #1D1314",
"&  c #240E0D",
"*  c #37090C",
"=  c #2A1308",
"-  c #2A150C",
";  c #32120E",
":  c #261511",
">  c #2A1513",
",  c #231812",
"<  c #2C1A15",
"1  c #24161C",
"2  c #281718",
"3  c #261B1D",
"4  c #2C1B1A",
"5  c #311B14",
"6  c #351F18",
"7  c #342116",
"8  c #3B2417",
"9  c #33221D",
"0  c #2A2021",
"q  c #352723",
"w  c #3A2524",
"e  c #3C2A25",
"r  c #352829",
"t  c #3B2D2A",
"y  c #3E3020",
"u  c #3D312D",
"i  c #3C3131",
"p  c #3B3437",
"a  c #49150D",
"s  c #5A2A0B",
"d  c #472A1B",
"f  c #582A12",
"g  c #4C301D",
"h  c #5D3313",
"j  c #56351C",
"k  c #5B361D",
"l  c #6A270B",
"z  c #662F0C",
"x  c #723509",
"c  c #683F17",
"v  c #673B18",
"b  c #442B27",
"n  c #46342B",
"m  c #563727",
"M  c #4F2B33",
"N  c #473735",
"B  c #4C3B35",
"V  c #4C3D3A",
"C  c #573A33",
"Z  c #523C3A",
"A  c #643E24",
"S  c #623F28",
"D  c #783421",
"F  c #6C421D",
"G  c #74421B",
"H  c #4E403B",
"J  c #54433E",
"K  c #5A453B",
"L  c #68462E",
"P  c #764627",
"I  c #684934",
"U  c #774D37",
"Y  c #524544",
"T  c #5A4542",
"R  c #5C4943",
"E  c #5C4D4B",
"W  c #594B4F",
"Q  c #5F524E",
"!  c #614E46",
"~  c #6C5545",
"^  c #62514E",
"/  c #77584A",
"(  c #635453",
")  c #665956",
"_  c #6B5B57",
"`  c #7A5A58",
"'  c #776353",
"]  c #73635D",
"[  c #766864",
"{  c #7C6D6A",
"}  c #7F706E",
"|  c #86501D",
" . c #A1520B",
".. c #B95E08",
"X. c #AA5A19",
"o. c #BF600C",
"O. c #8D5324",
"+. c #975A26",
"@. c #935B2B",
"#. c #8E5337",
"$. c #8A5A37",
"%. c #925C33",
"&. c #9C5F35",
"*. c #A25F2E",
"=. c #9C662E",
"-. c #A5642C",
";. c #A9662B",
":. c #B26A2B",
">. c #BF732C",
",. c #AA6934",
"<. c #A7643C",
"1. c #B56A32",
"2. c #B66D3C",
"3. c #B67438",
"4. c #B5713D",
"5. c #C95B02",
"6. c #C46206",
"7. c #CC6604",
"8. c #CE6905",
"9. c #C5660C",
"0. c #DB6600",
"q. c #D56C03",
"w. c #D96D03",
"e. c #DA7104",
"r. c #D8730B",
"t. c #CA6E12",
"y. c #C17D2D",
"u. c #C57C37",
"i. c #C87831",
"p. c #C1773E",
"a. c #CD7D3D",
"s. c #D37E3C",
"d. c #8B524F",
"f. c #A35D5F",
"g. c #806352",
"h. c #AF6A41",
"j. c #B56D42",
"k. c #B77243",
"l. c #B87343",
"z. c #BE7842",
"x. c #AF5760",
"c. c #8C706B",
"v. c #8E7C75",
"b. c #867B7A",
"n. c #947A74",
"m. c #B86B73",
"M. c #C17640",
"N. c #D3717A",
"B. c #C88037",
"V. c #CE833E",
"C. c #DC8533",
"Z. c #DD8A35",
"A. c #D4813C",
"S. c #DB843A",
"D. c #D7893D",
"F. c #DA8B3D",
"G. c #E58B37",
"H. c #EB8E36",
"J. c #E18738",
"K. c #E38A39",
"L. c #E88E38",
"P. c #EE9236",
"I. c #E4923B",
"U. c #ED9438",
"Y. c #EE9A3A",
"T. c #F09636",
"R. c #F59C37",
"E. c #FAA437",
"W. c #F5A038",
"Q. c #F9A238",
"!. c #B38156",
"~. c #8B817B",
"^. c #97857D",
"/. c #AF967C",
"(. c #C8894B",
"). c #D88F47",
"_. c #C69661",
"`. c #D49D63",
"'. c #DCA46E",
"]. c #9A8A85",
"[. c #9B918D",
"{. c #A59B97",
"}. c #AAA19D",
"|. c #B4A39C",
" X c #ABA4A3",
".X c #B8ADA8",
"XX c #BDB1A9",
"oX c #BBB4B3",
"OX c #C7928E",
"+X c #EA9E9E",
"@X c #C7AE94",
"#X c #C6B6A9",
"$X c #D8BEA5",
"%X c #C1B7B0",
"&X c #C4BAB5",
"*X c #C9BCB5",
"=X c #D1B6B8",
"-X c #D9C3A8",
";X c #C6C1BD",
":X c #CBC2BB",
">X c #D4C9BB",
",X c #E7CBAB",
"<X c #CBC5C3",
"1X c #CDC9C6",
"2X c #D7CAC4",
"3X c #D1CCCA",
"4X c #D8D2CD",
"5X c #DAD6D3",
"6X c #DEDBD5",
"7X c #DFDCD9",
"8X c #E2D7C7",
"9X c #E3DBD4",
"0X c #E4DAD6",
"qX c #E9E3DD",
"wX c #EBE7E3",
"eX c #F1EEE8",
"rX c #F6F3EC",
"tX c #F6F6F2",
"yX c #FAF9F5",
"uX c #F7FAF8",
"iX c #FCFDFB",
/* pixels */
"j.j.Q.T.T.R.T.T.F.F.S.L.L.L.W.W.l.l.s.H.H.L.U.U.F.F.S.L.L.L.W.W.j.j.Q.T.T.R.T.T.F.F.S.L.L.L.W.W.l.l.s.H.H.L.U.U.F.F.S.L.L.L.W.W.",
"j.j.Q.T.T.R.T.T.F.F.S.L.L.L.W.W.l.l.s.H.H.L.U.U.F.F.S.L.L.L.W.W.j.j.Q.T.T.R.T.T.F.F.S.L.L.L.W.W.l.l.s.H.H.L.U.U.F.F.S.L.L.L.W.W.",
"j.j.s.A.A.J.F.F.F.F.J.H.L.s.Q.Q.l.l.s.H.H.J.F.F.F.F.Z.L.L.s.Q.Q.j.j.s.A.A.J.F.F.F.F.Z.L.L.s.Q.Q.l.l.s.H.H.J.F.F.F.F.Z.L.L.s.Q.Q.",
"l.l.A.H.P.J.S.S.F.F.T.H.H.S.T.T.k.k.l.H.H.J.S.S.F.F.T.H.H.S.T.T.l.l.A.H.H.J.S.S.F.F.T.H.H.S.T.T.l.l.l.H.H.J.S.S.F.F.T.H.H.S.T.T.",
"l.l.A.H.P.J.S.S.F.F.T.H.H.S.T.T.k.k.l.H.H.J.S.S.F.F.T.H.H.S.T.T.l.l.A.H.H.J.S.S.F.F.T.H.H.S.T.T.k.k.l.H.H.J.S.S.F.F.T.H.H.S.T.T.",
"l.l.G.H.P.L.J.J.D.D.T.H.H.s.R.R.l.l.M.H.H.J.S.S.F.F.T.H.H.s.R.R.l.l.G.H.H.L.J.J.D.D.T.H.H.s.R.R.l.l.M.H.H.J.S.S.F.F.T.H.H.s.R.R.",
"k.k.s.H.H.J.s.s.a.s.L.H.H.s.H.H.l.l.A.L.L.J.S.S.s.s.L.H.H.s.H.H.k.k.s.H.H.J.s.s.s.a.L.H.H.s.H.H.l.l.A.L.L.J.S.S.s.s.L.H.H.s.H.H.",
"k.k.s.H.H.J.s.s.a.a.L.H.H.s.H.H.l.l.A.L.L.J.S.S.s.s.L.H.H.s.H.H.k.k.s.H.H.J.s.s.s.a.L.H.H.s.H.H.l.l.A.L.L.J.S.S.s.s.L.H.H.s.H.H.",
"j.j.S.H.H.G.S.S.a.a.S.L.L.L.H.H.l.l.L.J.J.L.U.U.A.A.A.L.L.L.H.H.j.j.S.H.H.G.S.S.s.s.S.H.L.L.H.H.l.l.L.J.J.L.U.U.A.A.S.L.H.L.H.H.",
"j.j.S.H.H.G.S.S.a.a.S.H.L.L.H.H.l.l.L.J.J.L.U.U.A.A.A.L.L.L.H.H.j.j.S.H.H.G.S.J.a.s.S.H.L.L.H.H.l.l.L.J.J.U.U.U.A.A.S.L.H.L.H.H.",
"j.j.G.H.H.H.L.L.s.s.A.H.L.L.H.H.j.j.R.P.H.P.L.L.D.D.S.L.H.S.R.R.j.j.G.H.H.H.L.L.a.a.A.H.L.L.H.H.j.j.R.H.H.P.U.L.D.D.S.L.H.S.R.R.",
"j.j.H.H.H.H.L.L.s.s.G.H.H.G.H.H.#.#.M.A.A.A.j.j.B.B.K.L.H.G.T.T.j.j.H.H.H.H.L.L.a.a.G.H.H.G.H.H.#.#.M.A.A.A.j.j.B.B.K.L.H.K.T.T.",
"j.j.H.H.H.H.L.L.a.a.G.H.H.G.H.H.#.#.M.A.A.A.j.j.B.B.K.H.H.K.T.T.j.j.H.H.H.H.L.L.a.a.G.H.H.G.H.H.#.#.M.A.A.A.j.j.B.B.K.L.L.K.T.T.",
"j.j.s.H.H.H.L.L.a.a.A.L.H.S.H.H.h.h.Y.U.U.Y.I.I.A.A.A.L.L.s.R.R.j.j.s.H.H.H.L.L.a.a.A.L.L.S.H.H.h.h.Y.U.U.T.I.I.V.V.A.L.H.s.R.R.",
"j.j.s.H.H.G.S.S.a.a.p.L.L.S.H.H.j.j.s.s.s.J.K.K.3.3.S.L.L.z.R.R.j.j.s.H.H.G.;.1.2.s.p.L.L.A.H.H.j.j.s.s.s.J.K.K.F.F.S.L.H.z.R.R.",
"j.j.s.H.H.G.S.S.a.a.p.L.L.S.H.H.j.j.s.s.s.J.K.-.y C l.H.L.z.R.R.j.j.s.H.H.,.q e L s.p.L.L.A.H.H.j.j.s.s.s.J.K.K.F.F.S.L.H.z.R.R.",
"l.l.L.H.H.L.G.G.A.A.a.L.L.s.P.P.l.l.s.H.H.J.A.< n ].n.3.L.H.Q.Q.l.l.L.H.,.] v.J L A.a.L.L.s.P.P.l.l.s.H.H.J.A.A.F.F.J.L.L.H.Q.Q.",
"l.l.L.H.L.L.G.G.A.A.a.L.L.s.P.P.l.l.s.H.H.J.A.- N 9X*X' -.H.Q.Q.l.l.L.+.~ :X>X[ m A.a.L.L.s.P.P.l.l.s.H.H.J.A.A.F.F.J.L.L.H.Q.Q.",
"j.j.s.H.L.J.K.K.F.F.P.H.H.s.Q.Q.l.l.K.H.H.L.J.- B rXwX{.K ,.Q.Q.j.j.#.K ].eX9X} g F.U.H.H.s.Q.Q.l.l.L.H.H.L.J.J.F.F.T.G.G.L.Q.Q.",
"l.l.s.L.L.G.U.U.D.D.S.L.L.K.T.T.k.k.s.H.H.J.s.= V rXrX:X~.R I $.U S J ].2XyX6X{ g D.S.L.L.K.T.T.k.k.s.H.H.J.s.s.F.F.R.P.P.S.E.Q.",
"l.l.s.H.H.L.U.U.D.D.S.L.L.K.T.T.k.k.s.H.H.J.s.= V yXeX$X!.#.P O.O.d V v..XiX6X[ g D.S.L.L.K.T.T.k.k.s.H.H.J.s.s.F.F.R.P.P.S.E.E.",
"l.l.s.H.H.J.S.S.F.F.S.L.L.a.T.T.j.j.J.H.H.G.S.= J yXqX'.t.6.6.7.o.j r N { iX5X[ m F.S.L.L.a.T.T.j.j.J.H.H.G.S.S.p.p.F.I.I.I.F.F.",
"k.k.s.H.H.J.S.S.F.F.Z.L.L.s.Q.Q.j.j.S.H.H.H.A h I 0X,XZ.e.w.w.7. .m t t Y ;XoX^ 9 k Z.L.L.s.Q.Q.j.j.S.H.H.H.L.L.2.2.a.V.V.V.a.a.",
"k.k.s.H.H.J.S.S.F.F.Z.L.L.s.Q.Q.j.j.S.O.8 ; h X.X.).Z.r.q.w.9.| n u u t u ) ( n q 9 q e &.s.Q.Q.j.j.S.H.H.H.L.L.2.2.a.V.V.V.a.a.",
"l.l.s.H.H.J.S.S.F.F.U.G.G.H.R.R.j.j.s.+.6 5 h 9.w.q.q.q.e.q...A i p i u u u t b b e e w @.H.R.R.j.j.s.H.H.G.S.S.F.F.U.J.J.S.U.U.",
"l.l.s.H.H.J.S.S.F.F.U.G.G.P.R.R.j.j.s.H.c 4 h 7.w.q.q.q.w.e...F i i u u u u t u b e 4 F G.H.R.R.j.j.s.H.H.G.S.S.F.F.U.J.J.S.U.U.",
"l.l.A.L.L.J.F.F.F.F.T.L.L.S.E.E.j.j.J.C.k 0 h 7.w.6.6.6.q.e.t.$.W p t t t t t e e e 4 v C.S.E.E.j.j.J.H.H.S.a.a.A.A.A.L.L.L.Q.Q.",
"l.l.P.G.G.H.U.U.A.A.E.Q.Q.Q.R.R.l.k.s.O.7 4 z 7.6.x s s x ..C.@X XE e q q q q q e 9 9 9 =.Q.R.R.k.k.s.H.H.L.J.J.F.F.U.H.H.s.T.T.",
"k.k.P.G.G.H.U.U.A.A.E.Q.Q.Q.R.R.k.k.s.:.f < D A.(.~ E E / l.`.#X X} ) ( Q Q ( ) ^ n 4 j y.Q.R.R.l.l.s.H.H.L.J.J.F.F.U.H.H.s.T.T.",
"j.j.R.P.P.P.G.G.<.<.4.z.z.z.l.l.k.k.L.H.-.d / -X8X3X3X1X1X2X#Xv.c.oX3X3X1X1X1X3X%X^ 7 %.z.z.l.l.k.k.L.H.H.H.G.G.F.F.T.H.H.G.Q.Q.",
"#.#.l.s.s.a.j.j.u.u.E.S.S.s.G.G.&.&.P.H.H.*.g.%X6XyXtX5X<X9X=Xc.` 1XyXiXiXiXuXqXXXY c S.S.s.G.G.&.&.P.H.H.J.F.F.A.A.P.H.H.s.P.P.",
"#.#.l.s.s.a.j.j.u.u.E.S.S.s.G.G.&.&.P.H.H.J.3./ ~.wX7X].` OX+XN.m.=XwXyXiXiXwX].H 8 y.S.S.s.G.G.&.&.P.H.H.J.F.F.A.A.P.H.H.s.P.P.",
"j.j.Q.T.T.R.T.T.F.F.S.L.L.L.W.W.l.l.s.H.H.L.U.d N {.{.T b d.m.x.f.n.]. X&X<X{.V 8 ,.S.L.L.L.W.W.l.l.s.H.H.L.U.U.F.F.S.L.L.L.W.W.",
"j.j.Q.T.T.R.T.T.F.F.S.L.L.L.W.W.l.l.s.H.H.L.U.6 > B T 5 : w M M b 9 6 e Y ( V 2 j F.S.L.L.L.W.W.l.l.s.H.H.L.U.U.F.F.S.L.L.L.W.W.",
"j.j.s.A.A.J.F.F.F.F.Z.L.L.s.Q.Q.l.l.s.H.H.J.k & 6 ] [ _ E r 1 1 1 t Z Z N 1 4 z G O.Z.L.L.s.Q.Q.l.l.s.H.H.J.F.F.F.F.Z.L.L.s.Q.Q.",
"l.l.A.H.H.J.S.S.F.F.T.P.H.S.T.T.k.k.l.H.H.A - @ B 0XwX0XoXE % 1 t ].*X*X{.$ 8 5.5.z F L.H.S.T.T.k.k.l.H.H.J.S.S.F.F.T.H.H.S.T.T.",
"l.l.A.H.H.J.S.S.F.F.T.H.H.S.T.T.k.k.l.H.H.S > & B 9XiXyX4X( 3 Y ] b.}.wX5X$ d 0.8.l X c H.S.T.T.k.k.l.H.H.J.S.S.F.F.T.H.H.S.T.T.",
"l.l.G.H.H.L.J.J.D.D.T.H.H.s.R.R.l.l.M.H.v 4 > & q {.tXtX3X( i [..XZ Z 5X5X& d q.7.l X c H.s.R.R.l.l.M.H.P.J.S.S.F.F.T.H.H.s.R.R.",
"k.k.s.H.H.J.s.s.a.a.L.H.H.s.H.H.l.l.A.L.h % w B Z _ {.<X&X( _ :X4XT n >X>X; b t.t.f o c H.s.H.H.l.l.A.L.L.J.S.S.s.s.L.H.H.s.H.H.",
"k.k.s.H.H.J.s.s.s.s.L.H.H.s.H.H.l.l.A.L.h @ T {.].e n E { ~..X9X*XB d (.).; n _._.C o c H.s.H.H.l.l.A.L.L.J.S.S.s.s.L.H.H.s.H.H.",
"j.j.S.H.H.G.J.J.s.s.S.L.L.L.H.H.l.l.L.J.h X J |.|._ E V E ~.XX:X].w a 7.7.; t /./.R . c H.L.H.H.l.l.L.J.J.L.U.U.A.A.S.H.L.L.H.H.",
"j.j.S.H.H.G.J.J.a.a.S.L.L.L.H.H.l.l.L.J.O.O , ! n.:X<X.Xv.R J ( K 4 s 8.8.* 1 E ~ 3 & +.L.L.H.H.l.l.L.J.J.L.T.T.A.A.S.H.L.L.H.H.",
"j.j.G.H.H.H.L.L.a.a.A.L.L.L.H.H.j.j.R.H.H.| O + R >X0X>X^.t . # : : v A.D.a $ 3 , # O.L.L.L.H.H.j.j.R.H.H.P.L.L.D.D.S.H.L.S.R.R.",
"j.j.H.H.H.H.L.L.a.a.G.H.H.G.H.H.#.#.M.A.A.A.P X % _ c.` K %     . : U -X-Xm $ o O @.G.H.H.G.H.H.#.#.M.A.A.A.j.j.B.B.K.H.L.K.T.T.",
"j.j.H.H.L.H.L.L.s.s.G.H.H.G.H.H.#.#.M.A.A.A.j.P . # < < # 7 +.+.5 > R &XXXC o O @.s.G.H.H.G.H.H.#.#.M.A.A.A.j.j.B.B.K.L.L.K.T.T.",
"j.j.s.H.L.L.L.L.s.s.S.L.H.S.H.H.h.h.Y.U.U.T.I.I.@.O.    - ,.R.R.j 6 n { ] # . ;.s.s.S.L.H.S.H.H.h.h.Y.U.U.T.I.I.V.V.A.L.L.s.R.R.",
"j.j.s.H.L.J.S.S.s.s.p.L.L.A.H.H.j.j.s.s.s.J.K.K.F.F.-.:.>.z.R.R.g < < 9 %   -.S.s.s.p.L.L.A.H.H.j.j.s.s.s.J.K.K.F.F.S.L.L.z.R.R.",
"j.j.s.H.L.G.S.S.a.a.p.L.L.A.H.H.j.j.s.s.s.J.K.K.F.F.F.L.L.z.R.R.<.7       i.S.S.a.a.p.L.L.A.H.H.j.j.s.s.s.J.K.K.F.F.S.L.L.z.R.R.",
"l.l.L.H.H.L.G.G.A.A.a.L.L.s.P.P.l.l.s.H.H.J.A.A.F.F.J.L.L.H.Q.Q.l.j.C.C.C.L.G.G.A.A.a.L.L.s.P.P.l.l.s.H.H.J.A.A.F.F.J.L.L.H.Q.Q.",
"l.l.L.H.H.L.G.G.A.A.a.L.L.s.P.P.l.l.s.H.H.J.S.A.F.F.J.L.L.H.Q.Q.l.l.L.H.H.L.G.G.A.A.a.L.L.s.P.P.l.l.s.H.H.J.S.A.F.F.J.L.L.H.Q.Q.",
"j.j.s.H.H.J.K.K.F.F.U.H.H.s.W.Q.l.l.K.H.H.L.G.J.F.F.U.G.G.L.Q.Q.j.j.s.H.H.J.K.K.F.F.U.H.H.s.W.Q.l.l.K.H.H.L.G.J.F.F.U.G.G.L.Q.Q.",
"l.l.s.H.H.L.U.U.D.D.S.L.L.K.U.T.k.k.s.H.H.J.s.s.F.F.R.P.P.S.E.E.l.l.s.H.H.L.U.U.D.D.S.L.L.K.U.T.k.k.s.H.H.J.s.s.F.F.R.P.P.S.E.E.",
"l.l.s.L.H.L.U.U.F.D.S.H.L.K.T.T.k.k.s.H.H.J.s.s.F.F.R.P.P.S.E.E.l.l.s.L.H.L.U.U.F.D.S.H.L.K.T.T.k.k.s.H.H.J.s.s.F.F.R.P.P.S.E.E.",
"l.l.s.L.H.J.S.S.F.F.S.L.L.a.T.T.j.j.J.H.H.G.S.S.p.p.F.I.I.I.F.F.l.l.s.L.H.J.S.S.F.F.S.L.L.a.T.T.j.j.J.H.H.G.S.S.p.p.F.I.I.I.F.F.",
"k.k.s.L.H.J.S.S.F.F.Z.L.L.s.Q.Q.j.j.S.H.H.H.L.L.2.2.a.V.V.V.a.a.k.k.s.L.H.J.S.S.F.F.Z.L.L.s.Q.Q.j.j.S.H.H.H.L.L.2.2.a.V.V.V.a.a.",
"k.k.s.H.H.J.S.S.F.F.Z.L.L.s.Q.Q.j.j.S.H.H.H.L.L.2.2.a.V.V.V.a.a.k.k.s.H.H.J.S.S.F.F.Z.L.L.s.Q.Q.j.j.S.H.H.H.L.L.2.2.a.V.V.V.a.a.",
"l.l.s.H.H.J.S.S.F.F.U.G.G.H.R.R.j.j.s.H.H.G.S.S.F.F.U.G.J.S.U.U.l.l.s.H.H.J.S.S.F.F.U.G.G.H.R.R.j.j.s.H.H.G.S.S.F.F.U.G.J.S.U.U.",
"l.l.s.H.H.J.S.S.F.F.U.G.G.H.R.R.j.j.s.H.H.G.S.S.F.F.U.G.J.S.U.U.l.l.s.H.H.J.S.S.F.F.U.G.G.H.R.R.j.j.s.H.H.G.S.S.F.F.U.G.J.S.U.U.",
"l.l.A.L.L.J.S.S.F.F.T.L.L.S.E.E.j.j.J.H.H.S.a.a.A.A.A.H.L.L.Q.Q.l.l.A.L.L.J.S.S.F.F.T.L.L.S.E.E.j.j.J.H.H.S.a.a.A.A.A.H.L.L.Q.Q.",
"l.l.P.G.G.L.U.U.A.A.E.Q.Q.Q.R.R.k.k.s.H.H.L.J.J.F.F.U.H.H.s.T.T.l.l.P.G.G.L.U.U.A.A.E.Q.Q.Q.R.R.k.k.s.H.H.L.J.J.F.F.U.H.H.s.T.T.",
"l.l.P.G.G.H.U.U.A.A.E.Q.Q.Q.R.R.k.k.s.H.H.L.J.J.F.F.U.H.H.s.T.T.l.l.P.G.G.H.U.U.A.A.E.Q.Q.Q.R.R.k.k.s.H.H.L.J.J.F.F.U.H.H.s.T.T.",
"j.j.R.P.P.P.G.G.<.<.4.z.z.z.l.l.k.k.L.H.H.L.G.G.F.F.T.H.H.G.Q.Q.j.j.R.P.P.P.G.G.<.<.4.z.z.z.l.l.k.k.L.H.H.L.G.G.F.F.T.H.H.G.Q.Q.",
"#.#.l.s.s.a.j.j.u.u.E.S.S.s.G.G.&.&.P.H.H.J.F.F.A.A.P.H.H.s.P.P.#.#.l.s.s.a.j.j.u.u.E.S.S.s.G.G.&.&.P.H.H.J.F.F.A.A.P.H.H.s.P.P.",
"#.#.l.s.s.a.j.j.u.u.E.S.S.s.G.G.&.&.P.H.H.J.F.F.A.A.P.H.H.s.P.P.#.#.l.s.s.a.j.j.u.u.E.S.S.s.G.G.&.&.P.H.H.J.F.F.A.A.P.H.H.s.P.P."
};
