/* XPM */
static char *_ee313140fb44cefb7a40005178d26f6n7LBQzspZgw0O2jZ[] = {
/* columns rows colors chars-per-pixel */
"64 64 214 2 ",
"   c #030101",
".  c #0A0503",
"X  c #0C0806",
"o  c #160B05",
"O  c #160B0B",
"+  c #190A09",
"@  c #1D110E",
"#  c #1D0D12",
"$  c #1A1412",
"%  c #210D0A",
"&  c #25150A",
"*  c #2B150D",
"=  c #331B0E",
"-  c #391E0F",
";  c #241313",
":  c #2B1613",
">  c #221917",
",  c #2B1A14",
"<  c #231A1B",
"1  c #2C1D1A",
"2  c #321B13",
"3  c #3A1D17",
"4  c #331D1B",
"5  c #3B2314",
"6  c #35231D",
"7  c #382219",
"8  c #271F25",
"9  c #2D2422",
"0  c #352523",
"q  c #3B2624",
"w  c #3B2A26",
"e  c #352929",
"r  c #3C2D2A",
"t  c #3D312C",
"y  c #352F33",
"u  c #3A3233",
"i  c #451808",
"p  c #5A270A",
"a  c #492816",
"s  c #462B1D",
"d  c #552C17",
"f  c #4E311A",
"g  c #563418",
"h  c #672D09",
"j  c #652C0B",
"k  c #77390E",
"l  c #683617",
"z  c #693F17",
"x  c #63341A",
"c  c #713714",
"v  c #421D23",
"b  c #422C2A",
"n  c #4F3522",
"m  c #41312C",
"M  c #523624",
"N  c #433532",
"B  c #493634",
"V  c #4B3A36",
"C  c #4C3B39",
"Z  c #533A34",
"A  c #633C20",
"S  c #78451C",
"D  c #4F413B",
"F  c #5B4637",
"G  c #53423E",
"H  c #6D4427",
"J  c #764926",
"K  c #624339",
"L  c #6F4D39",
"P  c #473A42",
"I  c #653D46",
"U  c #554543",
"Y  c #594847",
"T  c #5B4D4C",
"R  c #5C504F",
"E  c #594E57",
"W  c #604A45",
"Q  c #644D44",
"!  c #6A5247",
"~  c #64514D",
"^  c #775644",
"/  c #674E52",
"(  c #655453",
")  c #6D5355",
"_  c #6B5B56",
"`  c #6B5B5A",
"'  c #735C5D",
"]  c #7C655B",
"[  c #726563",
"{  c #7A6B68",
"}  c #7F7270",
"|  c #813A0A",
" . c #8E4E15",
".. c #B74D02",
"X. c #AB5309",
"o. c #B95705",
"O. c #BD5C02",
"+. c #B5530B",
"@. c #854F26",
"#. c #875122",
"$. c #975A25",
"%. c #9A5B24",
"&. c #925A2A",
"*. c #855331",
"=. c #8E5337",
"-. c #915F33",
";. c #9C5F35",
":. c #996329",
">. c #9C6339",
",. c #A8682B",
"<. c #B86C29",
"1. c #BF772C",
"2. c #A7643C",
"3. c #AB6C3E",
"4. c #B66D3C",
"5. c #BA743C",
"6. c #C45E02",
"7. c #C76306",
"8. c #D66C04",
"9. c #D86D04",
"0. c #D67105",
"q. c #CB6E17",
"w. c #C7772E",
"e. c #D87E26",
"r. c #C47B36",
"t. c #C87B35",
"y. c #C1773E",
"u. c #CD7D3D",
"i. c #D37E3C",
"p. c #905254",
"a. c #9A6B49",
"s. c #AF6A41",
"d. c #B56D42",
"f. c #B77243",
"g. c #B87343",
"h. c #BE7842",
"j. c #A87C5E",
"k. c #B75E68",
"l. c #816E65",
"z. c #84726B",
"x. c #887671",
"c. c #8B7B75",
"v. c #857878",
"b. c #BC6562",
"n. c #C17640",
"m. c #C88037",
"M. c #CE833E",
"N. c #D38335",
"B. c #DC8634",
"V. c #D4813C",
"C. c #DB843A",
"Z. c #D7893E",
"A. c #DA8B3D",
"S. c #E58B37",
"D. c #EB8E36",
"F. c #E18738",
"G. c #E38A39",
"H. c #E88E38",
"J. c #EE9236",
"K. c #E4923B",
"L. c #ED9438",
"P. c #EE9A3A",
"I. c #F09636",
"U. c #F59C37",
"Y. c #FAA437",
"T. c #F5A038",
"R. c #F9A238",
"E. c #BF895B",
"W. c #96847C",
"Q. c #B48D6D",
"!. c #CB894A",
"~. c #D48A43",
"^. c #968985",
"/. c #968B8A",
"(. c #A78B85",
"). c #A6948D",
"_. c #AA9C97",
"`. c #ADA29D",
"'. c #B2A89F",
"]. c #B7ABA3",
"[. c #B8AFAB",
"{. c #BAB2AF",
"}. c #BCB5B2",
"|. c #D1908B",
" X c #D5AF8C",
".X c #D6B597",
"XX c #CAB2A6",
"oX c #D4BDAE",
"OX c #C4BAB7",
"+X c #DFC1A3",
"@X c #CBC1B9",
"#X c #CCC2BD",
"$X c #D2C7BE",
"%X c #EBD4BD",
"&X c #CCC7C5",
"*X c #D3CAC3",
"=X c #DACFC7",
"-X c #D3CDCA",
";X c #D6D0CD",
":X c #D5D2D2",
">X c #DBD5D3",
",X c #DDD9D6",
"<X c #E7DCD5",
"1X c #E1DDDA",
"2X c #ECE4DB",
"3X c #EBE7E2",
"4X c #EBE9E6",
"5X c #EBEBE9",
"6X c #F1ECE6",
"7X c #F1EEEC",
"8X c #F2F1ED",
"9X c #F4F3F1",
"0X c #F9F7F3",
"qX c #F9FBF9",
/* pixels */
"d.d.R.I.I.U.I.I.A.A.C.H.H.H.T.T.g.g.i.D.D.H.L.L.A.A.C.H.H.H.T.T.d.d.R.I.I.U.I.I.A.A.C.H.H.H.T.T.g.g.i.D.D.H.L.L.A.A.C.H.H.H.T.T.",
"d.d.R.I.I.U.I.I.A.A.C.H.H.H.T.T.g.g.i.D.D.H.L.L.A.A.C.H.H.H.T.T.d.d.R.I.I.U.I.I.A.A.C.H.H.H.T.T.g.g.i.D.D.H.L.L.A.A.C.H.H.H.T.T.",
"d.d.i.V.V.F.A.A.A.A.F.D.H.i.R.R.g.g.i.D.D.F.A.A.A.A.C.H.H.i.R.R.d.d.i.V.V.F.A.A.A.A.C.H.H.i.R.R.g.g.i.D.D.F.A.A.A.A.C.H.H.i.R.R.",
"g.g.V.D.J.F.C.C.A.A.I.D.D.C.I.I.f.f.g.D.D.F.C.C.A.A.I.D.D.C.I.I.g.g.V.D.D.F.C.C.A.A.I.D.D.C.I.I.g.g.g.D.D.F.C.C.A.A.I.D.D.C.I.I.",
"g.g.V.D.J.F.C.C.A.A.I.D.D.C.I.I.f.f.g.D.D.F.C.C.A.A.I.D.D.C.I.I.g.g.V.D.D.F.C.C.A.A.I.D.D.C.I.I.f.f.g.D.D.F.C.C.A.A.I.D.D.C.I.I.",
"g.g.S.D.J.H.F.F.Z.Z.I.D.D.i.U.U.g.g.n.D.D.F.C.C.A.A.I.D.D.i.U.U.g.g.S.D.D.H.F.F.Z.Z.I.D.D.i.U.U.g.g.n.D.D.F.C.C.A.A.I.D.D.i.U.U.",
"f.f.i.D.D.F.i.i.u.i.H.D.D.i.D.D.g.g.V.H.H.F.C.C.i.i.H.D.D.i.D.D.f.f.i.D.D.F.i.i.i.M.H.D.D.i.D.D.g.g.V.H.H.F.C.C.i.i.H.D.D.i.D.D.",
"f.f.i.D.D.F.i.i.u.u.H.D.D.i.D.D.g.g.V.H.H.F.C.C.i.i.H.D.D.i.D.D.f.f.i.D.D.F.i.i.i.V.H.D.D.i.D.D.g.g.V.H.H.F.C.C.i.i.H.D.D.i.D.D.",
"d.d.C.D.D.S.C.C.u.u.C.H.H.H.D.D.g.g.H.F.F.H.L.L.V.V.V.H.H.H.D.D.d.d.C.D.D.S.C.C.i.i.C.D.H.H.D.D.g.g.H.F.F.H.L.L.V.V.C.H.D.H.D.D.",
"d.d.C.D.D.S.C.C.u.u.C.D.H.H.D.D.g.g.H.F.F.H.L.L.V.V.V.H.H.H.D.D.d.d.C.D.D.S.C.F.u.i.C.D.H.H.D.D.g.g.H.F.F.J.L.L.V.V.C.H.D.H.D.D.",
"d.d.S.D.D.D.H.H.i.i.V.D.H.H.D.D.d.d.U.J.D.J.H.H.Z.Z.C.H.D.C.U.U.d.d.S.D.D.D.H.H.u.u.V.D.H.H.D.D.d.d.U.D.D.J.J.H.Z.Z.C.H.D.C.U.U.",
"d.d.D.D.D.D.H.H.i.i.S.D.D.S.D.D.=.=.n.V.V.V.d.d.m.m.G.H.D.S.I.I.d.d.D.D.D.D.H.H.u.u.S.D.D.S.D.D.=.=.n.V.V.V.d.d.m.m.G.H.D.G.I.I.",
"d.d.D.D.D.D.H.H.i.u.S.D.D.S.D.D.=.=.n.V.V.V.d.d.m.m.G.H.D.G.I.I.d.d.D.D.D.D.H.H.u.u.S.D.D.S.D.D.=.=.n.V.V.V.d.d.m.m.G.H.H.G.I.I.",
"d.d.i.D.D.D.H.H.u.u.V.H.D.C.D.D.s.s.P.L.L.I.K.K.5.5.V.H.H.i.U.U.d.d.i.D.D.D.t.N.5.u.V.H.H.C.D.D.s.s.P.L.L.I.K.K.M.M.V.H.D.i.U.U.",
"d.d.i.D.D.S.C.C.u.u.y.H.H.V.D.D.d.d.i.i.i.F.G.r.3 F u.H.H.h.U.U.d.d.i.D.D.u.0 V M i.y.H.H.V.D.D.d.d.i.i.i.F.G.G.A.A.C.H.D.h.U.U.",
"d.d.i.D.D.S.C.C.u.u.y.H.H.C.D.D.d.d.i.i.i.F.G.3 b W.] r.w.h.U.U.d.d.i.D.u.] z.G a i.y.H.H.V.D.D.d.d.i.i.i.F.G.G.A.A.C.H.D.h.U.U.",
"g.g.H.D.D.H.S.S.V.V.u.H.H.i.J.J.g.g.i.D.J.F.V.* Z &X{.U f D.R.R.g.g.H.,.] *X*X~ - V.u.H.H.i.J.J.g.g.i.D.D.F.V.V.A.A.F.H.H.D.R.R.",
"g.g.H.D.H.H.S.S.V.V.u.H.H.i.J.J.g.g.i.D.D.F.V.* W ,X3X^.L &.1.R.g.*.:.F _.7X4X_ - V.u.H.H.i.J.J.g.g.i.D.D.F.V.V.A.A.F.H.H.D.R.R.",
"d.d.i.D.H.F.G.G.A.A.J.D.D.i.R.R.g.g.G.D.D.H.F.= W ,X9X@Xc.r M :.L 6 N c.=X9X5X` - A.J.D.D.i.R.R.g.g.H.D.D.H.F.F.A.A.I.S.S.H.R.R.",
"g.g.i.H.H.S.L.L.Z.Z.C.H.H.G.I.I.f.f.i.D.D.F.i.& K oX%X.XE.J f e e 9 G c.#X8X4X_ - Z.C.H.H.G.I.I.f.f.V.D.D.F.i.i.A.A.U.J.J.C.Y.R.",
"g.g.i.D.D.H.L.L.Z.Z.C.H.H.G.I.I.f.f.i.D.D.F.i.* x !.~.e.q.7. .M r r t N v.1X3X_ - Z.C.H.H.G.I.I.f.f.i.D.D.F.i.i.A.A.U.J.J.C.Y.Y.",
"g.g.i.D.D.F.C.C.A.A.C.H.H.u.I.I.d.d.F.D.D.S.l 2 | 7.0.8.9.9.o.A t r r w T }.OXT , J C.H.H.u.I.I.d.d.F.D.D.S.C.C.y.y.A.K.K.K.A.A.",
"f.f.i.D.D.F.C.C.A.A.C.H.H.i.R.R.d.d.C.%.d a 5 k O.8.8.8.0.9.o.x t r r t B [ [ V 6 7 f f %.i.R.R.d.d.C.D.D.D.H.H.4.4.u.M.M.M.u.u.",
"f.f.i.D.D.F.C.C.A.A.C.H.H.i.R.R.d.d.C.#.2 4 d X.8.8.8.0.0.9.q.a.~ u r t N N N m r 0 4 : #.i.R.R.d.d.C.D.D.D.H.H.4.4.u.M.M.M.u.u.",
"g.g.i.D.D.F.C.C.A.A.L.S.S.J.U.U.d.d.i.D.J e l o.8.0.8.8.9.9.B.+X'.T t t t m m m r 0 1 J S.D.U.U.d.d.i.D.D.S.C.C.A.A.L.F.F.C.L.L.",
"g.g.i.D.D.F.C.C.A.A.L.S.S.J.U.U.d.d.i.S.x < l O.8.O.7.6.7.e. X3X1X^.D m r r r r w q 1 H B.D.U.U.d.d.i.D.D.S.C.C.A.A.L.F.F.C.L.L.",
"g.g.V.H.H.F.A.A.A.A.I.H.H.C.Y.Y.d.d.F.S : < c 6.8.k x c @. X<X7X8X;X^.D w w q w w 6 1 ; #.C.Y.Y.d.d.F.D.D.C.u.u.V.V.V.H.H.H.R.R.",
"g.g.J.S.S.D.L.L.V.V.Y.R.R.R.U.U.g.g.i.%.5 < S <.5.( E E v.>X4X&X-X7X-Xv.Y U ( ` R q , 5 ,.R.U.U.f.f.i.D.D.H.F.F.A.A.L.D.D.i.I.I.",
"f.f.J.S.S.D.L.L.V.V.Y.R.R.R.U.U.f.g.i.D.$.7 p.XX=X-X&X&X:X7X-X{ } ;X9X,X&X#X&X&X[.T f ,.R.R.U.U.g.g.i.D.D.H.F.F.A.A.L.D.D.i.I.I.",
"d.d.U.J.J.J.S.S.2.2.4.h.h.h.g.g.f.f.H.D.D.$.^ [.>X8X8X-X&X<XXX_ ` OX9XqX0XqXqX,X`.Q *.h.h.h.g.g.f.f.H.D.D.D.S.S.A.A.I.D.D.S.R.R.",
"=.=.g.i.i.u.d.d.r.r.Y.C.C.i.S.S.;.;.J.D.D.F.>.~ { ;X-X[ ( |.|.)._.&X4X0XqXqX7X^.F -.Y.C.C.i.S.S.;.;.J.D.D.F.A.A.V.V.J.D.D.i.J.J.",
"=.=.g.i.i.u.d.d.r.r.Y.C.C.i.S.S.;.;.J.D.D.F.A.s 1 ).^.q 3 b.|.(././._.}.&X:X}.~ a r.Y.C.C.i.S.S.;.;.J.D.D.F.A.A.V.V.J.D.D.i.J.J.",
"d.d.R.I.I.U.I.I.A.A.C.H.H.H.T.T.g.g.i.D.D.H.L.n % Z V , v b.k.I N r r C R [ Y B f Z.C.H.H.S.U.U.g.g.i.D.D.H.L.L.A.A.C.H.H.H.T.T.",
"d.d.R.I.I.U.I.I.A.A.C.H.H.H.T.T.g.g.i.D.D.H.L.s 6 ' z.{ ' p.p.Y P C B Z N 0 s c k %.C.H.H.S.T.T.g.g.i.D.D.H.L.L.A.A.C.H.H.H.T.T.",
"d.d.i.V.V.F.A.A.A.A.C.H.H.i.R.R.g.g.i.D.D.F.A.5 B OX1X,X{./ ) ^._._._.`.c.8 x ....j #.H.D.i.R.R.g.g.i.D.D.F.A.A.A.A.C.H.H.i.R.R.",
"g.g.V.D.D.F.C.C.A.A.I.J.D.C.I.I.f.f.g.D.D.F.x * V -X0X0X:XT U v.].*X<X6X}.y j ..O.j S D.D.C.I.I.f.f.g.D.D.F.C.C.A.A.I.D.D.C.I.I.",
"g.g.V.D.D.F.C.C.A.A.I.D.D.C.I.I.f.f.g.D.D.H - ; 6 #X0X0X:XY 4 q Y ).<X0X*Xu j ..O.j % S D.C.I.I.f.f.g.D.J.F.C.C.A.A.I.D.D.C.I.I.",
"g.g.S.D.D.H.F.F.Z.Z.I.D.D.i.U.U.g.g.n.D.J.H 6 * * { `.=XOXU V ( / _ }.7X-XP p ..O.j + z D.i.U.U.g.g.n.D.J.F.C.C.A.A.I.D.D.i.U.U.",
"f.f.i.D.D.F.i.i.u.u.H.D.D.i.D.D.g.g.V.H.g 6 4 ; * 2 b ` { x.`.*X].G x.1X-XD p ..o.p + z D.i.D.D.g.g.V.H.H.F.C.C.i.i.H.D.D.i.D.D.",
"f.f.i.D.D.F.i.i.i.i.H.D.D.i.D.D.g.g.V.H.g 0 q V G B 2 : b ].6X0X#XU ^ oXoXV p X.+.d O z D.i.D.D.g.g.V.H.H.F.C.C.i.i.H.D.D.i.D.D.",
"d.d.C.D.D.S.F.F.i.i.C.H.H.H.D.D.g.g.H.F.g 9 Q ).{.[.x.0 0 ].2X8X{.N x h.!.a s a.E.K @ z H.H.D.D.g.g.H.F.F.H.L.L.V.V.C.D.H.H.D.D.",
"d.d.C.D.D.S.F.F.u.u.C.H.H.H.D.D.g.g.H.F.g O G _.$X7X;X( m W.XX#X^.0 j O.O.i 6 j.Q.G O z H.H.D.D.g.g.H.F.F.H.I.I.V.V.C.D.H.H.D.D.",
"d.d.S.D.D.D.H.H.u.u.V.H.H.H.D.D.d.d.U.D.$.g : C W.3X9X[.l.Q Q _ G > j O.O.i ; K ! 9 & %.H.H.D.D.d.d.U.D.D.J.H.H.Z.Z.C.D.H.C.U.U.",
"d.d.D.D.D.D.H.H.u.u.S.D.D.S.D.D.=.=.n.V.V.V.& . T $X<X*X(.r o @ ; @ c r.r.a # : @ & $.D.D.S.D.D.=.=.n.V.V.V.d.d.m.m.G.D.H.G.I.I.",
"d.d.D.D.H.D.H.H.i.i.S.D.D.S.D.D.=.=.n.V.V.V.J X > { z.] Y @     X O ^ .X.XZ ; X o &.S.D.D.S.D.D.=.=.n.V.V.V.d.d.m.m.G.H.H.G.I.I.",
"d.d.i.D.H.H.H.H.i.i.C.H.D.C.D.D.s.s.P.L.L.I.K.:.. > : : O = :.:.7 o ! ].].N X o &.i.C.H.H.C.D.D.s.s.P.L.L.I.K.K.M.M.V.H.H.i.U.U.",
"d.d.i.D.H.F.C.C.i.i.y.H.H.V.D.D.d.d.i.i.i.F.G.G.:.&.    * ;.U.U.f * Z ] _ $ . %.i.i.y.H.H.V.D.D.d.d.i.i.i.F.G.G.A.A.C.H.H.h.U.U.",
"d.d.i.D.H.S.C.C.u.u.y.H.H.V.D.D.d.d.i.i.i.F.G.G.A.A.,.<.1.h.U.U.f ; , 1 $   ,.C.u.i.y.H.H.V.D.D.d.d.i.i.i.F.G.G.A.A.C.H.H.h.U.U.",
"g.g.H.D.D.H.S.S.V.V.u.H.H.i.J.J.g.g.i.D.D.F.V.V.A.A.F.H.H.D.R.R.3.5       w.S.S.V.V.u.H.H.i.J.J.g.g.i.D.D.F.V.V.A.A.F.H.H.D.R.R.",
"g.g.H.D.D.H.S.S.V.V.u.H.H.i.J.J.g.g.i.D.D.F.C.C.A.A.F.H.H.D.R.R.g.d.B.B.B.H.S.S.V.V.u.H.H.i.J.J.g.g.i.D.D.F.C.C.A.A.F.H.H.D.R.R.",
"d.d.i.D.D.F.G.G.A.A.L.D.D.i.T.R.g.g.G.D.D.H.S.F.A.A.L.S.S.H.R.R.d.d.i.D.D.F.G.G.A.A.L.D.D.i.T.R.g.g.G.D.D.H.S.F.A.A.L.S.S.H.R.R.",
"g.g.i.D.D.H.L.L.Z.Z.C.D.H.G.L.L.g.f.i.D.D.F.i.i.A.A.U.J.J.C.Y.Y.g.g.i.D.D.H.L.L.Z.Z.C.D.H.G.L.L.g.f.i.D.D.F.i.i.A.A.U.J.J.C.Y.Y.",
"g.g.i.H.D.H.L.L.A.A.C.D.H.G.I.I.f.f.i.D.D.F.i.i.A.A.U.J.J.C.Y.Y.g.g.i.H.D.H.L.L.A.A.C.D.H.G.I.I.f.f.i.D.D.F.i.i.A.A.U.J.J.C.Y.Y.",
"g.g.i.H.D.F.C.C.A.A.C.H.H.u.I.I.d.d.F.D.D.S.C.C.y.y.A.K.K.K.A.A.g.g.i.H.D.F.C.C.A.A.C.H.H.u.I.I.d.d.F.D.D.S.C.C.y.y.A.K.K.K.A.A.",
"f.f.i.H.D.F.C.C.A.A.C.H.H.i.R.R.d.d.C.D.D.D.H.H.4.4.u.M.M.M.u.u.f.f.i.H.D.F.C.C.A.A.C.H.H.i.R.R.d.d.C.D.D.D.H.H.4.4.u.M.M.M.u.u.",
"f.f.i.D.D.F.C.C.A.A.C.H.H.i.R.R.d.d.C.D.D.D.H.H.4.4.u.M.M.M.u.u.f.f.i.D.D.F.C.C.A.A.C.H.H.i.R.R.d.d.C.D.D.D.H.H.4.4.u.M.M.M.u.u.",
"g.g.i.D.D.F.C.C.A.A.L.S.S.D.U.U.d.d.i.D.D.S.C.C.A.A.L.S.F.C.L.L.g.g.i.D.D.F.C.C.A.A.L.S.S.D.U.U.d.d.i.D.D.S.C.C.A.A.L.S.F.C.L.L.",
"g.g.i.D.D.F.C.C.A.A.L.S.S.D.U.U.d.d.i.D.D.S.C.C.A.A.L.S.F.C.L.L.g.g.i.D.D.F.C.C.A.A.L.S.S.D.U.U.d.d.i.D.D.S.C.C.A.A.L.S.F.C.L.L.",
"g.g.V.H.H.F.C.C.A.A.I.H.H.C.Y.Y.d.d.F.D.D.C.u.u.V.V.V.D.H.H.R.R.g.g.V.H.H.F.C.C.A.A.I.H.H.C.Y.Y.d.d.F.D.D.C.u.u.V.V.V.D.H.H.R.R.",
"g.g.J.S.S.H.L.L.V.V.Y.R.R.R.U.U.f.f.i.D.D.H.F.F.A.A.J.D.D.i.I.I.g.g.J.S.S.H.L.L.V.V.Y.R.R.R.U.U.f.f.i.D.D.H.F.F.A.A.J.D.D.i.I.I.",
"g.g.J.S.S.D.L.L.V.V.Y.R.R.R.U.U.f.f.i.D.D.H.F.F.A.A.L.D.D.i.I.I.g.g.J.S.S.D.L.L.V.V.Y.R.R.R.U.U.f.f.i.D.D.H.F.F.A.A.L.D.D.i.I.I.",
"d.d.U.J.J.J.S.S.2.2.4.h.h.h.g.g.f.f.H.D.D.H.S.S.A.A.I.D.D.S.R.R.d.d.U.J.J.J.S.S.2.2.4.h.h.h.g.g.f.f.H.D.D.H.S.S.A.A.I.D.D.S.R.R.",
"=.=.g.i.i.u.d.d.r.r.Y.C.C.i.S.S.;.;.J.D.D.F.A.A.V.V.J.D.D.i.J.J.=.=.g.i.i.u.d.d.r.r.Y.C.C.i.S.S.;.;.J.D.D.F.A.A.V.V.J.D.D.i.J.J.",
"=.=.g.i.i.u.d.d.r.r.Y.C.C.i.S.S.;.;.J.D.D.F.A.A.V.V.J.D.D.i.J.J.=.=.g.i.i.u.d.d.r.r.Y.C.C.i.S.S.;.;.J.D.D.F.A.A.V.V.J.D.D.i.J.J."
};
