/* XPM */
static char *aecdba2320234f2fb218a5b1827d49a5nN53oH197AUNYDP5[] = {
/* columns rows colors chars-per-pixel */
"64 64 222 2 ",
"   c #030101",
".  c #0C0504",
"X  c #0C0706",
"o  c #150C05",
"O  c #150D0D",
"+  c #180C0B",
"@  c #1E120C",
"#  c #190D13",
"$  c #1A1511",
"%  c #1B1413",
"&  c #210C09",
"*  c #26150C",
"=  c #2B140E",
"-  c #321B0F",
";  c #3A0910",
":  c #231512",
">  c #2A1513",
",  c #231B15",
"<  c #2B1B16",
"1  c #251B1B",
"2  c #2D1C1B",
"3  c #361A16",
"4  c #321C1A",
"5  c #37200E",
"6  c #2F201E",
"7  c #3A2315",
"8  c #3A2316",
"9  c #34241E",
"0  c #3A251D",
"q  c #2C2121",
"w  c #352623",
"e  c #352B23",
"r  c #3A2926",
"t  c #342A28",
"y  c #3B2D2A",
"u  c #3D312E",
"i  c #3D3031",
"p  c #461B08",
"a  c #4A1310",
"s  c #5E2C0D",
"d  c #472A14",
"f  c #4B2B1B",
"g  c #5B2617",
"h  c #5B2D14",
"j  c #4E341A",
"k  c #5A3416",
"l  c #55331E",
"z  c #6D350C",
"x  c #753808",
"c  c #642A11",
"v  c #693F17",
"b  c #673919",
"n  c #633C1C",
"m  c #451F21",
"M  c #492628",
"N  c #412E2B",
"B  c #572B2A",
"V  c #4C3224",
"C  c #41312D",
"Z  c #49342B",
"A  c #553927",
"S  c #433532",
"D  c #493633",
"F  c #4A3A36",
"G  c #463A38",
"H  c #4B3D3A",
"J  c #543A33",
"K  c #673D25",
"L  c #6B411A",
"P  c #5D402F",
"I  c #59463D",
"U  c #68472A",
"Y  c #764926",
"T  c #6D413F",
"R  c #6C3C42",
"E  c #544442",
"W  c #584A48",
"Q  c #5E514C",
"!  c #5E5556",
"~  c #614E49",
"^  c #6C5247",
"/  c #64524D",
"(  c #645552",
")  c #665A56",
"_  c #6A5A56",
"`  c #6A5B5A",
"'  c #735957",
"]  c #6F635E",
"[  c #786359",
"{  c #746663",
"}  c #796B68",
"|  c #7E716D",
" . c #925118",
".. c #B55709",
"X. c #BE640C",
"o. c #844D29",
"O. c #895328",
"+. c #955E23",
"@. c #985924",
"#. c #935A2A",
"$. c #8E5337",
"%. c #8E5D37",
"&. c #925C32",
"*. c #9C5F35",
"=. c #A4622B",
"-. c #A9662A",
";. c #B16B28",
":. c #BD752D",
">. c #AA6A35",
",. c #A7643C",
"<. c #B46E33",
"1. c #B66D3C",
"2. c #B67539",
"3. c #B5713E",
"4. c #C35D02",
"5. c #C56404",
"6. c #C8680A",
"7. c #D56D04",
"8. c #D96D04",
"9. c #D66F09",
"0. c #D96D0A",
"q. c #D47006",
"w. c #CD7114",
"e. c #CE7F26",
"r. c #C57C37",
"t. c #C87831",
"y. c #C1773E",
"u. c #CD7D3D",
"i. c #D37E3C",
"p. c #8D3F42",
"a. c #83564F",
"s. c #AD5153",
"d. c #89665A",
"f. c #AF6A41",
"g. c #B56D42",
"h. c #B77243",
"j. c #B87343",
"k. c #BE7942",
"l. c #846764",
"z. c #88736C",
"x. c #937D6D",
"c. c #827573",
"v. c #897871",
"b. c #967E7A",
"n. c #B56165",
"m. c #C17640",
"M. c #CB6A69",
"N. c #D26C6C",
"B. c #C88037",
"V. c #CE833E",
"C. c #D58433",
"Z. c #DC8533",
"A. c #D4813C",
"S. c #DB843A",
"D. c #D6893D",
"F. c #DA8B3D",
"G. c #E58B37",
"H. c #EB8E36",
"J. c #E18738",
"K. c #E38A39",
"L. c #E88E38",
"P. c #EE9236",
"I. c #E4923B",
"U. c #ED9438",
"Y. c #EE9A3A",
"T. c #F09636",
"R. c #F59C37",
"E. c #FAA437",
"W. c #F5A038",
"Q. c #F9A238",
"!. c #BF8C5F",
"~. c #95827D",
"^. c #AB957A",
"/. c #D68F46",
"(. c #DB9854",
"). c #C69763",
"_. c #B67F83",
"`. c #968A86",
"'. c #9D938E",
"]. c #A28E88",
"[. c #B48386",
"{. c #A89B97",
"}. c #B1A39B",
"|. c #AFA5A2",
" X c #B4A3A1",
".X c #B3AAA4",
"XX c #B4ABAA",
"oX c #BEB4AD",
"OX c #BCB6B2",
"+X c #BFBBBF",
"@X c #D0AB8F",
"#X c #D8B187",
"$X c #C7AEA9",
"%X c #C5B9B1",
"&X c #C5B9B5",
"*X c #D8C09F",
"=X c #D7C3A5",
"-X c #C9C1BC",
";X c #DBCAB6",
":X c #E7D2BA",
">X c #CBC5C4",
",X c #C8C5C6",
"<X c #CDC9C6",
"1X c #CECBC9",
"2X c #D2C4C1",
"3X c #D4CCC5",
"4X c #D3CDCA",
"5X c #DAD1CB",
"6X c #D6D4D3",
"7X c #DBD6D2",
"8X c #DED8D3",
"9X c #E1D5C5",
"0X c #E2DCD7",
"qX c #E5E2DD",
"wX c #EDE5DC",
"eX c #EBE9E6",
"rX c #F2EDE6",
"tX c #F0EEE9",
"yX c #F5F2EC",
"uX c #F5F5F3",
"iX c #F9F9F7",
"pX c #FAFAF9",
/* pixels */
"g.g.Q.T.T.R.T.T.F.F.S.L.L.L.W.W.j.j.i.H.H.L.U.U.F.F.S.L.L.L.W.W.g.g.Q.T.T.R.T.T.F.F.S.L.L.L.W.W.j.j.i.H.H.L.U.U.F.F.S.L.L.L.W.W.",
"g.g.Q.T.T.R.T.T.F.F.S.L.L.L.W.W.j.j.i.H.H.L.U.U.F.F.S.L.L.L.W.W.g.g.Q.T.T.R.T.T.F.F.S.L.L.L.W.W.j.j.i.H.H.L.U.U.F.F.S.L.L.L.W.W.",
"g.g.i.A.A.J.F.F.F.F.J.H.L.i.Q.Q.j.j.i.H.H.J.F.F.F.F.S.L.L.i.Q.Q.g.g.i.A.A.J.F.F.F.F.S.L.L.i.Q.Q.j.j.i.H.H.J.F.F.F.F.S.L.L.i.Q.Q.",
"j.j.A.H.P.J.S.S.F.F.T.H.H.S.T.T.h.h.j.H.H.J.S.S.F.F.T.H.H.S.T.T.j.j.A.H.H.J.S.S.F.F.T.H.H.S.T.T.j.j.j.H.H.J.S.S.F.F.T.H.H.S.T.T.",
"j.j.A.H.P.J.S.S.F.F.T.H.H.S.T.T.h.h.j.H.H.J.S.S.F.F.T.H.H.S.T.T.j.j.A.H.H.J.S.S.F.F.T.H.H.S.T.T.h.h.j.H.H.J.S.S.F.F.T.H.H.S.T.T.",
"j.j.G.H.P.L.J.J.D.D.T.H.H.i.R.R.j.j.m.H.H.J.S.S.F.F.T.H.H.i.R.R.j.j.G.H.H.L.J.J.D.D.T.H.H.i.R.R.j.j.m.H.H.J.S.S.F.F.T.H.H.i.R.R.",
"h.h.i.H.H.J.i.i.u.i.L.H.H.i.H.H.j.j.A.L.L.J.S.S.i.i.L.H.H.i.H.H.h.h.i.H.H.J.i.i.i.V.L.H.H.i.H.H.j.j.A.L.L.J.S.S.i.i.L.H.H.i.H.H.",
"h.h.i.H.H.J.i.i.u.u.L.H.H.i.H.H.j.j.A.L.L.J.S.S.i.i.L.H.H.i.H.H.h.h.i.H.H.J.i.i.i.A.L.H.H.i.H.H.j.j.A.L.L.J.S.S.i.i.L.H.H.i.H.H.",
"g.g.S.H.H.G.S.S.u.u.S.L.L.L.H.H.j.j.P.J.J.L.U.U.A.A.A.L.L.L.H.H.g.g.S.H.H.G.S.S.i.i.S.H.L.L.H.H.j.j.L.J.J.L.U.U.A.A.S.L.H.L.H.H.",
"g.g.S.H.H.G.S.S.u.u.S.H.L.L.H.H.j.j.L.J.J.L.U.U.A.A.A.L.L.L.H.H.g.g.S.H.H.G.S.J.u.i.S.H.L.L.H.H.j.j.L.J.J.P.U.U.A.A.S.L.H.L.H.H.",
"g.g.G.H.H.H.L.L.i.i.A.H.L.L.H.H.g.g.R.P.H.P.P.L.D.D.S.L.H.S.R.R.g.g.G.H.H.H.L.L.u.u.A.H.L.L.H.H.g.g.R.H.H.P.P.L.D.D.S.L.H.S.R.R.",
"g.g.H.H.H.H.L.L.i.i.G.H.H.G.H.H.$.$.m.A.A.A.g.g.B.B.K.L.H.G.T.T.g.g.H.H.H.H.L.L.u.u.G.H.H.G.H.H.$.$.m.A.A.A.g.g.B.B.K.L.H.G.T.T.",
"g.g.H.H.H.H.L.L.u.u.G.H.H.G.H.H.$.$.m.A.A.A.g.g.B.B.K.H.H.K.T.T.g.g.H.H.H.H.L.L.u.u.G.H.H.G.H.H.$.$.m.A.A.A.g.g.B.B.K.L.L.K.T.T.",
"g.g.i.H.H.H.L.L.u.u.A.L.H.S.H.H.f.f.Y.U.U.T.I.I.A.A.A.L.H.i.R.R.g.g.i.H.H.H.L.L.u.u.A.L.L.S.H.H.f.f.Y.U.U.T.I.I.V.V.A.L.H.i.R.R.",
"g.g.i.H.H.G.S.S.u.u.y.L.L.S.H.H.g.g.i.i.i.J.K.K.<.<.S.L.L.k.R.R.g.g.i.H.L.G.-.<.i.i.y.L.L.A.H.H.g.g.i.i.i.J.K.K.F.F.S.L.H.k.R.R.",
"g.g.i.H.H.G.S.S.u.u.y.L.L.S.H.H.g.g.i.i.i.J.K.=.0 Z j.L.L.k.R.R.g.g.i.H.H.>.w V >.i.y.L.L.A.H.H.g.g.i.i.i.J.K.K.F.F.S.L.H.k.R.R.",
"j.j.L.H.H.L.G.G.A.A.u.L.L.i.P.P.j.j.i.H.H.J.A.= w ~.x.2.L.H.Q.Q.j.j.L.H.-.{ v.S K A.u.L.L.i.P.P.j.j.i.H.H.J.A.A.F.F.J.L.L.H.Q.Q.",
"j.j.L.H.L.L.G.G.A.A.u.L.L.i.P.P.j.j.i.H.H.J.A.= u 4X-X[ =.H.Q.Q.j.j.L.@.I %X-XW V A.u.L.L.i.P.P.j.j.i.H.H.J.A.A.F.F.J.L.L.H.Q.Q.",
"g.g.i.H.L.J.K.K.F.F.P.H.H.i.Q.Q.j.j.K.H.H.L.J.- G eXeX'.J >.Q.Q.g.g.o.J ].tX8X) j F.P.H.H.i.Q.Q.j.j.L.H.H.L.J.J.F.F.T.G.G.L.Q.Q.",
"j.j.i.L.L.G.U.U.D.D.S.L.L.K.T.T.h.h.i.H.H.J.i.= H rXuX3Xv.I U Y P A D b.0XpX7X/ V D.S.L.L.K.T.T.h.h.A.H.H.J.i.i.F.F.R.P.P.S.E.Q.",
"j.j.i.H.H.L.U.U.D.D.S.L.L.K.T.T.h.h.i.H.H.J.i.= D :X:X#X!.O.l y y t G ~.OX,X.XE A D.S.L.L.K.T.T.h.h.i.H.H.J.i.i.F.F.R.P.P.S.E.E.",
"j.j.i.H.H.J.S.S.F.F.S.L.L.u.T.T.g.g.J.H.H.G.S.= f (./.e.w.6. .l y y y E _ { _ C A F.S.L.H.u.T.T.g.g.J.H.H.G.S.S.y.y.F.I.I.I.F.F.",
"h.h.i.H.H.J.S.S.F.F.S.L.L.i.Q.Q.g.g.S.H.H.H.n f z 0.0.7.7.7.5.v y y y u S S Z N y v S.L.L.i.Q.Q.g.g.S.H.H.H.L.L.1.1.u.V.V.V.u.u.",
"h.h.i.H.H.J.S.S.F.F.S.L.L.i.Q.Q.g.g.S.O.8 3 f @...8.7.9.7.7.5.L y u S u S u C C y 4 4 0 #.A.Q.Q.g.g.S.H.H.H.L.L.1.1.u.V.V.V.u.u.",
"j.j.i.H.H.J.S.S.F.F.U.G.G.H.R.R.g.g.i.#.d 4 h X.0.9.9.9.7.7.X.%.W S u u u u N C C y 0 0 #.H.R.R.g.g.i.H.H.G.S.S.F.F.U.J.J.S.U.U.",
"j.j.i.H.H.J.S.S.F.F.U.G.G.P.R.R.g.g.i.H.Y w k 6.7.7.7.7.7.9.C.@X|.W u u y y u N y y 2 Y G.H.R.R.g.g.i.H.H.G.S.S.F.F.U.J.J.S.U.U.",
"j.j.A.L.L.J.F.F.F.F.T.L.L.S.E.E.g.g.J.Z.n 2 b 8.0.5.5.5.6.Z.#XqXqX'.I y y y y y y r 2 n C.S.E.E.g.g.J.H.H.S.u.u.A.A.A.L.L.L.Q.Q.",
"j.j.P.G.G.H.U.U.A.A.E.Q.Q.Q.R.R.h.h.i.O.5 < c 9.5.x c s O.@XwXuXyX7X'.D w e e r r w 9 < +.Q.R.R.h.h.i.H.H.L.J.J.F.F.U.H.H.i.T.T.",
"h.h.P.G.G.H.U.U.A.A.E.Q.Q.Q.R.R.h.h.i.;.d > K D.k.^ W W c.6XtX6X1XeX7Xc.Q Q ( ) / C < j :.Q.R.R.j.j.i.H.H.L.J.J.F.F.U.H.H.i.T.T.",
"g.g.R.P.P.P.G.G.,.,.3.k.k.k.j.j.h.h.L.H.=.f a.;X9X<X,X,X6XeX8X`.c.7XuX7X,X<X1X4XoX/ 8 &.k.k.j.j.h.h.L.H.H.H.G.G.F.F.T.H.H.G.Q.Q.",
"$.$.j.i.i.u.g.g.r.r.E.S.S.i.G.G.*.*.P.H.H.=.d.-X1X4X1X,X<X,XXXl.a.2XuXpXpXpXuXqXXXE L S.S.i.G.G.*.*.P.H.H.J.F.F.A.A.P.H.H.i.P.P.",
"$.$.j.i.i.u.g.g.r.r.E.S.S.i.G.G.*.*.P.H.H.J.k.[ ) ) _ ( ( ! ' s.M.$X0XuXpXpXeX`.H 0 t.S.S.i.G.G.*.*.P.H.H.J.F.F.A.A.P.H.H.i.P.P.",
"g.g.Q.T.T.R.T.T.F.F.S.L.L.L.W.W.j.j.i.H.H.L.U.8 r { c.| ` i B s.N.[. XXXOX+X{.F 8 >.S.L.L.L.W.W.j.j.i.H.H.L.U.U.F.F.S.L.L.L.W.W.",
"g.g.Q.T.T.R.T.T.F.F.S.L.L.L.W.W.j.j.i.H.H.L.U.= D -X0X8XXXW M s.M._.l.E W W G 1 A F.S.L.L.L.W.W.j.j.i.H.H.L.U.U.F.F.S.L.L.L.W.W.",
"g.g.i.A.A.J.F.F.F.F.S.L.L.i.Q.Q.j.j.i.H.H.J.n & G 8XiXuX<XW 3 p.n._.b.l.) 1 2 h x  .S.L.L.i.Q.Q.j.j.i.H.H.J.F.F.F.F.S.L.L.i.Q.Q.",
"j.j.A.H.H.J.S.S.F.F.T.P.H.S.T.T.h.h.j.H.H.K 4 * 9 |.iXiX1XW & m R ].5XeX&Xq 8 5.4.z Y L.H.S.T.T.h.h.j.H.H.J.S.S.F.F.T.H.H.S.T.T.",
"j.j.A.H.H.J.S.S.F.F.T.H.H.S.T.T.h.h.j.H.P.U 9 > > ( .X4X&XE N ( ` { .XtX8Xt d 7.5.z , v H.S.T.T.h.h.j.H.P.J.S.S.F.F.T.H.H.S.T.T.",
"j.j.G.H.H.L.J.J.D.D.T.H.H.i.R.R.j.j.m.H.b 6 4 > = 4 D ' } | .X3XOXH / 0X8X9 d 7.4.c @ L H.i.R.R.j.j.m.H.P.J.S.S.F.F.T.H.H.i.R.R.",
"h.h.i.H.H.J.i.i.u.u.L.H.H.i.H.H.j.j.A.L.k < M H E C 3 > C {.yXyX3XH Z ;X3X- f w.6.g $ v H.i.H.H.j.j.A.L.L.J.S.S.i.i.L.H.H.i.H.H.",
"h.h.i.H.H.J.i.i.i.i.L.H.H.i.H.H.j.j.A.L.k : ( {.%XXXv.w y }.rXrX-XS p /.(.; Z ).).T , v H.i.H.H.j.j.A.L.L.J.S.S.i.i.L.H.H.i.H.H.",
"g.g.S.H.H.G.J.J.i.i.S.L.L.L.H.H.j.j.L.J.k o ~ }.,XeX4X_ F `.%X%X{.y p q.q.; u ^.^.W o v L.L.H.H.j.j.L.J.J.L.U.U.A.A.S.H.H.L.H.H.",
"g.g.S.H.H.G.J.J.u.u.S.L.L.L.H.H.j.j.L.J.O.o $ H v.wXtXoXl.~ W ^ ~ < p 7.6.; 1 / ^ 1 @ @.L.L.H.H.j.j.L.J.J.L.T.T.A.A.S.H.L.L.H.H.",
"g.g.G.H.H.H.L.L.u.u.A.L.L.L.H.H.g.g.R.H.H.O.o   F 3X0X2X`.y . : < : g C.D.a # 1 $ @ O.L.L.L.H.H.g.g.R.H.H.P.L.L.D.D.S.H.L.S.R.R.",
"g.g.H.H.H.H.L.L.u.u.G.H.H.G.H.H.$.$.m.A.A.A.Y . $ { v.l.I $     . @ J *X=XB O . o #.G.H.H.G.H.H.$.$.m.A.A.A.g.g.B.B.K.L.L.K.T.T.",
"g.g.H.H.L.H.L.L.i.i.G.H.H.G.H.H.$.$.m.A.A.A.g.Y . $ < < + 5 +.+.8 : J %X%XD . o #.i.G.H.H.G.H.H.$.$.m.A.A.A.g.g.B.B.K.L.L.K.T.T.",
"g.g.i.H.L.L.L.L.i.i.S.L.H.S.H.H.f.f.Y.U.U.T.I.I.#.O.    = >.R.R.l < r z.] O . -.i.i.S.L.H.S.H.H.f.f.Y.U.U.T.I.I.V.V.A.L.L.i.R.R.",
"g.g.i.H.L.J.S.S.i.i.y.L.L.A.H.H.g.g.i.i.i.J.K.K.F.F.=.;.:.k.R.R.l * : 6 $   =.S.i.i.y.L.L.A.H.H.g.g.i.i.i.J.K.K.F.F.S.L.L.k.R.R.",
"g.g.i.H.L.G.S.S.u.u.y.L.L.A.H.H.g.g.i.i.i.J.K.K.F.F.S.L.L.k.R.R.,.5       t.S.S.u.u.y.L.L.A.H.H.g.g.i.i.i.J.K.K.F.F.S.L.L.k.R.R.",
"j.j.L.H.H.L.G.G.A.A.u.L.L.i.P.P.j.j.i.H.H.J.A.A.F.F.J.L.L.H.Q.Q.j.g.Z.Z.Z.L.G.G.A.A.u.L.L.i.P.P.j.j.i.H.H.J.A.A.F.F.J.L.L.H.Q.Q.",
"j.j.L.H.H.L.G.G.A.A.u.L.L.i.P.P.j.j.i.H.H.J.S.S.F.F.J.L.L.H.Q.Q.j.j.L.H.H.L.G.G.A.A.u.L.L.i.P.P.j.j.i.H.H.J.S.S.F.F.J.L.L.H.Q.Q.",
"g.g.i.H.H.J.K.K.F.F.U.H.H.i.W.Q.j.j.K.H.H.L.G.J.F.F.U.K.G.L.Q.Q.g.g.i.H.H.J.K.K.F.F.U.H.H.i.W.Q.j.j.K.H.H.L.G.J.F.F.U.K.G.L.Q.Q.",
"j.j.i.H.H.L.U.U.D.D.S.H.L.K.U.U.j.h.i.H.H.J.i.i.F.F.R.P.P.S.E.E.j.j.i.H.H.L.U.U.D.D.S.H.L.K.U.U.j.h.i.H.H.J.i.i.F.F.R.P.P.S.E.E.",
"j.j.i.L.H.L.U.U.F.F.S.H.L.K.T.T.h.h.i.H.H.J.i.i.F.F.R.P.P.S.E.E.j.j.i.L.H.L.U.U.F.F.S.H.L.K.T.T.h.h.i.H.H.J.i.i.F.F.R.P.P.S.E.E.",
"j.j.i.L.H.J.S.S.F.F.S.L.L.u.T.T.g.g.J.H.H.G.S.S.y.y.F.I.I.I.F.F.j.j.i.L.H.J.S.S.F.F.S.L.L.u.T.T.g.g.J.H.H.G.S.S.y.y.F.I.I.I.F.F.",
"h.h.i.L.H.J.S.S.F.F.S.L.L.i.Q.Q.g.g.S.H.H.H.L.L.1.1.u.V.V.V.u.u.h.h.i.L.H.J.S.S.F.F.S.L.L.i.Q.Q.g.g.S.H.H.H.L.L.1.1.u.V.V.V.u.u.",
"h.h.i.H.H.J.S.S.F.F.S.L.L.i.Q.Q.g.g.S.H.H.H.L.L.1.1.u.V.V.V.u.u.h.h.i.H.H.J.S.S.F.F.S.L.L.i.Q.Q.g.g.S.H.H.H.L.L.1.1.u.V.V.V.u.u.",
"j.j.i.H.H.J.S.S.F.F.U.G.G.H.R.R.g.g.i.H.H.G.S.S.F.F.U.G.J.S.U.U.j.j.i.H.H.J.S.S.F.F.U.G.G.H.R.R.g.g.i.H.H.G.S.S.F.F.U.G.J.S.U.U.",
"j.j.i.H.H.J.S.S.F.F.U.G.G.H.R.R.g.g.i.H.H.G.S.S.F.F.U.G.J.S.U.U.j.j.i.H.H.J.S.S.F.F.U.G.G.H.R.R.g.g.i.H.H.G.S.S.F.F.U.G.J.S.U.U.",
"j.j.A.L.L.J.S.S.F.F.T.L.L.S.E.E.g.g.J.H.H.S.u.u.A.A.A.H.L.L.Q.Q.j.j.A.L.L.J.S.S.F.F.T.L.L.S.E.E.g.g.J.H.H.S.u.u.A.A.A.H.L.L.Q.Q.",
"j.j.P.G.G.L.U.U.A.A.E.Q.Q.Q.R.R.h.h.i.H.H.L.J.J.F.F.P.H.H.i.T.T.j.j.P.G.G.L.U.U.A.A.E.Q.Q.Q.R.R.h.h.i.H.H.L.J.J.F.F.P.H.H.i.T.T.",
"j.j.P.G.G.H.U.U.A.A.E.Q.Q.Q.R.R.h.h.i.H.H.L.J.J.F.F.U.H.H.i.T.T.j.j.P.G.G.H.U.U.A.A.E.Q.Q.Q.R.R.h.h.i.H.H.L.J.J.F.F.U.H.H.i.T.T.",
"g.g.R.P.P.P.G.G.,.,.3.k.k.k.j.j.h.h.L.H.H.L.G.G.F.F.T.H.H.G.Q.Q.g.g.R.P.P.P.G.G.,.,.3.k.k.k.j.j.h.h.L.H.H.L.G.G.F.F.T.H.H.G.Q.Q.",
"$.$.j.i.i.u.g.g.r.r.E.S.S.i.G.G.*.*.P.H.H.J.F.F.A.A.P.H.H.i.P.P.$.$.j.i.i.u.g.g.r.r.E.S.S.i.G.G.*.*.P.H.H.J.F.F.A.A.P.H.H.i.P.P.",
"$.$.j.i.i.u.g.g.r.r.E.S.S.i.G.G.*.*.P.H.H.J.F.F.A.A.P.H.H.i.P.P.$.$.j.i.i.u.g.g.r.r.E.S.S.i.G.G.*.*.P.H.H.J.F.F.A.A.P.H.H.i.P.P."
};
