/* XPM */
static char *result[] = {
/* columns rows colors chars-per-pixel */
"69 69 231 2 ",
"   c #020101",
".  c #0A0404",
"X  c #0D0B0C",
"o  c #0C070A",
"O  c #140906",
"+  c #140B0B",
"@  c #1A0D0C",
"#  c #180A05",
"$  c #18110D",
"%  c #1A0F11",
"&  c #1D1413",
"*  c #181519",
"=  c #210C09",
"-  c #27150F",
";  c #221413",
":  c #241915",
">  c #2C1D16",
",  c #241A1A",
"<  c #2B1E1C",
"1  c #271517",
"2  c #331E1B",
"3  c #3A1D19",
"4  c #2C231E",
"5  c #33231D",
"6  c #3C251C",
"7  c #362315",
"8  c #181B20",
"9  c #281C21",
"0  c #2C2222",
"q  c #282522",
"w  c #342524",
"e  c #3A2621",
"r  c #352A25",
"t  c #3B2A26",
"y  c #362B2A",
"u  c #3A2D2C",
"i  c #3E312D",
"p  c #3E3026",
"a  c #3B2F31",
"s  c #3D3232",
"d  c #432A1E",
"f  c #47281A",
"g  c #552C1D",
"h  c #582F15",
"j  c #6A3918",
"k  c #723A16",
"l  c #653312",
"z  c #452D24",
"x  c #442F2A",
"c  c #4C2C26",
"v  c #453225",
"b  c #41322D",
"n  c #4C362D",
"m  c #55352A",
"M  c #553527",
"N  c #432B31",
"B  c #443534",
"V  c #4B3630",
"C  c #4A3A35",
"Z  c #4B3B39",
"A  c #473837",
"S  c #543A36",
"D  c #512D24",
"F  c #673B23",
"G  c #703E20",
"H  c #693E37",
"J  c #7B451C",
"K  c #794418",
"L  c #4E413D",
"P  c #5A443D",
"I  c #57453B",
"U  c #5F402B",
"Y  c #684227",
"T  c #694634",
"R  c #795739",
"E  c #754D2E",
"W  c #534442",
"Q  c #5C4C4A",
"!  c #574845",
"~  c #5D514E",
"^  c #5B5251",
"/  c #564850",
"(  c #644A47",
")  c #65544C",
"_  c #6D564C",
"`  c #795846",
"'  c #635452",
"]  c #655955",
"[  c #6C5E5C",
"{  c #6B5451",
"}  c #745E50",
"|  c #704A50",
" . c #796258",
".. c #726662",
"X. c #7C6D64",
"o. c #7D6E6C",
"O. c #736A66",
"+. c #7D7472",
"@. c #7E6F71",
"#. c #8C3F12",
"$. c #8D4B1C",
"%. c #854419",
"&. c #954D18",
"*. c #94531C",
"=. c #985319",
"-. c #934C0D",
";. c #A5540D",
":. c #B4550C",
">. c #BC5B0C",
",. c #AD5413",
"<. c #A65817",
"1. c #B15917",
"2. c #AD4C0E",
"3. c #BC6114",
"4. c #90552D",
"5. c #87623D",
"6. c #B16A31",
"7. c #C35E0D",
"8. c #CE6B0C",
"9. c #C9650B",
"0. c #DC6504",
"q. c #DB6B05",
"w. c #D3660B",
"e. c #D46D0D",
"r. c #D96D0B",
"t. c #D46B07",
"y. c #D7730B",
"u. c #C76714",
"i. c #D36E11",
"p. c #D16611",
"a. c #D47112",
"s. c #D57719",
"d. c #DA7A1B",
"f. c #E26E07",
"g. c #E07304",
"h. c #D77722",
"j. c #845D4F",
"k. c #987456",
"l. c #836F5B",
"z. c #AD7B51",
"x. c #A84660",
"c. c #86746C",
"v. c #8C796E",
"b. c #817675",
"n. c #8A7873",
"m. c #877A79",
"M. c #816965",
"N. c #B8687B",
"B. c #D9801F",
"V. c #DE8328",
"C. c #DB8D39",
"Z. c #C58B3A",
"A. c #9A847E",
"S. c #9C816C",
"D. c #B8906C",
"F. c #CC9359",
"G. c #D99759",
"H. c #D08D4D",
"J. c #E08F49",
"K. c #E5A559",
"L. c #D39C6A",
"P. c #CF9879",
"I. c #CDA27F",
"U. c #E5B47B",
"Y. c #CE678C",
"T. c #8E8684",
"R. c #988985",
"E. c #9B918D",
"W. c #9E9592",
"Q. c #A58E86",
"!. c #A19589",
"~. c #A49592",
"^. c #A69B95",
"/. c #A69C9B",
"(. c #B09F9F",
"). c #B18689",
"_. c #ACA39C",
"`. c #B4A49E",
"'. c #B5ACAC",
"]. c #BBADAA",
"[. c #B5A9A5",
"{. c #BAB1AB",
"}. c #B7B0AD",
"|. c #BCB2B1",
" X c #B4A8AA",
".X c #C1A189",
"XX c #D9B68B",
"oX c #C0A997",
"OX c #E5BD97",
"+X c #EEBA81",
"@X c #E196B0",
"#X c #C3B5AB",
"$X c #CCB4A3",
"%X c #C1B5B3",
"&X c #C9BDB8",
"*X c #D3B4B9",
"=X c #D5C09C",
"-X c #EBC68A",
";X c #E6C49A",
":X c #D3C4B9",
">X c #D0CAB7",
",X c #E8CEAD",
"<X c #C7BFC2",
"1X c #E6B8C8",
"2X c #CDC4C2",
"3X c #CAC5C4",
"4X c #D3CCC6",
"5X c #D9D2C9",
"6X c #DBD8D8",
"7X c #E7D8C5",
"8X c #E3DDDA",
"9X c #E5DCD1",
"0X c #E4C7CF",
"qX c #EAE1CD",
"wX c #E4E1DC",
"eX c #EBE5D9",
"rX c #E9E6E4",
"tX c #EEEDEB",
"yX c #E5E7E7",
"uX c #F2EEED",
"iX c #F8EEEF",
"pX c #F3F2EC",
"aX c #F9F7EC",
"sX c #F5F4F3",
"dX c #F9F6F4",
"fX c #FAF8F5",
"gX c #F6FBFA",
"hX c #FBFBFB",
"jX c #F8F9F8",
"kX c #F2EFF0",
"lX c None",
/* pixels */
"lXlXlXlXlXlXlXlXlXlXlXlXlXlXlXlXlXlXlXlXlXlXlXlXlXlXlXlXlXlXlXlXlXlXlXlXlXlXlXlXlXlXlXlXlXlXlXlXlXlXlXlXlXlXlXlXlXlXlXlXlXlXlXlXlXlXlXlXlX",
"lXlXlXlXlXlXlXlXlXlXlXlXlXlXlXlXlXlXlXlXlXlXlXlXlXlXlXlXlXlXlXlXlXlXlXlXlXlXlXlXlXlXlXlXlXlXlXlXlXlXlXlXlXlXlXlXlXlXlXlXlXlXlXlXlXlXlXlXlX",
"lXlXlXlXlXlXlXlXlXlXlXlXlXlXlXlXlXlXlXlXlXlXlXlXlXlXlXlXlXlXlXlXlXlXlXlXlXlXlXlXlXlXlXlXlXlXlXlXlXlXlXlXlXlXlXlXlXlXlXlXlXlXlXlXlXlXlXlXlX",
"lXlXlXlXlXlXlXlXlXlXlXlXlXlXlXlXlXlXlXlXlXlXlXlXlXlXlXlXlXlXlXlXlXlXlXlXlXlXlXlXlXlXlXlXlXlXlXlXlXlXlXlXlXlXlXlXlXlXlXlXlXlXlXlXlXlXlXlXlX",
"lXlXlXlXlXlXlXlXlXlXlXlXlXlXlXlXlXlXlXlXlXlXlXlXlXlXlXlXlXlXlXlXlXlXlXlXlXlXlXlXlXlXlXlXlXlXlXlXlXlXlXlXlXlXlXlXlXlXlXlXlXlXlXlXlXlXlXlXlX",
"lXlXlXlXlXlXlXlXlXlXlXlXlXlXlXlXlXlXlXlXlXlXlXlXlXlXlXlXlXlXlXlXlXlXlXlXlXlXlXlXlXlXlXlXlXlXlXlXlXlXlXlXlXlXlXlXlXlXlXlXlXlXlXlXlXlXlXlXlX",
"lXlXlXlXlXlXlXlXlXlXlXlXlXlXlXlXlXlXlXlXlXlXlXlXlXlXlXlXlXlXlXlXlXlXlXlXlXlXlXlXlXlXlXlXlXlXlXlXlXlXlXlXlXlXlXlXlXlXlXlXlXlXlXlXlXlXlXlXlX",
"lXlXlXlXlXlXlXlXlXlXlXlXlXlXlXlXlXlXlXlXlXlXlXlXlXlXlXlXlXlXlXlXlXlXlXlXlXlXlXlXlXlXlXlXlXlXlXlXlXlXlXlXlXlXlXlXlXlXlXlXlXlXlXlXlXlXlXlXlX",
"lXlXlXlXlXlXlXlXlXlXlXlXlXlXlXlXlXlXlXlXlXlXlXlXlXlXlXlXlXlXlXlXlXlXlXlXlXlXlXlXlXlXlXlXlXlXlXlXlXlXlXlXlXlXlXlXlXlXlXlXlXlXlXlXlXlXlXlXlX",
"lXlXlXlXlXlXlXlXlXlXlXlXlXlXlXlXlXlXlXlXlXlXlXlXlXlXlXlXlXlXlXlXlXlXlXlXlXlXlXlXlXlXlXlXlXlXlXlXlXlXlXlXlXlXlXlXlXlXlXlXlXlXlXlXlXlXlXlXlX",
"lXlXlXlXlXlXlXlXlXlXlXlXlXlXlXlXlXlXlXlXlXlXlXlXlXlXlXlXlXlXlXlXlXlXlXlXlXlXlXlXlXlXlXlXlXlXlXlXlXlXlXlXlXlXlXlXlXlXlXlXlXlXlXlXlXlXlXlXlX",
"lXlXlXlXlXlXlXlXlXlXlXlXlXlXlXlXlXlXlXlXlXlXlXlXlXlXlXlXlXlXlXlXlXlXlXlXlXlXlXlXlXlXlXlXlXlXlXlXlXlXlXlXlXlXlXlXlXlXlXlXlXlXlXlXlXlXlXlXlX",
"lXlXlXlXlXlXlXlXlXlXlXlXlXlXlXlXlXlXlXlXlXlXlXlXlXlXlXlXlXlXlXlXlXlXlXlXlXlXlXlXlXlXlXlXlXlXlXlXlXlXlXlXlXlXlXlXlXlXlXlXlXlXlXlXlXlXlXlXlX",
"lXlXlXlXlXlXlXlXlXlXlXlXlXlXlXlXlXlXlXlXlXlXlXlXlXlXlXlXlXlXlXlXlXlXlXlXlXlXlXlXlXlXlXlXlXlXlXlXlXlXlXlXlXlXlXlXlXlXlXlXlXlXlXlXlXlXlXlXlX",
"lXlXlXlXlXlXlXlXlXlXlXlXlXlXlXlXlXlXlXlXlXlXlXlXlXlXlXlXlXlXlXlXlXlXlXlXlXlXlXlXlXlXlXlXlXlXlXlXlXlXlXlXlXlXlXlXlXlXlXlXlXlXlXlXlXlXlXlXlX",
"lXlXlXlXlXlXlXlXlXlXlXlXlXlXlXlXlXlXlXlXlXlXlXlXlXlXlXlXlXlXlXlXlXlXlXlXlXlXlXlXlXlXlXlXlXlXlXlXlXlXlXlXlXlXlXlXlXlXlXlXlXlXlXlXlXlXlXlXlX",
"lXlXlXlXlXlXlXlXlXlXlXlXlXlXlXlXlXlXlXlXlXlXlXlXlXlXlXlXlXlXlXlXlXlXlXlXlXlXlXlXlXlXlXlXlXlXlXlXlXlXlXlXlXlXlXlXlXlXlXlXlXlXlXlXlXlXlXlXlX",
"lXlXlXlXlXlXlXlXlXlXlXlXlXlXlXlXlXlXlXlXlXlXlXlXlXlXlXlXlXlXlXlXlXlXlXlXlXlXlXlXlXlXlXlXlXlXlXlXlXlXlXlXlXlXlXlXlXlXlXlXlXlXlXlXlXlXlXlXlX",
"lXlXlXlXlXlXlXlXlXlXlXlXlXlXlXlXlXlXlXlXlXlXlXlXlXlXlXlXlXlXlXlXlXlXlXlXlXlXlXlXlXlXlXlXlXlXlXlXlXlXlXlXlXlXlXlXlXlXlXlXlXlXlXlXlXlXlXlXlX",
"lXlXlXlXlXlXlXlXlXlXlXlXlXlXlXlXlXlXlXlXlXlXlXlXlXlXlXlXlXlXlXlXlXlXlXlXlXlXlXlXlXlXlXlXlXlXlXlXlXlXlXlXlXlXlXlXlXlXlXlXlXlXlXlXlXlXlXlXlX",
"lXlXlXlXlXlXlXlXlXlXlXlXlXlXlXlXlXlXlXlXlXlXlXlXlXlXlXlXlXlXlXlXlXlXlXlXlXlXlXlXlXlXlXlXlXlXlXlXlXlXlXlXlXlXlXlXlXlXlXlXlXlXlXlXlXlXlXlXlX",
"lXlXlXlXlXlXlXlXlXlXlXlXlXlXlXlXlXlXlXlXlXlXlXlXlXlXlXlXlXlXlXlXlXlXlXlXlXlXlXlXlXlXlXlXlXlXlXlXlXlXlXlXlXlXlXlXlXlXlXlXlXlXlXlXlXlXlXlXlX",
"lXlXlXlXlXlXlXlXlXlXlXlXlXlXlXlXlXlXlXlXlXlXlXlXlXlXlXlXlXlXlXlXlXlXlXlXlXlXlXlXlXlXlXlXlXlXlXlXlXlXlXlXlXlXlXlXlXlXlXlXlXlXlXlXlXlXlXlXlX",
"lXlXlXlXlXlXlXlXlXlXlXlXlXlXlXlXlXlXlXlXlXlXlXlXlXlXlXlXlXlXlXlXlXlXlXlXlXlXlXlXlXlXlXlXlXlXlXlXlXlXlXlXlXlXlXlXlXlXlXlXlXlXlXlXlXlXlXlXlX",
"lXlXlXlXlXlXlXlXlXlXlXlXlXlXlXlXlXlXlXlXlXlXlXlXlXlXlXlXlXlXlXlXlXlXlXlXlXlXlXlXlXlXlXlXlXlXlXlXlXlXlXlXlXlXlXlXlXlXlXlXlXlXlXlXlXlXlXlXlX",
"lXlXlXlXlXlXlXlXlXlXlXlXlXlXlXlXlXlXlXlXlXlXlXlXlXlXlXlXlXlXlXlXlXlXlXlXlXlXlXlXlXlXlXlXlXlXlXlXlXlXlXlXlXlXlXlXlXlXlXlXlXlXlXlXlXlXlXlXlX",
"lXlXlXlXlXlXlXlXlXlXlXlXlXlXlXlXlXlXlXlXlXlXlXlXlXlXlXlXlXlXlXlXlXlXlXlXlXlXlXlXlXlXlXlXlXlXlXlXlXlXlXlXlXlXlXlXlXlXlXlXlXlXlXlXlXlXlXlXlX",
"lXlXlXlXlXlXlXlXlXlXlXlXlXlXlXlXlXlXlXlXlXlXlXlXlXlXlXlXlXlXlXlXlXlXlXlXlXlXlXlXlXlXlXlXlXlXlXlXlXlXlXlXlXlXlXlXlXlXlXlXlXlXlXlXlXlXlXlXlX",
"lXlXlXlXlXlXlXlXlXlXlXlXlXlXlXlXlXlXlXlX$ + . lXlXlXlXlXlXlXlXlXlXlXlXlXlXlXlXlXlXlXlXlXlXlXlXlXlXlXlXlXlXlXlXlXlXlXlXlXlXlXlXlXlXlXlXlXlX",
"lXlXlXlXlXlXlXlXlXlXlXlXlXlXlXlXlXlXlX^ l.X. .L lXlXlXlXlXlXlXlXlXlXlXlXlXlXlXlXlXlXlXlXlXlXlXlXlXlXlXlXlXlXlXlXlXlXlXlXlXlXlXlXlXlXlXlXlX",
"lXlXlXlXlXlXlXlXlXlXlXlXlXlXlXlXlXlX9 Q.5X9X5X~.B lXlXlXlXlXlXlXlXlXlXlXlXlXlXlXlXlXlXlXlXlXlXlXlXlX& w S lXlXlXlXlXlXlXlXlXlXlXlXlXlXlXlX",
"lXlXlXlXlXlXlXlXlXlXlXlXlXlXlXlXlXM F .XpXhXfX`.V @ lXlXlXlXlXlXlXlXlXlXlXlXlXlXlXlXlXlXlXlXlXlXlXZ } Q ! p lXlXlXlXlXlXlXlXlXlXlXlXlXlXlX",
"lXlXlXlXlXlXlXlXlXlXlXlXlXlXlXlXD #.u..XyX].v.) M : lXlXlXlXlXlXlXlXlXlXlXlXlXlX4 @ lXlXlXlXlXlX* A.>X!.) 4 lXlXlXlXlXlXlXlXlXlXlXlXlXlXlX",
"lXlXlXlXlXlXlXlXlXlXlXlXlXlXlX* G :.f.F./.( 3 5 H > lXlXlXlXlXlXlXlXlXlXlXlXlX: v _ P lXlXlXlXlX, `.aX{.) : lXlXlXlXlXlXlXlXlXlXlXlXlXlXlX",
"lXlXlXlXlXlXlXlXlXlXlXlXlXlXlX* G p.f.*.{ 9 @ lXlXlXlXlXlXlXlXlXlXlXlXlXlXlXlX+ _ #X{.] lXlXlX@ , _.aX`.Q : lXlXlXlXlXlXlXlXlXlXlXlXlXlXlX",
"lXlXlXlXlXlXlXlXlXlXlXlXlXlXlX8 F w.f.k N % lXlXlXlXlXlXlXlXlXlXlXlXlXlXlXlXlX# c.wXwX[ + lXlX+ & _.aX_.! : lXlXlXlXlXlXlXlXlXlXlXlXlXlXlX",
"lXlXlXlXlXlXlXlXlXlXlXlXlXlXlX4 g =.,.D 3 + lXlXlXlXlXlXlXlXlXlXlXlXlXlXlXlXlX# n.wXwX^ + X * & ; ^.pXE.C : lXlXlXlXlXlXlXlXlXlXlXlXlXlXlX",
"lXlXlXlXlXlXlXlXlXlXlXlXlXlXlX1 f m m x 3 O lXlXlXlXlXlXlXlXlXlXlXlXlXlXlXlXlX+ n.wX8X] & * q q : R.wXm.v > lXlXlXlXlXlXlXlXlXlXlXlXlXlXlX",
"lXlXlXlXlXlXlXlXlXlXlXlXlXlXlX4 D E J z 3 + lXlXlXlXlXlXlXlXlXlXlXlXlXlXlXlXlX+ n.8X8Xk.k %.$.$.%.` T.^ e 0 : lXlXlXlXlXlXlXlXlXlXlXlXlXlX",
"lXlXlXlXlXlXlXlXlXlXlXlXlXlXlXq D <.w.j 5 X lXlXlXlXlXlXlXlXlXlXlXlXlXlXlXlXlX+ n.rXwXF.u.i.i.e.w.$.L s u u w & lXlXlXlXlXlXlXlXlXlXlXlXlX",
"lXlXlXlXlXlXlXlXlXlXlXlXlXlXlXq f %.>.-.j f lXlXlXlXlXlXlXlXlXlXlXlXlXlXlXlXlX+ v.7X;XC.y.i.i.i.e.7.J V s s t y , lXlXlXlXlXlXlXlXlXlXlXlX",
"lXlXlXlXlXlXlXlXlXlXlXlXlXlXlXq 7 d F <.;.$.M lXlXlXlXlXlXlXlXlXlXlXlXlXlXlXlX& R H.C.d.i.a.i.i.y.e.u.J n s s s t : lXlXlXlXlXlXlXlXlXlXlX",
"lXlXlXlXlXlXlXlXlXlXlXlXlXlXlXr 7 4 y H.Z.*.Y 4 lXlXlXlXlXlXlXlXlXlXlXlXlXlXlX7 -.9.e.a.i.i.i.i.i.y.y.=.n s s s B t : lXlXlXlXlXlXlXlXlXlX",
"lXlXlXlXlXlXlXlXlXlXlXlXlXlXlXy 7 7 t =X,Xj.b 4 , * , < 9 0 0 0 0 w 4 4 < > f k >.e.i.i.i.i.i.e.e.r.r.=.m a s s s b r 1 ; : lXlXlXlXlXlXlX",
"lXlXlXlXlXlXlXlXlXlXlXlXlXlXlX< 7 6 6 5XgX}./ R j 6 r y y a a s u u u u t y T 6.u.a.e.i.i.i.y.8.9.t.f.<.` W u s b a u w w 5 lXlXlXlXlXlXlX",
"lXlXlXlXlXlXlXlXlXlXlXlXlXlXlXlXlXz 5 4XgXpX|.F.>.K v y a s s s i B i x t y M.`.L.h.t.t.e.t.t.-.l ;.f.H.$XT.A y u t u r < lXlXlXlXlXlXlXlX",
"lXlXlXlXlXlXlXlXlXlXlXlXlXlXlXlXlX> ; #XfXhXhX-Xs.1.Y i a s s s s b u u t w n.6X7XC.8.8.i.i.a.k , =.d.;XiX'.L t Z B t y 1 lXlXlXlXlXlXlXlX",
"lXlXlXlXlXlXlXlXlXlXlXlXlXlXlXlXlXlXlX .&XsXhX-Xd.9.:.J B s s s s s i u e w m.8XpX,X;XOXOX;XOX .q k.;XeXgX}.L L E./.Q w < - lXlXlXlXlXlXlX",
"lXlXlXlXlXlXlXlXlXlXlXlXlXlXlXlXlXlXlX% ! :XsXU.V.q.q.:.M A s s s u a t w w c.8XhXhXhXgXgXgXsXm.w E.pXgXfX%XS ' 3XwXO.w 5 d lXlXlXlXlXlXlX",
"lXlXlXlXlXlXlXlXlXlXlXlXlXlXlXlXlXlXlXlX. [ [.P.XXK.d.p.1.=.*.*.*.*.F t m $.4.n./.3XkXgXhXhXgX}.+.&XgXtX1X*X XR.~.~.! ; : lXlXlXlXlXlXlXlX",
"lXlXlXlXlXlXlXlXlXlXlXlXlXlXlXlXlXlXlXlXlX% B ).eX,XV.r.p.r.w.r.r.r.&.v 4.h.&.m S b.<XkXhXhXgXkX8XpXgX0XY.@XiX4Xo.s lXlXlXlXlXlXlXlXlXlXlX",
"lXlXlXlXlXlXlXlXlXlXlXlXlXlXlXlXlXlXlXlXlXlX% ^ [.D.s.q.;.<.w.f.q.q.7.k 6.U..XA.R. X0XuXtX}.~. X}.|.|.).x.N.&X{.~ lXlXlXlXlXlXlXlXlXlXlXlX",
"lXlXlXlXlXlXlXlXlXlXlXlXlXlXlXlXlXlXlXlXlXlX= 9 ~ 4.i.y.j h >.w.0.0.0.:.P.9XrX8XrXiXsXiX#X' B ! ' ' { | H | M.] lXlXlXlXlXlXlXlXlXlXlXlXlX",
"lXlXlXlXlXlXlXlXlXlXlXlXlXlXlXlXlXlXlXlXlXlX% y s T =.=.I ^ F.G.G.J.J.H.,XsXgXjXhXhXsX<XX.v 2 < 1 : : 5 7 6 r , lXlXlXlXlXlXlXlXlXlXlXlXlX",
"lXlXlXlXlXlXlXlXlXlXlXlXlXlXlXlXlXlXlXlXlXlX% t u s n ` R.'.9XeXqX7X7XqXkXhXhXjXhXsXyX+.v d 5 @ lXlXlXlXlXlXlXlXlXlXlXlXlXlXlXlXlXlXlXlXlX",
"lXlXlXlXlXlXlXlXlXlXlXlXlXlXlXlXlXlXlXlXlX. ; y u y p ! R.].5XeXtXtXtXrXiXhXhXhXhX6X~.` h f > lXlXlXlXlXlXlXlXlXlXlXlXlXlXlXlXlXlXlXlXlXlX",
"lXlXlXlXlXlXlXlXlXlXlXlXlXlXlXlXlXlXlXlXlX. = t u y y y B ! ..+.n.+.+.o.&XsXhXhXrX+.T <.2.j > lXlXlXlXlXlXlXlXlXlXlXlXlXlXlXlXlXlXlXlXlXlX",
"lXlXlXlXlXlXlXlXlXlXlXlXlXlXlXlXlXlXlXlXlXo @ Z O.W y y A y 9 ; @ O O O +.6XhXhX4XW U 1.p.#.4 X lXlXlXlXlXlXlXlXlXlXlXlXlXlXlXlXlXlXlXlXlX",
"lXlXlXlXlXlXlXlXlXlXlXlXlXlXlXlXlXlXlXlXlXX = c.3XT.A w T.E.A < + . . . B O.2XdX2XZ P z.F.5.w o lXlXlXlXlXlXlXlXlXlXlXlXlXlXlXlXlXlXlXlXlX",
"lXlXlXlXlXlXlXlXlXlXlXlXlXlXlXlXlXlXlXlXlXX # ~.kX4X' u ].&X( e +   lXlX. O E.pX&XA C D.XXl.4 . lXlXlXlXlXlXlXlXlXlXlXlXlXlXlXlXlXlXlXlXlX",
"lXlXlXlXlXlXlXlXlXlXlXlXlXlXlXlXlXlXlXlXlX. # _.sXjX|.o.o.[ c x $ lXlXlX  + ^.pX2XA 2 } S.! $   lXlXlXlXlXlXlXlXlXlXlXlXlXlXlXlXlXlXlXlXlX",
"lXlXlXlXlXlXlXlXlXlXlXlXlXlXlXlXlXlXlXlXlX. . `.sXhXjX3XW 2 z z $ lXlXlX  $ ^.pX2XA @ z i &   lXlXlXlXlXlXlXlXlXlXlXlXlXlXlXlXlXlXlXlXlXlX",
"lXlXlXlXlXlXlXlXlXlXlXlXlXlXlXlXlXlXlXlXlX.   c.].#X].Q.S 3 4 : . lXlXlX  .  .[.A.c : & .   lXlXlXlXlXlXlXlXlXlXlXlXlXlXlXlXlXlXlXlXlXlXlX",
"lXlXlXlXlXlXlXlXlXlXlXlXlXlXlXlXlXlXlXlXlXlX  4 C L S x f 6 +   lXlXlXlXlX  & C m c 6 $   lXlXlXlXlXlXlXlXlXlXlXlXlXlXlXlXlXlXlXlXlXlXlXlX",
"lXlXlXlXlXlXlXlXlXlXlXlXlXlXlXlXlXlXlXlXlXlXlX  o . + & 1 * . lXlXlXlXlXlXlX  . * 5 : . lXlXlXlXlXlXlXlXlXlXlXlXlXlXlXlXlXlXlXlXlXlXlXlXlX",
"lXlXlXlXlXlXlXlXlXlXlXlXlXlXlXlXlXlXlXlXlXlXlXlXlX          lXlXlXlXlXlXlXlXlXlX    lXlXlXlXlXlXlXlXlXlXlXlXlXlXlXlXlXlXlXlXlXlXlXlXlXlXlX",
"lXlXlXlXlXlXlXlXlXlXlXlXlXlXlXlXlXlXlXlXlXlXlXlXlXlXlXlXlXlXlXlXlXlXlXlXlXlXlXlXlXlXlXlXlXlXlXlXlXlXlXlXlXlXlXlXlXlXlXlXlXlXlXlXlXlXlXlXlX",
"lXlXlXlXlXlXlXlXlXlXlXlXlXlXlXlXlXlXlXlXlXlXlXlXlXlXlXlXlXlXlXlXlXlXlXlXlXlXlXlXlXlXlXlXlXlXlXlXlXlXlXlXlXlXlXlXlXlXlXlXlXlXlXlXlXlXlXlXlX",
"lXlXlXlXlXlXlXlXlXlXlXlXlXlXlXlXlXlXlXlXlXlXlXlXlXlXlXlXlXlXlXlXlXlXlXlXlXlXlXlXlXlXlXlXlXlXlXlXlXlXlXlXlXlXlXlXlXlXlXlXlXlXlXlXlXlXlXlXlX"
};
