/* XPM */
static char *result[] = {
/* columns rows colors chars-per-pixel */
"69 69 222 2 ",
"   c #020101",
".  c #0B0605",
"X  c #0D090A",
"o  c #0C0708",
"O  c #130C0B",
"+  c #150908",
"@  c #1D120E",
"#  c #16100C",
"$  c #170E11",
"%  c #141013",
"&  c #1B1212",
"*  c #1C1A1C",
"=  c #1E1814",
"-  c #0D1014",
";  c #25130E",
":  c #211205",
">  c #231513",
",  c #2B1613",
"<  c #251915",
"1  c #2C1A15",
"2  c #261B1C",
"3  c #2A1E1B",
"4  c #20161A",
"5  c #321D15",
"6  c #311C1A",
"7  c #391E16",
"8  c #200F0F",
"9  c #2D211D",
"0  c #33231C",
"q  c #3B261D",
"w  c #372214",
"e  c #1F1F22",
"r  c #251E23",
"t  c #2C2222",
"y  c #2A2627",
"u  c #342522",
"i  c #392624",
"p  c #362826",
"a  c #3B2A23",
"s  c #362B2A",
"d  c #3B2D2B",
"f  c #3B2528",
"g  c #3D312D",
"h  c #3B2F32",
"j  c #3C3232",
"k  c #2F302D",
"l  c #43241B",
"z  c #402412",
"x  c #4D311E",
"c  c #5B321A",
"v  c #552F1D",
"b  c #6B370D",
"n  c #783D0D",
"m  c #693819",
"M  c #783A14",
"N  c #612E19",
"B  c #432D24",
"V  c #412E2D",
"C  c #4E2D20",
"Z  c #43322C",
"A  c #4B332C",
"S  c #4B3324",
"D  c #5B3A26",
"F  c #573826",
"G  c #4C3A34",
"H  c #4B3D3B",
"J  c #473734",
"K  c #533C39",
"L  c #412D30",
"P  c #653D25",
"I  c #722D36",
"U  c #784018",
"Y  c #4E433E",
"T  c #53413D",
"R  c #6C452A",
"E  c #6C462A",
"W  c #684635",
"Q  c #744521",
"!  c #463F43",
"~  c #6A3546",
"^  c #544946",
"/  c #5A4C4B",
"(  c #594946",
")  c #5E5554",
"_  c #504C4D",
"`  c #634D46",
"'  c #65544D",
"]  c #6E554F",
"[  c #72564C",
"{  c #625553",
"}  c #685C59",
"|  c #735C59",
" . c #704B4C",
".. c #79625B",
"X. c #6E615F",
"o. c #6E5F60",
"O. c #7B6C66",
"+. c #776865",
"@. c #7D7473",
"#. c #7A726D",
"$. c #803210",
"%. c #97460D",
"&. c #874818",
"*. c #9C5215",
"=. c #8F4C19",
"-. c #A64D0B",
";. c #AE5A0B",
":. c #A6560E",
">. c #B8580A",
",. c #A75317",
"<. c #B95E12",
"1. c #A04A12",
"2. c #BB6118",
"3. c #8B4E21",
"4. c #985628",
"5. c #985730",
"6. c #BB743E",
"7. c #C75D07",
"8. c #D05C01",
"9. c #C5610D",
"0. c #CC640E",
"q. c #CB6707",
"w. c #DC6B05",
"e. c #D4670A",
"r. c #D46C0D",
"t. c #D96D0B",
"y. c #D86102",
"u. c #D6710D",
"i. c #DB720D",
"p. c #C46512",
"a. c #D46E11",
"s. c #D47012",
"d. c #DB7413",
"f. c #DE7D12",
"g. c #E36D06",
"h. c #E5750A",
"j. c #CA7529",
"k. c #845A40",
"l. c #87685B",
"z. c #B37E5B",
"x. c #847373",
"c. c #877C79",
"v. c #8A7469",
"b. c #C77447",
"n. c #D45071",
"m. c #E0811D",
"M. c #DD872C",
"N. c #BC845A",
"B. c #93827F",
"V. c #9C897D",
"C. c #A98670",
"Z. c #DF8D47",
"A. c #DE9447",
"S. c #E3964C",
"D. c #E49954",
"F. c #E48A40",
"G. c #DF9E61",
"H. c #D7A272",
"J. c #E6B37B",
"K. c #E1A274",
"L. c #C36689",
"P. c #9C8C85",
"I. c #9B8C89",
"U. c #9E9691",
"Y. c #9D958E",
"T. c #AB9489",
"R. c #A49995",
"E. c #A59997",
"W. c #B69785",
"Q. c #B2A39D",
"!. c #BDA29A",
"~. c #ADA49E",
"^. c #AFAAAA",
"/. c #BAAAA3",
"(. c #B6A9A6",
"). c #BAB1AB",
"_. c #BBB5B4",
"`. c #B4B2B3",
"'. c #D7AB83",
"]. c #CBA995",
"[. c #DBB69D",
"{. c #E5B685",
"}. c #D990A1",
"|. c #C5B6AE",
" X c #C3B8B5",
".X c #D5B1B6",
"XX c #EBC69C",
"oX c #CDC3BD",
"OX c #C6C2BF",
"+X c #D0C3B8",
"@X c #E8C7A5",
"#X c #EAD6B9",
"$X c #E6C3BE",
"%X c #E9B1C0",
"&X c #CCC4C2",
"*X c #CDC9C4",
"=X c #D2CDCB",
"-X c #DCCFCB",
";X c #DDDCD4",
":X c #DAD5D4",
">X c #D7D0CC",
",X c #E7D8C7",
"<X c #E2D9D5",
"1X c #E0D7D7",
"2X c #E3E3DC",
"3X c #E9E4D9",
"4X c #F4EADD",
"5X c #EEE9CF",
"6X c #E5E3E2",
"7X c #E9E9E3",
"8X c #EEECEA",
"9X c #E8E2E6",
"0X c #F2EEEC",
"qX c #F5F3ED",
"wX c #F8F4ED",
"eX c #F5F4F3",
"rX c #F9F7F2",
"tX c #FAFAF5",
"yX c #F3FCFB",
"uX c #FBFBFB",
"iX c #F7F9F5",
"pX c None",
/* pixels */
"pXpXpXpXpXpXpXpXpXpXpXpXpXpXpXpXpXpXpXpXpXpXpXpXpXpXpXpXpXpXpXpXpXpXpXpXpXpXpXpXpXpXpXpXpXpXpXpXpXpXpXpXpXpXpXpXpXpXpXpXpXpXpXpXpXpXpXpXpX",
"pXpXpXpXpXpXpXpXpXpXpXpXpXpXpXpXpXpXpXpXpXpXpXpXpXpXpXpXpXpXpXpXpXpXpXpXpXpXpXpXpXpXpXpXpXpXpXpXpXpXpXpXpXpXpXpXpXpXpXpXpXpXpXpXpXpXpXpXpX",
"pXpXpXpXpXpXpXpXpXpXpXpXpXpXpXpXpXpXpXpXpXpXpXpXpXpXpXpXpXpXpXpXpXpXpXpXpXpXpXpXpXpXpXpXpXpXpXpXpXpXpXpXpXpXpXpXpXpXpXpXpXpXpXpXpXpXpXpXpX",
"pXpXpXpXpXpXpXpXpXpXpXpXpXpXpXpXpXpXpXpXpXpXpXpXpXpXpXpXpXpXpXpXpXpXpXpXpXpXpXpXpXpXpXpXpXpXpXpXpXpXpXpXpXpXpXpXpXpXpXpXpXpXpXpXpXpXpXpXpX",
"pXpXpXpXpXpXpXpXpXpXpXpXpXpXpXpXpXpXpXpXpXpXpXpXpXpXpXpXpXpXpXpXpXpXpXpXpXpXpXpXpXpXpXpXpXpXpXpXpXpXpXpXpXpXpXpXpXpXpXpXpXpXpXpXpXpXpXpXpX",
"pXpXpXpXpXpXpXpXpXpXpXpXpXpXpXpXpXpXpXpXpXpXpXpXpXpXpXpXpXpXpXpXpXpXpXpXpXpXpXpXpXpXpXpXpXpXpXpXpXpXpXpXpXpXpXpXpXpXpXpXpXpXpXpXpXpXpXpXpX",
"pXpXpXpXpXpXpXpXpXpXpXpXpXpXpXpXpXpXpXpXpXpXpXpXpXpXpXpXpXpXpXpXpXpXpXpXpXpXpXpXpXpXpXpXpXpXpXpXpXpXpXpXpXpXpXpXpXpXpXpXpXpXpXpXpXpXpXpXpX",
"pXpXpXpXpXpXpXpXpXpXpXpXpXpXpXpXpXpXpXpXpXpXpXpXpXpXpXpXpXpXpXpXpXpXpXpXpXpXpXpXpXpXpXpXpXpXpXpXpXpXpXpXpXpXpXpXpXpXpXpXpXpXpXpXpXpXpXpXpX",
"pXpXpXpXpXpXpXpXpXpXpXpXpXpXpXpXpXpXpXpXpXpXpXpXpXpXpXpXpXpXpXpXpXpXpXpXpXpXpXpXpXpXpXpXpXpXpXpXpXpXpXpXpXpXpXpXpXpXpXpXpXpXpXpXpXpXpXpXpX",
"pXpXpXpXpXpXpXpXpXpXpXpXpXpXpXpXpXpXpXpXpXpXpXpXpXpXpXpXpXpXpXpXpXpXpXpXpXpXpXpXpXpXpXpXpXpXpXpXpXpXpXpXpXpXpXpXpXpXpXpXpXpXpXpXpXpXpXpXpX",
"pXpXpXpXpXpXpXpXpXpXpXpXpXpXpXpXpXpXpXpXpXpXpXpXpXpXpXpXpXpXpXpXpXpXpXpXpXpXpXpXpXpXpXpXpXpXpXpXpXpXpXpXpXpXpXpXpXpXpXpXpXpXpXpXpXpXpXpXpX",
"pXpXpXpXpXpXpXpXpXpXpXpXpXpXpXpXpXpXpXpXpXpXpXpXpXpXpXpXpXpXpXpXpXpXpXpXpXpXpXpXpXpXpXpXpXpXpXpXpXpXpXpXpXpXpXpXpXpXpXpXpXpXpXpXpXpXpXpXpX",
"pXpXpXpXpXpXpXpXpXpXpXpXpXpXpXpXpXpXpXpXpXpXpXpXpXpXpXpXpXpXpXpXpXpXpXpXpXpXpXpXpXpXpXpXpXpXpXpXpXpXpXpXpXpXpXpXpXpXpXpXpXpXpXpXpXpXpXpXpX",
"pXpXpXpXpXpXpXpXpXpXpXpXpXpXpXpXpXpXpXpXpXpXpXpXpXpXpXpXpXpXpXpXpXpXpXpXpXpXpXpXpXpXpXpXpXpXpXpXpXpXpXpXpXpXpXpXpXpXpXpXpXpXpXpXpXpXpXpXpX",
"pXpXpXpXpXpXpXpXpXpXpXpXpXpXpXpXpXpXpXpXpXpXpXpXpXpXpXpXpXpXpXpXpXpXpXpXpXpXpXpXpXpXpXpXpXpXpXpXpXpXpXpXpXpXpXpXpXpXpXpXpXpXpXpXpXpXpXpXpX",
"pXpXpXpXpXpXpXpXpXpXpXpXpXpXpXpXpXpXpXpXpXpXpXpXpXpXpXpXpXpXpXpXpXpXpXpXpXpXpXpXpXpXpXpXpXpXpXpXpXpXpXpXpXpXpXpXpXpXpXpXpXpXpXpXpXpXpXpXpX",
"pXpXpXpXpXpXpXpXpXpXpXpXpXpXpXpXpXpXpXpXpXpXpXpXpXpXpXpXpXpXpXpXpXpXpXpXpXpXpXpXpXpXpXpXpXpXpXpXpXpXpXpXpXpXpXpXpXpXpXpXpXpXpXpXpXpXpXpXpX",
"pXpXpXpXpXpXpXpXpXpXpXpXpXpXpXpXpXpXpXpXpXpXpXpXpXpXpXpXpXpXpXpXpXpXpXpXpXpXpXpXpXpXpXpXpXpXpXpXpXpXpXpXpXpXpXpXpXpXpXpXpXpXpXpXpXpXpXpXpX",
"pXpXpXpXpXpXpXpXpXpXpXpXpXpXpXpXpXpXpXpXpXpXpXpXpXpXpXpXpXpXpXpXpXpXpXpXpXpXpXpXpXpXpXpXpXpXpXpXpXpXpXpXpXpXpXpXpXpXpXpXpXpXpXpXpXpXpXpXpX",
"pXpXpXpXpXpXpXpXpXpXpXpXpXpXpXpXpXpXpXpXpXpXpXpXpXpXpXpXpXpXpXpXpXpXpXpXpXpXpXpXpXpXpXpXpXpXpXpXpXpXpXpXpXpXpXpXpXpXpXpXpXpXpXpXpXpXpXpXpX",
"pXpXpXpXpXpXpXpXpXpXpXpXpXpXpXpXpXpXpXpXpXpXpXpXpXpXpXpXpXpXpXpXpXpXpXpXpXpXpXpXpXpXpXpXpXpXpXpXpXpXpXpXpXpXpXpXpXpXpXpXpXpXpXpXpXpXpXpXpX",
"pXpXpXpXpXpXpXpXpXpXpXpXpXpXpXpXpXpXpXpXpXpXpXpXpXpXpXpXpXpXpXpXpXpXpXpXpXpXpXpXpXpXpXpXpXpXpXpXpXpXpXpXpXpXpXpXpXpXpXpXpXpXpXpXpXpXpXpXpX",
"pXpXpXpXpXpXpXpXpXpXpXpXpXpXpXpXpXpXpXpXpXpXpXpXpXpXpXpXpXpXpXpXpXpXpXpXpXpXpXpXpXpXpXpXpXpXpXpXpXpXpXpXpXpXpXpXpXpXpXpXpXpXpXpXpXpXpXpXpX",
"pXpXpXpXpXpXpXpXpXpXpXpXpXpXpXpXpXpXpXpXpXpXpXpXpXpXpXpXpXpXpXpXpXpXpXpXpXpXpXpXpXpXpXpXpXpXpXpXpXpXpXpXpXpXpXpXpXpXpXpXpXpXpXpXpXpXpXpXpX",
"pXpXpXpXpXpXpXpXpXpXpXpXpXpXpXpXpXpXpXpXpXpXpXpXpXpXpXpXpXpXpXpXpXpXpXpXpXpXpXpXpXpXpXpXpXpXpXpXpXpXpXpXpXpXpXpXpXpXpXpXpXpXpXpXpXpXpXpXpX",
"pXpXpXpXpXpXpXpXpXpXpXpXpXpXpXpXpXpXpXpXpXpXpXpXpXpXpXpXpXpXpXpXpXpXpXpXpXpXpXpXpXpXpXpXpXpXpXpXpXpXpXpXpXpXpXpXpXpXpXpXpXpXpXpXpXpXpXpXpX",
"pXpXpXpXpXpXpXpXpXpXpXpXpXpXpXpXpXpXpXpXpXpXpXpXpXpXpXpXpXpXpXpXpXpXpXpXpXpXpXpXpXpXpXpXpXpXpXpXpXpXpXpXpXpXpXpXpXpXpXpXpXpXpXpXpXpXpXpXpX",
"pXpXpXpXpXpXpXpXpXpXpXpXpXpXpXpXpXpXpXpXpXpXpXpXpXpXpXpXpXpXpXpXpXpXpXpXpXpXpXpXpXpXpXpXpXpXpXpXpXpXpXpXpXpXpXpXpXpXpXpXpXpXpXpXpXpXpXpXpX",
"pXpXpXpXpXpXpXpXpXpXpXpXpXpXpXpXpXpXpXpXpXpXpXpXpXpXpXpXpXpXpXpXpXpXpXpXpXpXpXpXpXpXpXpXpXpXpXpXpXpXpXpXpXpXpXpXpXpXpXpXpXpXpXpXpXpXpXpXpX",
"pXpXpXpXpXpXpXpXpXpXpXpXpXpXpXpXpXpXpXpXpXpXpXpXpXpXpXpXpXpXpXpXpXpXpXpXpXpXpXpXpXpXpXpXpXpXpXpXpXpXpXpXpXpXpXpXpXpXpXpXpXpXpXpXpXpXpXpXpX",
"pXpXpXpXpXpXpXpXpXpXpXpXpXpXpXpXpXpXpXpX4 V K pXpXpXpXpXpXpXpXpXpXpXpXpXpXpXpXpXpXpXpXpXpXpXpXpXpXpXpXpXpXpXpXpXpXpXpXpXpXpXpXpXpXpXpXpXpX",
"pXpXpXpXpXpXpXpXpXpXpXpXpXpXpXpXpXpXpXg [ ' V 0 pXpXpXpXpXpXpXpXpXpXpXpXpXpXpXpXpXpXpXpXpXpXpXpXpXpXpXpXpXpXpXpXpXpXpXpXpXpXpXpXpXpXpXpXpX",
"pXpXpXpXpXpXpXpXpXpXpXpXpXpXpXpXpXpX9 c.+XP.u # pXpXpXpXpXpXpXpXpXpXpXpXpXpXpXpXpXpXpXpXpXpXpXpXpXpXpX3 Z pXpXpXpXpXpXpXpXpXpXpXpXpXpXpXpX",
"pXpXpXpXpXpXpXpXpXpXpXpXpXpXpXpXpX2 ' |.wX).p X pXpXpXpXpXpXpXpXpXpXpXpXpXpXpXpXpXpXpXpXpXpXpXpXpXpX( K f < pXpXpXpXpXpXpXpXpXpXpXpXpXpXpX",
"pXpXpXpXpXpXpXpXpXpXpXpXpXpXpXpXg ] T.2XiX).a X pXpXpXpXpXpXpXpXpXpXpXpXpXpXpXpX3 0 pXpXpXpXpXpX* l.oX~.a O pXpXpXpXpXpXpXpXpXpXpXpXpXpXpX",
"pXpXpXpXpXpXpXpXpXpXpXpXpXpXpX* K C.,XwXqX).B . pXpXpXpXpXpXpXpXpXpXpXpXpXpXpXr 3 G 0 pXpXpXpXpX9 V.tX=Xa O pXpXpXpXpXpXpXpXpXpXpXpXpXpXpX",
"pXpXpXpXpXpXpXpXpXpXpXpXpXpXpX* W 6.K.].).c.9 pXpXpXpXpXpXpXpXpXpXpXpXpXpXpXpX2 p ~.P.J pXpXpXo < P.tX=X6 . pXpXpXpXpXpXpXpXpXpXpXpXpXpXpX",
"pXpXpXpXpXpXpXpXpXpXpXpXpXpXpXe W >.0.3.^ y pXpXpXpXpXpXpXpXpXpXpXpXpXpXpXpXpX< ^ rX:X) & pXpXo < P.rX*X, . pXpXpXpXpXpXpXpXpXpXpXpXpXpXpX",
"pXpXpXpXpXpXpXpXpXpXpXpXpXpXpXy R >.8.$.9 X pXpXpXpXpXpXpXpXpXpXpXpXpXpXpXpXpX< ^ iX;X_ & X pXO < c.wX&X, o pXpXpXpXpXpXpXpXpXpXpXpXpXpXpX",
"pXpXpXpXpXpXpXpXpXpXpXpXpXpXpXt E >.y.1.i O pXpXpXpXpXpXpXpXpXpXpXpXpXpXpXpXpX& ( wX;X^ - - % % 3 x.0X^., = pXpXpXpXpXpXpXpXpXpXpXpXpXpXpX",
"pXpXpXpXpXpXpXpXpXpXpXpXpXpXpXt R %.>.&.0 X pXpXpXpXpXpXpXpXpXpXpXpXpXpXpXpXpX8 ( wX;XW c b M n M [ `.X.0 u pXpXpXpXpXpXpXpXpXpXpXpXpXpXpX",
"pXpXpXpXpXpXpXpXpXpXpXpXpXpXpX3 S x D x l O pXpXpXpXpXpXpXpXpXpXpXpXpXpXpXpXpX& ( iX5Xz.p.9.0.0.p.3._ y V s u 4 pXpXpXpXpXpXpXpXpXpXpXpXpX",
"pXpXpXpXpXpXpXpXpXpXpXpXpXpXpX3 S S c a x O pXpXpXpXpXpXpXpXpXpXpXpXpXpXpXpXpX@ ^ 4X#XM.d.a.s.u.i.9.P d V d h s pXpXpXpXpXpXpXpXpXpXpXpXpX",
"pXpXpXpXpXpXpXpXpXpXpXpXpXpXpX9 R &.;.Q a + pXpXpXpXpXpXpXpXpXpXpXpXpXpXpXpXpX$ F G.A.f.s.s.s.s.a.a.2.&.d g h j d 9 pXpXpXpXpXpXpXpXpXpXpX",
"pXpXpXpXpXpXpXpXpXpXpXpXpXpXpX9 D &.>.:.c : pXpXpXpXpXpXpXpXpXpXpXpXpXpXpXpXO q b q.a.s.s.s.s.u.r.i.t.<.h h h J Z d pXpXpXpXpXpXpXpXpXpXpX",
"pXpXpXpXpXpXpXpXpXpXpXpXpXpXpX9 S c U *.%.N = * e 3 3 r r t t t r u t 9 9 3 0 M -.e.s.s.s.a.r.r.i.i.t.<.s h j j j g i 0 i q pXpXpXpXpXpXpX",
"pXpXpXpXpXpXpXpXpXpXpXpXpXpXpX< x t B 4.j.4.P v v q p p d j j j g L g g d p Z 2.9.r.s.s.a.a.a.r.q.w.w.2.J H d j j g d f a B pXpXpXpXpXpXpX",
"pXpXpXpXpXpXpXpXpXpXpXpXpXpXpX< a 9 Z C.@X[.].N.:.m d d h j j j j g g d d u ( [.H.d.a.r.q.a.r.;.b >.h.j.Q.R.d h g d d p < pXpXpXpXpXpXpXpX",
"pXpXpXpXpXpXpXpXpXpXpXpXpXpXpX2 a 5 G /.uXyXrXXXt.,.c d j j j j j Z g g a i { tX,XM.r.e.r.a.r.&.y U h.G.eX2Xu d J J p p O pXpXpXpXpXpXpXpX",
"pXpXpXpXpXpXpXpXpXpXpXpXpXpXpXpX0 5 A (.uXuXuX@Xr.7.,.Q J j j j j j d a p i { tX8X@XJ.{.{.{.'.l.k E XX5XyX2X1 j Y.^.K 3 0 pXpXpXpXpXpXpXpX",
"pXpXpXpXpXpXpXpXpXpXpXpXpXpXpXpXpX; Z Q.uXuXeX@Xi.e.a.<.D j j j j j d d p i ] rXyXrX0XeXeXeX9XY.g X.4XyXtX<X, J 2XqX' < a q pXpXpXpXpXpXpX",
"pXpXpXpXpXpXpXpXpXpXpXpXpXpXpXpXpXpXd P. X|.E.W.J.S.d.0.,.3.3.3.3.&.P d S U I U._.>X0XuXuXuXyX XO.^.yXqX%X%Xc.x.^.OXJ O > 3 pXpXpXpXpXpXpX",
"pXpXpXpXpXpXpXpXpXpXpXpXpXpXpXpXpXpXpX^ X.W G x.4XXXm.w.e.y.t.e.r.0.*.g P 7.$.L / x.=XuXuXuXuX8X=X8XyX9Xn.}.2X*Xc.{ pXpXpXpXpXpXpXpXpXpXpX",
"pXpXpXpXpXpXpXpXpXpXpXpXpXpXpXpXpXpXpXpX1 1 0 {  XH.m.w.>.:.e.w.t.t.2.m 5.D.z.l.o.R.:XeXeX>X&X=X:X;X<X.Xn.L.4X<X{ . pXpXpXpXpXpXpXpXpXpXpX",
"pXpXpXpXpXpXpXpXpXpXpXpXpXpXpXpXpXpXpXpXpX@ 9 g ' 5.h.q.U R ;.w.g.w.y.>.b.5X3X-X>XeXeX0X=X| / { } X... .I ~ O.+.% pXpXpXpXpXpXpXpXpXpXpXpX",
"pXpXpXpXpXpXpXpXpXpXpXpXpXpXpXpXpXpXpXpXpX# 9 0 p P p.;.S ) z.A.Z.Z.F.S.[.yXuXuXuXuX0X_.O.5 ; 8 + + . . . O X . pXpXpXpXpXpXpXpXpXpXpXpXpX",
"pXpXpXpXpXpXpXpXpXpXpXpXpXpXpXpXpXpXpXpXpXO 3 9 u V P k.x.(.#X5X,X#X#X,XqXuXuXuXuXuX6X| l w w < pXpXpXpXpXpXpXpXpXpXpXpXpXpXpXpXpXpXpXpXpX",
"pXpXpXpXpXpXpXpXpXpXpXpXpXpXpXpXpXpXpXpXX p ' { { ! r ^ T.,X<X7X7X7X7X8XtXuXuXuXuXuX1X! 0 0 9 O pXpXpXpXpXpXpXpXpXpXpXpXpXpXpXpXpXpXpXpXpX",
"pXpXpXpXpXpXpXpXpXpXpXpXpXpXpXpXpXpXpXX t +.&X*X*XU.H u ` +.#.@.@.@.@.c.R.<XuXuXuXuX;XK 3 & O pXpXpXpXpXpXpXpXpXpXpXpXpXpXpXpXpXpXpXpXpXpX",
"pXpXpXpXpXpXpXpXpXpXpXpXpXpXpXpXpXpXpX$ d P.yXuXeX_.Y @ > , 6 , 1 , , O V !.&X0XuXuX9X+.g #   pXpXpXpXpXpXpXpXpXpXpXpXpXpXpXpXpXpXpXpXpXpX",
"pXpXpXpXpXpXpXpXpXpXpXpXpXpXpXpXpXpXpXo u c.uX6XR.( O o O , l w 0 7 6 . u v.| c._.tXrX*XE.{ O   pXpXpXpXpXpXpXpXpXpXpXpXpXpXpXpXpXpXpXpXpX",
"pXpXpXpXpXpXpXpXpXpXpXpXpXpXpXpXpXpXpXo 3 P.yX_.d .   pX  . , z 5 w >   $ G i > / wXuXuXqXT.<   pXpXpXpXpXpXpXpXpXpXpXpXpXpXpXpXpXpXpXpXpX",
"pXpXpXpXpXpXpXpXpXpXpXpXpXpXpXpXpXpXpXpX& o.|.v.7 ;   pXpXpXX ; @ @ o pX  X ; . y /./.|.Q.l.l o pXpXpXpXpXpXpXpXpXpXpXpXpXpXpXpXpXpXpXpXpX",
"pXpXpXpXpXpXpXpXpXpXpXpXpXpXpXpXpXpXpXpXpXt ( F x 3   pXpXpXpX      pXpXpX      $ G J G A l F pXpXpXpXpXpXpXpXpXpXpXpXpXpXpXpXpXpXpXpXpXpX",
"pXpXpXpXpXpXpXpXpXpXpXpXpXpXpXpXpXpXpXpXpXpXO > 1 #   pXpXpXpXpXpXpXpXpXpXpXpXpX  . o o O > f pXpXpXpXpXpXpXpXpXpXpXpXpXpXpXpXpXpXpXpXpXpX",
"pXpXpXpXpXpXpXpXpXpXpXpXpXpXpXpXpXpXpXpXpXpXpX  pXpXpXpXpXpXpXpXpXpXpXpXpXpXpXpXpXpX    pXpXpXpXpXpXpXpXpXpXpXpXpXpXpXpXpXpXpXpXpXpXpXpXpX",
"pXpXpXpXpXpXpXpXpXpXpXpXpXpXpXpXpXpXpXpXpXpXpXpXpXpXpXpXpXpXpXpXpXpXpXpXpXpXpXpXpXpXpXpXpXpXpXpXpXpXpXpXpXpXpXpXpXpXpXpXpXpXpXpXpXpXpXpXpX",
"pXpXpXpXpXpXpXpXpXpXpXpXpXpXpXpXpXpXpXpXpXpXpXpXpXpXpXpXpXpXpXpXpXpXpXpXpXpXpXpXpXpXpXpXpXpXpXpXpXpXpXpXpXpXpXpXpXpXpXpXpXpXpXpXpXpXpXpXpX",
"pXpXpXpXpXpXpXpXpXpXpXpXpXpXpXpXpXpXpXpXpXpXpXpXpXpXpXpXpXpXpXpXpXpXpXpXpXpXpXpXpXpXpXpXpXpXpXpXpXpXpXpXpXpXpXpXpXpXpXpXpXpXpXpXpXpXpXpXpX"
};
