/* XPM */
static char *result[] = {
/* columns rows colors chars-per-pixel */
"69 69 226 2 ",
"   c #020101",
".  c #0A0504",
"X  c #0E0B0B",
"o  c #0F0609",
"O  c #130805",
"+  c #140B0A",
"@  c #1B0C0C",
"#  c #110703",
"$  c #1A120D",
"%  c #170F14",
"&  c #1C1313",
"*  c #1B1B1D",
"=  c #1B1614",
"-  c #0E0D10",
";  c #25140D",
":  c #221513",
">  c #291412",
",  c #231915",
"<  c #2B1A16",
"1  c #24161B",
"2  c #251A1A",
"3  c #2B1E1D",
"4  c #331F19",
"5  c #321917",
"6  c #2D211D",
"7  c #32231C",
"8  c #3A261C",
"9  c #3A291A",
"0  c #181D27",
"q  c #301B21",
"w  c #2C2221",
"e  c #282426",
"r  c #332523",
"t  c #3B2623",
"y  c #362825",
"u  c #3A2A25",
"i  c #362B29",
"p  c #3A2D2C",
"a  c #352428",
"s  c #3E302E",
"d  c #3E3225",
"f  c #3B2F31",
"g  c #3D3232",
"h  c #363A39",
"j  c #5C2B0E",
"k  c #43251B",
"l  c #462C1D",
"z  c #472814",
"x  c #552A1C",
"c  c #6B3B16",
"v  c #6C341D",
"b  c #653B1C",
"n  c #733B13",
"m  c #763B19",
"M  c #62350D",
"N  c #422C22",
"B  c #482C26",
"V  c #542E25",
"C  c #42332E",
"Z  c #4A332C",
"A  c #4A3125",
"S  c #543323",
"D  c #55352B",
"F  c #5A3B2A",
"G  c #433533",
"H  c #4C3533",
"J  c #4B3C3B",
"K  c #483B35",
"L  c #543E3A",
"P  c #503835",
"I  c #613C28",
"U  c #743E2F",
"Y  c #79441C",
"T  c #4D423E",
"R  c #53423B",
"E  c #5A453E",
"W  c #7C4324",
"Q  c #674738",
"!  c #775237",
"~  c #754A28",
"^  c #4A4841",
"/  c #554443",
"(  c #564B43",
")  c #564D4A",
"_  c #5A4E4A",
"`  c #594744",
"'  c #5B5049",
"]  c #534751",
"[  c #684B46",
"{  c #69554B",
"}  c #785746",
"|  c #645552",
" . c #695957",
".. c #745C57",
"X. c #6B4A4B",
"o. c #786355",
"O. c #6E6461",
"+. c #7D6B63",
"@. c #7B6C6B",
"#. c #746865",
"$. c #7D7372",
"%. c #79706F",
"&. c #8D3E15",
"*. c #8D4C1C",
"=. c #864719",
"-. c #994B16",
";. c #95531D",
":. c #9C5418",
">. c #964E0D",
",. c #B34B06",
"<. c #BD5D0D",
"1. c #A75717",
"2. c #B65911",
"3. c #A44E10",
"4. c #B76417",
"5. c #9A592D",
"6. c #95603B",
"7. c #AD6930",
"8. c #C15C0D",
"9. c #DB5F04",
"0. c #CB640B",
"q. c #CD6A0C",
"w. c #C26406",
"e. c #DA6A05",
"r. c #D46D0D",
"t. c #DA6D0A",
"y. c #D76806",
"u. c #D4710C",
"i. c #C86614",
"p. c #D36E11",
"a. c #D16410",
"s. c #D77617",
"d. c #CF7117",
"f. c #E47606",
"g. c #E16D0A",
"h. c #D77A23",
"j. c #846658",
"k. c #8F6F55",
"l. c #AD4863",
"z. c #846E68",
"x. c #836D67",
"c. c #87736A",
"v. c #877A78",
"b. c #8D756D",
"n. c #BA6A7C",
"m. c #BB8035",
"M. c #DB8C36",
"N. c #DA892E",
"B. c #E18329",
"V. c #B48441",
"C. c #98867E",
"Z. c #A08F7F",
"A. c #BD8F67",
"S. c #CE935A",
"D. c #DD995A",
"F. c #D38B4F",
"G. c #E08F49",
"H. c #E6A457",
"J. c #CA9462",
"K. c #CC9C7E",
"L. c #D9A56F",
"P. c #E0AA73",
"I. c #D3698E",
"U. c #948985",
"Y. c #958D8A",
"T. c #9A8B8A",
"R. c #8F8885",
"E. c #A48C85",
"W. c #A59B96",
"Q. c #A89C97",
"!. c #AB8E8B",
"~. c #ABA19A",
"^. c #ACA096",
"/. c #B6A499",
"(. c #B4ABA4",
"). c #BAACA4",
"_. c #B4AAAA",
"`. c #B7AAA8",
"'. c #BBB2AC",
"]. c #BCB3B2",
"[. c #BEB9B6",
"{. c #C39D82",
"}. c #C3AA91",
"|. c #D6B089",
" X c #E4BB95",
".X c #EDBF8A",
"XX c #E69CB3",
"oX c #C3B4AD",
"OX c #CBB1A1",
"+X c #C2BEBC",
"@X c #C5B9B6",
"#X c #D5B9BC",
"$X c #E7C49C",
"%X c #EDC892",
"&X c #D8CBBB",
"*X c #D6CAA9",
"=X c #E7C9AD",
"-X c #ECD4A8",
";X c #E6B8C8",
":X c #CAC3C2",
">X c #CDC7C6",
",X c #D4CDCA",
"<X c #DBD2CA",
"1X c #D8D4D4",
"2X c #EADECB",
"3X c #E6D8C8",
"4X c #E2DBD4",
"5X c #E2DDDA",
"6X c #E5C7D0",
"7X c #E9E5DB",
"8X c #E9E2CF",
"9X c #E5E6E2",
"0X c #EAE6E2",
"qX c #ECEAE2",
"wX c #EDECEB",
"eX c #E5E8E3",
"rX c #F2EDEA",
"tX c #F4F2EC",
"yX c #F7F3E7",
"uX c #F4F3F2",
"iX c #F9F6F3",
"pX c #F5FBFB",
"aX c #FBFBFB",
"sX c #F8F8F8",
"dX c #F0EEF0",
"fX c None",
/* pixels */
"fXfXfXfXfXfXfXfXfXfXfXfXfXfXfXfXfXfXfXfXfXfXfXfXfXfXfXfXfXfXfXfXfXfXfXfXfXfXfXfXfXfXfXfXfXfXfXfXfXfXfXfXfXfXfXfXfXfXfXfXfXfXfXfXfXfXfXfXfX",
"fXfXfXfXfXfXfXfXfXfXfXfXfXfXfXfXfXfXfXfXfXfXfXfXfXfXfXfXfXfXfXfXfXfXfXfXfXfXfXfXfXfXfXfXfXfXfXfXfXfXfXfXfXfXfXfXfXfXfXfXfXfXfXfXfXfXfXfXfX",
"fXfXfXfXfXfXfXfXfXfXfXfXfXfXfXfXfXfXfXfXfXfXfXfXfXfXfXfXfXfXfXfXfXfXfXfXfXfXfXfXfXfXfXfXfXfXfXfXfXfXfXfXfXfXfXfXfXfXfXfXfXfXfXfXfXfXfXfXfX",
"fXfXfXfXfXfXfXfXfXfXfXfXfXfXfXfXfXfXfXfXfXfXfXfXfXfXfXfXfXfXfXfXfXfXfXfXfXfXfXfXfXfXfXfXfXfXfXfXfXfXfXfXfXfXfXfXfXfXfXfXfXfXfXfXfXfXfXfXfX",
"fXfXfXfXfXfXfXfXfXfXfXfXfXfXfXfXfXfXfXfXfXfXfXfXfXfXfXfXfXfXfXfXfXfXfXfXfXfXfXfXfXfXfXfXfXfXfXfXfXfXfXfXfXfXfXfXfXfXfXfXfXfXfXfXfXfXfXfXfX",
"fXfXfXfXfXfXfXfXfXfXfXfXfXfXfXfXfXfXfXfXfXfXfXfXfXfXfXfXfXfXfXfXfXfXfXfXfXfXfXfXfXfXfXfXfXfXfXfXfXfXfXfXfXfXfXfXfXfXfXfXfXfXfXfXfXfXfXfXfX",
"fXfXfXfXfXfXfXfXfXfXfXfXfXfXfXfXfXfXfXfXfXfXfXfXfXfXfXfXfXfXfXfXfXfXfXfXfXfXfXfXfXfXfXfXfXfXfXfXfXfXfXfXfXfXfXfXfXfXfXfXfXfXfXfXfXfXfXfXfX",
"fXfXfXfXfXfXfXfXfXfXfXfXfXfXfXfXfXfXfXfXfXfXfXfXfXfXfXfXfXfXfXfXfXfXfXfXfXfXfXfXfXfXfXfXfXfXfXfXfXfXfXfXfXfXfXfXfXfXfXfXfXfXfXfXfXfXfXfXfX",
"fXfXfXfXfXfXfXfXfXfXfXfXfXfXfXfXfXfXfXfXfXfXfXfXfXfXfXfXfXfXfXfXfXfXfXfXfXfXfXfXfXfXfXfXfXfXfXfXfXfXfXfXfXfXfXfXfXfXfXfXfXfXfXfXfXfXfXfXfX",
"fXfXfXfXfXfXfXfXfXfXfXfXfXfXfXfXfXfXfXfXfXfXfXfXfXfXfXfXfXfXfXfXfXfXfXfXfXfXfXfXfXfXfXfXfXfXfXfXfXfXfXfXfXfXfXfXfXfXfXfXfXfXfXfXfXfXfXfXfX",
"fXfXfXfXfXfXfXfXfXfXfXfXfXfXfXfXfXfXfXfXfXfXfXfXfXfXfXfXfXfXfXfXfXfXfXfXfXfXfXfXfXfXfXfXfXfXfXfXfXfXfXfXfXfXfXfXfXfXfXfXfXfXfXfXfXfXfXfXfX",
"fXfXfXfXfXfXfXfXfXfXfXfXfXfXfXfXfXfXfXfXfXfXfXfXfXfXfXfXfXfXfXfXfXfXfXfXfXfXfXfXfXfXfXfXfXfXfXfXfXfXfXfXfXfXfXfXfXfXfXfXfXfXfXfXfXfXfXfXfX",
"fXfXfXfXfXfXfXfXfXfXfXfXfXfXfXfXfXfXfXfXfXfXfXfXfXfXfXfXfXfXfXfXfXfXfXfXfXfXfXfXfXfXfXfXfXfXfXfXfXfXfXfXfXfXfXfXfXfXfXfXfXfXfXfXfXfXfXfXfX",
"fXfXfXfXfXfXfXfXfXfXfXfXfXfXfXfXfXfXfXfXfXfXfXfXfXfXfXfXfXfXfXfXfXfXfXfXfXfXfXfXfXfXfXfXfXfXfXfXfXfXfXfXfXfXfXfXfXfXfXfXfXfXfXfXfXfXfXfXfX",
"fXfXfXfXfXfXfXfXfXfXfXfXfXfXfXfXfXfXfXfXfXfXfXfXfXfXfXfXfXfXfXfXfXfXfXfXfXfXfXfXfXfXfXfXfXfXfXfXfXfXfXfXfXfXfXfXfXfXfXfXfXfXfXfXfXfXfXfXfX",
"fXfXfXfXfXfXfXfXfXfXfXfXfXfXfXfXfXfXfXfXfXfXfXfXfXfXfXfXfXfXfXfXfXfXfXfXfXfXfXfXfXfXfXfXfXfXfXfXfXfXfXfXfXfXfXfXfXfXfXfXfXfXfXfXfXfXfXfXfX",
"fXfXfXfXfXfXfXfXfXfXfXfXfXfXfXfXfXfXfXfXfXfXfXfXfXfXfXfXfXfXfXfXfXfXfXfXfXfXfXfXfXfXfXfXfXfXfXfXfXfXfXfXfXfXfXfXfXfXfXfXfXfXfXfXfXfXfXfXfX",
"fXfXfXfXfXfXfXfXfXfXfXfXfXfXfXfXfXfXfXfXfXfXfXfXfXfXfXfXfXfXfXfXfXfXfXfXfXfXfXfXfXfXfXfXfXfXfXfXfXfXfXfXfXfXfXfXfXfXfXfXfXfXfXfXfXfXfXfXfX",
"fXfXfXfXfXfXfXfXfXfXfXfXfXfXfXfXfXfXfXfXfXfXfXfXfXfXfXfXfXfXfXfXfXfXfXfXfXfXfXfXfXfXfXfXfXfXfXfXfXfXfXfXfXfXfXfXfXfXfXfXfXfXfXfXfXfXfXfXfX",
"fXfXfXfXfXfXfXfXfXfXfXfXfXfXfXfXfXfXfXfXfXfXfXfXfXfXfXfXfXfXfXfXfXfXfXfXfXfXfXfXfXfXfXfXfXfXfXfXfXfXfXfXfXfXfXfXfXfXfXfXfXfXfXfXfXfXfXfXfX",
"fXfXfXfXfXfXfXfXfXfXfXfXfXfXfXfXfXfXfXfXfXfXfXfXfXfXfXfXfXfXfXfXfXfXfXfXfXfXfXfXfXfXfXfXfXfXfXfXfXfXfXfXfXfXfXfXfXfXfXfXfXfXfXfXfXfXfXfXfX",
"fXfXfXfXfXfXfXfXfXfXfXfXfXfXfXfXfXfXfXfXfXfXfXfXfXfXfXfXfXfXfXfXfXfXfXfXfXfXfXfXfXfXfXfXfXfXfXfXfXfXfXfXfXfXfXfXfXfXfXfXfXfXfXfXfXfXfXfXfX",
"fXfXfXfXfXfXfXfXfXfXfXfXfXfXfXfXfXfXfXfXfXfXfXfXfXfXfXfXfXfXfXfXfXfXfXfXfXfXfXfXfXfXfXfXfXfXfXfXfXfXfXfXfXfXfXfXfXfXfXfXfXfXfXfXfXfXfXfXfX",
"fXfXfXfXfXfXfXfXfXfXfXfXfXfXfXfXfXfXfXfXfXfXfXfXfXfXfXfXfXfXfXfXfXfXfXfXfXfXfXfXfXfXfXfXfXfXfXfXfXfXfXfXfXfXfXfXfXfXfXfXfXfXfXfXfXfXfXfXfX",
"fXfXfXfXfXfXfXfXfXfXfXfXfXfXfXfXfXfXfXfXfXfXfXfXfXfXfXfXfXfXfXfXfXfXfXfXfXfXfXfXfXfXfXfXfXfXfXfXfXfXfXfXfXfXfXfXfXfXfXfXfXfXfXfXfXfXfXfXfX",
"fXfXfXfXfXfXfXfXfXfXfXfXfXfXfXfXfXfXfXfXfXfXfXfXfXfXfXfXfXfXfXfXfXfXfXfXfXfXfXfXfXfXfXfXfXfXfXfXfXfXfXfXfXfXfXfXfXfXfXfXfXfXfXfXfXfXfXfXfX",
"fXfXfXfXfXfXfXfXfXfXfXfXfXfXfXfXfXfXfXfXfXfXfXfXfXfXfXfXfXfXfXfXfXfXfXfXfXfXfXfXfXfXfXfXfXfXfXfXfXfXfXfXfXfXfXfXfXfXfXfXfXfXfXfXfXfXfXfXfX",
"fXfXfXfXfXfXfXfXfXfXfXfXfXfXfXfXfXfXfXfXfXfXfXfXfXfXfXfXfXfXfXfXfXfXfXfXfXfXfXfXfXfXfXfXfXfXfXfXfXfXfXfXfXfXfXfXfXfXfXfXfXfXfXfXfXfXfXfXfX",
"fXfXfXfXfXfXfXfXfXfXfXfXfXfXfXfXfXfXfXfX% + . fXfXfXfXfXfXfXfXfXfXfXfXfXfXfXfXfXfXfXfXfXfXfXfXfXfXfXfXfXfXfXfXfXfXfXfXfXfXfXfXfXfXfXfXfXfX",
"fXfXfXfXfXfXfXfXfXfXfXfXfXfXfXfXfXfXfX_ o.+.o.R fXfXfXfXfXfXfXfXfXfXfXfXfXfXfXfXfXfXfXfXfXfXfXfXfXfXfXfXfXfXfXfXfXfXfXfXfXfXfXfXfXfXfXfXfX",
"fXfXfXfXfXfXfXfXfXfXfXfXfXfXfXfXfXfX1 Z.<X2X<XQ.J fXfXfXfXfXfXfXfXfXfXfXfXfXfXfXfXfXfXfXfXfXfXfXfXfX= a H fXfXfXfXfXfXfXfXfXfXfXfXfXfXfXfX",
"fXfXfXfXfXfXfXfXfXfXfXfXfXfXfXfXfXV I }.yXaXiX(.R @ fXfXfXfXfXfXfXfXfXfXfXfXfXfXfXfXfXfXfXfXfXfXfXK .._ R 7 fXfXfXfXfXfXfXfXfXfXfXfXfXfXfX",
"fXfXfXfXfXfXfXfXfXfXfXfXfXfXfXfXV &.8.|.7XoXv.{ F $ fXfXfXfXfXfXfXfXfXfXfXfXfXfX6 $ fXfXfXfXfXfX3 T.&XE.( : fXfXfXfXfXfXfXfXfXfXfXfXfXfXfX",
"fXfXfXfXfXfXfXfXfXfXfXfXfXfXfX0 =.8.f.S._. .8 7 F : fXfXfXfXfXfXfXfXfXfXfXfXfX, A ..E fXfXfXfXfXw ~.yXoX| $ fXfXfXfXfXfXfXfXfXfXfXfXfXfXfX",
"fXfXfXfXfXfXfXfXfXfXfXfXfXfXfX0 U r.f.5...a @ fXfXfXfXfXfXfXfXfXfXfXfXfXfXfXfX+ { oX'.) fXfXfXfX6 ~.yX'._ $ fXfXfXfXfXfXfXfXfXfXfXfXfXfXfX",
"fXfXfXfXfXfXfXfXfXfXfXfXfXfXfX0 v a.g.m H & fXfXfXfXfXfXfXfXfXfXfXfXfXfXfXfXfX@ j.1X7X .+ fXfX@ = W.tX(.( @ fXfXfXfXfXfXfXfXfXfXfXfXfXfXfX",
"fXfXfXfXfXfXfXfXfXfXfXfXfXfXfX0 x -.3.x N @ fXfXfXfXfXfXfXfXfXfXfXfXfXfXfXfXfX+ z.5XeX .@ - % : $ T.qXW.^ $ fXfXfXfXfXfXfXfXfXfXfXfXfXfXfX",
"fXfXfXfXfXfXfXfXfXfXfXfXfXfXfX* k Z Z B N @ fXfXfXfXfXfXfXfXfXfXfXfXfXfXfXfXfXO z.4X9X .% * e w ; C.7XR.H , fXfXfXfXfXfXfXfXfXfXfXfXfXfXfX",
"fXfXfXfXfXfXfXfXfXfXfXfXfXfXfXe A ~ W t 8 + fXfXfXfXfXfXfXfXfXfXfXfXfXfXfXfXfX+ x.4X0Xk.c =.*.*.&.} Y.| u w = fXfXfXfXfXfXfXfXfXfXfXfXfXfX",
"fXfXfXfXfXfXfXfXfXfXfXfXfXfXfXh D 4.q.m 9 + fXfXfXfXfXfXfXfXfXfXfXfXfXfXfXfXfXO c.5XqXS.i.p.p.p.0.*.T h p p a , fXfXfXfXfXfXfXfXfXfXfXfXfX",
"fXfXfXfXfXfXfXfXfXfXfXfXfXfXfX^ A =.w.;.Y z fXfXfXfXfXfXfXfXfXfXfXfXfXfXfXfXfX@ c.3X$XM.u.r.p.p.t.<.W K f g p a fXfXfXfXfXfXfXfXfXfXfXfXfX",
"fXfXfXfXfXfXfXfXfXfXfXfXfXfXfX^ l l b 1.1.=.k fXfXfXfXfXfXfXfXfXfXfXfXfXfXfXfX& ! S.M.s.d.p.p.p.u.u.i.=.Z g g g y : fXfXfXfXfXfXfXfXfXfXfX",
"fXfXfXfXfXfXfXfXfXfXfXfXfXfXfXE 9 7 w m.7.*.S : fXfXfXfXfXfXfXfXfXfXfXfXfXfX= 8 >.0.r.u.p.p.r.u.u.t.t.:.D g g g C u fXfXfXfXfXfXfXfXfXfXfX",
"fXfXfXfXfXfXfXfXfXfXfXfXfXfXfX' 7 7 3 }.=Xj.Z 3 * 1 2 2 3 w e w w 6 r w 6 6 k =.2.r.p.p.q.r.d.r.p.u.t.:.D g s g G C t 1 & : fXfXfXfXfXfXfX",
"fXfXfXfXfXfXfXfXfXfXfXfXfXfXfXG 7 k < @XsX'._ ! c 8 r i p f f f p s C p u i I 7.d.r.r.r.p.p.r.q.w.e.g.1.} ^ p s s p p r 7 6 fXfXfXfXfXfXfX",
"fXfXfXfXfXfXfXfXfXfXfXfXfXfXfXfX: l > @XsXtX[.J.4.Y N p f f f f g C p p u y ../.L.s.u.r.r.r.y.>.M 3.e.F.OXR.K p p p u a 6 fXfXfXfXfXfXfXfX",
"fXfXfXfXfXfXfXfXfXfXfXfXfXfXfXfXfX< @ ).iXaXpX%Xs.2.Y C f g G G g s p C u t @.1X3XM.d.q.q.p.s.n $ =.h. XrX[.) u T G y a 2 fXfXfXfXfXfXfXfX",
"fXfXfXfXfXfXfXfXfXfXfXfXfXfXfXfXfXfX# O.oXtXaX%Xs.0.1.Y G g h g G s p p u r @.1XtX-X X X$X X$Xo.2 k.|.7XsX+X) K Y.Q._ y r ; fXfXfXfXfXfXfX",
"fXfXfXfXfXfXfXfXfXfXfXfXfXfXfXfXfXfXfX= / @XuX.Xs.u.y.2.I G g g G s p p a t x.6XaXaXaXaXaXpXaXv.< C.eXiXsX+X_ _ :X7X@.w u 9 fXfXfXfXfXfXfX",
"fXfXfXfXfXfXfXfXfXfXfXfXfXfXfXfXfXfXfXfXo O.`.K. XH.s.0.1.;.;.;.;.-.I y V =.! b.Q.>XdXaXaXaXaX_.$.[.uXwX;X#X_.U.W.W._ : , fXfXfXfXfXfXfXfX",
"fXfXfXfXfXfXfXfXfXfXfXfXfXfXfXfXfXfXfXfXfX= K !.qX-XB.t.p.t.t.t.r.e.-.l =.i.&.D / z.>XuXaXaXsXwX1XrXpX6XI.XXiX,Xc.G fXfXfXfXfXfXfXfXfXfXfX",
"fXfXfXfXfXfXfXfXfXfXfXfXfXfXfXfXfXfXfXfXfXfX< | ~.A.s.e.>.1.y.e.e.e.8.m 7.|.{.C.T._.1XwXwX].W._.[.].@X!.l.n.#X`.) fXfXfXfXfXfXfXfXfXfXfXfX",
"fXfXfXfXfXfXfXfXfXfXfXfXfXfXfXfXfXfXfXfXfXfX6 i ' 6.0.u.c S <.e.e.e.9.,.J.4X0X5X9XuXsXuX].{ K _ | | { X.U X.x.| fXfXfXfXfXfXfXfXfXfXfXfXfX",
"fXfXfXfXfXfXfXfXfXfXfXfXfXfXfXfXfXfXfXfXfXfX7 p i Q 1.:.P ] A.D.D.G.G.F.=XdXaXsXsXsXsX+X#.l 4 3 < 1 < 7 r t y , fXfXfXfXfXfXfXfXfXfXfXfXfX",
"fXfXfXfXfXfXfXfXfXfXfXfXfXfXfXfXfXfXfXfXfXfXr p p f D [ T._.3X7X8X3X3X2XrXaXaXaXaXsXdX%.d 9 4 & fXfXfXfXfXfXfXfXfXfXfXfXfXfXfXfXfXfXfXfXfX",
"fXfXfXfXfXfXfXfXfXfXfXfXfXfXfXfXfXfXfXfXfX+ r p p p p ( C.(.<X9XqXrXwX0XdXaXaXaXiX,XQ.} j z < + fXfXfXfXfXfXfXfXfXfXfXfXfXfXfXfXfXfXfXfXfX",
"fXfXfXfXfXfXfXfXfXfXfXfXfXfXfXfXfXfXfXfXfX+ 7 p p p p i g / #.z.v.$.$.%.@XuXaXaX9Xv.Q -.,.j , + fXfXfXfXfXfXfXfXfXfXfXfXfXfXfXfXfXfXfXfXfX",
"fXfXfXfXfXfXfXfXfXfXfXfXfXfXfXfXfXfXfXfXfX+ < L O.T p p T p 1 1 % O # # #.,XiXaX,X^ A 3.a.n 2 X fXfXfXfXfXfXfXfXfXfXfXfXfXfXfXfXfXfXfXfXfX",
"fXfXfXfXfXfXfXfXfXfXfXfXfXfXfXfXfXfXfXfXfXX > +.>XU.K a Y.Y.G 1 + .   . p O.:XiX,XJ D 6.F.~ < X fXfXfXfXfXfXfXfXfXfXfXfXfXfXfXfXfXfXfXfXfX",
"fXfXfXfXfXfXfXfXfXfXfXfXfXfXfXfXfXfXfXfXfXX ; T.wX1X .s ].@XE 3 O   fX  . @ Q.tX,XJ N k.K...2 . fXfXfXfXfXfXfXfXfXfXfXfXfXfXfXfXfXfXfXfXfX",
"fXfXfXfXfXfXfXfXfXfXfXfXfXfXfXfXfXfXfXfXfX. @ W.uXsX'.#.@. .N t + fXfXfX  @ ~.tX,XJ 1 [ b.` +   fXfXfXfXfXfXfXfXfXfXfXfXfXfXfXfXfXfXfXfXfX",
"fXfXfXfXfXfXfXfXfXfXfXfXfXfXfXfXfXfXfXfXfX. # /.uXaXaX:X/ 5 B N + fXfXfX  O ^.tX,XP @ t Z =   fXfXfXfXfXfXfXfXfXfXfXfXfXfXfXfXfXfXfXfXfXfX",
"fXfXfXfXfXfXfXfXfXfXfXfXfXfXfXfXfXfXfXfXfX. . x.).@X`.E.D 5 9 : . fXfXfX  . #.).T.B < = .   fXfXfXfXfXfXfXfXfXfXfXfXfXfXfXfXfXfXfXfXfXfXfX",
"fXfXfXfXfXfXfXfXfXfXfXfXfXfXfXfXfXfXfXfXfXfX  2 K L J B k 8 X   fXfXfXfXfX  = K D V 7 X   fXfXfXfXfXfXfXfXfXfXfXfXfXfXfXfXfXfXfXfXfXfXfXfX",
"fXfXfXfXfXfXfXfXfXfXfXfXfXfXfXfXfXfXfXfXfXfXfX  X . + & 2 = . fXfXfXfXfXfXfX  . : r &   fXfXfXfXfXfXfXfXfXfXfXfXfXfXfXfXfXfXfXfXfXfXfXfXfX",
"fXfXfXfXfXfXfXfXfXfXfXfXfXfXfXfXfXfXfXfXfXfXfXfXfX        fXfXfXfXfXfXfXfXfXfXfX    fXfXfXfXfXfXfXfXfXfXfXfXfXfXfXfXfXfXfXfXfXfXfXfXfXfXfX",
"fXfXfXfXfXfXfXfXfXfXfXfXfXfXfXfXfXfXfXfXfXfXfXfXfXfXfXfXfXfXfXfXfXfXfXfXfXfXfXfXfXfXfXfXfXfXfXfXfXfXfXfXfXfXfXfXfXfXfXfXfXfXfXfXfXfXfXfXfX",
"fXfXfXfXfXfXfXfXfXfXfXfXfXfXfXfXfXfXfXfXfXfXfXfXfXfXfXfXfXfXfXfXfXfXfXfXfXfXfXfXfXfXfXfXfXfXfXfXfXfXfXfXfXfXfXfXfXfXfXfXfXfXfXfXfXfXfXfXfX",
"fXfXfXfXfXfXfXfXfXfXfXfXfXfXfXfXfXfXfXfXfXfXfXfXfXfXfXfXfXfXfXfXfXfXfXfXfXfXfXfXfXfXfXfXfXfXfXfXfXfXfXfXfXfXfXfXfXfXfXfXfXfXfXfXfXfXfXfXfX"
};
