/* XPM */
static char *result[] = {
/* columns rows colors chars-per-pixel */
"69 69 224 2 ",
"   c #030101",
".  c #0B0504",
"X  c #090509",
"o  c #0C0B0B",
"O  c #0F0807",
"+  c #140C0B",
"@  c #110607",
"#  c #16110C",
"$  c #1D110E",
"%  c #150F14",
"&  c #1C1313",
"*  c #131115",
"=  c #0C1114",
"-  c #21120C",
";  c #231514",
":  c #2A1714",
">  c #241A15",
",  c #2B1A16",
"<  c #241B19",
"1  c #2B1D1C",
"2  c #261719",
"3  c #331C19",
"4  c #210F0D",
"5  c #2C211D",
"6  c #34221C",
"7  c #3B251C",
"8  c #3B281B",
"9  c #1C1B20",
"0  c #291D21",
"q  c #2D2121",
"w  c #272427",
"e  c #352622",
"r  c #392623",
"t  c #362925",
"y  c #3B2B25",
"u  c #372A29",
"i  c #3B2D2B",
"p  c #372529",
"a  c #3D312E",
"s  c #34322D",
"d  c #3B2F31",
"f  c #3C3232",
"g  c #383632",
"h  c #2E3031",
"j  c #441E1A",
"k  c #432119",
"l  c #573019",
"z  c #693817",
"x  c #773D16",
"c  c #6D380F",
"v  c #412D2B",
"b  c #462C22",
"n  c #42322B",
"m  c #4A322A",
"M  c #493627",
"N  c #583826",
"B  c #443432",
"V  c #443B34",
"C  c #4B3A36",
"Z  c #4D3C39",
"A  c #473939",
"S  c #533E3A",
"D  c #543D35",
"F  c #623C25",
"G  c #643A27",
"H  c #722D36",
"J  c #7B4114",
"K  c #774116",
"L  c #4E423D",
"P  c #5B453A",
"I  c #50442F",
"U  c #744629",
"Y  c #664533",
"T  c #7A553B",
"R  c #704D3B",
"E  c #6B3443",
"W  c #5C4A44",
"Q  c #574947",
"!  c #5F514E",
"~  c #565557",
"^  c #4D4241",
"/  c #694D4A",
"(  c #69534C",
")  c #765547",
"_  c #635553",
"`  c #665856",
"'  c #6A5D5C",
"]  c #665957",
"[  c #745C56",
"{  c #6D655D",
"}  c #73615F",
"|  c #6D6365",
" . c #746563",
".. c #7C6A64",
"X. c #756D6C",
"o. c #7B6F6B",
"O. c #766A62",
"+. c #7A7372",
"@. c #8F3D09",
"#. c #843914",
"$. c #874717",
"%. c #934E1B",
"&. c #9C5315",
"*. c #8D4711",
"=. c #AA570C",
"-. c #BA5B0C",
";. c #B95809",
":. c #A85513",
">. c #B75C15",
",. c #A64E12",
"<. c #BB6112",
"1. c #8B4E22",
"2. c #9A5628",
"3. c #83593A",
"4. c #93512B",
"5. c #B47331",
"6. c #C55B08",
"7. c #D05D07",
"8. c #CB640D",
"9. c #CA660B",
"0. c #DD6C06",
"q. c #D4660B",
"w. c #D56D0D",
"e. c #DA6C0A",
"r. c #DA6102",
"t. c #D5710D",
"y. c #DA710C",
"u. c #C76813",
"i. c #D36E11",
"p. c #D96611",
"a. c #D57213",
"s. c #DB7211",
"d. c #DE7815",
"f. c #E36C05",
"g. c #E17511",
"h. c #CC7529",
"j. c #96725B",
"k. c #946952",
"l. c #B47D5D",
"z. c #837269",
"x. c #867779",
"c. c #8D7369",
"v. c #C77242",
"b. c #D0486A",
"n. c #DC8318",
"m. c #DC8527",
"M. c #DF8B3F",
"N. c #E4893B",
"B. c #B9835D",
"V. c #A6875D",
"C. c #90807F",
"Z. c #8F867B",
"A. c #B58E76",
"S. c #DE9349",
"D. c #DF8F49",
"F. c #E4954B",
"G. c #E19B56",
"H. c #E2AD51",
"J. c #DAA574",
"K. c #CDA37B",
"L. c #E5B37C",
"P. c #E0A16B",
"I. c #D75C82",
"U. c #CD7391",
"Y. c #958784",
"T. c #9B9189",
"R. c #9E9393",
"E. c #A3958C",
"W. c #AA9B95",
"Q. c #A59B99",
"!. c #AE9285",
"~. c #AAA19C",
"^. c #B3A59D",
"/. c #A59FA0",
"(. c #BDABA5",
"). c #BAACA9",
"_. c #B2ABA9",
"`. c #BBB1AD",
"'. c #B7B2A9",
"]. c #BBB5B6",
"[. c #C9A894",
"{. c #D7B89C",
"}. c #DAB18C",
"|. c #E4B685",
" X c #E19BAC",
".X c #C1B6AD",
"XX c #C5BCB5",
"oX c #D7B7BC",
"OX c #E4B5BE",
"+X c #EBC999",
"@X c #C8C2BF",
"#X c #D3C8BA",
"$X c #E9C8A4",
"%X c #EBD4B6",
"&X c #CAC3C3",
"*X c #CFCAC8",
"=X c #D4CDCC",
"-X c #D2CAC6",
";X c #D6D2CC",
":X c #DAD3CC",
">X c #D6D3D0",
",X c #DDDBD4",
"<X c #DBD8D7",
"1X c #E8D8C6",
"2X c #E2DAD6",
"3X c #F0DEC7",
"4X c #E3E2DC",
"5X c #EEE5DB",
"6X c #E6E2D5",
"7X c #F1EAD6",
"8X c #E2E3E2",
"9X c #EDECEA",
"0X c #EAE8E6",
"qX c #F2EFED",
"wX c #F2EBE3",
"eX c #F3F1EC",
"rX c #F4F4F2",
"tX c #F8F7F3",
"yX c #F7F9F2",
"uX c #FBFAF4",
"iX c #F5FCFA",
"pX c #FBFBFA",
"aX c #EFF1F5",
"sX c None",
/* pixels */
"sXsXsXsXsXsXsXsXsXsXsXsXsXsXsXsXsXsXsXsXsXsXsXsXsXsXsXsXsXsXsXsXsXsXsXsXsXsXsXsXsXsXsXsXsXsXsXsXsXsXsXsXsXsXsXsXsXsXsXsXsXsXsXsXsXsXsXsXsX",
"sXsXsXsXsXsXsXsXsXsXsXsXsXsXsXsXsXsXsXsXsXsXsXsXsXsXsXsXsXsXsXsXsXsXsXsXsXsXsXsXsXsXsXsXsXsXsXsXsXsXsXsXsXsXsXsXsXsXsXsXsXsXsXsXsXsXsXsXsX",
"sXsXsXsXsXsXsXsXsXsXsXsXsXsXsXsXsXsXsXsXsXsXsXsXsXsXsXsXsXsXsXsXsXsXsXsXsXsXsXsXsXsXsXsXsXsXsXsXsXsXsXsXsXsXsXsXsXsXsXsXsXsXsXsXsXsXsXsXsX",
"sXsXsXsXsXsXsXsXsXsXsXsXsXsXsXsXsXsXsXsXsXsXsXsXsXsXsXsXsXsXsXsXsXsXsXsXsXsXsXsXsXsXsXsXsXsXsXsXsXsXsXsXsXsXsXsXsXsXsXsXsXsXsXsXsXsXsXsXsX",
"sXsXsXsXsXsXsXsXsXsXsXsXsXsXsXsXsXsXsXsXsXsXsXsXsXsXsXsXsXsXsXsXsXsXsXsXsXsXsXsXsXsXsXsXsXsXsXsXsXsXsXsXsXsXsXsXsXsXsXsXsXsXsXsXsXsXsXsXsX",
"sXsXsXsXsXsXsXsXsXsXsXsXsXsXsXsXsXsXsXsXsXsXsXsXsXsXsXsXsXsXsXsXsXsXsXsXsXsXsXsXsXsXsXsXsXsXsXsXsXsXsXsXsXsXsXsXsXsXsXsXsXsXsXsXsXsXsXsXsX",
"sXsXsXsXsXsXsXsXsXsXsXsXsXsXsXsXsXsXsXsXsXsXsXsXsXsXsXsXsXsXsXsXsXsXsXsXsXsXsXsXsXsXsXsXsXsXsXsXsXsXsXsXsXsXsXsXsXsXsXsXsXsXsXsXsXsXsXsXsX",
"sXsXsXsXsXsXsXsXsXsXsXsXsXsXsXsXsXsXsXsXsXsXsXsXsXsXsXsXsXsXsXsXsXsXsXsXsXsXsXsXsXsXsXsXsXsXsXsXsXsXsXsXsXsXsXsXsXsXsXsXsXsXsXsXsXsXsXsXsX",
"sXsXsXsXsXsXsXsXsXsXsXsXsXsXsXsXsXsXsXsXsXsXsXsXsXsXsXsXsXsXsXsXsXsXsXsXsXsXsXsXsXsXsXsXsXsXsXsXsXsXsXsXsXsXsXsXsXsXsXsXsXsXsXsXsXsXsXsXsX",
"sXsXsXsXsXsXsXsXsXsXsXsXsXsXsXsXsXsXsXsXsXsXsXsXsXsXsXsXsXsXsXsXsXsXsXsXsXsXsXsXsXsXsXsXsXsXsXsXsXsXsXsXsXsXsXsXsXsXsXsXsXsXsXsXsXsXsXsXsX",
"sXsXsXsXsXsXsXsXsXsXsXsXsXsXsXsXsXsXsXsXsXsXsXsXsXsXsXsXsXsXsXsXsXsXsXsXsXsXsXsXsXsXsXsXsXsXsXsXsXsXsXsXsXsXsXsXsXsXsXsXsXsXsXsXsXsXsXsXsX",
"sXsXsXsXsXsXsXsXsXsXsXsXsXsXsXsXsXsXsXsXsXsXsXsXsXsXsXsXsXsXsXsXsXsXsXsXsXsXsXsXsXsXsXsXsXsXsXsXsXsXsXsXsXsXsXsXsXsXsXsXsXsXsXsXsXsXsXsXsX",
"sXsXsXsXsXsXsXsXsXsXsXsXsXsXsXsXsXsXsXsXsXsXsXsXsXsXsXsXsXsXsXsXsXsXsXsXsXsXsXsXsXsXsXsXsXsXsXsXsXsXsXsXsXsXsXsXsXsXsXsXsXsXsXsXsXsXsXsXsX",
"sXsXsXsXsXsXsXsXsXsXsXsXsXsXsXsXsXsXsXsXsXsXsXsXsXsXsXsXsXsXsXsXsXsXsXsXsXsXsXsXsXsXsXsXsXsXsXsXsXsXsXsXsXsXsXsXsXsXsXsXsXsXsXsXsXsXsXsXsX",
"sXsXsXsXsXsXsXsXsXsXsXsXsXsXsXsXsXsXsXsXsXsXsXsXsXsXsXsXsXsXsXsXsXsXsXsXsXsXsXsXsXsXsXsXsXsXsXsXsXsXsXsXsXsXsXsXsXsXsXsXsXsXsXsXsXsXsXsXsX",
"sXsXsXsXsXsXsXsXsXsXsXsXsXsXsXsXsXsXsXsXsXsXsXsXsXsXsXsXsXsXsXsXsXsXsXsXsXsXsXsXsXsXsXsXsXsXsXsXsXsXsXsXsXsXsXsXsXsXsXsXsXsXsXsXsXsXsXsXsX",
"sXsXsXsXsXsXsXsXsXsXsXsXsXsXsXsXsXsXsXsXsXsXsXsXsXsXsXsXsXsXsXsXsXsXsXsXsXsXsXsXsXsXsXsXsXsXsXsXsXsXsXsXsXsXsXsXsXsXsXsXsXsXsXsXsXsXsXsXsX",
"sXsXsXsXsXsXsXsXsXsXsXsXsXsXsXsXsXsXsXsXsXsXsXsXsXsXsXsXsXsXsXsXsXsXsXsXsXsXsXsXsXsXsXsXsXsXsXsXsXsXsXsXsXsXsXsXsXsXsXsXsXsXsXsXsXsXsXsXsX",
"sXsXsXsXsXsXsXsXsXsXsXsXsXsXsXsXsXsXsXsXsXsXsXsXsXsXsXsXsXsXsXsXsXsXsXsXsXsXsXsXsXsXsXsXsXsXsXsXsXsXsXsXsXsXsXsXsXsXsXsXsXsXsXsXsXsXsXsXsX",
"sXsXsXsXsXsXsXsXsXsXsXsXsXsXsXsXsXsXsXsXsXsXsXsXsXsXsXsXsXsXsXsXsXsXsXsXsXsXsXsXsXsXsXsXsXsXsXsXsXsXsXsXsXsXsXsXsXsXsXsXsXsXsXsXsXsXsXsXsX",
"sXsXsXsXsXsXsXsXsXsXsXsXsXsXsXsXsXsXsXsXsXsXsXsXsXsXsXsXsXsXsXsXsXsXsXsXsXsXsXsXsXsXsXsXsXsXsXsXsXsXsXsXsXsXsXsXsXsXsXsXsXsXsXsXsXsXsXsXsX",
"sXsXsXsXsXsXsXsXsXsXsXsXsXsXsXsXsXsXsXsXsXsXsXsXsXsXsXsXsXsXsXsXsXsXsXsXsXsXsXsXsXsXsXsXsXsXsXsXsXsXsXsXsXsXsXsXsXsXsXsXsXsXsXsXsXsXsXsXsX",
"sXsXsXsXsXsXsXsXsXsXsXsXsXsXsXsXsXsXsXsXsXsXsXsXsXsXsXsXsXsXsXsXsXsXsXsXsXsXsXsXsXsXsXsXsXsXsXsXsXsXsXsXsXsXsXsXsXsXsXsXsXsXsXsXsXsXsXsXsX",
"sXsXsXsXsXsXsXsXsXsXsXsXsXsXsXsXsXsXsXsXsXsXsXsXsXsXsXsXsXsXsXsXsXsXsXsXsXsXsXsXsXsXsXsXsXsXsXsXsXsXsXsXsXsXsXsXsXsXsXsXsXsXsXsXsXsXsXsXsX",
"sXsXsXsXsXsXsXsXsXsXsXsXsXsXsXsXsXsXsXsXsXsXsXsXsXsXsXsXsXsXsXsXsXsXsXsXsXsXsXsXsXsXsXsXsXsXsXsXsXsXsXsXsXsXsXsXsXsXsXsXsXsXsXsXsXsXsXsXsX",
"sXsXsXsXsXsXsXsXsXsXsXsXsXsXsXsXsXsXsXsXsXsXsXsXsXsXsXsXsXsXsXsXsXsXsXsXsXsXsXsXsXsXsXsXsXsXsXsXsXsXsXsXsXsXsXsXsXsXsXsXsXsXsXsXsXsXsXsXsX",
"sXsXsXsXsXsXsXsXsXsXsXsXsXsXsXsXsXsXsXsXsXsXsXsXsXsXsXsXsXsXsXsXsXsXsXsXsXsXsXsXsXsXsXsXsXsXsXsXsXsXsXsXsXsXsXsXsXsXsXsXsXsXsXsXsXsXsXsXsX",
"sXsXsXsXsXsXsXsXsXsXsXsXsXsXsXsXsXsXsXsXsXsXsXsXsXsXsXsXsXsXsXsXsXsXsXsXsXsXsXsXsXsXsXsXsXsXsXsXsXsXsXsXsXsXsXsXsXsXsXsXsXsXsXsXsXsXsXsXsX",
"sXsXsXsXsXsXsXsXsXsXsXsXsXsXsXsXsXsXsXsXsXsXsXsXsXsXsXsXsXsXsXsXsXsXsXsXsXsXsXsXsXsXsXsXsXsXsXsXsXsXsXsXsXsXsXsXsXsXsXsXsXsXsXsXsXsXsXsXsX",
"sXsXsXsXsXsXsXsXsXsXsXsXsXsXsXsXsXsXsXsXsXsXsXsXsXsXsXsXsXsXsXsXsXsXsXsXsXsXsXsXsXsXsXsXsXsXsXsXsXsXsXsXsXsXsXsXsXsXsXsXsXsXsXsXsXsXsXsXsX",
"sXsXsXsXsXsXsXsXsXsXsXsXsXsXsXsXsXsXsXsX< n P sXsXsXsXsXsXsXsXsXsXsXsXsXsXsXsXsXsXsXsXsXsXsXsXsXsXsXsXsXsXsXsXsXsXsXsXsXsXsXsXsXsXsXsXsXsX",
"sXsXsXsXsXsXsXsXsXsXsXsXsXsXsXsXsXsXsXa [ ( B 0 sXsXsXsXsXsXsXsXsXsXsXsXsXsXsXsXsXsXsXsXsXsXsXsXsXsXsXsXsXsXsXsXsXsXsXsXsXsXsXsXsXsXsXsXsX",
"sXsXsXsXsXsXsXsXsXsXsXsXsXsXsXsXsXsX6 c.#XE.e # sXsXsXsXsXsXsXsXsXsXsXsXsXsXsXsXsXsXsXsXsXsXsXsXsXsX= < n sXsXsXsXsXsXsXsXsXsXsXsXsXsXsXsX",
"sXsXsXsXsXsXsXsXsXsXsXsXsXsXsXsXsX> W XXuX].i . sXsXsXsXsXsXsXsXsXsXsXsXsXsXsXsXsXsXsXsXsXsXsXsXsXsXW S i , sXsXsXsXsXsXsXsXsXsXsXsXsXsXsX",
"sXsXsXsXsXsXsXsXsXsXsXsXsXsXsXsXV [ Z.wXyXXXn . sXsXsXsXsXsXsXsXsXsXsXsXsXsXsXsX5 6 sXsXsXsXsXsXsXz.#X~.i $ sXsXsXsXsXsXsXsXsXsXsXsXsXsXsX",
"sXsXsXsXsXsXsXsXsXsXsXsXsXsXsXw / A.1XyXuX`.n . sXsXsXsXsXsXsXsXsXsXsXsXsXsXsX0 e D 8 sXsXsXsXsX> E.uX:Xb O sXsXsXsXsXsXsXsXsXsXsXsXsXsXsX",
"sXsXsXsXsXsXsXsXsXsXsXsXsXsXsXw ) v.P.[.'.Z.< sXsXsXsXsXsXsXsXsXsXsXsXsXsXsXsX1 C ^.T.Q sXsXsXX > W.yX>X6 O sXsXsXsXsXsXsXsXsXsXsXsXsXsXsX",
"sXsXsXsXsXsXsXsXsXsXsXsXsXsXsXh T 8.p.4.^ g sXsXsXsXsXsXsXsXsXsXsXsXsXsXsXsXsX1 ! uX6XO.< sXsXX , W.yX;X3 . sXsXsXsXsXsXsXsXsXsXsXsXsXsXsX",
"sXsXsXsXsXsXsXsXsXsXsXsXsXsXsXg 3.6.7.@.; + sXsXsXsXsXsXsXsXsXsXsXsXsXsXsXsXsX2 _ uX4X| & o sX+ , E.tX@X1 . sXsXsXsXsXsXsXsXsXsXsXsXsXsXsX",
"sXsXsXsXsXsXsXsXsXsXsXsXsXsXsXg 3.;.6.@.< % sXsXsXsXsXsXsXsXsXsXsXsXsXsXsXsXsX> ] yX,XQ * = + % 1 x.wX/., & sXsXsXsXsXsXsXsXsXsXsXsXsXsXsX",
"sXsXsXsXsXsXsXsXsXsXsXsXsXsXsXa T ,.-.x 2 + sXsXsXsXsXsXsXsXsXsXsXsXsXsXsXsXsX; ` uX,XR l c c x x ( ].' 6 q sXsXsXsXsXsXsXsXsXsXsXsXsXsXsX",
"sXsXsXsXsXsXsXsXsXsXsXsXsXsXsXy P l N l j $ sXsXsXsXsXsXsXsXsXsXsXsXsXsXsXsXsX; ` uX5X5.u.8.8.q.q.1.~ g a u t 2 sXsXsXsXsXsXsXsXsXsXsXsXsX",
"sXsXsXsXsXsXsXsXsXsXsXsXsXsXsXn P M l 7 k # sXsXsXsXsXsXsXsXsXsXsXsXsXsXsXsXsX; { wX%Xm.y.i.i.a.e.6.F n n i f u sXsXsXsXsXsXsXsXsXsXsXsXsX",
"sXsXsXsXsXsXsXsXsXsXsXsXsXsXsXu Y *.=.z 3 + sXsXsXsXsXsXsXsXsXsXsXsXsXsXsXsXsX; Y P.S.d.a.i.a.t.s.i.<.$.d i f f u e sXsXsXsXsXsXsXsXsXsXsX",
"sXsXsXsXsXsXsXsXsXsXsXsXsXsXsXs Y *.6.&.l - sXsXsXsXsXsXsXsXsXsXsXsXsXsXsXsXsXy J 9.i.i.i.i.a.w.i.y.y.<.v d d f B v sXsXsXsXsXsXsXsXsXsXsX",
"sXsXsXsXsXsXsXsXsXsXsXsXsXsXsXt N l K :.,.z < 9 w q 1 < 0 0 w 0 1 e 5 5 5 1 6 $.=.0.i.i.i.i.t.t.w.y.y.<.d d d f B n r 0 r m sXsXsXsXsXsXsX",
"sXsXsXsXsXsXsXsXsXsXsXsXsXsXsX8 M u M 2.h.2.G l b 8 u u d d f f f f v a u t m >.u.t.t.i.u.t.i.t.9.0.0.u.D A d f a a i p e m sXsXsXsXsXsXsX",
"sXsXsXsXsXsXsXsXsXsXsXsXsXsXsX6 n y D A.$X{.[.B.:.x y i f f f f f i a i u r P {.J.t.t.w.t.t.w.=.c ;.f.h.~.Q.i d i i u p & ; sXsXsXsXsXsXsX",
"sXsXsXsXsXsXsXsXsXsXsXsXsXsXsXr M 8 P .XtXiXuX$Xd.,.N i f f f f B f a a y r ( wX1Xh.w.w.q.e.8.%.h *.d.J.rX2Xp d B C r e + sXsXsXsXsXsXsXsX",
"sXsXsXsXsXsXsXsXsXsXsXsXsXsXsXsXy 7 Z ).uXpXpX%Xs.8.:.U B f f f f n i u r r _ tXeX$X|.|.|.|.}.c.g U +X6XiX4X6 f R.~.C 1 > sXsXsXsXsXsXsXsX",
"sXsXsXsXsXsXsXsXsXsXsXsXsXsXsXsXsX> C (.pXpXtX$Xd.0.p.>.N f g g f i i i t r ( eXuXyXqXqXeXrX0XQ.V O.wXyXrX<X3 C 4XqX` ; 6 6 sXsXsXsXsXsXsX",
"sXsXsXsXsXsXsXsXsXsXsXsXsXsXsXsXsXsXr Y.@X`.W.!.L.F.y.8.:.1.1.1.%.1.F i m x H R.`.<XqXpXpXpXiX&XX.'.iXeXOXOXC.x.].*XV # ; > sXsXsXsXsXsXsX",
"sXsXsXsXsXsXsXsXsXsXsXsXsXsXsXsXsXsXsX^ [ W C z.5X+Xn.y.q.q.p.p.i.9.&.n G 6.#.m Q x.&XpXpXpXpXqX*XeXpX9XI. X0X-XY.` o sXsXsXsXsXsXsXsXsXsX",
"sXsXsXsXsXsXsXsXsXsXsXsXsXsXsXsXsXsXsXsX, : 3 ! ).K.n.0.-.=.f.0.w.q.-.x %.G.l.[ } R.=XtXqX;X&X=X,X6X2XoXb.U.5X2X~ @ sXsXsXsXsXsXsXsXsXsXsX",
"sXsXsXsXsXsXsXsXsXsXsXsXsXsXsXsXsXsXsXsXsX; 6 y W 4.y.9.J Y ;.f.0.r.r.-.v.2X2X=X=XtXpXqX;X_ Q ] | ..[ / H E .. .sXsXsXsXsXsXsXsXsXsXsXsXsX",
"sXsXsXsXsXsXsXsXsXsXsXsXsXsXsXsXsXsXsXsXsX+ 6 r t G >.:.N ~ B.F.D.D.N.S.}.iXpXpXpXpXqX&Xo.$ & o O O @ . O O O X sXsXsXsXsXsXsXsXsXsXsXsXsX",
"sXsXsXsXsXsXsXsXsXsXsXsXsXsXsXsXsXsXsXsXsX+ 6 r u v N ) x.'.1X3X1X%X%X3XwXiXpXpXpXpX8X+.0 2 5 X sXsXsXsXsXsXsXsXsXsXsXsXsXsXsXsXsXsXsXsXsX",
"sXsXsXsXsXsXsXsXsXsXsXsXsXsXsXsXsXsXsXsXsX% r 6 y B | | Y.@X:X,X4X4X8X8X0XuXrX>X<XaX].v 3 b I M sXsXsXsXsXsXsXsXsXsXsXsXsXsXsXsXsXsXsXsXsX",
"sXsXsXsXsXsXsXsXsXsXsXsXsXsXsXsXsXsXsXsXsX# 8 6 6 _ XXQ.L ! ' | X.X.X.+.Q.uX<X' } x.k.*.,.5.V.j.P sXsXsXsXsXsXsXsXsXsXsXsXsXsXsXsXsXsXsXsX",
"sXsXsXsXsXsXsXsXsXsXsXsXsXsXsXsXsXsXsXsXsX+ 6 7 2 } rX>X! t V f 1 < 2 q X.yX-X, 4 : l p.n.H.}.c.( sXsXsXsXsXsXsXsXsXsXsXsXsXsXsXsXsXsXsXsX",
"sXsXsXsXsXsXsXsXsXsXsXsXsXsXsXsXsXsXsXsXsX. $ : 1  .uXeXXXQ._.Q.] : 6 6 o.tX=Xr > + 3 #.4.5.j.Y Y o sXsXsXsXsXsXsXsXsXsXsXsXsXsXsXsXsXsXsX",
"sXsXsXsXsXsXsXsXsXsXsXsXsXsXsXsXsXsXsXsXsXsX  + : ..uXpXpXuXpXeXE.$ 6 8 o.uX:Xn #   . ; 3 j j 7 P sXsXsXsXsXsXsXsXsXsXsXsXsXsXsXsXsXsXsXsX",
"sXsXsXsXsXsXsXsXsXsXsXsXsXsXsXsXsXsXsXsXsXsXsX  + W ).`..X`.).~.{ + > 7 / `.T.5         X + # > M sXsXsXsXsXsXsXsXsXsXsXsXsXsXsXsXsXsXsXsX",
"sXsXsXsXsXsXsXsXsXsXsXsXsXsXsXsXsXsXsXsXsXsXsXsX  & B C S C n u & . + 7 8 L e   sXsXsXsX  sXsXsXsXsXsXsXsXsXsXsXsXsXsXsXsXsXsXsXsXsXsXsXsX",
"sXsXsXsXsXsXsXsXsXsXsXsXsXsXsXsXsXsXsXsXsXsXsXsXsX  . . . . .     sX. > $ + .   sXsXsXsXsXsXsXsXsXsXsXsXsXsXsXsXsXsXsXsXsXsXsXsXsXsXsXsXsX",
"sXsXsXsXsXsXsXsXsXsXsXsXsXsXsXsXsXsXsXsXsXsXsXsXsXsXsX          sXsXsX      sXsXsXsXsXsXsXsXsXsXsXsXsXsXsXsXsXsXsXsXsXsXsXsXsXsXsXsXsXsXsX",
"sXsXsXsXsXsXsXsXsXsXsXsXsXsXsXsXsXsXsXsXsXsXsXsXsXsXsXsXsXsXsXsXsXsXsXsXsXsXsXsXsXsXsXsXsXsXsXsXsXsXsXsXsXsXsXsXsXsXsXsXsXsXsXsXsXsXsXsXsX",
"sXsXsXsXsXsXsXsXsXsXsXsXsXsXsXsXsXsXsXsXsXsXsXsXsXsXsXsXsXsXsXsXsXsXsXsXsXsXsXsXsXsXsXsXsXsXsXsXsXsXsXsXsXsXsXsXsXsXsXsXsXsXsXsXsXsXsXsXsX",
"sXsXsXsXsXsXsXsXsXsXsXsXsXsXsXsXsXsXsXsXsXsXsXsXsXsXsXsXsXsXsXsXsXsXsXsXsXsXsXsXsXsXsXsXsXsXsXsXsXsXsXsXsXsXsXsXsXsXsXsXsXsXsXsXsXsXsXsXsX"
};
