/* XPM */
static char *walk11750862439[] = {
/* columns rows colors chars-per-pixel */
"64 64 226 2 ",
"   c #030101",
".  c #0B0403",
"X  c #080C07",
"o  c #130907",
"O  c #190806",
"+  c #160D0A",
"@  c #1B0D09",
"#  c #0D1A09",
"$  c #1C110D",
"%  c #180F12",
"&  c #1E1412",
"*  c #1A1A13",
"=  c #280F0C",
"-  c #24130D",
";  c #2B140C",
":  c #2A180D",
">  c #351B0D",
",  c #231613",
"<  c #251A15",
"1  c #2B1B15",
"2  c #271A19",
"3  c #2C1D19",
"4  c #331D14",
"5  c #381C12",
"6  c #321E19",
"7  c #182609",
"8  c #1B330C",
"9  c #252A0B",
"0  c #20310E",
"q  c #2A2717",
"w  c #33211E",
"e  c #3C251B",
"r  c #29331A",
"t  c #38351B",
"y  c #271D20",
"u  c #2C2122",
"i  c #352523",
"p  c #3A2925",
"a  c #372929",
"s  c #3A2D2C",
"d  c #3F332B",
"f  c #3C3232",
"g  c #472817",
"h  c #4C2912",
"j  c #4D2E1C",
"k  c #522D16",
"l  c #59341B",
"z  c #66310C",
"x  c #72390A",
"c  c #663718",
"v  c #793F13",
"b  c #442F27",
"n  c #4C3222",
"m  c #42322E",
"M  c #593824",
"N  c #463734",
"B  c #4C3F3C",
"V  c #523D37",
"C  c #523E3B",
"Z  c #733537",
"A  c #1E450A",
"S  c #1E4719",
"D  c #1F531E",
"F  c #27480E",
"G  c #28570D",
"H  c #34540F",
"J  c #2D4A10",
"K  c #2A5F10",
"L  c #355814",
"P  c #2A670F",
"I  c #316F0E",
"U  c #386516",
"Y  c #2F7010",
"T  c #347B12",
"R  c #3C7915",
"E  c #2F4E26",
"W  c #305127",
"Q  c #385A29",
"!  c #266625",
"~  c #2D752B",
"^  c #31792E",
"/  c #485F18",
"(  c #7A400C",
")  c #76441E",
"_  c #446517",
"`  c #50741A",
"'  c #4F4330",
"]  c #55413C",
"[  c #694128",
"{  c #754524",
"}  c #714E3A",
"|  c #426D25",
" . c #4F7426",
".. c #713345",
"X. c #544643",
"o. c #5A4944",
"O. c #584946",
"+. c #514A49",
"@. c #5E4E49",
"#. c #5F504C",
"$. c #624B47",
"%. c #64524C",
"&. c #6B554E",
"*. c #655754",
"=. c #6C5B54",
"-. c #6A5C5A",
";. c #765C56",
":. c #7A6055",
">. c #71625E",
",. c #6F6260",
"<. c #756865",
"1. c #7D6A64",
"2. c #787168",
"3. c #8B360F",
"4. c #8C460D",
"5. c #984D0E",
"6. c #8C4713",
"7. c #A44A04",
"8. c #A95207",
"9. c #B65906",
"0. c #BC5B03",
"q. c #A45511",
"w. c #8A5838",
"e. c #BC7336",
"r. c #C45A04",
"t. c #CA6405",
"y. c #C86607",
"u. c #C36309",
"i. c #D56601",
"p. c #D46C05",
"a. c #DA6C02",
"s. c #D56F08",
"d. c #D57109",
"f. c #D97309",
"g. c #C56814",
"h. c #DC7D17",
"j. c #C27021",
"k. c #C77834",
"l. c #835F50",
"z. c #8E684D",
"x. c #B57747",
"c. c #B77B50",
"v. c #816D67",
"b. c #85726C",
"n. c #887A78",
"m. c #9C7F71",
"M. c #34840F",
"N. c #398415",
"B. c #3E8A17",
"V. c #3A9311",
"C. c #3D9815",
"Z. c #3F9319",
"A. c #30802E",
"S. c #328530",
"D. c #418818",
"F. c #508E18",
"G. c #429B16",
"H. c #439A18",
"J. c #44A318",
"K. c #52A112",
"L. c #58AC14",
"P. c #538D22",
"I. c #64942B",
"U. c #63A721",
"Y. c #66B222",
"T. c #6ABC23",
"R. c #6EC324",
"E. c #70C725",
"W. c #7A835E",
"Q. c #DC8429",
"!. c #E18723",
"~. c #E08C3A",
"^. c #94FF30",
"/. c #BC8356",
"(. c #D58F4F",
"). c #DD9144",
"_. c #E18D43",
"`. c #E49144",
"'. c #C08C64",
"]. c #DEA56F",
"[. c #E3A867",
"{. c #D06987",
"}. c #958985",
"|. c #968B89",
" X c #A78F84",
".X c #A79A96",
"XX c #A8A09E",
"oX c #B8A599",
"OX c #B5ABA7",
"+X c #B5AEAA",
"@X c #BAB1AC",
"#X c #DE879E",
"$X c #D0AF92",
"%X c #E3BB8F",
"&X c #DD90A3",
"*X c #C7B5AA",
"=X c #D1B7A2",
"-X c #C4BBB7",
";X c #E6C199",
":X c #CDC1BA",
">X c #D7C8B9",
",X c #E5C7A7",
"<X c #EBD9BE",
"1X c #CBC5C2",
"2X c #CCC9C6",
"3X c #D7CAC6",
"4X c #D5CDCA",
"5X c #D5D1CC",
"6X c #DAD4CF",
"7X c #DAD5D2",
"8X c #DDDAD5",
"9X c #DEDBD9",
"0X c #EBD9C4",
"qX c #EED0CC",
"wX c #EBD9C8",
"eX c #E2DDD9",
"rX c #EBE3CD",
"tX c #EBE4DC",
"yX c #F2E9DA",
"uX c #E9E7E5",
"iX c #F1EFED",
"pX c #EBF0EF",
"aX c #F5F3ED",
"sX c #F4F5F3",
"dX c #F8F8F4",
"fX c #FAFAFA",
/* pixels */
"E.S.J.E.J.J.L.^.L.J.E.S.E.J.S.J.E.S.J.E.J.J.L.E.L.J.E.S.E.J.S.J.E.S.J.E.J.J.L.^.L.J.E.S.E.J.S.J.E.S.J.E.J.J.L.E.L.J.E.S.E.J.S.J.",
"E.J.J.J.V.J.^.J.J.J.J.E.J.J.J.J.E.J.S.J.J.J.J.E.J.J.J.E.S.J.J.S.E.J.J.J.V.J.^.J.J.J.J.E.J.J.J.J.E.J.S.J.J.J.J.E.J.J.J.E.S.J.J.S.",
"J.J.E.L.J.V.E.J.J.S.C.E.J.J.C.S.J.J.S.J.^.J.S.J.J.J.J.E.J.J.J.S.J.J.E.L.J.V.E.J.J.S.C.E.J.J.C.S.J.J.S.J.^.J.S.J.J.J.J.E.J.J.J.S.",
"S.J.J.E.C.J.J.J.E.L.S.J.J.E.^.J.S.J.J.^.J.J.J.L.J.E.L.J.L.J.E.J.S.J.J.E.C.J.J.J.E.L.S.J.J.E.^.J.S.J.J.^.J.J.J.L.J.E.L.J.L.J.E.J.",
"J.J.V.E.V.E.J.V.J.E.S.J.V.J.S.^.J.S.J.E.J.E.J.S.J.J.E.J.J.J.L.E.J.J.V.E.V.E.J.V.J.E.S.J.V.J.S.^.J.S.J.E.J.E.J.S.J.J.E.J.J.J.L.E.",
"J.E.L.J.C.S.J.J.J.E.J.J.J.J.J.E.J.S.J.J.S.L.S.L.J.J.E.S.J.J.J.E.J.E.L.J.C.S.J.J.J.E.J.J.J.J.J.E.J.S.J.J.S.L.S.L.J.J.E.S.J.J.J.E.",
"J.J.E.J.S.J.L.^.J.J.J.J.E.J.E.S.J.E.L.S.J.J.J.J.S.J.J.J.S.J.E.S.J.J.E.J.S.J.L.^.J.J.J.J.E.J.E.S.J.E.L.S.J.J.J.J.S.J.J.J.S.J.E.S.",
"S.V.E.V.S.J.^.J.J.J.E.J.J.E.J.E.S.J.E.S.L.^.J.S.J.J.L.J.S.J.J.E.S.V.E.V.S.J.^.J.J.J.E.J.J.E.J.E.S.J.E.S.L.^.J.S.J.J.L.J.S.J.J.E.",
"J.V.V.V.V.J.E.J.S.C.J.E.J.S.J.E.J.S.E.J.^.J.J.S.J.S.J.J.J.L.J.E.J.V.V.V.V.J.E.J.S.C.J.E.J.S.J.E.J.S.E.J.^.J.J.S.J.S.J.J.J.L.J.E.",
"C.S.C.E.L.J.J.J.E.S.J.J.S.C.J.J.C.S.J.J.E.S.J.J.J.J.S.^.L.J.J.J.C.S.C.E.L.J.J.J.E.S.J.J.S.C.J.J.C.S.J.J.E.S.J.J.J.J.S.^.L.J.J.J.",
"E.J.S.J.L.E.J.V.C.S.J.^.L.E.V.J.E.L.J.S.J.J.S.E.L.J.S.J.^.J.S.J.E.J.S.J.L.E.J.V.C.S.J.^.L.E.V.J.E.L.J.S.J.J.S.E.L.J.S.J.^.J.S.J.",
"J.J.S.J.E.J.J.J.E.L.J.J.^.J.J.V.L.E.S.J.L.J.S.J.E.J.L.J.E.S.J.V.J.J.S.J.E.J.J.J.E.L.J.J.^.J.J.V.L.E.S.J.L.J.S.J.E.J.L.J.E.S.J.V.",
"J.^.J.J.E.J.S.C.J.E.J.V.E.V.J.J.J.J.S.J.J.J.J.J.E.J.J.J.J.S.J.J.J.^.J.J.E.J.S.C.J.E.J.V.E.V.J.J.J.J.S.J.J.J.J.J.E.J.J.J.J.S.J.J.",
"J.J.^.C.S.L.E.S.J.E.J.V.V.J.C.S.J.E.L.J.E.L.E.J.J.J.S.J.L.J.J.S.J.J.^.C.S.L.E.S.J.E.J.V.V.J.C.S.J.E.L.J.E.L.E.J.J.J.S.J.L.J.J.S.",
"S.C.E.S.J.E.V.S.V.J.S.C.J.E.^ Z.^ H.E.J.J.E.L.J.L.J.J.S.J.L.J.J.S.C.E.S.J.E.V.S.V.J.S.C.J.E.S.J.S.J.E.J.J.E.L.J.L.J.J.S.J.L.J.J.",
"J.S.J.S.J.E.J.V.V.E.J.S.L.G.E p V Q T.S.J.E.J.V.E.J.J.S.L.J.S.E.J.S.J.S.J.E.J.V.V.E.J.S.L.J.S.^.J.S.E.S.J.E.J.V.E.J.J.S.L.J.S.E.",
"E.S.J.E.J.J.L.E.L.J.E.S.T.| &.:.X.6 N.E.J.J.L.^.L.J.E.S.E.J.S.J.E.S.J.E.J.J.L.E.L.J.R.~ U.G.S.J.^.S.J.E.J.J.L.^.L.J.E.S.E.J.S.J.",
"E.J.S.J.J.J.J.E.J.J.J.T.E #.@X*X*.+ T J.C.J.^.J.J.J.J.E.J.J.J.J.E.J.S.J.J.J.J.E.J.J.D.' p U G.S.E.J.J.J.V.J.^.J.J.J.J.E.J.J.J.J.",
"J.J.S.J.E.J.S.J.J.J.H. .] }.eX6X>.+ F.L.J.V.E.J.J.S.C.E.J.J.C.S.J.I Q J.E.J.S.J.B. .W.b.m ; G.A.J.J.E.L.J.V.E.J.J.S.C.E.J.J.C.S.",
"S.J.J.E.J.J.J.L.J.^.L C m.3XiX6X>.$ T E.C.J.J.J.E.L.S.J.J.E.S.J.W q p ` J.J.J.L.Y X.*X1XO.o T.J.S.J.J.E.C.J.J.J.E.L.S.J.J.E.S.J.",
"J.S.J.E.J.E.J.S.J.J.2 } '.=X3X@X%.J M.E.V.E.J.V.J.E.S.J.V.J.S.E.r 2 b.=.U E.J.~ 8 @.5X9XO.. K.E.J.J.V.E.V.E.J.V.J.E.S.J.V.J.S.E.",
"J.S.J.J.S.L.S.L.J.J.y { g.k.z.#.Q Y.L.J.C.S.J.J.J.E.J.J.J.J.J.E.8 m 9X-X+.J S.U o @.4X8XC . G.R.J.E.L.J.C.S.J.J.J.E.J.J.J.J.J.E.",
"J.E.L.S.J.J.J.J.S.J.u { r.9.l , K J.E.J.S.J.L.E.J.J.J.J.E.J.E.S.8 ] dX5X+.X J P o O.2X7XC . T.S.J.J.E.J.S.J.L.E.J.J.J.J.E.J.E.S.",
"S.J.E.S.L.^.J.S.J.J.u v r.r.x $ F V.E.V.S.J.E.J.J.J.E.J.J.E.J.E.* C sX5XX.X X # + X.1X1XN + H.E.S.V.E.V.S.J.E.J.J.J.E.J.J.E.J.E.",
"J.S.E.J.^.J.J.S.J.S.w ) 7.8.c $ K V.V.V.V.J.E.J.S.C.J.E.J.S.J.E.9 B aX7X[ k z x x [ .X}.a q H.E.J.V.V.V.V.J.E.J.S.C.J.E.J.S.J.E.",
"C.S.J.J.E.S.J.J.J.J.< j j l h - G S.Z.E.L.J.J.J.E.S.J.J.S.C.J.J.7 C fXrXc.u.t.t.y.q.} a a u u % C.S.C.E.L.J.J.J.E.S.J.J.S.C.J.J.",
"E.L.J.S.J.J.S.E.L.J.< n j k g - R J.S.J.L.^.J.V.C.S.J.^.L.E.V.J.9 B yX,XQ.f.p.p.f.p.6.n s i s i T.H.S.J.L.^.J.V.C.S.J.^.L.E.V.J.",
"L.E.S.J.L.J.S.J.E.J.1 { 4.8.l - G J.S.J.^.J.J.J.E.L.J.J.^.J.J.M.9 j (.~.f.d.s.s.d.f.t.5.n s s s p r S.J.^.J.J.G.E.L.J.J.^.J.J.V.",
"J.J.S.J.J.J.J.J.E.J.1 l 4.8.4.h H U.N.B.U.B.~ R B.U.B.T U.T B.7 > x t.s.f.d.d.d.d.f.a.u.M s s N b d D.B.U.H.S.H.J.E.J.V.E.V.J.J.",
"J.^.L.J.E.L.E.J.J.J.< j k ( 5.6.h 1 1 1 2 y y u u u u w u 6 1 6 v 8.p.d.d.s.p.p.p.a.a.u.M s s s s s w 6 e / E.S.J.E.J.V.V.J.C.S.",
"S.J.^.J.J.E.L.J.L.J.- g u M c.(.z.w.v k i i a s s s s s s p i m e.k.p.s.p.p.s.p.0.0.a.g.l.-.p s s s p w t P.V.S.V.J.S.C.J.E.S.J.",
"J.S.E.S.J.E.J.V.E.J., w w %.=XwX0X$Xj.6.k a s s s f s s p p 6 X.*X;Xh.p.p.p.s.0.( x t.Q.=X-Xs s s s i 1 F E.J.V.V.E.J.S.L.J.S.E.",
"E.S.J.E.J.J.L.^.L.J./ 6 4 =.4XfXdX0Xh.0.4.M f s s f s a p i w o.9XyX[.~._.`.).x.M n x.%XyXuXi a ,.<.a 2 J G.L.E.L.J.E.S.E.J.S.J.",
"E.J.J.J.V.J.^.J.J.J.H.` ; %.4XfXfX0X~.i.u.q.M s s s s s p i i ] 8XsXyX0XrXwX0X*X-.] $XtXdXtXw m :X1X' < p R J.E.J.J.J.E.S.J.J.S.",
"J.J.E.L.J.V.E.J.J.S.Z.T.U $.@X4X-X*X[.~.d.u.6.{ [ { { c n p l Z .X2XeXiXfXfXdX8X}.b.4XsXeXqX-.,.-X-XN o 2 L S.J.J.J.J.E.J.J.J.S.",
"S.J.J.E.C.J.J.J.E.L.S.H.H.I.,.1.&.v.>X;XQ.a.t.r.u.u.u.8.c n 5.3.] <.|.8XfXfXfXiX4X4XpXiX#X&X1X*X|.1.B.T.T H.J.L.J.E.L.J.L.J.E.J.",
"J.J.V.E.V.E.J.V.J.E.S.J.H.C.Q i 5 X.OX$X!.a.u.9.i.a.a.u.6.Z k.c.l.-..X7XsXiX7X4X7X8XeX3X{.{.eXeX*.* J.E.J.E.J.S.J.J.E.J.J.J.L.E.",
"J.E.L.J.C.S.J.J.J.E.J.J.J.J.C._ - i } w.f.y.( { 0.a.a.a.r.j.;XrX3X1XiXiXiX-X;.*.-.<.1.;.Z ..b.2.# ^ J.J.S.L.S.L.J.J.E.S.J.J.J.E.",
"J.J.E.J.S.J.L.^.J.J.J.J.E.J.E.F - 1 3 M 9.9.n =./.`._._.`.].tXfXfXfXfXiX+X;., O o . .   . .     J.E.L.S.J.J.J.J.S.J.J.J.S.J.E.S.",
"S.V.E.V.S.J.^.J.J.J.E.J.J.E.J.L $ 3 w p M w.n.@X<XrX0X<X0XtXfXfXfXfXfX8X&.5 > ; J J.E.J.H.E.J.E.S.J.E.S.L.^.J.S.J.J.L.J.S.J.J.E.",
"J.V.V.V.V.J.E.J.S.C.J.E.J.A.G , O.>.,.+.u ]  X3X4X8X8X8X9XuXaXfXfXfXfX4XN 3 < 7 S C.J.E.J.S.J.E.J.S.E.J.^.J.J.S.J.S.J.J.J.L.J.E.",
"C.S.C.E.L.J.J.J.E.S.J.J.S.P % +.OX7X7XOX+.y C #.-.*.-.-.-.2.@XuXfXfXfX7X] 2 o 8 E.S.J.J.S.C.J.J.V.S.J.J.E.S.J.J.J.J.S.^.L.J.J.J.",
"E.J.S.J.L.E.J.V.C.S.J.^.L.F.& *.2XsXeXXXN o + - > ; ; ; + , b.oX1XeXfXuXn.X.* 7 T S.J.^.L.E.V.J.E.L.J.S.J.J.S.E.L.J.S.J.^.J.S.J.",
"J.J.S.J.E.J.J.J.E.L.J.J.^.Y + @.1XeX}.N X 8 . O > > > : + + o.$.#.}.dXsX8X+XO.. H L.J.J.^.J.J.V.L.E.S.J.L.J.S.J.E.J.L.J.E.S.J.V.",
"J.^.J.J.E.J.S.C.J.E.J.V.E.T 9 X.@X@XC O   C.A A O ; = @ 7 # , 1 O f 7XeXeX-X:.$ A E.J.V.E.V.J.J.J.J.S.J.J.J.J.J.E.J.J.J.J.S.J.J.",
"J.J.^.C.S.L.E.S.J.E.J.V.V.H.T E -.:.j -   K.E.H.G . . 7 D.T # .   % 1.<.v.;.M j T E.J.V.V.J.C.S.J.E.L.J.E.L.E.J.J.J.S.J.L.J.J.S.",
"S.C.E.S.J.E.V.S.V.J.S.C.J.E.S.B.r q > $   T.L.J.K.P P ! J.L.T P D . & & , - 4 E V.J.S.C.J.E.S.J.S.J.E.J.J.E.L.J.L.J.J.S.J.L.J.J.",
"J.S.J.S.J.E.J.V.V.E.J.S.L.J.S.^.N.7 _ ! Y R.J.V.E.J.J.A.L.J.S.E.J.! Y   X F.R I V.E.J.S.L.J.S.^.J.S.E.S.J.E.J.V.E.J.J.S.L.J.S.E.",
"E.S.J.E.J.J.L.E.L.J.E.S.E.J.S.J.^.~ C.E.J.J.L.^.L.J.E.^ E.J.S.J.E.S.J.P.T J.L.E.L.J.E.S.E.J.S.J.^.S.J.E.J.J.L.^.L.J.E.S.E.J.S.J.",
"E.J.S.J.J.J.J.E.J.J.J.E.S.J.J.S.E.J.J.J.V.J.^.J.J.J.J.E.J.J.J.J.E.J.S.J.J.J.J.E.J.J.J.E.S.J.J.S.E.J.J.J.V.J.^.J.J.J.J.E.J.J.J.J.",
"J.J.S.J.E.J.S.J.J.J.J.E.J.J.J.S.J.J.E.L.J.V.E.J.J.S.C.E.J.J.C.S.J.J.S.J.E.J.S.J.J.J.J.E.J.J.J.S.J.J.E.L.J.V.E.J.J.S.C.E.J.J.C.S.",
"S.J.J.E.J.J.J.L.J.^.L.J.L.J.E.J.S.J.J.E.C.J.J.J.E.L.S.J.J.E.S.J.S.J.J.E.J.J.J.L.J.^.L.J.L.J.E.J.S.J.J.E.C.J.J.J.E.L.S.J.J.E.S.J.",
"J.S.J.E.J.E.J.S.J.J.^.J.J.J.L.E.J.J.V.E.V.E.J.V.J.E.S.J.C.J.S.E.J.S.J.E.J.E.J.S.J.J.^.J.J.J.L.E.J.J.V.E.V.E.J.V.J.E.S.J.V.J.S.E.",
"J.S.J.J.S.L.S.L.J.J.E.S.J.J.J.E.J.E.L.J.C.S.J.J.J.E.J.J.J.J.J.E.J.S.J.J.S.L.S.L.J.J.E.S.J.J.J.E.J.E.L.J.C.S.J.J.J.E.J.J.J.J.J.E.",
"J.E.L.S.J.J.J.J.S.J.J.J.S.J.E.S.J.J.E.J.S.J.L.E.J.J.J.J.E.J.E.S.J.E.L.S.J.J.J.J.S.J.J.J.S.J.E.S.J.J.E.J.S.J.L.E.J.J.J.J.E.J.E.S.",
"S.J.E.S.L.^.J.S.J.J.L.J.S.J.J.E.S.V.E.V.S.J.E.J.J.J.E.J.J.E.J.E.S.J.E.S.L.^.J.S.J.J.L.J.S.J.J.E.S.V.E.V.S.J.E.J.J.J.E.J.J.E.J.E.",
"J.S.E.J.^.J.J.S.J.S.J.J.J.L.J.E.J.V.V.V.V.J.E.J.S.C.J.E.J.S.J.E.J.S.E.J.^.J.J.S.J.S.J.J.J.L.J.E.J.V.V.V.V.J.E.J.S.C.J.E.J.S.J.E.",
"C.S.J.J.E.S.J.J.J.J.S.^.L.J.J.J.C.S.C.E.L.J.J.J.E.S.J.J.S.C.J.J.C.S.J.J.E.S.J.J.J.J.S.^.L.J.J.J.C.S.C.E.L.J.J.J.E.S.J.J.S.C.J.J.",
"E.L.J.S.J.J.S.E.L.J.S.J.^.J.S.J.E.J.S.J.L.^.J.V.C.S.J.^.L.E.V.J.E.L.J.S.J.J.S.E.L.J.S.J.^.J.S.J.E.J.S.J.L.^.J.V.C.S.J.^.L.E.V.J.",
"L.E.S.J.L.J.S.J.E.J.L.J.E.S.J.V.J.J.S.J.^.J.J.J.E.L.J.J.^.J.J.V.L.E.S.J.L.J.S.J.E.J.L.J.E.S.J.V.J.J.S.J.^.J.J.J.E.L.J.J.^.J.J.V.",
"J.J.S.J.J.J.J.J.E.J.J.J.J.S.J.J.J.E.J.J.E.J.S.C.J.E.J.V.E.V.J.J.J.J.S.J.J.J.J.J.E.J.J.J.J.S.J.J.J.E.J.J.E.J.S.C.J.E.J.V.E.V.J.J.",
"J.^.L.J.E.L.E.J.J.J.S.J.L.J.J.S.J.J.E.C.S.L.E.S.J.E.J.V.V.J.C.S.J.^.L.J.E.L.E.J.J.J.S.J.L.J.J.S.J.J.E.C.S.L.E.S.J.E.J.V.V.J.C.S.",
"S.J.^.J.J.E.L.J.L.J.J.S.J.L.J.J.S.C.E.S.J.E.V.S.V.J.S.C.J.E.S.J.S.J.^.J.J.E.L.J.L.J.J.S.J.L.J.J.S.C.E.S.J.E.V.S.V.J.S.C.J.E.S.J.",
"J.S.E.S.J.E.J.V.E.J.J.S.L.J.S.E.J.S.J.S.J.E.J.V.V.E.J.S.L.J.S.E.J.S.E.S.J.E.J.V.E.J.J.S.L.J.S.E.J.S.J.S.J.E.J.V.V.E.J.S.L.J.S.E."
};
