/* XPM */
static char *walk31750862439[] = {
/* columns rows colors chars-per-pixel */
"64 64 222 2 ",
"   c #040101",
".  c #0B0503",
"X  c #0A0907",
"o  c #120707",
"O  c #150907",
"+  c #150B0A",
"@  c #1B0D0A",
"#  c #0D1705",
"$  c #151A06",
"%  c #19100E",
"&  c #1D1613",
"*  c #250F0B",
"=  c #24130E",
"-  c #2C120D",
";  c #241413",
":  c #291915",
">  c #2B1C1A",
",  c #341D15",
"<  c #321E1A",
"1  c #182509",
"2  c #182D10",
"3  c #292B0E",
"4  c #22370A",
"5  c #282A14",
"6  c #2D221D",
"7  c #35221E",
"8  c #3B261C",
"9  c #2B3016",
"0  c #35311E",
"q  c #2A1E20",
"w  c #342423",
"e  c #372925",
"r  c #3B2A25",
"t  c #312C2C",
"y  c #3A2D2C",
"u  c #3B332E",
"i  c #47220B",
"p  c #56280C",
"a  c #4A2616",
"s  c #532C13",
"d  c #4B391B",
"f  c #55311C",
"g  c #602C0A",
"h  c #68330B",
"j  c #6B3A1A",
"k  c #432D23",
"l  c #4B3325",
"z  c #42312C",
"x  c #593824",
"c  c #4B3935",
"v  c #483836",
"b  c #553F35",
"n  c #623C23",
"m  c #713536",
"M  c #1B4218",
"N  c #23460D",
"B  c #25530D",
"V  c #2B5C0D",
"C  c #35540E",
"Z  c #244B1A",
"A  c #375617",
"S  c #2E680D",
"D  c #3A6615",
"F  c #2F7010",
"G  c #347B12",
"H  c #3B7A15",
"J  c #325527",
"K  c #276625",
"L  c #2E762B",
"P  c #327E2E",
"I  c #43421C",
"U  c #7D400D",
"Y  c #7B4215",
"T  c #4B7018",
"R  c #4B4C31",
"E  c #53433E",
"W  c #59443B",
"Q  c #6C432A",
"!  c #724422",
"~  c #674635",
"^  c #496924",
"/  c #4F702E",
"(  c #723343",
")  c #534543",
"_  c #594743",
"`  c #5D4B46",
"'  c #5B4C4A",
"]  c #5E524D",
"[  c #5E5856",
"{  c #614C45",
"}  c #64544B",
"|  c #79594B",
" . c #625554",
".. c #635953",
"X. c #675855",
"o. c #6D5D5A",
"O. c #745A52",
"+. c #6E6553",
"@. c #73625D",
"#. c #6C6463",
"$. c #726563",
"%. c #7A6965",
"&. c #7B6D6A",
"*. c #8D3A11",
"=. c #95490A",
"-. c #894713",
";. c #934B10",
":. c #A5520F",
">. c #AB540A",
",. c #B55607",
"<. c #BC5B03",
"1. c #BB610D",
"2. c #89552D",
"3. c #875637",
"4. c #B76E2E",
"5. c #C75C02",
"6. c #C25E0A",
"7. c #CA6607",
"8. c #CC6504",
"9. c #C4640A",
"0. c #D56402",
"q. c #D56E05",
"w. c #DB6B02",
"e. c #D36E09",
"r. c #D67105",
"t. c #D97105",
"y. c #D57109",
"u. c #DC740B",
"i. c #D17016",
"p. c #E26B01",
"a. c #C67724",
"s. c #C67B36",
"d. c #90684E",
"f. c #BA7B49",
"g. c #826D67",
"h. c #84736B",
"j. c #867B79",
"k. c #33830F",
"l. c #398515",
"z. c #3D8A16",
"x. c #3A9311",
"c. c #3D9815",
"v. c #3F9319",
"b. c #30802E",
"n. c #328530",
"m. c #42810F",
"M. c #478A18",
"N. c #548E1C",
"B. c #429B16",
"V. c #449B19",
"C. c #53921B",
"Z. c #46A017",
"A. c #44A318",
"S. c #58AC14",
"D. c #519928",
"F. c #628C28",
"G. c #5FA721",
"H. c #63A822",
"J. c #65B222",
"K. c #6ABC23",
"L. c #70C725",
"P. c #77874C",
"I. c #DC861D",
"U. c #DA8837",
"Y. c #E28D38",
"T. c #94FF30",
"R. c #BD8745",
"E. c #8F827F",
"W. c #998579",
"Q. c #AA886A",
"!. c #DD8F45",
"~. c #DD9245",
"^. c #C38756",
"/. c #D79C5A",
"(. c #E28D40",
"). c #E29248",
"_. c #DCA36B",
"`. c #D36D8A",
"'. c #968B8B",
"]. c #998F8F",
"[. c #A69897",
"{. c #ADA09B",
"}. c #B4AAA7",
"|. c #BDB5AD",
" X c #BDB6B3",
".X c #C2AC9B",
"XX c #D3B090",
"oX c #E2BC94",
"OX c #E195AA",
"+X c #CBB7A7",
"@X c #D5B9A4",
"#X c #C4BCB7",
"$X c #D5C2AF",
"%X c #C8C1BA",
"&X c #CCC4BD",
"*X c #E6C6A3",
"=X c #EBD5B9",
"-X c #CBC6C3",
";X c #CECBC8",
":X c #D3CECB",
">X c #D7CCC8",
",X c #D6D4CD",
"<X c #D9D3CE",
"1X c #D6D3D2",
"2X c #DBD6D2",
"3X c #DDD9D4",
"4X c #DDDCDA",
"5X c #E3C2C8",
"6X c #EBDAC5",
"7X c #E6D7C8",
"8X c #F1DEC8",
"9X c #E7DBD5",
"0X c #E1DEDA",
"qX c #E5E2DD",
"wX c #EBE4DA",
"eX c #F1E8DA",
"rX c #EAE8E5",
"tX c #F3F2EE",
"yX c #F5F5F2",
"uX c #F8F8F5",
"iX c #F9F9F6",
"pX c #FAFBF9",
/* pixels */
"L.n.A.L.A.A.S.T.S.A.L.n.L.A.n.A.L.n.A.L.A.A.S.L.S.A.L.n.L.A.n.A.L.n.A.L.A.A.S.T.S.A.L.n.L.A.n.A.L.n.A.L.A.A.S.L.S.A.L.n.L.A.n.A.",
"L.A.A.A.x.A.T.A.A.A.A.L.A.A.A.A.L.A.n.A.A.A.A.L.A.A.A.L.n.A.A.n.L.A.A.A.v.A.T.A.A.A.A.L.A.A.A.A.L.A.n.A.A.A.A.L.A.A.A.L.n.A.A.n.",
"A.A.L.S.A.x.L.A.A.n.c.L.A.A.c.n.A.A.n.A.T.A.n.A.A.A.A.L.A.A.A.n.A.A.L.S.A.x.L.A.A.n.c.L.A.A.c.n.A.A.n.A.T.A.n.A.A.A.A.L.A.A.A.n.",
"n.A.A.L.c.A.A.A.L.S.n.A.A.L.T.A.n.A.A.T.A.A.A.S.A.L.S.A.S.A.L.A.n.A.A.L.c.A.A.A.L.S.n.A.A.L.T.A.n.A.A.T.A.A.A.S.A.L.S.A.S.A.L.A.",
"A.A.x.L.x.L.A.x.A.L.n.A.x.A.n.T.A.n.A.L.A.L.A.n.A.A.L.A.A.A.S.L.A.A.x.L.x.L.A.x.A.L.n.A.x.A.n.T.A.n.A.L.A.L.A.n.A.A.L.A.A.A.S.L.",
"A.L.S.A.c.n.A.A.A.L.A.A.A.A.A.L.A.n.A.A.n.S.n.S.A.A.L.n.A.A.A.L.A.L.S.A.c.n.A.A.A.L.A.A.A.A.A.L.A.n.A.A.n.S.n.S.A.A.L.n.A.A.A.L.",
"A.A.L.A.n.A.S.T.A.A.A.A.L.A.L.n.A.L.S.n.A.A.A.A.n.A.A.A.n.A.L.n.A.A.L.A.n.A.S.T.A.A.A.A.L.A.L.n.A.L.S.n.A.A.A.A.n.A.A.A.n.A.L.n.",
"n.x.L.x.n.A.T.A.A.A.L.A.A.L.A.L.n.A.L.n.S.T.A.n.A.A.S.A.n.A.A.L.n.x.L.x.n.A.T.A.A.A.L.A.A.L.A.L.n.A.L.n.S.T.A.n.A.A.S.A.n.A.A.L.",
"A.x.x.x.x.A.L.A.n.c.A.L.A.n.A.L.A.n.L.A.T.A.A.n.A.n.A.A.A.S.A.L.A.x.x.x.x.A.L.A.n.c.A.L.A.n.A.L.A.n.L.A.T.A.A.n.A.n.A.A.A.S.A.L.",
"c.n.c.L.S.A.A.A.L.n.A.A.n.c.A.A.v.n.A.A.L.n.A.A.A.A.n.T.S.A.A.A.c.n.c.L.S.A.A.A.L.n.A.A.n.c.A.A.c.n.A.A.L.n.A.A.A.A.n.T.S.A.A.A.",
"L.A.n.A.S.L.A.x.c.n.A.T.S.L.x.A.L.S.A.n.A.A.n.L.S.A.n.A.T.A.n.A.L.A.n.A.S.L.A.x.c.n.A.T.S.L.x.A.L.S.A.n.A.A.n.L.S.A.n.A.T.A.n.A.",
"A.A.n.A.L.A.A.A.L.S.A.A.T.A.A.x.S.L.n.A.S.A.n.A.L.A.S.A.L.n.A.x.A.A.n.A.L.A.A.A.L.S.A.A.T.A.A.x.S.L.n.A.S.A.n.A.L.A.S.A.L.n.A.x.",
"A.T.A.A.L.A.n.c.A.L.A.x.L.x.A.A.A.A.n.A.A.A.A.A.L.A.A.A.A.n.A.A.A.T.A.A.L.A.n.c.A.L.A.x.L.x.A.A.A.A.n.A.A.A.A.A.L.A.A.A.A.n.A.A.",
"A.A.T.c.n.S.L.n.A.L.A.x.x.A.c.n.A.L.S.A.L.S.L.A.A.A.n.A.S.A.A.n.A.A.T.c.n.S.L.n.A.L.A.x.x.A.c.n.A.L.S.A.L.S.L.A.A.A.n.A.S.A.A.n.",
"n.c.L.n.A.L.x.n.x.A.n.c.A.L.P v.P A.L.A.A.L.S.A.S.A.A.n.A.S.A.A.n.c.L.n.A.L.x.n.x.A.n.c.A.L.n.A.n.A.L.A.A.L.S.A.S.A.A.n.A.S.A.A.",
"A.n.A.n.A.L.A.x.x.L.A.n.S.B.J r b J K.n.A.L.A.x.L.A.A.n.S.A.n.L.A.n.A.n.A.L.A.x.x.L.A.n.S.A.n.T.A.n.L.n.A.L.A.x.L.A.A.n.S.A.n.L.",
"L.n.A.L.A.A.S.L.S.A.L.b.K.T } g.W > G L.A.A.S.T.S.A.L.n.L.A.n.A.L.n.A.L.A.A.S.L.S.A.S.K G.B.n.A.T.n.A.L.A.A.S.T.S.A.L.n.L.A.n.A.",
"L.A.n.A.A.A.A.L.A.A.A.K.J ` |.#Xo.% G A.x.A.T.A.A.A.A.L.A.A.A.A.L.A.n.A.A.A.A.L.A.A.A 5 r D A.n.L.A.A.A.x.A.T.A.A.A.A.L.A.A.A.A.",
"A.A.n.A.L.A.n.A.A.A.Z./ c E.wX3X%.% C.S.A.x.L.A.A.n.c.L.A.A.c.n.A.H J A.L.A.n.A.A.D.W.%.c * B.n.A.A.L.S.A.x.L.A.A.n.c.L.A.A.c.n.",
"n.A.A.L.A.A.A.S.B.T.^ { W.$XyX3X%.% G L.c.A.A.A.L.S.n.A.A.L.n.A.J 5 l T A.A.A.S.l.P.#X-X{ O K.A.n.A.A.L.c.A.A.A.L.S.n.A.A.L.n.A.",
"A.n.A.L.A.L.A.n.A.A.w | ^.*X>X|. .N k.L.x.L.A.x.A.L.n.A.x.A.n.L.9 r h.+./ L.A.K 2 } <X0X` . C.L.A.A.x.L.x.L.A.x.A.L.n.A.x.A.n.L.",
"A.n.A.A.n.S.n.S.A.A.t 3.i.s.d. .^ J.S.A.c.n.A.A.A.L.A.A.A.A.A.L.9 E qX&X..A n.F O X.<X0X_ . B.L.A.L.S.A.c.n.A.A.A.L.A.A.A.A.A.L.",
"A.L.S.n.A.A.A.A.n.A.y 2.6.6.h ; V A.L.A.n.A.S.L.A.A.A.A.L.A.L.n.3 ` uX9XX.& Z S O } <X2X) . K.n.A.A.L.A.n.A.S.L.A.A.A.A.L.A.L.n.",
"n.A.L.n.S.T.A.n.A.A.z 2.5.,.p + Z v.L.x.n.A.L.A.A.A.L.A.A.L.A.L.2 ] yX,X) X X # @ ' -X#Xc o B.L.n.x.L.x.n.A.L.A.A.A.L.A.A.L.A.L.",
"A.n.L.A.T.A.A.n.A.n.z 2.>.>.p + V x.x.x.x.A.L.A.n.c.A.L.A.n.A.L.3 ' uX<X~ p g h h ~ [.'.e & c.L.A.x.x.x.x.A.L.A.n.c.A.L.A.n.A.L.",
"c.n.A.A.L.n.A.A.A.A.8 b s f i - V n.c.L.S.A.A.A.L.n.A.A.n.c.A.A.3 ' uXwX4.8.8.8.q.,.~ E t w w ; c.n.B.L.S.A.A.A.L.n.A.A.n.c.A.A.",
"L.S.A.n.A.A.n.L.S.A.z b s s , = T A.n.A.S.T.A.x.c.n.A.T.S.L.x.A.3 ..eX*XI.r.r.r.r.8.-.l y r y w K.B.n.A.S.T.A.x.c.n.A.T.S.L.x.A.",
"S.L.n.A.S.A.n.A.L.A.r Q =.:.p = V A.n.A.T.A.A.A.L.S.A.A.T.A.A.x.3 n /.(.u.y.y.r.r.r.7.:.l r y u w 0 n.A.T.A.Z.V.L.S.A.A.T.A.A.x.",
"A.A.n.A.A.A.A.A.L.A.r Q =.>.-.i V G.z.M.H.l.L H z.H.z.H H.G M.z.I U 8.r.e.e.e.e.q.q.t.7.x y y y z z M.z.H.M.n.B.A.L.A.x.L.x.A.A.",
"A.T.S.A.L.S.L.A.A.A.8 d s U >.;.s > q > > ; q q q q q w 6 > > < -.,.q.r.e.e.r.r.q.q.w.7.n u y y z r w > 8 T L.n.A.L.A.x.x.A.c.n.",
"n.A.T.A.A.L.S.A.S.A.7 r e ~ f.^.d.3.j s w w y y y u t y y w w l 4.U.r.r.q.e.r.8.<.5.p.e.d.o.y y e y w q > ^ x.n.x.A.n.c.A.L.n.A.",
"A.n.L.n.A.L.A.x.L.A.7 a 8 +.@X6X7XXXa.;.l r y y y y y y y w 7 b +X@Xi.q.q.r.w.1.-.j 7.s.+X Xy y r r w > 1 N.A.x.x.L.A.n.S.A.n.L.",
"L.n.A.L.A.A.S.T.S.A.^ k a @.<XuXuX8XY.6.-.x u y y y y y r r < _ :XwX/.~.~.).~.f.~ x R.oXeXqXr y $.$.r ; N A.S.L.S.A.L.n.L.A.n.A.",
"L.A.A.A.x.A.T.A.A.A.B.T > o.>XuXuX8XY.p.6.:.l t u t y y r w < _ ,XyXeX6X6X6X7X+X$.W .XeXtXqXw z -X%Xc ; 6 H A.L.A.A.A.L.n.A.A.n.",
"A.A.L.S.A.x.L.A.A.n.V.K.D ' }.<X#X.X_.Y.u.9.-.Y ! ! Y n k r s m {.-XqXyXuXpXpX4X].j.1XtX9X5X%.@.-X-Xz @ & C n.A.A.A.A.L.A.A.A.n.",
"n.A.A.L.c.A.A.A.L.S.n.V.V.F.@.%.X.g.$XoXI.y.7.9.6.9.9.:.j l ;.*.~ o.].1XpXpXpXyX:X;XtXtXOXOX>X#X].$.5 K.H v.A.S.A.L.S.A.S.A.L.A.",
"A.A.x.L.x.L.A.x.A.L.n.A.x.B.J , , E {.XXI.w.<.,.p.w.e.5.=.Y s.f.O.o.].:XuXtX1X:X3XqXqX>X`.`.9X9X[ 2 z.L.A.L.A.n.A.A.L.A.A.A.S.L.",
"A.L.S.A.B.n.A.A.A.L.A.A.A.A.V.T - 7 W 2.e.0.-.! 5.p.w.0.5.4.@X7X-X;XtXyXtX#X . .#.&.g.O.m ( g.&.V.L A.A.n.S.n.S.A.A.L.n.A.A.A.L.",
"A.A.L.A.n.A.S.T.A.A.A.A.L.A.L.M * < w x >.>.x  .^.).).(.(._.wXpXpXpXpXtX Xo.+ o     .   .       A.L.S.n.A.A.A.A.n.A.A.A.n.A.L.n.",
"n.x.L.x.n.A.T.A.A.A.L.A.A.L.A.D = 7 7 r l | j.#X7X6X6X=X=XeXyXpXuXpXpX4X#.: ; % N A.L.A.A.L.A.L.b.A.L.n.S.T.A.n.A.A.S.A.n.A.A.L.",
"A.x.x.x.x.A.L.A.n.c.A.L.A.n.A.D ; < < z %.&.'. X-X:X,X1X1X4XtXtX:X-XrX{.a a l W R x.A.L.A.n.A.L.A.n.L.A.T.A.A.n.A.n.A.A.A.S.A.L.",
"c.n.c.L.S.A.A.A.L.n.A.A.n.c.A.B = , : ` #X}.E E  .[ ..[ [ j.3X4X$.' #.3.:.1.^.Q.| ^ A.A.b.c.A.A.c.n.A.A.L.n.A.A.A.A.n.T.S.A.A.A.",
"L.A.n.A.S.L.A.x.c.n.A.T.S.L.x.B @ , ;  .rX4X&.) ..) 6 = : ) :X3Xc @ @ a 9.a./.Q.O.R B.T.S.L.x.A.L.S.A.n.A.A.n.L.S.A.n.A.T.A.n.A.",
"A.A.n.A.L.A.A.A.L.S.A.A.T.A.A.S $ O = X.rXyX:X-X-X}.' = , ' :X3X_ * . * p n 2.~ x A G Z.T.A.A.c.S.L.n.A.S.A.n.A.L.A.S.A.L.n.A.x.",
"A.T.A.A.L.A.n.c.A.L.A.x.L.x.A.A.F # o ` ;X4X0X3X3X#X] % , W |.%Xb .     o @ - - r / A.x.L.x.A.A.A.A.n.A.A.A.A.A.L.A.A.A.A.n.A.A.",
"A.A.T.c.n.S.L.n.A.L.A.x.x.A.c.n.A.C.# 6 o.%.g.&.#.] 6 . = k o...; Z C.B 2 # H Z T J.A.x.x.A.c.b.A.L.S.A.L.S.L.A.A.A.n.A.S.A.A.n.",
"n.c.L.n.A.L.x.n.x.A.n.c.A.L.n.A.b.A.C.# % & ; & $ + 1 2 + = ; @   l.L.n.A.M.c.n.x.B.b.c.A.L.n.A.n.A.L.A.A.L.S.A.S.A.A.n.A.S.A.A.",
"A.n.A.n.A.L.A.x.x.L.A.n.S.A.n.T.A.n.L.K S         # k.L 4 .   D F P A.n.A.L.A.x.x.L.A.b.S.A.n.T.A.n.L.n.A.L.A.x.L.A.A.n.S.A.n.L.",
"L.n.A.L.A.A.S.L.S.A.L.n.L.A.n.A.T.n.A.L.A.G m.K.m.l.L.n.J.G K c.L.n.A.L.A.A.S.L.S.A.L.n.L.A.n.A.T.n.A.L.A.A.S.T.S.A.L.n.L.A.n.A.",
"L.A.n.A.A.A.A.L.A.A.A.L.n.A.A.n.L.A.A.A.x.A.T.A.A.A.A.L.A.A.A.A.L.A.n.A.A.A.A.L.A.A.A.L.n.A.A.n.L.A.A.A.x.A.T.A.A.A.A.L.A.A.A.A.",
"A.A.n.A.L.A.n.A.A.A.A.L.A.A.A.n.A.A.L.S.A.x.L.A.A.n.c.L.A.A.c.n.A.A.n.A.L.A.n.A.A.A.A.L.A.A.A.n.A.A.L.S.A.x.L.A.A.n.c.L.A.A.c.n.",
"n.A.A.L.A.A.A.S.A.T.S.A.S.A.L.A.n.A.A.L.c.A.A.A.L.S.n.A.A.L.n.A.n.A.A.L.A.A.A.S.A.T.S.A.S.A.L.A.n.A.A.L.c.A.A.A.L.S.n.A.A.L.n.A.",
"A.n.A.L.A.L.A.n.A.A.T.A.A.A.S.L.A.A.x.L.x.L.A.x.A.L.n.A.x.A.n.L.A.n.A.L.A.L.A.n.A.A.T.A.A.A.S.L.A.A.x.L.x.L.A.x.A.L.n.A.x.A.n.L.",
"A.n.A.A.n.S.n.S.A.A.L.n.A.A.A.L.A.L.S.A.c.n.A.A.A.L.A.A.A.A.A.L.A.n.A.A.n.S.n.S.A.A.L.n.A.A.A.L.A.L.S.A.c.n.A.A.A.L.A.A.A.A.A.L.",
"A.L.S.n.A.A.A.A.n.A.A.A.n.A.L.n.A.A.L.A.n.A.S.L.A.A.A.A.L.A.L.n.A.L.S.n.A.A.A.A.n.A.A.A.n.A.L.n.A.A.L.A.n.A.S.L.A.A.A.A.L.A.L.n.",
"n.A.L.n.S.T.A.n.A.A.S.A.n.A.A.L.n.x.L.x.n.A.L.A.A.A.L.A.A.L.A.L.n.A.L.n.S.T.A.n.A.A.S.A.n.A.A.L.n.x.L.x.n.A.L.A.A.A.L.A.A.L.A.L.",
"A.n.L.A.T.A.A.n.A.n.A.A.A.S.A.L.A.x.x.x.x.A.L.A.n.c.A.L.A.n.A.L.A.n.L.A.T.A.A.n.A.n.A.A.A.S.A.L.A.x.x.x.x.A.L.A.n.c.A.L.A.n.A.L.",
"c.n.A.A.L.n.A.A.A.A.n.T.S.A.A.A.c.n.c.L.S.A.A.A.L.n.A.A.n.c.A.A.c.n.A.A.L.n.A.A.A.A.n.T.S.A.A.A.c.n.c.L.S.A.A.A.L.n.A.A.n.c.A.A.",
"L.S.A.n.A.A.n.L.S.A.n.A.T.A.n.A.L.A.n.A.S.T.A.x.c.n.A.T.S.L.x.A.L.S.A.n.A.A.n.L.S.A.n.A.T.A.n.A.L.A.n.A.S.T.A.x.c.n.A.T.S.L.x.A.",
"S.L.n.A.S.A.n.A.L.A.S.A.L.n.A.x.A.A.n.A.T.A.A.A.L.S.A.A.T.A.A.x.S.L.n.A.S.A.n.A.L.A.S.A.L.n.A.x.A.A.n.A.T.A.A.A.L.S.A.A.T.A.A.x.",
"A.A.n.A.A.A.A.A.L.A.A.A.A.n.A.A.A.L.A.A.L.A.n.c.A.L.A.x.L.x.A.A.A.A.n.A.A.A.A.A.L.A.A.A.A.n.A.A.A.L.A.A.L.A.n.c.A.L.A.x.L.x.A.A.",
"A.T.S.A.L.S.L.A.A.A.n.A.S.A.A.n.A.A.L.c.n.S.L.n.A.L.A.x.x.A.c.n.A.T.S.A.L.S.L.A.A.A.n.A.S.A.A.n.A.A.L.c.n.S.L.n.A.L.A.x.x.A.c.n.",
"n.A.T.A.A.L.S.A.S.A.A.n.A.S.A.A.n.c.L.n.A.L.x.n.x.A.n.c.A.L.n.A.n.A.T.A.A.L.S.A.S.A.A.n.A.S.A.A.n.c.L.n.A.L.x.n.x.A.n.c.A.L.n.A.",
"A.n.L.n.A.L.A.x.L.A.A.n.S.A.n.L.A.n.A.n.A.L.A.x.x.L.A.n.S.A.n.L.A.n.L.n.A.L.A.x.L.A.A.n.S.A.n.L.A.n.A.n.A.L.A.x.x.L.A.n.S.A.n.L."
};
