/* XPM */
static char *exit11750857455[] = {
/* columns rows colors chars-per-pixel */
"64 64 87 1 ",
"  c #191019",
". c #1C1119",
"X c #1E151F",
"o c #19191D",
"O c #231619",
"+ c #251619",
"@ c #26181E",
"# c #1D1520",
"$ c #201620",
"% c #271920",
"& c #261B26",
"* c #281D25",
"= c #261D28",
"- c #281D29",
"; c #2A1E29",
": c #2E1E29",
"> c #2C202A",
", c #2C202D",
"< c #2B2532",
"1 c #292637",
"2 c #2E2B3D",
"3 c #312330",
"4 c #332430",
"5 c #342431",
"6 c #372B31",
"7 c #3C3033",
"8 c #41252D",
"9 c #452A37",
"0 c #412C38",
"q c #432D39",
"w c #5F3637",
"e c #50303D",
"r c #53313E",
"t c #34601D",
"y c #30582F",
"u c #2F5937",
"i c #365A30",
"p c #3A5F32",
"a c #3B533B",
"s c #3E583D",
"d c #3A6921",
"f c #38682B",
"g c #456E1F",
"h c #594D3E",
"j c #447024",
"k c #4F7522",
"l c #537D28",
"z c #4E7A31",
"x c #557D39",
"c c #2F2E41",
"v c #2F2E42",
"b c #302F43",
"n c #343247",
"m c #363249",
"M c #38344B",
"N c #3E3651",
"B c #3D3951",
"V c #583240",
"C c #5A3240",
"Z c #5C3341",
"A c #5E3442",
"S c #413955",
"D c #423D57",
"F c #443E59",
"G c #473F5C",
"H c #6A3F43",
"J c #6D3D45",
"K c #48405C",
"L c #4A425F",
"P c #744147",
"I c #764446",
"U c #7A4A47",
"Y c #4C6341",
"T c #4C4461",
"R c #824A4A",
"E c #3A9311",
"W c #3D9815",
"Q c #328530",
"! c #429B1A",
"~ c #439C1B",
"^ c #44A318",
"/ c #55A417",
"( c #58AC14",
") c #6CBE27",
"_ c #71A432",
"` c #70C725",
"' c #94FF30",
/* pixels */
"`Q^`^^('(^`Q`^Q^`Q^`^^(`(^`Q`^Q^`Q^`^^('(^`Q`^Q^`Q^`^^(`(^`Q`^Q^",
"`^^^E^'^^^^`^^^^`^Q^^^^`^^^`Q^^Q`^^^E^'^^^^`^^^^`^Q^^^^`^^^`Q^^Q",
"^^`(^E`^^QW`^^WQ^^Q^'^Q^^^^`^^^Q^^`(^E`^^QW`^^WQ^^Q^'^Q^^^^`^^^Q",
"Q^^`W^^^`(Q^^`'^Q^^'^^^(^`(^(^`^Q^^`W^^^`(Q^^`'^Q^^'^^^(^`(^(^`^",
"^^E`E`^E^`Q^E^Q'^Q^`^`^Q^^`^^^(`^^E`E`^E^`Q^E^Q'^Q^`^`^Q^^`^^^(`",
"^`(^WQ^^^`^^^^^`^Q^^Q(Q(^^`Q^^^`^`(^WQ^^^`^^^^^`^Q^^Q(Q(^^`Q^^^`",
"^^`^Q^('^^^^`^`Q^`(Q^^^^Q^^^Q^`Q^^`^Q^('^^^^`^`Q^`(Q^^^^Q^^^Q^`Q",
"QE`EQ^'^^^`^^`^`Q^`Q('^Q^^(^Q^^`QE`EQ^'^^^`^^`^`Q^`Q('^Q^^(^Q^^`",
"^EEEE^`^QW^`^Q^`^Q`^'^^Q^Q^^^(^`^EEEE^`^QW^`^Q^`^Q`^'^^Q^Q^^^(^`",
"WQW`(^^^`Q^^QWAAAAAA`Q^^^^Q'(^^^WQW`(^^^`Q^^AAAAAA^^`Q^^^^Q'(^^^",
"`^Q^(`^EWQ^'(`AAAAAA^^Q`(^Q^'^Q^`^Q^(`^EWQ^'AAAAAA^Q^^Q`(^Q^'^Q^",
"^^Q^`^^^`(^j_jJJJJJJkjpdldgdlydtddydldddlkjjJJJJJJpjk^Q^`^(^`Q^E",
"^'^^`^QW^`^qqqRRRRRRqqq,,,,,,,,,,,,,,,,,,qqqRRRRRRqqq^^^`^^^^Q^^",
"^^'WQ(`Q^`^qqqRRRRRRqqq,,,,,,,,,,,,,,,,,,qqqRRRRRRqqq(`^^^Q^(^^Q",
"QW`Q^`EQE^QqqqRRRRRRqqq,,,,,,,,,,,,,,,,,,qqqRRRRRRqqq`(^(^^Q^(^^",
"^Q^Q^`^EE`^qqqAAAAAAqqq++++++++++++++++++qqqAAAAAAqqq`^E`^^Q(^Q`",
"`Q^`^^(`(^`qqqAAAAAAqqq++++++++++++++++++qqqAAAAAAqqq^('(^`Q`^Q^",
"`^Q^^^^`iiirrrPPPPPPHHHwwwwwwwwwwwwwwwwwwHHHPPPPPPrrrixi^^^`^^^^",
"^^Q^`^Q^cccAAARRRRRRRRRRRRRRRRRRRRRRRRRRRRRRRRRRRRAAAccc^QW`^^WQ",
"Q^^`^^^(cccAAARRRRRRRRRRRRRRRRRRRRRRRRRRRRRRRRRRRRAAAccc`(Q^^`Q^",
"^Q^`^`^Q222VVVIIIUUUIIIIIIIIIIIIIIIIIIIIIIIIUUUIIIVVV222^`Q^E^Q`",
"^Q^^Q(Q(,,,qqqqqqhhhqqqqqqqqqqqqqqqqqqqqqqqqhhhqqqqqq,,,^`^^^^^`",
"^`(Q^^^^,,,qqqqqqhhhqqqqqqqqqqqqqqqqqqqqqqqqhhhqqqqqq,,,^^^^`^`Q",
"Q^`Q('^Q@@@333333666333333333333333333333333666333333@@@^^`^^`^`",
"^Q`^'^^Q+++,,,,,,,,,,,,,,,,,,,,,,,,,,,,,,,,,,,,,,,,,,+++QW^`^Q^`",
"WQ^^`Q^^+++,,,,,,,,,,,,,,,,,,,,,,,,,,,,,,,,,,,,,,,,,,+++`Q^^QW^^",
"`(^Q^^Q`+++&&&,,,444,,,==================,,,444,,,&&&+++WQ^'(`E^",
"(`Q^(^Q^+++   ,,,qqq,,,oooooooooooooooooo,,,qqq,,,   +++`(^^'^^E",
"^^Q^^^^^+++   ,,,qqq,,,oooooooooooooooooo,,,qqq,,,   +++^`^E`E^^",
"^'(^`(`^+++   ,,,qqq,,,OOOOOOOOOOOOOOOOOO,,,qqq,,,   +++^`^EE^WQ",
"Q^'^^`(^+++   ,,,qqq,,,++++++++++++++++++,,,qqq,,,   +++E^QW^`Q^",
"^Q`Q^`^E+++   ,,,qqq,,,++++++++++++++++++,,,qqq,,,   +++E`^Q(^Q`",
"`Q^`^^('+++:::990VeV999888888888888885885999eeV999:::+++(~`Q`^Q^",
"`^^^E^'^+++qqqAACCCAAAAAAAAAAAAVAAZZHCCHHrAAAAAACAq0q+++^^^`Q^^Q",
"^^`(^E`^++OqqqAAAAAAAAAAAAAAAAPrAHVZAACAPrAAAAAAJCqqqO++^^^`^^^Q",
"Q^^`W^^^+++7qqVAACAACAACCCwZZrVVVVVZCCCCVAVAwZZZVCqqq+++^`(^(^`^",
"^^E`E`^E+++,,,qqqJYhqqq,;,,,,,,,,,,,:,,,,qqqhhPq00,,,O++^^`^^^(`",
"^`(^WQ^^+++,,,qqqYhhqqq,,,,,,,,,,,,,::,,,qqqhhh9qq,,,OOO^^`Q^^^`",
"^^`^Q^('<<<$$$555759555%%&$$#$#@$$$$$$%%@53<667535#$$<<,Q^^^Q^`Q",
"QE`EQ^'!ccn.  ,,::::,,:OOO            OOO,,><<,,,,  .bbb^^(^Q^^`",
"^EEEE^`^bb2   ,,;,,,,,,%++            OO+,,,,,,,;:   bbb^Q^^^(^`",
"WQW`(^^^nnnO##==-,,,:;-O++            OO+:-:,,,&--XXXnbn^^Q'(^^^",
"`^Q^(`^ETTT2vc   ,,,++OO++            OO++OO,,:   ccbTTT(^Q^'^Q^",
"^^Q^`^^^TTTbvc   ,,,++OO++          ..OO+++O,,,   b2bTTT`^(^`Q^E",
"^'^^`^QWTTTFFG111%+%+++. .            ...+++%%%111FFFSSS`^^^^Q^^",
"^^'WQ(`QTTTTTGbbb+++++O.                .+++++ObvcTTTNNN^^Q^(^^Q",
"QW`Q^`EQTTTLTTbbb+O+OO+.                .O+++++bccTTTNNS(^^Q^(^^",
"^Q^Q^`^EDDFGGGMMm:::*-&#XX            #$$&&&:::MMMGGGYsa`^^Q(^Q`",
"`Q^`^^(`2vcNNNTTTNNNccc:;,            :<-cccNNNTTTNNN^('(^`Q`^Q^",
"`^Q^^^^`cbcNNNTTTNNNccn=,,            ,:-cccNNNTTTNNN^'^^^^`^^^^",
"^^Q^`^Q^!!!cccvbcNNNTLLLLTKKKKKGGGGGTGLFTTTTNNNvnv)/!E`^^QW`^^WQ",
"Q^^`^^^(^'(ccccccNNNTTTTLTTTTTTTTTTTTTTTTTTTNNNccc^`W^^^`(Q^^`Q^",
"^Q^`^`^Q^^'ccccccBNNTTTTTTTTTTTTTTTTTTTTTTTTNNNcccE`E`^E^`Q^E^Q`",
"^Q^^Q(Q(^^`ufffzfmmmBBBBBBBBBBBBFFFSBNFDFNBBmmmzfz(^WQ^^^`^^^^^`",
"^`(Q^^^^Q^^^Q^`Q^cccc2m2ccccccccMSNbccNNNcbccccQ^^`^Q^(`^^^^`^`Q",
"Q^`Q('^Q^^(^Q^^`Qccc2m22ccccccccSSMbccNNNcccccc`QE`EQ^`^^^`^^`^`",
"^Q`^'^^Q^Q^^^(^`^EEEE^`^QW^`^Q^`!Q`^'^^Q^Q^^^(^`^EEEE^`^QW^`^Q^`",
"WQ^^`Q^^^^Q'(^^^WQW`(^^^`Q^^QW^^WQ^^`Q^^^^Q'(^^^WQW`(^^^`Q^^QW^^",
"`(^Q^^Q`(^Q^'^Q^`^Q^('^EWQ^'(`E^`(^Q^^Q`(^Q^'^Q^`^Q^('^EWQ^'(`E^",
"(`Q^(^Q^`^(^`Q^E^^Q^'^^^`(^^'^^E(`Q^(^Q^`^(^`Q^E^^Q^'^^^`(^^'^^E",
"^^Q^^^^^`^^^^Q^^^`^^`^QW^`^E`E^^^^Q^^^^^`^^^^Q^^^`^^`^QW^`^E`E^^",
"^'(^`(`^^^Q^(^^Q^^`WQ(`Q^`^EE^WQ^'(^`(`^^^Q^(^^Q^^`WQ(`Q^`^EE^WQ",
"Q^'^^`(^(^^Q^(^^QW`Q^`EQE^QW^`Q^Q^'^^`(^(^^Q^(^^QW`Q^`EQE^QW^`Q^",
"^Q`Q^`^E`^^Q(^Q`^Q^Q^`^EE`^Q(^Q`^Q`Q^`^E`^^Q(^Q`^Q^Q^`^EE`^Q(^Q`"
};
