/* XPM */
static char *idle021750858416[] = {
/* columns rows colors chars-per-pixel */
"64 64 213 2 ",
"   c #030201",
".  c #090804",
"X  c #160806",
"o  c #160B0B",
"O  c #1C0D0B",
"+  c #0A1705",
"@  c #171A07",
"#  c #1D0D12",
"$  c #1B1611",
"%  c #29140D",
"&  c #2B160E",
"*  c #281E0F",
"=  c #241313",
"-  c #2B1613",
";  c #231915",
":  c #2B1A15",
">  c #231A1B",
",  c #2C1D1A",
"<  c #321A14",
"1  c #331D1B",
"2  c #3B191E",
"3  c #1E2408",
"4  c #142909",
"5  c #1A3E0A",
"6  c #183C17",
"7  c #27290C",
"8  c #292815",
"9  c #352814",
"0  c #34231D",
"q  c #2B3615",
"w  c #373619",
"e  c #271F25",
"r  c #352523",
"t  c #3B2624",
"y  c #362A26",
"u  c #3B2A26",
"i  c #332629",
"p  c #362B29",
"a  c #3C2D2A",
"s  c #3D312C",
"d  c #352F33",
"f  c #3A3233",
"g  c #451808",
"h  c #5A2809",
"j  c #462619",
"k  c #592A14",
"l  c #4E301B",
"z  c #672D09",
"x  c #642C0C",
"c  c #74390D",
"v  c #663518",
"b  c #713714",
"n  c #421D23",
"m  c #422C2A",
"M  c #41312C",
"N  c #523622",
"B  c #433432",
"V  c #493634",
"C  c #4B3A36",
"Z  c #4C3B39",
"A  c #533A34",
"S  c #633C20",
"D  c #1E4D14",
"F  c #20460A",
"G  c #2A480E",
"H  c #324E0D",
"J  c #2E4517",
"K  c #2F5514",
"L  c #345510",
"P  c #2A650F",
"I  c #2D690F",
"U  c #3A6716",
"Y  c #347A13",
"T  c #2C4D21",
"R  c #2F5727",
"E  c #315C28",
"W  c #256224",
"Q  c #32792F",
"!  c #4B4F1F",
"~  c #4A6A15",
"^  c #527C1E",
"/  c #4A4A35",
"(  c #4F413B",
")  c #53423E",
"_  c #544E39",
"`  c #56553D",
"'  c #7F4E29",
"]  c #624339",
"[  c #427021",
"{  c #473A42",
"}  c #653D46",
"|  c #554543",
" . c #5B4B46",
".. c #584748",
"X. c #5B4D4C",
"o. c #5C504F",
"O. c #594E57",
"+. c #604A45",
"@. c #644D44",
"#. c #6A5247",
"$. c #64524E",
"%. c #745744",
"&. c #674E52",
"*. c #655452",
"=. c #6D5355",
"-. c #6B5B56",
";. c #6B5B5A",
":. c #725C5D",
">. c #6F6455",
",. c #7B675D",
"<. c #726563",
"1. c #7A6B68",
"2. c #7F7270",
"3. c #813A0A",
"4. c #954C0D",
"5. c #B34B02",
"6. c #BA4F02",
"7. c #AB5309",
"8. c #B95705",
"9. c #BD5C02",
"0. c #B4530B",
"q. c #844E2A",
"w. c #BD7234",
"e. c #C45E02",
"r. c #C66206",
"t. c #D66C04",
"y. c #D86D04",
"u. c #D67105",
"i. c #CB6E16",
"p. c #D87E26",
"a. c #C37932",
"s. c #905254",
"d. c #9A6B49",
"f. c #B37C50",
"g. c #B75E68",
"h. c #816E65",
"j. c #84726B",
"k. c #887671",
"l. c #8B7B75",
"z. c #857878",
"x. c #BC6562",
"c. c #3C8C16",
"v. c #3A9311",
"b. c #3D9815",
"n. c #328530",
"m. c #498C12",
"M. c #5A881E",
"N. c #409A16",
"B. c #45961A",
"V. c #43A117",
"C. c #44A318",
"Z. c #55A713",
"A. c #58AC14",
"S. c #60A61F",
"D. c #4F9122",
"F. c #69B426",
"G. c #6FC023",
"H. c #70C725",
"J. c #D98736",
"K. c #94FF30",
"L. c #BF895B",
"P. c #96847C",
"I. c #B38D6D",
"U. c #CB894A",
"Y. c #D48A43",
"T. c #928583",
"R. c #9A8C87",
"E. c #968B8A",
"W. c #A78B84",
"Q. c #A6948D",
"!. c #A59A95",
"~. c #AC9B93",
"^. c #AA9E9B",
"/. c #ADA29D",
"(. c #B2A89F",
"). c #B4AAA4",
"_. c #B9ABA2",
"`. c #B8AFAB",
"'. c #BAB2AF",
"]. c #BCB5B2",
"[. c #D1908B",
"{. c #D5AF8C",
"}. c #D6B597",
"|. c #CAB2A5",
" X c #D3BDAE",
".X c #C4BAB7",
"XX c #DFC1A3",
"oX c #CBC1B9",
"OX c #CCC2BD",
"+X c #D2C7BE",
"@X c #CBC7C5",
"#X c #CDCAC6",
"$X c #D3CAC3",
"%X c #DACFC7",
"&X c #D3CDCA",
"*X c #D6D0CD",
"=X c #DBD2CA",
"-X c #D5D2D2",
";X c #DBD5D3",
":X c #DDD9D6",
">X c #E7DCD5",
",X c #E1DDDA",
"<X c #ECE4DB",
"1X c #EBE7E2",
"2X c #EBE9E6",
"3X c #EBEBE9",
"4X c #F1ECE6",
"5X c #F1EEEC",
"6X c #F2F1ED",
"7X c #F4F3F1",
"8X c #F9F7F3",
"9X c #FAF9F6",
"0X c #F9FBF9",
/* pixels */
"H.n.C.H.C.C.A.K.A.C.H.n.H.C.n.C.H.n.C.H.C.C.A.H.A.C.H.n.H.C.n.C.H.n.C.H.C.C.A.K.A.C.H.n.H.C.n.V.H.n.C.H.C.C.A.H.A.C.H.n.H.C.n.C.",
"H.C.C.C.v.C.K.C.C.C.C.H.C.C.C.C.H.C.n.C.C.C.C.H.C.C.C.H.n.C.C.n.H.C.C.C.v.C.K.C.C.C.C.H.C.C.V.V.H.C.n.C.C.C.C.H.C.C.C.H.n.C.C.n.",
"C.C.H.A.C.v.H.C.C.n.b.H.C.C.b.n.C.C.n.C.K.C.n.C.C.C.C.H.C.C.C.n.C.C.H.A.C.v.H.C.C.n.b.H.C.C.b.n.C.C.n.C.K.V.n.C.C.C.C.H.C.C.C.n.",
"n.C.C.H.b.C.C.C.H.A.n.C.C.H.K.C.n.C.C.K.C.C.C.A.C.H.A.C.A.C.H.C.n.C.C.H.b.C.C.C.H.A.n.C.C.H.K.V.n.C.C.K.C.C.C.A.C.H.A.C.A.C.H.C.",
"C.C.v.H.v.H.C.v.C.H.n.C.v.C.n.K.C.n.C.H.C.H.C.n.C.C.H.C.C.C.A.H.C.C.v.H.v.H.C.v.C.H.n.C.v.C.n.K.C.n.C.H.C.H.C.n.C.C.H.C.C.C.A.H.",
"C.H.A.C.b.n.C.C.C.H.C.C.C.C.C.H.C.n.C.C.n.A.n.A.C.C.H.n.C.C.C.H.C.H.A.C.b.n.C.C.C.H.C.C.C.C.C.H.C.n.C.C.n.A.n.A.C.C.H.n.C.C.C.H.",
"C.C.H.C.n.C.A.K.C.C.C.C.H.C.H.n.C.H.A.n.C.C.C.C.n.C.C.C.n.C.H.n.C.C.H.C.n.C.A.K.C.C.C.C.H.C.H.n.C.H.A.n.C.C.C.C.n.C.C.C.n.C.H.n.",
"n.v.H.v.n.C.K.C.C.C.H.C.C.H.C.H.n.C.H.n.A.K.C.n.C.C.A.C.n.C.C.H.n.v.H.v.n.C.K.C.C.C.H.C.C.H.C.H.n.C.H.n.A.K.C.n.C.C.A.C.n.C.C.H.",
"C.v.v.v.v.C.H.C.n.b.C.H.C.n.C.H.C.n.H.C.K.C.C.n.C.n.C.C.C.A.C.H.C.v.v.v.v.C.H.C.n.b.C.H.C.n.C.H.C.n.H.C.K.C.C.n.C.n.C.C.C.A.C.H.",
"b.n.b.H.A.C.C.C.H.n.C.C.n.b.C.C.b.n.C.C.H.n.C.C.C.C.n.K.A.C.C.C.b.n.b.H.A.C.C.C.H.n.C.C.n.b.C.C.b.n.C.C.H.n.C.C.C.C.n.K.A.C.C.C.",
"H.C.n.C.A.H.C.v.b.n.C.K.A.H.v.C.H.A.C.n.C.C.n.H.A.C.n.C.K.C.n.C.H.C.n.C.A.H.V.v.b.n.C.K.A.H.v.C.H.A.C.n.C.C.n.H.A.C.n.C.K.C.n.C.",
"C.C.n.C.H.C.C.C.H.A.C.C.K.C.C.v.A.H.n.C.A.C.n.C.H.C.A.C.H.n.C.v.C.C.n.C.H.C.V.V.H.A.C.C.K.C.C.v.A.H.n.C.A.C.n.C.H.C.A.C.H.n.C.v.",
"C.K.C.C.H.C.n.b.C.H.C.v.H.v.C.C.C.C.n.C.C.C.C.C.H.C.C.C.V.n.C.C.C.K.C.C.H.C.n.v.C.H.C.v.H.v.C.C.C.C.n.C.C.C.C.C.H.C.C.C.V.n.C.C.",
"C.C.K.b.n.A.H.n.C.H.C.v.v.C.b.n.C.H.A.C.H.A.H.C.B.N.n.C.A.V.C.n.C.C.K.b.n.A.F.Q B.H.C.v.v.C.b.n.C.H.A.C.H.A.H.C.C.C.n.C.A.C.C.n.",
"n.b.H.n.C.H.v.n.v.C.n.b.C.H.n.C.n.C.H.C.C.H.A.c.< ( B.n.V.A.C.C.n.b.H.n.C.F.i V s C.n.b.C.H.n.C.n.C.H.C.C.H.A.C.A.C.C.n.C.A.C.C.",
"C.n.C.n.C.H.C.v.v.H.C.n.A.C.n.K.C.n.H.n.C.H.N.7 m P.:.Q m.C.n.H.C.n.C.n.B.h.j.} 7 H.C.n.A.C.n.K.C.n.H.n.C.H.C.v.H.C.C.n.A.C.n.H.",
"H.n.C.H.C.C.A.H.A.C.H.n.H.C.n.C.K.n.C.H.C.C.A.7 A OX'.| q C.n.b.H.n.V.D.>.+X&Xo.7 C.H.n.H.C.n.C.K.n.C.H.C.C.A.K.A.V.H.n.H.C.n.C.",
"H.C.n.C.C.C.C.H.C.C.C.H.n.C.C.n.H.C.C.C.v.C.K.@ +.>X1XE.` U c.V.H.Y E / ~.3X2X-.3 C.C.H.n.C.C.n.H.V.C.C.v.C.K.C.C.C.C.H.C.C.C.C.",
"C.C.n.C.H.C.n.C.C.C.C.H.C.C.C.n.C.C.H.A.C.v.H.@ ] >X9X.Xl.a q R U 8 B P.=X8X3X-.3 C.C.H.C.C.C.n.C.C.H.A.C.v.H.C.C.n.b.H.C.C.b.n.",
"n.C.C.H.C.C.C.A.C.K.A.C.A.C.H.C.n.C.C.H.N.C.C.@ ]  X>X}.I.' l y p i ( l.oX6X3X-.3 K.A.C.A.C.H.C.n.C.C.H.b.C.C.C.H.A.n.C.C.H.n.C.",
"C.n.C.H.C.H.C.n.C.C.K.C.C.C.A.H.C.C.v.H.v.H.C.@ v U.Y.p.i.r.4.N p p s B 2.:X3X;.3 V.K.V.C.C.A.H.C.C.v.H.v.H.C.v.C.H.n.C.v.C.n.H.",
"C.n.C.C.n.A.n.A.C.C.H.n.C.C.C.H.C.H.A.V.b.n.G & 3.r.u.t.u.y.7.S f p s p X.]..Xo.; K H.n.C.C.C.H.C.H.A.C.b.n.C.C.C.H.C.C.C.C.C.H.",
"C.H.A.n.C.C.C.C.n.C.C.C.n.C.H.n.C.C.H.~ 9 7 9 c 9.t.y.y.u.u.0.v s p s s V ,.<.C 0 0 q q E C.H.n.C.C.H.C.n.C.A.H.C.C.C.C.H.C.H.n.",
"n.C.H.n.A.K.C.n.C.C.A.C.n.C.C.H.n.v.H.H 9 < k 7.t.t.y.u.u.y.i.d.$.s a s B B B M u t < & T C.C.H.n.v.H.v.n.C.H.C.C.C.H.C.C.H.C.H.",
"C.n.H.C.K.C.C.n.C.n.C.C.C.A.C.H.C.v.v.v.J i v 9.u.u.t.t.y.y.J.XX(.o.s s s s s s m t , K b.A.C.H.C.v.v.v.v.C.H.C.n.b.C.H.C.n.C.H.",
"b.n.C.C.H.n.C.C.C.C.n.K.A.C.C.C.b.n.b.G.G > v 9.t.9.r.e.e.p.{.4X,XT.( s s s s s u y , ^ Z.C.C.C.b.n.b.H.A.C.C.C.H.n.C.C.n.b.C.C.",
"H.A.C.n.C.C.n.H.A.C.n.C.K.C.n.C.H.C.n.L * > c e.t.c v v q.{.>X5X7X*XT.( u y 0 u y 0 0 & M.C.n.C.H.C.n.C.A.K.C.v.b.n.C.K.A.H.v.C.",
"A.H.n.C.A.C.n.C.H.C.A.C.H.n.C.v.C.C.n.U 9 , b w.w.$.O.O.z.;X3X#X#X6X&Xz. ._ *.-.X.y : 8 ^ n.C.v.C.C.n.C.K.C.C.C.H.A.C.C.K.C.C.v.",
"C.C.n.C.C.C.C.C.H.C.C.C.C.n.C.C.C.H.C.C.^ 8 s.|.=X&X@X@X-X5X&X1.2.-X5X:X@X@X@X#X'. .9 U C.n.C.C.C.H.C.C.H.C.n.b.C.H.C.v.H.v.C.C.",
"C.K.A.C.H.A.H.C.C.C.n.C.A.C.C.n.C.C.H.b.Q ~ %.'.;X6X6X&X@X,X|.=.<..X7X0X9X0X0X:X(.` E C.A.C.C.n.C.C.H.b.n.A.H.n.C.H.C.v.v.V.b.n.",
"n.C.K.C.C.H.A.C.A.C.C.n.C.A.C.C.n.b.H.n.V.H.[ X.<.*X&X<.&.[.[.~.!.@X3X0X0X0X3XT._ [ C.n.C.A.C.C.n.b.H.n.C.H.v.n.v.C.n.b.C.H.n.C.",
"C.n.H.n.C.H.C.v.H.C.C.n.A.C.n.H.C.n.C.n.V.H.C.8 , Q.R.t 2 x.[.W.R.R./.].#X-X].o.q C.C.n.A.C.n.H.C.n.C.n.C.H.C.v.v.H.C.n.A.C.n.H.",
"H.n.C.H.C.C.A.K.A.C.H.n.H.C.n.C.H.n.C.H.C.C.A.s # V V 2 n g.g.} V a a Z o.:...V w C.H.n.H.C.n.C.H.n.C.H.C.C.A.H.A.C.H.n.H.C.n.C.",
"H.C.C.C.v.C.K.C.C.C.C.H.C.C.C.C.H.C.n.C.C.C.V.w 2 :.j.1.:.s.s.} { { Z A B r m b c ~ C.H.C.C.C.C.H.C.n.C.C.C.C.H.C.C.C.H.n.C.C.n.",
"C.C.H.A.C.v.H.C.C.n.b.H.C.C.b.n.C.C.n.C.K.C.n.7 V .X,X:X'.&.=.E.~.!.^.^.z.e k 5.5.h K H.C.C.b.n.C.C.n.C.K.C.n.C.C.C.C.H.C.C.C.n.",
"n.C.C.H.b.C.C.C.H.A.n.C.C.H.K.C.n.C.C.K.C.C.G % V &X8X8X-XX.| z.).$X,X4X].d x 6.9.x q N.C.H.K.C.n.C.C.K.C.C.C.A.C.H.A.C.A.C.H.C.",
"C.C.v.H.v.H.C.v.C.H.n.C.v.C.n.K.C.n.C.H.V.! 9 = 1 OX9X9X-X..1 t ..Q.>X8X$Xf x 6.e.x X G v.C.n.K.C.n.C.H.C.H.C.n.C.C.H.C.C.C.A.H.",
"C.H.A.C.b.n.C.C.C.H.C.C.C.C.C.H.C.n.C.C.n.! < & & 1./.&XoX| C *.&.;.'.5X&X{ h 6.8.x X F C.C.C.H.C.n.C.C.n.A.n.A.C.C.H.n.C.C.C.H.",
"C.C.H.C.n.C.A.K.C.C.C.C.H.C.H.n.C.H.A.n.5 0 2 = % < m :.1.k.(.&X).) z.,X&XZ h 5.8.x o F H.C.H.n.C.H.A.n.C.C.C.C.n.C.C.C.n.C.H.n.",
"n.v.H.v.n.C.K.C.C.C.H.C.C.H.C.H.n.C.H.n.F i u A Z V < = s _.2X0X.X) '  XoXC k 7.0.k o F C.H.C.H.n.C.H.n.A.K.C.n.C.C.A.C.n.C.C.H.",
"C.v.v.v.v.C.H.C.n.b.C.H.C.n.C.H.C.n.H.C.U 0 @.!.'.`.k.r r ).<X6X].B S f.U.j j d.L.) # L C.n.C.H.C.n.H.C.K.C.C.n.C.n.C.C.C.A.C.H.",
"b.n.b.H.A.C.C.C.H.n.C.C.n.b.C.C.N.n.C.C.G X ) ~.+X6X*X*.M P.|.OXR.r z e.e.g 0 f.I...o F n.b.C.C.b.n.C.C.H.n.C.C.C.C.n.K.A.C.C.C.",
"H.C.n.C.A.H.C.v.b.n.V.K.A.H.v.C.H.A.C.n.P 5 $ ) P.<X6X`.h.@.@.-.| - z e.e.g = ) #.8 + S.A.H.v.C.H.A.C.n.C.C.n.H.A.C.n.C.K.C.n.C.",
"C.C.n.C.H.C.C.C.H.A.V.C.K.C.C.v.A.H.n.C.A.V.+ .  .+X>X+XW.a X & = O b a.a.j # - # @ I C.K.C.C.v.A.H.n.C.A.C.n.C.H.C.A.C.H.n.C.v.",
"C.K.C.C.H.C.n.b.C.H.C.v.H.b.V.V.C.C.n.C.V.C.I . ; 1.j.,. .$     . o %.}.}.C ; X + m.C.v.H.v.C.C.C.C.n.C.C.C.C.C.H.C.C.C.C.n.C.C.",
"C.C.K.b.n.A.H.n.C.H.C.v.v.C.b.n.C.H.A.C.H.A.H.I   ; 9 - o 4 P D 4 X #._._.M . . I H.C.v.v.C.b.n.C.H.A.C.H.A.H.C.C.C.n.C.A.C.C.n.",
"n.b.H.n.C.H.v.n.v.C.n.b.V.H.n.V.n.C.H.C.C.H.A.V.Y I     + m.C.C.6 & A ,.>.$   W v.C.n.b.C.H.n.C.n.C.H.C.C.H.A.C.A.C.C.n.C.A.C.C.",
"C.n.C.n.C.H.C.v.v.H.V.n.A.V.n.K.C.n.H.n.C.H.C.v.H.C.Y W m.V.n.H.F = < , $   Y v.v.H.C.n.A.C.n.K.C.n.H.n.C.H.C.v.H.C.C.n.A.C.n.H.",
"H.n.C.H.C.C.A.H.A.C.H.n.H.C.n.C.K.n.C.H.C.C.A.K.A.C.H.n.H.C.n.C.F.4       v.A.H.A.C.H.n.H.C.n.C.K.n.C.H.C.C.A.K.A.C.H.n.H.C.n.C.",
"H.C.n.C.C.C.C.H.C.C.C.H.n.C.C.n.H.C.C.C.v.C.K.C.C.C.C.H.C.C.C.C.H.N.Q N.N.C.C.H.C.C.C.H.n.C.C.n.H.C.C.C.v.C.K.C.C.C.C.H.C.C.C.C.",
"C.C.n.C.H.C.n.C.C.C.C.H.C.C.C.n.C.C.H.A.C.v.H.C.C.n.b.H.C.C.b.n.V.C.n.C.H.C.n.C.C.C.C.H.C.C.C.n.C.C.H.A.C.v.H.C.C.n.b.H.C.C.b.n.",
"n.C.C.H.C.C.C.A.C.K.A.C.A.C.H.C.n.C.C.H.b.C.C.C.H.A.n.C.C.H.n.C.n.C.C.H.C.C.C.A.C.K.A.C.A.C.H.C.n.C.C.H.b.C.C.C.H.A.n.C.C.H.n.C.",
"C.n.C.H.C.H.C.n.C.C.K.C.C.C.A.H.C.C.v.H.v.H.C.v.C.H.n.C.v.C.n.H.C.n.C.H.C.H.C.n.C.C.K.C.C.C.A.H.C.C.v.H.v.H.C.v.C.H.n.C.v.C.n.H.",
"C.n.C.C.n.A.n.A.C.C.H.n.C.C.C.H.C.H.A.C.b.n.C.C.C.H.C.C.C.C.C.H.C.n.C.C.n.A.n.A.C.C.H.n.C.C.C.H.C.H.A.C.b.n.C.C.C.H.C.C.C.C.C.H.",
"C.H.A.n.C.C.C.C.n.C.C.C.n.C.H.n.C.C.H.C.n.C.A.H.C.C.C.C.H.C.H.n.C.H.A.n.C.C.C.C.n.C.C.C.n.C.H.n.C.C.H.C.n.C.A.H.C.C.C.C.H.C.H.n.",
"n.C.H.n.A.K.C.n.C.C.A.C.n.C.C.H.n.v.H.v.n.C.H.C.C.C.H.C.C.H.C.H.n.C.H.n.A.K.C.n.C.C.A.C.n.C.C.H.n.v.H.v.n.C.H.C.C.C.H.C.C.H.C.H.",
"C.n.H.C.K.C.C.n.C.n.C.C.C.A.C.H.C.v.v.v.v.C.H.C.n.b.C.H.C.n.C.H.C.n.H.C.K.C.C.n.C.n.C.C.C.A.C.H.C.v.v.v.v.C.H.C.n.b.C.H.C.n.C.H.",
"b.n.C.C.H.n.C.C.C.C.n.K.A.C.C.C.b.n.b.H.A.C.C.C.H.n.C.C.n.b.C.C.b.n.C.C.H.n.C.C.C.C.n.K.A.C.C.C.b.n.b.H.A.C.C.C.H.n.C.C.n.b.C.C.",
"H.A.C.n.C.C.n.H.A.C.n.C.K.C.n.C.H.C.n.C.A.K.C.v.b.n.C.K.A.H.v.C.H.A.C.n.C.C.n.H.A.C.n.C.K.C.n.C.H.C.n.C.A.K.C.v.b.n.C.K.A.H.v.C.",
"A.H.n.C.A.C.n.C.H.C.A.C.H.n.C.v.C.C.n.C.K.C.C.C.H.A.C.C.K.C.C.v.A.H.n.C.A.C.n.C.H.C.A.C.H.n.C.v.C.C.n.C.K.C.C.C.H.A.C.C.K.C.C.v.",
"C.C.n.C.C.C.C.C.H.C.C.C.C.n.C.C.C.H.C.C.H.C.n.b.C.H.C.v.H.v.C.C.C.C.n.C.C.C.C.C.H.C.C.C.C.n.C.C.C.H.C.C.H.C.n.b.C.H.C.v.H.v.C.C.",
"C.K.A.C.H.A.H.C.C.C.n.C.A.C.C.n.C.C.H.b.n.A.H.n.C.H.C.v.v.C.b.n.C.K.A.C.H.A.H.C.C.C.n.C.A.C.C.n.C.C.H.b.n.A.H.n.C.H.C.v.v.C.b.n.",
"n.C.K.C.C.H.A.C.A.C.C.n.C.A.C.C.n.b.H.n.C.H.v.n.v.C.n.b.C.H.n.C.n.C.K.C.C.H.A.C.A.C.C.n.C.A.C.C.n.b.H.n.C.H.v.n.v.C.n.b.C.H.n.C.",
"C.n.H.n.C.H.C.v.H.C.C.n.A.C.n.H.C.n.C.n.C.H.C.v.v.H.C.n.A.C.n.H.C.n.H.n.C.H.C.v.H.C.C.n.A.C.n.H.C.n.C.n.C.H.C.v.v.H.C.n.A.C.n.H."
};
