/* XPM */
static char *idle031750858416[] = {
/* columns rows colors chars-per-pixel */
"64 64 216 2 ",
"   c #030101",
".  c #0A0302",
"X  c #050B02",
"o  c #0E0807",
"O  c #0D060A",
"+  c #140A09",
"@  c #1E0E0C",
"#  c #0B1706",
"$  c #151503",
"%  c #151C07",
"&  c #1A100C",
"*  c #1A0D14",
"=  c #1D1314",
"-  c #1F141C",
";  c #240D0D",
":  c #37090C",
">  c #28150F",
",  c #32120E",
"<  c #351E0F",
"1  c #261511",
"2  c #2A1512",
"3  c #231812",
"4  c #2C1A15",
"5  c #24151B",
"6  c #281718",
"7  c #261B1D",
"8  c #2C1B1A",
"9  c #321E1B",
"0  c #132A0A",
"q  c #1E3E0A",
"w  c #2A2617",
"e  c #372618",
"r  c #33221D",
"t  c #2A3416",
"y  c #373719",
"u  c #2A2021",
"i  c #352723",
"p  c #3A2424",
"a  c #352827",
"s  c #3C2A25",
"d  c #3B2D2A",
"f  c #3D312D",
"g  c #3C3131",
"h  c #3B3437",
"j  c #49140D",
"k  c #5A2A0B",
"l  c #482819",
"z  c #5C2910",
"x  c #4C3310",
"c  c #5E3114",
"v  c #6A270B",
"b  c #632F0B",
"n  c #723509",
"m  c #6B3514",
"M  c #442B27",
"N  c #42332C",
"B  c #4A352A",
"V  c #57372A",
"C  c #4F2B33",
"Z  c #473735",
"A  c #4C3B34",
"S  c #4C3D3A",
"D  c #593A34",
"F  c #523C3A",
"G  c #6F3A22",
"H  c #1E470A",
"J  c #24430B",
"K  c #384617",
"L  c #245A16",
"P  c #385813",
"I  c #2A660F",
"U  c #2D6A0F",
"Y  c #2D700F",
"T  c #37740E",
"R  c #366613",
"E  c #2F7110",
"W  c #387915",
"Q  c #2C5029",
"!  c #375C2B",
"~  c #256224",
"^  c #386C30",
"/  c #435516",
"(  c #6E4118",
")  c #406C1C",
"_  c #467919",
"`  c #484C25",
"'  c #50552C",
"]  c #4B4A34",
"[  c #4C453A",
"{  c #53423E",
"}  c #58443C",
"|  c #5D543E",
" . c #714121",
".. c #6C4A37",
"X. c #577924",
"o. c #524441",
"O. c #5A4542",
"+. c #5C4943",
"@. c #50484A",
"#. c #5C4D4B",
"$. c #594B4F",
"%. c #5B5249",
"&. c #614E46",
"*. c #62514E",
"=. c #6A5949",
"-. c #7A5549",
";. c #635452",
":. c #665956",
">. c #695A54",
",. c #6C5C5A",
"<. c #7A5A58",
"1. c #6E664F",
"2. c #73635D",
"3. c #766864",
"4. c #7C6D6A",
"5. c #7F706E",
"6. c #834C1A",
"7. c #A1520B",
"8. c #B95E08",
"9. c #AA5A19",
"0. c #BF600C",
"q. c #945224",
"w. c #8A5937",
"e. c #C95B02",
"r. c #C46206",
"t. c #CC6604",
"y. c #CE6905",
"u. c #C1630B",
"i. c #CB6B0E",
"p. c #DB6600",
"a. c #D56C03",
"s. c #D96D03",
"d. c #DA7104",
"f. c #D8730B",
"g. c #CA6E12",
"h. c #8B524F",
"j. c #A35D5F",
"k. c #B57641",
"l. c #AF5760",
"z. c #8E6968",
"x. c #85796D",
"c. c #8E7C75",
"v. c #867B7A",
"b. c #947A74",
"n. c #B86A72",
"m. c #D3717A",
"M. c #368313",
"N. c #3A9311",
"B. c #3D9815",
"V. c #328530",
"C. c #488616",
"Z. c #419816",
"A. c #43A117",
"S. c #44A318",
"D. c #58AC14",
"F. c #4F8928",
"G. c #5A8822",
"H. c #609128",
"J. c #69BB22",
"K. c #70C725",
"L. c #D68838",
"P. c #8EEB2D",
"I. c #94FF30",
"U. c #8B817B",
"Y. c #97847D",
"T. c #AF967C",
"R. c #C8894B",
"E. c #D88F47",
"W. c #C69661",
"Q. c #D49D63",
"!. c #DCA46E",
"~. c #988985",
"^. c #9B8B85",
"/. c #9B918D",
"(. c #A69A95",
"). c #A49B9A",
"_. c #AAA19D",
"`. c #B3A39C",
"'. c #ABA4A3",
"]. c #B8ADA8",
"[. c #BDB1A9",
"{. c #BBB4B3",
"}. c #C7928E",
"|. c #EA9E9E",
" X c #C7AE94",
".X c #C6B6A9",
"XX c #D8BEA5",
"oX c #C1B7B0",
"OX c #C4BAB5",
"+X c #C9BCB5",
"@X c #D1B6B8",
"#X c #D9C3A8",
"$X c #C6C1BD",
"%X c #CBC2BB",
"&X c #D4C9BB",
"*X c #E7CBAB",
"=X c #CBC5C3",
"-X c #CDC9C6",
";X c #CCC8C7",
":X c #D7CAC4",
">X c #D1CBCA",
",X c #D8D2CD",
"<X c #DAD6D3",
"1X c #DEDBD4",
"2X c #DFDCD9",
"3X c #E2D7C7",
"4X c #E3DBD4",
"5X c #E4DAD6",
"6X c #E9E3DD",
"7X c #EBE6E3",
"8X c #F1EEE8",
"9X c #F6F3EC",
"0X c #F6F6F2",
"qX c #FAF9F5",
"wX c #F7FAF8",
"eX c #FCFDFB",
/* pixels */
"K.V.S.K.S.S.D.I.D.S.K.V.K.S.V.S.K.V.S.K.S.S.D.K.D.S.K.V.K.S.V.S.K.V.S.K.S.S.D.I.D.S.K.V.K.S.V.S.K.V.S.K.S.S.D.K.D.S.K.V.K.S.V.S.",
"K.S.S.S.N.S.I.S.S.S.S.K.S.S.S.S.K.S.V.S.S.S.S.K.S.S.S.K.V.S.S.V.K.S.S.S.N.S.I.S.S.S.S.K.S.S.S.S.K.S.V.S.S.S.S.K.S.S.S.K.V.S.S.V.",
"S.S.K.D.S.N.K.S.S.V.B.K.S.S.B.V.S.S.V.S.I.S.V.S.S.S.S.K.S.S.S.V.S.S.K.D.S.N.K.S.S.V.B.K.S.S.B.V.S.S.V.S.I.S.V.S.S.S.S.K.S.S.S.V.",
"V.S.S.K.B.S.S.S.K.D.V.S.S.K.I.S.V.S.S.I.S.S.S.D.S.K.D.S.D.S.K.S.V.S.S.K.B.S.S.S.K.D.V.S.S.K.I.S.V.S.S.I.S.S.S.D.S.K.D.S.D.S.K.S.",
"S.S.N.K.N.K.S.N.S.K.V.S.N.S.V.I.S.V.S.K.S.K.S.V.S.S.K.S.S.S.D.K.S.S.N.K.N.K.S.N.S.K.V.S.N.S.V.I.S.V.S.K.S.K.S.V.S.S.K.S.S.S.D.K.",
"S.K.D.S.B.V.S.S.S.K.S.S.S.S.S.K.S.V.S.S.V.D.V.D.S.S.K.V.S.S.S.K.S.K.D.S.B.V.S.S.S.K.S.S.S.S.S.K.S.V.S.S.V.D.V.D.S.S.K.V.S.S.S.K.",
"S.S.K.S.V.S.D.I.S.S.S.S.K.S.K.V.S.K.D.V.S.S.S.S.V.S.S.S.V.S.K.V.S.S.K.S.V.S.D.I.S.S.S.S.K.S.K.V.S.K.D.V.S.S.S.S.V.S.S.S.V.S.K.V.",
"V.N.K.N.V.S.I.S.S.S.K.S.S.K.S.K.V.S.K.V.D.I.S.V.S.S.D.S.V.S.S.K.V.N.K.N.V.S.I.S.S.S.K.S.S.K.S.K.V.S.K.V.D.I.S.V.S.S.D.S.V.S.S.K.",
"S.N.N.N.N.S.K.S.V.B.S.K.S.V.S.K.S.V.K.S.I.S.S.V.S.V.S.S.S.D.S.K.S.N.N.N.N.S.K.S.V.B.S.K.S.V.S.K.S.V.K.S.I.S.S.V.S.V.S.S.S.D.S.K.",
"B.V.B.K.D.S.S.S.K.V.S.S.V.B.S.S.Z.V.S.S.K.V.S.S.S.S.V.I.D.S.S.S.B.V.B.K.D.S.S.S.K.V.S.S.V.Z.S.S.B.V.S.S.K.V.S.S.S.S.V.I.D.S.S.S.",
"K.S.V.S.D.K.S.N.B.V.S.I.D.K.N.S.K.D.S.V.S.S.V.K.D.S.V.S.I.S.V.S.K.S.V.S.D.K.S.N.B.V.S.I.D.K.N.S.K.D.S.V.S.S.V.K.D.S.V.S.I.S.V.S.",
"S.S.V.S.K.S.S.S.K.D.S.S.I.S.S.N.D.K.V.S.D.S.V.S.K.S.D.S.K.V.S.N.S.S.V.S.K.S.S.S.K.D.S.S.I.S.S.N.D.K.V.S.D.S.V.S.K.S.D.S.K.V.S.N.",
"S.I.S.S.K.S.V.B.S.K.S.N.K.N.S.S.S.S.V.S.S.S.S.S.K.S.S.S.S.V.S.S.S.I.S.S.K.S.V.B.S.K.S.N.K.N.S.S.S.S.V.S.S.S.S.S.K.S.S.S.S.V.S.S.",
"S.S.I.B.V.D.K.V.S.K.S.N.N.S.B.V.S.K.D.S.K.D.K.S.S.S.V.S.D.S.S.V.S.S.I.B.V.D.K.V.S.K.S.N.N.S.Z.V.S.K.D.S.K.D.K.S.S.S.V.S.D.S.S.V.",
"V.B.K.V.S.K.N.V.N.S.V.B.S.K.V.S.V.S.K.S.S.K.D.S.C.M.S.V.S.D.S.S.V.B.K.V.S.K.E ^ M.S.V.Z.S.K.V.S.V.S.K.S.S.K.D.S.D.S.S.V.S.D.S.S.",
"S.V.S.V.S.K.S.N.N.K.S.V.D.S.V.I.S.V.K.V.S.K.S.R s S F.V.D.S.V.K.S.V.S.V.S.H.i s ` K.Z.V.D.S.V.I.S.V.K.V.S.K.S.N.K.S.S.V.D.S.V.K.",
"K.V.S.K.S.S.D.K.D.S.K.V.K.S.V.S.I.V.S.K.S.S.D.w B ~.x.^ K.S.V.S.K.V.S.K._ 2.c.[ ' S.K.V.K.S.V.S.I.V.S.K.S.S.D.I.D.S.K.V.K.S.V.S.",
"K.S.V.S.S.S.S.K.S.S.S.K.V.S.S.V.K.S.S.S.N.S.I.% B 4X%X1.W S.S.S.K.S.V.R | %X&X3.B S.S.K.V.S.S.V.K.S.S.S.N.S.I.S.S.S.S.K.S.S.S.S.",
"S.S.V.S.K.S.V.S.S.S.S.K.S.S.S.V.S.S.K.D.S.N.K.% F 9X7X(.] W B.V.S.S.! [ ~.8X1X5.t S.S.K.S.S.S.V.S.S.K.D.S.N.K.S.S.V.B.K.S.S.B.V.",
"V.S.S.K.S.S.S.D.S.I.D.S.D.S.K.S.V.S.S.K.B.S.S.$ S 9X9X%Xc.%.Q ' ' K ] ^.:XqX1X3.t I.D.S.D.S.K.S.V.S.S.K.B.S.S.S.K.D.V.S.S.K.V.S.",
"S.V.S.K.S.K.S.V.S.S.I.S.S.S.D.K.S.A.N.K.N.K.S.$ S qX8XXXk.w. .q.q.l S c.].eX2X4.t S.I.S.S.S.D.K.S.S.N.K.N.K.S.N.S.K.V.S.N.S.V.K.",
"S.V.S.S.V.D.V.D.S.S.K.V.S.S.S.K.S.K.D.A.B.V.S.$ { qX6X!.g.r.r.y.0.V a Z 3.eX<X3.y S.K.V.S.S.S.K.S.K.D.S.B.V.S.S.S.K.S.S.S.S.S.K.",
"S.K.D.V.S.S.S.S.V.S.S.S.V.S.K.V.S.S.K.A.V.A.K c ..4X*XL.f.a.d.t.7.B g d o.$X{.%.r J S.S.V.S.K.V.S.S.K.S.V.S.D.K.S.S.S.S.K.S.K.V.",
"V.S.K.V.D.I.S.V.S.S.D.S.V.S.S.K.V.N.K./ e , c 9.8.E.L.f.a.s.u.6.B d g d f :.;.Z i r r l ! S.S.K.V.N.K.N.V.S.K.S.S.S.K.S.S.K.S.K.",
"S.V.K.S.I.S.S.V.S.V.S.S.S.D.S.K.S.N.N.P < 4 c 0.d.a.a.a.d.y.8.V g h g f f f d f s s s p ) D.S.K.S.N.N.N.N.S.K.S.V.B.S.K.S.V.S.K.",
"B.V.S.S.K.V.S.S.S.S.V.I.D.S.S.S.B.V.Z.K.K 9 c t.s.a.a.a.d.d.8.( g g g f f f s f M s w _ D.S.S.S.B.V.B.K.D.S.S.S.K.V.S.S.V.B.S.S.",
"K.D.S.V.S.S.V.K.D.S.V.S.I.S.V.S.K.S.V.Z.y u c t.d.r.r.r.a.d.i.w.%.h g d d d s s s s 4 J P.S.V.S.K.S.V.S.D.I.S.N.B.V.S.I.D.K.N.S.",
"D.K.V.S.D.S.V.S.K.S.D.S.K.V.S.N.S.S.V./ < 8 v t.r.n k k n e.L. X'.$.a a i i i y s r r r X.V.S.N.S.S.V.S.I.S.S.S.K.D.S.S.I.S.S.N.",
"S.S.V.S.S.S.S.S.K.S.S.S.S.V.S.S.S.K.S._ x 3 G E.R.=.$.#.-.k.Q..X'.5.:.;.%.*.;.:.;.N 8 y _ V.S.S.S.K.S.S.K.S.V.B.S.K.S.N.K.N.S.S.",
"S.I.D.S.K.D.K.S.S.S.V.S.D.S.S.V.S.S.K.B.L y -.#X3X-X-X=X-X:X.Xb.x.{.>X;X-X-X-X;XoX%.w W D.S.S.V.S.S.K.B.V.D.K.V.S.K.S.N.N.S.B.V.",
"V.S.I.S.S.K.D.S.D.S.S.V.S.D.S.S.V.Z.K.V.S.G.1.oX1XqX0X<X=X4X@Xz.<.>XwXeXeXwXeX6X].o.H V.S.D.S.S.V.B.K.V.S.K.N.V.N.S.V.B.S.K.V.S.",
"S.V.K.V.S.K.S.N.K.S.S.V.D.S.V.K.S.V.S.V.S.K.F.=.U.7X5X~.<.}.|.m.n.@X8XwXeXwX7X~.[ t T V.D.S.V.K.S.V.S.V.S.K.S.N.N.K.S.V.D.S.V.K.",
"K.V.S.K.S.S.D.I.D.S.K.V.K.S.V.S.K.V.S.K.S.S.D.w Z ).).O.p h.n.j.l.c.~.'.{.=X).S y W K.V.K.A.V.S.K.V.S.K.S.S.D.K.D.S.K.V.K.S.V.S.",
"K.S.S.S.N.S.I.S.S.S.S.K.S.S.S.S.K.S.V.S.S.S.A.w 2 C O.9 ; M C C p i 9 p @.:.S - y S.A.K.S.S.S.S.K.S.V.S.S.S.S.K.S.S.S.K.V.S.S.V.",
"S.S.K.D.S.N.K.S.S.V.B.K.S.S.B.V.S.S.V.S.I.S.t @ 9 3.2.,.$.p 5 5 5 g F F Z - 5 m m / B.K.S.S.B.V.S.S.V.S.I.S.V.S.S.S.S.K.S.S.S.V.",
"V.S.S.K.B.S.S.S.K.D.V.S.S.K.I.S.V.S.S.I.S.K 2 @ A 5X5X5X{.$.* - M ~.@XOX(.* p e.e.b H A.S.K.I.S.V.S.S.I.S.S.S.D.S.K.D.S.D.S.K.S.",
"S.S.N.K.N.K.S.N.S.K.V.S.N.S.V.I.S.V.S.K.S.` 3 @ S 5XeXqX:X;.7 o.2.v._.8X<X* l p.t.v + H N.S.V.I.S.V.S.K.S.K.S.V.S.S.K.S.S.S.D.K.",
"S.K.D.S.B.V.S.S.S.K.S.S.S.S.S.K.S.V.S.S.t 6 2 1 p (.0X0X>X;.Z /.].S D ,X<X; l p.t.v . J S.S.A.K.S.V.S.S.V.D.V.D.S.S.K.V.S.S.S.K.",
"S.S.K.S.V.S.D.I.S.S.S.S.K.S.K.V.S.K.D.V.q 1 p B F >.).=X{.;.,.%X,XO.C &X&X, M g.i.z o H K.S.K.V.S.K.D.V.S.S.S.S.V.S.S.S.V.S.K.V.",
"V.N.K.N.V.S.I.S.S.S.K.S.S.K.S.K.V.S.K.V.q ; &.(.^.s N #.x.v.].5XOXF l E.E., B W.W.D O H S.K.S.K.V.S.K.V.D.I.S.V.S.S.D.S.V.S.S.K.",
"S.N.N.N.N.S.K.S.V.B.S.K.S.V.S.K.S.V.K.S.R o } `.`.>.%.S #.U.[.%X~.p j y.t.: s T.T.+.. P S.V.S.K.S.V.K.S.I.S.S.V.S.V.S.S.S.D.S.K.",
"B.V.B.K.D.S.S.S.K.V.S.S.V.B.S.S.B.V.S.S._ X 1 &.Y.%X%X].c.+.o.=.} 8 z y.t.: 7 &.=.8 # I V.B.S.S.B.V.S.S.K.V.S.S.S.S.V.I.D.S.S.S.",
"K.S.V.S.D.K.S.N.B.V.S.I.D.K.N.S.K.D.S.V.S.L X + +.&X5X&X^.s . @ > 1 m E.L.j * 7 = # Y I.D.K.N.S.K.D.S.V.S.S.V.K.D.S.V.S.I.S.V.S.",
"S.S.V.S.K.S.S.S.K.D.S.S.I.S.S.N.D.K.V.S.D.S.L X = >.z.2.} 3     . > ..XX#XV * O # T A.A.I.S.S.N.D.K.V.S.D.S.V.S.K.S.D.S.K.V.S.N.",
"S.I.S.S.K.S.V.B.S.K.S.N.K.N.S.S.S.S.V.S.S.S.S.E X & 4 4 & # I I 0 4 +.+X[.V O X E K.S.N.K.N.S.S.S.S.V.S.S.S.S.S.K.S.S.S.S.V.S.S.",
"S.S.I.B.V.D.K.V.S.K.S.N.N.S.B.V.S.K.D.S.K.D.K.S.E U .   0 M.S.V.J r B 4.2.& X ~ S.K.S.N.N.S.B.V.S.K.D.S.K.D.K.S.S.S.V.S.D.S.S.V.",
"V.B.K.V.S.K.N.V.N.S.V.B.S.K.V.S.V.S.K.S.S.K.D.S.D.A.W ~ M.D.S.S.H 6 6 i =   Y V.N.S.V.B.S.K.V.S.V.S.K.S.S.K.D.S.D.S.S.V.S.D.S.S.",
"S.V.S.V.S.K.S.N.N.K.S.V.D.S.V.I.S.V.K.V.S.K.S.N.K.A.A.V.D.S.V.K.B.0       D.S.N.N.K.S.V.D.S.V.I.S.V.K.V.S.K.S.N.K.S.S.V.D.S.V.K.",
"K.V.S.K.S.S.D.K.D.S.K.V.K.S.V.S.I.V.S.K.S.S.D.I.D.S.K.V.K.S.V.S.K.V.Z.J.B.S.D.K.D.S.K.V.K.S.V.S.I.V.S.K.S.S.D.I.D.S.K.V.K.S.V.S.",
"K.S.V.S.S.S.S.K.S.S.S.K.V.S.S.V.K.S.S.S.N.S.I.S.S.S.S.K.S.S.S.S.K.S.V.S.S.S.S.K.S.S.S.K.V.S.S.V.K.S.S.S.N.S.I.S.S.S.S.K.S.S.S.S.",
"S.S.V.S.K.S.V.S.S.S.S.K.S.S.S.V.S.S.K.D.S.N.K.S.S.V.B.K.S.S.B.V.A.S.V.S.K.S.V.S.S.S.S.K.S.S.S.V.S.S.K.D.S.N.K.S.S.V.B.K.S.S.B.V.",
"V.S.S.K.S.S.S.D.S.I.D.S.D.S.K.S.V.S.S.K.B.S.S.S.K.D.V.S.S.K.V.S.V.S.S.K.S.S.S.D.S.I.D.S.D.S.K.S.V.S.S.K.B.S.S.S.K.D.V.S.S.K.V.S.",
"S.V.S.K.S.K.S.V.S.S.I.S.S.S.D.K.S.S.N.K.N.K.S.N.S.K.V.S.N.S.V.K.S.V.S.K.S.K.S.V.S.S.I.S.S.S.D.K.S.S.N.K.N.K.S.N.S.K.V.S.N.S.V.K.",
"S.V.S.S.V.D.V.D.S.S.K.V.S.S.S.K.S.K.D.S.B.V.S.S.S.K.S.S.S.S.S.K.S.V.S.S.V.D.V.D.S.S.K.V.S.S.S.K.S.K.D.S.B.V.S.S.S.K.S.S.S.S.S.K.",
"S.K.D.V.S.S.S.S.V.S.S.S.V.S.K.V.S.S.K.S.V.S.D.K.S.S.S.S.K.S.K.V.S.K.D.V.S.S.S.S.V.S.S.S.V.S.K.V.S.S.K.S.V.S.D.K.S.S.S.S.K.S.K.V.",
"V.S.K.V.D.I.S.V.S.S.D.S.V.S.S.K.V.N.K.N.V.S.K.S.S.S.K.S.S.K.S.K.V.S.K.V.D.I.S.V.S.S.D.S.V.S.S.K.V.N.K.N.V.S.K.S.S.S.K.S.S.K.S.K.",
"S.V.K.S.I.S.S.V.S.V.S.S.S.D.S.K.S.N.N.N.N.S.K.S.V.B.S.K.S.V.S.K.S.V.K.S.I.S.S.V.S.V.S.S.S.D.S.K.S.N.N.N.N.S.K.S.V.B.S.K.S.V.S.K.",
"B.V.S.S.K.V.S.S.S.S.V.I.D.S.S.S.B.V.B.K.D.S.S.S.K.V.S.S.V.B.S.S.B.V.S.S.K.V.S.S.S.S.V.I.D.S.S.S.B.V.B.K.D.S.S.S.K.V.S.S.V.B.S.S.",
"K.D.S.V.S.S.V.K.D.S.V.S.I.S.V.S.K.S.V.S.D.I.S.N.B.V.S.I.D.K.N.S.K.D.S.V.S.S.V.K.D.S.V.S.I.S.V.S.K.S.V.S.D.I.S.N.B.V.S.I.D.K.N.S.",
"D.K.V.S.D.S.V.S.K.S.D.S.K.V.S.N.S.S.V.S.I.S.S.S.K.D.S.S.I.S.S.N.D.K.V.S.D.S.V.S.K.S.D.S.K.V.S.N.S.S.V.S.I.S.S.S.K.D.S.S.I.S.S.N.",
"S.S.V.S.S.S.S.S.K.S.S.S.S.V.S.S.S.K.S.S.K.S.V.B.S.K.S.N.K.N.S.S.S.S.V.S.S.S.S.S.K.S.S.S.S.V.S.S.S.K.S.S.K.S.V.B.S.K.S.N.K.N.S.S.",
"S.I.D.S.K.D.K.S.S.S.V.S.D.S.S.V.S.S.K.B.V.D.K.V.S.K.S.N.N.S.B.V.S.I.D.S.K.D.K.S.S.S.V.S.D.S.S.V.S.S.K.B.V.D.K.V.S.K.S.N.N.S.B.V.",
"V.S.I.S.S.K.D.S.D.S.S.V.S.D.S.S.V.B.K.V.S.K.N.V.N.S.V.B.S.K.V.S.V.S.I.S.S.K.D.S.D.S.S.V.S.D.S.S.V.B.K.V.S.K.N.V.N.S.V.B.S.K.V.S.",
"S.V.K.V.S.K.S.N.K.S.S.V.D.S.V.K.S.V.S.V.S.K.S.N.N.K.S.V.D.S.V.K.S.V.K.V.S.K.S.N.K.S.S.V.D.S.V.K.A.V.S.V.S.K.S.N.N.K.S.V.D.S.V.K."
};
