/* XPM */
static char *wall1750850120[] = {
/* columns rows colors chars-per-pixel */
"64 64 171 2 ",
"   c #041E01",
".  c #131801",
"X  c #141F02",
"o  c #2D0F02",
"O  c #3A1403",
"+  c #3C1503",
"@  c #042101",
"#  c #042002",
"$  c #052401",
"%  c #052207",
"&  c #052801",
"*  c #062A02",
"=  c #092D02",
"-  c #062908",
";  c #072D08",
":  c #07280D",
">  c #192102",
",  c #0A3003",
"<  c #0D3602",
"1  c #0C3406",
"2  c #0E3803",
"3  c #0A3309",
"4  c #08320A",
"5  c #08300E",
"6  c #09330E",
"7  c #0E360C",
"8  c #0A380C",
"9  c #0F3F0C",
"0  c #113902",
"q  c #143C04",
"w  c #082C11",
"e  c #082C14",
"r  c #093112",
"t  c #093314",
"y  c #0A3414",
"u  c #0B3B13",
"i  c #0C3E14",
"p  c #0D3E16",
"a  c #0A311A",
"s  c #0B371B",
"d  c #0B371D",
"f  c #0B3819",
"g  c #0C3C1C",
"h  c #0C3C1D",
"j  c #2E2504",
"k  c #2B2008",
"l  c #0B2D24",
"z  c #0C3620",
"x  c #0C3A21",
"c  c #0D3D22",
"v  c #0E3E27",
"b  c #0C302A",
"n  c #0D372D",
"m  c #0F3F31",
"M  c #4B1E03",
"N  c #512204",
"B  c #5D2A09",
"V  c #6A330F",
"C  c #194306",
"Z  c #194905",
"A  c #1A5009",
"S  c #1F5009",
"D  c #1C570A",
"F  c #1F5E08",
"G  c #0E4717",
"H  c #0E431D",
"J  c #124010",
"K  c #134512",
"L  c #144B12",
"P  c #164F18",
"I  c #125112",
"U  c #165015",
"Y  c #1B5718",
"T  c #2B5E0E",
"R  c #275815",
"E  c #21571F",
"W  c #26610B",
"Q  c #24660C",
"!  c #28670B",
"~  c #28640D",
"^  c #2D650F",
"/  c #26690D",
"(  c #2E6A0A",
")  c #2C6B0F",
"_  c #2B710F",
"`  c #2B740F",
"'  c #3A710D",
"]  c #38770C",
"[  c #3D780E",
"{  c #20611E",
"}  c #2F7210",
"|  c #307411",
" . c #397212",
".. c #327911",
"X. c #3A7812",
"o. c #0F4523",
"O. c #0E4028",
"+. c #0F4429",
"@. c #0F402D",
"#. c #0F422E",
"$. c #104D25",
"%. c #194C24",
"&. c #135621",
"*. c #114534",
"=. c #124B33",
"-. c #124936",
";. c #124D37",
":. c #134F39",
">. c #155E37",
",. c #135039",
"<. c #14553B",
"1. c #155A3B",
"2. c #165A3E",
"3. c #175C3C",
"4. c #17652C",
"5. c #1E7822",
"6. c #1B6F36",
"7. c #1B7437",
"8. c #256323",
"9. c #296E27",
"0. c #2F7E22",
"q. c #2A7128",
"w. c #246B31",
"e. c #287733",
"r. c #175F41",
"t. c #176040",
"y. c #186740",
"u. c #1A6741",
"i. c #186543",
"p. c #196A46",
"a. c #1D7345",
"s. c #1C7644",
"d. c #1B7049",
"f. c #1C764A",
"g. c #1E7C4C",
"h. c #88481E",
"j. c #3B810D",
"k. c #338312",
"l. c #378413",
"z. c #388713",
"x. c #3B8E15",
"c. c #3A9311",
"v. c #3B9315",
"b. c #3D9815",
"n. c #368D21",
"m. c #328530",
"M. c #44850F",
"N. c #45870F",
"B. c #478817",
"V. c #498F10",
"C. c #498318",
"Z. c #51901A",
"A. c #44A318",
"S. c #58AC14",
"D. c #5BA91E",
"F. c #61A81F",
"G. c #62B220",
"H. c #70C725",
"J. c #248441",
"K. c #218547",
"L. c #20824D",
"P. c #24904C",
"I. c #238E51",
"U. c #259453",
"Y. c #279A55",
"T. c #32BC47",
"R. c #29A157",
"E. c #2AA554",
"W. c #2CAA51",
"Q. c #36C642",
"!. c #94FF30",
/* pixels */
"H.m.A.H.A.A.S.!.S.A.H.m.H.A.m.A.H.m.A.H.A.A.S.H.S.A.H.m.H.A.m._ B.w.0.H.A.A.S.!.S.A.H.m.H.A.m.A.H.m.A.H.A.A.S.H.S.A.H.m.H.A.m.A.",
"H.A.A.A.c.A.!.A.A.A.A.H.A.A.A.A.H.A.m.A.A.A.A.H.A.A.A.H.m.A.A.    *.*.A.c.A.!.A.A.A.A.H.A.A.A.A.H.A.m.A.A.A.A.H.A.A.A.H.m.A.A.m.",
"A.A.H.S.A.c.H.A.A.m.b.H.A.A.b.m.A.A.m.A.!.A.m.A.A.A.A.H.A.v.v.4 3 *.*.S.A.c.H.A.A.m.b.H.A.A.b.m.A.A.m.A.!.A.m.A.A.A.A.H.A.A.A.m.",
"m.A.A.H.b.A.A.A.H.S.m.A.A.H.!.A.m.A.A.!.A.A.A.S.A.H.S.A.S.    Q.Q.*.*.H.b.A.A.A.H.S.m.A.A.H.!.A.m.A.A.!.A.A.A.S.A.H.S.A.S.A.H.A.",
"A.A.c.H.c.H.A.c.A.H.m.A.c.A.m.!.A.m.A.H.A.H.A.m.A.A.H.A.A.    Q.Q.*.*.H.c.H.A.c.A.H.m.A.c.A.m.!.A.m.A.H.A.H.A.m.A.A.H.A.A.A.S.H.",
"A.H.S.A.b.m.A.A.A.H.A.A.A.A.A.H.A.m.A.A.m.S.m.S.A.A.G.        R.R.d.d.*.*.e.A.A.A.H.A.A.A.A.A.H.A.m.A.A.m.S.m.S.A.A.H.m.A.A.A.H.",
"A.A.H.A.m.A.S.!.A.A.A.A.H.A.H.m.A.H.S.m.A.A.A.A.m.A.v.        R.R.d.d.*.*.n.S.!.A.A.A.A.H.A.H.m.A.H.S.m.A.A.A.A.m.A.A.A.m.A.H.m.",
"m.c.H.c.m.A.!.A.A.A.H.A.A.H.A.H.m.A.H.m.S.!.A #     % *.*.d.d.d.d.R.R.Q.Q.I * Q A.A.H.A.A.H.A.H.m.A.H.m.S.!.A.m.A.A.S.A.m.A.A.H.",
"A.c.c.c.c.A.H.A.m.b.A.H.A.m.A.H.A.m.H.A.!.A.A #   @ % *.*.d.d.d.d.R.R.Q.Q.I * Q m.b.A.H.A.m.A.H.A.m.H.A.!.A.A.m.A.m.A.A.A.S.A.H.",
"b.m.b.H.S.A.A.A.H.m.A.A.m.b.A.A.b.m.A.A.H.m.Z   g d.d.d.d.*.*.d.d.*.*.*.*.i.d.$.* 9 A.A.m.b.A.A.b.m.A.A.H.m.A.A.A.A.m.!.S.A.A.A.",
"H.A.m.A.S.H.A.c.b.m.A.!.S.H.c.A.H.S.A.m.A.A.G   g d.d.d.d.*.*.d.d.*.*.*.*.i.d.$.* 9 A.!.S.H.c.A.H.S.A.m.A.A.m.H.S.A.m.A.!.A.m.A.",
"A.A.m.A.H.A.A.A.H.S.A.A.!.A.A.c.S.H.m.A.S.A.m.A.B.  % *.*.R.R.d.d.R.R.d.d.:.*.s * Z A.A.!.A.A.c.S.H.m.A.S.A.m.A.H.A.S.A.H.m.A.c.",
"A.!.A.A.H.A.m.b.A.H.A.c.H.c.A.A.A.A.m.A.A.A.A.A.B.  % *.*.Y.R.d.d.R.R.d.d.:.*.s * S A.c.H.c.A.A.A.A.m.A.A.A.A.A.H.A.A.A.A.m.A.A.",
"A.A.!.b.m.S.H.m.A.H.A.c.c.A.b.m.A.H.S.A.H.S.H.A.}   # 5 6 3.3.U.U.T.T.:.:.f 5 P k.D.A.c.c.A.b.m.A.H.S.A.H.S.H.A.A.A.m.A.S.A.A.m.",
"m.b.H.m.A.H.c.m.c.A.m.b.A.H.m.A.m.A.H.A.A.H.S.A.]     * * *.*.R.R.Q.Q.*.*.5 * Y c.A.m.b.A.H.m.A.m.A.H.A.A.H.S.A.S.A.A.m.A.S.A.A.",
"A.m.A.m.A.H.A.c.c.H.A.m.S.A.m.!.A.m.H.m./  .T D R a t * * s d 4.4.5.5.s s s s L F X.Q Y ( Q m.!.A.m.H.m.A.H.A.c.H.A.A.m.S.A.m.H.",
"H.m.A.H.A.A.S.H.S.A.H.m.H.A.m.A.!.m.A.H.,       e *.#.- * * * * * * * * * v *.s * * * * * * m.A.!.m.A.H.A.A.S.!.S.A.H.m.H.A.m.A.",
"H.A.m.A.A.A.A.H.A.A.A.H.m.A.A.m.H.A.A.A.= @ 6 p o.:.=.; ; 6 r u u 5 5 u u c v g u i G G * * A.m.H.A.A.A.c.A.!.A.A.A.A.H.A.A.A.A.",
"A.A.m.A.H.A.m.A.A.A.A.H.A.A.A.m.A.A.H.S.2 * 7.R.I.d.p.*.*.*.*.d.d.*.*.d.d.u * $.d.g.R.R.* * A.m.A.A.H.S.A.c.H.A.A.m.b.H.A.A.b.m.",
"m.A.A.H.A.A.A.S.A.!.S.A.S.A.H.A.m.A.A.H.< * 7.R.I.d.p.*.*.*.*.d.d.*.*.d.d.u * $.d.g.R.R.* * H.A.m.A.A.H.b.A.A.A.H.S.m.A.A.H.m.A.",
"A.m.A.H.A.H.A.m.A.A.!.A.A.A.S.H.A.A.c.H.c.H.D * t *.#.* * *.*.R.R.d.d.R.R.3.*.2.d.>.* * A.A.S.H.A.A.c.H.c.H.A.c.A.H.m.A.c.A.m.H.",
"A.m.A.A.m.S.m.S.A.A.H.m.A.A.A.H.A.H.S.A.b.m.D * t *.#.* * *.*.R.R.d.d.R.R.3.*.2.d.>.* * A.A.A.H.A.H.S.A.b.m.A.A.A.H.A.A.A.A.A.H.",
"A.H.S.m.A.A.A.A.m.A.A.A.m.A.H.m.        l b w * &.R.Y.d.d.* * d.d.R.R.Q.Q.K.d.,.b %.A.A.m.A.H.m.A.A.H.A.m.A.S.H.A.A.A.A.H.A.H.m.",
"m.A.H.m.S.!.A.m.A.A.S.A.m.A.A.H.        l b w * &.R.Y.d.d.* * d.d.R.R.Q.Q.K.d.:.b %.S.A.m.A.A.H.m.c.H.c.m.A.H.A.A.A.H.A.A.H.A.H.",
"A.m.H.A.!.A.A.m.A.m.A.A.A.S.A.H.    R.R.f.d.<.*.x * * * * * * *.*.d.d.*.*.5 * $.d.>.* * A.S.A.H.A.c.c.c.c.A.H.A.m.b.A.H.A.m.A.H.",
"b.m.A.A.H.m.A.A.A.A.m.!.S.A.A.A.    R.R.f.d.<.*.x * * * * * * *.*.d.d.*.*.5 * $.d.>.* * S.A.A.A.b.m.b.H.S.A.A.A.H.m.A.A.m.b.A.A.",
"H.S.A.m.A.A.m.H.S.A.m.A.!.A.m.A.H.A.        7.R.I.d.p.*.*.d.d.* * *.*.* * v *.a.R.W.Q.Q.* * * * H.A.m.A.S.!.A.c.b.m.A.!.S.H.c.A.",
"S.H.m.A.S.A.m.A.H.A.S.A.H.m.A.c.A.A.        6.R.I.d.p.*.*.d.d.% * *.*.* * v *.a.R.W.Q.Q.* * * * A.A.m.A.!.A.A.A.H.S.A.A.!.A.A.c.",
"A.A.m.A.A.A.A.A.H.A.A.A.A.m.A.A.A.H.v.v.G.v.U 8 g -.-.*.*.Y.Y.6.6.; ; i.i.;.*.3.f.L.E.E.#.#.* * A.H.A.A.H.A.m.b.A.H.A.c.H.c.A.A.",
"A.!.S.A.H.S.H.A.A.A.m.A.S.A.A.m.A.A.H.b.m.S.^ * y *.*.*.*.R.R.d.d.* * d.d.,.*.2.d.g.R.R.*.*.* * A.A.H.b.m.S.H.m.A.H.A.c.c.A.b.m.",
"m.A.!.A.A.H.S.A.S.A.A.m.A.S.A.A.m.b.T K A T , @ - y y e e u.u.<.<.  # g g t e O.<.r.L.L.n n ` ` m.b.H.m.A.H.c.m.c.A.m.b.A.H.m.A.",
"A.m.H.m.A.H.A.c.H.A.A.m.S.A.m.H.A.m.        @   @ * *     *.*.*.*.            a *.:.d.d.b b m.H.A.m.A.m.A.H.A.c.c.H.A.m.S.A.m.H.",
"H.m.A.H.A.A.S.!.S.A.H.m.H.A.m.A.H.m.    H &.H g f y r @ @ z z z z   # $ # $ # 5 c #.r.r.n n { _ H.m.A.H.A.A.S.H.S.A.H.m.H.A.m.A.",
"H.A.A.A.c.A.!.A.A.A.A.H.A.A.A.A.H.A.    P.R.L.d.t.*.#.* *         - * * * * * * * ; *.*.*.*.* * H.A.m.A.A.A.A.H.A.A.A.H.m.A.A.m.",
"A.A.H.S.A.c.H.A.A.m.b.H.A.A.b.m.A.A.; , J.P.a.y.1.*.#.4 4 % % @ # ; ; ; ; 4 4 4 ; r #.#.#.#.* * A.A.m.A.!.A.m.A.A.A.A.H.A.A.A.m.",
"m.A.A.H.b.A.A.A.H.S.m.A.A.H.!.A.m.A.A.!., # $ * y *.-.d.d.*.*.* * *.*.*.*.i.d.2.*.v * * * * * * m.A.A.!.A.A.A.S.A.H.S.A.S.A.H.A.",
"A.A.c.H.c.H.A.c.A.H.m.A.c.A.m.!.A.m.A.H.,   $ * y *.:.d.d.*.*.* * *.*.*.*.i.d.2.*.v * * * * * * A.m.A.H.A.H.A.m.A.A.H.A.A.A.S.H.",
"A.H.S.A.b.m.A.A.A.H.A.A.A.A.A.H.A.m.A.A.m.S.K   @ * 8 Y.R.d.d.    * * d.d.U.R.d.*.m b b A.A.A.H.A.m.A.A.m.S.m.S.A.A.H.m.A.A.A.H.",
"A.A.H.A.m.A.S.!.A.A.A.A.H.A.H.m.A.H.S.m.A.A.S   @ * 8 R.R.d.d.    * * d.d.U.R.a.*.#.b b H.A.H.m.A.H.S.m.A.A.A.A.m.A.A.A.m.A.H.m.",
"m.c.H.c.m.A.!.A.A.A.H.A.A.H.A.H.m.A.H.m.S.!.A   w *.#.@       * * * *             # * * A.H.A.H.m.A.H.m.S.!.A.m.A.A.S.A.m.A.A.H.",
"A.c.c.c.c.A.H.A.m.b.A.H.A.m.A.H.A.m.H.A.!.A.A   : x d @ @ . . > > > > # $ # $ # # # * * A.m.A.H.A.m.H.A.!.A.A.m.A.m.A.A.A.S.A.H.",
"b.m.b.H.S.A.A.A.H.m.A.A.m.b.A.A.b.m.A.A.H.m.A.A.` * * * * o o O O o o * * * * $   7 A.A.m.b.A.A.b.m.A.A.H.m.A.A.A.A.m.!.S.A.A.A.",
"H.A.m.A.S.H.A.c.b.m.A.!.S.H.c.A.H.S.A.m.A.A.m.H.j.2 1 0 C o o + O o o < 2 q < , * J A.!.S.H.c.A.H.S.A.m.A.A.m.H.S.A.m.A.!.A.m.A.",
"A.A.m.A.H.A.A.A.H.S.A.A.!.A.A.c.S.H.m.A.S.A.m.A.H.A.S.A.H.o o N N o o A.H.A.A.A.H.S.A.A.!.A.A.c.S.H.m.A.S.A.m.A.H.A.S.A.H.m.A.c.",
"A.!.A.A.H.A.m.b.A.H.A.c.H.c.A.A.A.A.m.A.A.A.A.A.H.A.A.A.A.o o N N o o A.H.A.m.b.A.H.A.c.H.c.A.A.A.A.m.A.A.A.A.A.H.A.A.A.A.m.A.A.",
"A.A.!.b.m.S.H.m.A.H.A.c.c.A.b.m.A.H.S.A.H.S.H.A.A.A.m.A.S.o o V V o o b.m.S.H.m.A.H.A.c.c.A.b.m.A.H.S.A.H.S.H.A.A.A.m.A.S.A.A.m.",
"m.b.H.m.A.H.c.m.c.A.m.b.A.H.m.A.m.A.H.A.A.H.S.A.S.A.A.m.A.o o V V o o m.A.H.c.m.c.A.m.b.A.H.m.A.m.A.H.A.A.H.S.A.S.A.A.m.A.S.A.A.",
"A.m.A.m.A.H.A.c.c.H.A.m.S.A.m.!.A.m.H.m.A.H.A.c.H.A.A.m.S.o o h.h.o o m.A.H.A.c.c.H.A.m.S.A.m.!.A.m.H.m.A.H.A.c.H.A.A.m.S.A.m.H.",
"H.m.A.H.A.A.S.H.S.A.H.m.H.A.m.A.!.m.A.H.A.A.S.!.S.A.H.m.H.o o h.h.o o H.A.A.S.H.S.A.H.m.H.A.m.A.!.m.A.H.A.A.S.!.S.A.H.m.H.A.m.A.",
"H.A.m.A.A.A.A.H.A.A.A.H.m.A.A.m.H.A.A.A.c.A.!.A.A.A.A.H.A.o o h.h.o o A.A.A.A.H.A.A.A.H.m.A.A.m.H.A.A.A.c.A.!.A.A.A.A.H.A.A.A.A.",
"A.A.m.A.H.A.m.A.A.A.A.H.A.A.A.m.A.A.H.S.A.c.H.A.A.m.b.H.A.o o h.h.o o A.H.A.m.A.A.A.A.H.A.A.A.m.A.A.H.S.A.c.H.A.A.m.b.H.A.A.b.m.",
"m.A.A.H.A.A.A.S.A.!.S.A.S.A.H.A.m.A.A.H.b.A.A.A.F.' E ) ) o o V V o o C.) ) ) V.A.!.S.A.S.A.H.A.m.A.A.H.b.A.A.A.H.S.m.A.A.H.m.A.",
"A.m.A.H.A.H.A.m.A.A.!.A.A.A.S.H.A.A.c.H.c.H.A.c.v.C.E ) W o o V V o o C.) C.) 9.A.A.!.A.A.A.S.H.A.A.c.H.c.H.A.c.A.H.m.A.c.A.m.H.",
"A.m.A.A.m.S.m.S.A.A.H.m.A.A.A.H.A.H.S.A.b.m.z...| C.) ) ) o o V V o o ) E ' E [ ..l.H.m.A.A.A.H.A.H.S.A.b.m.A.A.A.H.A.A.A.A.A.H.",
"A.H.S.m.A.A.A.A.m.A.A.A.m.A.H.m.A.A.H.A.m.A.M.C.) ) ) ) C.o o V V o o E ) ) ) ) E | A.A.m.A.H.m.A.A.H.A.m.A.S.H.A.A.A.A.H.A.H.m.",
"m.A.H.m.S.!.A.m.A.A.S.A.m.A.A.H.m.c.H.c.q.z.Z.) ) ) C.) ) o o B B o o E ' F.) E ) | V.l.m.A.A.H.m.c.H.c.m.A.H.A.A.A.H.A.A.H.A.H.",
"A.m.H.A.!.A.A.m.A.m.A.A.A.S.A.H.A.c.c.c.! ) C.) E ~ ) C.) o o N N o o ) F.) ) E ) E ) ! A.S.A.H.A.c.c.c.c.A.H.A.m.b.A.H.A.m.A.H.",
"b.m.A.A.H.m.A.A.A.A.m.!.S.A.A.A.b.m.b.H.M...} ) C.E ) ) E j j M M k j ) C.E ) ) ) ) 8.H.S.A.A.A.b.m.b.H.S.A.A.A.H.m.A.A.m.b.A.A.",
"H.S.A.m.A.A.m.H.S.A.m.A.!.A.m.A.H.A.m.A.S.!...W ~ E ) F.' C.W O + ' ) E ) ) E C.' ..m.A.!.A.m.A.H.A.m.A.S.!.A.c.b.m.A.!.S.H.c.A.",
"S.H.m.A.S.A.m.A.H.A.S.A.H.m.A.c.A.A.m.A.!.A.l.) C.' ) ) F.) ) O O C.E ) ' ) E ) C...S.A.H.m.A.c.A.A.m.A.!.A.A.A.H.S.A.A.!.A.A.c.",
"A.A.m.A.A.A.A.A.H.A.A.A.A.m.A.A.A.H.A.A.H.A.m.b.v.C.) W C.W ) ) ) ) E ) ) ) ) z.H.A.A.A.A.m.A.A.A.H.A.A.H.A.m.b.A.H.A.c.H.c.A.A.",
"A.!.S.A.H.S.H.A.A.A.m.A.S.A.A.m.A.A.H.b.m.S.H.m.x.C.) W W ) ~ E ) F.' ) C.' C.z.A.A.m.A.S.A.A.m.A.A.H.b.m.S.H.m.A.H.A.c.c.A.b.m.",
"m.A.!.A.A.H.S.A.S.A.A.m.A.S.A.A.m.b.H.m.A.H.c.m.c.A.m.b.A.C.E ) E ) F.A.A.H.S.A.S.A.A.m.A.S.A.A.m.b.H.m.A.H.c.m.c.A.m.b.A.H.m.A.",
"A.m.H.m.A.H.A.c.H.A.A.m.S.A.m.H.A.m.A.m.A.H.A.c.c.H.A.m.S.) E C.) E C.m.A.H.A.c.H.A.A.m.S.A.m.H.A.m.A.m.A.H.A.c.c.H.A.m.S.A.m.H."
};
