/* XPM */
static char *walkd11750930846[] = {
/* columns rows colors chars-per-pixel */
"64 64 205 2 ",
"   c #040201",
".  c #0B0404",
"X  c #060B01",
"o  c #150C0B",
"O  c #190B08",
"+  c #071105",
"@  c #091205",
"#  c #19170A",
"$  c #1C1313",
"%  c #22110D",
"&  c #29150C",
"*  c #251412",
"=  c #2A1713",
"-  c #281916",
";  c #2D1D1A",
":  c #331C15",
">  c #321F1C",
",  c #0F2A0F",
"<  c #182C07",
"1  c #183808",
"2  c #24250C",
"3  c #242A0C",
"4  c #2C2F0C",
"5  c #2E2419",
"6  c #34221E",
"7  c #2D3214",
"8  c #363B12",
"9  c #32321D",
"0  c #261D24",
"q  c #2A2228",
"w  c #2D232A",
"e  c #362522",
"r  c #342626",
"t  c #372825",
"y  c #392926",
"u  c #352A2B",
"i  c #3B2D2A",
"p  c #373624",
"a  c #3E312E",
"s  c #362B30",
"d  c #3A2D32",
"f  c #3B3030",
"g  c #471F08",
"h  c #48300E",
"j  c #46281A",
"k  c #582D17",
"l  c #5B3617",
"z  c #6E3911",
"x  c #63341A",
"c  c #683A19",
"v  c #6B3B1A",
"b  c #4A2F28",
"n  c #41312D",
"m  c #4B3328",
"M  c #543523",
"N  c #583326",
"B  c #423532",
"V  c #473936",
"C  c #4B3A37",
"Z  c #533C37",
"A  c #583F3A",
"S  c #1A4210",
"D  c #24420C",
"F  c #2C470D",
"G  c #344515",
"H  c #2C5011",
"J  c #365716",
"K  c #2E690F",
"L  c #37760F",
"P  c #386715",
"I  c #377D14",
"U  c #325122",
"Y  c #327F2E",
"T  c #714C14",
"R  c #4C691B",
"E  c #4A7A17",
"W  c #465F28",
"Q  c #4E403C",
"!  c #57423E",
"~  c #6B422B",
"^  c #744124",
"/  c #624534",
"(  c #537622",
")  c #423B41",
"_  c #574844",
"`  c #594C49",
"'  c #595050",
"]  c #664D4A",
"[  c #61514C",
"{  c #69564B",
"}  c #735847",
"|  c #645453",
" . c #645A55",
".. c #695856",
"X. c #6C5C5A",
"o. c #6A6159",
"O. c #74625D",
"+. c #7A675C",
"@. c #6A6262",
"#. c #746563",
"$. c #796C68",
"%. c #873A12",
"&. c #95490B",
"*. c #A64F0C",
"=. c #AC5709",
"-. c #B25A05",
";. c #BA5709",
":. c #AA5913",
">. c #BC6006",
",. c #B16219",
"<. c #AD743F",
"1. c #C95D05",
"2. c #CA6302",
"3. c #CD6903",
"4. c #DB6701",
"5. c #D56C03",
"6. c #D57006",
"7. c #DA7202",
"8. c #D5710A",
"9. c #C96C16",
"0. c #D27313",
"q. c #C7762F",
"w. c #C97E36",
"e. c #876244",
"r. c #936D56",
"t. c #85736B",
"y. c #90746D",
"u. c #897E7D",
"i. c #378713",
"p. c #3C8414",
"a. c #3A9311",
"s. c #3D9815",
"d. c #31812E",
"f. c #328530",
"g. c #4B8B14",
"h. c #51881A",
"j. c #429B16",
"k. c #54951C",
"l. c #659E1F",
"z. c #43A217",
"x. c #44A318",
"c. c #58AC14",
"v. c #5FA420",
"b. c #62A925",
"n. c #6AB224",
"m. c #6ABC22",
"M. c #6CC123",
"N. c #70C725",
"B. c #D8832A",
"V. c #DB863B",
"C. c #94FF30",
"Z. c #BA8351",
"A. c #8B817A",
"S. c #A8896F",
"D. c #C9864C",
"F. c #D98F43",
"G. c #DA9B55",
"H. c #E0A44F",
"J. c #C8A06A",
"K. c #D3708A",
"L. c #908583",
"P. c #A78D87",
"I. c #A28E8D",
"U. c #A7938E",
"Y. c #B5A29C",
"T. c #AE9FA2",
"R. c #BBB5B2",
"E. c #BEBAB8",
"W. c #C0A691",
"Q. c #E2B58A",
"!. c #DF92AA",
"~. c #E097AD",
"^. c #C8BAA8",
"/. c #D8BAAC",
"(. c #C2B5B2",
"). c #C4BCB6",
"_. c #D9BCB6",
"`. c #E6C59F",
"'. c #CBC1AA",
"]. c #D2C3AA",
"[. c #DAC3A8",
"{. c #CBC1BD",
"}. c #D5C6BA",
"|. c #E5CDAB",
" X c #CDC8C5",
".X c #D3C8C5",
"XX c #D3CCCA",
"oX c #D9D0C3",
"OX c #DBD6D3",
"+X c #DFDADA",
"@X c #E9CCD3",
"#X c #E2DDD1",
"$X c #E2DDDB",
"%X c #EBE6DB",
"&X c #EFDDE2",
"*X c #E6E4E2",
"=X c #E9E5E4",
"-X c #EBE9E5",
";X c #EDEBEA",
":X c #F1E6E5",
">X c #F2EEED",
",X c #EFF2EE",
"<X c #F3F1EE",
"1X c #F4F4F3",
"2X c #F8F8F6",
/* pixels */
"N.f.x.N.x.x.c.C.c.x.N.f.N.x.f.x.N.f.x.N.x.x.c.N.c.x.N.f.N.x.f.x.N.f.x.N.x.x.c.C.c.x.N.f.N.x.f.x.N.f.x.N.x.x.c.N.c.x.N.f.N.x.f.x.",
"N.x.x.x.a.x.C.x.x.x.x.N.x.x.x.x.N.x.f.x.x.x.x.N.x.x.x.N.f.x.x.f.N.x.x.x.a.x.C.x.x.x.x.N.x.x.x.x.N.x.f.x.x.x.x.N.x.x.x.N.f.x.x.f.",
"x.x.N.c.x.a.N.x.x.f.s.N.x.x.s.f.x.x.f.x.C.x.f.x.x.x.x.N.x.x.x.f.x.x.N.c.x.a.N.x.x.f.s.N.x.x.s.f.x.x.f.x.C.x.f.x.x.x.x.N.x.x.x.f.",
"f.x.x.N.s.x.x.x.N.c.f.x.x.N.C.x.f.x.x.C.x.x.x.c.x.N.c.x.c.x.N.x.f.x.x.N.s.x.x.x.N.c.f.x.x.N.C.x.f.x.x.C.x.x.x.c.x.N.c.x.c.x.N.x.",
"x.x.a.N.a.N.x.a.x.N.f.x.a.x.f.C.x.f.x.N.x.N.x.f.x.x.N.x.x.x.c.N.x.x.a.N.a.N.x.a.x.N.f.x.a.x.f.C.x.f.x.N.x.N.x.f.x.x.N.x.x.x.c.N.",
"x.N.c.x.s.f.x.x.x.N.x.x.x.x.x.N.x.f.x.x.f.c.f.c.x.x.N.f.x.x.x.N.x.N.c.x.s.f.x.x.x.N.x.x.x.x.x.N.x.f.x.x.f.c.f.c.x.x.N.f.x.x.x.N.",
"x.x.N.x.f.x.c.C.x.x.x.x.N.x.N.f.x.N.c.f.x.x.x.x.f.x.x.x.f.x.N.f.x.x.N.x.f.x.c.C.x.x.x.x.N.x.N.f.x.N.c.f.x.x.x.x.f.x.x.x.f.x.N.f.",
"f.a.N.a.f.x.C.x.x.x.N.x.x.N.x.N.f.x.N.f.c.C.x.f.x.x.c.x.f.x.x.N.f.a.N.a.f.x.C.x.x.x.N.x.x.N.x.N.f.x.N.f.c.C.x.f.x.x.c.x.f.x.x.N.",
"x.a.a.a.a.x.N.x.f.s.x.N.x.f.x.N.x.f.N.x.C.x.x.f.x.f.x.x.x.c.x.N.x.a.a.a.a.x.N.x.f.s.x.N.x.f.x.N.x.f.N.x.C.x.x.f.x.f.x.x.x.c.x.N.",
"s.f.s.N.c.x.x.x.N.f.x.x.f.s.x.x.j.f.x.x.N.f.x.x.x.x.f.C.c.x.x.x.s.f.s.N.c.x.x.x.N.f.x.x.f.s.x.x.s.f.x.x.N.f.x.x.x.x.f.C.c.x.x.x.",
"N.x.f.x.c.N.x.a.s.f.x.C.c.N.a.x.N.c.x.f.x.x.f.N.c.x.f.x.C.x.f.x.N.x.f.x.c.N.x.a.s.f.x.C.c.N.a.x.N.c.x.f.x.x.f.N.c.x.f.x.C.x.f.x.",
"x.x.f.x.N.x.x.x.N.c.x.x.C.x.x.a.c.N.f.x.c.x.f.x.N.x.c.x.N.f.x.j.x.x.f.x.N.x.x.x.N.c.x.x.C.x.x.a.c.N.f.x.c.x.f.x.N.x.c.x.N.f.x.a.",
"x.C.x.x.N.x.f.s.x.N.x.a.N.a.x.x.x.x.f.x.x.x.x.x.N.x.x.x.x.f.x.x.x.( 9 9 9 x.f.s.x.N.x.a.N.a.x.x.x.x.f.x.x.x.x.x.N.x.x.x.x.f.x.x.",
"x.x.C.s.f.c.N.f.x.N.x.a.a.x.s.f.x.N.c.x.N.c.N.x.x.x.f.x.c.x.x.f.J V Q 6 o c.N.f.x.N.x.a.a.x.s.f.x.N.c.x.N.c.N.x.x.x.f.x.c.x.x.f.",
"f.s.N.f.x.N.a.f.a.x.f.s.x.N.f.x.f.x.N.x.x.N.c.x.c.x.x.f.x.c.j.H  .oXoXt.q N.a.f.a.x.f.s.x.N.f.x.f.x.N.x.x.N.c.x.c.x.x.f.x.c.x.x.",
"x.f.x.f.x.N.x.a.a.N.x.f.c.x.f.C.x.f.N.f.x.N.x.a.N.x.x.f.c.j.J g e.].).o.< N.j.a.a.N.x.f.c.x.f.C.x.f.N.f.x.N.x.a.N.x.x.f.c.x.f.N.",
"N.f.x.N.x.x.c.N.c.x.N.f.N.x.f.x.C.f.x.N.x.x.c.C.c.x.N.f.M.R %.1.=.~ i b.x.x.c.N.c.x.N.f.N.x.f.x.C.f.x.N.x.x.c.C.c.x.N.f.N.x.f.x.",
"N.x.f.x.x.x.x.N.x.x.x.N.f.x.x.f.N.x.x.x.a.x.C.x.x.x.x.N.I ; %.;.*.k $ p.x.x.x.N.x.x.x.N.f.x.x.f.N.x.x.x.a.x.C.x.x.x.x.N.x.x.x.x.",
"x.x.f.x.N.x.f.x.x.x.x.N.x.x.x.f.x.x.N.c.x.a.N.x.x.f.s.N.I = j N N j O p.N.x.f.x.x.x.x.N.x.x.x.f.x.x.N.c.x.a.N.x.x.f.s.N.x.x.s.f.",
"f.x.x.N.x.x.x.c.x.C.c.x.c.x.N.x.f.x.x.N.s.x.x.x.N.c.f.x.I = 6 w w > * v.x.x.x.c.x.C.c.x.c.x.N.x.f.x.x.N.s.x.x.x.N.c.f.x.x.N.f.x.",
"x.f.x.N.x.N.x.f.x.x.C.x.x.x.c.N.x.x.a.N.a.N.x.a.x.N.f.x.K 0 w 0 0 0 $ l.x.N.x.f.x.x.C.x.x.x.c.N.x.x.a.N.a.N.x.a.x.N.f.x.a.x.f.N.",
"x.f.x.x.f.c.f.c.x.x.N.f.x.x.x.N.x.N.c.x.s.d.x.x.x.N.x.x.g.k x x ~ } | W Y c.f.c.x.x.N.f.x.x.x.N.x.N.c.x.s.f.x.x.x.N.x.x.x.x.x.N.",
"x.N.c.f.x.x.x.x.f.x.x.x.f.x.N.f.x.x.N.x.f.x.c.N.x.x.s.7 T ;.1.1.D.].'.#.8 x.x.x.f.x.x.x.f.x.N.f.x.x.N.x.f.x.c.N.x.x.x.x.N.x.N.f.",
"f.x.N.f.c.C.x.f.x.x.c.x.f.x.x.N.f.a.N.a.f.x.N.x.x.x.n.k *.4.4.1.Z.].^.} : C.x.f.x.x.c.x.f.x.x.N.f.a.N.a.f.x.N.x.x.x.N.x.x.N.x.N.",
"x.f.N.x.C.x.x.f.x.f.x.x.x.c.x.N.x.a.a.a.a.x.N.G 9 < l =.4.4.;.^ ! o.[ B ; 4 3 p J f.x.x.x.c.x.N.x.a.a.a.a.x.N.x.f.s.x.N.x.f.x.N.",
"s.f.x.x.N.f.x.x.x.x.f.C.c.x.x.x.s.f.s.N.c.x.x.5 Z #./ :.8.B.<.A f a i y y #.X.C 7 x.f.C.c.x.x.x.s.f.s.N.c.x.x.x.N.f.x.x.f.s.x.x.",
"N.c.x.f.x.x.f.N.c.x.f.x.C.x.f.x.N.x.f.x.c.C.x., X.XXT.Z } }.(.@.B d w r |  X.X[ 3 x.d.x.C.x.f.j.N.x.f.x.c.C.x.a.s.f.x.C.c.N.a.x.",
"c.N.f.x.c.x.f.x.N.x.c.x.N.f.x.a.x.x.f.x.C.x.x.# +.$XOX#.|  XR.' d u u y u.=X%XX.3 x.c.x.N.f.x.j.x.x.f.x.C.x.x.x.N.c.x.x.C.x.x.a.",
"x.x.f.x.x.x.x.x.N.x.x.x.x.f.x.x.x.N.x.x.N.x.d.# O.$X>X(.#.' ) s u w Q A..X<X=X..2 x.x.x.x.f.x.x.x.N.x.x.N.x.f.s.x.N.x.a.N.a.x.x.",
"x.C.c.x.N.c.N.x.x.x.f.x.c.x.x.f.x.x.N.s.f.c.N.@ O.$X,X/.S./ b l m i V A.}.1X*XX.< x.d.x.c.x.x.f.x.x.N.s.f.c.N.f.x.N.x.a.a.x.s.f.",
"f.x.C.x.x.N.c.x.c.x.x.f.x.c.x.x.f.s.N.f.x.N.a.@ O.$X:XG.0.3.3.3.=.M u a u.*X*XX.# p.x.f.x.c.x.x.f.s.N.f.x.N.a.d.a.x.f.s.x.N.f.x.",
"x.f.N.f.x.N.x.a.N.x.x.f.c.x.f.N.x.f.x.f.p.h.E : e.[.`.B.5.7.5.>.&.M i u  .R.E.| * < L U g.x.f.N.x.f.x.f.x.N.x.a.a.N.x.f.c.x.f.N.",
"N.f.x.N.x.x.c.C.c.x.N.f.N.x.f.x.N.f.x.l.8 = l &.,.F.B.6.6.6.-.T m B a a B O.o.V 6 5 = > ( x.f.x.N.f.x.N.x.x.c.N.c.x.N.f.N.x.f.x.",
"N.x.x.x.a.x.C.x.x.x.x.N.x.x.x.x.N.x.f.E h ; l -.3.8.6.5.7.7.-.l i f f f n B B n i t 6 : P x.x.x.N.x.f.x.x.x.x.N.x.x.x.N.f.x.x.f.",
"x.x.N.c.x.a.N.x.x.f.s.N.x.x.s.f.x.x.f.x.R 0 v >.6.5.5.5.5.7.-.k i d f f n n n i i t ; 8 p.x.j.f.x.x.f.x.C.x.f.x.x.x.x.N.x.x.x.f.",
"f.x.x.N.s.x.x.x.N.c.f.x.x.N.C.x.f.x.x.C.1 0 v 1.7.5.2.-.-.5.9.r. .B f i i i n i i r 6 H x.N.C.x.f.x.x.C.x.x.x.c.x.N.c.x.c.x.N.x.",
"x.x.a.N.a.N.x.a.x.N.f.x.a.x.f.C.x.f.x.E 2 - c 2.7.4.3.z z 1.V./.T.` u y y y y i y e 5 7 K x.f.C.x.f.x.N.x.N.x.f.x.x.N.x.x.x.c.N.",
"x.N.c.x.s.f.x.x.x.N.x.x.x.x.x.N.x.f.x.H % - c q.F.G.D.j j w.Q.%X$XL.V q i  .$.#.` i - % J z.z.N.x.f.x.x.f.c.f.c.x.x.N.f.x.x.x.N.",
"x.x.N.x.f.x.c.C.x.x.x.x.N.x.N.f.x.N.c.d.F q e.[.%X%X}.C V ^.:X1X2X+XL._ ' R.#X+X{.#.i H M.z.N.f.x.N.c.f.x.x.x.x.f.x.x.x.f.x.N.f.",
"f.a.N.a.f.x.C.x.x.x.N.x.x.N.x.N.f.x.N.f.c.G { }.<X2X=X| ` OX2X:X,X2XXX@.$.%X2X:X^.` J x.z.N.x.N.f.x.N.f.c.C.x.f.x.x.c.x.f.x.x.N.",
"x.a.a.a.a.x.N.x.f.s.x.N.x.f.x.N.x.f.N.x.C.< o ' Y.>X1XXX X<X&X!.~.:X1XXXOX1X,XI._ # S N.x.f.x.N.x.f.N.x.C.x.x.f.x.f.x.x.x.c.x.N.",
"s.f.s.N.c.x.x.x.N.f.x.x.f.s.x.x.j.f.x.x.N.f.1 . | {.*X*X*X>X@XK.K.@X;X*X*X-X{._ . , z.z.f.s.x.x.s.f.x.x.N.f.x.x.x.x.f.C.c.x.x.x.",
"N.x.f.x.c.N.x.a.s.f.x.C.c.N.a.x.N.c.x.f.x.x.d.D $ [ ` C _ I._./._..XI.[ _ #.` $   S z.C.c.N.a.x.N.c.x.f.x.x.f.N.c.x.f.x.C.x.f.x.",
"x.x.f.x.N.x.x.x.N.c.x.x.C.x.x.a.c.N.f.x.c.x.f.x.X O ; m _ t.P.P.U.^.r.c g m = X J c.x.x.C.x.x.a.c.N.f.x.c.x.f.x.N.x.c.x.N.f.x.a.",
"x.C.x.x.N.x.f.s.x.N.x.a.N.a.x.x.x.x.f.x.x.x.x.x.X o n U.(.Y.y.A | W.G.9.&.x % @ x.N.x.a.N.a.x.x.x.x.f.x.x.x.x.x.N.x.x.x.x.f.x.x.",
"x.x.C.s.f.c.N.f.x.N.x.a.a.x.s.f.x.N.c.x.N.c.N.x.. . Z .X$XU.| * C y.J.H.w.~ $ + x.N.x.a.a.x.s.f.x.N.c.x.N.c.N.x.x.x.f.x.c.x.x.f.",
"f.s.N.f.x.N.a.f.a.x.f.s.x.N.f.x.f.x.N.x.x.N.c.x.X   ] @XOX| * . o n y.|.`.] o + a.x.f.s.x.N.f.x.f.x.N.x.x.N.c.x.c.x.x.f.x.c.x.x.",
"x.f.x.f.x.N.x.a.a.N.x.f.c.x.f.C.x.f.N.f.x.N.x.a.X   _ .X(.Z O     O O.^./.Q X @ a.N.x.f.c.x.f.C.x.f.N.f.x.N.x.a.N.x.x.f.c.x.f.N.",
"N.f.x.N.x.x.c.N.c.x.N.f.N.x.f.x.C.f.x.N.x.x.c.C.L K - $.y.M & .   : / $.O.$   k.c.x.N.f.N.x.f.x.C.f.x.N.x.x.c.C.c.x.N.f.N.x.f.x.",
"N.x.f.x.x.x.x.N.x.x.x.N.f.x.x.f.N.x.x.x.a.x.C.x.x.j.  $ 6 & O 1 D & > 5 $   I N.x.x.x.N.f.x.x.f.N.x.x.x.a.x.C.x.x.x.x.N.x.x.x.x.",
"x.x.f.x.N.x.f.x.x.x.x.N.x.x.x.f.x.x.N.c.x.a.N.x.z.f.i.h.    1 d.s.<     k.a.f.x.x.x.x.N.x.x.x.f.x.x.N.c.x.a.N.x.x.f.s.N.x.x.s.f.",
"f.x.x.N.x.x.x.c.x.C.c.x.c.x.N.x.f.x.x.N.s.x.x.x.N.c.f.z.s.m.d.x.f.j.s.m.z.z.x.c.x.C.c.x.c.x.N.x.f.x.x.N.s.x.x.x.N.c.f.x.x.N.f.x.",
"x.f.x.N.x.N.x.f.x.x.C.x.x.x.c.N.x.x.a.N.a.N.x.a.z.N.f.x.a.x.f.N.x.f.x.N.x.N.x.f.x.x.C.x.x.x.c.N.x.x.a.N.a.N.x.a.x.N.f.x.a.x.f.N.",
"x.f.x.x.f.c.f.c.x.x.N.f.x.x.x.N.x.N.c.x.s.f.x.x.x.N.x.x.x.x.x.N.x.f.x.x.f.c.f.c.x.x.N.f.x.x.x.N.x.N.c.x.s.f.x.x.x.N.x.x.x.x.x.N.",
"x.N.c.f.x.x.x.x.f.x.x.x.f.x.N.f.x.x.N.x.f.x.c.N.x.x.x.x.N.x.N.f.x.N.c.f.x.x.x.x.f.x.x.x.f.x.N.f.x.x.N.x.f.x.c.N.x.x.x.x.N.x.N.f.",
"f.x.N.f.c.C.x.f.x.x.c.x.f.x.x.N.f.a.N.a.f.x.N.x.x.x.N.x.x.N.x.N.f.x.N.f.c.C.x.f.x.x.c.x.f.x.x.N.f.a.N.a.f.x.N.x.x.x.N.x.x.N.x.N.",
"x.f.N.x.C.x.x.f.x.f.x.x.x.c.x.N.x.a.a.a.a.x.N.x.f.s.x.N.x.f.x.N.x.f.N.x.C.x.x.f.x.f.x.x.x.c.x.N.x.a.a.a.a.x.N.x.f.s.x.N.x.f.x.N.",
"s.f.x.x.N.f.x.x.x.x.f.C.c.x.x.x.s.f.s.N.c.x.x.x.N.f.x.x.f.s.x.x.s.f.x.x.N.f.x.x.x.x.f.C.c.x.x.x.s.f.s.N.c.x.x.x.N.f.x.x.f.s.x.x.",
"N.c.x.f.x.x.f.N.c.x.f.x.C.x.f.x.N.x.f.x.c.C.x.a.s.f.x.C.c.N.a.x.N.c.x.f.x.x.f.N.c.x.f.x.C.x.f.x.N.x.f.x.c.C.x.a.s.f.x.C.c.N.a.x.",
"c.N.f.x.c.x.f.x.N.x.c.x.N.f.x.a.x.x.f.x.C.x.x.x.N.c.x.x.C.x.x.a.c.N.f.x.c.x.f.x.N.x.c.x.N.f.x.a.x.x.f.x.C.x.x.x.N.c.x.x.C.x.x.a.",
"x.x.f.x.x.x.x.x.N.x.x.x.x.f.x.x.x.N.x.x.N.x.f.s.x.N.x.a.N.a.x.x.x.x.f.x.x.x.x.x.N.x.x.x.x.f.x.x.x.N.x.x.N.x.f.s.x.N.x.a.N.a.x.x.",
"x.C.c.x.N.c.N.x.x.x.f.x.c.x.x.f.x.x.N.s.f.c.N.f.x.N.x.a.a.x.s.f.x.C.c.x.N.c.N.x.x.x.f.x.c.x.x.f.x.x.N.s.f.c.N.f.x.N.x.a.a.x.s.f.",
"f.x.C.x.x.N.c.x.c.x.x.f.x.c.x.x.f.s.N.f.x.N.a.f.a.x.f.s.x.N.f.x.f.x.C.x.x.N.c.x.c.x.x.f.x.c.x.x.f.s.N.f.x.N.a.f.a.x.f.s.x.N.f.x.",
"x.f.N.f.x.N.x.a.N.x.x.f.c.x.f.N.x.f.x.f.x.N.x.a.a.N.x.f.c.x.f.N.x.f.N.f.x.N.x.a.N.x.x.f.c.x.f.N.x.f.x.f.x.N.x.a.a.N.x.f.c.x.f.N."
};
