/* XPM */
static char *walkd21750930846[] = {
/* columns rows colors chars-per-pixel */
"64 64 206 2 ",
"   c #040101",
".  c #0C0506",
"X  c #040B03",
"o  c #130706",
"O  c #1C0C07",
"+  c #16070B",
"@  c #150D0C",
"#  c #1B0D0C",
"$  c #071204",
"%  c #131205",
"&  c #17150A",
"*  c #1E0F12",
"=  c #1E1612",
"-  c #210E0C",
";  c #24130D",
":  c #33170D",
">  c #241514",
",  c #2C1513",
"<  c #2E1A16",
"1  c #2B1C1B",
"2  c #331A14",
"3  c #331C1B",
"4  c #3A1F19",
"5  c #122B0A",
"6  c #1B390A",
"7  c #21280B",
"8  c #252911",
"9  c #31211E",
"0  c #38271C",
"q  c #2B3111",
"w  c #373A15",
"e  c #291820",
"r  c #331E20",
"t  c #2F2327",
"y  c #332422",
"u  c #3A2926",
"i  c #332628",
"p  c #3A2629",
"a  c #352A2A",
"s  c #3C2D2A",
"d  c #353120",
"f  c #3D302D",
"g  c #352B32",
"h  c #382D30",
"j  c #3B3233",
"k  c #512F0E",
"l  c #46271A",
"z  c #4F2C1B",
"x  c #552A17",
"c  c #5B3312",
"v  c #5C321C",
"b  c #6C390E",
"n  c #6D3518",
"m  c #663918",
"M  c #442A24",
"N  c #412E2B",
"B  c #552A26",
"V  c #4C3425",
"C  c #42312D",
"Z  c #533623",
"A  c #453533",
"S  c #4B3B38",
"D  c #5A3536",
"F  c #663D20",
"G  c #6B3F33",
"H  c #1C4419",
"J  c #294C0D",
"K  c #265A0D",
"L  c #38500F",
"P  c #2B4612",
"I  c #335A13",
"U  c #3A5818",
"Y  c #2F6F0E",
"T  c #32620B",
"R  c #3A6513",
"E  c #367B14",
"W  c #3A7818",
"Q  c #344A20",
"!  c #2A6C27",
"~  c #2E7A2C",
"^  c #3A722B",
"/  c #6B481D",
"(  c #48691A",
")  c #4C7616",
"_  c #4F4D2A",
"`  c #52423D",
"'  c #5F433C",
"]  c #6A4126",
"[  c #774B29",
"{  c #466623",
"}  c #507521",
"|  c #544542",
" . c #594844",
".. c #5C4B45",
"X. c #5C4E4B",
"o. c #5B524A",
"O. c #534C50",
"+. c #5D5254",
"@. c #624844",
"#. c #624E4B",
"$. c #704F48",
"%. c #62544E",
"&. c #6A574E",
"*. c #77564A",
"=. c #655552",
"-. c #665A56",
";. c #6A5955",
":. c #6C5E59",
">. c #715F58",
",. c #6D625C",
"<. c #76645A",
"1. c #6F6261",
"2. c #7B6B68",
"3. c #98470B",
"4. c #824815",
"5. c #9D5111",
"6. c #A34D0D",
"7. c #B95B06",
"8. c #AF5810",
"9. c #B55C10",
"0. c #BA6109",
"q. c #B36D30",
"w. c #C15C04",
"e. c #C26205",
"r. c #C96305",
"t. c #CC6A08",
"y. c #D06302",
"u. c #D46C04",
"i. c #DB6C01",
"p. c #D57007",
"a. c #DB7202",
"s. c #D5710D",
"d. c #C76914",
"f. c #E37100",
"g. c #CB7226",
"h. c #855C44",
"j. c #80614E",
"k. c #986A45",
"l. c #B75D78",
"z. c #89716C",
"x. c #817574",
"c. c #3B8614",
"v. c #3F8F16",
"b. c #3A9311",
"n. c #3D9815",
"m. c #328530",
"M. c #4D8919",
"N. c #419C17",
"B. c #469418",
"V. c #56981D",
"C. c #44A318",
"Z. c #58AC14",
"A. c #59A319",
"S. c #679D20",
"D. c #5FA220",
"F. c #69BA22",
"G. c #70C725",
"H. c #7CC028",
"J. c #DA862A",
"K. c #DB8837",
"L. c #82DC29",
"P. c #94FF30",
"I. c #B28863",
"U. c #D08842",
"Y. c #DCA068",
"T. c #BF7084",
"R. c #978B86",
"E. c #9E9491",
"W. c #AFA39D",
"Q. c #B1A699",
"!. c #B2A9A5",
"~. c #B8B1AB",
"^. c #BDB6B4",
"/. c #D6B395",
"(. c #E6B580",
"). c #DF92A9",
"_. c #DF9EB1",
"`. c #C3B5AA",
"'. c #D3BDA1",
"]. c #C5BBB4",
"[. c #C9BAB6",
"{. c #CCBCB8",
"}. c #D9C1A9",
"|. c #C8C2B6",
" X c #CCC4BB",
".X c #D5C5B3",
"XX c #E4CBB0",
"oX c #E4D0BE",
"OX c #CEC8C3",
"+X c #CECBC9",
"@X c #D3CCC9",
"#X c #DAD4CD",
"$X c #D5D2D0",
"%X c #DCD6D6",
"&X c #DEDAD6",
"*X c #EBE2CF",
"=X c #EEE9DF",
"-X c #E6E6E4",
";X c #EEEAE5",
":X c #EEE6E8",
">X c #EDEDEA",
",X c #F3E7E5",
"<X c #EEF0ED",
"1X c #F4F3EF",
"2X c #F4F5F3",
"3X c #F7F8F5",
/* pixels */
"G.m.C.G.C.C.Z.P.Z.C.G.m.G.C.m.C.G.m.C.G.C.C.Z.G.Z.C.G.m.G.C.m.C.G.m.C.G.C.C.Z.P.Z.C.G.m.G.C.m.C.G.m.C.G.C.C.Z.G.Z.C.G.m.G.C.m.C.",
"G.C.C.C.b.C.P.C.C.C.C.G.C.C.C.C.G.C.m.C.C.C.C.G.C.C.C.G.m.C.C.m.G.C.C.C.b.C.P.C.C.C.C.G.C.C.C.C.G.C.m.C.C.C.C.G.C.C.C.G.m.C.C.m.",
"C.C.G.Z.C.b.G.C.C.m.n.G.C.C.n.m.C.C.m.C.P.C.m.C.C.C.C.G.C.C.C.m.C.C.G.Z.C.b.G.C.C.m.n.G.C.C.n.m.C.C.m.C.P.C.m.C.C.C.C.G.C.C.C.m.",
"m.C.C.G.n.C.C.C.G.Z.m.C.C.G.P.C.m.C.C.P.C.C.C.Z.C.G.Z.C.Z.C.G.C.m.C.C.G.N.C.C.C.G.Z.m.C.C.G.P.C.m.C.C.P.C.C.C.Z.C.G.Z.C.Z.C.G.C.",
"C.C.b.G.b.G.C.b.C.G.m.C.b.C.m.P.C.m.C.G.C.G.C.m.C.C.G.C.C.C.Z.G.C.C.b.G.b.G.C.b.C.G.m.C.b.C.m.P.C.m.C.G.C.G.C.m.C.C.G.C.C.C.Z.G.",
"C.G.Z.C.n.m.C.C.C.G.C.C.C.C.C.G.C.m.C.C.m.Z.m.Z.C.C.G.m.C.C.C.G.C.G.Z.C.n.m.C.C.C.G.C.C.C.C.C.G.C.m.C.C.m.Z.m.Z.C.C.G.m.C.C.C.G.",
"C.C.G.C.m.C.Z.P.C.C.C.C.G.C.G.m.C.G.Z.m.C.C.C.C.m.C.C.C.m.C.G.m.C.C.G.C.m.C.Z.P.C.C.C.C.G.C.G.m.C.G.Z.m.C.C.C.C.m.C.C.C.m.C.G.m.",
"m.b.G.b.m.C.P.C.C.C.G.C.C.G.C.G.m.C.G.m.Z.P.C.m.C.C.Z.C.m.C.C.G.m.b.G.b.m.C.P.C.C.C.G.C.C.G.C.G.m.C.G.m.Z.P.C.m.C.C.Z.C.m.C.C.G.",
"C.b.b.b.b.C.G.C.m.n.C.G.C.m.C.G.C.m.G.C.P.C.C.m.C.m.C.C.C.Z.C.G.C.b.b.b.b.C.G.C.m.n.C.G.C.m.C.G.C.m.G.C.P.C.C.m.C.m.C.C.C.Z.C.G.",
"n.m.n.G.Z.C.C.C.G.m.C.C.m.n.C.C.b.m.C.C.G.m.C.C.C.C.m.P.Z.C.C.C.n.m.n.G.Z.C.C.C.G.m.C.C.m.n.C.C.n.m.C.C.G.m.C.C.C.C.m.P.Z.C.C.C.",
"G.C.m.C.Z.G.C.b.n.m.C.P.Z.G.b.C.G.Z.C.m.C.C.m.G.Z.C.m.C.P.C.m.C.G.C.m.C.Z.G.C.b.n.m.C.P.Z.G.b.C.G.Z.C.m.C.C.m.G.Z.C.m.C.P.C.m.C.",
"C.C.m.C.G.C.C.C.G.Z.C.C.P.C.C.b.Z.G.m.C.Z.C.m.C.G.C.Z.C.G.m.C.b.C.C.m.C.G.C.C.C.G.Z.C.C.P.C.C.b.Z.G.m.C.Z.C.m.C.G.C.Z.C.G.m.C.b.",
"C.P.C.C.G.C.m.n.C.G.C.b.G.b.C.C.C.C.m.C.C.C.C.C.G.C.C.C.C.m.C.C.C.P.C.C.G.C.m.n.C.G.C.b.G.b.C.C.C.C.m.C.C.C.C.C.G.C.C.C.C.m.C.C.",
"C.C.P.n.m.Z.G.m.C.G.C.b.b.C.n.m.C.G.Z.C.G.Z.G.C.C.C.m.C.Z.N.C.H # l H.n.m.Z.G.m.C.G.C.b.b.C.n.m.C.G.Z.C.G.Z.G.C.C.C.m.C.Z.C.C.m.",
"m.n.G.m.C.G.b.m.b.C.m.n.C.G.m.C.m.C.G.C.C.G.Z.C.Z.C.C.m.N.Z.{ +.;.u o ! C.G.b.m.b.C.m.n.C.G.m.C.m.C.G.C.C.G.Z.C.Z.C.C.m.C.Z.C.C.",
"C.m.C.m.C.G.C.b.b.G.C.m.Z.C.m.P.C.m.G.m.C.G.C.b.G.C.C.m.A.^ ;./..X..o ! C.G.C.b.b.G.C.m.Z.C.m.P.C.m.G.m.C.G.C.b.G.C.C.m.Z.C.m.G.",
"G.m.C.G.C.C.Z.G.Z.C.G.m.G.C.m.C.P.m.C.G.C.C.Z.P.Z.C.G.m.V.1 h.(.'.G # V.C.C.Z.G.Z.C.G.m.G.C.m.C.P.m.C.G.C.C.Z.P.Z.C.G.m.G.C.m.C.",
"G.C.m.C.C.C.C.G.C.C.C.G.m.C.C.m.G.C.C.C.b.C.P.C.C.C.C.G.E < n d.g.c + c.C.C.C.G.C.C.C.G.m.C.C.m.G.C.C.C.b.C.P.C.C.C.C.G.C.C.C.C.",
"C.C.m.C.G.C.m.C.C.C.C.G.C.C.C.m.C.C.G.Z.C.b.G.C.C.m.n.G.E , m 3.6.x + c.G.C.m.C.C.C.C.G.C.C.C.m.C.C.G.Z.C.b.G.C.C.m.n.G.C.C.n.m.",
"m.C.C.G.C.C.C.Z.C.P.Z.C.Z.C.G.C.m.C.C.G.n.C.C.C.G.Z.m.C.E > l v v 4 # A.C.C.C.Z.C.P.Z.C.Z.C.G.C.m.C.C.G.n.C.C.C.G.Z.m.C.C.G.m.C.",
"C.m.C.G.C.G.C.m.C.C.P.C.C.C.Z.G.C.C.b.G.b.G.C.b.C.G.m.C.Y > p i i r * D.C.G.C.m.C.C.P.C.C.C.Z.G.C.C.b.G.b.G.C.b.C.G.m.C.b.C.m.G.",
"C.m.C.C.m.Z.m.Z.C.C.G.m.C.C.C.G.C.G.Z.C.n.m.C.C.C.G.C.C.E > i t r r > c.m.Z.m.Z.C.C.G.m.C.C.C.G.C.G.Z.C.n.m.C.C.C.G.C.C.C.C.C.G.",
"C.G.Z.m.C.C.C.C.m.C.C.C.m.C.G.m.C.C.G.C.m.C.Z.G.C.C.C.C.S.x m m [ <.%.^ C.C.C.C.m.C.C.C.m.C.G.m.C.C.G.C.m.C.Z.G.C.C.C.C.G.C.G.m.",
"m.C.G.m.Z.P.C.m.C.C.Z.C.m.C.C.G.m.b.G.b.m.C.G.C.C.C.G.B.v 3.w.w.q.}.Q.o.7 P.C.m.C.C.Z.C.m.C.C.G.m.b.G.b.m.C.G.C.C.C.G.C.C.G.C.G.",
"C.m.G.C.P.C.C.m.C.m.C.C.C.Z.C.G.C.b.b.b.b.C.G.C.m.n.B./ 3.r.f.p.K.oX`.| ; C.C.m.C.m.C.C.C.Z.C.G.C.b.b.b.b.C.G.C.m.n.C.G.C.m.C.G.",
"n.m.C.C.G.m.C.C.C.C.m.P.Z.C.C.C.n.m.n.G.Z.C.C.7 A # l 9.f.f.8.m S o.| a y = # 0 _ C.m.P.Z.C.C.C.n.m.n.G.Z.C.C.C.G.m.C.C.m.n.C.C.",
"G.Z.C.m.C.C.m.G.Z.C.m.C.P.C.m.C.G.C.m.C.Z.P.C.& i <.G 5.p.g.q.' g a a u p %.>.r _ N.m.C.P.C.m.C.G.C.m.C.Z.P.C.b.n.m.C.P.Z.G.b.C.",
"Z.G.m.C.Z.C.m.C.G.C.Z.C.G.m.C.b.C.C.m.C.P.C.C.& s @XW.@.j.].OX1.a g a a | @XOX#.w C.Z.C.G.m.C.B.C.C.m.C.P.C.C.C.G.Z.C.C.P.C.C.b.",
"C.C.m.C.C.C.C.C.G.C.C.C.C.m.C.C.C.G.C.C.G.C.m.% A :X%Xx.-.!.^.-.i a s S 2.1X&X>.q C.C.C.C.m.C.C.C.G.C.C.G.C.m.n.C.G.C.b.G.b.C.C.",
"C.P.Z.C.G.Z.G.C.C.C.m.C.Z.C.C.m.C.C.G.n.m.Z.G.% A ,X>X^.x.+.O.g t i A R.].3X#X;.q C.m.C.Z.C.C.m.C.C.G.n.m.Z.G.m.C.G.C.b.b.C.n.m.",
"m.C.P.C.C.G.Z.C.Z.C.C.m.C.Z.C.C.m.n.G.m.C.G.b.% A ,X<X}.I.[ F F Z M A x.!.3X&X%.q C.C.m.C.Z.C.C.m.n.G.m.C.G.b.m.b.C.m.n.C.G.m.C.",
"C.m.G.m.C.G.C.b.G.C.C.m.Z.C.m.G.C.m.C.m.C.G.C.% A >X=XY.s.r.r.r.9.Z a A 1.2X#X%.w C.C.m.Z.C.m.G.C.m.C.m.C.G.C.b.b.G.C.m.Z.C.m.G.",
"G.m.C.G.C.C.Z.P.Z.C.G.m.G.C.m.C.G.m.C.G.C.C.) k [ oXXXK.i.u.u.e.5.Z a f ` |.!.| 0 W G.~ G.C.m.C.G.m.C.G.C.C.Z.G.Z.C.G.m.G.C.m.C.",
"G.C.C.C.b.C.P.C.C.C.C.G.C.C.C.C.G.C.m.) L J c 8.9.U.K.s.u.u.e.4.V f f f j -.=.A u d U { ) C.C.C.G.C.m.C.C.C.C.G.C.C.C.G.m.C.C.m.",
"C.C.G.Z.C.b.G.C.C.m.n.G.C.C.n.m.C.C.m.L ; , v d.p.p.u.u.u.u.0.] j j h f f C C s N u y 8 I C.n.m.C.C.m.C.P.C.m.C.C.C.C.G.C.C.C.m.",
"m.C.C.G.n.C.C.C.G.Z.m.C.C.G.P.C.m.C.C.L.P p v t.a.u.u.u.a.a.7.F j j j h C f f N N u y q v.G.P.C.m.C.C.P.C.C.C.Z.C.G.Z.C.Z.C.G.C.",
"C.C.b.G.b.G.C.b.C.G.m.C.b.C.m.P.C.m.C.G.P e x u.a.u.u.e.7.i.t.k.+.j j s s C f s N u 1 J b.C.m.P.C.m.C.G.C.G.C.m.C.C.G.C.C.C.Z.G.",
"C.G.Z.C.n.m.C.C.C.G.C.C.C.C.C.G.C.m.N.( z 3 x y.i.i.w.b b 7.K.'.~. .a p u s a u s y 0 u R C.C.G.C.m.C.C.m.Z.m.Z.C.C.G.m.C.C.C.G.",
"C.C.G.C.m.C.Z.P.C.C.C.C.G.C.G.m.C.G.Z.Q 2 > v g.J.J.q.z z g.Y.;X-XR.N y y ` ,.:.| 9 < 1 } C.G.m.C.G.Z.m.C.C.C.C.m.C.C.C.m.C.G.m.",
"m.b.G.b.m.C.P.C.C.C.G.C.C.G.C.G.m.C.G.P O 0 *.}.*X*X`.@.` !.1X2X3X&XE.C S OX&X&X|.&.> = K G.C.G.m.C.G.m.Z.P.C.m.C.C.Z.C.m.C.C.G.",
"C.b.b.b.b.C.G.C.m.n.C.G.C.m.C.G.C.m.G.C.U @ $. X;X3X$X2.,.@X3X:X,X2X%X;.+.2X2X>X|.` . I C.m.C.G.C.m.G.C.P.C.C.m.C.m.C.C.C.Z.C.G.",
"n.m.n.G.Z.C.C.C.G.m.C.C.m.n.C.C.n.m.C.C.R X > X.R.,X2X&X$X1X,X_.).,X2X$X+X3X>X!...@ X T m.n.C.C.n.m.C.C.G.m.C.C.C.C.m.P.Z.C.C.C.",
"G.C.m.C.Z.G.C.b.n.m.C.P.Z.G.b.C.G.Z.C.m.N.K X . ` ].$X+X+X@X{.T.l.[.OXOX+X$X^.| @ X K P.Z.G.b.C.G.Z.C.m.C.C.m.G.Z.C.m.C.P.C.m.C.",
"N.C.m.C.G.C.C.C.G.Z.C.C.P.C.C.b.Z.G.m.C.Z.C.H 6 = ..&.X.X.%.@.D D  .|  .X.=.| & J T C.C.P.C.C.b.Z.G.m.C.Z.C.m.C.G.C.Z.C.G.m.C.b.",
"C.P.C.C.G.C.m.n.C.G.C.b.G.b.C.C.C.C.m.C.N.C.C.C.I @ < 2 , , , > - , 9 &.;.2 > X C.G.C.b.G.b.C.C.C.C.m.C.C.C.C.C.G.C.C.C.C.m.C.C.",
"C.C.P.n.m.Z.G.m.C.G.C.b.b.C.n.m.C.G.Z.C.G.Z.G.C.C.K o : : : : .   -  .|.OXM # $ C.G.C.b.b.C.n.m.C.G.Z.C.G.Z.G.C.C.C.m.C.Z.C.C.m.",
"m.n.G.m.C.G.b.m.b.C.m.n.C.G.m.C.m.C.G.C.C.G.Z.C.Z.C.K # O O %     - D ].].4 o $ b.C.m.n.C.G.m.C.m.C.G.C.C.G.Z.C.Z.C.C.m.C.Z.C.C.",
"C.m.C.m.C.G.C.b.b.G.C.m.Z.C.m.P.C.m.G.m.C.G.C.b.G.C.n.P     5 M.6 4 M 2.z.B 2 X b.G.C.m.Z.C.m.P.C.m.G.m.C.G.C.b.G.C.C.m.Z.C.m.G.",
"G.m.C.G.C.C.Z.G.Z.C.G.m.G.C.m.C.P.m.C.G.C.C.Z.P.Z.C.G.~ V.E ! C.I O ; > r 2 > V.Z.C.G.m.G.C.m.C.P.m.C.G.C.C.Z.P.Z.C.G.m.G.C.m.C.",
"G.C.m.C.C.C.C.G.C.C.C.G.m.C.C.m.G.C.C.C.b.C.P.C.C.C.C.G.C.C.C.C.F.5         n.G.C.C.C.G.m.C.C.m.G.C.C.C.b.C.P.C.C.C.C.G.C.C.C.C.",
"C.C.m.C.G.C.m.C.C.C.C.G.C.C.C.m.C.C.G.Z.C.b.G.C.C.m.n.G.C.C.n.m.C.N.~ N.F.n.m.C.C.C.C.G.C.C.C.m.C.C.G.Z.C.b.G.C.C.m.n.G.C.C.n.m.",
"m.C.C.G.C.C.C.Z.C.P.Z.C.Z.C.G.C.m.C.C.G.n.C.C.C.G.Z.m.C.C.G.m.C.m.C.C.G.C.C.C.Z.C.P.Z.C.Z.C.G.C.m.C.C.G.n.C.C.C.G.Z.m.C.C.G.m.C.",
"C.m.C.G.C.G.C.m.C.C.P.C.C.C.Z.G.C.C.b.G.b.G.C.b.C.G.m.C.b.C.m.G.C.m.C.G.C.G.C.m.C.C.P.C.C.C.Z.G.C.C.b.G.b.G.C.b.C.G.m.C.b.C.m.G.",
"C.m.C.C.m.Z.m.Z.C.C.G.m.C.C.C.G.C.G.Z.C.n.m.C.C.C.G.C.C.C.C.C.G.C.m.C.C.m.Z.m.Z.C.C.G.m.C.C.C.G.C.G.Z.C.n.m.C.C.C.G.C.C.C.C.C.G.",
"C.G.Z.m.C.C.C.C.m.C.C.C.m.C.G.m.C.C.G.C.m.C.Z.G.C.C.C.C.G.C.G.m.C.G.Z.m.C.C.C.C.m.C.C.C.m.C.G.m.C.C.G.C.m.C.Z.G.C.C.C.C.G.C.G.m.",
"m.C.G.m.Z.P.C.m.C.C.Z.C.m.C.C.G.m.b.G.b.m.C.G.C.C.C.G.C.C.G.C.G.m.C.G.m.Z.P.C.m.C.C.Z.C.m.C.C.G.m.b.G.b.m.C.G.C.C.C.G.C.C.G.C.G.",
"C.m.G.C.P.C.C.m.C.m.C.C.C.Z.C.G.C.b.b.b.b.C.G.C.m.n.C.G.C.m.C.G.C.m.G.C.P.C.C.m.C.m.C.C.C.Z.C.G.C.b.b.b.b.C.G.C.m.n.C.G.C.m.C.G.",
"n.m.C.C.G.m.C.C.C.C.m.P.Z.C.C.C.n.m.n.G.Z.C.C.C.G.m.C.C.m.n.C.C.n.m.C.C.G.m.C.C.C.C.m.P.Z.C.C.C.n.m.n.G.Z.C.C.C.G.m.C.C.m.n.C.C.",
"G.Z.C.m.C.C.m.G.Z.C.m.C.P.C.m.C.G.C.m.C.Z.P.C.b.n.m.C.P.Z.G.b.C.G.Z.C.m.C.C.m.G.Z.C.m.C.P.C.m.C.G.C.m.C.Z.P.C.b.n.m.C.P.Z.G.b.C.",
"Z.G.m.C.Z.C.m.C.G.C.Z.C.G.m.C.b.C.C.m.C.P.C.C.C.G.Z.C.C.P.C.C.b.Z.G.m.C.Z.C.m.C.G.C.Z.C.G.m.C.b.C.C.m.C.P.C.C.C.G.Z.C.C.P.C.C.b.",
"C.C.m.C.C.C.C.C.G.C.C.C.C.m.C.C.C.G.C.C.G.C.m.n.C.G.C.b.G.b.C.C.C.C.m.C.C.C.C.C.G.C.C.C.C.m.C.C.C.G.C.C.G.C.m.n.C.G.C.b.G.b.C.C.",
"C.P.Z.C.G.Z.G.C.C.C.m.C.Z.C.C.m.C.C.G.n.m.Z.G.m.C.G.C.b.b.C.n.m.C.P.Z.C.G.Z.G.C.C.C.m.C.Z.C.C.m.C.C.G.n.m.Z.G.m.C.G.C.b.b.C.n.m.",
"m.C.P.C.C.G.Z.C.Z.C.C.m.C.Z.C.C.m.n.G.m.C.G.b.m.b.C.m.n.C.G.m.C.m.C.P.C.C.G.Z.C.Z.C.C.m.C.Z.C.C.m.n.G.m.C.G.b.m.b.C.m.n.C.G.m.C.",
"C.m.G.m.C.G.C.b.G.C.C.m.Z.C.m.G.C.m.C.m.C.G.C.b.b.G.C.m.Z.C.m.G.C.m.G.m.C.G.C.b.G.C.C.m.Z.C.m.G.C.m.C.m.C.G.C.b.b.G.C.m.Z.C.m.G."
};
