/* XPM */
static char *walkd31750930846[] = {
/* columns rows colors chars-per-pixel */
"64 64 205 2 ",
"   c #030201",
".  c #0A0403",
"X  c #060B01",
"o  c #0E0907",
"O  c #170907",
"+  c #150A0A",
"@  c #071204",
"#  c #0E1706",
"$  c #1C1A0A",
"%  c #180F12",
"&  c #1B1312",
"*  c #1B191B",
"=  c #25140C",
"-  c #2B170C",
";  c #221413",
":  c #271816",
">  c #2A1A15",
",  c #2C1C1A",
"<  c #331E1A",
"1  c #1D270A",
"2  c #183408",
"3  c #112F10",
"4  c #262309",
"5  c #252A0B",
"6  c #2A2913",
"7  c #292519",
"8  c #3C2115",
"9  c #34211D",
"0  c #2A3E13",
"q  c #2B331E",
"w  c #323516",
"e  c #251E26",
"r  c #2A2428",
"t  c #332523",
"y  c #392724",
"u  c #352826",
"i  c #392925",
"p  c #352A2A",
"a  c #3C2E2A",
"s  c #3D312E",
"d  c #3A3131",
"f  c #3B3337",
"g  c #492A18",
"h  c #513012",
"j  c #5B321C",
"k  c #6A350C",
"l  c #672F11",
"z  c #633215",
"x  c #613419",
"c  c #663818",
"v  c #472C27",
"b  c #422D29",
"n  c #41322E",
"m  c #4C352A",
"M  c #523523",
"N  c #563426",
"B  c #423533",
"V  c #483836",
"C  c #453B3A",
"Z  c #4D3D3B",
"A  c #573C34",
"S  c #523E3A",
"D  c #653D29",
"F  c #1A4210",
"G  c #364612",
"H  c #2E5110",
"J  c #375913",
"K  c #366714",
"L  c #377610",
"P  c #357A12",
"I  c #335228",
"U  c #2D752A",
"Y  c #2E752C",
"T  c #785215",
"R  c #4F7918",
"E  c #455A26",
"W  c #4B4439",
"Q  c #594337",
"!  c #754729",
"~  c #644432",
"^  c #4C3E41",
"/  c #544544",
"(  c #584843",
")  c #5E4A45",
"_  c #5B4D4A",
"`  c #5F514D",
"'  c #554F53",
"]  c #654D48",
"[  c #62514B",
"{  c #6E584A",
"}  c #785743",
"|  c #635552",
" . c #695855",
".. c #6B5B57",
"X. c #6B5B59",
"o. c #715854",
"O. c #6C605C",
"+. c #71635D",
"@. c #6E6160",
"#. c #736463",
"$. c #776B67",
"%. c #7F7169",
"&. c #984D0C",
"*. c #A64E07",
"=. c #AC5406",
"-. c #B85A07",
";. c #AC5C14",
":. c #BD6407",
">. c #B17136",
",. c #C85C02",
"<. c #CC6702",
"1. c #D36501",
"2. c #DC6601",
"3. c #D46C04",
"4. c #D96D03",
"5. c #D5710A",
"6. c #CE7216",
"7. c #E16500",
"8. c #C47C23",
"9. c #936C52",
"0. c #836A66",
"q. c #927769",
"w. c #8F7B76",
"e. c #3A8515",
"r. c #3A8915",
"t. c #3C8F15",
"y. c #3A9311",
"u. c #3D9815",
"i. c #31812E",
"p. c #328530",
"a. c #488819",
"s. c #51881A",
"d. c #419A16",
"f. c #54951C",
"g. c #43A217",
"h. c #44A318",
"j. c #58AC14",
"k. c #669F23",
"l. c #5FA420",
"z. c #67AA24",
"x. c #68B621",
"c. c #6CC123",
"v. c #70C725",
"b. c #468841",
"n. c #D48227",
"m. c #C88335",
"M. c #D88634",
"N. c #94FF30",
"B. c #BB8957",
"V. c #8E817E",
"C. c #A88368",
"Z. c #CB8E4E",
"A. c #D58C41",
"S. c #DC9846",
"D. c #DC9952",
"F. c #CF9E69",
"G. c #90CA56",
"H. c #D36A87",
"J. c #8F8481",
"K. c #958887",
"L. c #A38B87",
"P. c #A99289",
"I. c #A79792",
"U. c #BA9E9A",
"Y. c #AAA09B",
"T. c #B6A39A",
"R. c #B7ABA3",
"E. c #BEB4AE",
"W. c #BDB5B2",
"Q. c #BDB9B8",
"!. c #D3B58F",
"~. c #DF91A9",
"^. c #C6B8AB",
"/. c #D7BAA9",
"(. c #DCAFB3",
"). c #C4BBB5",
"_. c #C6BCBA",
"`. c #DBBCB6",
"'. c #E2C399",
"]. c #D9C4AC",
"[. c #D5C8B9",
"{. c #E4C7A2",
"}. c #D6BEC7",
"|. c #CDC7C5",
" X c #D4CCC4",
".X c #D3CDCB",
"XX c #DBD3CB",
"oX c #DCD6D4",
"OX c #DED9D6",
"+X c #DEDBD9",
"@X c #EACCD3",
"#X c #E2DDDB",
"$X c #EAE2D9",
"%X c #F0E4D3",
"&X c #EFDEE1",
"*X c #E7E4E3",
"=X c #E9E5E3",
"-X c #EBE9E5",
";X c #EDECEB",
":X c #F0EDE3",
">X c #F1EDEB",
",X c #F2F1EF",
"<X c #F5F5F2",
"1X c #F7F8F6",
"2X c #F9F8F5",
/* pixels */
"v.p.h.v.h.h.j.N.j.h.v.p.v.h.p.h.v.p.h.v.h.h.j.v.j.h.v.p.v.h.p.h.v.p.h.v.h.h.j.N.j.h.v.p.v.h.p.h.v.p.h.v.h.h.j.v.j.h.v.p.v.h.p.h.",
"v.h.h.h.y.h.N.h.h.h.h.v.h.h.h.h.v.h.p.h.h.h.h.v.h.h.h.v.p.h.h.p.v.h.h.h.y.h.N.h.h.h.h.v.h.h.h.h.v.h.p.h.h.h.h.v.h.h.h.v.p.h.h.p.",
"h.h.v.j.h.y.v.h.h.p.u.v.h.h.u.p.h.h.p.h.N.h.p.h.h.h.h.v.h.h.h.p.h.h.v.j.h.y.v.h.h.p.u.v.h.h.u.p.h.h.p.h.N.h.p.h.h.h.h.v.h.h.h.p.",
"p.h.h.v.u.h.h.h.v.j.p.h.h.v.N.h.p.h.h.N.h.h.h.j.h.v.j.h.j.h.v.h.p.h.h.v.u.h.h.h.v.j.p.h.h.v.N.h.p.h.h.N.h.h.h.j.h.v.j.h.j.h.v.h.",
"h.h.y.v.y.v.h.y.h.v.p.h.y.h.p.N.h.p.h.v.h.v.h.p.h.h.v.h.h.h.j.v.h.h.y.v.y.v.h.y.h.v.p.h.y.h.p.N.h.p.h.v.h.v.h.p.h.h.v.h.h.h.j.v.",
"h.v.j.h.u.p.h.h.h.v.h.h.h.h.h.v.h.p.h.h.p.j.p.j.h.h.v.p.h.h.h.v.h.v.j.h.u.p.h.h.h.v.h.h.h.h.h.v.h.p.h.h.p.j.p.j.h.h.v.p.h.h.h.v.",
"h.h.v.h.p.h.j.N.h.h.h.h.v.h.v.p.h.v.j.p.h.h.h.h.p.h.h.h.p.h.v.p.h.h.v.h.p.h.j.N.h.h.h.h.v.h.v.p.h.v.j.p.h.h.h.h.p.h.h.h.p.h.v.p.",
"p.y.v.y.p.h.N.h.h.h.v.h.h.v.h.v.p.h.v.p.j.N.h.p.h.h.j.h.p.h.h.v.p.y.v.y.p.h.N.h.h.h.v.h.h.v.h.v.p.h.v.p.j.N.h.p.h.h.j.h.p.h.h.v.",
"h.y.y.y.y.h.v.h.p.u.h.v.h.p.h.v.h.p.v.h.N.h.h.p.h.p.h.h.h.j.h.v.h.y.y.y.y.h.v.h.p.u.h.v.h.p.h.v.h.p.v.h.N.h.h.p.h.p.h.h.h.j.h.v.",
"u.p.u.v.j.h.h.h.v.p.h.h.p.u.h.h.u.p.h.h.v.p.h.h.h.h.p.N.j.h.h.h.u.p.u.v.j.h.h.h.v.p.h.h.p.u.h.h.u.p.h.h.v.p.h.h.h.h.p.N.j.h.h.h.",
"v.h.p.h.j.v.h.y.u.p.h.N.j.v.y.h.v.j.h.p.h.h.p.v.j.h.p.h.N.h.p.h.v.h.p.h.j.v.h.y.u.p.h.N.j.v.y.h.v.j.h.p.h.h.p.v.j.h.p.h.N.h.p.h.",
"h.h.i.h.v.h.h.h.v.j.h.h.N.h.h.y.j.v.p.h.j.h.p.h.v.h.j.h.v.p.h.u.h.h.p.h.v.h.h.h.v.j.h.h.N.h.h.y.j.v.p.h.j.h.p.h.v.h.j.h.v.p.h.y.",
"h.N.h.h.v.h.p.u.h.v.h.y.v.y.h.h.h.h.p.h.h.h.h.h.v.h.h.a.q 6 K h.h.N.h.h.v.h.p.u.h.v.h.y.v.y.h.h.h.h.p.h.h.h.h.h.v.h.h.h.h.p.h.h.",
"h.h.N.u.p.j.v.p.h.v.h.y.y.h.u.p.h.v.j.h.v.j.v.h.h.h.Y + 9 ) W I h.h.N.u.p.j.v.p.h.v.h.y.y.h.u.p.h.v.j.h.v.j.v.h.h.h.p.h.j.h.h.p.",
"p.u.v.p.h.v.y.p.y.h.p.u.h.v.p.h.p.h.v.h.h.v.j.h.j.h.y.; O..XE.` X.|.G.p.h.v.y.p.y.h.p.u.h.v.p.h.p.h.v.h.h.v.j.h.j.h.h.p.h.j.h.h.",
"h.p.h.p.h.v.h.y.y.v.h.p.j.h.p.N.h.p.v.p.h.v.h.y.v.h.t.+ O.XX].! } ^.Y.b.h.v.h.y.y.v.h.p.j.h.p.N.h.p.v.p.h.v.h.y.v.h.h.p.j.h.p.v.",
"v.p.h.v.h.h.j.v.j.h.v.p.v.h.p.h.N.p.h.v.h.h.j.N.j.h.z.o [ [.!.8.&.! d z.h.h.j.v.j.h.v.p.v.h.p.h.N.p.h.v.h.h.j.N.j.h.v.p.v.h.p.h.",
"v.h.p.h.h.h.h.v.h.h.h.v.p.h.h.p.v.h.h.h.y.h.N.h.h.h.y.1 V T.F.n.;.x : e.h.h.h.v.h.h.h.v.p.h.h.p.v.h.h.h.y.h.N.h.h.h.h.v.h.h.h.h.",
"h.h.p.h.v.h.p.h.h.h.h.v.h.h.h.p.h.h.v.j.h.y.v.h.h.i.d.x.F Q ~ D N i ; e.v.h.p.h.h.h.h.v.h.h.h.p.h.h.v.j.h.y.v.h.h.p.u.v.h.h.u.p.",
"p.h.h.v.h.h.h.j.h.N.j.h.j.h.v.h.p.h.h.v.u.h.h.h.v.j.i.h.a.> y t r t & z.h.h.h.j.h.N.j.h.j.h.v.h.p.h.h.v.u.h.h.h.v.j.p.h.h.v.p.h.",
"h.p.h.v.h.v.h.p.h.h.N.h.h.h.j.v.h.h.y.v.y.v.h.y.h.v.i.h.K e r e r e % l.h.v.h.p.h.h.N.h.h.h.j.v.h.h.y.v.y.v.h.y.h.v.p.h.y.h.p.v.",
"h.p.h.h.p.j.p.j.h.h.v.p.h.h.h.v.h.v.j.h.u.p.h.h.h.v.h.h.a.N j x D  .[ E Y j.p.j.h.h.v.p.h.h.h.v.h.v.j.h.u.p.h.h.h.v.h.h.h.h.h.v.",
"h.v.j.p.h.h.h.h.p.h.h.h.p.h.v.p.h.h.v.h.p.h.j.v.h.h.d.2 T :.1.,.m.!.^. .0 h.h.h.p.h.h.h.p.h.v.p.h.h.v.h.p.h.j.v.h.h.h.h.v.h.v.p.",
"p.h.v.p.j.N.h.p.h.h.j.h.p.h.h.v.p.y.v.y.p.h.v.h.h.h.x.g *.1.7.,.B.].^.[ > G h.p.h.h.j.h.p.h.h.v.p.y.v.y.p.h.v.h.h.h.v.h.h.v.h.v.",
"h.p.v.h.N.h.h.p.h.p.h.h.h.j.h.v.h.y.y.y.y.h.v.I 6 6 h =.1.7.,.D Q O.[ s 9 ; 5 W E i.h.h.h.j.h.v.h.y.y.y.y.h.v.h.p.u.h.v.h.p.h.v.",
"u.p.h.h.v.p.h.h.h.h.p.N.j.h.h.h.u.p.u.v.j.h.h.6 v #.Q =.5.8.>.S s s a i a $.X.Z w h.p.N.j.h.h.h.u.p.u.v.j.h.h.h.v.p.h.h.p.u.h.h.",
"v.j.h.p.h.h.p.v.j.h.p.h.N.h.p.h.v.h.p.h.j.N.h.$ / |.R.Z { [._.@.f f p u ` |. XX.5 h.p.h.N.h.p.h.v.h.p.h.j.N.h.y.u.p.h.N.j.v.y.h.",
"j.v.p.h.j.h.p.h.v.h.j.h.v.p.h.y.h.h.p.h.N.h.h.$ ~ XX#XO.' |.Q.X.d p p u J.$X*XX.5 h.j.h.v.p.h.y.h.h.p.h.N.h.h.h.v.j.h.h.N.h.h.y.",
"h.h.p.h.h.h.h.h.v.h.h.h.h.p.h.h.h.v.h.h.v.h.i.# ] +X,X).#.' C p p u W V. X,X-XX.5 g.g.h.h.p.h.h.h.v.h.h.v.h.p.u.h.v.h.y.v.y.h.h.",
"h.N.j.h.v.j.v.h.h.h.p.h.j.h.h.p.h.h.v.u.p.j.v.@ o.+X<X/.C.A M M M i C V. X,X-XX.1 h.i.h.j.h.h.p.h.h.v.u.p.j.v.p.h.v.h.y.y.h.u.p.",
"p.h.N.h.h.v.j.h.j.h.h.p.h.j.h.h.p.u.v.p.h.v.y.@ o.#X:XD.6.<.<.<.*.N p f %.$X*X .1 g.h.i.h.j.h.h.p.u.v.p.h.v.y.p.y.h.p.u.h.v.p.h.",
"h.p.v.p.h.v.h.y.v.h.h.p.j.h.p.v.h.p.h.p.e.R R 8 } ].{.n.4.4.3.:.&.N a s ' Q.Q._ 6 K K U j.h.p.v.h.p.h.p.h.v.h.y.y.v.h.p.j.h.p.v.",
"v.p.h.v.h.h.j.N.j.h.v.p.v.h.p.h.v.p.g.k.w = j &.;.A.M.3.5.4.-.T M n s s B O.O.V 9 , > q z.h.p.h.v.p.h.v.h.h.j.v.j.h.v.p.v.h.p.h.",
"v.h.h.h.y.h.N.h.h.h.h.v.h.h.h.h.v.g.p.J 8 7 c =.3.5.5.3.3.4.-.c s d s s n B B a a y 9 7 K h.h.h.v.h.p.h.h.h.h.v.h.h.h.v.p.h.h.p.",
"h.h.v.j.h.y.v.h.h.p.u.v.h.h.u.p.g.g.p.e.z.q z -.3.3.3.3.3.4.-.j s s d s s n b b a u : G e.h.d.i.h.h.p.h.N.h.p.h.h.h.h.v.h.h.h.p.",
"p.h.h.v.u.h.h.h.v.j.p.h.h.v.N.h.i.g.g.N.K : z <.3.3.2.=.=.3.6.9.| f p d a a a a a u , H h.v.N.d.p.h.h.N.h.h.h.j.h.v.j.h.j.h.v.h.",
"h.h.y.v.y.v.h.y.h.v.p.h.y.h.p.N.g.p.h.s.4 * l -.4.1.1.k l ,.M./.Y._ s p w a i y i t t 6 K h.p.N.h.p.h.v.h.v.h.p.h.h.v.h.h.h.j.v.",
"h.v.j.h.u.p.h.h.h.v.h.h.h.h.h.v.h.p.h.J - , l m.S.D.Z.g < >.!.%X#XJ.C p a X.$.#._ p : = H h.h.v.h.p.h.h.p.j.p.j.h.h.v.p.h.h.h.v.",
"h.h.v.h.p.h.j.N.h.h.h.h.v.h.v.p.h.v.j.U 0 < 9./.%X%X XV v !.:X2X1X#XJ.C ( Q.$XOX). .u H c.h.v.p.h.v.j.p.h.h.h.h.p.h.h.h.p.h.v.p.",
"p.y.v.y.p.h.N.h.h.h.v.h.h.v.h.v.p.h.v.p.j.G ] `.<X2X-X[ / .X<X>X,X1X.XO.$.+X1X,X_._ J h.h.v.h.v.p.h.v.p.j.N.h.p.h.h.j.h.p.h.h.v.",
"h.y.y.y.y.h.v.h.p.u.h.v.h.p.h.v.h.p.v.h.N.2 & / P.;X<X|.|.;X#X~.~.=X,XXXoX<X,XI./ & F v.h.p.h.v.h.p.v.h.N.h.h.p.h.p.h.h.h.j.h.v.",
"u.p.u.v.j.h.h.h.v.p.h.h.p.u.h.h.d.p.h.h.v.i.# . / }.*X&X*X,X@XH.H.@X;X*X*X-XW./ . 3 h.h.p.u.h.h.d.p.h.h.v.p.h.h.h.h.p.N.j.h.h.h.",
"v.h.p.h.j.v.h.y.u.p.h.N.j.v.y.h.v.j.h.p.h.h.3 2 o | _ V _ I.`.(.(.}.K.] Q #./ % X 2 h.N.j.v.y.h.v.j.h.p.h.h.p.v.j.h.p.h.N.h.p.h.",
"h.h.p.h.v.h.h.h.v.j.h.h.N.h.h.y.j.v.p.h.j.h.p.h.X ; < b ^ 0.L.L.P.T.9.k g v &   J j.h.h.N.h.h.y.j.v.p.h.j.h.p.h.v.h.j.h.v.p.h.y.",
"h.N.h.h.v.h.p.u.h.v.h.y.v.y.h.h.h.h.p.h.h.h.h.h.X % m L.^.T.w.S ] P.Z.6.&.c + @ h.v.h.y.v.y.h.h.h.h.p.h.h.h.h.h.v.h.h.h.h.p.h.h.",
"h.h.N.u.p.j.v.p.h.v.h.y.y.h.u.p.h.v.j.h.v.j.v.h.X O A |.#XU.o., y 0.Z.D.m.j o @ h.v.h.y.y.h.u.p.h.v.j.h.v.j.v.h.h.h.p.h.j.h.h.p.",
"p.u.v.p.h.v.y.p.y.h.p.u.h.v.p.h.p.h.v.h.h.v.j.h.X o ] oXoXX., . O y q.].'.A . X y.h.i.u.h.v.p.h.p.h.v.h.h.v.j.h.j.h.h.p.h.j.h.h.",
"h.p.h.p.h.v.h.y.y.v.h.p.j.h.i.N.h.p.v.p.h.v.h.u.X . Z }._.Z O     O ..^./.W   @ y.v.h.p.j.h.p.N.h.p.v.p.h.v.h.y.v.h.h.p.j.h.p.v.",
"v.p.h.v.h.h.j.v.j.h.v.p.v.h.p.h.N.p.h.v.h.h.j.N.L   & #.q.N ; .   - A 0.+.:   f.j.h.v.p.v.h.p.h.N.p.h.v.h.h.j.N.j.h.v.p.v.h.p.h.",
"v.h.p.h.h.h.h.v.h.h.h.v.p.h.h.p.v.h.h.h.y.h.N.h.h.L   & < - O     = = e &   P v.h.h.h.v.p.h.h.p.v.h.h.h.y.h.N.h.h.h.h.v.h.h.h.h.",
"h.h.p.h.v.h.p.h.h.h.h.v.h.h.h.p.h.h.v.j.h.y.v.h.g.p.r.s.    2 U t.t.3   f.y.p.h.h.h.h.v.h.h.h.p.h.h.v.j.h.y.v.h.h.p.u.v.h.h.u.p.",
"p.h.h.v.h.h.h.j.h.N.j.h.j.h.v.h.p.h.h.v.u.h.h.h.v.j.p.g.u.c.p.h.i.h.u.x.h.h.h.j.h.N.j.h.j.h.v.h.p.h.h.v.u.h.h.h.v.j.p.h.h.v.p.h.",
"h.p.h.v.h.v.h.p.h.h.N.h.h.h.j.v.h.h.y.v.y.v.h.y.g.v.p.h.y.h.p.v.h.p.h.v.h.v.h.p.h.h.N.h.h.h.j.v.h.h.y.v.y.v.h.y.h.v.p.h.y.h.p.v.",
"h.p.h.h.p.j.p.j.h.h.v.p.h.h.h.v.h.v.j.h.u.p.h.h.g.v.h.h.h.h.h.v.h.p.h.h.p.j.p.j.h.h.v.p.h.h.h.v.h.v.j.h.u.p.h.h.h.v.h.h.h.h.h.v.",
"h.v.j.p.h.h.h.h.p.h.h.h.p.h.v.p.h.h.v.h.p.h.j.v.g.h.h.h.v.h.v.p.h.v.j.p.h.h.h.h.p.h.h.h.p.h.v.p.h.h.v.h.p.h.j.v.h.h.h.h.v.h.v.p.",
"p.h.v.p.j.N.h.p.h.h.j.h.p.h.h.v.i.y.v.y.p.h.v.h.h.h.v.h.h.v.h.v.p.h.v.p.j.N.h.p.h.h.j.h.p.h.h.v.p.y.v.y.p.h.v.h.h.h.v.h.h.v.h.v.",
"h.p.v.h.N.h.h.p.h.p.h.h.h.j.h.v.h.y.y.y.y.h.v.h.p.u.h.v.h.p.h.v.h.p.v.h.N.h.h.p.h.p.h.h.h.j.h.v.h.y.y.y.y.h.v.h.p.u.h.v.h.p.h.v.",
"u.p.h.h.v.p.h.h.h.h.p.N.j.h.h.h.u.p.u.v.j.h.h.h.v.p.h.h.p.u.h.h.u.p.h.h.v.p.h.h.h.h.p.N.j.h.h.h.u.p.u.v.j.h.h.h.v.p.h.h.p.u.h.h.",
"v.j.h.p.h.h.p.v.j.h.p.h.N.h.p.h.v.h.p.h.j.N.h.y.u.p.h.N.j.v.y.h.v.j.h.p.h.h.p.v.j.h.p.h.N.h.p.h.v.h.p.h.j.N.h.y.u.p.h.N.j.v.y.h.",
"j.v.p.h.j.h.p.h.v.h.j.h.v.p.h.y.h.h.p.h.N.h.h.h.v.j.h.h.N.h.h.y.j.v.p.h.j.h.p.h.v.h.j.h.v.p.h.y.h.h.p.h.N.h.h.h.v.j.h.h.N.h.h.y.",
"h.h.p.h.h.h.h.h.v.h.h.h.h.p.h.h.h.v.h.h.v.h.p.u.h.v.h.y.v.y.h.h.h.h.p.h.h.h.h.h.v.h.h.h.h.p.h.h.h.v.h.h.v.h.p.u.h.v.h.y.v.y.h.h.",
"h.N.j.h.v.j.v.h.h.h.p.h.j.h.h.p.h.h.v.u.p.j.v.p.h.v.h.y.y.h.u.p.h.N.j.h.v.j.v.h.h.h.p.h.j.h.h.p.h.h.v.u.p.j.v.p.h.v.h.y.y.h.u.p.",
"p.h.N.h.h.v.j.h.j.h.h.p.h.j.h.h.p.u.v.p.h.v.y.p.y.h.p.u.h.v.p.h.p.h.N.h.h.v.j.h.j.h.h.p.h.j.h.h.p.u.v.p.h.v.y.p.y.h.p.u.h.v.p.h.",
"h.p.v.p.h.v.h.y.v.h.h.p.j.h.p.v.h.p.h.p.h.v.h.y.y.v.h.p.j.h.p.v.h.p.v.p.h.v.h.y.v.h.h.p.j.h.p.v.h.p.h.p.h.v.h.y.y.v.h.p.j.h.p.v."
};
