/* XPM */
static char *walkl11750862862[] = {
/* columns rows colors chars-per-pixel */
"64 64 224 2 ",
"   c #020100",
".  c #090202",
"X  c #090209",
"o  c #150705",
"O  c #1C0B06",
"+  c #130C0B",
"@  c #1A0E0C",
"#  c #0A1805",
"$  c #1E100B",
"%  c #1C0F13",
"&  c #1B1618",
"*  c #230D0B",
"=  c #261409",
"-  c #24130E",
";  c #351504",
":  c #270F13",
">  c #241514",
",  c #271914",
"<  c #2C1A14",
"1  c #2C1C1B",
"2  c #341B18",
"3  c #153307",
"4  c #193513",
"5  c #28380F",
"6  c #312711",
"7  c #3E2113",
"8  c #31221C",
"9  c #3B251D",
"0  c #2C3514",
"q  c #353918",
"w  c #191D26",
"e  c #2D2423",
"r  c #222229",
"t  c #362723",
"y  c #3B2924",
"u  c #362C29",
"i  c #3B2D2B",
"p  c #353026",
"a  c #3E302D",
"s  c #372D31",
"d  c #363032",
"f  c #3C3131",
"g  c #4D2D0F",
"h  c #4A2A18",
"j  c #572B17",
"k  c #58341A",
"l  c #5C331D",
"z  c #662B0F",
"x  c #693717",
"c  c #773E14",
"v  c #422D25",
"b  c #4B2C23",
"n  c #412D2A",
"m  c #41322E",
"M  c #4A362A",
"N  c #573627",
"B  c #433532",
"V  c #493935",
"C  c #4C3D3C",
"Z  c #533A35",
"A  c #772A24",
"S  c #663A22",
"D  c #1D4C16",
"F  c #224A0C",
"G  c #31440D",
"H  c #2E530F",
"J  c #265D0D",
"K  c #2C4913",
"L  c #364618",
"P  c #2E5612",
"I  c #385A16",
"U  c #2B660F",
"Y  c #39660D",
"T  c #2F760E",
"R  c #3A6B18",
"E  c #337811",
"W  c #347A12",
"Q  c #394C25",
"!  c #285623",
"~  c #345225",
"^  c #276926",
"/  c #2E7229",
"(  c #31772D",
")  c #387031",
"_  c #7D441C",
"`  c #487519",
"'  c #4A701E",
"]  c #485B27",
"[  c #474B35",
"{  c #5B4237",
"}  c #53423D",
"|  c #694A3C",
" . c #774F38",
".. c #795136",
"X. c #476527",
"o. c #54702A",
"O. c #544442",
"+. c #5A4945",
"@. c #584947",
"#. c #544D4D",
"$. c #5B4E4C",
"%. c #5D524C",
"&. c #634D46",
"*. c #65534D",
"=. c #75594C",
"-. c #665653",
";. c #6B5B54",
":. c #6B5D5C",
">. c #6B625E",
",. c #77645D",
"<. c #736563",
"1. c #786B68",
"2. c #7E726F",
"3. c #A53705",
"4. c #954C0F",
"5. c #834415",
"6. c #9B5316",
"7. c #A54F09",
"8. c #AC570C",
"9. c #B65A09",
"0. c #A55516",
"q. c #B65A17",
"w. c #BC680F",
"e. c #905327",
"r. c #85593B",
"t. c #BB6A32",
"y. c #B8763A",
"u. c #C35503",
"i. c #C35D05",
"p. c #CC5E02",
"a. c #D35C01",
"s. c #CC6203",
"d. c #C56209",
"f. c #D36402",
"g. c #D56906",
"h. c #DB6B02",
"j. c #CF7109",
"k. c #DB7205",
"l. c #C56912",
"z. c #E36E00",
"x. c #E4780E",
"c. c #CB782E",
"v. c #805440",
"b. c #8E6852",
"n. c #B07642",
"m. c #8A7368",
"M. c #877674",
"N. c #A27B62",
"B. c #378514",
"V. c #3A8715",
"C. c #3D8C15",
"Z. c #3A9311",
"A. c #3D9815",
"S. c #328530",
"D. c #43840F",
"F. c #498716",
"G. c #429A16",
"H. c #439318",
"J. c #56971B",
"K. c #44A318",
"L. c #58AC14",
"P. c #5BA21E",
"I. c #66AD28",
"U. c #68B922",
"Y. c #6EC026",
"T. c #70C725",
"R. c #E78315",
"E. c #D58637",
"W. c #E18535",
"Q. c #93F82E",
"!. c #94FF30",
"~. c #8F817C",
"^. c #A88B77",
"/. c #D08E4F",
"(. c #D19E65",
"). c #DFAB6D",
"_. c #D57793",
"`. c #998E8C",
"'. c #A1928B",
"]. c #AEA19F",
"[. c #B5A699",
"{. c #AEA2A0",
"}. c #B5A9A6",
"|. c #BCB5B4",
" X c #D0AF91",
".X c #E2BC9B",
"XX c #D492A5",
"oX c #C5B5A8",
"OX c #DDA2B7",
"+X c #C5BBB7",
"@X c #C5C0BE",
"#X c #CDC3BC",
"$X c #D4C5B6",
"%X c #DDCAB5",
"&X c #E9CAA8",
"*X c #E2CFB7",
"=X c #CFB9C0",
"-X c #CDC7C4",
";X c #CCC8C5",
":X c #D4C9C3",
">X c #D1CDCB",
",X c #D5D1CE",
"<X c #D9D4CE",
"1X c #D5D0D1",
"2X c #DBD7D3",
"3X c #DCD9D4",
"4X c #DEDADA",
"5X c #E5DCD8",
"6X c #F0D6DE",
"7X c #ECE5D9",
"8X c #F1E5DA",
"9X c #DFE1E5",
"0X c #E5E3E3",
"qX c #ECEAE6",
"wX c #ECEBEA",
"eX c #F2EDE4",
"rX c #F2ECEB",
"tX c #F5F0EC",
"yX c #F0EFF0",
"uX c #F5F4F4",
"iX c #F7F8F6",
"pX c #FAFAF6",
"aX c #F9F7F9",
"sX c #FAFAF9",
/* pixels */
"T.S.K.T.K.K.L.!.L.K.T.S.T.K.S.K.T.S.K.T.K.K.L.T.L.K.T.S.T.K.S.K.T.S.K.T.K.K.L.!.L.K.T.S.T.K.S.K.T.S.K.T.K.K.L.T.L.K.T.S.T.K.S.K.",
"T.K.K.K.Z.K.!.K.K.K.K.T.K.K.K.K.T.K.S.K.K.K.K.T.K.K.K.T.S.K.K.S.T.K.K.K.Z.K.!.K.K.K.K.T.K.K.K.K.T.K.S.K.K.K.K.T.K.K.K.T.S.K.K.S.",
"K.K.T.L.K.Z.T.K.K.S.A.T.K.K.A.S.K.K.S.K.!.K.S.K.K.K.K.T.K.K.K.S.K.K.T.L.K.Z.T.K.K.S.A.T.K.K.A.S.K.K.S.K.!.K.S.K.K.K.K.T.K.K.K.S.",
"S.K.K.T.A.K.K.K.T.L.S.K.K.T.!.K.S.K.K.!.K.K.K.L.K.T.L.K.L.K.T.K.S.K.K.T.A.K.K.K.T.L.S.K.K.T.!.K.S.K.K.!.K.K.K.L.K.T.L.K.L.K.T.K.",
"K.K.Z.T.Z.T.K.Z.K.T.S.K.Z.K.S.!.K.S.K.T.K.T.K.S.K.K.T.K.K.K.L.T.K.K.Z.T.Z.T.K.Z.K.T.S.K.Z.K.S.!.K.S.K.T.K.T.K.S.K.K.T.K.K.K.L.T.",
"K.T.L.K.A.S.K.K.K.T.K.K.K.K.K.T.K.S.K.K.S.L.S.L.K.K.T.S.K.K.K.T.K.T.L.K.A.S.K.K.K.T.K.K.K.K.K.T.K.S.K.K.S.L.S.L.K.K.T.S.K.K.K.T.",
"K.K.T.K.S.K.L.!.K.K.K.K.T.K.T.S.K.T.L.S.K.K.K.K.S.K.K.K.S.K.T.S.K.K.T.K.S.K.L.!.K.K.K.K.T.K.T.S.K.T.L.S.K.K.K.K.S.K.K.K.S.K.T.S.",
"S.Z.T.Z.S.K.!.K.K.K.T.K.K.T.K.T.S.K.T.S.L.!.K.S.K.K.L.K.S.K.K.T.S.Z.T.Z.S.K.!.K.K.K.T.K.K.T.K.T.S.K.T.S.L.!.K.S.K.K.L.K.S.K.K.T.",
"K.Z.Z.Z.Z.K.T.K.S.A.K.T.K.S.K.T.K.S.T.K.!.K.K.S.K.S.K.K.K.L.K.T.K.Z.Z.Z.Z.K.T.K.S.A.K.T.K.S.K.T.K.S.T.K.!.K.K.S.K.S.K.K.K.L.K.T.",
"A.S.A.T.L.K.K.K.T.S.K.K.S.A.K.K.G.S.K.K.T.S.K.K.K.K.S.!.L.K.K.K.A.S.A.T.L.K.K.K.T.S.K.K.S.A.K.K.A.S.K.K.T.S.K.K.K.K.S.!.L.K.K.K.",
"T.K.S.K.L.T.K.Z.A.S.K.!.L.T.Z.K.T.L.K.S.K.K.S.T.L.K.S.K.!.K.S.K.T.K.S.K.L.T.K.Z.A.S.K.!.L.T.Z.K.T.L.K.S.K.K.S.T.L.K.S.K.!.K.S.K.",
"K.K.S.K.T.K.K.K.T.L.K.K.!.K.K.Z.L.T.S.K.L.K.S.K.T.K.L.K.T.S.K.A.K.K.S.K.T.K.K.K.T.L.K.K.!.K.K.Z.L.T.S.K.L.K.S.K.T.K.L.K.T.S.K.Z.",
"K.!.K.K.T.K.S.A.K.T.K.Z.T.Z.K.K.K.K.S.K.K.K.K.K.T.K.K.K.K.S.K.K.K.!.K.K.T.K.S.A.K.T.K.Z.T.Z.K.K.K.K.S.K.K.K.K.K.T.K.K.K.K.S.K.K.",
"K.K.!.A.S.L.T.S.K.T.K.Z.Z.K.A.S.K.T.L.K.T.L.T.K.K.K.S.K.L.K.K.S.K.K.!.A.S.L.T.S.K.T.K.Z.Z.K.A.S.K.T.L.K.T.L.T.K.K.K.S.K.L.K.K.S.",
"S.A.T.S.K.T.Z.S.Z.K.S.A.K.T.S.K.S.K.T.K.K.T.L.K.L.K.K.S.K.L.K.K.S.A.T.S.K.T.Z.S.Z.K.S.A.K.T.( A.( G.T.K.K.T.L.K.L.K.K.S.K.L.K.K.",
"K.S.K.S.K.T.K.Z.Z.T.K.S.L.K.S.!.K.S.T.S.K.T.G.A.T.K.K.S.L.K.S.T.K.S.K.S.K.T.K.Z.Z.T.K.S.L.K.~ 8 , ! U.S.K.T.K.Z.T.K.K.S.L.K.S.T.",
"T.S.K.T.K.K.L.T.L.K.T.S.T.K.S.K.!.S.G.J.W Z.L.!.L.K.T.S.T.K.S.K.T.S.K.T.K.K.L.T.L.K.T.S.T.A.K v ;.+.R U.K.K.L.!.L.K.T.S.T.K.S.K.",
"T.K.S.K.K.K.K.T.K.K.K.T.S.K.K.S.T.G.H 1 2 L T.K.K.K.K.T.K.K.K.K.T.K.S.K.K.K.K.T.K.K.K.T.S.U @ &.+X+XO.I Z.K.!.K.K.K.K.T.K.K.K.K.",
"K.K.S.K.T.K.S.K.K.K.K.T.K.K.K.S.K.B.@ M m.:.o.H.K.S.A.T.K.K.A.S.K.K.S.K.T.K.S.K.K.K.K.T.K.U + +.:X5X$.1 I Z.T.K.K.S.A.T.K.K.A.S.",
"S.K.K.T.K.K.K.L.K.!.L.K.L.K.T.K.S.B.@ &.|.+X#.5 I.L.S.K.P ' ~ F.S.K.K.T.K.K.K.L.K.!.L.K.L.B.q &.:X>XC 2 % I K.K.T.L.S.K.K.T.S.K.",
"K.S.K.T.K.T.K.S.K.K.!.K.K.K.L.T.K.B.@ *.#X,X>.+ W T.S.R ;.<.Z ] K.S.K.T.K.T.K.S.K.K.!.K.K.K.Y V }.`.B 8 % : K.Z.K.T.S.K.Z.K.S.T.",
"K.S.K.K.S.L.S.L.K.K.T.S.K.K.K.T.K.P.+ %.#X,X;.+ T T.K V $X#X1.L K.S.K.K.S.L.S.L.K.K.T.S.K.K.C.I C V e e % : K.K.K.T.K.K.K.K.K.T.",
"K.T.L.S.K.K.K.K.S.K.K.K.S.K.T.S.K.B.+ %.#X$Xb.g V.F = C 5X2Xm.5 K.T.L.S.K.K.K.K.S.K.K.K.S.K.T./ Q i j c : @ L.T.K.K.K.K.T.K.T.S.",
"S.K.T.S.L.!.K.S.K.K.L.K.S.K.K.T.S.T + &.+X$Xy.4.k , - } 4X<X1.5 S.K.T.S.L.!.K.S.K.K.L.K.S.K.K.T.Q 5.i.i.; o Y.K.K.K.T.K.K.T.K.T.",
"K.S.T.K.!.K.K.S.K.S.K.K.K.L.K.T.K.W = { ^.(.j.0.b e 6 O.3X2X1.q K.S.T.K.!.K.K.S.K.S.K.K.K.L.K.T.] _ p.a.; X T.K.S.A.K.T.K.S.K.T.",
"A.S.K.K.T.S.K.K.K.K.S.!.L.K.K.K.C.l 0.9.k.k.e.f p p t %.4X<X<.5 A.S.K.K.T.S.K.K.K.K.S.!.L.K.K.K.] 8 e 7 o o K.K.T.S.K.K.S.A.K.K.",
"T.L.K.S.K.K.S.T.L.K.S.K.!.K.S.G.N 6.w.j.l.e.N a i i i $.;X@X:.0 T.L.K.S.K.K.S.T.L.K.S.K.!.K.S.K.o.y n b : . K.Z.A.S.K.!.L.T.Z.K.",
"L.T.S.K.L.K.S.K.T.K.L.K.T.S.H.l q.h.z.i.5.M f B m m m m $.$.p 0 L.T.S.K.L.K.S.K.T.K.L.K.T.S.K.Z.X.N w.z.; . K.K.T.L.K.K.!.K.K.Z.",
"K.K.S.K.K.K.K.K.T.K.K.G.V./ g 9.h.h.g.9.{ p f a m v m m a i t q V.B.^ B.B.B.B.B.P.B.V.B.C./ F.J.o.v.g.h.; . S.A.K.T.K.Z.T.Z.K.K.",
"K.!.L.K.T.L.T.K.K.K./ 0 @ 7 7.k.k.h.h.9.N a f d a m a v p y d t > > w w w r r r e , , > > 2 5.c..X&Xc.a.; . T.S.K.T.K.Z.Z.K.A.S.",
"S.K.!.K.K.T.L.K.L.K.R , - z f.z.s.l.c.y.{ a a a a a i a i V -.-.i b | ......v.v.r. .Z y i x t.).eX0XW.3.2 . Z.S.Z.K.S.A.K.T.S.K.",
"K.S.T.S.K.T.K.Z.T.K.K.P p z f.s.5...[.oX*.y u u i i i y y &.|.|.O.z 9.a.f.s.f.h.p.9.x i i &. X8XuX6Xn.A < o K.Z.Z.T.K.S.L.K.S.T.",
"T.S.K.T.K.K.L.!.L.K.T.! y x E.y.Z #.=X0X`.C t i %.>.:.:.-.`.4X;X$.g 7.f.h.g.s.9.9.7.N i f :.;XuXyX}.{ n 2 H L.T.L.K.T.S.T.K.S.K.",
"T.K.K.K.Z.K.!.K.K.K.` M 1 ;.*X+X$.%.|.aX4X'.O.#.|.1X1X1X1X4XwX;XO.* g _ d.d.x k N N i y i :.;XwX'.{ b h X.K.K.T.K.K.K.T.S.K.K.S.",
"K.K.T.L.K.Z.T.K.K.S.G < - -.3X$X<.<.+XuXaX1XM.<.4XaXsXaXsXaXqX}.{ g x x 9.6.M d d s s B *.M.}.{.} h b ` !.G.S.K.K.K.K.T.K.K.K.S.",
"S.K.K.T.G.K.K.K.T.L.) W W I.%.~.+X=XXXOXyXuX2X>XuXsXaXaXuX4X~.r.0.d.9.8._ M a f f f i +.}.|.2.V 8 y ' Q.K.K.K.L.K.T.L.K.L.K.T.K.",
"K.K.Z.T.Z.Y.K.Z.K.T.S.K.Z.K.( -.2X6XXX_.6XpXpXpXaXsXaXaXiX>X;.S c.R.k.s.N d d s u f B *.-X;X-.: v ) G.T.K.T.K.S.K.K.T.K.K.K.L.T.",
"K.T.L.K.G.S.K.K.K.T.K.K.K.K.K.U.| e.A j Z Z C V f +.{.uXsXsXrXqX7X&XE.9.k u u u u N l.8.M M 2 - R S.K.K.S.L.S.L.K.K.T.S.K.K.K.T.",
"K.K.T.K.S.K.L.!.K.K.K.K.T.K.T.S.X $ * o @ @ O o O * M :XsXsXsXpXtX7X(.6.k t t u s S z.h.4.t t < U T.L.S.K.K.K.K.S.K.K.K.S.K.T.S.",
"S.Z.T.Z.S.K.!.K.K.K.T.K.K.T.K.T.S.K.T./ L.!.K.4 = : * C 7XpXpXpXpXpXuXuXuXyXwX9X=X^.j.z.z.u.x > D K.T.S.L.!.K.S.K.K.L.K.S.K.K.T.",
"K.Z.Z.Z.Z.K.T.K.S.A.K.T.K.S.K.T.K.S.T.K.!.K.A.( [ m 8 m {.0XrXtXeXqXqX0X0X0X0X9X2X+X).x.z.a.c > U S.T.K.!.K.K.S.K.S.K.K.K.L.K.T.",
"Z.S.A.T.L.K.K.K.T.S.K.K.S.A.K.K.A.S.K.K.T.S.K $.<XeX#X'.+.,.<X.X/.t.r.+.O.} O.C i +.$X&Xx.a.5.- J S.K.K.T.S.K.K.K.K.S.!.L.K.K.K.",
"T.K.S.K.L.T.K.Z.A.S.K.!.L.T.Z.K.T.L.K.S.K.K.Q -.+X5X5XoXt e m./.E.y.l : * 1 O.$.+.1.0X8X/.7.x + ` L.K.S.K.K.S.T.L.K.S.K.!.K.S.K.",
"K.K.S.K.T.K.K.K.T.L.K.K.!.K.K.Z.L.T.S.K.L.K.Q N m.M.m.=.. . v N.&X%X=.= > O.|.>X#X:XpX5XN.h $ # D.T.S.K.L.K.S.K.T.K.L.K.T.S.K.A.",
"K.!.K.K.T.K.S.A.K.T.K.Z.T.Z.K.K.K.K.S.K.K.K.F.q < 8 9 e   4 @ ;.$XoX| = @ O.>XrXrXtXrX:X&.+ # W K.K.S.K.K.K.K.K.T.K.K.K.K.S.K.K.",
"K.K.!.A.S.L.T.S.K.T.K.Z.Z.K.A.S.K.T.L.K.Y.L.T.W J U D J U A.F & } | N 2 o % %.:.1.<.:.#.0 J T S.K.T.L.K.T.L.T.K.K.K.S.K.L.K.K.S.",
"S.A.T.S.K.T.Z.S.Z.K.S.A.K.T.S.K.S.K.T.K.K.T.L.G.L.K.K.S.K.L.A.F . + = $ .   . . . . .   3 Y.S.K.S.K.T.K.K.T.L.K.L.K.K.S.K.L.K.K.",
"K.S.K.S.K.T.K.Z.Z.T.K.S.L.K.S.Q.K.S.T.S.K.T.K.H.T.K.K.S.L.K.S.U.F   . 4 T F.#   .     # D.K.S.!.K.S.T.S.K.T.K.Z.T.K.K.S.L.K.S.T.",
"T.S.K.T.K.K.L.T.L.K.T.S.T.K.S.K.!.S.K.T.K.K.L.!.L.K.T.S.T.K.S.K.U.^ T U.K.K.D.J.D.T J.^ T.K.S.K.!.S.K.T.K.K.L.!.L.K.T.S.T.K.S.K.",
"T.K.S.K.K.K.K.T.K.K.K.T.S.K.K.S.T.K.K.K.Z.K.!.K.K.K.K.T.K.K.K.K.T.K.S.K.K.K.K.T.K.K.K.T.S.K.K.S.T.K.K.K.Z.K.!.K.K.K.K.T.K.K.K.K.",
"K.K.S.K.T.K.S.K.K.K.K.T.K.K.K.S.K.K.T.L.K.Z.T.K.K.S.A.T.K.K.A.S.K.K.S.K.T.K.S.K.K.K.K.T.K.K.K.S.K.K.T.L.K.Z.T.K.K.S.A.T.K.K.A.S.",
"S.K.K.T.K.K.K.L.K.!.L.K.L.K.T.K.S.K.K.T.A.K.K.K.T.L.S.K.K.T.S.K.S.K.K.T.K.K.K.L.K.!.L.K.L.K.T.K.S.K.K.T.A.K.K.K.T.L.S.K.K.T.S.K.",
"K.S.K.T.K.T.K.S.K.K.!.K.K.K.L.T.K.K.Z.T.Z.T.K.Z.K.T.S.K.Z.K.S.T.K.S.K.T.K.T.K.S.K.K.!.K.K.K.L.T.K.K.Z.T.Z.T.K.Z.K.T.S.K.Z.K.S.T.",
"K.S.K.K.S.L.S.L.K.K.T.S.K.K.K.T.K.T.L.K.A.S.K.K.K.T.K.K.K.K.K.T.K.S.K.K.S.L.S.L.K.K.T.S.K.K.K.T.K.T.L.K.A.S.K.K.K.T.K.K.K.K.K.T.",
"K.T.L.S.K.K.K.K.S.K.K.K.S.K.T.S.K.K.T.K.S.K.L.T.K.K.K.K.T.K.T.S.K.T.L.S.K.K.K.K.S.K.K.K.S.K.T.S.K.K.T.K.S.K.L.T.K.K.K.K.T.K.T.S.",
"S.K.T.S.L.!.K.S.K.K.L.K.S.K.K.T.S.Z.T.Z.S.K.T.K.K.K.T.K.K.T.K.T.S.K.T.S.L.!.K.S.K.K.L.K.S.K.K.T.S.Z.T.Z.S.K.T.K.K.K.T.K.K.T.K.T.",
"K.S.T.K.!.K.K.S.K.S.K.K.K.L.K.T.K.Z.Z.Z.Z.K.T.K.S.A.K.T.K.S.K.T.K.S.T.K.!.K.K.S.K.S.K.K.K.L.K.T.K.Z.Z.Z.Z.K.T.K.S.A.K.T.K.S.K.T.",
"A.S.K.K.T.S.K.K.K.K.S.!.L.K.K.K.A.S.A.T.L.K.K.K.T.S.K.K.S.A.K.K.A.S.K.K.T.S.K.K.K.K.S.!.L.K.K.K.A.S.A.T.L.K.K.K.T.S.K.K.S.A.K.K.",
"T.L.K.S.K.K.S.T.L.K.S.K.!.K.S.K.T.K.S.K.L.!.K.Z.A.S.K.!.L.T.Z.K.T.L.K.S.K.K.S.T.L.K.S.K.!.K.S.K.T.K.S.K.L.!.K.Z.A.S.K.!.L.T.Z.K.",
"L.T.S.K.L.K.S.K.T.K.L.K.T.S.K.Z.K.K.S.K.!.K.K.K.T.L.K.K.!.K.K.Z.L.T.S.K.L.K.S.K.T.K.L.K.T.S.K.Z.K.K.S.K.!.K.K.K.T.L.K.K.!.K.K.Z.",
"K.K.S.K.K.K.K.K.T.K.K.K.K.S.K.K.K.T.K.K.T.K.S.A.K.T.K.Z.T.Z.K.K.K.K.S.K.K.K.K.K.T.K.K.K.K.S.K.K.K.T.K.K.T.K.S.A.K.T.K.Z.T.Z.K.K.",
"K.!.L.K.T.L.T.K.K.K.S.K.L.K.K.S.K.K.T.A.S.L.T.S.K.T.K.Z.Z.K.A.S.K.!.L.K.T.L.T.K.K.K.S.K.L.K.K.S.K.K.T.A.S.L.T.S.K.T.K.Z.Z.K.A.S.",
"S.K.!.K.K.T.L.K.L.K.K.S.K.L.K.K.S.A.T.S.K.T.Z.S.Z.K.S.A.K.T.S.K.S.K.!.K.K.T.L.K.L.K.K.S.K.L.K.K.S.A.T.S.K.T.Z.S.Z.K.S.A.K.T.S.K.",
"K.S.T.S.K.T.K.Z.T.K.K.S.L.K.S.T.K.S.K.S.K.T.K.Z.Z.T.K.S.L.K.S.T.K.S.T.S.K.T.K.Z.T.K.K.S.L.K.S.T.K.S.K.S.K.T.K.Z.Z.T.K.S.L.K.S.T."
};
