/* XPM */
static char *walkl21750862862[] = {
/* columns rows colors chars-per-pixel */
"64 64 227 2 ",
"   c #040101",
".  c #0A0703",
"X  c #140504",
"o  c #140B06",
"O  c #1A0907",
"+  c #140B0A",
"@  c #1C0D0B",
"#  c #0B1A03",
"$  c #1C110C",
"%  c #1B160F",
"&  c #170E13",
"*  c #1D1311",
"=  c #1B171D",
"-  c #220F0B",
";  c #28130C",
":  c #241513",
">  c #2B1B15",
",  c #231B1B",
"<  c #281B19",
"1  c #341B14",
"2  c #0D240D",
"3  c #142B06",
"4  c #162708",
"5  c #1A3809",
"6  c #2A2F0D",
"7  c #2A380D",
"8  c #282314",
"9  c #32231D",
"0  c #3A2518",
"q  c #2A3617",
"w  c #333C17",
"e  c #131724",
"r  c #161B29",
"t  c #231E20",
"y  c #272422",
"u  c #342524",
"i  c #3C2522",
"p  c #3A2B26",
"a  c #372928",
"s  c #352B2B",
"d  c #3B2D2B",
"f  c #35322F",
"g  c #3E312E",
"h  c #392F30",
"j  c #363232",
"k  c #3B3132",
"l  c #4C250E",
"z  c #5A2A0F",
"x  c #4A2512",
"c  c #462817",
"v  c #572913",
"b  c #5D391B",
"n  c #6A2F0C",
"m  c #693717",
"M  c #723C16",
"N  c #412721",
"B  c #422B25",
"V  c #492C22",
"C  c #412E2A",
"Z  c #42322E",
"A  c #493328",
"S  c #573626",
"D  c #5E3A23",
"F  c #533A2C",
"G  c #423431",
"H  c #4D3A34",
"J  c #493A38",
"K  c #553D36",
"L  c #663C26",
"P  c #7B3B2B",
"I  c #653831",
"U  c #2B490E",
"Y  c #34420B",
"T  c #26570B",
"R  c #2E4C15",
"E  c #36421A",
"W  c #24541F",
"Q  c #3A5416",
"!  c #2C650E",
"~  c #3A770D",
"^  c #2D6710",
"/  c #376D15",
"(  c #2F7010",
")  c #337416",
"_  c #337A12",
"`  c #384B25",
"'  c #2A5824",
"]  c #375F2B",
"[  c #296C27",
"{  c #366D2D",
"}  c #2E772B",
"|  c #317E2F",
" . c #45551C",
".. c #724118",
"X. c #497119",
"o. c #50512A",
"O. c #4E413A",
"+. c #57423C",
"@. c #6A4227",
"#. c #6F4634",
"$. c #497828",
"%. c #4F4343",
"&. c #534544",
"*. c #564846",
"=. c #5A4A45",
"-. c #554A4A",
";. c #5B4D4B",
":. c #5C514F",
">. c #5C5053",
",. c #634D46",
"<. c #62524D",
"1. c #6A544A",
"2. c #795A4B",
"3. c #645653",
"4. c #695754",
"5. c #6B5B55",
"6. c #6C5E5A",
"7. c #725C58",
"8. c #6F615D",
"9. c #75635A",
"0. c #786A66",
"q. c #7D716D",
"w. c #873E0E",
"e. c #834618",
"r. c #985014",
"t. c #A74E09",
"y. c #B34B03",
"u. c #A8560A",
"i. c #B65607",
"p. c #A75717",
"a. c #AA5312",
"s. c #B96310",
"d. c #8A4F22",
"f. c #A35C29",
"g. c #9D6133",
"h. c #BB6C26",
"j. c #B87739",
"k. c #C45501",
"l. c #C75C05",
"z. c #C36103",
"x. c #C96609",
"c. c #D96A03",
"v. c #DD7206",
"b. c #CC6F12",
"n. c #D57313",
"m. c #E26D01",
"M. c #E57303",
"N. c #E97301",
"B. c #C67731",
"V. c #895C4C",
"C. c #9C684C",
"Z. c #847168",
"A. c #887A76",
"S. c #3A8714",
"D. c #3A9311",
"F. c #3D9815",
"G. c #30802E",
"H. c #328530",
"J. c #49841A",
"K. c #419A16",
"L. c #429A18",
"P. c #56971C",
"I. c #43A117",
"U. c #44A318",
"Y. c #54A313",
"T. c #58AC14",
"R. c #5CA21E",
"E. c #66922F",
"W. c #64A824",
"Q. c #6AB523",
"!. c #6ABC23",
"~. c #6EC324",
"^. c #70C725",
"/. c #78D027",
"(. c #E5811B",
"). c #C4812A",
"_. c #D9822A",
"`. c #E48E37",
"'. c #94FF30",
"]. c #9B8278",
"[. c #D89248",
"{. c #E49141",
"}. c #C39F78",
"|. c #D8A06D",
" X c #D26B87",
".X c #928782",
"XX c #9F9290",
"oX c #A99C9A",
"OX c #B19E92",
"+X c #ABA19B",
"@X c #B5A69D",
"#X c #ACA6A3",
"$X c #B6ABA8",
"%X c #BCB3AA",
"&X c #C7A584",
"*X c #E7B89C",
"=X c #D699AE",
"-X c #C5AFA3",
";X c #C6B5A9",
":X c #D8BFA9",
">X c #C6BCB8",
",X c #E7C395",
"<X c #D8C3A5",
"1X c #CCC3BC",
"2X c #D3C5BA",
"3X c #E7CBAF",
"4X c #CCC6C2",
"5X c #CDC9C9",
"6X c #CFCBCA",
"7X c #D4CAC5",
"8X c #D5D2CD",
"9X c #D9D3CD",
"0X c #DBD7D4",
"qX c #E9D0C8",
"wX c #EED7D1",
"eX c #E0DCDA",
"rX c #EAE4DB",
"tX c #F3EBD8",
"yX c #EAE9E5",
"uX c #F1EAE2",
"iX c #F1EDEB",
"pX c #F7F2E7",
"aX c #F3F1EB",
"sX c #F5F5F4",
"dX c #F8F7F7",
"fX c #F4F8F4",
"gX c #FAFAF9",
/* pixels */
"^.H.U.^.U.U.T.'.T.U.^.H.^.U.H.U.^.H.U.^.U.U.T.^.T.U.^.H.^.U.H.U.^.H.U.^.U.U.T.'.T.U.^.H.^.U.H.U.^.H.U.^.U.U.T.^.T.U.^.H.^.U.H.U.",
"^.U.U.U.D.U.'.U.U.U.U.^.U.U.U.U.^.U.H.U.U.U.U.^.U.U.U.^.H.U.U.H.^.U.U.U.D.U.'.U.U.U.U.^.U.U.U.U.^.U.H.U.U.U.U.^.U.U.U.^.H.U.U.H.",
"U.U.^.T.U.D.^.U.U.H.F.^.U.U.F.H.U.U.H.U.'.U.H.U.U.U.U.^.U.U.U.H.U.U.^.T.U.D.^.U.U.H.F.^.U.U.F.H.U.U.H.U.'.U.H.U.U.U.U.^.U.U.U.H.",
"H.U.U.^.F.U.U.U.^.T.H.U.U.^.'.U.H.U.U.'.U.U.U.T.U.^.T.U.T.U.^.U.H.U.U.^.F.U.U.U.^.T.H.U.U.^.'.U.H.U.U.'.U.U.U.T.U.^.T.U.T.U.^.U.",
"U.U.D.^.D.^.U.D.U.^.H.U.D.U.H.'.U.H.U.^.U.^.U.H.U.U.^.U.U.U.T.^.U.U.D.^.D.^.U.D.U.^.H.U.D.U.H.'.U.H.U.^.U.^.U.H.U.U.^.U.U.U.T.^.",
"U.^.T.U.F.H.U.U.U.^.U.U.U.U.U.^.U.H.U.U.H.T.H.T.U.U.^.H.U.U.U.^.U.^.T.U.F.H.U.U.U.^.U.U.U.U.U.^.U.H.U.U.H.T.H.T.U.U.^.H.U.U.U.^.",
"U.U.^.U.H.U.T.'.U.U.U.U.^.U.^.H.U.^.T.H.U.U.U.U.H.U.U.U.H.U.^.H.U.U.^.U.H.U.T.'.U.U.U.U.^.U.^.H.U.^.T.H.U.U.U.U.H.U.U.U.H.U.^.H.",
"H.D.^.D.H.U.'.U.U.U.^.U.U.^.U.^.H.U.^.H.T.'.U.H.U.U.T.U.H.U.U.^.H.D.^.D.H.U.'.U.U.U.^.U.U.^.U.^.H.U.^.H.T.'.U.H.U.U.T.U.H.U.U.^.",
"U.D.D.D.D.U.^.U.H.F.U.^.U.H.U.^.U.H.^.U.'.U.U.H.U.H.U.U.U.T.U.^.U.D.D.D.D.U.^.U.H.F.U.^.U.H.U.^.U.H.^.U.'.U.U.H.U.H.U.U.U.T.U.^.",
"F.H.F.^.T.U.U.U.^.H.U.U.H.F.U.U.F.H.U.U.^.H.U.U.U.U.H.'.T.U.U.U.F.H.F.^.T.U.U.U.^.H.U.U.H.F.U.U.F.H.U.U.^.H.U.U.U.U.H.'.T.U.U.U.",
"^.U.H.U.T.^.U.D.F.H.U.'.T.^.D.U.^.T.U.H.U.U.H.^.T.U.H.U.'.U.H.U.^.U.H.U.T.^.U.D.F.H.U.'.T.^.D.U.^.T.U.H.U.U.H.^.T.U.H.U.'.U.H.U.",
"U.U.H.U.^.U.U.U.^.T.U.U.'.U.U.D.T.^.H.U.T.U.H.U.^.U.T.U.^.H.I.D.U.U.H.U.^.U.U.U.^.T.U.U.'.U.U.D.T.^.H.U.T.U.H.U.^.U.T.U.^.H.U.D.",
"U.'.U.U.^.U.H.F.U.^.U.D.^.D.U.U.U.U.H.U.U.U.U.U.^.U.U.U.U.H.U.U.U.'.U.U.^.U.H.F.U.^.U.D.^.D.U.U.U.U.H.U.U.U.U.U.^.U.U.U.U.H.U.U.",
"U.U.'.F.H.T.^.H.U.^.U.D.D.U.F.H.U.^.T.U.^.T.^.U.U.U.H.U.T.U.U.H.U.U.'.F.H.T.^.H.U.^.U.D.D.U.F.H.U.^.T.U.^.T.^.U.U.U.H.U.T.U.U.H.",
"H.F.^.H.U.^.D.H.D.U.H.F.U.^.H.U.H.U.^.U.U.^.T.U.T.U.U.H.U.T.I.I.H.F.^.H.U.^.D.H.D.U.H.F.U.^.' < : ) ^.U.U.^.T.U.T.U.U.H.U.T.U.U.",
"U.H.U.H.U.^.U.D.D.^.U.H.T.U.H.'.U.H.!.} D.!.U.D.^.U.U.H.T.U.H.^.U.H.U.H.U.^.U.D.D.^.U.H.Y.$.9.Z.Z.1.E.H.U.^.U.D.^.U.U.H.T.U.H.^.",
"^.H.U.^.U.U.T.^.T.U.^.H.^.U.H.U.'.H./ < : U P.'.T.U.^.H.^.U.H.I.^.H.U.^.U.U.T.^.T.U.^.G.J.9.2XaXaX>X6.P.U.U.T.'.T.U.^.H.^.U.H.U.",
"^.U.H.U.U.U.U.^.U.U.U.^.H.U.U.H.^.J., i 3.*.E.F.U.U.U.^.I._ S.I.^.U.H.U.U.U.U.^.U.U.U.W.0 2.;XrXsX4X0.< / U.'.U.U.U.U.^.U.U.U.U.",
"U.U.H.U.^.U.H.U.U.U.U.^.U.U.U.H.U.S.* &.2X1X3.R D.H.F.^.) & 8 { U.U.H.U.^.U.H.U.U.U.L.W.N c +.A.4X-X1.i < T ^.U.U.H.F.^.U.U.F.H.",
"H.U.U.^.U.U.U.T.U.'.T.U.T.U.^.U.H.S.@ &.0X9X0.* P.T.H.X.0.0.A E H.U.U.^.U.U.U.T.U.'.T.L.X.w O p .X].K u 9 + U.U.~.T.H.U.U.^.H.U.",
"U.H.U.^.U.^.U.H.U.U.'.U.U.U.T.^.U.S.+ O.0X2X8.% _ ^.W O.2X9X-.7 U.H.U.^.U.^.U.H.U.U.'.U.U.S.T E &.%.s u t + U.D.U.^.H.U.D.U.H.^.",
"U.H.U.U.H.T.H.T.U.U.^.H.U.U.U.^.U.R.X J 9X2X2.l Y Q > +.9XyX;.7 U.H.U.U.H.T.H.T.U.U.^.H.U.U.L.P.s B D m N @ U.U.U.^.U.U.U.U.U.^.",
"U.^.T.H.U.U.U.U.H.U.U.U.H.U.^.H.U.S.  J 7X3X).u.l 8 > +.9XyX=.4 U.^.T.H.U.U.U.U.H.U.U.U.H.U.^.H. .e.l.i.z - T.^.U.U.U.U.^.U.^.H.",
"H.U.^.H.T.'.U.H.U.U.T.U.H.U.U.^.H.~ ; @.}.[.b.r.c 9 9 =.8XyX=.7 H.U.^.H.T.'.U.H.U.U.T.U.H.U.U.^.Q w.l.i.z - ~.U.U.U.^.U.U.^.U.^.",
"U.H.^.U.'.U.U.H.U.H.U.U.U.T.U.^.4 o.w.a.n.n.d.H f p 0 <.0XyX:.7 U.H.^.U.'.U.U.H.U.H.U.U.U.T.U.~.Q c A V 0 : ~.I.H.F.U.^.U.H.U.^.",
"F.H.U.U.^.H.U.U.U.U.H.'.T.U.U.U.#.r.b.c.b.d.F Z d p p 4.9X0X*.6 L.H.U.U.^.H.U.U.U.U.H.'.T.U.U./ A C d C Z 1 U.U.^.H.U.U.H.F.U.U.",
"^.T.U.H.U.U.H.^.T.U.H.U.'.U.. I y.M.M.x.M Z G G k d g Z =.O.9 q ^.T.U.H.U.U.H.^.T.U.H.U.'.U.] i t L x.l.v O U.F.F.H.U.'.T.^.D.U.",
"T.^.H.U.T.U.H.U.^.U.Y.K.!.} v t.m.M.c.x.L G k k Z Z Z d p d 0 9 Y !.| L.Y.L.| L.!.K.Y.K.!.' l M #.g.n.l.m @ U.K.^.T.U.U.'.U.U.D.",
"U.U.H.U.U.U.U.U.^.U.Q 0 * 1 t.m.v.c.m.z.F j k k k Z k Z d s d p < = r r r r e r e t , , : c w.B.<X,X{.x.n : H.L.U.^.U.D.^.D.U.U.",
"U.'.T.U.^.T.^.U.U.U. .@.N n m.m.z.x.B.j.F k s s d Z s C d C ;.-.a i c c B c x c x x > > > z B.,XuXqX[.p.v q ^.H.U.^.U.D.D.U.F.H.",
"H.U.'.U.U.^.T.U.T.U.U.' y v l.c.n F 2X>X<.s s p p p C p d &.1X5X*.v y.l.k.k.k.k.l.k.@.s 9 +.;XaXsX3XC.S w ^.D.H.D.U.H.F.U.^.H.U.",
"U.H.^.H.U.^.U.D.^.U.U.[ w m B.{.1 G 9XyX.XO.s G :.6.6.4.4.A.0X0X-.v u.x.M.N.x.z.i.s.L p a 4.7XsXeXOXK q L.^.U.D.D.^.U.H.T.U.H.^.",
"^.H.U.^.U.U.T.'.T.U.P.8 * K -XtXi G 8XsX0XA.H <.$X5X5X6X5X8XiX5X%.< x ..n.x.e.@.D F d s s 3.5XrX#X<.` Q.U.U.T.^.T.U.^.H.^.U.H.U.",
"^.U.U.U.D.U.'.U.U.U.X.6 $ k oXeX>.5.2XyXsX5X0.A.eXfXgXgXgXfXeX#XI v v ..u.r.F f j h s G >.q.%X#X-.R } U.U.U.U.~.U.U.U.^.H.U.U.H.",
"U.U.^.T.U.D.^.U.U.G.K.P.^ ) G A.>X>X=X=XiXsX8X8XsXgXgXgXgX0Xq.#.a.x.s.u...F f j k j k 3.#X#XA.J R D.H.U.'.U.H.U.U.U.U.^.U.U.U.H.",
"H.U.U.^.F.U.U.U.^.T.G.U.U.^.Q.%.7XqX X XwXiXiXiXiXiXgXgXfXeX0.P _.n.N.i.b k f f j k H V.>X$X3.: ' U.U.'.U.U.U.T.U.^.T.U.T.U.^.U.",
"U.U.D.^.D.^.U.D.U.^.H.U.D.U.H./.Z.V.P I +.<.;.*.&.>.$XiXgXsX0X7XqX,X`.u.b h s s s K p.p.1.-.p $ ! H.U.^.U.^.U.H.U.U.^.U.U.U.T.^.",
"U.^.T.U.F.H.U.U.U.^.U.U.U.U.U.^.$.O X O + + o - < : J >XdXgXdXgXfXrX|.f.S C Z j k I l.x.r.A 0 $ ! H.U.U.H.T.H.T.U.U.^.H.U.U.U.^.",
"U.U.^.U.H.U.T.'.U.U.U.U.^.U.^.H.U.!.P.} F.L.F.7 N 1 - =.0XgXgXgXgXgXsXiXiXiXiXyX5X&X(.N.c.i.n $ ^ ~.T.H.U.U.U.U.H.U.U.U.H.U.^.H.",
"H.D.^.D.H.U.'.U.U.U.^.U.U.^.U.^.H.U.~.H.T.'.U.H.` N B B +XiXgXgXgXgXsXdXgXgXdXsXpX*X{.N.N.z.M $ W U.^.H.T.'.U.H.U.U.T.U.H.U.U.^.",
"U.D.D.D.D.U.^.U.H.F.U.^.U.H.U.^.U.H.^.U.'.U.U.H.` H XX$XN 8.0XgXgX1X;.p g p 9 : - @ * v z.x.M $ ! H.^.U.'.U.U.H.U.H.U.U.U.T.U.^.",
"F.H.F.^.T.U.U.U.^.H.U.U.H.F.U.U.F.H.U.U.^.H.U.F.w ,.$X2XG B :XtXuX$XG @ X O O $ 9 u , N h.s.m @ T G.U.U.^.H.U.U.U.U.H.'.T.U.U.U.",
"^.U.H.U.T.^.U.D.F.H.U.'.T.^.D.U.^.T.U.H.U.U.H.U & 7.;X>XC x B.[.C.F . # 3 . O H 1XoX&.G %X1X1.$   ~ U.H.U.U.H.^.T.U.H.U.'.U.H.U.",
"U.U.H.U.^.U.U.U.~.T.U.U.'.U.U.D.T.^.H.U.T.U.H.5   ,.@X@Xu x B.B.m $   T ^.3 : V oXXX7.q.8X8X8.&   J.H.U.T.U.H.U.^.U.T.U.^.H.U.D.",
"U.'.U.U.^.U.H.F.U.^.U.D.^.D.U.U.U.U.H.U.U.U.U.! T % 9.2.% +.<X<X,.@ # _ ^.3 > 0 H Z.-X0XgX0X8.*   ( H.U.U.U.U.U.^.U.U.U.U.H.U.U.",
"U.U.'.F.H.T.^.H.U.^.U.D.D.U.F.H.U.^.T.U.^.T.^.U.U.# % > + +.7X1X*.+ J.F.H.3 - > : 0.>XyXiX1X<.@ 3 R.T.U.^.T.^.U.U.U.H.U.T.U.U.H.",
"H.F.^.H.U.^.D.H.D.U.H.F.U.^.H.U.H.U.^.U.U.^.T.U.T.! ! o b V 5.:., # P.H.U.J.T X c V &.5.6.-.< 3 [ U.^.U.U.^.T.U.T.U.U.H.U.T.U.U.",
"U.H.U.H.U.^.U.D.D.^.U.H.T.U.H.'.U.H.^.H.U.^.U.D.^.I.I.  0 ; +   3 [ U.H.U.^.I.# ; - X X .   2 /.U.H.^.H.U.^.U.D.^.U.U.H.T.U.H.^.",
"^.H.U.^.U.U.T.^.T.U.^.H.^.U.H.U.'.H.U.^.U.U.T.'.T.U.^.W J.    # R.H.U.~.U.U.T.P.~       3 ( [ U.'.H.U.^.U.U.T.'.T.U.^.H.^.U.H.U.",
"^.U.H.U.U.U.U.^.U.U.U.^.H.U.U.H.^.U.U.U.D.U.'.U.U.U.U.^.U._ _ S.^.U.H.U.U.U.I.^.U._ _ P.[ U.U.H.^.U.U.U.D.U.'.U.U.U.U.^.U.U.U.U.",
"U.U.H.U.^.U.H.U.U.U.U.^.U.U.U.H.U.U.^.T.U.D.^.U.U.H.F.^.U.U.F.H.U.U.| U.^.U.H.U.U.U.U.^.U.U.U.H.U.U.^.T.U.D.^.U.U.H.F.^.U.U.F.H.",
"H.U.U.^.U.U.U.T.U.'.T.U.T.U.^.U.H.U.U.^.F.U.I.U.^.T.H.U.U.^.H.U.H.U.U.^.U.U.U.T.U.'.T.U.T.U.^.U.H.U.U.^.F.U.U.U.^.T.H.U.U.^.H.U.",
"U.H.U.^.U.^.U.H.U.U.'.U.U.U.T.^.U.U.D.^.D.^.U.D.U.^.H.U.F.U.H.^.U.H.U.^.U.^.U.H.U.U.'.U.U.U.T.^.U.U.D.^.D.^.U.D.U.^.H.U.D.U.H.^.",
"U.H.U.U.H.T.H.T.U.U.^.H.U.U.U.^.U.^.T.U.F.H.U.U.U.^.U.U.U.U.U.^.U.H.U.U.H.T.H.T.U.U.^.H.U.U.U.^.U.^.T.U.F.H.U.U.U.^.U.U.U.U.U.^.",
"U.^.T.H.U.U.U.U.H.U.U.U.H.U.^.H.U.U.^.U.H.U.T.^.U.U.U.U.^.U.^.H.U.^.T.H.U.U.U.U.H.U.U.U.H.U.^.H.U.U.^.U.H.U.T.^.U.U.U.U.^.U.^.H.",
"H.U.^.H.T.'.U.H.U.U.T.U.H.U.U.^.H.D.^.D.H.U.^.U.U.U.^.U.U.^.U.^.H.U.^.H.T.'.U.H.U.U.T.U.H.U.U.^.H.D.^.D.H.U.^.U.U.U.^.U.U.^.U.^.",
"U.H.^.U.'.U.U.H.U.H.U.U.U.T.U.^.U.D.D.D.D.U.^.U.H.F.U.^.U.H.U.^.U.H.^.U.'.U.U.H.U.H.U.U.U.T.U.^.I.D.D.D.D.U.^.U.H.F.U.^.U.H.U.^.",
"F.H.U.U.^.H.U.U.U.U.H.'.T.U.U.U.F.H.F.^.T.U.U.U.^.H.U.U.H.F.U.U.F.H.U.U.^.H.U.U.U.U.H.'.T.U.U.U.F.H.F.^.T.U.U.U.^.H.U.U.H.F.U.U.",
"^.T.U.H.U.U.H.^.T.U.H.U.'.U.H.U.^.U.H.U.T.'.U.D.F.H.U.'.T.^.D.U.^.T.U.H.U.U.H.^.T.U.H.U.'.U.H.U.^.U.H.U.T.'.U.D.F.H.U.'.T.^.D.U.",
"T.^.H.U.T.U.H.U.^.U.T.U.^.H.U.D.U.U.H.U.'.I.U.U.^.T.U.U.'.U.U.D.T.^.H.U.T.U.H.U.^.U.T.U.^.H.U.D.U.U.H.U.'.U.U.U.^.T.U.U.'.U.U.D.",
"U.U.H.U.U.U.U.U.^.U.U.U.U.H.U.U.U.^.U.U.^.U.H.F.U.^.U.D.^.D.U.U.U.U.H.U.U.U.U.U.^.U.U.U.U.H.U.U.U.^.U.U.^.U.H.F.U.^.I.D.^.D.U.U.",
"U.'.T.U.^.T.^.U.U.U.H.U.T.U.U.H.U.U.^.F.H.T.^.H.U.^.I.D.D.U.F.H.U.'.T.U.^.T.^.U.U.U.H.U.T.U.U.H.U.U.^.F.H.T.^.H.U.^.U.D.D.U.F.H.",
"H.U.'.U.U.^.T.U.T.U.U.H.U.T.U.U.H.F.^.H.U.^.D.H.D.U.H.F.U.^.H.U.H.U.'.U.U.^.T.U.T.U.U.H.U.T.U.U.H.F.^.H.U.^.D.H.D.U.H.F.U.^.H.U.",
"U.H.^.H.U.^.U.D.^.U.U.H.T.U.H.^.U.H.U.H.U.^.U.D.D.^.U.H.T.U.H.^.U.H.^.H.U.^.U.D.^.U.U.H.T.U.H.^.U.H.U.H.U.^.U.D.D.^.U.H.T.U.H.^."
};
