/* XPM */
static char *walkl31750862862[] = {
/* columns rows colors chars-per-pixel */
"64 64 230 2 ",
"   c #040202",
".  c #0B0504",
"X  c #0B0906",
"o  c #120505",
"O  c #190906",
"+  c #130C0A",
"@  c #1D0C09",
"#  c #0E1E04",
"$  c #14140E",
"%  c #1B120D",
"&  c #1C1413",
"*  c #191519",
"=  c #240E0A",
"-  c #26130B",
";  c #29160C",
":  c #341C0B",
">  c #221513",
",  c #241B15",
"<  c #2B1C15",
"1  c #2B1C19",
"2  c #331E15",
"3  c #112709",
"4  c #183908",
"5  c #272C0D",
"6  c #2C2218",
"7  c #332419",
"8  c #3B241B",
"9  c #283A14",
"0  c #353917",
"q  c #1A1D26",
"w  c #251E24",
"e  c #272326",
"r  c #342622",
"t  c #362B27",
"y  c #3A2A25",
"u  c #3B2D2B",
"i  c #2F3C20",
"p  c #3D302C",
"a  c #362E31",
"s  c #3C3132",
"d  c #471C19",
"f  c #47250C",
"g  c #472715",
"h  c #563013",
"j  c #563419",
"k  c #6E300E",
"l  c #663618",
"z  c #733B16",
"x  c #432A23",
"c  c #492D26",
"v  c #483225",
"b  c #41312C",
"n  c #4C342A",
"m  c #563726",
"M  c #532F33",
"N  c #433431",
"B  c #4B3A36",
"V  c #543C35",
"C  c #792920",
"Z  c #693921",
"A  c #1C4C1B",
"S  c #1E521E",
"D  c #23430B",
"F  c #275A0D",
"G  c #2F4616",
"H  c #374517",
"J  c #2A5418",
"K  c #325716",
"L  c #31690E",
"P  c #2F760E",
"I  c #31790E",
"U  c #3A6415",
"Y  c #377513",
"T  c #357A12",
"R  c #265422",
"E  c #3E5627",
"W  c #276826",
"Q  c #2D762B",
"!  c #33742A",
"~  c #495D17",
"^  c #74421A",
"/  c #446F14",
"(  c #46731B",
")  c #455A2B",
"_  c #4D413E",
"`  c #5A4335",
"'  c #53423D",
"]  c #674938",
"[  c #774D36",
"{  c #7C5339",
"}  c #476427",
"|  c #53712C",
" . c #647638",
".. c #524542",
"X. c #574946",
"o. c #52474B",
"O. c #5C4D4A",
"+. c #5C534E",
"@. c #5B5250",
"#. c #624F47",
"$. c #63524C",
"%. c #69584F",
"&. c #72564A",
"*. c #635452",
"=. c #6A5653",
"-. c #675955",
";. c #6B5D5B",
":. c #4F6947",
">. c #6C6D4F",
",. c #76635A",
"<. c #6F5F61",
"1. c #776A67",
"2. c #756B68",
"3. c #93480F",
"4. c #9F520F",
"5. c #82481A",
"6. c #A24C0C",
"7. c #A9540A",
"8. c #BF5C06",
"9. c #B4570A",
"0. c #A65617",
"q. c #BF6613",
"w. c #8B4D21",
"e. c #8F5425",
"r. c #875B3C",
"t. c #86613F",
"y. c #B76B23",
"u. c #AD723C",
"i. c #CB5C02",
"p. c #C35D09",
"a. c #D25601",
"s. c #C76307",
"d. c #D16102",
"f. c #D36A05",
"g. c #DC6C01",
"h. c #D66C0B",
"j. c #DA7306",
"k. c #C46C1A",
"l. c #E27201",
"z. c #C66E20",
"x. c #CD7A28",
"c. c #C37936",
"v. c #846149",
"b. c #966C4D",
"n. c #B37948",
"m. c #856E63",
"M. c #867A76",
"N. c #378614",
"B. c #398715",
"V. c #3A8C14",
"C. c #3C8C15",
"Z. c #3A9311",
"A. c #3D9815",
"S. c #33842F",
"D. c #328530",
"F. c #468916",
"G. c #479515",
"H. c #429B17",
"J. c #57941B",
"K. c #42A017",
"L. c #44A318",
"P. c #58AC14",
"I. c #5BA11E",
"U. c #52912E",
"Y. c #5BA420",
"T. c #67AD28",
"R. c #69B922",
"E. c #6DC125",
"W. c #70C725",
"Q. c #74C825",
"!. c #E78215",
"~. c #DC8B33",
"^. c #E5832F",
"/. c #81DA2C",
"(. c #93F82E",
"). c #94FF30",
"_. c #B98D5A",
"`. c #99807A",
"'. c #B18F75",
"]. c #D09C5E",
"[. c #E18E46",
"{. c #CD9A6B",
"}. c #E9B67E",
"|. c #CF7F9E",
" X c #968A87",
".X c #948B89",
"XX c #B29D8F",
"oX c #A49A95",
"OX c #AFA197",
"+X c #B2AAA6",
"@X c #B4AAA8",
"#X c #BDB6B6",
"$X c #CCAB90",
"%X c #E3BA92",
"&X c #D390A3",
"*X c #C9B7A9",
"=X c #D5A6B3",
"-X c #C5BBB5",
";X c #D9C4AB",
":X c #CFC5BD",
">X c #DACABA",
",X c #E6C9AA",
"<X c #BCB2C1",
"1X c #D2BDC0",
"2X c #CDC8C6",
"3X c #D2CBC4",
"4X c #D4CAC7",
"5X c #D7D1CB",
"6X c #D5CFD0",
"7X c #D6D2D2",
"8X c #DBD5D2",
"9X c #DDDAD5",
"0X c #DED9D9",
"qX c #E1D6CC",
"wX c #E9D9D6",
"eX c #E2DCDB",
"rX c #F1D9DF",
"tX c #EAE4DC",
"yX c #F0ECDD",
"uX c #DFE0E4",
"iX c #ECEAE4",
"pX c #E8E8E8",
"aX c #EFEFEF",
"sX c #F2EBE3",
"dX c #F3F0EE",
"fX c #F5F3F3",
"gX c #F8F4F4",
"hX c #F7FAF7",
"jX c #F9F7F9",
"kX c #FAFAF9",
/* pixels */
"W.D.L.W.L.L.P.).P.L.W.D.W.L.D.L.W.D.L.W.L.L.P.W.P.L.W.D.W.L.D.L.W.D.L.W.L.L.P.).P.L.W.D.W.L.D.L.W.D.L.W.L.L.P.W.P.L.W.D.W.L.D.L.",
"W.L.L.L.Z.L.).L.L.L.L.W.L.L.L.L.W.L.D.L.L.L.L.W.L.L.L.W.D.L.L.D.W.L.L.L.Z.L.).L.L.L.L.W.L.L.L.L.W.L.D.L.L.L.L.W.L.L.L.W.D.L.L.D.",
"L.L.W.P.L.Z.W.L.L.D.A.W.L.L.A.D.L.L.D.L.).L.D.L.L.L.L.W.L.L.L.D.L.L.W.P.L.Z.W.L.L.D.A.W.L.L.A.D.L.L.D.L.).L.D.L.L.L.L.W.L.L.L.D.",
"D.L.L.W.A.L.L.L.W.P.D.L.L.W.).L.D.L.L.).L.L.L.P.L.W.P.L.P.L.W.L.D.L.L.W.A.L.L.L.W.P.D.L.L.W.).L.D.L.L.).L.L.L.P.L.W.P.L.P.L.W.L.",
"L.L.Z.W.Z.W.L.Z.L.W.D.L.Z.L.D.).L.D.L.W.L.W.L.D.L.L.W.L.L.L.P.W.L.L.Z.W.Z.W.L.Z.L.W.D.L.Z.L.D.).L.D.L.W.L.W.L.D.L.L.W.L.L.L.P.W.",
"L.W.P.L.A.D.L.L.L.W.L.L.L.L.L.W.L.D.L.L.D.P.D.P.L.L.W.D.L.L.L.W.L.W.P.L.A.D.L.L.L.W.L.L.L.L.L.W.L.D.L.L.D.P.D.P.L.L.W.D.L.L.L.W.",
"L.L.W.L.D.L.P.).L.L.L.L.W.L.W.D.L.W.P.D.L.L.L.L.D.L.L.L.D.L.W.D.L.L.W.L.D.L.P.).L.L.L.L.W.L.W.D.L.W.P.D.L.L.L.L.D.L.L.L.D.L.W.D.",
"D.Z.W.Z.D.L.).L.L.L.W.L.L.W.L.W.D.L.W.D.P.).L.D.L.L.P.L.D.L.L.W.D.Z.W.Z.D.L.).L.L.L.W.L.L.W.L.W.D.L.W.D.P.).L.D.L.L.P.L.D.L.L.W.",
"L.Z.Z.Z.Z.L.W.L.D.A.L.W.L.D.L.W.L.D.W.L.).L.L.D.L.D.L.L.L.P.L.W.L.Z.Z.Z.Z.L.W.L.D.A.L.W.L.D.L.W.L.D.W.L.).L.L.D.L.D.L.L.L.P.L.W.",
"A.D.A.W.P.L.L.L.W.D.L.L.D.A.L.L.A.D.L.L.W.D.L.L.L.L.D.).P.L.L.L.A.D.A.W.P.L.L.L.W.D.L.L.D.A.L.L.A.D.L.L.W.D.L.L.L.L.D.).P.L.L.L.",
"W.L.D.L.P.W.L.Z.A.D.L.).P.W.Z.L.W.P.L.D.L.L.D.W.P.L.D.L.).L.D.L.W.L.D.L.P.W.L.Z.A.D.L.).P.Q.Z.L.W.P.L.D.L.L.D.W.P.L.D.L.).L.D.L.",
"L.L.D.L.W.L.L.L.W.P.L.L.).L.L.Z.P.W.D.L.P.L.D.L.W.L.P.L.W.D.L.A.L.L.D.L.W.L.L.L.W.P.L.L.).L.L.Z.P.W.D.L.P.L.D.L.W.L.P.L.W.D.L.Z.",
"L.).L.L.W.L.D.A.L.W.L.Z.W.Z.L.L.L.L.D.L.L.L.L.L.W.L.L.L.L.D.L.L.L.).L.L.W.L.D.A.L.W.L.Z.W.Z.L.L.L.L.D.L.L.L.L.L.W.L.L.L.L.D.L.L.",
"L.L.).A.D.P.W.D.L.W.L.Z.Z.L.A.D.L.W.P.L.W.P.W.L.L.L.D.L.P.L.L.D.L.L.).A.D.P.W.D.L.W.L.Z.Z.L.H.D.L.W.P.L.W.P.W.L.L.L.D.L.P.L.L.D.",
"D.A.W.D.L.W.Z.D.Z.L.D.A.L.W.D.L.D.L.W.L.L.W.P.L.P.L.L.D.L.P.L.L.D.A.W.D.L.W.Z.D.Z.L.D.A.L.W.Q C.Q H.W.L.L.W.P.L.P.L.L.D.L.P.L.L.",
"L.D.L.D.L.W.L.Z.Z.W.L.D.P.L.D.).L.D.W.D.L.W.L.Z.W.L.L.D.P.L.D.Q.L.D.L.D.L.W.L.Z.Z.W.L.D.P.L.R * $ R R.D.L.W.L.Z.W.L.L.D.P.L.D.W.",
"W.D.L.W.L.L.P.W.P.L.W.D.W.L.D.L.).D.H.J.T C.P.).P.L.Q.D.W.L.D.L.W.D.L.W.L.L.P.W.P.L.W.D.Q.L.:.;.*.O.( E.L.L.P.).P.L.W.D.W.L.D.L.",
"W.L.D.L.L.L.L.W.L.L.L.W.D.L.L.D.W.A.J 1 6 G /.L.L.L.L.Q.L.L.L.L.W.L.D.L.L.L.L.W.L.L.L.W.D.U.+XyXeX4X..K Z.L.).L.L.L.L.W.L.L.L.L.",
"L.L.D.L.W.L.D.L.L.L.L.W.L.L.L.D.L.N.+ n m.,.} F.L.D.A.W.L.L.A.D.L.L.D.L.W.L.D.L.L.L.L.W.L.U.oXsXgXpX+.& K A.W.L.L.D.A.Q.L.L.Z.D.",
"D.L.L.W.L.L.L.P.L.).P.L.P.L.W.L.D.N.+ #.-X-X@.9 P.P.D.L.K ( } U.D.L.L.W.L.L.L.P.L.).P.K.P.U.>.OXtX3X' 7 1 K L.L.Q.P.D.L.L.Q.D.L.",
"L.D.L.W.L.W.L.D.L.L.).L.L.L.P.W.L.N.+ %.3X8X2.+ I Q.D.} ,.,.O. .L.D.L.W.L.W.L.D.L.L.).L.L.L.U B +XoXN 7 r 1 L.Z.L.W.D.L.Z.L.D.W.",
"L.D.L.L.D.P.D.P.L.L.W.D.L.L.L.W.L.I.+ $.3X5X>.+ I W.D B >X5X2.) L.D.L.L.D.P.D.P.L.L.W.D.L.L.V.K ..B r r r 1 L.L.L.W.L.L.L.L.L.W.",
"L.W.P.D.L.L.L.L.D.L.L.L.D.L.W.D.L.N.X $.:X>X&.f V.D @ ' qX9XM.i L.W.P.D.L.L.L.L.D.L.L.L.D.L.W.Q ) x h k y < P.W.L.L.L.L.W.L.W.D.",
"D.L.W.D.P.).L.D.L.L.P.L.D.L.L.W.D.I + $.*X*Xu.3.h < , ' qX9XM.~ D.L.W.D.P.).L.D.L.L.P.L.D.L.L.W.:.w.p.a.h 7 W.L.L.L.W.L.L.W.L.W.",
"L.D.W.L.).L.L.D.L.D.L.L.L.P.L.Q.L.I = m '.].k.0.j 7 6 ..0X9XM.H L.D.W.L.).L.L.D.L.D.L.L.L.P.L.W.| w.d.s.h 6 W.L.D.A.L.W.L.D.L.W.",
"A.D.L.L.W.D.L.L.L.L.D.).P.L.L.L.B.m 0.8.j.j.w.v t t 8 +.0X0XM.0 A.D.L.L.W.D.L.L.L.L.D.).P.L.L.L.| t w g 6 6 L.L.W.D.L.L.D.A.L.L.",
"W.P.L.D.L.L.D.W.P.L.D.L.).L.Q H.m 0.8.h.k.e.V s p p p +.2X2Xm.H W.P.L.D.L.L.D.W.P.L.D.L.).L.D.L.>.n x c g 6 L.Z.A.D.L.).P.W.Z.L.",
"P.W.D.L.P.L.D.L.W.L.P.L.Q.D.* j 9.h.f.s.^ b N s p b p N X.@.t 9 P.W.D.L.P.L.D.L.W.L.P.L.W.D.L.V. .] s.h.j & L.L.W.P.L.L.).L.L.Z.",
"L.L.D.L.L.L.L.L.W.L.H.F.B.! j 6.g.g.f.8.^ s s s b b b b p u r 0 B.N.W N.N.N.N.B.Y.N.N.B.( W F.~ ` t.h.g.f & D.A.L.W.L.Z.W.Z.L.L.",
"L.).P.L.W.P.W.L.L.L.! 9 & f 6.g.g.g.j.9.m a s s p b b s p y t r , * q q q q e e e 6 , & ; : 3.c.%X>X^.a.j % Q.D.L.W.L.Z.Z.L.A.D.",
"D.L.).L.L.W.P.L.P.L./ 5 - k a.g.s.q.c.u.` u s u p p u p u N -.;.u c [ [ [ { &.t.r.[ m u y j y.}.sXsX[.6.m > Z.D.Z.L.D.A.L.W.D.L.",
"L.D.W.D.L.W.L.Z.W.L.L.J 7 k i.i.5.{ XX@X%.y t u p u y y y O.@X-XO.k 8.d.d.d.d.g.i.9.l s u ] $XyXhXiXn.k v : L.Z.Z.W.L.D.P.L.D.W.",
"W.D.L.W.L.L.P.).P.L.W.R g ^ u.n.M @.#XpX X..r b +.<.;.;.;..X0X6X*.h 7.f.g.f.s.9.p.7.m u u ;.2XjXaX@X` x x K P.W.P.L.W.D.W.L.D.L.",
"W.L.L.L.Z.L.).L.L.L.F.j 7 &.>X;X$.o.#XjXeX.X....@X7X6X6X7X0XaX2XO.; f ^ s.s.^ j m m u t u ;.2XaXoX..c c ( L.L.Q.L.L.L.W.D.L.L.D.",
"L.L.W.P.L.Z.W.L.L.D.H ; > =.7X:X1.<.=XaXjX8XM.1.0XhXkXjXhXjXpX+X` h h k 7.0.n s a a s N *.M.@X@X' g m / ).L.D.L.L.L.L.W.L.L.L.D.",
"D.L.L.W.A.L.L.L.W.P.! T T T.+..X-X1X&X=XgXfX8X5XaXkXkXkXjX0X`.&.0.8.s.9.^ n s s s s s @.-X#X1.B y x / (.L.L.L.P.L.W.P.L.P.L.W.L.",
"L.L.Z.W.Z.W.L.Z.L.W.D.L.Z.L.+ *.6XrX&X|.rXkXgXkXkXkXkXkXgX5X,.z x.!.g.p.j p s a p s s *.2X-XO.> y E H.W.L.W.L.D.L.L.W.L.L.L.P.W.",
"L.W.P.L.A.D.L.L.L.W.L.L.L.L.A.E.V { C k m M B x t X.+XfXgXgXdXsXtX,X~.9.j p u a t V k.9.M N 2 < U D.L.L.D.P.D.P.L.L.W.D.L.L.L.W.",
"L.L.W.L.D.L.P.).L.L.L.L.W.L.W.D.. & o O O O @ O - - B -XkXkXkXgXgXsX{.4.j t t t s Z g.l.4.8 b 2 L W.P.D.L.L.L.L.D.L.L.L.D.L.W.D.",
"D.Z.W.Z.D.L.).L.L.L.W.L.L.W.L.W.D.L.W.! P.).L.A : : - O.dXkXkXhXhXhXjXfXaXaXpXuX<X'.l.g.l.9.Z q S K.W.D.P.).L.D.L.L.P.L.D.L.L.W.",
"L.Z.Z.Z.Z.L.W.L.D.A.L.W.L.D.L.W.H.D.W.L.).L.L.D.0 : - j *XdXhXfXiXpXpXpXpXpXpXpXeX,X~.g.l.h.w.e X S E.L.).L.L.D.L.D.L.L.L.P.L.W.",
"A.D.A.W.P.L.L.L.W.D.L.L.D.A.L.L.A.D.L.L.W.D.L.L.3   % f q.%XiX6X2.' $.*.-.@.$.X.M d d z g.l.{.@XB   F H.W.D.L.L.L.L.D.).P.L.L.L.",
"W.L.D.L.P.W.L.Z.A.D.L.).P.W.Z.L.W.P.L.D.L.L.D.Y.# & _ v.y.c.*X+Xn O o O = = = = O O O : 7.z.$XqX-.+   W L.L.D.W.P.L.D.L.).L.D.L.",
"L.L.D.L.W.L.L.L.W.P.L.L.).L.L.Z.P.W.D.L.P.L.D.4 X O.:XwX$X_.r.%.g - . + f : : 7 . 4 4 o g b.>XyX-.X   B.P.L.D.L.W.L.P.L.W.D.L.Z.",
"L.).L.L.W.L.D.A.L.W.L.Z.W.Z.L.L.L.L.D.L.L.L.L.4 > v.8XwX:X`.2 , 7 @ 3 3 - - @ 6   W.A.4 @ ,.5X5X... 3 A.L.L.L.L.W.L.L.L.L.D.L.L.",
"L.L.).A.D.P.W.D.L.W.L.Z.Z.L.A.D.L.W.P.L.W.P.W.T 0 n =.*.V b & S F F Q.P A L / A F W.L.I 7 #.-.@.J / G.L.W.P.W.L.L.L.D.L.P.L.L.D.",
"D.A.W.D.L.W.Z.D.Z.L.D.A.L.W.D.L.D.L.W.L.L.W.P.L.J.; o o o . # K.D.A.W.D.L.Q.Z.S.Z.H.D.N.% 2 o   R L.W.L.L.W.P.L.P.L.L.D.L.P.L.L.",
"L.D.L.D.L.W.L.Z.Z.W.L.D.P.L.D.).L.D.W.D.L.W.L.Z.Q.T P     Y W W.L.D.L.D.L.Q.H.Z.Z.Q.L.Q F . 3 T.Z.D.W.D.L.W.L.Z.W.L.L.D.P.L.D.W.",
"W.D.L.W.L.L.P.W.P.L.W.D.W.L.D.L.).D.L.W.L.L.P.).P.L.W.W J.L.D.L.W.D.L.W.L.L.P.W.P.L.W.D.R.T Q L.).D.L.W.L.L.P.).P.L.W.D.W.L.D.L.",
"W.L.D.L.L.L.L.W.L.L.L.W.D.L.L.D.W.L.L.L.Z.L.).L.L.L.L.W.L.L.L.L.W.L.D.L.L.L.L.W.L.L.L.W.D.L.L.D.W.L.L.L.Z.L.).L.L.L.L.W.L.L.L.L.",
"L.L.D.L.W.L.D.L.L.L.L.W.L.L.L.D.L.L.W.P.L.Z.W.L.L.D.A.W.L.L.A.D.L.L.D.L.W.L.D.L.L.L.L.W.A.L.L.D.L.L.W.P.L.Z.W.L.L.D.A.W.L.L.A.D.",
"D.L.L.W.L.L.L.P.L.).P.L.P.L.W.L.D.L.L.W.A.L.L.L.W.P.D.L.L.W.D.L.D.L.L.W.L.L.L.P.L.).P.L.P.L.W.L.D.L.L.W.A.L.L.L.W.P.D.L.L.W.D.L.",
"L.D.L.W.L.W.L.D.L.L.).L.L.L.P.W.L.L.Z.W.Z.W.L.Z.L.W.D.L.Z.L.D.W.L.D.L.W.L.W.L.D.L.L.).L.L.L.P.W.L.L.Z.W.Z.W.L.Z.L.W.D.L.Z.L.D.W.",
"L.D.L.L.D.P.D.P.L.L.W.D.L.L.L.W.L.W.P.L.A.D.L.L.L.W.L.L.L.L.L.W.L.D.L.L.D.P.D.P.L.L.W.D.L.L.L.W.L.W.P.L.A.D.L.L.L.W.L.L.L.L.L.W.",
"L.W.P.D.L.L.L.L.D.L.L.L.D.L.W.D.L.L.W.L.D.L.P.W.L.L.L.L.W.L.W.D.L.W.P.D.L.L.L.L.D.L.L.L.D.L.W.D.L.L.W.L.D.L.P.W.L.L.L.L.W.L.W.D.",
"D.L.W.D.P.).L.D.L.L.P.L.D.L.L.W.D.Z.W.Z.D.L.W.L.L.L.W.L.L.W.L.W.D.L.W.D.P.).L.D.L.L.P.L.D.L.L.W.D.Z.W.Z.D.L.W.L.L.L.W.L.L.W.L.W.",
"L.D.W.L.).L.L.D.L.D.L.L.L.P.L.W.L.Z.Z.Z.Z.L.W.L.D.A.L.W.L.D.L.W.L.D.W.L.).L.L.D.L.D.L.L.L.P.L.W.L.Z.Z.Z.Z.L.W.L.D.A.L.W.L.D.L.W.",
"A.D.L.L.W.D.L.L.L.L.D.).P.L.L.L.A.D.A.W.P.L.L.L.W.D.L.L.D.A.L.L.A.D.L.L.W.D.L.L.L.L.D.).P.L.L.L.A.D.A.W.P.L.L.L.W.D.L.L.D.A.L.L.",
"W.P.L.D.L.L.D.W.P.L.D.L.).L.D.L.W.L.D.L.P.).L.Z.A.D.L.).P.W.Z.L.W.P.L.D.L.L.D.W.P.L.D.L.).L.D.L.W.L.D.L.P.).L.Z.A.D.L.).P.W.Z.L.",
"P.W.D.L.P.L.D.L.W.L.P.L.W.D.L.Z.L.L.D.L.).L.L.L.W.P.L.L.).L.L.Z.P.W.D.L.P.L.D.L.W.L.P.L.W.D.L.Z.L.L.D.L.).L.L.L.W.P.L.L.).L.L.Z.",
"L.L.D.L.L.L.L.L.W.L.L.L.L.D.L.L.L.W.L.L.W.L.D.A.L.W.L.Z.W.Z.L.L.L.L.D.L.L.L.L.L.W.L.L.L.L.D.L.L.L.W.L.L.W.L.D.A.L.W.L.Z.W.Z.L.L.",
"L.).P.L.W.P.W.L.L.L.D.L.P.L.L.D.L.L.W.A.D.P.W.D.L.W.L.Z.Z.L.A.D.L.).P.L.W.P.W.L.L.L.D.L.P.L.L.D.L.L.W.A.D.P.W.D.L.W.L.Z.Z.L.A.D.",
"D.L.).L.L.W.P.L.P.L.L.D.L.P.L.L.D.A.W.D.L.W.Z.D.Z.L.D.A.L.W.D.L.D.L.).L.L.W.P.L.P.L.L.D.L.P.L.L.D.A.W.D.L.W.Z.D.Z.L.D.A.L.W.D.L.",
"L.D.W.D.L.W.L.Z.W.L.L.D.P.L.D.W.L.D.L.D.L.W.L.Z.Z.W.L.D.P.L.D.W.L.D.W.D.L.W.L.Z.W.L.L.D.P.L.D.W.L.D.L.D.L.W.L.Z.Z.W.L.D.P.L.D.W."
};
