/* XPM */
static char *walk01750862439[] = {
/* columns rows colors chars-per-pixel */
"64 64 222 2 ",
"   c #050101",
".  c #0B0302",
"X  c #0C0C05",
"o  c #150A06",
"O  c #140B09",
"+  c #0C1703",
"@  c #121A06",
"#  c #120E11",
"$  c #1C1313",
"%  c #1E1918",
"&  c #210C0A",
"*  c #22120D",
"=  c #331E0E",
"-  c #220F10",
";  c #251513",
":  c #281614",
">  c #2B1A15",
",  c #251B1A",
"<  c #2B1D1B",
"1  c #351D16",
"2  c #0C210C",
"3  c #172106",
"4  c #172311",
"5  c #183915",
"6  c #262E0F",
"7  c #26370E",
"8  c #3A370E",
"9  c #252815",
"0  c #2C211C",
"q  c #34221D",
"w  c #3B2519",
"e  c #283715",
"r  c #313812",
"t  c #2F2321",
"y  c #342523",
"u  c #392726",
"i  c #362926",
"p  c #3A2A25",
"a  c #3B2D2C",
"s  c #343729",
"d  c #3D312F",
"f  c #582B0E",
"g  c #4F2914",
"h  c #47261A",
"j  c #532B18",
"k  c #59331D",
"l  c #773B0B",
"z  c #683819",
"x  c #713C14",
"c  c #452C25",
"v  c #43312D",
"b  c #4C342A",
"n  c #553623",
"m  c #5C3924",
"M  c #483837",
"N  c #523A36",
"B  c #653D22",
"V  c #1D470A",
"C  c #194318",
"Z  c #28460C",
"A  c #25560D",
"S  c #314812",
"D  c #285618",
"F  c #375514",
"G  c #2A690D",
"H  c #2F6A11",
"J  c #376413",
"K  c #337712",
"L  c #347E12",
"P  c #294E21",
"I  c #286525",
"U  c #2F782D",
"Y  c #31792D",
"T  c #396731",
"R  c #7C441A",
"E  c #4A6A18",
"W  c #46781A",
"Q  c #5B4539",
"!  c #525D36",
"~  c #6C4123",
"^  c #68422B",
"/  c #684B35",
"(  c #744D37",
")  c #77523E",
"_  c #4D6D2A",
"`  c #4D4240",
"'  c #544543",
"]  c #584A47",
"[  c #5C4D49",
"{  c #5E554E",
"}  c #614B44",
"|  c #7B4446",
" . c #67554A",
".. c #785C4D",
"X. c #625452",
"o. c #665A56",
"O. c #6B5953",
"+. c #6C5D5A",
"@. c #715B58",
"#. c #6F615E",
"$. c #78685D",
"%. c #6F6360",
"&. c #746764",
"*. c #7C6A64",
"=. c #7B6D6A",
"-. c #7C706D",
";. c #984C0E",
":. c #854517",
">. c #924D12",
",. c #944D10",
"<. c #A64C09",
"1. c #A8570D",
"2. c #B85B07",
"3. c #A75816",
"4. c #B65F17",
"5. c #BF620C",
"6. c #855330",
"7. c #B47235",
"8. c #C65F04",
"9. c #C66306",
"0. c #CA6305",
"q. c #C3630A",
"w. c #D96601",
"e. c #D46C05",
"r. c #DB6C01",
"t. c #D46E08",
"y. c #D67005",
"u. c #D77208",
"i. c #C96910",
"p. c #D77512",
"a. c #CA7524",
"s. c #8F6546",
"d. c #A4734C",
"f. c #805E61",
"g. c #816D67",
"h. c #897569",
"j. c #867876",
"k. c #977D76",
"l. c #B8627A",
"z. c #33810E",
"x. c #398714",
"c. c #3A9311",
"v. c #3D9815",
"b. c #31822F",
"n. c #328530",
"m. c #42820F",
"M. c #488519",
"N. c #499414",
"B. c #429B17",
"V. c #559519",
"C. c #609F1F",
"Z. c #44A318",
"A. c #54A413",
"S. c #58AC14",
"D. c #498622",
"F. c #568727",
"G. c #659227",
"H. c #6BBC22",
"J. c #6FC224",
"K. c #70C725",
"L. c #DA8428",
"P. c #C5813C",
"I. c #DA8B38",
"U. c #E08A37",
"Y. c #8CF12E",
"T. c #94FF30",
"R. c #B58458",
"E. c #B58F6B",
"W. c #C98B4C",
"Q. c #D78D47",
"!. c #CE914F",
"~. c #DC9F60",
"^. c #D9A878",
"/. c #E0A663",
"(. c #C36F87",
"). c #968885",
"_. c #9C918E",
"`. c #9E9392",
"'. c #A3938F",
"]. c #BB9E89",
"[. c #A79B98",
"{. c #AAA19E",
"}. c #AAA3A0",
"|. c #B6ACA8",
" X c #BCB3A7",
".X c #BEB2AD",
"XX c #BEB5B0",
"oX c #D6B18C",
"OX c #CBB098",
"+X c #E5BF90",
"@X c #DC9BB1",
"#X c #C8B4A3",
"$X c #DBBDA3",
"%X c #CCB3B5",
"&X c #C4BCB7",
"*X c #E6C49A",
"=X c #DDC6AD",
"-X c #CAC3BE",
";X c #EDD6B6",
":X c #C8BFC0",
">X c #CBC4C2",
",X c #CEC9C7",
"<X c #D2CAC6",
"1X c #D5C9C8",
"2X c #DBD5CE",
"3X c #DBD7D5",
"4X c #ECD9C3",
"5X c #E5D8CA",
"6X c #E3DCD5",
"7X c #E2DDDB",
"8X c #EDE1D0",
"9X c #E4E1DD",
"0X c #EDE5D9",
"qX c #F1DFE4",
"wX c #E8E4E3",
"eX c #EDECEA",
"rX c #F3EAE3",
"tX c #F1ECEB",
"yX c #EFF0ED",
"uX c #F5F5F3",
"iX c #F8F9F8",
"pX c #FAFAFA",
/* pixels */
"K.n.Z.K.Z.Z.S.T.S.Z.K.n.K.Z.n.Z.K.n.Z.K.Z.Z.S.K.S.Z.K.n.K.Z.n.Z.K.n.Z.K.Z.Z.S.T.S.Z.K.n.K.Z.n.Z.K.n.Z.K.Z.Z.S.K.S.Z.K.n.K.Z.n.Z.",
"K.Z.Z.Z.c.Z.T.Z.Z.Z.Z.K.Z.Z.Z.Z.K.Z.n.Z.Z.Z.Z.K.Z.Z.Z.K.n.Z.Z.n.K.Z.Z.Z.c.Z.T.Z.Z.Z.Z.K.Z.Z.Z.Z.K.Z.n.Z.Z.Z.Z.K.Z.Z.Z.K.n.Z.Z.n.",
"Z.Z.K.S.Z.c.K.Z.Z.n.v.K.Z.Z.v.n.Z.Z.n.Z.T.Z.n.Z.Z.Z.Z.K.Z.Z.Z.n.Z.Z.K.S.Z.c.K.Z.Z.n.v.K.Z.Z.v.n.Z.Z.n.Z.T.Z.n.Z.Z.Z.Z.K.Z.Z.Z.n.",
"n.Z.Z.K.v.Z.Z.Z.K.S.n.Z.Z.K.T.Z.n.Z.Z.T.Z.Z.Z.S.Z.K.S.Z.S.Z.K.Z.n.Z.Z.K.v.Z.Z.Z.K.S.n.Z.Z.K.T.Z.n.Z.Z.T.Z.Z.Z.S.Z.K.S.Z.S.Z.K.Z.",
"Z.Z.c.K.c.K.Z.c.Z.K.n.Z.c.Z.n.T.Z.n.Z.K.Z.K.Z.n.Z.Z.K.Z.Z.Z.S.K.Z.Z.c.K.c.K.Z.c.Z.K.n.Z.c.Z.n.T.Z.n.Z.K.Z.K.Z.n.Z.Z.K.Z.Z.Z.S.K.",
"Z.K.S.Z.v.n.Z.Z.Z.K.Z.Z.Z.Z.Z.K.Z.n.Z.Z.n.S.n.S.Z.Z.K.n.Z.Z.Z.K.Z.K.S.Z.v.n.Z.Z.Z.K.Z.Z.Z.Z.Z.K.Z.n.Z.Z.n.S.n.S.Z.Z.K.n.Z.Z.Z.K.",
"Z.Z.K.Z.n.Z.S.T.Z.Z.Z.Z.K.Z.K.n.Z.K.S.n.Z.Z.Z.Z.n.Z.Z.Z.n.Z.K.n.Z.Z.K.Z.n.Z.S.T.Z.Z.Z.Z.K.Z.K.n.Z.K.S.n.Z.Z.Z.Z.n.Z.Z.Z.n.Z.K.n.",
"n.c.K.c.n.Z.T.Z.Z.Z.K.Z.Z.K.Z.K.n.Z.K.n.S.T.Z.n.Z.Z.S.Z.n.Z.Z.K.n.c.K.c.n.Z.T.Z.Z.Z.K.Z.Z.K.Z.K.n.Z.K.n.S.T.Z.n.Z.Z.S.Z.n.Z.Z.K.",
"Z.c.c.c.c.Z.K.Z.n.v.Z.K.Z.n.Z.K.Z.n.K.Z.T.Z.Z.n.Z.n.Z.Z.Z.S.Z.K.Z.c.c.c.c.Z.K.Z.n.v.Z.K.Z.n.Z.K.Z.n.K.Z.T.Z.Z.n.Z.n.Z.Z.Z.S.Z.K.",
"v.n.v.K.S.Z.Z.Z.K.n.Z.Z.n.v.Z.Z.v.n.Z.Z.K.n.Z.Z.Z.Z.n.T.S.Z.Z.Z.v.n.v.K.S.Z.Z.Z.K.n.Z.Z.n.v.Z.Z.v.n.Z.Z.K.n.Z.Z.Z.Z.n.T.S.Z.Z.Z.",
"K.Z.n.Z.S.K.Z.c.v.n.Z.T.S.K.c.Z.K.S.Z.n.Z.Z.n.K.S.Z.n.Z.T.Z.n.Z.K.Z.n.Z.S.K.Z.c.v.n.Z.T.S.K.c.Z.K.S.Z.n.Z.Z.n.K.S.Z.n.Z.T.Z.n.Z.",
"Z.Z.n.Z.K.Z.Z.Z.K.S.Z.Z.T.Z.Z.c.S.K.n.Z.S.Z.n.Z.K.Z.S.Z.K.n.Z.c.Z.Z.n.Z.K.Z.Z.Z.K.S.Z.Z.T.Z.Z.c.S.K.n.Z.S.Z.n.Z.K.Z.S.Z.K.n.Z.c.",
"Z.T.Z.Z.K.Z.n.v.Z.K.Z.c.K.c.Z.Z.Z.Z.n.Z.Z.Z.Z.Z.K.Z.Z.Z.Z.n.Z.Z.Z.T.Z.Z.K.Z.n.v.Z.K.Z.c.K.c.Z.Z.Z.Z.n.Z.Z.Z.Z.Z.K.Z.Z.Z.Z.n.Z.Z.",
"Z.Z.T.v.n.S.K.n.Z.K.Z.v.c.Z.v.n.B.K.S.Z.K.S.K.Z.Z.Z.n.Z.S.Z.Z.n.Z.Z.T.v.n.S.K.n.Z.K.Z.c.c.Z.v.n.Z.K.S.Z.K.S.K.Z.Z.Z.n.Z.S.Z.Z.n.",
"n.v.K.n.Z.K.c.n.c.Z.n.v.Z.K.P O X H K.Z.Z.K.S.Z.S.Z.Z.n.Z.S.Z.Z.n.v.K.n.Z.K.c.n.c.Z.n.v.Z.K.n.Z.n.Z.K.Z.Z.K.S.Z.S.Z.Z.n.Z.S.Z.Z.",
"Z.n.Z.n.Z.K.Z.c.c.K.Z.n.A.D.$.h.h.O.G.b.Z.K.Z.c.K.Z.Z.n.S.Z.n.K.Z.n.Z.n.Z.K.Z.c.c.K.v.U V.Z.n.T.Z.n.K.n.Z.K.Z.c.K.Z.Z.n.S.Z.n.K.",
"K.n.Z.K.Z.Z.S.K.S.Z.K.n.F.N #X7X7X#X] F.B.Z.S.T.S.Z.K.n.K.Z.n.Z.K.n.Z.K.Z.Z.S.K.S.B.F q M W n.Z.T.n.Z.K.Z.Z.S.T.S.Z.K.n.K.Z.n.Z.",
"K.Z.n.Z.Z.Z.Z.K.Z.Z.B.G.x s.%XeX7X|.} & z.Z.T.Z.Z.Z.Z.K.Z.Z.Z.Z.K.x.I Z.Z.Z.Z.K.v.! $.$.} p B.n.K.Z.Z.Z.c.Z.T.Z.Z.Z.Z.K.Z.Z.Z.Z.",
"Z.Z.n.Z.K.Z.n.Z.Z.Z.J z <.a.#X|.g.] m 1 N.c.K.Z.Z.n.v.K.Z.Z.v.n.K w t D.K.Z.n.Z.D X.-X X$.0 B.n.Z.Z.K.S.Z.c.K.Z.Z.n.v.K.Z.Z.v.n.",
"n.Z.Z.K.Z.Z.Z.S.B.T.; x w.p.d.+.1 r _ E x.Z.Z.Z.K.S.n.Z.Z.K.n.Z.4 M k.h.F.Z.Z.N.7 O.5X-X&.0 H.Z.n.Z.Z.K.v.Z.Z.Z.K.S.n.Z.Z.K.n.Z.",
"Z.n.Z.K.Z.K.Z.n.Z.Z.$ :.w.9.B u 7 x.c.K.c.K.Z.c.Z.K.n.Z.c.Z.n.K.3 ..<X-X{ W Z.D O o.2X-X+.> A.K.Z.Z.c.K.c.K.Z.c.Z.K.n.Z.c.Z.n.K.",
"Z.n.Z.Z.n.S.n.S.Z.Z., z 2.<.j * A K.S.Z.v.n.Z.Z.Z.K.Z.Z.Z.Z.Z.K.3 $.9X3X[ X 5 7 O X.2XXXX., B.K.Z.K.S.Z.v.n.Z.Z.Z.K.Z.Z.Z.Z.Z.K.",
"Z.K.S.n.Z.Z.Z.Z.n.Z.; j B z h & A Z.K.Z.n.Z.S.K.Z.Z.Z.Z.K.Z.K.n.3 *.9X3X] X # % % ] -X}.Q > H.n.Z.Z.K.Z.n.Z.S.K.Z.Z.Z.Z.K.Z.K.n.",
"n.Z.K.n.S.T.Z.n.Z.Z.> j ^ z w o P v.K.c.n.Z.K.Z.Z.Z.K.Z.Z.K.Z.K.@ *.9X3Xs.f x ~ z / E.-.v < 6 K.n.c.K.c.n.Z.K.Z.Z.Z.K.Z.Z.K.Z.K.",
"Z.n.K.Z.T.Z.Z.n.Z.n.< n 1.<.g o A c.c.c.c.Z.K.Z.n.v.Z.K.Z.n.Z.K.3 *.9X9XW.2.5.9.9.3./ M a i < 6 Z.c.c.c.c.Z.K.Z.n.v.Z.K.Z.n.Z.K.",
"v.n.Z.Z.K.n.Z.Z.Z.Z.< f ;.1.R f J n.B.K.S.Z.Z.Z.K.n.Z.Z.n.v.Z.Z.3 $.5X*XI.y.y.y.e.9.>.n a a y t 6 b.v.K.S.Z.Z.Z.K.n.Z.Z.n.v.Z.Z.",
"K.S.Z.n.Z.Z.n.K.S.Z., = h R 1.;.x W n.Z.S.T.Z.c.v.n.Z.T.S.K.c.Z.6 ^ Q.I.p.t.u.t.y.y.t.,.n v d a y 9 b.Z.S.T.Z.c.v.n.Z.T.S.K.c.Z.",
"S.K.n.Z.S.Z.n.Z.K.Z.y = 9 / Q.7.R h I B.Y.B.B.v.H.A.B.B.Y.B.B.x.8 ,.0.y.u.t.t.t.y.u.u.1.m a d a a q 6 B.Y.B.Z.Z.K.S.Z.Z.T.Z.Z.c.",
"Z.Z.n.Z.Z.Z.Z.Z.K.Z.t = =  .=X].[ p 9 $ $ > % 0 < t < < 0 , > h z 2.e.t.t.t.t.t.e.e.r.1.B v a a a p < ; $ F b.v.Z.K.Z.c.K.c.Z.Z.",
"Z.T.S.Z.K.S.K.Z.Z.Z.9 8 w O.9X3X)...R g q q i a a a i a i u u N 7.a.t.e.t.t.y.y.9.2.r.5.s.X.a a p a u < 0 E K.b.Z.K.Z.c.c.Z.v.n.",
"n.Z.T.Z.Z.K.S.Z.S.Z.Z.U 1 } 7XuX3XoXa.;.k i a a a a a a a u y @.}.oXL.0.y.t.e.2.l l 0.Q.$X[.M y a u u < S K.c.n.c.Z.n.v.Z.K.n.Z.",
"Z.n.K.n.Z.K.Z.c.K.Z.Z.U S ! &XtXpX;XU.5.>.n d a a a d a u y q %.,X9X/.I.I.I.I.7.n m P.+XtX&X' v +.X.v < 7 C.Z.c.c.K.Z.n.S.Z.n.K.",
"K.n.Z.K.Z.Z.S.T.S.Z.K.n.J.b.#.XXrX;XU.t.8.;.v v a a a a u q q +.<XyX8X4X4X4X4X#X] } #XrXuX-XN ] |.|.[ < > F S.K.S.Z.K.b.K.Z.n.Z.",
"K.Z.Z.Z.c.Z.T.Z.Z.Z.Z.J.Z.x.Z o..X$X~.U.p.8.:.~ B B B B c u k s.[.,X7XpXpXpXuX3Xj.j.3XuXrX-Xj.=.|..X' : r M.Z.K.Z.Z.Z.K.n.Z.Z.n.",
"Z.Z.J.S.Z.c.K.Z.Z.n.B.J.Z.Z.L s ' k.=X+XL.r.q.q.2.q.8.3.z m 3.6.( @.`.3XiXpXpXeX,X,XeXqX@X@X2X&Xj.{ T J K.Z.n.Z.Z.Z.Z.K.Z.Z.Z.n.",
"n.Z.Z.J.v.Z.Z.Z.K.S.n.Z.Z.K.T.x.e ' {.OXL.r.2.2.w.r.r.0.:.:.!.W.h.h.[.1XeXeX&X&X&X>X>X%Xl.(.:X%Xo.D.Z.T.Z.Z.Z.S.Z.K.S.Z.S.Z.K.Z.",
"Z.Z.c.K.c.K.Z.c.Z.K.n.Z.c.Z.n.T.S : X.s.i.y.l l 9.w.w.w.2.7.$X5X<X1XwXeXtX.X+.X.&.*.=.f.| @.k.-.D.n.Z.K.Z.K.Z.n.Z.Z.K.Z.Z.Z.S.K.",
"Z.K.S.Z.v.n.Z.Z.Z.K.Z.Z.Z.Z.Z.K.Z : d ^ 3.1.Q / W.Q.Q.U.I.^.6XuXuXuXiXyX>X*.c < < < < q w h d t Z.n.Z.Z.n.S.n.S.Z.Z.K.n.Z.Z.Z.K.",
"Z.Z.K.Z.n.Z.S.T.Z.Z.Z.Z.K.Z.J.n.Z , a a b ) ).|.5X5X4X;X4X0XiXpXpXpXiX7X=.h 1 : Z B.B.B.H.N.H.Y Z.K.S.n.Z.Z.Z.Z.n.Z.Z.Z.n.Z.K.n.",
"n.c.K.c.n.Z.T.Z.Z.Z.K.Z.Z.K.Z.J o < p y p ' )..X6XrXyXtXeXeXiXpXpXpX7X'.| f w S Z.Z.K.Z.B.K.Z.K.n.Z.K.n.S.T.Z.n.Z.Z.S.Z.n.Z.Z.K.",
"Z.c.c.c.c.Z.K.Z.n.v.Z.K.Z.n.Z.J . > a y y i v ' %.=.g.-.&.'.9XpXpXeX-.^ 1.<.f S Y v.Z.K.Z.n.Z.K.Z.n.K.Z.T.Z.Z.n.Z.n.Z.Z.Z.S.Z.K.",
"B.n.v.K.S.Z.Z.Z.K.n.Z.Z.n.v.Z.A . u &.X.a i ` d , O . .   ` |.eXpX2XQ ^ 4.i.x $ F n.Z.Z.n.v.Z.Z.v.n.Z.Z.K.n.Z.Z.Z.Z.n.T.S.Z.Z.Z.",
"K.Z.n.Z.S.K.Z.c.v.n.Z.T.S.K.c.A . X.&X}.' y _._.b ;   X 7 9 ` {.wX,XM Q R.E./ $ V b.Z.T.S.K.c.Z.K.S.Z.n.Z.Z.n.K.S.Z.n.Z.T.Z.n.Z.",
"Z.Z.n.Z.K.Z.Z.Z.J.S.Z.Z.T.Z.Z.V . @.7X7Xj.` [.'.N > + G K.5 . -.7X>XM a E.E.Q O A S.Z.Z.T.Z.Z.c.S.K.n.Z.S.Z.n.Z.K.Z.S.Z.K.n.Z.c.",
"Z.T.Z.Z.K.Z.n.v.Z.K.Z.c.J.c.Z.A   &.7XpX3X_.+.N h q Z Z.Z.5 X -.9X1XM ; / O.y + H K.Z.c.K.c.Z.Z.Z.Z.n.Z.Z.Z.Z.Z.K.Z.Z.Z.Z.n.Z.Z.",
"Z.Z.T.v.n.S.K.n.Z.K.Z.c.c.Z.v.C   o.>X6X3X%XN < q > 5 B.S.V   #.>X.Xb o : ; 2 D Z.K.Z.c.c.Z.v.n.Z.K.S.Z.K.S.K.Z.Z.Z.n.Z.S.Z.Z.n.",
"n.v.K.n.Z.K.c.n.c.Z.n.v.Z.K.n.z.2 i +.=.g.O.c 1 O @ L n.Z.m.+ y +.O.h 1 o + G b.c.Z.n.v.Z.K.n.Z.n.Z.K.Z.Z.K.S.Z.S.Z.Z.n.Z.S.Z.Z.",
"Z.n.Z.n.Z.K.Z.c.c.K.Z.n.S.Z.n.T.z.4 $ ; ; ; : - @ K Z.n.S.Z.I 4 $ > 1 ; X M.Z.c.c.K.Z.n.S.Z.n.T.Z.n.K.n.Z.K.Z.c.K.Z.Z.n.S.Z.n.K.",
"J.n.Z.K.Z.Z.S.K.S.Z.K.n.K.Z.n.Z.T.I K @     . @ x.Z.K.n.K.Z.n.K M.X . V.K Z.S.K.S.Z.K.n.K.Z.n.Z.T.n.Z.K.Z.Z.S.T.S.Z.K.n.K.Z.n.Z.",
"K.Z.n.Z.Z.Z.Z.K.Z.Z.Z.K.n.Z.Z.n.K.Z.Z.z.G K J.z.Z.Z.Z.K.Z.Z.Z.Z.K.L I Z.Z.Z.Z.K.Z.Z.Z.K.n.Z.Z.n.K.Z.Z.Z.c.Z.T.Z.Z.Z.Z.K.Z.Z.Z.Z.",
"Z.Z.n.Z.K.Z.n.Z.Z.Z.Z.K.Z.Z.Z.n.Z.Z.K.S.Z.v.K.Z.Z.n.v.K.Z.Z.v.n.Z.Z.n.Z.K.Z.n.Z.Z.Z.Z.K.Z.Z.Z.n.Z.Z.K.S.Z.c.K.Z.Z.n.v.K.Z.Z.v.n.",
"n.Z.Z.K.Z.Z.Z.S.Z.T.S.Z.S.Z.K.Z.n.Z.Z.K.v.Z.Z.Z.K.S.n.Z.Z.K.n.Z.n.Z.Z.K.Z.Z.Z.S.Z.T.S.Z.S.Z.K.Z.n.Z.Z.K.v.Z.Z.Z.K.S.n.Z.Z.K.n.Z.",
"Z.n.Z.K.Z.K.Z.n.Z.Z.T.Z.Z.Z.S.K.Z.Z.c.K.c.K.Z.c.Z.K.n.Z.c.Z.n.K.Z.n.Z.K.Z.K.Z.n.Z.Z.T.Z.Z.Z.S.K.Z.Z.c.K.c.K.Z.c.Z.K.n.Z.c.Z.n.K.",
"Z.n.Z.Z.n.S.n.S.Z.Z.J.n.Z.Z.Z.K.Z.K.S.Z.v.n.Z.Z.Z.K.Z.Z.Z.Z.Z.K.Z.n.Z.Z.n.S.n.S.Z.Z.K.n.Z.Z.Z.K.Z.K.S.Z.v.n.Z.Z.Z.K.Z.Z.Z.Z.Z.K.",
"Z.K.S.n.Z.Z.Z.Z.n.Z.Z.Z.n.Z.K.n.Z.Z.K.Z.n.Z.S.K.Z.Z.Z.Z.K.Z.K.n.Z.K.S.n.Z.Z.Z.Z.n.Z.Z.Z.n.Z.K.n.Z.Z.K.Z.n.Z.S.K.Z.Z.Z.Z.K.Z.K.n.",
"n.Z.K.n.S.T.Z.n.Z.Z.S.Z.n.Z.Z.K.n.c.K.c.n.Z.K.Z.Z.Z.K.Z.Z.K.Z.K.n.Z.K.n.S.T.Z.n.Z.Z.S.Z.n.Z.Z.K.n.c.K.c.n.Z.K.Z.Z.Z.K.Z.Z.K.Z.K.",
"Z.n.K.Z.T.Z.Z.n.Z.n.Z.Z.Z.S.Z.K.Z.c.c.c.c.Z.K.Z.n.v.Z.K.Z.n.Z.K.Z.n.K.Z.T.Z.Z.n.Z.n.Z.Z.Z.S.Z.K.Z.c.c.c.c.Z.K.Z.n.v.Z.K.Z.n.Z.K.",
"v.n.Z.Z.J.n.Z.Z.Z.Z.n.T.S.Z.Z.Z.v.n.v.K.S.Z.Z.Z.K.n.Z.Z.n.v.Z.Z.v.n.Z.Z.K.n.Z.Z.Z.Z.n.T.S.Z.Z.Z.v.n.v.K.S.Z.Z.Z.K.n.Z.Z.n.v.Z.Z.",
"K.S.Z.n.Z.Z.n.K.S.Z.n.Z.T.Z.n.Z.K.Z.n.Z.S.T.Z.c.v.n.Z.T.S.K.c.Z.K.S.Z.n.Z.Z.n.K.S.Z.n.Z.T.Z.n.Z.K.Z.n.Z.S.T.Z.c.v.n.Z.T.S.K.c.Z.",
"S.K.n.Z.S.Z.n.Z.K.Z.S.Z.K.n.Z.c.Z.Z.n.Z.T.Z.Z.Z.K.S.Z.Z.T.Z.Z.c.S.K.n.Z.S.Z.n.Z.K.Z.S.Z.K.n.Z.c.Z.Z.n.Z.T.Z.Z.Z.K.S.Z.Z.T.Z.Z.c.",
"Z.Z.n.Z.Z.Z.Z.Z.K.Z.Z.Z.Z.n.Z.Z.Z.K.Z.Z.K.Z.n.v.Z.K.Z.c.K.c.Z.Z.Z.Z.n.Z.Z.Z.Z.Z.K.Z.Z.Z.Z.n.Z.Z.Z.K.Z.Z.K.Z.n.v.Z.K.Z.c.K.c.Z.Z.",
"Z.T.S.Z.K.S.K.Z.Z.Z.n.Z.S.Z.Z.n.Z.Z.K.v.n.S.K.n.Z.K.Z.c.c.Z.v.n.Z.T.S.Z.K.S.K.Z.Z.Z.n.Z.S.Z.Z.n.Z.Z.K.v.n.S.K.n.Z.K.Z.c.c.Z.v.n.",
"n.Z.T.Z.Z.K.S.Z.S.Z.Z.n.Z.S.Z.Z.n.v.K.n.Z.K.c.n.c.Z.n.v.Z.K.n.Z.n.Z.T.Z.Z.K.S.Z.S.Z.Z.n.Z.S.Z.Z.n.v.K.n.Z.K.c.n.c.Z.n.v.Z.K.n.Z.",
"Z.n.K.n.Z.K.Z.c.K.Z.Z.n.S.Z.n.K.Z.n.Z.n.Z.K.Z.c.c.K.Z.n.S.Z.n.K.Z.n.K.n.Z.K.Z.c.K.Z.Z.n.S.Z.n.K.Z.n.Z.n.Z.K.Z.c.c.K.Z.n.S.Z.n.K."
};
