/* XPM */
static char *walk21750862439[] = {
/* columns rows colors chars-per-pixel */
"64 64 219 2 ",
"   c #050101",
".  c #0B0303",
"X  c #0C0C05",
"o  c #140807",
"O  c #140B0A",
"+  c #1B0D0A",
"@  c #0C1604",
"#  c #131A05",
"$  c #1E110E",
"%  c #1C0D11",
"&  c #191314",
"*  c #23130D",
"=  c #3B1E0C",
"-  c #221513",
";  c #271916",
":  c #2D1B15",
">  c #2C1D1C",
",  c #331B15",
"<  c #172309",
"1  c #172B0D",
"2  c #193917",
"3  c #25280D",
"4  c #27360D",
"5  c #2A2619",
"6  c #34221D",
"7  c #392418",
"8  c #2C3815",
"9  c #313A14",
"0  c #1C1A21",
"q  c #2F1D20",
"w  c #2C2322",
"e  c #342524",
"r  c #3A2622",
"t  c #362826",
"y  c #3C2C25",
"u  c #372929",
"i  c #3B2D2B",
"p  c #3C332B",
"a  c #393231",
"s  c #492108",
"d  c #582B0C",
"f  c #492A1A",
"g  c #562D16",
"h  c #59321A",
"j  c #723A09",
"k  c #683719",
"l  c #733B16",
"z  c #442C28",
"x  c #43312E",
"c  c #4C352C",
"v  c #5B3621",
"b  c #563828",
"n  c #483837",
"m  c #553C36",
"M  c #523D3A",
"N  c #673C22",
"B  c #1D470A",
"V  c #194318",
"C  c #27560C",
"Z  c #2A4917",
"A  c #284D14",
"S  c #345612",
"D  c #365816",
"F  c #2A690D",
"G  c #386715",
"H  c #336810",
"J  c #337712",
"K  c #347E12",
"L  c #2A4823",
"P  c #286625",
"I  c #2F782D",
"U  c #317E2E",
"Y  c #3A6832",
"T  c #7C4316",
"R  c #476417",
"E  c #437618",
"W  c #4A423C",
"Q  c #53453F",
"!  c #5A463D",
"~  c #6A4123",
"^  c #6B482E",
"/  c #6A4838",
"(  c #774B32",
")  c #4A712C",
"_  c #564844",
"`  c #5B4A44",
"'  c #5C4C4A",
"]  c #5C534B",
"[  c #5C5350",
"{  c #644D45",
"}  c #69544B",
"|  c #765848",
" . c #7F4D51",
".. c #665854",
"X. c #645B54",
"o. c #6B5D59",
"O. c #755D56",
"+. c #6F625D",
"@. c #74625C",
"#. c #7A625D",
"$. c #726461",
"%. c #7C6B66",
"&. c #776B68",
"*. c #7D716E",
"=. c #833F1B",
"-. c #93490C",
";. c #9A4D0D",
":. c #884819",
">. c #964D12",
",. c #A74A07",
"<. c #A8540C",
"1. c #B85B09",
"2. c #A75511",
"3. c #B05F10",
"4. c #BD6106",
"5. c #BF6313",
"6. c #A05D27",
"7. c #AC6B37",
"8. c #B87939",
"9. c #C25F03",
"0. c #CA6506",
"q. c #C3630A",
"w. c #D86400",
"e. c #D46D05",
"r. c #DA6B01",
"t. c #D36E08",
"y. c #D47208",
"u. c #D87915",
"i. c #CC7A27",
"p. c #976846",
"a. c #856650",
"s. c #85736B",
"d. c #91766E",
"f. c #847773",
"g. c #BB647C",
"h. c #33810E",
"j. c #3A8814",
"k. c #3A9311",
"l. c #3D9815",
"z. c #31832F",
"x. c #328530",
"c. c #42820F",
"v. c #488519",
"b. c #429A17",
"n. c #429518",
"m. c #549419",
"M. c #609F1F",
"N. c #44A318",
"B. c #54A313",
"V. c #58AC14",
"C. c #60AB1F",
"Z. c #498625",
"A. c #5A8B23",
"S. c #689327",
"D. c #6BBB23",
"F. c #6FC524",
"G. c #70C725",
"H. c #DC8629",
"J. c #DC8C31",
"K. c #D9893C",
"L. c #8CF12E",
"P. c #94FF30",
"I. c #BB865F",
"U. c #8D817F",
"Y. c #978179",
"T. c #AA8369",
"R. c #C2874F",
"E. c #DA8D44",
"W. c #C28552",
"Q. c #D99656",
"!. c #E2A85F",
"~. c #D9A376",
"^. c #C67288",
"/. c #998B87",
"(. c #9F9693",
"). c #AD968D",
"_. c #A79B98",
"`. c #ACA29D",
"'. c #B3A49D",
"]. c #AFA7A3",
"[. c #B7ADA9",
"{. c #BBB2AC",
"}. c #BDB3B1",
"|. c #CCAE8E",
" X c #D5B89A",
".X c #E2B88F",
"XX c #DE9AB2",
"oX c #C3AFAA",
"OX c #C2B3A7",
"+X c #D7BBA3",
"@X c #DFA1B4",
"#X c #C3BAB9",
"$X c #E9C79A",
"%X c #CBC0B6",
"&X c #CCC4BD",
"*X c #DCC9B6",
"=X c #F1D9B8",
"-X c #C8C4C3",
";X c #CBC5C3",
":X c #D4CAC7",
">X c #D4D0CD",
",X c #DAD3CE",
"<X c #DAD5D3",
"1X c #DBD8D4",
"2X c #DEDAD8",
"3X c #E9D7C4",
"4X c #E6DDD4",
"5X c #E2DEDB",
"6X c #EAE1D5",
"7X c #E7E3DC",
"8X c #F0DEE4",
"9X c #E7E4E3",
"0X c #EDEAE7",
"qX c #ECEBEA",
"wX c #F0EEEB",
"eX c #F3F1EF",
"rX c #F6F5F4",
"tX c #F8F8F7",
"yX c #FAFAFA",
/* pixels */
"G.x.N.G.N.N.V.P.V.N.G.x.G.N.x.N.G.x.N.G.N.N.V.G.V.N.G.x.G.N.x.N.G.x.N.G.N.N.V.P.V.N.G.x.G.N.x.N.G.x.N.G.N.N.V.G.V.N.G.x.G.N.x.N.",
"G.N.N.N.k.N.P.N.N.N.N.G.N.N.N.N.G.N.x.N.N.N.N.G.N.N.N.G.x.N.N.x.G.N.N.N.k.N.P.N.N.N.N.G.N.N.N.N.G.N.x.N.N.N.N.G.N.N.N.G.x.N.N.x.",
"N.N.G.V.N.k.G.N.N.x.l.G.N.N.l.x.N.N.x.N.P.N.x.N.N.N.N.G.N.N.N.x.N.N.G.V.N.k.G.N.N.x.l.G.N.N.l.x.N.N.x.N.P.N.x.N.N.N.N.G.N.N.N.x.",
"x.N.N.G.l.N.N.N.G.V.x.N.N.G.P.N.x.N.N.P.N.N.N.V.N.G.V.N.V.N.G.N.x.N.N.G.l.N.N.N.G.V.x.N.N.G.P.N.x.N.N.P.N.N.N.V.N.G.V.N.V.N.G.N.",
"N.N.k.G.k.G.N.k.N.G.x.N.k.N.x.P.N.x.N.G.N.G.N.x.N.N.G.N.N.N.V.G.N.N.k.G.k.G.N.k.N.G.x.N.k.N.x.P.N.x.N.G.N.G.N.x.N.N.G.N.N.N.V.G.",
"N.G.V.N.l.x.N.N.N.G.N.N.N.N.N.G.N.x.N.N.x.V.x.V.N.N.G.x.N.N.N.G.N.G.V.N.l.x.N.N.N.G.N.N.N.N.N.G.N.x.N.N.x.V.x.V.N.N.G.x.N.N.N.G.",
"N.N.G.N.x.N.V.P.N.N.N.N.G.N.G.x.N.G.V.x.N.N.N.N.x.N.N.N.x.N.G.x.N.N.G.N.x.N.V.P.N.N.N.N.G.N.G.x.N.G.V.x.N.N.N.N.x.N.N.N.x.N.G.x.",
"x.k.G.k.x.N.P.N.N.N.G.N.N.G.N.G.x.N.G.x.V.P.N.x.N.N.V.N.x.N.N.G.x.k.G.k.x.N.P.N.N.N.G.N.N.G.N.G.x.N.G.x.V.P.N.x.N.N.V.N.x.N.N.G.",
"N.k.k.k.k.N.G.N.x.l.N.G.N.x.N.G.N.x.G.N.P.N.N.x.N.x.N.N.N.V.N.G.N.k.k.k.k.N.G.N.x.l.N.G.N.x.N.G.N.x.G.N.P.N.N.x.N.x.N.N.N.V.N.G.",
"l.x.l.G.V.N.N.N.G.x.N.N.x.l.N.N.l.x.N.N.G.x.N.N.N.N.x.P.V.N.N.N.l.x.l.G.V.N.N.N.G.x.N.N.x.l.N.N.l.x.N.N.G.x.N.N.N.N.x.P.V.N.N.N.",
"G.N.x.N.V.G.N.k.l.x.N.P.V.G.k.N.G.V.N.x.N.N.x.G.V.N.x.N.P.N.x.N.G.N.x.N.V.G.N.k.l.x.N.P.V.G.k.N.G.V.N.x.N.N.x.G.V.N.x.N.P.N.x.N.",
"N.N.x.N.G.N.N.N.G.V.N.N.P.N.N.k.V.G.x.N.V.N.x.N.G.N.V.N.G.x.N.k.N.N.x.N.G.N.N.N.G.V.N.N.P.N.N.k.V.G.x.N.V.N.x.N.G.N.V.N.G.x.N.k.",
"N.P.N.N.G.N.x.l.N.G.N.k.G.k.N.N.N.N.x.N.N.N.N.N.G.N.N.N.N.x.N.N.N.P.N.N.G.N.x.l.N.G.N.k.G.k.N.N.N.N.x.N.N.N.N.N.G.N.N.N.N.x.N.N.",
"N.N.P.l.x.V.G.x.N.G.N.k.k.N.l.x.N.F.V.N.G.V.G.N.N.N.x.N.V.N.N.x.N.N.P.l.x.V.G.x.N.G.N.k.k.N.l.x.N.G.V.N.G.V.G.N.N.N.x.N.V.N.N.x.",
"x.l.F.z.N.G.k.x.k.N.x.l.N.G.L O X H G.N.N.G.V.N.V.N.N.x.N.V.N.N.x.l.G.x.N.G.k.x.k.N.x.l.N.G.x.N.x.N.G.N.N.G.V.N.V.N.N.x.N.V.N.N.",
"N.x.N.x.N.G.N.k.k.G.N.x.V.) @.s.s.o.S.x.N.G.N.k.G.N.N.x.V.N.x.G.N.x.N.x.N.G.N.k.k.G.l.I m.N.x.P.N.x.G.x.N.G.N.k.G.N.N.x.V.N.x.G.",
"G.x.N.G.N.N.V.G.V.N.G.x.A.m oX4X4XOX} A.N.N.V.P.V.N.G.x.G.N.x.N.G.x.N.G.N.N.V.G.V.n.D e x E z.N.P.x.N.G.N.N.V.P.V.N.G.x.G.N.x.N.",
"G.N.x.N.N.N.N.G.N.N.b.S.k p.*XwX5X{.} * h.N.P.N.N.N.N.G.N.N.N.N.G.c.P N.N.N.N.G.n.) %.#.` 6 b.x.G.N.N.N.k.N.P.N.N.N.N.G.N.N.N.N.",
"N.N.x.N.G.N.x.N.N.N.D l ,.i. XoXf.` b * j.k.G.N.N.x.l.G.N.N.l.x.J 7 y Z.G.N.x.N.D ..%XOX+.; b.z.N.N.G.V.N.k.G.N.N.x.l.G.N.N.l.x.",
"x.N.N.G.N.N.N.V.N.P.0 :.w.u.d.a.e 9 R R k.N.N.N.G.V.x.N.N.G.x.N.< m Y.s.Z.N.N.V.G o.,X&X&.- D.N.x.N.N.G.l.N.N.N.G.V.x.N.N.G.x.N.",
"N.x.N.G.N.G.N.x.N.N.0 =.e.q.( z 4 j.k.G.k.G.N.k.N.G.x.N.k.N.x.G.< } :X&X] E N.P 4 X.,X&X+.- B.G.N.N.k.G.k.G.N.k.N.G.x.N.k.N.x.G.",
"N.x.N.N.x.V.x.V.N.N.0 k 1.,.g : D G.V.N.l.x.N.N.N.G.N.N.N.N.N.G.# O.1X4X' # 2 4 O ] :X}...- l.G.N.G.V.N.l.x.N.N.N.G.N.N.N.N.N.G.",
"N.G.V.x.N.N.N.N.x.N.& f k v f ; C N.G.N.x.N.V.G.N.N.N.N.G.N.G.x.< O.4X2X} X & & - ! &X].' - D.x.N.N.G.N.x.N.V.G.N.N.N.N.G.N.G.x.",
"x.N.G.z.V.P.N.x.N.N.> f N v 7 * V l.G.k.x.N.G.N.N.N.G.N.N.G.N.G.# @.2X7XO.d k T j ( /.f.c > 1 G.x.k.G.k.x.N.G.N.N.N.G.N.N.G.N.G.",
"N.x.G.N.P.N.N.z.N.z.a N 3.<.d $ F k.k.k.k.N.G.N.x.l.N.G.N.x.N.G.# @.4X7XR.4.q.q.0.<./ _ u w > 8 N.k.k.k.k.N.G.N.x.l.N.G.N.x.N.G.",
"l.x.N.N.G.x.N.N.N.N.L h ;.1.T d G x.l.G.V.N.N.N.G.x.N.N.x.l.N.N.< #.,X$XJ.e.y.y.e.0.:.b i a u q l.x.l.G.V.N.N.N.G.x.N.N.x.l.N.N.",
"G.V.N.x.N.N.x.G.V.N._ f f T 3.;.d E x.N.V.P.N.k.l.x.N.P.V.G.k.N.4 ^ Q.J.u.t.y.t.y.y.0.;.b i i i 6 3 x.N.V.P.N.k.l.x.N.P.V.G.k.N.",
"V.G.x.N.V.N.x.N.G.N.M , 5 b 8.6.l , P b.L.b.l.l.D.B.b.b.L.b.b.3 , -.0.e.e.t.e.e.y.r.r.3.k a i a x 7 U b.L.b.N.N.G.V.N.N.P.N.N.k.",
"N.N.x.N.N.N.N.N.G.N.Q 5 5 ! +X).{ r ; - - - ; w w > > > q > > = T 1.e.e.e.0.y.t.e.e.r.3.N x i i p y 6 % + A x.b.N.G.N.k.G.k.N.N.",
"N.P.V.N.G.V.G.N.N.N.p : = ! <X5X/.| T f 6 e u i u u u i i e e b 7.i.e.e.e.y.e.0.1.9.r.5.p.] i u y u e 6 5 R G.x.N.G.N.k.k.N.l.x.",
"z.N.P.N.N.G.V.N.V.N.n.5 , M <XrX5X Xi.>.h i i i a i i i u r 6 } `. XH.e.y.e.y.1.j j 9.E.+X`._ e i i e > Z G.k.x.k.N.x.l.N.G.x.N.",
"N.z.G.z.N.G.N.k.G.N.N.I 4 p oX0XyX=XJ.9.>.h a i a a i i u r 6 o.&X4X!.K.K.K.K.8.z h 8..X0X-X[ y o...i > 8 M.N.k.k.G.N.x.V.N.x.G.",
"G.x.N.G.N.N.V.P.V.N.G.x.C.Z o.{.qX=XH.e.1.;.c p a i x u u r 6 ..#XeX6X3X3X3X3X X_ ! |.5XrX;X..M ].[.' q , D V.G.V.N.G.x.G.N.x.N.",
"G.N.N.N.k.N.P.N.N.N.N.G.N.j.8 ..}. X!.J.y.q.:.~ ~ N N v z r g | ).:X9XrXyXyXyX<X*.s.>XqX8X:Xf.&.}.}._ - 9 K b.F.N.N.N.G.x.N.N.x.",
"N.N.G.V.N.k.G.N.N.x.n.G.N.N.K L ` d.*X$XH.r.q.q.q.q.9.<.k g ,.:./ O.(.1XrXyXyXqX-X-XqX8XXX@X2XoX/.[ Y G G.N.x.N.N.N.N.G.N.N.N.x.",
"x.N.N.G.l.N.N.N.G.V.x.N.N.G.P.j.8 } '.|.H.r.<.1.r.r.w.w.=.:.W.I.s.s.).<XwXqX-X#X-X-X:XoXg.^.:X#Xo.v.N.P.N.N.N.V.N.G.V.N.V.N.G.N.",
"N.N.k.G.k.G.N.k.N.G.x.N.k.N.x.P.D e ..p.q.e.l l 9.r.r.r.1.7. X3X;X>X5XqXqX}.@...&.&.s.%. .a.d.&.l.x.N.G.N.G.N.x.N.N.G.N.N.N.V.G.",
"N.G.V.N.l.x.N.N.N.G.N.N.N.N.N.G.D e u / 2.2.b { W.E.E.K.K.~.6XrXrXrXtXrX#X&.f > e , : , , z x > b.x.N.N.x.V.x.V.N.N.G.x.N.N.N.G.",
"N.N.G.N.x.N.V.P.N.N.N.N.G.N.G.x.D e u u b / /.[.3X4X3X3X3X4XrXyXyXyXyXqX*.7 7 * Z b.b.b.D.n.D.U N.G.V.x.N.N.N.N.x.N.N.N.x.N.G.x.",
"x.k.G.k.x.N.P.N.N.N.G.N.N.G.N.G & e u u t Q /.[.3X0XqXqXqXqXtXyXyXtX>X_.( d = + B N.G.N.b.F.N.G.x.N.G.x.V.P.N.x.N.N.V.N.x.N.N.G.",
"N.k.k.k.k.N.G.N.x.l.N.G.N.x.N.G % e u u u e a _ $.s.*.&.&.(.2XtXyX9Xf./ ;.,.s + 4 l.N.G.N.x.N.G.N.x.G.N.P.N.N.x.N.x.N.N.N.V.N.G.",
"l.x.l.G.V.N.N.N.G.x.N.N.x.l.l.C + z $.' i t _ a % % .   . a ].9XtX<XW f 2.q.g % D x.N.N.x.l.N.N.l.x.N.N.G.x.N.N.N.N.x.P.V.N.N.N.",
"G.N.x.N.V.G.N.k.l.x.N.P.V.G.k.C + { #X]._ e _./.p %   X # & W _.0X<Xn b p.W.b O B x.N.P.V.G.k.N.G.V.N.x.N.N.x.G.V.N.x.N.P.N.x.N.",
"N.N.x.N.G.N.N.N.G.V.N.N.P.N.N.B o o.<X9XU._ _./.c $ @ F v.@ . f.5X<Xn 7 a.T.M O S V.N.N.P.N.N.k.V.G.x.N.V.N.x.N.G.N.V.N.G.x.b.l.",
"N.P.N.N.G.N.x.l.N.G.N.k.G.k.N.C . $.5XtX<X/.o.M f : 4 N.N.2 . f.7X<Xm % m } w @ F G.N.k.G.k.N.N.N.N.x.N.N.N.N.N.G.N.N.N.N.x.N.N.",
"N.N.P.l.x.V.G.x.N.G.N.k.k.N.l.V   o.#X5X2X[.c , 7 * 2 N.V.B   &.&X}.z + : - < A N.G.N.k.k.N.l.x.N.G.V.N.G.V.G.N.N.N.x.N.V.N.N.x.",
"x.l.G.x.N.G.k.x.k.N.x.l.N.G.x.K # w o.s.&. .z , + < J x.N.j.@ w +.O.f : . @ F x.k.N.x.l.N.G.x.N.x.N.G.N.N.G.V.N.V.N.N.x.N.V.N.N.",
"N.x.N.x.N.G.N.k.k.G.N.x.V.N.x.P.K 1 & & - * : + @ J N.x.V.N.P < & : , - X v.N.k.k.G.N.x.V.N.x.P.N.x.G.x.N.G.N.l.G.N.N.x.V.N.x.G.",
"G.x.N.G.N.N.V.G.V.N.G.x.G.N.x.N.P.P J #     X D.K N.G.x.G.N.x.K v.X o m.J N.V.G.V.N.G.x.G.N.x.N.P.x.N.G.N.N.V.P.V.N.G.x.G.N.x.N.",
"G.N.x.N.N.N.N.G.N.N.N.G.x.N.N.x.G.N.N.h.F K G.N.N.N.N.G.N.N.N.N.G.K P N.N.N.N.G.N.N.N.G.x.N.N.x.G.N.N.N.k.N.P.N.N.N.N.G.N.N.N.N.",
"N.N.x.N.G.N.x.N.N.N.N.G.N.N.N.x.N.N.G.V.N.k.G.N.N.x.n.G.N.N.l.x.N.N.x.N.G.N.x.N.N.N.N.G.N.N.N.x.N.N.G.V.N.k.G.N.N.x.l.G.N.N.l.x.",
"x.N.N.G.N.N.N.V.N.P.V.N.V.N.G.N.x.N.N.G.l.N.N.N.G.V.x.N.N.G.x.N.x.N.N.G.N.N.N.V.N.P.V.N.V.N.G.N.x.N.N.G.l.N.N.N.G.V.x.N.N.G.x.N.",
"N.x.N.G.N.G.N.x.N.N.P.N.N.N.V.G.N.N.k.G.k.G.N.k.N.G.x.N.k.N.x.G.N.x.N.G.N.G.N.x.N.N.P.N.N.N.V.G.N.N.k.G.k.G.N.k.N.G.x.N.k.N.x.G.",
"N.x.N.N.x.V.x.V.N.N.G.x.N.N.N.G.N.G.V.N.l.x.N.N.N.G.N.N.N.N.N.G.N.x.N.N.x.V.x.V.N.N.G.x.N.N.N.G.N.G.V.N.l.x.N.N.N.G.N.N.N.N.N.G.",
"N.G.V.x.N.N.N.N.x.N.N.N.x.N.G.x.N.N.G.N.x.N.V.G.N.N.N.N.G.N.G.x.N.G.V.x.N.N.N.N.x.N.N.N.x.N.G.x.N.b.G.N.x.N.V.G.N.N.N.N.G.N.G.x.",
"x.N.G.x.V.P.N.x.N.N.V.N.x.N.N.G.x.k.G.k.x.N.G.N.N.N.G.N.N.G.N.G.x.N.G.x.V.P.N.x.N.N.V.N.x.N.N.G.x.l.G.k.x.N.G.N.N.N.G.N.N.G.N.G.",
"N.x.G.N.P.N.N.x.N.x.N.N.N.V.N.G.N.k.k.k.k.N.G.N.x.l.N.G.N.x.N.G.N.x.G.N.P.N.N.x.N.x.N.N.N.V.N.G.N.k.k.k.k.N.G.N.x.l.N.G.N.x.N.G.",
"l.x.N.N.G.x.N.N.N.N.x.P.V.N.N.N.l.x.l.G.V.N.N.N.G.x.N.N.x.l.N.N.l.x.N.N.G.x.N.N.N.N.x.P.V.N.N.N.l.x.l.G.V.N.N.N.G.x.N.N.x.l.N.N.",
"G.V.N.x.N.N.x.G.V.N.x.N.P.N.x.N.G.N.x.N.V.P.N.k.l.x.N.P.V.G.k.N.G.V.N.x.N.N.x.G.V.N.x.N.P.N.x.N.G.N.x.N.V.P.N.k.l.x.N.P.V.G.k.N.",
"V.G.x.N.V.N.x.N.G.N.V.N.G.x.N.k.N.N.x.N.P.N.N.N.G.V.N.N.P.N.N.k.V.G.x.N.V.N.x.N.G.N.V.N.G.x.N.k.N.N.x.N.P.N.N.N.G.V.N.N.P.N.N.k.",
"N.N.x.N.N.N.N.N.G.N.N.N.N.x.N.N.N.G.N.N.G.N.x.l.N.G.N.k.G.k.N.N.N.N.x.N.N.N.N.N.G.N.N.N.N.x.N.N.N.G.N.N.G.N.x.l.N.G.N.k.G.k.N.N.",
"N.P.V.N.G.V.G.N.N.N.x.N.V.N.N.x.N.N.G.l.x.V.G.x.N.G.N.k.k.N.l.x.N.P.V.N.G.V.G.N.N.N.x.N.V.N.N.x.N.N.G.l.x.V.G.x.N.G.N.k.k.N.l.x.",
"x.N.P.N.N.G.V.N.V.N.N.x.N.V.N.N.x.l.G.x.N.G.k.x.k.N.x.l.N.G.x.N.x.N.P.N.N.G.V.N.V.N.N.x.N.V.N.N.x.l.G.x.N.G.k.x.k.N.x.l.N.G.x.N.",
"N.x.G.x.N.G.N.k.G.N.N.x.V.N.x.G.N.x.N.x.N.G.N.k.k.G.N.x.V.N.x.G.N.x.G.x.N.G.N.k.G.N.N.x.V.N.x.G.N.x.N.x.N.G.N.k.k.G.N.x.V.N.x.G."
};
