/* XPM */
static char *walkup21750930680[] = {
/* columns rows colors chars-per-pixel */
"64 64 208 2 ",
"   c #050101",
".  c #090303",
"X  c #0F0908",
"o  c #150D0C",
"O  c #1A0D0A",
"+  c #091207",
"@  c #0D1F04",
"#  c #0C1B0C",
"$  c #16160A",
"%  c #1B1C0A",
"&  c #140E18",
"*  c #0E1415",
"=  c #1A1417",
"-  c #240F09",
";  c #2B140E",
":  c #28180C",
">  c #38160A",
",  c #251412",
"<  c #2B1A16",
"1  c #271918",
"2  c #361C14",
"3  c #3C1A11",
"4  c #341C1C",
"5  c #0F2A0F",
"6  c #142608",
"7  c #173306",
"8  c #1A3C09",
"9  c #1D2D12",
"0  c #25250C",
"q  c #24360E",
"w  c #232614",
"e  c #2D221D",
"r  c #3A2415",
"t  c #34231A",
"y  c #3B261B",
"u  c #332B18",
"i  c #2A3214",
"p  c #29361A",
"a  c #35321E",
"s  c #383A18",
"d  c #181420",
"f  c #241C22",
"g  c #271B25",
"h  c #361E26",
"j  c #2C2323",
"k  c #272529",
"l  c #2D262B",
"z  c #342423",
"x  c #3B2523",
"c  c #3B2926",
"v  c #332828",
"b  c #342B2B",
"n  c #3D2D2A",
"m  c #383E22",
"M  c #3E302C",
"N  c #382D32",
"B  c #3F3130",
"V  c #451F09",
"C  c #4A240A",
"Z  c #5B2B0C",
"A  c #462514",
"S  c #4D2A12",
"D  c #44291B",
"F  c #4C2A1B",
"G  c #4F3210",
"H  c #4E361C",
"J  c #5B3214",
"K  c #53321D",
"L  c #59351E",
"P  c #612D0C",
"I  c #64330E",
"U  c #6B340E",
"Y  c #783C0E",
"T  c #653218",
"R  c #763812",
"E  c #422926",
"W  c #4C2F24",
"Q  c #4C3123",
"!  c #40312D",
"~  c #553727",
"^  c #5A3524",
"/  c #483835",
"(  c #533C35",
")  c #613624",
"_  c #2B4D0E",
"`  c #2B4615",
"'  c #354917",
"]  c #355C14",
"[  c #385914",
"{  c #3A6C10",
"}  c #337A12",
"|  c #3B7916",
" . c #334322",
".. c #276926",
"X. c #2E792C",
"o. c #31732B",
"O. c #41441C",
"+. c #46561C",
"@. c #7D4313",
"#. c #4D6617",
"$. c #477A17",
"%. c #50751F",
"&. c #4E4531",
"*. c #6B4122",
"=. c #63473C",
"-. c #60703A",
";. c #403E48",
":. c #554946",
">. c #665249",
",. c #6F544C",
"<. c #6B5A53",
"1. c #6B5E5B",
"2. c #6F605A",
"3. c #74635C",
"4. c #7C625B",
"5. c #6C6360",
"6. c #796A67",
"7. c #8A420C",
"8. c #914309",
"9. c #9D4C0C",
"0. c #8B4D18",
"q. c #954D15",
"w. c #97511A",
"e. c #A54D07",
"r. c #A24E0B",
"t. c #A75209",
"y. c #B25303",
"u. c #B55A04",
"i. c #BC5A05",
"p. c #BC6206",
"a. c #8C5836",
"s. c #B66C2C",
"d. c #C15A03",
"f. c #CB5E02",
"g. c #D25801",
"h. c #C65610",
"j. c #C66304",
"k. c #CA6302",
"l. c #CE6B02",
"z. c #C56708",
"x. c #CB680B",
"c. c #D46707",
"v. c #D56D05",
"b. c #DA6E05",
"n. c #D66D08",
"m. c #D57204",
"M. c #D97204",
"N. c #DA6E1C",
"B. c #E77105",
"V. c #D3732C",
"C. c #815E50",
"Z. c #8E6D59",
"A. c #85726D",
"S. c #8B7874",
"D. c #3A8814",
"F. c #3A9311",
"G. c #3D9815",
"H. c #30802E",
"J. c #328530",
"K. c #42810F",
"L. c #409916",
"P. c #51911B",
"I. c #44A318",
"U. c #54A513",
"Y. c #58AC14",
"T. c #5A8F20",
"R. c #62AE20",
"E. c #68B722",
"W. c #78B821",
"Q. c #70C725",
"!. c #DB8437",
"~. c #EC8A33",
"^. c #94FF30",
"/. c #BB8654",
"(. c #8D827A",
"). c #94837C",
"_. c #D2894A",
"`. c #CB9269",
"'. c #9A908D",
"]. c #A5928B",
"[. c #A99B96",
"{. c #A9A19A",
"}. c #B7A9A3",
"|. c #B3ABA8",
" X c #CBA88B",
".X c #E8BF8C",
"XX c #D2BDAA",
"oX c #C5BDB8",
"OX c #C9C1BA",
"+X c #D3C3B6",
"@X c #E9CCB2",
"#X c #CCC9C6",
"$X c #D5CAC6",
"%X c #D9D1CB",
"&X c #DCD4CC",
"*X c #DAD6D4",
"=X c #E0D6CE",
"-X c #E3D8CF",
";X c #E4DBD2",
":X c #E9DCD7",
">X c #EBE3DD",
",X c #E9E8E4",
"<X c #F2EDE9",
"1X c #F3F2EF",
"2X c #F4F5F3",
"3X c #F7F9F7",
"4X c #FAF9F6",
"5X c #F9FBF9",
/* pixels */
"Q.J.I.Q.I.I.Y.^.Y.I.Q.J.Q.I.J.I.Q.J.I.Q.I.I.Y.Q.Y.I.Q.J.Q.I.J.I.Q.J.I.Q.I.I.Y.^.Y.I.Q.J.Q.I.J.I.Q.J.I.Q.I.I.Y.Q.Y.I.Q.J.Q.I.J.I.",
"Q.I.I.I.F.I.^.I.I.I.I.Q.I.I.I.I.Q.I.J.I.I.I.I.Q.I.I.I.Q.J.I.I.J.Q.I.I.I.F.I.^.I.I.I.I.Q.I.I.I.I.Q.I.J.I.I.I.I.Q.I.I.I.Q.J.I.I.J.",
"I.I.Q.Y.I.F.Q.I.I.J.G.Q.I.I.G.J.I.I.J.I.^.I.J.I.I.I.I.Q.I.I.I.J.I.I.Q.Y.I.F.Q.I.I.J.G.Q.I.I.G.J.I.I.J.I.^.I.J.I.I.I.I.Q.I.I.I.J.",
"J.I.I.Q.G.I.I.I.Q.Y.J.I.I.Q.^.I.J.I.I.^.I.I.I.Y.I.Q.Y.I.Y.I.Q.I.J.I.I.Q.G.I.I.I.Q.Y.J.I.I.Q.^.I.J.I.I.^.I.I.I.Y.I.Q.Y.I.Y.I.Q.I.",
"I.I.F.Q.F.Q.I.F.I.Q.J.I.F.I.J.^.I.J.I.Q.I.Q.I.J.I.I.Q.I.I.I.Y.Q.I.I.F.Q.F.Q.I.F.I.Q.J.I.F.I.J.^.I.J.I.Q.I.Q.I.J.I.I.Q.I.I.I.Y.Q.",
"I.Q.Y.I.G.J.I.I.I.Q.I.I.I.I.I.Q.I.J.I.I.J.Y.J.Y.I.I.Q.J.I.I.I.Q.I.Q.Y.I.G.J.I.I.I.Q.I.I.I.I.I.Q.I.J.I.I.J.Y.J.Y.I.I.Q.J.I.I.I.Q.",
"I.I.Q.I.J.I.Y.^.I.I.I.I.Q.I.Q.J.I.Q.Y.J.I.I.I.I.J.I.I.I.J.I.Q.J.I.I.Q.I.J.I.Y.^.I.I.I.I.Q.I.Q.J.I.Q.Y.J.I.I.I.I.J.I.I.I.J.I.Q.J.",
"J.F.Q.F.J.I.^.I.I.I.Q.I.I.Q.I.Q.J.I.Q.J.Y.^.I.J.I.I.Y.I.J.I.I.Q.J.F.Q.F.J.I.^.I.I.I.Q.I.I.Q.I.Q.J.I.Q.J.Y.^.I.J.I.I.Y.I.J.I.I.Q.",
"I.F.F.F.F.I.Q.I.J.G.I.Q.I.J.I.Q.I.J.Q.I.^.I.I.J.I.J.I.I.I.Y.I.Q.I.F.F.F.F.I.Q.I.J.G.I.Q.I.J.I.Q.I.J.Q.I.^.I.I.J.I.J.I.I.I.Y.I.Q.",
"G.J.G.Q.Y.I.I.I.Q.J.I.I.J.G.I.I.G.J.I.I.Q.J.I.I.I.I.J.^.Y.I.I.I.G.J.G.Q.Y.I.I.I.Q.J.I.I.J.G.I.I.G.J.I.I.Q.J.I.I.I.I.J.^.Y.I.I.I.",
"Q.I.J.I.Y.Q.I.F.G.J.I.^.Y.Q.F.I.Q.Y.I.J.I.I.J.Q.Y.I.J.I.^.I.J.I.Q.I.J.I.Y.Q.I.F.G.J.I.^.Y.Q.F.I.Q.Y.I.J.I.I.J.Q.Y.I.J.I.^.I.J.I.",
"I.I.J.I.Q.I.I.I.Q.Y.I.I.^.I.I.F.Y.Q.J.I.Y.I.J.I.Q.I.Y.I.Q.J.I.F.I.I.J.I.Q.I.I.I.Q.Y.I.I.^.I.I.F.Y.Q.J.I.Y.I.J.I.Q.I.Y.I.Q.J.I.F.",
"I.^.I.I.Q.I.J.G.I.Q.I.F.Q.F.I.I.I.I.J.I.I.I.I.9 u v q I.I.J.I.I.I.^.I.I.Q.% a a +.Q.I.F.Q.F.I.I.I.I.J.I.I.I.I.I.Q.I.I.I.I.J.I.I.",
"I.I.^.G.J.Y.Q.J.I.Q.I.F.F.I.G.J.I.Q.Y.I.Q.Y.Q.= < 4.2.' Y.I.I.J.I.I.^.G.J.:.3.M &.Q.I.F.F.I.G.J.I.Q.Y.I.Q.Y.Q.I.I.I.J.I.Y.I.I.J.",
"J.G.Q.J.I.Q.F.J.F.I.J.G.I.Q.J.I.J.I.Q.I.I.Q.Y.% n &X%X3.6 U.I.I.J.G.E.# / #X=X<.q I.H.G.I.Q.J.I.J.I.Q.I.I.Q.Y.I.Y.I.I.J.I.Y.I.I.",
"I.J.I.J.I.Q.I.F.F.Q.I.J.Y.I.J.^.I.J.Q.J.I.Q.I.% ! >X<X{.! ` X.R.F.o.9 M ].5X-X2.i Q.I.J.Y.I.J.^.I.J.Q.J.I.Q.I.F.Q.I.I.J.Y.I.J.Q.",
"Q.J.I.Q.I.I.Y.Q.Y.I.Q.J.Q.I.J.I.^.J.I.Q.I.I.Y.0 / >X2X%X)./ * o X $ B ).;X2X*X<.i I.Q.J.Q.I.J.I.^.J.I.Q.I.I.Y.^.Y.I.Q.J.Q.I.J.I.",
"Q.I.J.I.I.I.I.Q.I.I.I.Q.J.I.I.J.Q.I.I.I.F.I.^.0 ! oX#X|.(.:.j j j H a.`.@X@X+X>.i I.I.Q.J.I.I.J.Q.I.I.I.F.I.^.I.I.I.I.Q.I.I.I.I.",
"I.I.J.I.Q.I.J.I.I.I.I.Q.I.I.I.J.I.I.Q.Y.I.F.Q.w c 1.5.>.( b b N ~ w.z.N.!.!.V.*.p I.I.Q.I.I.I.J.I.I.Q.Y.I.F.Q.I.I.J.G.Q.I.I.G.J.",
"J.I.I.Q.I.I.I.Y.I.^.Y.I.Y.I.Q.I.J.I.I.Q.G.I.| t b b M M b n B ~ w.n.b.v.v.v.f.7.~ W.Y.I.Y.I.Q.I.J.I.I.Q.G.I.I.I.Q.Y.J.I.I.Q.J.I.",
"I.J.I.Q.I.Q.I.J.I.I.^.I.I.I.Y.Q.I.I.F.T.[ %.a x c M ! M M B ~ w.x.n.n.n.v.n.v.i.7.G P.] D.I.Y.Q.I.I.F.Q.F.Q.I.F.I.Q.J.I.F.I.J.Q.",
"I.J.I.I.J.Y.J.Y.I.I.Q.J.I.I.I.Q.I.Q.Y.[ < t b n M M ! ! ! ! ~ w.z.c.n.n.n.n.m.v.u.Z = , ] I.I.Q.I.Q.Y.I.G.J.I.I.I.Q.I.I.I.I.I.Q.",
"I.Q.Y.J.I.I.I.I.J.I.I.I.J.I.Q.J.I.I.Q.D.9 e c M M ! ! c ! M ! ~ 0.z.v.v.n.M.n.b.z.Z & 8 o.I.Q.J.I.I.Q.I.J.I.Y.Q.I.I.I.I.Q.I.Q.J.",
"J.I.Q.J.Y.^.I.J.I.I.Y.I.J.I.I.Q.J.F.Q.F. .z n M ! ! ! ! M ! M N H q.z.n.n.n.m.b.j.I & ` J.I.I.Q.J.F.Q.F.J.I.Q.I.I.I.Q.I.I.Q.I.Q.",
"I.J.Q.I.^.I.I.J.I.J.I.I.I.Y.I.Q.I.F.F.] r x n M ! ! ! M ! ! n l j y 0.l.l.m.M.n.k.I d e { Y.I.Q.I.F.F.F.F.I.Q.I.J.G.I.Q.I.J.I.Q.",
"G.J.I.I.Q.J.I.I.I.I.J.^.Y.I.I.I.G.J.G.#.r y c c M c c ! n c ! :.:.g D p.m.m.M.n.k.P & 4 #.I.I.I.G.J.G.Q.Y.I.I.I.Q.J.I.I.J.G.I.I.",
"Q.Y.I.J.I.I.J.Q.Y.I.J.I.^.I.J.I.Q.I.J.I.' 4 c E c c ! ! n n :.|.OX;.e u.v.l.n.v.d.I 1 _ ^.I.J.I.Q.I.J.I.Y.^.I.F.G.J.I.^.Y.Q.F.I.",
"Y.Q.J.I.Y.I.J.I.Q.I.Y.I.Q.J.I.F.I.I.J.I.^.' D c E c c c x x >. XXX:.t p.p.t.e.y.e.J +.I.Q.J.I.F.I.I.J.I.^.I.I.I.Q.Y.I.I.^.I.I.F.",
"I.I.J.I.I.I.I.I.Q.I.I.I.I.J.I.I.I.Q.I.I.Q.I.a t c c c c E x ^ s.V.E t u.y.A D R *.+.I.I.I.J.I.I.I.Q.I.I.Q.I.J.G.I.Q.I.F.Q.F.I.I.",
"I.^.Y.I.Q.Y.Q.I.I.I.J.I.Y.I.I.J.I.I.Q.G.J.Y.Q.p t c n ^ ) x F y.p.F y t.9.t f Q -.I.J.I.Y.I.I.J.I.I.Q.G.J.Y.Q.J.I.Q.I.F.F.I.G.J.",
"J.I.^.I.I.Q.Y.I.Y.I.I.J.I.Y.I.I.J.G.Q.J.I.Q.G.J.` g Q q.e.D K y.i.F z ^ ^ l f $ Y.I.I.J.I.Y.I.I.J.G.Q.J.I.Q.F.J.F.I.J.G.I.Q.J.I.",
"I.J.Q.J.I.Q.I.F.Q.I.I.J.Y.I.J.Q.I.J.I.J.I.Q.I.F.{ r @.d.y.S D 9.t.F k l l v j 1 Q.I.I.J.Y.I.J.Q.I.J.I.J.I.Q.I.F.F.Q.I.J.Y.I.J.Q.",
"Q.J.I.Q.I.I.Y.^.Y.I.Q.J.Q.I.J.I.Q.J.I.Q.I.I.Y.K.C 7.i.c.y.S f ^ T c k N b c n c $.I.Q.J.Q.I.J.I.Q.J.I.Q.I.I.Y.Q.Y.I.Q.J.Q.I.J.I.",
"Q.I.I.I.F.I.^.I.I.I.I.Q.I.I.I.I.Q.I.J.I.I.I.I.% Z i.b.k.9.t f Q ^ z l *.*.c b t m I.I.Q.I.I.I.I.Q.I.J.I.I.I.I.Q.I.I.I.Q.J.I.I.J.",
"I.I.Q.Y.I.F.Q.I.I.J.G.Q.I.I.G.J.I.I.J.I.^.I.J.% C f.c.q.K j W w.w.y y p.z.F v e s J.L.Q.I.I.L.J.I.I.J.I.^.I.J.I.I.I.I.Q.I.I.I.J.",
"J.I.I.Q.G.I.I.I.Q.Y.J.I.I.Q.^.I.J.I.I.^.I.I.I.% C t.r.L b :.Z./._.Q C l.m.D j 1 O.Y.J.I.I.Q.^.I.J.I.I.^.I.I.I.Y.I.Q.Y.I.Y.I.Q.I.",
"I.I.F.Q.F.Q.I.F.I.Q.J.I.F.I.J.^.I.J.I.Q.I.Q.I.o , ^ K l :.|.*X:X+X( V l.M.D l 1 ' Q.J.I.F.I.J.^.I.J.I.Q.I.Q.I.J.I.I.Q.I.I.I.Y.Q.",
"I.Q.Y.I.G.J.I.I.I.Q.I.I.I.I.I.Q.I.J.I.I.J.Y.J.@ , N h N S.:X5X3X%X=.Z c.M.T Q t s Q.I.I.I.I.I.Q.I.J.I.I.J.Y.J.Y.I.I.Q.J.I.I.I.Q.",
"I.I.Q.I.J.I.Y.^.I.I.I.I.Q.I.Q.J.I.Q.Y.J.L.I.6 . , h h 2.$X4X4X3X=Xa.h.B.B.B.h.U 2 8 I.I.Q.I.Q.J.I.Q.Y.J.I.I.I.I.J.I.I.I.J.I.Q.J.",
"J.F.Q.F.J.I.^.I.I.I.Q.I.I.Q.I.Q.J.I.Q.J.Y.^.@ . - h N [.5X4X4X4X:X`.V.!.~.B.g.Y = 7 Q.I.I.Q.I.Q.J.I.Q.J.Y.^.I.J.I.I.Y.I.J.I.I.Q.",
"I.F.F.F.F.I.Q.I.J.G.I.Q.I.J.I.Q.I.J.Q.I.^.I.@ . > 4 :.%X4X4X4X4X1X>X>X1X-XB.g.R 4 6 I.Q.I.J.I.Q.I.J.Q.I.^.I.I.J.I.J.I.I.I.Y.I.Q.",
"G.J.G.Q.Y.I.I.I.Q.J.I.I.J.G.I.I.G.J.I.I.Q.J.@ O 3 C C.:X4X4X,X%X*X1X5X5X:XN.g.Y 1 5 I.I.J.G.I.I.L.J.I.I.Q.J.I.I.I.I.J.^.Y.I.I.I.",
"Q.I.J.I.Y.Q.I.F.G.J.I.^.Y.Q.F.I.Q.Y.I.J.I.I.# O > 8._.<X4X:X[.<.6.%X5X5X:XN.i.@.< 5 I.^.Y.Q.F.I.Q.Y.I.J.I.I.J.Q.Y.I.J.I.^.I.J.I.",
"I.I.J.I.Q.I.I.I.Q.Y.I.I.^.I.I.F.Y.Q.J.I.Y.I.* , > s..X2X2X$XA.h B #X3X,XXXi.8.I = 7 I.I.^.I.I.F.Y.Q.J.I.Y.I.J.I.Q.I.Y.I.Q.J.I.F.",
"I.^.I.I.Q.I.J.G.I.Q.I.F.Q.F.I.I.I.I.J.I.I.I.6 = W  X<X4X3X-X]./ B OX%X'.,.R 3 : 8 $.I.F.Q.F.I.I.I.I.J.I.I.I.I.I.Q.I.I.I.I.J.I.I.",
"I.I.^.G.J.Y.Q.J.I.Q.I.F.F.I.G.J.I.Q.Y.I.Q.Y.6 = ( -X4X4X<X+XS.c l {.S.x 4 2 , + I.Q.I.F.F.I.G.J.I.Q.Y.I.Q.Y.Q.I.I.I.J.I.Y.I.I.J.",
"J.G.Q.J.I.Q.F.J.F.I.J.G.I.Q.J.I.J.I.Q.I.I.Q.% o &.,X3X,XOX6.M o & :.W 3 3 4 4 + F.I.J.F.I.Q.J.I.J.I.Q.I.I.Q.Y.I.Y.I.I.J.I.Y.I.I.",
"I.J.I.J.I.Q.I.F.F.Q.I.J.Y.I.J.^.I.J.Q.H.I.Q.6   / %X*X}.4.D O     O ; ; ; - ; + F.Q.I.J.Y.I.J.^.I.J.Q.J.I.Q.I.F.Q.I.I.J.Y.I.J.Q.",
"Q.J.I.Q.I.I.Y.Q.Y.I.Q.J.Q.I.J.I.^.J.I.Q.I.I.K.R.< 2.1.( F A :   _ #   . . . $.P.Y.I.Q.J.Q.I.J.I.^.J.I.Q.I.I.Y.^.Y.I.Q.J.Q.I.J.I.",
"Q.I.J.I.I.I.I.Q.I.I.I.Q.J.I.I.J.Q.I.I.I.F.I.^.I.D.X O - 2 r : 8 R.D...} } } I.Q.I.I.I.Q.J.I.I.J.Q.I.I.I.F.I.^.I.I.I.I.Q.I.I.I.I.",
"I.I.J.I.Q.I.J.I.I.I.I.Q.I.I.I.J.I.I.Q.Y.I.F.Q.I.I...    . . 8 X.I.I.J.I.Q.I.J.I.I.I.I.Q.I.I.I.J.I.I.Q.Y.I.F.Q.I.I.J.G.Q.I.I.G.J.",
"J.I.I.Q.I.I.I.Y.I.^.Y.I.Y.I.Q.I.J.I.I.Q.G.I.I.I.Q.Y.X.G.L.E.J.I.J.I.I.Q.I.I.I.Y.I.^.Y.I.Y.I.Q.I.J.I.I.Q.G.I.I.I.Q.Y.J.I.I.Q.J.I.",
"I.J.I.Q.I.Q.I.J.I.I.^.I.I.I.Y.Q.I.I.F.Q.F.Q.I.F.I.Q.J.I.G.I.J.Q.I.J.I.Q.I.Q.I.J.I.I.^.I.I.I.Y.Q.I.I.F.Q.F.Q.I.F.I.Q.J.I.F.I.J.Q.",
"I.J.I.I.J.Y.J.Y.I.I.Q.J.I.I.I.Q.I.Q.Y.I.G.J.I.I.I.Q.I.I.I.I.I.Q.I.J.I.I.J.Y.J.Y.I.I.Q.J.I.I.I.Q.I.Q.Y.I.G.J.I.I.I.Q.I.I.I.I.I.Q.",
"I.Q.Y.J.I.I.I.I.J.I.I.I.J.I.Q.J.I.I.Q.I.J.I.Y.Q.I.I.I.I.Q.I.Q.J.I.Q.Y.J.I.I.I.I.J.I.I.I.J.I.Q.J.I.I.Q.I.J.I.Y.Q.I.I.I.I.Q.I.Q.J.",
"J.I.Q.J.Y.^.I.J.I.I.Y.I.J.I.I.Q.J.F.Q.F.J.I.Q.I.I.I.Q.I.I.Q.I.Q.J.I.Q.J.Y.^.I.J.I.I.Y.I.J.I.I.Q.J.F.Q.F.J.I.Q.I.I.I.Q.I.I.Q.I.Q.",
"I.J.Q.I.^.I.I.J.I.J.I.I.I.Y.I.Q.I.F.F.F.F.I.Q.I.J.G.I.Q.I.J.I.Q.I.J.Q.I.^.I.I.J.I.J.I.I.I.Y.I.Q.I.F.F.F.F.I.Q.I.J.G.I.Q.I.J.I.Q.",
"G.J.I.I.Q.J.I.I.I.I.J.^.Y.I.I.I.G.J.G.Q.Y.I.I.I.Q.J.I.I.J.G.I.I.G.J.I.I.Q.J.I.I.I.I.J.^.Y.I.I.I.G.J.G.Q.Y.I.I.I.Q.J.I.I.J.G.I.I.",
"Q.Y.I.J.I.I.J.Q.Y.I.J.I.^.I.J.I.Q.I.J.I.Y.^.I.F.G.J.I.^.Y.Q.F.I.Q.Y.I.J.I.I.J.Q.Y.I.J.I.^.I.J.I.Q.I.J.I.Y.^.I.F.G.J.I.^.Y.Q.F.I.",
"Y.Q.J.I.Y.I.J.I.Q.I.Y.I.Q.J.I.F.I.I.J.I.^.I.I.I.Q.Y.I.I.^.I.I.F.Y.Q.J.I.Y.I.J.I.Q.I.Y.I.Q.J.I.F.I.I.J.I.^.I.I.I.Q.Y.I.I.^.I.I.F.",
"I.I.J.I.I.I.I.I.Q.I.I.I.I.J.I.I.I.Q.I.I.Q.I.J.G.I.Q.I.F.Q.F.I.I.I.I.J.I.I.I.I.I.Q.I.I.I.I.J.I.I.I.Q.I.I.Q.I.J.G.I.Q.I.F.Q.F.I.I.",
"I.^.Y.I.Q.Y.Q.I.I.I.J.I.Y.I.I.J.I.I.Q.G.J.Y.Q.J.I.Q.I.F.F.I.G.J.I.^.Y.I.Q.Y.Q.I.I.I.J.I.Y.I.I.J.I.I.Q.G.J.Y.Q.J.I.Q.I.F.F.I.G.J.",
"J.I.^.I.I.Q.Y.I.Y.I.I.J.I.Y.I.I.J.G.Q.J.I.Q.F.J.F.I.J.G.I.Q.J.I.J.I.^.I.I.Q.Y.I.Y.I.I.J.I.Y.I.I.J.G.Q.J.I.Q.F.J.F.I.J.G.I.Q.J.I.",
"I.J.Q.J.I.Q.I.F.Q.I.I.J.Y.I.J.Q.I.J.I.J.I.Q.I.F.F.Q.I.J.Y.I.J.Q.I.J.Q.J.I.Q.I.F.Q.I.I.J.Y.I.J.Q.I.J.I.J.I.Q.I.F.F.Q.I.J.Y.I.J.Q."
};
