/* XPM */
static char *walkup31750930680[] = {
/* columns rows colors chars-per-pixel */
"64 64 211 2 ",
"   c #020101",
".  c #0C0503",
"X  c #060C01",
"o  c #160807",
"O  c #1B0B07",
"+  c #140B0B",
"@  c #071204",
"#  c #0E1D04",
"$  c #091909",
"%  c #18190B",
"&  c #150F12",
"*  c #1B1413",
"=  c #200E09",
"-  c #23130D",
";  c #251C0B",
":  c #371B08",
">  c #221613",
",  c #2C1A15",
"<  c #251819",
"1  c #2C1E1B",
"2  c #381E14",
"3  c #341E1A",
"4  c #0F2A0F",
"5  c #132B09",
"6  c #193408",
"7  c #1B2311",
"8  c #153412",
"9  c #272D0D",
"0  c #2A320C",
"q  c #242813",
"w  c #2C2C13",
"e  c #2F221B",
"r  c #34231D",
"t  c #37281A",
"y  c #2C3312",
"u  c #293C1A",
"i  c #333B14",
"p  c #37391B",
"a  c #161326",
"s  c #221E23",
"d  c #2B2628",
"f  c #332525",
"g  c #392623",
"h  c #3A2926",
"j  c #34262A",
"k  c #352A2C",
"l  c #3D2D2A",
"z  c #373422",
"x  c #3E302C",
"c  c #372E33",
"v  c #342C34",
"b  c #461708",
"n  c #4C240B",
"m  c #5C2A04",
"M  c #53290C",
"N  c #492617",
"B  c #462B1D",
"V  c #532C14",
"C  c #49331D",
"Z  c #53341D",
"A  c #5C361E",
"S  c #5A3819",
"D  c #622D0D",
"F  c #76350D",
"G  c #623C1E",
"H  c #683918",
"J  c #432B24",
"K  c #462B26",
"L  c #4B2C23",
"P  c #412E2A",
"I  c #4C3223",
"U  c #40312D",
"Y  c #4A322C",
"T  c #563626",
"R  c #5A3A25",
"E  c #433533",
"W  c #4C3933",
"Q  c #4C3D3A",
"!  c #533D3A",
"~  c #653E24",
"^  c #633B33",
"/  c #2F4C0B",
"(  c #2A4914",
")  c #334314",
"_  c #3A451C",
"`  c #385B15",
"'  c #326B10",
"]  c #327411",
"[  c #387714",
"{  c #3A7D14",
"}  c #394D23",
"|  c #2E6325",
" . c #2C772B",
".. c #307F2E",
"X. c #414311",
"o. c #445217",
"O. c #74411B",
"+. c #476518",
"@. c #4F4C32",
"#. c #53433D",
"$. c #58423D",
"%. c #6C4933",
"&. c #496320",
"*. c #4D4B4E",
"=. c #534542",
"-. c #5A4642",
";. c #564A47",
":. c #54504A",
">. c #5D514D",
",. c #5D5351",
"<. c #634E48",
"1. c #745844",
"2. c #615555",
"3. c #6C5D5A",
"4. c #735E57",
"5. c #74655B",
"6. c #6D6363",
"7. c #726562",
"8. c #796C65",
"9. c #883903",
"0. c #89450C",
"q. c #88480E",
"w. c #984709",
"e. c #894C18",
"r. c #974F19",
"t. c #8D5219",
"y. c #9B5313",
"u. c #975A1D",
"i. c #B44707",
"p. c #A45405",
"a. c #A4540C",
"s. c #A95808",
"d. c #B65807",
"f. c #BB5A04",
"g. c #BB620D",
"h. c #B96612",
"j. c #A35B22",
"k. c #A8622A",
"l. c #C75A03",
"z. c #D35B01",
"x. c #C66305",
"c. c #CA6507",
"v. c #CC6A05",
"b. c #C4640B",
"n. c #D36606",
"m. c #DB6601",
"M. c #D46D06",
"N. c #DA6D03",
"B. c #D26D08",
"V. c #D77005",
"C. c #D56F11",
"Z. c #D67412",
"A. c #E56A01",
"S. c #D15C28",
"D. c #CD7837",
"F. c #E37639",
"G. c #966444",
"H. c #816C67",
"J. c #887E7B",
"K. c #398D13",
"L. c #3A9311",
"P. c #3D9815",
"I. c #30802E",
"U. c #328530",
"Y. c #4A9514",
"T. c #409916",
"R. c #569A19",
"E. c #43A117",
"W. c #44A318",
"Q. c #57AB13",
"!. c #58AC14",
"~. c #69B823",
"^. c #70C725",
"/. c #DD8335",
"(. c #E28527",
"). c #94FF30",
"_. c #9A8178",
"`. c #CE9350",
"'. c #E19755",
"]. c #CA9470",
"[. c #8C8083",
"{. c #978984",
"}. c #AA9890",
"|. c #B3A89B",
" X c #BAB3AD",
".X c #CCB296",
"XX c #CEB7A5",
"oX c #C3BDBB",
"OX c #C9BEB8",
"+X c #CBC1BC",
"@X c #D9CABD",
"#X c #E8D1B5",
"$X c #CFC9C8",
"%X c #D7CDC2",
"&X c #D3CECC",
"*X c #DAD3CA",
"=X c #DAD3CD",
"-X c #DAD5D2",
";X c #DDD9D6",
":X c #E2D4CC",
">X c #E8DBCC",
",X c #E1DDDA",
"<X c #E7E1DA",
"1X c #F1E9DE",
"2X c #EBE9E5",
"3X c #F1EDE8",
"4X c #F3F2E9",
"5X c #F5F5F2",
"6X c #F9F7F3",
"7X c #FAF9F6",
"8X c #FCFCF9",
/* pixels */
"^.U.W.^.W.W.!.).!.W.^.U.^.W.U.W.^.U.W.^.W.W.!.^.!.W.^.U.^.W.U.W.^.U.W.^.W.W.!.).!.W.^.U.^.W.U.W.^.U.W.^.W.W.!.^.!.W.^.U.^.W.U.W.",
"^.W.W.W.L.W.).W.W.W.W.^.W.W.W.W.^.W.U.W.W.W.W.^.W.W.W.^.U.W.W.U.^.W.W.W.L.W.).W.W.W.W.^.W.W.W.W.^.W.U.W.W.W.W.^.W.W.W.^.U.W.W.U.",
"W.W.^.!.W.L.^.W.W.U.P.^.W.W.P.U.W.W.U.W.).W.U.W.W.W.W.^.W.W.W.U.W.W.^.!.W.L.^.W.W.U.P.^.W.W.P.U.W.W.U.W.).W.U.W.W.W.W.^.W.W.W.U.",
"U.W.W.^.P.W.W.W.^.!.U.W.W.^.).W.U.W.W.).W.W.W.!.W.^.!.W.!.W.^.W.U.W.W.^.P.W.W.W.^.!.U.W.W.^.).W.U.W.W.).W.W.W.!.W.^.!.W.!.W.^.W.",
"W.W.L.^.L.^.W.L.W.^.U.W.L.W.U.).W.U.W.^.W.^.W.U.W.W.^.W.W.W.!.^.W.W.L.^.L.^.W.L.W.^.U.W.L.W.U.).W.U.W.^.W.^.W.U.W.W.^.W.W.W.!.^.",
"W.^.!.W.P.U.W.W.W.^.W.W.W.W.W.^.W.U.W.W.U.!.U.!.W.W.^.U.W.W.W.^.W.^.!.W.P.U.W.W.W.^.W.W.W.W.W.^.W.U.W.W.U.!.U.!.W.W.^.U.W.W.W.^.",
"W.W.^.W.U.W.!.).W.W.W.W.^.W.^.U.W.^.!.U.W.W.W.W.U.W.W.W.U.W.^.U.W.W.^.W.U.W.Q.).W.W.W.W.^.W.^.U.W.^.!.U.W.W.W.W.U.W.W.W.U.W.^.U.",
"U.L.^.L.U.W.).W.W.W.^.W.W.^.W.^.U.W.^.U.!.).W.U.W.W.!.W.U.W.W.^.U.L.^.L.U.W.).W.W.W.^.W.W.^.W.^.U.W.^.U.!.).W.U.W.W.!.W.U.W.W.^.",
"W.L.L.L.L.W.^.W.U.P.W.^.W.U.W.^.W.U.^.W.).W.W.U.W.U.W.W.W.!.W.^.W.L.L.L.L.W.^.W.U.P.W.^.W.U.W.^.W.U.^.W.).W.W.U.W.U.W.W.W.!.W.^.",
"P.U.P.^.!.W.W.W.^.U.W.W.U.P.W.W.T.U.W.W.^.U.W.W.W.W.U.).!.W.W.W.P.U.P.^.!.W.W.W.^.U.W.W.U.P.W.W.P.U.W.W.^.U.W.W.W.W.U.).!.W.W.W.",
"^.W.U.W.!.^.W.L.P.U.W.).!.^.L.W.^.!.W.U.W.W.U.^.Q.W.U.W.).W.U.W.^.W.U.W.!.^.W.L.P.U.W.).!.^.L.W.^.!.W.U.W.W.U.^.!.W.U.W.).W.U.W.",
"W.W.U.W.^.W.W.W.^.!.W.W.).W.W.L.Q.^.U.W.Q.W.U.) o.&.o.W.^.U.W.L.W.W.U.W.^.) _ @.&.!.W.W.).W.W.L.!.^.U.W.!.W.U.W.^.W.!.W.^.U.W.L.",
"W.).W.W.^.W.U.P.W.^.W.L.^.L.W.W.W.W.U.W.E.E.E.q j {.4.} W.U.W.W.W.).W.W.o.8.H.-.u ^.W.L.^.L.W.W.W.W.U.W.W.W.W.W.^.W.W.W.W.U.W.W.",
"W.W.).P.U.!.^.U.W.^.W.L.L.W.P.U.W.^.Q.W.^.Q.^.7 ! %XoX:.i W.W.U.W.W.).5 ;.%X*X5.w ^.W.L.L.W.P.U.W.^.!.W.^.!.^.W.W.W.U.W.!.W.W.U.",
"U.P.^.U.W.^.L.U.L.W.U.P.W.^.U.W.U.W.^.W.W.^.!.; -.-X3X{.Q ` W.E.U.P.) h }.4X<X8.9 W.U.P.W.^.U.W.U.W.^.W.W.^.!.W.!.W.W.U.W.!.W.W.",
"W.U.W.U.W.^.W.L.L.^.W.U.!.W.U.).W.U.^.U.W.^.W.% <.-X5X*X}.Q * & & & E _.>X6X<X8.6 ^.W.U.!.W.U.).W.U.^.U.W.^.W.L.^.W.W.U.!.W.U.^.",
"^.U.W.^.W.W.!.^.!.W.^.U.^.W.U.W.).U.W.^.W.W.!.y -. X-X X{.#.v f g I G.].#X>X@X4.0 T.^.U.^.W.U.W.).U.W.^.W.W.!.).!.W.^.U.^.W.U.W.",
"^.W.U.W.W.W.W.^.W.W.W.^.U.W.W.U.^.W.W.W.L.W.).9 P 7.8.,.#.k v v T r.b.Z.D.'.'.G w T.W.^.U.W.W.U.^.W.W.W.L.W.).W.W.W.W.^.W.W.W.W.",
"W.W.U.W.^.W.U.W.W.W.W.^.W.W.W.U.W.W.^.Y.{ ] R.t g j l x l x x R r.b.B.V.N.N.v.e.N 0 { R.T.E.W.U.W.W.^.!.W.L.^.W.W.U.P.^.W.W.P.U.",
"U.W.W.^.W.W.W.!.W.).!.W.!.W.^.W.U.W.W.+., 1 r P x x x U x k R y.c.n.C.B.M.N.N.b.w.n ; 2 +.W.^.W.U.W.W.^.P.W.W.W.^.!.U.W.W.^.U.W.",
"W.U.W.^.W.^.W.U.W.W.).W.W.W.!.^.W.W.L.+., f h U U U U U x x R y.b.C.n.B.B.B.V.M.d.M < 1 ` W.Q.^.W.W.L.^.L.^.W.L.W.^.U.W.L.W.U.^.",
"W.U.W.W.U.!.U.!.W.W.^.U.W.W.W.^.W.^.!.[ q r l l U U U x x x U T e.b.B.B.B.V.V.V.x.n + 7 { W.W.^.W.^.!.W.P.U.W.W.W.^.W.W.W.W.W.^.",
"W.^.!.U.W.W.W.W.U.W.W.W.U.W.^.U.W.W.^.W.u h l U U U x U x l v v ~ h.B.B.B.B.V.V.b.M & ( U.E.^.U.W.W.^.W.U.W.!.^.W.W.W.W.^.W.^.U.",
"U.W.^.U.!.).W.U.W.W.!.W.U.W.W.^.U.L.^.' t t h l l U x h h h d v ^ b.B.B.v.V.B.N.b.V * w | W.W.^.U.L.^.L.U.W.^.W.W.W.^.W.W.^.W.^.",
"W.U.^.W.).W.W.U.W.U.W.W.W.!.W.^.W.L.L.` 2 r g P l U U g x >.;.v ~ g.v.B.v.v.B.V.x.M * < ` !.W.^.W.L.L.L.L.W.^.W.U.P.W.^.W.U.W.^.",
"P.U.W.W.^.U.W.W.W.W.U.).!.W.W.W.P.U.L.~.) r h P l g l h -. X|.*.A s.b.v.v.v.v.v.l.M - +.R.W.W.W.P.U.P.^.!.W.W.W.^.U.W.W.U.P.W.W.",
"^.!.W.U.W.W.U.^.!.W.U.W.).W.U.W.^.W.U.T.R.o.J h l h h g ;.XX.X1.G q.s.d.f.p.p.s.w.n u Y.).W.U.W.^.W.U.W.!.).W.L.P.U.W.).!.^.L.W.",
"!.^.U.W.!.W.U.W.^.W.!.W.^.U.W.L.W.W.U.W.).W.w 3 J j t f I k.Z.v.p.V H p.p.n t m V ) Q.W.^.U.W.L.W.W.U.W.).W.W.W.^.!.W.W.).W.W.L.",
"W.W.U.W.W.W.W.W.^.W.W.W.W.U.W.W.W.^.W.W.^.W.U.w 3 g f L m F d.Z.h.C z 0.9.j a 3 X.W.W.W.W.U.W.W.W.^.W.W.^.W.U.P.W.^.W.L.^.L.W.W.",
"W.).!.W.^.!.^.W.W.W.U.W.!.W.W.U.W.W.^.T.U.!.^.U.9 f J 0.w.V F c.f.Z f R T j s $ W.W.U.W.!.W.W.U.W.W.^.P.U.!.^.U.W.^.W.L.L.W.P.U.",
"U.W.).W.W.^.!.W.!.W.W.U.W.!.W.W.U.T.^.U.W.^.L.U.{ L H f.d.B I s.a.B d v k h f * Y.W.W.U.W.!.W.W.U.P.^.U.W.^.L.U.L.W.U.P.W.^.U.W.",
"W.U.^.U.W.^.W.L.^.W.W.U.!.W.U.^.W.U.W.U.W.^.W.[ ; 0.d.m.b.B d S G g f k k x x r i W.W.U.!.W.U.^.W.U.W.U.W.^.W.L.L.^.W.U.!.W.U.^.",
"^.U.W.^.W.W.!.).!.W.^.U.^.W.U.W.^.U.W.^.W.W.Q.z b f.M.n.a.p d C C g f j l P P g p W.^.U.^.W.U.W.^.U.W.^.W.W.!.^.!.W.^.U.^.W.U.W.",
"^.W.W.W.L.W.).W.W.W.W.^.W.W.W.W.^.W.U.W.W.E.E.p b l.n.y.Z d C u.t.B j j l l x g i W.W.^.W.W.W.W.^.W.U.W.W.W.W.^.W.W.W.^.U.W.W.U.",
"W.W.^.!.W.L.^.W.W.U.P.^.W.W.P.U.W.W.U.W.).W.U.e b d.a.T d s $.`.D.I z G Z U l t 0 U.T.^.W.W.T.U.W.W.U.W.).W.U.W.W.W.W.^.W.W.W.U.",
"U.W.W.^.P.W.W.W.^.!.U.W.W.^.).W.U.W.W.).W.W.W.w N A L v d < <.XX|.=.A a.a.R x e i !.U.W.W.^.).W.U.W.W.).W.W.W.!.W.^.!.W.!.W.^.W.",
"W.W.L.^.L.^.W.L.W.^.U.W.L.W.U.).W.U.W.^.W.^.W.q K f j 7.6.E 6.-XOX1.q.x.M.e.G B y ^.U.W.L.W.U.).W.U.W.^.W.^.W.U.W.W.^.W.W.W.!.^.",
"W.^.!.W.P.U.W.W.W.^.W.W.W.W.W.^.W.U.W.W.U.!.U.w L f =.oX&X[.[.,X%XG.d.A.N.n.i.O.i ^.W.W.W.W.W.^.W.U.W.W.U.!.U.!.W.W.^.U.W.W.W.^.",
"W.W.^.W.U.W.!.).W.W.W.W.^.W.^.U.W.^.!.U.W.W.T.w L f =.&X5X$XoX2X:X].D./.(.A.z.e.i W.W.W.^.W.^.U.W.^.Q.U.W.W.W.W.U.W.W.W.U.W.^.U.",
"U.L.^.L.U.W.).W.W.W.^.W.W.^.W.^.U.W.^.U.Q.).5 > K 3 ! &X7X6X5X7X6X<X1X4X#X(.z.e.w 6 ^.W.W.^.W.^.U.W.^.U.!.).W.U.W.W.!.W.U.W.W.^.",
"W.L.L.L.L.W.^.W.U.P.W.^.W.U.W.^.W.U.^.W.).W.# - V n ^ :X8X8X3X-X-X5X8X8X2XF.z.r.1 5 W.^.W.U.W.^.W.U.^.W.).W.W.U.W.U.W.W.W.!.W.^.",
"P.U.P.^.!.W.W.W.^.U.W.W.U.P.W.W.P.U.W.W.^.U.# - D 9.j.:X8X8X$X2.3.$X6X7X2XF.z.r.3 7 W.W.U.P.W.W.T.U.W.W.^.U.W.W.W.W.U.).!.W.W.W.",
"^.W.U.W.!.^.W.L.P.U.W.).!.^.L.W.^.!.W.U.W.W.$ O n 9.k.<X8X7XoXQ *.oX3X2XXXS.i.F q 4 W.).!.^.L.W.^.Q.W.U.W.W.U.^.!.W.U.W.).W.U.W.",
"W.W.U.W.^.W.W.W.^.!.W.W.).W.W.L.!.^.U.W.Q.T.8 5 . : %.=X7X3X|.c =. X XJ.<.F V - 6 / W.W.).W.W.L.!.^.U.W.!.W.U.W.^.W.!.W.^.U.W.L.",
"W.).W.W.^.W.U.P.W.^.W.L.^.L.W.W.W.W.U.W.W.W.W.W.X . W =X3X X7.1 E {.H.j , j & X W.^.W.L.^.L.W.W.W.W.U.W.W.W.W.W.^.W.W.W.W.U.W.W.",
"W.W.).P.U.!.^.U.W.^.W.L.L.W.P.U.W.^.!.W.^.!.^.W.X . #.=X,X7.e . * =.Y g f K + @ W.^.W.L.L.W.P.U.W.^.!.W.^.!.^.W.W.W.U.W.!.W.W.U.",
"U.P.^.U.W.^.L.U.L.W.U.P.W.^.U.W.U.W.^.W.W.^.!.W.X . =.-X;X,.+     O E 3.,.P o @ L.W.I.P.W.^.U.W.U.W.^.W.W.^.!.W.!.W.W.U.W.!.W.W.",
"W.U.W.U.W.^.W.L.L.^.W.U.!.W.U.).W.U.^.U.W.^.W.L.X . ;.;X;X:.+     + 3.OX X=.o @ L.^.W.U.Q.W.U.).W.U.^.U.W.^.W.L.^.W.W.U.!.W.U.^.",
"^.U.W.^.W.W.!.^.!.W.^.U.^.W.U.W.).U.W.^.W.W.!.).X   Q +X$X! +     o 3.OX+X=.. # !.W.^.U.^.W.U.W.).U.W.^.W.W.!.).!.W.^.U.^.W.U.W.",
"^.W.U.W.W.W.W.^.W.W.W.^.U.W.W.U.^.W.W.W.L.W.).W.] ' > 3.H.L =     = Y 4.>.*   Y.W.W.W.^.U.W.W.U.^.W.W.W.L.W.).W.W.W.W.^.W.W.W.W.",
"W.W.U.W.^.W.U.W.W.W.W.^.W.W.W.U.W.W.^.!.W.L.^.W.W...  + 1 t -     - , * o   | W.W.W.W.^.W.W.W.U.W.W.^.!.W.L.^.W.W.U.P.^.W.W.P.U.",
"U.W.W.^.W.W.W.!.W.).!.W.!.W.^.W.U.W.W.^.P.W.W.W.^.Q. .]   . 8 K. .6       K.W.!.W.).!.W.!.W.^.W.U.W.W.^.P.W.W.W.^.!.U.W.W.^.U.W.",
"W.U.W.^.W.^.W.U.W.W.).W.W.W.!.^.W.W.L.^.L.^.W.L.W.^.U.W.K.L...^.T.U.T.~.T.^.W.U.W.W.).W.W.W.!.^.W.W.L.^.L.^.W.L.W.^.U.W.L.W.U.^.",
"W.U.W.W.U.!.U.!.W.W.^.U.W.W.W.^.W.^.!.W.P.U.W.W.W.^.W.W.W.W.W.^.W.U.W.W.U.!.U.!.W.W.^.U.W.W.W.^.W.^.!.W.P.U.W.W.W.^.W.W.W.W.W.^.",
"W.^.!.U.W.W.W.W.U.W.W.W.U.W.^.U.W.W.^.W.U.W.!.^.W.W.W.W.^.W.^.U.W.^.!.U.W.W.W.W.U.W.W.W.U.W.^.U.W.W.^.W.U.W.!.^.W.W.W.W.^.W.^.U.",
"U.W.^.U.!.).W.U.W.W.!.W.U.W.W.^.U.L.^.L.U.W.^.W.W.W.^.W.W.^.W.^.U.W.^.U.!.).W.U.W.W.!.W.U.W.W.^.U.L.^.L.U.W.^.W.W.W.^.W.W.^.W.^.",
"W.U.^.W.).W.W.U.W.U.W.W.W.!.W.^.W.L.L.L.L.W.^.W.U.P.W.^.W.U.W.^.W.U.^.W.).W.W.U.W.U.W.W.W.!.W.^.W.L.L.L.L.W.^.W.U.P.W.^.W.U.W.^.",
"P.U.W.W.^.U.W.W.W.W.U.).!.W.W.W.P.U.P.^.!.W.W.W.^.U.W.W.U.P.W.W.T.U.W.W.^.U.W.W.W.W.U.).!.W.W.W.P.U.P.^.!.W.W.W.^.U.W.W.U.P.W.W.",
"^.!.W.U.W.W.U.^.!.W.U.W.).W.U.W.^.W.U.W.!.).W.L.P.U.W.).!.^.L.W.^.!.W.U.W.W.U.^.!.W.U.W.).W.U.W.^.W.U.W.!.).W.L.P.U.W.).!.^.L.W.",
"!.^.U.W.!.W.U.W.^.W.!.W.^.U.W.L.W.W.U.W.).W.W.W.^.!.W.W.).W.W.L.!.^.U.W.!.W.U.W.^.W.!.W.^.U.W.L.W.W.U.W.).W.W.W.^.!.W.W.).W.W.L.",
"W.W.U.W.W.W.W.W.^.W.W.W.W.U.W.W.W.^.W.W.^.W.U.P.W.^.W.L.^.L.W.W.W.W.U.W.W.W.W.W.^.W.W.W.W.U.W.W.W.^.W.W.^.W.U.P.W.^.W.L.^.L.W.W.",
"W.).!.W.^.!.^.W.W.W.U.W.!.W.W.U.W.W.^.P.U.!.^.U.W.^.W.L.L.W.P.U.W.).!.W.^.!.^.W.W.W.U.W.!.W.W.U.W.W.^.P.U.!.^.U.W.^.W.L.L.W.P.U.",
"U.W.).W.W.^.!.W.!.W.W.U.W.!.W.W.U.P.^.U.W.^.L.U.L.W.U.P.W.^.U.W.U.W.).W.W.^.!.W.!.W.W.U.W.!.W.W.U.P.^.U.W.^.L.U.L.W.U.P.W.^.U.W.",
"W.U.^.U.W.^.W.L.^.W.W.U.!.W.U.^.W.U.W.U.W.^.W.L.L.^.W.U.!.W.U.^.W.U.^.U.W.^.W.L.^.W.W.U.!.W.U.^.W.U.W.U.W.^.W.L.L.^.W.U.!.W.U.^."
};
