/* XPM */
static char *result[] = {
/* columns rows colors chars-per-pixel */
"64 64 6 1 ",
"  c #F0AF64",
". c #D4915A",
"X c #BF7655",
"o c #AB664D",
"O c #7A4218",
"+ c #3C2734",
/* pixels */
"++++++++++++++++++++++++++++++++++++++++++++++++++++++++++++++++",
"++++++++++++++++++++++++++++++++++++++++++++++++++++++++++++++++",
"++++++++++++++++++++++++++++++++++++++++++++++++++++++++++++++++",
"++++++++++++++++++++++++++++++++++++++++++++++++++++++++++++++++",
"++++..........................................oo........oo..++++",
"++++..........................................oo........oo..++++",
"++++........................................  oo......  oo..++++",
"++++........................................  oo......  oo..++++",
"++++........................................  oo......  oo..++++",
"++++........................................  oo......  oo..++++",
"++++..                                      ..oo......  oo..++++",
"++++..                                      ..oo......  oo..++++",
"++++oooooooooooooooooooooooooooooooooooooooooooo......  oo..++++",
"++++oooooooooooooooooooooooooooooooooooooooooooo......  oo..++++",
"++++..........................................oo......  oo..++++",
"++++..........................................oo......  oo..++++",
"++++........................................  oo......  oo..++++",
"++++........................................  oo......  oo..++++",
"++++........................................  oo......  oo..++++",
"++++........................................  oo......  oo..++++",
"++++..                                      ..oo......  oo..++++",
"++++..                                      ..oo......  oo..++++",
"++++oooooooooooooooooooooooooooooooooooooooooooo......  oo..++++",
"++++oooooooooooooooooooooooooooooooooooooooooooo......  oo..++++",
"++++........oo........ooXXXXXXXXXXXXXXXXXXXXXXoo......  oo..++++",
"++++........oo........ooXXXXXXXXXXXXXXXXXXXXXXoo......  oo..++++",
"++++......  oo......  oo....................XXoo......  oo..++++",
"++++......  oo......  oo....................XXoo......  oo..++++",
"++++......  oo......  oo....................XXoo......  oo..++++",
"++++......  oo......  oo....................XXoo......  oo..++++",
"++++......  oo......  oo....................XXoo......  oo..++++",
"++++......  oo......  oo....................XXoo......  oo..++++",
"++++......  oo......  oo....................XXoo......  oo..++++",
"++++......  oo......  oo....................XXoo......  oo..++++",
"++++......  oo......  oo....................XXoo......  oo..++++",
"++++......  oo......  oo....................XXoo......  oo..++++",
"++++......  oo......  oo....................XXoo......  oo..++++",
"++++......  oo......  oo....................XXoo......  oo..++++",
"++++......  oo......  oo....................XXoo......  oo..++++",
"++++......  oo......  oo....................XXoo......  oo..++++",
"++++......  oo......  oo....................XXoo......  oo..++++",
"++++......  oo......  oo....................XXoo......  oo..++++",
"++++......  oo......  oo....................XXoo......  oo..++++",
"++++......  oo......  oo....................XXoo......  oo..++++",
"++++......  oo......  oo....................XXoo..    ..oo..++++",
"++++......  oo......  oo....................XXoo..    ..oo..++++",
"++++......  oo......  oooooooooooooooooooooooooooooooooooooo++++",
"++++......  oo......  oooooooooooooooooooooooooooooooooooooo++++",
"++++......  oo......  oo....................................++++",
"++++......  oo......  oo....................................++++",
"++++......  oo......  oo....................................++++",
"++++......  oo......  oo....................................++++",
"++++......  oo......  oo....................................++++",
"++++......  oo......  oo....................................++++",
"++++......  oo......  oo..                                  ++++",
"++++......  oo......  oo..                                  ++++",
"++++OOOOOOOOOOOOOOOOOOOOOOOOOOOOOOOOOOOOOOOOOOOOOOOOOOOOOOOO++++",
"++++OOOOOOOOOOOOOOOOOOOOOOOOOOOOOOOOOOOOOOOOOOOOOOOOOOOOOOOO++++",
"++++OOOOOOOOOOOOOOOOOOOOOOOOOOOOOOOOOOOOOOOOOOOOOOOOOOOOOOOO++++",
"++++OOOOOOOOOOOOOOOOOOOOOOOOOOOOOOOOOOOOOOOOOOOOOOOOOOOOOOOO++++",
"++++++++++++++++++++++++++++++++++++++++++++++++++++++++++++++++",
"++++++++++++++++++++++++++++++++++++++++++++++++++++++++++++++++",
"++++++++++++++++++++++++++++++++++++++++++++++++++++++++++++++++",
"++++++++++++++++++++++++++++++++++++++++++++++++++++++++++++++++"
};
