/* XPM */
static char *c85308f837cc49a9efc74835a7f5e5afkA9JiUoFKhPqR32i[] = {
/* columns rows colors chars-per-pixel */
"64 64 77 1 ",
"  c #8E5337",
". c #9C5F35",
"X c #A7643C",
"o c #B66D3C",
"O c #B5713E",
"+ c #C57C37",
"@ c #C2773F",
"# c #C87A3E",
"$ c #C97F3D",
"% c #CF7F3D",
"& c #D57F3A",
"* c #D17C3D",
"= c #D57F3C",
"- c #AF6A41",
"; c #B16A42",
": c #B36C41",
"> c #B76E40",
", c #B66E42",
"< c #B77143",
"1 c #B87343",
"2 c #BA7442",
"3 c #BE7440",
"4 c #BE7842",
"5 c #C37740",
"6 c #C88037",
"7 c #CD823F",
"8 c #CE843F",
"9 c #D7803A",
"0 c #D0803D",
"q c #D5803C",
"w c #D3843D",
"e c #D4843D",
"r c #D9833A",
"t c #DC8339",
"y c #DA853A",
"u c #DD8439",
"i c #D8823C",
"p c #DB863C",
"a c #DC873C",
"s c #D7883D",
"d c #DF893A",
"f c #DE8E3A",
"g c #D98B3E",
"h c #DF8A3C",
"j c #DA8C3E",
"k c #DB8D3E",
"l c #E38937",
"z c #E58A37",
"x c #E78C37",
"c c #E88C37",
"v c #EC8F36",
"b c #E28738",
"n c #E28838",
"m c #E48B38",
"M c #E38C3A",
"N c #E78D38",
"B c #E28D3C",
"V c #E88E38",
"C c #ED9036",
"Z c #EF9537",
"A c #E69239",
"S c #E3923C",
"D c #EB9238",
"F c #EE9638",
"G c #EE9A3A",
"H c #F09536",
"J c #F09636",
"K c #F19837",
"L c #F49A37",
"P c #F69E37",
"I c #F09938",
"U c #F69F38",
"Y c #F79F38",
"T c #FAA437",
"R c #F5A038",
"E c #F8A138",
"W c #FAA438",
/* pixels */
",,EIIUIIggpcccRR11=vvcDDggpcccRR,,EIIUIIggpcccRR11=vvcDDggpcccRR",
",,EIIUIIggpcccRR11=vvcDDggpcccRR,,EIIUIIggpcccRR11=vvcDDggpcccRR",
",,*99bhhggdcc=EE11*vvbhhggdcc=EE,,*99bhhggdcc=EE11*vvbhhggdcc=EE",
"11qvvbrrjjJvvrJJ<<2vvbrrjjJvvrJJ11qvvbrrjjJvvrJJ<<2vvbrrjjKvvrJJ",
"11qvvbrrjjJvvrJJ<<2vvbrrjjJvvrJJ11qvvbrrjjJvvrJJ<<2vvbrrjjJvvrJJ",
"11mvvcnnssJvv=PP115vvbaaggJvv=PP11mvvcnnssJvv=PP115vvbaaggJvv=PP",
"<<=vvb&&%%cvv=vv11qccnyy**cvv=vv<<=vvb&&%%cvv=vv11qccnyy**cvv=vv",
"<<=vvb&&%%cvv=vv11qccnyy**cvv=vv<<=vvb&&%%cvv=vv11qccnyy**cvv=vv",
",,uvvxuu%%rcccvv11cnncFF00rcccvv,,uvvxuu**rcccvv11cnncFF00rcccvv",
",,uvvxuu%%rcccvv11cnncFF00rcccvv,,uvvxuu**rcccvv11cnncFF00rcccvv",
",,mvvvcc%%qcccvv,,PvvCccssuccrPP,,mvvvcc%%qcccvv,,PvvCccssuccrPP",
",,vvvvcc%%zvvzvv  5qq0,,66McvlJJ,,vvvvcc%%zvvzvv  5qq0,,66McclJJ",
",,vvvvcc%%zvvzvv  5qq0,,66McvlJJ,,vvvvcc%7zvCzCv  5qq0,,66McczJJ",
",,=vvvcc%%9ccrvv--GFFIAA00icc=UU,,=vvvcc%%9cvrCv--GFFIAA77icv=UU",
",,*vvmrr%%@cc9vv,,*==bBBjjacc3UU,,*vvmrr%%@ccrvv,,*==bBBjjacv3UU",
",,*vvmrr*%@cc9vv,,*==bBBjjacc3UU,,*vvmrr%%@cc9vv,,*==bBBjjacv3UU",
"22Vvvcxx00#cc*JJ11=vvb99jjnccvEE22Vvvcxx00#cc*CC11=vvb99jjnccvEE",
"22Vvvcxx00#cc*CJ11=vvb99jjnccvEE22Vvvcxx00#cc*CC11=vvb99jjnccvEE",
",,*vcnBBjjCvv=EE11NvvcnnjjJzzcEE,,*vvnBBjjCvCqEE11NvvcnnjjJzzcEE",
"11=vcxDDgspcclJJ<<=vvb&&ggPCCuWW11=vvcDDsspcvzJJ<<=vvb&&ggPCCtWW",
"11=vvcDDsspcclJJ<<=vvb&&ggPCCtWW11=vvcDDsspcclJJ<<=vvb&&ggPCCtWW",
"11=vvbppggacc#KK,,nvvmrr@@fSSSgg11=vvbppggacc#JJ,,nvvmrr@@fSSSgg",
"<<*vvbyyjjdcc*EE,,uvvvccoo$887##<<*vvbyyjjdcc*EE,,uvvvccoo$887##",
"<<*vvbyyjjdcc*EE,,uvvvccoo$887##<<*vvbyyjjdcc*EW,,uvvvccoo$887##",
"11=vvbyyjjZzzvLL,,=vvzuuggFnnuFF11=vvbyyjjZzzvLL,,=vvzuuggFnnuFF",
"11=vvbyyjjZzzvLL,,=CvzuuggFnnuFF11=vvbyyjjZzzvLL,,=vvzuuggFnnuFF",
"11qccnhhjjKcctWW,,nCvy##wwicccEE11qccnhhjjKcctWW,,nvvy##wwpvccEE",
"11CzzvFFeeTEEELL<<=vvcnnggDvv*JJ11CzzvFFeeTEEELL<<=vvcnnjjDvv*JJ",
"11CzzvFFeeTEEELL<<=vvcnnjjDvv*JJ11CzzvFFeeTEEELL<<=vvcnnggDvv*JJ",
"::PCCCxxXXO44411<<cvvczzjjKvvzEE::PCCCxxXXO44411<<cvvvzzjjJvvzEE",
"  1**#;;++Wuu*mm..Cvvbhh00Cvv*CC  1**#;;++Wuu*mm..Cvvbhh00CCv*CC",
"  1**#;;++Wuu*mm..Cvvbhh00Cvv*CC  1**#;;++Wuu*mm..Cvvbhh00CCC*CC",
",,EIIUIIggpcccRR11=vvcDDggpcccRR,,EIIUIIggpcccRR11=vvcDDggpcccRR",
",,EIIUIIggpcccRR11=vvcDDggpcccRR,,EIIUIIggpcccRR11=vvcDDggpcccRR",
",,*99bhhggdcc=EE11*vvbhhggdcc=EE,,*99bhhggdcc=EE11*vvbhhggdcc=EE",
"11qvvbrrjjJvvrJJ<<2vvbrrjjJvvrJJ11qvvbrrjjJvvrJJ<<2vvbrrjjJvvrJJ",
"11qvvbrrjjJvvrJJ<<2vvbrrjjJvvrJJ11qvvbrrjjJvvrJJ<<2vvbrrjjJvvrJJ",
"11mvvcnnssJvv=PP115vvbaaggJvC=PP11mvvcnnssJvv=PP115vvbaaggJvC=PP",
"<<=vvb&&%%cvv=vv11qccnyy**cvC=vv<<=vvb&&%%cvv=vv11qccnyy**cvC=vv",
"<<=vvb&&%%cvv=vv11qccnyy**cvC=vv<<=vvb&&%%cvv=vv11qccnyy**cvC=vv",
",,uvvxuu%%rcccvv11cnncFF00rvccvv,,uvvxuu%%rcccvv11cnncFF00rvccvv",
",,uvvxuu%%rcccvv11cnncFF00rcccvv,,uvvxuu%%rcccvv11cnncFF00rcccvv",
",,mvvvcc%%qcvcvv,,PvvCccssuccrPP,,mvvvcc%%qcvcvv,,PvvCccssuccrPP",
",,vvvvcc%%zvvzvv  5qq0,,66McclJJ,,vvvvcc%%zvvzvv  5qq0,,66McclJJ",
",,vvvvcc%%zvvzvv  5qq0,,66McclJJ,,vvvvcc%%zvvzvv  5qq0,,66McclJJ",
",,=vvvcc%%9ccrvv--GFFIAA77icc=UU,,=vvvcc%%9ccrvv--GFFIAA77icc=UU",
",,*vvmrr%%@cc9vv,,*==bBBjjacc3UU,,*vvmrr%%@cc9vv,,*==bBBjjacc3UU",
",,*vvmrr%%@cc9vv,,*==bBBjjacc3UU,,*vvmrr%%@cc9vv,,*==bBBjjacc3UU",
"22Vvvcxx00#cc*JJ11=vvb99jjnccvEE22Vvvcxx00#cc*JJ11=vvb99jjnccvEE",
"22Vvvcxx00#cc*CC11=vvb99jjnccvEE22Vvvcxx00#cc*CC11=vvb99jjnccvEE",
",,*vvnBBjjCvv=EE11NvvcnnjjJzzcEE,,*vvnBBjjCvv=EE11NvvcnnjjJzzcEE",
"11=vvcDDsspcclJJ<<=vvb&&ggPCCtWW11=vvcDDsspcclJJ<<=vvb&&ggPCCtWW",
"11=vvcDDggavclJJ<<=vvb9&ggPCCtWW11=vvcDDggavclJJ<<=vvb9&ggPCCtWW",
"11=cvbppjgavc#JJ,,nvvmrr@@fSSSgg11=cvbppjgavc#JJ,,nvvmrr@@fSSSgg",
"<<*vvbyyjjdcc*EE,,uvvvccoo$887##<<*vvbyyjjdcc*EE,,uvvvccoo$887##",
"<<*vvbyyjjdcc*EE,,uvvvccoo$887##<<*vvbyyjjdcc*EE,,uvvvccoo$887##",
"11=vvbyyjjZzzvLL,,=vvzuuggFnnuFF11=vvbyyjjZzzvLL,,=vvzuuggFnnuFF",
"11=vvbyyjjZzzvLL,,=vvzuuggFnmuFF11=vvbyyjjZzzvLL,,=vvzuuggFnmuFF",
"11qccnhhjjKcctWW,,nvvy##wwicvcEE11qccnhhjjKcctWW,,nvvy##wwicvcEE",
"11CzzvFFeeTEEELL<<=vvcnnggDvC*JJ11CzzvFFeeTEEELL<<=vvcnnggDvC*JJ",
"11CzzvFFeeTEEELL<<=vvcnnggDvv*JJ11CzzvFFeeTEEELL<<=vvcnnggDvv*JJ",
"::PCCCxxXXO44411<<cvvczzjjJvCzEE::PCCCxxXXO44411<<cvvczzjjJvCzEE",
"  1**#;;++Wuu*mm..Cvvbhh00CvC*CC  1**#;;++Wuu*mm..Cvvbhh00CvC*CC",
"  1**#;;++Wuu*mm..Cvvbhh00CvC*CC  1**#;;++Wuu*mm..Cvvbhh00CvC*CC"
};
