/* XPM */
static char *result[] = {
/* columns rows colors chars-per-pixel */
"69 69 234 2 ",
"   c #020001",
".  c #0A0604",
"X  c #0C0906",
"o  c #0D0609",
"O  c #0D0A0B",
"+  c #140C0C",
"@  c #1B0C0C",
"#  c #170708",
"$  c #15110C",
"%  c #1B110D",
"&  c #1A0F12",
"*  c #161011",
"=  c #1C1412",
"-  c #1C181A",
";  c #24120F",
":  c #29150C",
">  c #231414",
",  c #261A15",
"<  c #241C1C",
"1  c #2A1C1A",
"2  c #271717",
"3  c #3D1A13",
"4  c #311D1A",
"5  c #341A14",
"6  c #200E0A",
"7  c #2E221D",
"8  c #2F281F",
"9  c #34231B",
"0  c #3A231B",
"q  c #392517",
"w  c #171C2A",
"e  c #231E23",
"r  c #2A1D25",
"t  c #331A22",
"y  c #1B212F",
"u  c #2C2222",
"i  c #2C252B",
"p  c #262428",
"a  c #342523",
"s  c #3A2625",
"d  c #352B24",
"f  c #3B2B25",
"g  c #35252C",
"h  c #362B2A",
"j  c #3B2E2C",
"k  c #3D272E",
"l  c #3D312C",
"z  c #37302D",
"x  c #3B2E31",
"c  c #342D32",
"v  c #3C3334",
"b  c #3B3439",
"n  c #383634",
"m  c #2E2931",
"M  c #49241C",
"N  c #42261B",
"B  c #542918",
"V  c #553016",
"C  c #7B3B0A",
"Z  c #693314",
"A  c #68381B",
"S  c #703118",
"D  c #4B2D22",
"F  c #422D2D",
"G  c #432925",
"H  c #43322D",
"J  c #48362B",
"K  c #563829",
"L  c #423533",
"P  c #4A3531",
"I  c #453A35",
"U  c #4A3C37",
"Y  c #4E3E3C",
"T  c #473B39",
"R  c #5B3B32",
"E  c #523D3A",
"W  c #523C30",
"Q  c #663C24",
"!  c #693B28",
"~  c #7B4319",
"^  c #754312",
"/  c #57433B",
"(  c #544033",
")  c #694229",
"_  c #784724",
"`  c #6D4232",
"'  c #65483A",
"]  c #7B5439",
"[  c #704437",
"{  c #5B4944",
"}  c #5A4D49",
"|  c #554745",
" . c #5D504D",
".. c #54494C",
"X. c #63524D",
"o. c #645454",
"O. c #6B5A56",
"+. c #6C5D5B",
"@. c #645959",
"#. c #715D54",
"$. c #6E4D42",
"%. c #796356",
"&. c #6F6463",
"*. c #786868",
"=. c #7E7271",
"-. c #7C716C",
";. c #8B3811",
":. c #8A4718",
">. c #924917",
",. c #995115",
"<. c #88430A",
"1. c #A34E0C",
"2. c #AA4409",
"3. c #B44905",
"4. c #B75B0D",
"5. c #A24E19",
"6. c #A75719",
"7. c #B55A18",
"8. c #A7540D",
"9. c #B86218",
"0. c #BD6B0B",
"q. c #844A29",
"w. c #915830",
"e. c #A05F3B",
"r. c #A96228",
"t. c #C55707",
"y. c #C15D12",
"u. c #D05502",
"i. c #D46B03",
"p. c #DC6D02",
"a. c #D96908",
"s. c #DD720D",
"d. c #C76516",
"f. c #D46D12",
"g. c #D26011",
"h. c #DB7312",
"j. c #CA610C",
"k. c #E56B05",
"l. c #E57402",
"z. c #EA7301",
"x. c #E4710B",
"c. c #EA7A09",
"v. c #EE770E",
"b. c #F27A06",
"n. c #E17914",
"m. c #DB7D22",
"M. c #91604D",
"N. c #A77B5B",
"B. c #887269",
"V. c #877875",
"C. c #937D76",
"Z. c #856C67",
"A. c #C57C45",
"S. c #CA426F",
"D. c #CE6972",
"F. c #BE812D",
"G. c #EA810E",
"H. c #E78529",
"J. c #E38337",
"K. c #E29239",
"L. c #B58B73",
"P. c #CC8552",
"I. c #E2954C",
"U. c #D9A055",
"Y. c #C1826B",
"T. c #DDAC64",
"R. c #E2AB72",
"E. c #C94A82",
"W. c #928582",
"Q. c #9D8D87",
"!. c #9A918A",
"~. c #9A9695",
"^. c #8F8582",
"/. c #A39586",
"(. c #B69784",
"). c #AD9F99",
"_. c #A59A99",
"`. c #A08C86",
"'. c #AEA39C",
"]. c #B4A49A",
"[. c #A89FA2",
"{. c #ACA4A3",
"}. c #A5A2A2",
"|. c #B4ABAA",
" X c #B6B1AB",
".X c #BBB0AF",
"XX c #BDB4B2",
"oX c #CAAD90",
"OX c #ECB98C",
"+X c #DD95AB",
"@X c #C4B6AC",
"#X c #CCB5A8",
"$X c #C2B9B3",
"%X c #CDBCB3",
"&X c #C6BFBB",
"*X c #CCBEBC",
"=X c #C9B3AF",
"-X c #E8BAB2",
";X c #E9D39F",
":X c #CAC1BD",
">X c #D5C6BD",
",X c #D3C3AE",
"<X c #E7CAAB",
"1X c #E4D3B6",
"2X c #F1E4B8",
"3X c #CAC5C4",
"4X c #CFCCCA",
"5X c #D5CAC6",
"6X c #D6D2CA",
"7X c #DAD6D6",
"8X c #D2CFD9",
"9X c #E4D8C9",
"0X c #E6D8DA",
"qX c #E7CBC7",
"wX c #DAE0D4",
"eX c #F4EADD",
"rX c #E7E2D2",
"tX c #EBE6E4",
"yX c #EDEAE6",
"uX c #ECEAEA",
"iX c #F4EBE3",
"pX c #F2EBE9",
"aX c #F3F3EA",
"sX c #FBF8EC",
"dX c #ECF8F3",
"fX c #F5F4F4",
"gX c #F8F5F5",
"hX c #F5FAF4",
"jX c #FAFBF5",
"kX c #F5FBFA",
"lX c #FBFBFA",
"zX c #F8F6F8",
"xX c #EFF0EB",
"cX c None",
/* pixels */
"cXcXcXcXcXcXcXcXcXcXcXcXcXcXcXcXcXcXcXcXcXcXcXcXcXcXcXcXcXcXcXcXcXcXcXcXcXcXcXcXcXcXcXcXcXcXcXcXcXcXcXcXcXcXcXcXcXcXcXcXcXcXcXcXcXcXcXcXcX",
"cXcXcXcXcXcXcXcXcXcXcXcXcXcXcXcXcXcXcXcXcXcXcXcXcXcXcXcXcXcXcXcXcXcXcXcXcXcXcXcXcXcXcXcXcXcXcXcXcXcXcXcXcXcXcXcXcXcXcXcXcXcXcXcXcXcXcXcXcX",
"cXcXcXcXcXcXcXcXcXcXcXcXcXcXcXcXcXcXcXcXcXcXcXcXcXcXcXcXcXcXcXcXcXcXcXcXcXcXcXcXcXcXcXcXcXcXcXcXcXcXcXcXcXcXcXcXcXcXcXcXcXcXcXcXcXcXcXcXcX",
"cXcXcXcXcXcXcXcXcXcXcXcXcXcXcXcXcXcXcXcXcXcXcXcXcXcXcXcXcXcXcXcXcXcXcXcXcXcXcXcXcXcXcXcXcXcXcXcXcXcXcXcXcXcXcXcXcXcXcXcXcXcXcXcXcXcXcXcXcX",
"cXcXcXcXcXcXcXcXcXcXcXcXcXcXcXcXcXcXcXcXcXcXcXcXcXcXcXcXcXcXcXcXcXcXcXcXcXcXcXcXcXcXcXcXcXcXcXcXcXcXcXcXcXcXcXcXcXcXcXcXcXcXcXcXcXcXcXcXcX",
"cXcXcXcXcXcXcXcXcXcXcXcXcXcXcXcXcXcXcXcXcXcXcXcXcXcXcXcXcXcXcXcXcXcXcXcXcXcXcXcXcXcXcXcXcXcXcXcXcXcXcXcXcXcXcXcXcXcXcXcXcXcXcXcXcXcXcXcXcX",
"cXcXcXcXcXcXcXcXcXcXcXcXcXcXcXcXcXcXcXcXcXcXcXcXcXcXcXcXcXcXcXcXcXcXcXcXcXcXcXcXcXcXcXcXcXcXcXcXcXcXcXcXcXcXcXcXcXcXcXcXcXcXcXcXcXcXcXcXcX",
"cXcXcXcXcXcXcXcXcXcXcXcXcXcXcXcXcXcXcXcXcXcXcXcXcXcXcXcXcXcXcXcXcXcXcXcXcXcXcXcXcXcXcXcXcXcXcXcXcXcXcXcXcXcXcXcXcXcXcXcXcXcXcXcXcXcXcXcXcX",
"cXcXcXcXcXcXcXcXcXcXcXcXcXcXcXcXcXcXcXcXcXcXcXcXcXcXcXcXcXcXcXcXcXcXcXcXcXcXcXcXcXcXcXcXcXcXcXcXcXcXcXcXcXcXcXcXcXcXcXcXcXcXcXcXcXcXcXcXcX",
"cXcXcXcXcXcXcXcXcXcXcXcXcXcXcXcXcXcXcXcXcXcXcXcXcXcXcXcXcXcXcXcXcXcXcXcXcXcXcXcXcXcXcXcXcXcXcXcXcXcXcXcXcXcXcXcXcXcXcXcXcXcXcXcXcXcXcXcXcX",
"cXcXcXcXcXcXcXcXcXcXcXcXcXcXcXcXcXcXcXcXcXcXcXcXcXcXcXcXcXcXcXcXcXcXcXcXcXcXcXcXcXcXcXcXcXcXcXcXcXcXcXcXcXcXcXcXcXcXcXcXcXcXcXcXcXcXcXcXcX",
"cXcXcXcXcXcXcXcXcXcXcXcXcXcXcXcXcXcXcXcXcXcXcXcXcXcXcXcXcXcXcXcXcXcXcXcXcXcXcXcXcXcXcXcXcXcXcXcXcXcXcXcXcXcXcXcXcXcXcXcXcXcXcXcXcXcXcXcXcX",
"cXcXcXcXcXcXcXcXcXcXcXcXcXcXcXcXcXcXcXcXcXcXcXcXcXcXcXcXcXcXcXcXcXcXcXcXcXcXcXcXcXcXcXcXcXcXcXcXcXcXcXcXcXcXcXcXcXcXcXcXcXcXcXcXcXcXcXcXcX",
"cXcXcXcXcXcXcXcXcXcXcXcXcXcXcXcXcXcXcXcXcXcXcXcXcXcXcXcXcXcXcXcXcXcXcXcXcXcXcXcXcXcXcXcXcXcXcXcXcXcXcXcXcXcXcXcXcXcXcXcXcXcXcXcXcXcXcXcXcX",
"cXcXcXcXcXcXcXcXcXcXcXcXcXcXcXcXcXcXcXcXcXcXcXcXcXcXcXcXcXcXcXcXcXcXcXcXcXcXcXcXcXcXcXcXcXcXcXcXcXcXcXcXcXcXcXcXcXcXcXcXcXcXcXcXcXcXcXcXcX",
"cXcXcXcXcXcXcXcXcXcXcXcXcXcXcXcXcXcXcXcXcXcXcXcXcXcXcXcXcXcXcXcXcXcXcXcXcXcXcXcXcXcXcXcXcXcXcXcXcXcXcXcXcXcXcXcXcXcXcXcXcXcXcXcXcXcXcXcXcX",
"cXcXcXcXcXcXcXcXcXcXcXcXcXcXcXcXcXcXcXcXcXcXcXcXcXcXcXcXcXcXcXcXcXcXcXcXcXcXcXcXcXcXcXcXcXcXcXcXcXcXcXcXcXcXcXcXcXcXcXcXcXcXcXcXcXcXcXcXcX",
"cXcXcXcXcXcXcXcXcXcXcXcXcXcXcXcXcXcXcXcXcXcXcXcXcXcXcXcXcXcXcXcXcXcXcXcXcXcXcXcXcXcXcXcXcXcXcXcXcXcXcXcXcXcXcXcXcXcXcXcXcXcXcXcXcXcXcXcXcX",
"cXcXcXcXcXcXcXcXcXcXcXcXcXcXcXcXcXcXcXcXcXcXcXcXcXcXcXcXcXcXcXcXcXcXcXcXcXcXcXcXcXcXcXcXcXcXcXcXcXcXcXcXcXcXcXcXcXcXcXcXcXcXcXcXcXcXcXcXcX",
"cXcXcXcXcXcXcXcXcXcXcXcXcXcXcXcXcXcXcXcXcXcXcXcXcXcXcXcXcXcXcXcXcXcXcXcXcXcXcXcXcXcXcXcXcXcXcXcXcXcXcXcXcXcXcXcXcXcXcXcXcXcXcXcXcXcXcXcXcX",
"cXcXcXcXcXcXcXcXcXcXcXcXcXcXcXcXcXcXcXcXcXcXcXcXcXcXcXcXcXcXcXcXcXcXcXcXcXcXcXcXcXcXcXcXcXcXcXcXcXcXcXcXcXcXcXcXcXcXcXcXcXcXcXcXcXcXcXcXcX",
"cXcXcXcXcXcXcXcXcXcXcXcXcXcXcXcXcXcXcXcXcXcXcXcXcXcXcXcXcXcXcXcXcXcXcXcXcXcXcXcXcXcXcXcXcXcXcXcXcXcXcXcXcXcXcXcXcXcXcXcXcXcXcXcXcXcXcXcXcX",
"cXcXcXcXcXcXcXcXcXcXcXcXcXcXcXcXcXcXcXcXcXcXcXcXcXcXcXcXcXcXcXcXcXcXcXcXcXcXcXcXcXcXcXcXcXcXcXcXcXcXcXcXcXcXcXcXcXcXcXcXcXcXcXcXcXcXcXcXcX",
"cXcXcXcXcXcXcXcXcXcXcXcXcXcXcXcXcXcXcXcXcXcXcXcXcXcXcXcXcXcXcXcXcXcXcXcXcXcXcXcXcXcXcXcXcXcXcXcXcXcXcXcXcXcXcXcXcXcXcXcXcXcXcXcXcXcXcXcXcX",
"cXcXcXcXcXcXcXcXcXcXcXcXcXcXcXcXcXcXcXcXcXcXcXcXcXcXcXcXcXcXcXcXcXcXcXcXcXcXcXcXcXcXcXcXcXcXcXcXcXcXcXcXcXcXcXcXcXcXcXcXcXcXcXcXcXcXcXcXcX",
"cXcXcXcXcXcXcXcXcXcXcXcXcXcXcXcXcXcXcXcXcXcXcXcXcXcXcXcXcXcXcXcXcXcXcXcXcXcXcXcXcXcXcXcXcXcXcXcXcXcXcXcXcXcXcXcXcXcXcXcXcXcXcXcXcXcXcXcXcX",
"cXcXcXcXcXcXcXcXcXcXcXcXcXcXcXcXcXcXcXcXcXcXcXcXcXcXcXcXcXcXcXcXcXcXcXcXcXcXcXcXcXcXcXcXcXcXcXcXcXcXcXcXcXcXcXcXcXcXcXcXcXcXcXcXcXcXcXcXcX",
"cXcXcXcXcXcXcXcXcXcXcXcXcXcXcXcXcXcXcXcXcXcXcXcXcXcXcXcXcXcXcXcXcXcXcXcXcXcXcXcXcXcXcXcXcXcXcXcXcXcXcXcXcXcXcXcXcXcXcXcXcXcXcXcXcXcXcXcXcX",
"cXcXcXcXcXcXcXcXcXcXcXcXcXcXcXcXcXcXcXcXcXcXcXcXcXcXcXcXcXcXcXcXcXcXcXcXcXcXcXcXcXcXcXcXcXcXcXcX- 7 * cXcXcXcXcXcXcXcXcXcXcXcXcXcXcXcXcXcX",
"cXcXcXcXcXcXcXcXcXcXcXcXcXcXcXcXcXcXcXcXcXcXcXcXcXcXcXcXcXcXcXcXcXcXcXcXcXcXcXcXcXcXcXcXcXcXcX| %.%.+.( cXcXcXcXcXcXcXcXcXcXcXcXcXcXcXcXcX",
"cXcXcXcXcXcXcXcXcXcXcXcXcXcXcXcXcXcX1 1 + cXcXcXcXcXcXcXcXcXcXcXcXcXcXcXcXcXcXcXcXcXcXcXcXcXl ].eXsXiX'.| cXcXcXcXcXcXcXcXcXcXcXcXcXcXcXcX",
"cXcXcXcXcXcXcXcXcXcXcXcXcXcXcXcXcXi 1 P P u cXcXcXcXcXcXcXcXcXcXcXcXcXcXcXcXcXcXcXcXcXcXcXe ) @XaXjXlX X} , cXcXcXcXcXcXcXcXcXcXcXcXcXcXcX",
"cXcXcXcXcXcXcXcXcXcXcXcXcXcXcXcXcX< , @X6X!.u cXcXcXcXcXcXo $ cXcXcXcXcXcXcXcXcXcXcXcXcXcXd N ' W.5XaX'./ a 1 cXcXcXcXcXcXcXcXcXcXcXcXcXcX",
"cXcXcXcXcXcXcXcXcXcXcXcXcXcXcXcXcX> > &XsX X( O cXcXcXcXd j G J cXcXcXcXcXcXcXcXcXcXcXcXcX( D : ; #.XXL.P f a = cXcXcXcXcXcXcXcXcXcXcXcXcX",
"cXcXcXcXcXcXcXcXcXcXcXcXcXcXcXcXcX> > :XsX'.I X cXcXcXU ,X5X .= cXcXcXcXcXcXcXcXcXcXcXcXcXcXcXX . Y !.o.g h a & cXcXcXcXcXcXcXcXcXcXcXcXcX",
"cXcXcXcXcXcXcXcXcXcXcXcXcXcXcXcXcX@ % $XsX!.f O cXcX, / 6XlX+.= cXcXcXcXcXcXcXcXcXcXcXcXcXcXcXcXcXO h m m h g = cXcXcXcXcXcXcXcXcXcXcXcXcX",
"cXcXcXcXcXcXcXcXcXcXcXcXcXcXcXcXcX# # $XdXL.~ ^ ; $ 2 { 6XkXO.% cXcXcXcXcXcXcXcXcXcXcXcXcXcXcXcXcXcXF ! ,.:.D = cXcXcXcXcXcXcXcXcXcXcXcXcX",
"cXcXcXcXcXcXcXcXcXcXcXcXcXcXcXcXcXo # |.tXU.s.9.0 d 9 { 6XjXO.% cXcXcXcXcXcXcXcXcXcXcXcXcXcXcXcXcXcXD 7.k.t.Z 2 cXcXcXcXcXcXcXcXcXcXcXcXcX",
"cXcXcXcXcXcXcXcXcXcXcXcXcXcXcXcXcX5 B N.T.h.9.A d d a X.6XhXO.% cXcXcXcXcXcXcXcXcXcXcXcXcXcXcXcXcXcXM >.g.1.B = cXcXcXcXcXcXcXcXcXcXcXcXcX",
"cXcXcXcXcXcXcXcXcXcXcXcXcXcXcXO R q.7.a.c.7.U n v l f o.7XlX+.> cXcXcXcXcXcXcXcXcXcXcXcXcXcXcXcXcXcX9 d m k s 2 cXcXcXcXcXcXcXcXcXcXcXcXcX",
"cXcXcXcXcXcXcXcXcXcXcXcXcXcXcX$.5.d.f.s.r.R I L H l l O.6XuXo.; cXcXcXcXcXcXcXcXcXcXcXcXcXcXcXcXcX0 R v H F P s cXcXcXcXcXcXcXcXcXcXcXcXcX",
"cXcXcXcXcXcXcXcXcXcXcXcXcXO ! 2.h.x.v.>.J I L L v H H L } / f 1 cXcXcXcXcXcXcXcXcXcXcXcXcXcXcXcXH f p _ h.y.B & cXcXcXcXcXcXcXcXcXcXcXcXcX",
"cXcXcXcXcXcXcXcXcXcXcXcXcXM 1.x.l.i.c.~ P b b L L L L H l l f d = cXcXcXcXcXcXcXcXcXcXcXcXcXcX4 Z ! $.r.h.j.A > cXcXcXcXcXcXcXcXcXcXcXcXcX",
"cXcXcXcXcXcXcXcXcXa q * 0 5.x.s.p.a.x.) b b b L L H v L v l l l a < w w w y y w y y p r r 1 1 Z 2.P.9XOXH.t.Z 1 cXcXcXcXcXcXcXcXcXcXcXcXcX",
"cXcXcXcXcXcXcXcXcXK q.d ;.k.k.i.p.h.m.) v v l v L L v H F j T L g g a h m i 7 7 a 9 9 , 7 7 9 8.J.1XdX<Xm.5.B 1 cXcXcXcXcXcXcXcXcXcXcXcXcX",
"cXcXcXcXcXcXcXcXcXcX7 w B p.p.C B oX7X#.l z z l j l F j j L .XyX@.t ;.t.3.2.3.3.3.3.3.) z d 9 L.rXjXdXOXe.! t cXcXcXcXcXcXcXcXcXcXcXcXcXcX",
"cXcXcXcXcXcXcXcXcXcXcXF ;.t.g.3 u 3XkX!.T h j h l J H F H Y 4XjX&.r 8.z.b.b.v.G.b.z.G._ z h j {.hXhXaX(.R - cXcXcXcXcXcXcXcXcXcXcXcXcXcXcX",
"cXcXcXcXcXcXcXcXcXcX@ - E oX2Xa 2 3XkXaXV.T f o.{.|.{.{._. XtXjX&.p B ^ 9.x.d.:.^ ~ ! L j h h {.sXaX#X+.e cXcXcXcXcXcXcXcXcXcXcXcXcXcXcXcX",
"cXcXcXcXcXcXcXcXcXq q 7  .5XfXL t *XzXzXzXZ.s W.uXkXzXlXlXkXhXdX@.7 e 7 q.h.7.( n b v v z v c '.uXXX .= cXcXcXcXcXcXcXcXcXcXcXcXcXcXcXcXcX",
"cXcXcXcXcXcXcXcXcXcXO + p V.$X*.*.=X5XfXlX4XO.=XfXzXlXlXlXkX4X~.` ;.<.^ ~ ,.) b b b v l l =.=.'.}. .* cXcXcXcXcXcXcXcXcXcXcXcXcXcXcXcXcXcX",
"cXcXcXcXcXcXcXcXcXcXcXcXcX@ +.tXzX+XE.0XlXlXfXzXlXlXlXzXlX0X} 5 4.l.z.z.,.J b n b v v v X.&XyX^.j = cXcXcXcXcXcXcXcXcXcXcXcXcXcXcXcXcXcXcX",
"cXcXcXcXcXcXcXcXcXcXcXcXcXcXP >XqXD.S.-XeXpXiXtXtXuXzXlXjXfXV.[ P.K.n.z.>.J v n x n b ( [ ).:X-.f $ cXcXcXcXcXcXcXcXcXcXcXcXcXcXcXcXcXcXcX",
"cXcXcXcXcXcXcXcXcXcXcXcXcXcXcXX.` A M 0 9 1 e > 2 g ).pXzXlXzXgXfXdXR.h.;.F v z z z E 7.f.Q x z 4 @ cXcXcXcXcXcXcXcXcXcXcXcXcXcXcXcXcXcXcX",
"cXcXcXcXcXcXcXcXcXcXcXcXcXcXcXcX. X o + $ % @ 4 q : j *XgXlXlXlXkXkX<XA.q.W H I n n ` y.k.4.K J 9 # cXcXcXcXcXcXcXcXcXcXcXcXcXcXcXcXcXcXcX",
"cXcXcXcXcXcXcXcXcXcXcXcXcXcXcXcXcXcXcXcXcXcXcXO K 0 ; | 7XzXlXlXlXlXkXkXlXlXlXlXfX8XoXH.l.z.a.>.9 O cXcXcXcXcXcXcXcXcXcXcXcXcXcXcXcXcXcXcX",
"cXcXcXcXcXcXcXcXcXcXcXcXcXcXcXcXcXcXcXcXcXcXcXcXv G F H _.tXlXlXlXlXgXhXzXlXlXzXfXeX-XI.z.z.k.,.0 O cXcXcXcXcXcXcXcXcXcXcXcXcXcXcXcXcXcXcX",
"cXcXcXcXcXcXcXcXcXcXcXcXcXcXcXcXcXcXcXcXcXcXcXcXx E _.'.k o.7XlXlXlXV.h L I j a 1 ; > - M 4.k.5.q X cXcXcXcXcXcXcXcXcXcXcXcXcXcXcXcXcXcXcX",
"cXcXcXcXcXcXcXcXcXcXcXcXcXcXcXcXcXcXcXcXcXcXcXcXa O.@X>XI 4 %XfXlXgX*., > 6 ; ; = , < < r r.f.>.0 X cXcXcXcXcXcXcXcXcXcXcXcXcXcXcXcXcXcXcX",
"cXcXcXcXcXcXcXcXcXcXcXcXcXcXcXcXcXcXcXcXcXcXcX  r Z.%X>XI 3 F.U.L.M.1 .     o > / :X'...4 /.9XC.9 .   cXcXcXcXcXcXcXcXcXcXcXcXcXcXcXcXcXcX",
"cXcXcXcXcXcXcXcXcXcXcXcXcXcXcXcXcXcXcXcXcXcXcX  * B.%X@Xx 3 0.i.;.5 .   cXcXo 1 ( :X|...F |.hXQ.u .   cXcXcXcXcXcXcXcXcXcXcXcXcXcXcXcXcXcX",
"cXcXcXcXcXcXcXcXcXcXcXcXcXcXcXcXcXcXcXcXcXcXcX    a (.C.u M oX;XM.s O   cXcXO 9 9 { *.L.:XaXlX!.d X   cXcXcXcXcXcXcXcXcXcXcXcXcXcXcXcXcXcX",
"cXcXcXcXcXcXcXcXcXcXcXcXcXcXcXcXcXcXcXcXcXcXcXcXcX  f 5 * ( 6XsXB.7 X cXcXcX. G D 9 V.0XlXlXlX`.d o   cXcXcXcXcXcXcXcXcXcXcXcXcXcXcXcXcXcX",
"cXcXcXcXcXcXcXcXcXcXcXcXcXcXcXcXcXcXcXcXcXcXcXcXcX    1 - g @X5X+.$   cXcXcX  + @ < E Q.5X0X9X*.=   cXcXcXcXcXcXcXcXcXcXcXcXcXcXcXcXcXcXcX",
"cXcXcXcXcXcXcXcXcXcXcXcXcXcXcXcXcXcXcXcXcXcXcXcXcXcXcX. w.V : = .   cXcXcXcXcXcXO Q N 6 @ # # .   cXcXcXcXcXcXcXcXcXcXcXcXcXcXcXcXcXcXcXcX",
"cXcXcXcXcXcXcXcXcXcXcXcXcXcXcXcXcXcXcXcXcXcXcXcXcXcXcX  + + = .   cXcXcXcXcXcXcX  O + @ + o .   cXcXcXcXcXcXcXcXcXcXcXcXcXcXcXcXcXcXcXcXcX",
"cXcXcXcXcXcXcXcXcXcXcXcXcXcXcXcXcXcXcXcXcXcXcXcXcXcXcXcXcX      cXcXcXcXcXcXcXcXcXcX        cXcXcXcXcXcXcXcXcXcXcXcXcXcXcXcXcXcXcXcXcXcXcX",
"cXcXcXcXcXcXcXcXcXcXcXcXcXcXcXcXcXcXcXcXcXcXcXcXcXcXcXcXcXcXcXcXcXcXcXcXcXcXcXcXcXcXcXcXcXcXcXcXcXcXcXcXcXcXcXcXcXcXcXcXcXcXcXcXcXcXcXcXcX",
"cXcXcXcXcXcXcXcXcXcXcXcXcXcXcXcXcXcXcXcXcXcXcXcXcXcXcXcXcXcXcXcXcXcXcXcXcXcXcXcXcXcXcXcXcXcXcXcXcXcXcXcXcXcXcXcXcXcXcXcXcXcXcXcXcXcXcXcXcX",
"cXcXcXcXcXcXcXcXcXcXcXcXcXcXcXcXcXcXcXcXcXcXcXcXcXcXcXcXcXcXcXcXcXcXcXcXcXcXcXcXcXcXcXcXcXcXcXcXcXcXcXcXcXcXcXcXcXcXcXcXcXcXcXcXcXcXcXcXcX"
};
