/* XPM */
static char *result[] = {
/* columns rows colors chars-per-pixel */
"69 69 227 2 ",
"   c #020001",
".  c #0B0504",
"X  c #0C0609",
"o  c #0D0B0A",
"O  c #0B0707",
"+  c #130C0B",
"@  c #1C0C0C",
"#  c #120508",
"$  c #0C110D",
"%  c #15110D",
"&  c #1B110C",
"*  c #140E10",
"=  c #151112",
"-  c #1B1412",
";  c #1E1419",
":  c #1F1A18",
">  c #23120D",
",  c #29180E",
"<  c #321E0F",
"1  c #231413",
"2  c #241A14",
"3  c #2C1D15",
"4  c #251C1C",
"5  c #2B1D1A",
"6  c #2C1615",
"7  c #351E14",
"8  c #371516",
"9  c #220F0A",
"0  c #2D211C",
"q  c #33231C",
"w  c #3E271B",
"e  c #191C28",
"r  c #231D23",
"t  c #2A1B25",
"y  c #311F21",
"u  c #1B212F",
"i  c #2D2323",
"p  c #2D252B",
"a  c #24232A",
"s  c #342424",
"d  c #3A2623",
"f  c #322925",
"g  c #3A2A25",
"h  c #35232C",
"j  c #352B2B",
"k  c #3C2E2B",
"l  c #3D312C",
"z  c #37312F",
"x  c #382E31",
"c  c #3C3333",
"v  c #3C3439",
"b  c #363334",
"n  c #2E2832",
"m  c #401E19",
"M  c #42261C",
"N  c #492719",
"B  c #552717",
"V  c #59361E",
"C  c #7A3B0B",
"Z  c #672E18",
"A  c #712D10",
"S  c #673819",
"D  c #763B17",
"F  c #622B0F",
"G  c #432623",
"H  c #442D2A",
"J  c #452D27",
"K  c #42332E",
"L  c #4C352D",
"P  c #543729",
"I  c #423533",
"U  c #493530",
"Y  c #453A35",
"T  c #4B3935",
"R  c #4B3E39",
"E  c #573B35",
"W  c #512F23",
"Q  c #643B23",
"!  c #6B392D",
"~  c #713C27",
"^  c #754115",
"/  c #5B4032",
"(  c #54443E",
")  c #5C443D",
"_  c #5C523E",
"`  c #65412D",
"'  c #774B2B",
"]  c #644431",
"[  c #724A38",
"{  c #4F4441",
"}  c #554542",
"|  c #584A46",
" . c #585052",
".. c #65534B",
"X. c #6E574C",
"o. c #635452",
"O. c #6C5A55",
"+. c #685A59",
"@. c #735C56",
"#. c #69504C",
"$. c #6F615D",
"%. c #74625A",
"&. c #6F6360",
"*. c #736662",
"=. c #786966",
"-. c #7C6D70",
";. c #7C7371",
":. c #86380C",
">. c #853D14",
",. c #9B3F0C",
"<. c #A63E07",
"1. c #8B430C",
"2. c #8C4B15",
"3. c #834E1A",
"4. c #994819",
"5. c #9C5010",
"6. c #AA4905",
"7. c #B34C03",
"8. c #B64907",
"9. c #B45C0F",
"0. c #BC580D",
"q. c #A34B13",
"w. c #B75B18",
"e. c #A85615",
"r. c #BC6415",
"t. c #874C28",
"y. c #965528",
"u. c #AE6830",
"i. c #C7590B",
"p. c #DE5D01",
"a. c #C34D00",
"s. c #C86908",
"d. c #DA6D02",
"f. c #DA6A07",
"g. c #DB720E",
"h. c #DB7206",
"j. c #C66517",
"k. c #D16511",
"l. c #DA7518",
"z. c #E46A04",
"x. c #E47303",
"c. c #EB7402",
"v. c #E9770B",
"b. c #F17A03",
"n. c #F17907",
"m. c #E27814",
"M. c #DF7D2E",
"N. c #C46A21",
"B. c #966852",
"V. c #816D5A",
"C. c #AC7F5F",
"Z. c #87736B",
"A. c #867975",
"S. c #927B78",
"D. c #C77E46",
"F. c #C64275",
"G. c #D27174",
"H. c #E88010",
"J. c #C38330",
"K. c #E68528",
"L. c #E38C36",
"P. c #99837B",
"I. c #B7826A",
"U. c #D29152",
"Y. c #E1974D",
"T. c #E2AE6B",
"R. c #978A87",
"E. c #9A958F",
"W. c #A2938C",
"Q. c #A99C98",
"!. c #B09E96",
"~. c #A99084",
"^. c #B5A39A",
"/. c #ACA089",
"(. c #A89FA2",
"). c #AAA4A3",
"_. c #ACAAA4",
"`. c #B4AAA6",
"'. c #B9B1AE",
"]. c #BDB6B3",
"[. c #B6B2B1",
"{. c #CCAD8E",
"}. c #E9B489",
"|. c #C6B7A9",
" X c #C2B6B3",
".X c #C8BDB5",
"XX c #D0BEB0",
"oX c #E3B0AF",
"OX c #E5CD9E",
"+X c #D4C2B6",
"@X c #CEC4B6",
"#X c #E4D7B5",
"$X c #E7C9AB",
"%X c #D6BDC6",
"&X c #CBC8C6",
"*X c #D3CDC5",
"=X c #D8C9C3",
"-X c #D6D1CC",
";X c #DCD5C5",
":X c #DAD6D3",
">X c #DCD9D4",
",X c #DAD6D7",
"<X c #D0CCD9",
"1X c #E7CAC5",
"2X c #E3DBD7",
"3X c #E9DFC8",
"4X c #DBE4D8",
"5X c #E6E5DE",
"6X c #F2EADE",
"7X c #F1E2C8",
"8X c #EED7E0",
"9X c #ECECEB",
"0X c #EBE6E6",
"qX c #F3EAE4",
"wX c #F4F3ED",
"eX c #FAF4EA",
"rX c #F7F9ED",
"tX c #F2F3E7",
"yX c #EAFAF5",
"uX c #F6F4F3",
"iX c #F9F6F6",
"pX c #F5FAF3",
"aX c #FBFBF5",
"sX c #F5FAF9",
"dX c #FBFBFA",
"fX c #FAF7F8",
"gX c None",
/* pixels */
"gXgXgXgXgXgXgXgXgXgXgXgXgXgXgXgXgXgXgXgXgXgXgXgXgXgXgXgXgXgXgXgXgXgXgXgXgXgXgXgXgXgXgXgXgXgXgXgXgXgXgXgXgXgXgXgXgXgXgXgXgXgXgXgXgXgXgXgXgX",
"gXgXgXgXgXgXgXgXgXgXgXgXgXgXgXgXgXgXgXgXgXgXgXgXgXgXgXgXgXgXgXgXgXgXgXgXgXgXgXgXgXgXgXgXgXgXgXgXgXgXgXgXgXgXgXgXgXgXgXgXgXgXgXgXgXgXgXgXgX",
"gXgXgXgXgXgXgXgXgXgXgXgXgXgXgXgXgXgXgXgXgXgXgXgXgXgXgXgXgXgXgXgXgXgXgXgXgXgXgXgXgXgXgXgXgXgXgXgXgXgXgXgXgXgXgXgXgXgXgXgXgXgXgXgXgXgXgXgXgX",
"gXgXgXgXgXgXgXgXgXgXgXgXgXgXgXgXgXgXgXgXgXgXgXgXgXgXgXgXgXgXgXgXgXgXgXgXgXgXgXgXgXgXgXgXgXgXgXgXgXgXgXgXgXgXgXgXgXgXgXgXgXgXgXgXgXgXgXgXgX",
"gXgXgXgXgXgXgXgXgXgXgXgXgXgXgXgXgXgXgXgXgXgXgXgXgXgXgXgXgXgXgXgXgXgXgXgXgXgXgXgXgXgXgXgXgXgXgXgXgXgXgXgXgXgXgXgXgXgXgXgXgXgXgXgXgXgXgXgXgX",
"gXgXgXgXgXgXgXgXgXgXgXgXgXgXgXgXgXgXgXgXgXgXgXgXgXgXgXgXgXgXgXgXgXgXgXgXgXgXgXgXgXgXgXgXgXgXgXgXgXgXgXgXgXgXgXgXgXgXgXgXgXgXgXgXgXgXgXgXgX",
"gXgXgXgXgXgXgXgXgXgXgXgXgXgXgXgXgXgXgXgXgXgXgXgXgXgXgXgXgXgXgXgXgXgXgXgXgXgXgXgXgXgXgXgXgXgXgXgXgXgXgXgXgXgXgXgXgXgXgXgXgXgXgXgXgXgXgXgXgX",
"gXgXgXgXgXgXgXgXgXgXgXgXgXgXgXgXgXgXgXgXgXgXgXgXgXgXgXgXgXgXgXgXgXgXgXgXgXgXgXgXgXgXgXgXgXgXgXgXgXgXgXgXgXgXgXgXgXgXgXgXgXgXgXgXgXgXgXgXgX",
"gXgXgXgXgXgXgXgXgXgXgXgXgXgXgXgXgXgXgXgXgXgXgXgXgXgXgXgXgXgXgXgXgXgXgXgXgXgXgXgXgXgXgXgXgXgXgXgXgXgXgXgXgXgXgXgXgXgXgXgXgXgXgXgXgXgXgXgXgX",
"gXgXgXgXgXgXgXgXgXgXgXgXgXgXgXgXgXgXgXgXgXgXgXgXgXgXgXgXgXgXgXgXgXgXgXgXgXgXgXgXgXgXgXgXgXgXgXgXgXgXgXgXgXgXgXgXgXgXgXgXgXgXgXgXgXgXgXgXgX",
"gXgXgXgXgXgXgXgXgXgXgXgXgXgXgXgXgXgXgXgXgXgXgXgXgXgXgXgXgXgXgXgXgXgXgXgXgXgXgXgXgXgXgXgXgXgXgXgXgXgXgXgXgXgXgXgXgXgXgXgXgXgXgXgXgXgXgXgXgX",
"gXgXgXgXgXgXgXgXgXgXgXgXgXgXgXgXgXgXgXgXgXgXgXgXgXgXgXgXgXgXgXgXgXgXgXgXgXgXgXgXgXgXgXgXgXgXgXgXgXgXgXgXgXgXgXgXgXgXgXgXgXgXgXgXgXgXgXgXgX",
"gXgXgXgXgXgXgXgXgXgXgXgXgXgXgXgXgXgXgXgXgXgXgXgXgXgXgXgXgXgXgXgXgXgXgXgXgXgXgXgXgXgXgXgXgXgXgXgXgXgXgXgXgXgXgXgXgXgXgXgXgXgXgXgXgXgXgXgXgX",
"gXgXgXgXgXgXgXgXgXgXgXgXgXgXgXgXgXgXgXgXgXgXgXgXgXgXgXgXgXgXgXgXgXgXgXgXgXgXgXgXgXgXgXgXgXgXgXgXgXgXgXgXgXgXgXgXgXgXgXgXgXgXgXgXgXgXgXgXgX",
"gXgXgXgXgXgXgXgXgXgXgXgXgXgXgXgXgXgXgXgXgXgXgXgXgXgXgXgXgXgXgXgXgXgXgXgXgXgXgXgXgXgXgXgXgXgXgXgXgXgXgXgXgXgXgXgXgXgXgXgXgXgXgXgXgXgXgXgXgX",
"gXgXgXgXgXgXgXgXgXgXgXgXgXgXgXgXgXgXgXgXgXgXgXgXgXgXgXgXgXgXgXgXgXgXgXgXgXgXgXgXgXgXgXgXgXgXgXgXgXgXgXgXgXgXgXgXgXgXgXgXgXgXgXgXgXgXgXgXgX",
"gXgXgXgXgXgXgXgXgXgXgXgXgXgXgXgXgXgXgXgXgXgXgXgXgXgXgXgXgXgXgXgXgXgXgXgXgXgXgXgXgXgXgXgXgXgXgXgXgXgXgXgXgXgXgXgXgXgXgXgXgXgXgXgXgXgXgXgXgX",
"gXgXgXgXgXgXgXgXgXgXgXgXgXgXgXgXgXgXgXgXgXgXgXgXgXgXgXgXgXgXgXgXgXgXgXgXgXgXgXgXgXgXgXgXgXgXgXgXgXgXgXgXgXgXgXgXgXgXgXgXgXgXgXgXgXgXgXgXgX",
"gXgXgXgXgXgXgXgXgXgXgXgXgXgXgXgXgXgXgXgXgXgXgXgXgXgXgXgXgXgXgXgXgXgXgXgXgXgXgXgXgXgXgXgXgXgXgXgXgXgXgXgXgXgXgXgXgXgXgXgXgXgXgXgXgXgXgXgXgX",
"gXgXgXgXgXgXgXgXgXgXgXgXgXgXgXgXgXgXgXgXgXgXgXgXgXgXgXgXgXgXgXgXgXgXgXgXgXgXgXgXgXgXgXgXgXgXgXgXgXgXgXgXgXgXgXgXgXgXgXgXgXgXgXgXgXgXgXgXgX",
"gXgXgXgXgXgXgXgXgXgXgXgXgXgXgXgXgXgXgXgXgXgXgXgXgXgXgXgXgXgXgXgXgXgXgXgXgXgXgXgXgXgXgXgXgXgXgXgXgXgXgXgXgXgXgXgXgXgXgXgXgXgXgXgXgXgXgXgXgX",
"gXgXgXgXgXgXgXgXgXgXgXgXgXgXgXgXgXgXgXgXgXgXgXgXgXgXgXgXgXgXgXgXgXgXgXgXgXgXgXgXgXgXgXgXgXgXgXgXgXgXgXgXgXgXgXgXgXgXgXgXgXgXgXgXgXgXgXgXgX",
"gXgXgXgXgXgXgXgXgXgXgXgXgXgXgXgXgXgXgXgXgXgXgXgXgXgXgXgXgXgXgXgXgXgXgXgXgXgXgXgXgXgXgXgXgXgXgXgXgXgXgXgXgXgXgXgXgXgXgXgXgXgXgXgXgXgXgXgXgX",
"gXgXgXgXgXgXgXgXgXgXgXgXgXgXgXgXgXgXgXgXgXgXgXgXgXgXgXgXgXgXgXgXgXgXgXgXgXgXgXgXgXgXgXgXgXgXgXgXgXgXgXgXgXgXgXgXgXgXgXgXgXgXgXgXgXgXgXgXgX",
"gXgXgXgXgXgXgXgXgXgXgXgXgXgXgXgXgXgXgXgXgXgXgXgXgXgXgXgXgXgXgXgXgXgXgXgXgXgXgXgXgXgXgXgXgXgXgXgXgXgXgXgXgXgXgXgXgXgXgXgXgXgXgXgXgXgXgXgXgX",
"gXgXgXgXgXgXgXgXgXgXgXgXgXgXgXgXgXgXgXgXgXgXgXgXgXgXgXgXgXgXgXgXgXgXgXgXgXgXgXgXgXgXgXgXgXgXgXgXgXgXgXgXgXgXgXgXgXgXgXgXgXgXgXgXgXgXgXgXgX",
"gXgXgXgXgXgXgXgXgXgXgXgXgXgXgXgXgXgXgXgXgXgXgXgXgXgXgXgXgXgXgXgXgXgXgXgXgXgXgXgXgXgXgXgXgXgXgXgXgXgXgXgXgXgXgXgXgXgXgXgXgXgXgXgXgXgXgXgXgX",
"gXgXgXgXgXgXgXgXgXgXgXgXgXgXgXgXgXgXgXgXgXgXgXgXgXgXgXgXgXgXgXgXgXgXgXgXgXgXgXgXgXgXgXgXgXgXgXgXgXgXgXgXgXgXgXgXgXgXgXgXgXgXgXgXgXgXgXgXgX",
"gXgXgXgXgXgXgXgXgXgXgXgXgXgXgXgXgXgXgXgXgXgXgXgXgXgXgXgXgXgXgXgXgXgXgXgXgXgXgXgXgXgXgXgXgXgXgXgX: 0 - gXgXgXgXgXgXgXgXgXgXgXgXgXgXgXgXgXgX",
"gXgXgXgXgXgXgXgXgXgXgXgXgXgXgXgXgXgXgXgXgXgXgXgXgXgXgXgXgXgXgXgXgXgXgXgXgXgXgXgXgXgXgXgXgXgXgX{ %.%...( gXgXgXgXgXgXgXgXgXgXgXgXgXgXgXgXgX",
"gXgXgXgXgXgXgXgXgXgXgXgXgXgXgXgXgXgX0 0 + gXgXgXgXgXgXgXgXgXgXgXgXgXgXgXgXgXgXgXgXgXgXgXgXgXg ^.6XeX6X!.( gXgXgXgXgXgXgXgXgXgXgXgXgXgXgXgX",
"gXgXgXgXgXgXgXgXgXgXgXgXgXgXgXgXgXt 2 U T 0 gXgXgXgXgXgXgXgXgXgXgXgXgXgXgXgXgXgXgXgXgXgXgX: / |.rXaXaX_.| 5 gXgXgXgXgXgXgXgXgXgXgXgXgXgXgX",
"gXgXgXgXgXgXgXgXgXgXgXgXgXgXgXgXgX: : @X;XP.f gXgXgXgXgXgXO % gXgXgXgXgXgXgXgXgXgXgXgXgXgX2 w ) P.*XeXW.T d 6 gXgXgXgXgXgXgXgXgXgXgXgXgXgX",
"gXgXgXgXgXgXgXgXgXgXgXgXgXgXgXgXgX- 2 ;XrX]...% gXgXgXgXf g L E gXgXgXgXgXgXgXgXgXgXgXgXgXg M 9 & O.+XS.H k k q gXgXgXgXgXgXgXgXgXgXgXgXgX",
"gXgXgXgXgXgXgXgXgXgXgXgXgXgXgXgXgX@ : *XrX_._ % gXgXgX( +X+XO.4 gXgXgXgXgXgXgXgXgXgXgXgXgXgXgXO . T !.$.s k f 5 gXgXgXgXgXgXgXgXgXgXgXgXgX",
"gXgXgXgXgXgXgXgXgXgXgXgXgXgXgXgXgX# - *XrX~.l $ gXgX: O.2XaX=.2 gXgXgXgXgXgXgXgXgXgXgXgXgXgXgXgXgX+ T v p z k 0 gXgXgXgXgXgXgXgXgXgXgXgXgX",
"gXgXgXgXgXgXgXgXgXgXgXgXgXgXgXgXgX# @ *XtXI.^ S > - 2 O.:XrX$.2 gXgXgXgXgXgXgXgXgXgXgXgXgXgXgXgXgXgXE [ 5.2.N 0 gXgXgXgXgXgXgXgXgXgXgXgXgX",
"gXgXgXgXgXgXgXgXgXgXgXgXgXgXgXgXgXO @  X5XU.H.N.G 0 0 +.:XpX$.1 gXgXgXgXgXgXgXgXgXgXgXgXgXgXgXgXgXgX] N.c.0.Z 5 gXgXgXgXgXgXgXgXgXgXgXgXgX",
"gXgXgXgXgXgXgXgXgXgXgXgXgXgXgXgXgX7 N B.T.m.w.Q l f f $.>XrX$.2 gXgXgXgXgXgXgXgXgXgXgXgXgXgXgXgXgXgXN 4.k.q.B 2 gXgXgXgXgXgXgXgXgXgXgXgXgX",
"gXgXgXgXgXgXgXgXgXgXgXgXgXgXgXo E y.r.g.n.w.L b l l g *.,XpX$.2 gXgXgXgXgXgXgXgXgXgXgXgXgXgXgXgXgXgX7 i y h s 5 gXgXgXgXgXgXgXgXgXgXgXgXgX",
"gXgXgXgXgXgXgXgXgXgXgXgXgXgXgX` 4.j.f.l.w.E Y I I l l %.:X9XO.1 gXgXgXgXgXgXgXgXgXgXgXgXgXgXgXgXgX0 ) I K g H d gXgXgXgXgXgXgXgXgXgXgXgXgX",
"gXgXgXgXgXgXgXgXgXgXgXgXgX$ [ q.g.h.v.2.T v v I c K K K | ( d 0 gXgXgXgXgXgXgXgXgXgXgXgXgXgXgXgXK g p t.l.0.B - gXgXgXgXgXgXgXgXgXgXgXgXgX",
"gXgXgXgXgXgXgXgXgXgXgXgXgXW e.v.x.d.x.S I v I I K I I K l l g g - gXgXgXgXgXgXgXgXgXgXgXgXgXgXG D ~ X.u.m.i.Z 4 gXgXgXgXgXgXgXgXgXgXgXgXgX",
"gXgXgXgXgXgXgXgXgXc q % G e.f.z.f.f.x.Q v v v I I I I I I l l l f r e e e u u e u u a t t 4 4 A q.U.3X}.K.7.F 2 gXgXgXgXgXgXgXgXgXgXgXgXgX",
"gXgXgXgXgXgXgXgXgX..Q - F z.z.d.d.l.M.Q l c c c c I I K k k Y c y h j x n p y i f 7 q 3 3 i f 5.M.#XyX$XL.<.B 2 gXgXgXgXgXgXgXgXgXgXgXgXgX",
"gXgXgXgXgXgXgXgXgXgXO e D f.z.:.B {.4XX.l k k l k l l k k T ].5X .t ,.a.8.8.8.6.6.7.7.S k j g C.7XsXsX}.u.! t gXgXgXgXgXgXgXgXgXgXgXgXgXgX",
"gXgXgXgXgXgXgXgXgXgXgXh 4.i.k.7 p :XsXE.R j j l I U I H I } -XuX+.p 9.c.c.n.n.n.n.b.H.' k j l [.dXuXuX/.) - gXgXgXgXgXgXgXgXgXgXgXgXgXgXgX",
"gXgXgXgXgXgXgXgXgXgX& + X.|.#Xf i :XdX9X-.c j +.(.`.).).Q.'.9XuX+.e B ^ r.g.j.2.S ^ ~ U x k k [.aXwX{.| ; gXgXgXgXgXgXgXgXgXgXgXgXgXgXgXgX",
"gXgXgXgXgXgXgXgXgXk 7 1 -.>XrXk y :XfXfXuX*.g E.0XfXfXdXfXsXsX9X .: a i t.m.e./ v b c x l c c [.uX@X{ o gXgXgXgXgXgXgXgXgXgXgXgXgXgXgXgXgX",
"gXgXgXgXgXgXgXgXgXgX+ O i W. X;.-.%X%XuXdX-X..].uXdXdXdXdXsX&XE.! C 1.C ^ y.` v v v c c c ;.P._._. .+ gXgXgXgXgXgXgXgXgXgXgXgXgXgXgXgXgXgX",
"gXgXgXgXgXgXgXgXgXgXgXgXgX1 Z.0XfXoXF.8XdXdXiXiXdXfXdXfXdX,X} 7 9.x.x.b.6.L v c v v c l o.&X9XR.I - gXgXgXgXgXgXgXgXgXgXgXgXgXgXgXgXgXgXgX",
"gXgXgXgXgXgXgXgXgXgXgXgXgXgX( ;X1XG.F.1X6XqXqXqX0X9XfXdXdX9XZ.! U.L.m.c.1.K b c c b c / #.!.&XA.I 2 gXgXgXgXgXgXgXgXgXgXgXgXgXgXgXgXgXgXgX",
"gXgXgXgXgXgXgXgXgXgXgXgXgXgXgX) [ Z N q 0 0 4 4 4 5 !.9XdXdXfXiXwXyXT.l.>.H x z k b / j.k.Q l g q > gXgXgXgXgXgXgXgXgXgXgXgXgXgXgXgXgXgXgX",
"gXgXgXgXgXgXgXgXgXgXgXgXgXgXgXgX. O # + & @ * 6 7 , U  XuXdXdXdXuXsX$XD.t.T I Y b b [ j.x.9.V l q @ gXgXgXgXgXgXgXgXgXgXgXgXgXgXgXgXgXgXgX",
"gXgXgXgXgXgXgXgXgXgXgXgXgXgXgXgXgXgXgXgXgXgXgX  W 7 1  .,XdXdXdXdXfXsXsXdXdXdXdXiX<X{.K.c.x.p.:.q * gXgXgXgXgXgXgXgXgXgXgXgXgXgXgXgXgXgXgX",
"gXgXgXgXgXgXgXgXgXgXgXgXgXgXgXgXgXgXgXgXgXgXgXgX( s H U Q.0XdXdXdXdXiXfXaXdXdXfXaX6XoXY.v.c.d.4.M * gXgXgXgXgXgXgXgXgXgXgXgXgXgXgXgXgXgXgX",
"gXgXgXgXgXgXgXgXgXgXgXgXgXgXgXgXgXgXgXgXgXgXgXgXT | !.R.f o.,XdXdXfX-.d I U H s 3 6 ; ; B 0.h.5.M % gXgXgXgXgXgXgXgXgXgXgXgXgXgXgXgXgXgXgX",
"gXgXgXgXgXgXgXgXgXgXgXgXgXgXgXgXgXgXgXgXgXgXgXgXk =. X Xc H @XdXdX0X+.1 > > 1 1 1 t 4 4 i u.l.4.w $ gXgXgXgXgXgXgXgXgXgXgXgXgXgXgXgXgXgXgX",
"gXgXgXgXgXgXgXgXgXgXgXgXgXgXgXgXgXgXgXgXgXgXgX  s S.XXXXc M J.Y.I.#.6       . ; E XX!.} y !.#XP.l o gXgXgXgXgXgXgXgXgXgXgXgXgXgXgXgXgXgXgX",
"gXgXgXgXgXgXgXgXgXgXgXgXgXgXgXgXgXgXgXgXgXgXgX  1 Z.+X`.k m s.s.:.8 #   gXgX  1 E .X).} I ].pXW.l o   gXgXgXgXgXgXgXgXgXgXgXgXgXgXgXgXgXgX",
"gXgXgXgXgXgXgXgXgXgXgXgXgXgXgXgXgXgXgXgXgXgXgX    3 ~.Z.0 W {.OXB.i O   gXgX  1 7 ( =.R..XtXaXW.l +   gXgXgXgXgXgXgXgXgXgXgXgXgXgXgXgXgXgX",
"gXgXgXgXgXgXgXgXgXgXgXgXgXgXgXgXgXgXgXgXgXgXgXgXgX  U N 1 } ;XtX%.2 . gXgXgX  M M 7 A.,XdXdXaX!.K +   gXgXgXgXgXgXgXgXgXgXgXgXgXgXgXgXgXgX",
"gXgXgXgXgXgXgXgXgXgXgXgXgXgXgXgXgXgXgXgXgXgXgXgXgX    3 1 I |.;X%.-   gXgXgX  + @ 4 ( R.&X2X=X=.-   gXgXgXgXgXgXgXgXgXgXgXgXgXgXgXgXgXgXgX",
"gXgXgXgXgXgXgXgXgXgXgXgXgXgXgXgXgXgXgXgXgXgXgXgXgXgXgX. ! N , % .   gXgXgXgXgXgXX P M 9 @ 9 + .   gXgXgXgXgXgXgXgXgXgXgXgXgXgXgXgXgXgXgXgX",
"gXgXgXgXgXgXgXgXgXgXgXgXgXgXgXgXgXgXgXgXgXgXgXgXgXgXgX  O = = O   gXgXgXgXgXgXgX  O + @ + O O   gXgXgXgXgXgXgXgXgXgXgXgXgXgXgXgXgXgXgXgXgX",
"gXgXgXgXgXgXgXgXgXgXgXgXgXgXgXgXgXgXgXgXgXgXgXgXgXgXgXgXgX      gXgXgXgXgXgXgXgXgX          gXgXgXgXgXgXgXgXgXgXgXgXgXgXgXgXgXgXgXgXgXgXgX",
"gXgXgXgXgXgXgXgXgXgXgXgXgXgXgXgXgXgXgXgXgXgXgXgXgXgXgXgXgXgXgXgXgXgXgXgXgXgXgXgXgXgXgXgXgXgXgXgXgXgXgXgXgXgXgXgXgXgXgXgXgXgXgXgXgXgXgXgXgX",
"gXgXgXgXgXgXgXgXgXgXgXgXgXgXgXgXgXgXgXgXgXgXgXgXgXgXgXgXgXgXgXgXgXgXgXgXgXgXgXgXgXgXgXgXgXgXgXgXgXgXgXgXgXgXgXgXgXgXgXgXgXgXgXgXgXgXgXgXgX",
"gXgXgXgXgXgXgXgXgXgXgXgXgXgXgXgXgXgXgXgXgXgXgXgXgXgXgXgXgXgXgXgXgXgXgXgXgXgXgXgXgXgXgXgXgXgXgXgXgXgXgXgXgXgXgXgXgXgXgXgXgXgXgXgXgXgXgXgXgX"
};
