/* XPM */
static char *result[] = {
/* columns rows colors chars-per-pixel */
"69 69 227 2 ",
"   c #020101",
".  c #0B0404",
"X  c #0D0909",
"o  c #070708",
"O  c #11070A",
"+  c #140C0C",
"@  c #1B0D0B",
"#  c #1C0708",
"$  c #1C110E",
"%  c #14100C",
"&  c #0C1218",
"*  c #141316",
"=  c #1B1313",
"-  c #121218",
";  c #1E1619",
":  c #100812",
">  c #23140D",
",  c #2A170A",
"<  c #36160D",
"1  c #200D11",
"2  c #221613",
"3  c #2A1614",
"4  c #241A14",
"5  c #2B1B15",
"6  c #241C1A",
"7  c #2B1D1A",
"8  c #25151B",
"9  c #351C15",
"0  c #351A19",
"q  c #2C211C",
"w  c #33231C",
"e  c #3C251C",
"r  c #372318",
"t  c #2E2625",
"y  c #292529",
"u  c #332423",
"i  c #3A2624",
"p  c #342925",
"a  c #3C2B25",
"s  c #342B2B",
"d  c #3B2E2C",
"f  c #3D312D",
"g  c #38332C",
"h  c #3B2836",
"j  c #363334",
"k  c #3D3333",
"l  c #3D3438",
"z  c #421F0F",
"x  c #5A1D12",
"c  c #49271D",
"v  c #5C371B",
"b  c #4F3119",
"n  c #6B340F",
"m  c #653818",
"M  c #773818",
"N  c #63201A",
"B  c #452D23",
"V  c #432E2B",
"C  c #482927",
"Z  c #42322D",
"A  c #4A332C",
"S  c #493629",
"D  c #533224",
"F  c #5D3D2C",
"G  c #563827",
"H  c #423532",
"J  c #433935",
"K  c #4B3D3A",
"L  c #493839",
"P  c #533B34",
"I  c #543D3B",
"U  c #5B3F3A",
"Y  c #462630",
"T  c #633724",
"R  c #713F23",
"E  c #752C25",
"W  c #7B4416",
"Q  c #75421F",
"!  c #4E403E",
"~  c #58453B",
"^  c #794728",
"/  c #664539",
"(  c #3E3E4A",
")  c #503D41",
"_  c #463F40",
"`  c #554644",
"'  c #5B4C46",
"]  c #5A4D4A",
"[  c #544746",
"{  c #5E534F",
"}  c #494B59",
"|  c #595559",
" . c #494A4F",
".. c #664C44",
"X. c #62534C",
"o. c #625551",
"O. c #695958",
"+. c #785E54",
"@. c #7F4A42",
"#. c #71615D",
"$. c #7A6252",
"%. c #5D5C62",
"&. c #6D5F62",
"*. c #776A67",
"=. c #7B716D",
"-. c #7B7375",
";. c #6D686A",
":. c #853713",
">. c #983D09",
",. c #BD3903",
"<. c #8A4A18",
"1. c #9C4A14",
"2. c #944A1A",
"3. c #924C14",
"4. c #A64E0A",
"5. c #AB530B",
"6. c #B95A0E",
"7. c #A44A14",
"8. c #A75617",
"9. c #B55A13",
"0. c #B35818",
"q. c #B86518",
"w. c #9B5529",
"e. c #8B4F24",
"r. c #AB5723",
"t. c #CA590A",
"y. c #C45809",
"u. c #CD6509",
"i. c #C8670C",
"p. c #DA6401",
"a. c #D56B04",
"s. c #DB6D03",
"d. c #D56B0C",
"f. c #DA6B0B",
"g. c #D66407",
"h. c #DE7408",
"j. c #C76717",
"k. c #D76C15",
"l. c #CF7212",
"z. c #DC7C14",
"x. c #E26B02",
"c. c #E76804",
"v. c #E27002",
"b. c #E57509",
"n. c #E67515",
"m. c #E96C19",
"M. c #C66E2B",
"N. c #8B6B5B",
"B. c #A56D50",
"V. c #89736D",
"C. c #897979",
"Z. c #937D76",
"A. c #9C7F74",
"S. c #8A6D6B",
"D. c #CD7B4A",
"F. c #CC5777",
"G. c #ED9630",
"H. c #8D817D",
"J. c #96857D",
"K. c #B59A76",
"L. c #A88769",
"P. c #E29F5B",
"I. c #CA9F6F",
"U. c #C48D73",
"Y. c #CCA773",
"T. c #D4A06B",
"R. c #E1AF71",
"E. c #887C80",
"W. c #C8668A",
"Q. c #9A8E8E",
"!. c #958886",
"~. c #9B8F91",
"^. c #A89A97",
"/. c #AB958A",
"(. c #B0A39C",
"). c #B9A697",
"_. c #AEA19C",
"`. c #ACA4A3",
"'. c #B3ADAB",
"]. c #B5A7A5",
"[. c #B7B2AD",
"{. c #BCB5B4",
"}. c #D79098",
"|. c #CEB38F",
" X c #EDBB96",
".X c #DA9BAC",
"XX c #C6B5AE",
"oX c #E4C693",
"OX c #CAC0BB",
"+X c #D6C7BE",
"@X c #E7D6B9",
"#X c #E4C3A2",
"$X c #BAB9C1",
"%X c #E6B2C2",
"&X c #CBC5C5",
"*X c #DACCC9",
"=X c #D7CBC6",
"-X c #DBD5CE",
";X c #D6D3D1",
":X c #DBD6D3",
">X c #DDDBDA",
",X c #DDD9D7",
"<X c #EEDBCB",
"1X c #E4D7CB",
"2X c #E5DAD9",
"3X c #F1D7DF",
"4X c #E3E3DB",
"5X c #EBE3DC",
"6X c #EFE5D4",
"7X c #DBDDE2",
"8X c #EFDFE6",
"9X c #E6E2E2",
"0X c #ECEBEB",
"qX c #EAEAE6",
"wX c #F3EAE9",
"eX c #F4F2EC",
"rX c #F7F1E7",
"tX c #EEF6F6",
"yX c #F3F5F3",
"uX c #F9F5F4",
"iX c #F3F9F3",
"pX c #FCFBF5",
"aX c #F6FBFB",
"sX c #FBFBFA",
"dX c #F9F7F9",
"fX c #EDEFED",
"gX c None",
/* pixels */
"gXgXgXgXgXgXgXgXgXgXgXgXgXgXgXgXgXgXgXgXgXgXgXgXgXgXgXgXgXgXgXgXgXgXgXgXgXgXgXgXgXgXgXgXgXgXgXgXgXgXgXgXgXgXgXgXgXgXgXgXgXgXgXgXgXgXgXgXgX",
"gXgXgXgXgXgXgXgXgXgXgXgXgXgXgXgXgXgXgXgXgXgXgXgXgXgXgXgXgXgXgXgXgXgXgXgXgXgXgXgXgXgXgXgXgXgXgXgXgXgXgXgXgXgXgXgXgXgXgXgXgXgXgXgXgXgXgXgXgX",
"gXgXgXgXgXgXgXgXgXgXgXgXgXgXgXgXgXgXgXgXgXgXgXgXgXgXgXgXgXgXgXgXgXgXgXgXgXgXgXgXgXgXgXgXgXgXgXgXgXgXgXgXgXgXgXgXgXgXgXgXgXgXgXgXgXgXgXgXgX",
"gXgXgXgXgXgXgXgXgXgXgXgXgXgXgXgXgXgXgXgXgXgXgXgXgXgXgXgXgXgXgXgXgXgXgXgXgXgXgXgXgXgXgXgXgXgXgXgXgXgXgXgXgXgXgXgXgXgXgXgXgXgXgXgXgXgXgXgXgX",
"gXgXgXgXgXgXgXgXgXgXgXgXgXgXgXgXgXgXgXgXgXgXgXgXgXgXgXgXgXgXgXgXgXgXgXgXgXgXgXgXgXgXgXgXgXgXgXgXgXgXgXgXgXgXgXgXgXgXgXgXgXgXgXgXgXgXgXgXgX",
"gXgXgXgXgXgXgXgXgXgXgXgXgXgXgXgXgXgXgXgXgXgXgXgXgXgXgXgXgXgXgXgXgXgXgXgXgXgXgXgXgXgXgXgXgXgXgXgXgXgXgXgXgXgXgXgXgXgXgXgXgXgXgXgXgXgXgXgXgX",
"gXgXgXgXgXgXgXgXgXgXgXgXgXgXgXgXgXgXgXgXgXgXgXgXgXgXgXgXgXgXgXgXgXgXgXgXgXgXgXgXgXgXgXgXgXgXgXgXgXgXgXgXgXgXgXgXgXgXgXgXgXgXgXgXgXgXgXgXgX",
"gXgXgXgXgXgXgXgXgXgXgXgXgXgXgXgXgXgXgXgXgXgXgXgXgXgXgXgXgXgXgXgXgXgXgXgXgXgXgXgXgXgXgXgXgXgXgXgXgXgXgXgXgXgXgXgXgXgXgXgXgXgXgXgXgXgXgXgXgX",
"gXgXgXgXgXgXgXgXgXgXgXgXgXgXgXgXgXgXgXgXgXgXgXgXgXgXgXgXgXgXgXgXgXgXgXgXgXgXgXgXgXgXgXgXgXgXgXgXgXgXgXgXgXgXgXgXgXgXgXgXgXgXgXgXgXgXgXgXgX",
"gXgXgXgXgXgXgXgXgXgXgXgXgXgXgXgXgXgXgXgXgXgXgXgXgXgXgXgXgXgXgXgXgXgXgXgXgXgXgXgXgXgXgXgXgXgXgXgXgXgXgXgXgXgXgXgXgXgXgXgXgXgXgXgXgXgXgXgXgX",
"gXgXgXgXgXgXgXgXgXgXgXgXgXgXgXgXgXgXgXgXgXgXgXgXgXgXgXgXgXgXgXgXgXgXgXgXgXgXgXgXgXgXgXgXgXgXgXgXgXgXgXgXgXgXgXgXgXgXgXgXgXgXgXgXgXgXgXgXgX",
"gXgXgXgXgXgXgXgXgXgXgXgXgXgXgXgXgXgXgXgXgXgXgXgXgXgXgXgXgXgXgXgXgXgXgXgXgXgXgXgXgXgXgXgXgXgXgXgXgXgXgXgXgXgXgXgXgXgXgXgXgXgXgXgXgXgXgXgXgX",
"gXgXgXgXgXgXgXgXgXgXgXgXgXgXgXgXgXgXgXgXgXgXgXgXgXgXgXgXgXgXgXgXgXgXgXgXgXgXgXgXgXgXgXgXgXgXgXgXgXgXgXgXgXgXgXgXgXgXgXgXgXgXgXgXgXgXgXgXgX",
"gXgXgXgXgXgXgXgXgXgXgXgXgXgXgXgXgXgXgXgXgXgXgXgXgXgXgXgXgXgXgXgXgXgXgXgXgXgXgXgXgXgXgXgXgXgXgXgXgXgXgXgXgXgXgXgXgXgXgXgXgXgXgXgXgXgXgXgXgX",
"gXgXgXgXgXgXgXgXgXgXgXgXgXgXgXgXgXgXgXgXgXgXgXgXgXgXgXgXgXgXgXgXgXgXgXgXgXgXgXgXgXgXgXgXgXgXgXgXgXgXgXgXgXgXgXgXgXgXgXgXgXgXgXgXgXgXgXgXgX",
"gXgXgXgXgXgXgXgXgXgXgXgXgXgXgXgXgXgXgXgXgXgXgXgXgXgXgXgXgXgXgXgXgXgXgXgXgXgXgXgXgXgXgXgXgXgXgXgXgXgXgXgXgXgXgXgXgXgXgXgXgXgXgXgXgXgXgXgXgX",
"gXgXgXgXgXgXgXgXgXgXgXgXgXgXgXgXgXgXgXgXgXgXgXgXgXgXgXgXgXgXgXgXgXgXgXgXgXgXgXgXgXgXgXgXgXgXgXgXgXgXgXgXgXgXgXgXgXgXgXgXgXgXgXgXgXgXgXgXgX",
"gXgXgXgXgXgXgXgXgXgXgXgXgXgXgXgXgXgXgXgXgXgXgXgXgXgXgXgXgXgXgXgXgXgXgXgXgXgXgXgXgXgXgXgXgXgXgXgXgXgXgXgXgXgXgXgXgXgXgXgXgXgXgXgXgXgXgXgXgX",
"gXgXgXgXgXgXgXgXgXgXgXgXgXgXgXgXgXgXgXgXgXgXgXgXgXgXgXgXgXgXgXgXgXgXgXgXgXgXgXgXgXgXgXgXgXgXgXgXgXgXgXgXgXgXgXgXgXgXgXgXgXgXgXgXgXgXgXgXgX",
"gXgXgXgXgXgXgXgXgXgXgXgXgXgXgXgXgXgXgXgXgXgXgXgXgXgXgXgXgXgXgXgXgXgXgXgXgXgXgXgXgXgXgXgXgXgXgXgXgXgXgXgXgXgXgXgXgXgXgXgXgXgXgXgXgXgXgXgXgX",
"gXgXgXgXgXgXgXgXgXgXgXgXgXgXgXgXgXgXgXgXgXgXgXgXgXgXgXgXgXgXgXgXgXgXgXgXgXgXgXgXgXgXgXgXgXgXgXgXgXgXgXgXgXgXgXgXgXgXgXgXgXgXgXgXgXgXgXgXgX",
"gXgXgXgXgXgXgXgXgXgXgXgXgXgXgXgXgXgXgXgXgXgXgXgXgXgXgXgXgXgXgXgXgXgXgXgXgXgXgXgXgXgXgXgXgXgXgXgXgXgXgXgXgXgXgXgXgXgXgXgXgXgXgXgXgXgXgXgXgX",
"gXgXgXgXgXgXgXgXgXgXgXgXgXgXgXgXgXgXgXgXgXgXgXgXgXgXgXgXgXgXgXgXgXgXgXgXgXgXgXgXgXgXgXgXgXgXgXgXgXgXgXgXgXgXgXgXgXgXgXgXgXgXgXgXgXgXgXgXgX",
"gXgXgXgXgXgXgXgXgXgXgXgXgXgXgXgXgXgXgXgXgXgXgXgXgXgXgXgXgXgXgXgXgXgXgXgXgXgXgXgXgXgXgXgXgXgXgXgXgXgXgXgXgXgXgXgXgXgXgXgXgXgXgXgXgXgXgXgXgX",
"gXgXgXgXgXgXgXgXgXgXgXgXgXgXgXgXgXgXgXgXgXgXgXgXgXgXgXgXgXgXgXgXgXgXgXgXgXgXgXgXgXgXgXgXgXgXgXgXgXgXgXgXgXgXgXgXgXgXgXgXgXgXgXgXgXgXgXgXgX",
"gXgXgXgXgXgXgXgXgXgXgXgXgXgXgXgXgXgXgXgXgXgXgXgXgXgXgXgXgXgXgXgXgXgXgXgXgXgXgXgXgXgXgXgXgXgXgXgXgXgXgXgXgXgXgXgXgXgXgXgXgXgXgXgXgXgXgXgXgX",
"gXgXgXgXgXgXgXgXgXgXgXgXgXgXgXgXgXgXgXgXgXgXgXgXgXgXgXgXgXgXgXgXgXgXgXgXgXgXgXgXgXgXgXgXgXgXgXgXgXgXgXgXgXgXgXgXgXgXgXgXgXgXgXgXgXgXgXgXgX",
"gXgXgXgXgXgXgXgXgXgXgXgXgXgXgXgXgXgXgXgXgXgXgXgXgXgXgXgXgXgXgXgXgXgXgXgXgXgXgXgXgXgXgXgXgXgXgXgXgXgXgXgXgXgXgXgXgXgXgXgXgXgXgXgXgXgXgXgXgX",
"gXgXgXgXgXgXgXgXgXgXgXgXgXgXgXgXgXgXgXgXgXgXgXgXgXgXgXgXgXgXgXgXgXgXgXgXgXgXgXgXgXgXgXgXgXgXgXgXgXgXgXgXgXgXgXgXgXgXgXgXgXgXgXgXgXgXgXgXgX",
"gXgXgXgXgXgXgXgXgXgXgXgXgXgXgXgXgXgXgXgXgXgXgXgXgXgXgXgXgXgXgXgXgXgXgXgXgXgXgXgXgXgXgXgXgXgXgXgXgXgXgXgXgXgXgXgXgXgXgXgXgXgXgXgXgXgXgXgXgX",
"gXgXgXgXgXgXgXgXgXgXgXgXgXgXgXgXgXgXgXgXgXgXgXgXgXgXgXgXgXgXgXgXgXgXgXgXgXgXgXgXgXgXgXgXgXgXgXgXp 4 ; gXgXgXgXgXgXgXgXgXgXgXgXgXgXgXgXgXgX",
"gXgXgXgXgXgXgXgXgXgXgXgXgXgXgXgXgXgXgXgXgXgXgXgXgXgXgXgXgXgXgXgXgXgXgXgXgXgXgXgXgXgXgXgXgXgXgXgXa e ' u gXgXgXgXgXgXgXgXgXgXgXgXgXgXgXgXgX",
"gXgXgXgXgXgXgXgXgXgXgXgXgXgXgXgXgXgX; 2 % gXgXgXgXgXgXgXgXgXgXgXgXgXgXgXgXgXgXgXgXgXgXgXgXgXgXX i V.1X!.8 gXgXgXgXgXgXgXgXgXgXgXgXgXgXgXgX",
"gXgXgXgXgXgXgXgXgXgXgXgXgXgXgXgXgX$ e / ~ q gXgXgXgXgXgXgXgXgXgXgXgXgXgXgXgXgXgXgXgXgXgXgXgXgX. w Z.pX-Xk 7 gXgXgXgXgXgXgXgXgXgXgXgXgXgXgX",
"gXgXgXgXgXgXgXgXgXgXgXgXgXgXgXgXgX+ f J.+XC.; gXgXgXgXgXgXgXgXgXgXgXgXgXgXgXgXgXgXgXgXgXgXgXgX. 5 Z.pX&X0 u 3 gXgXgXgXgXgXgXgXgXgXgXgXgXgX",
"gXgXgXgXgXgXgXgXgXgXgXgXgXgXgXgXgXO A (.rX'.p   gXgXgXgX; u c ~ gXgXgXgXgXgXgXgXgXgXgXgXgXgXgXgX7 Z.eX'.3 i ; 0 gXgXgXgXgXgXgXgXgXgXgXgXgX",
"gXgXgXgXgXgXgXgXgXgXgXgXgXgXgXgXgXO A (.iX[.p   gXgXgXf /.).#.q gXgXgXgXgXgXgXgXgXgXgXgXgXgXgXgX@ X.XX] s u ; 8 gXgXgXgXgXgXgXgXgXgXgXgXgX",
"gXgXgXgXgXgXgXgXgXgXgXgXgXgXgXgXgX. g (.eX].r . gXgX; [ 1X4X!.q gXgXgXgXgXgXgXgXgXgXgXgXgXgXgXgXgX+ u y y s 8 3 gXgXgXgXgXgXgXgXgXgXgXgXgX",
"gXgXgXgXgXgXgXgXgXgXgXgXgXgXgXgXgX. d (.wX).m b gX% , ` ,X4XJ.2 gXgXgXgXgXgXgXgXgXgXgXgXgXgXgXgXgXgXH c M <.8 $ gXgXgXgXgXgXgXgXgXgXgXgXgX",
"gXgXgXgXgXgXgXgXgXgXgXgXgXgXgXgXgX. d ^.5XI.i.2.e q 7 ` ,X4XH.2 gXgXgXgXgXgXgXgXgXgXgXgXgXgXgXgXgXgXI 8.c.g.< $ gXgXgXgXgXgXgXgXgXgXgXgXgX",
"gXgXgXgXgXgXgXgXgXgXgXgXgXgXgXgXgX4 B N.|.l.j.<.p p w ' :X4XH.2 gXgXgXgXgXgXgXgXgXgXgXgXgXgXgXgXgXgXJ 2.f.t., : gXgXgXgXgXgXgXgXgXgXgXgXgX",
"gXgXgXgXgXgXgXgXgXgXgXgXgXgXgXgXD w.9.i.b.j.~ j f g a { >X4XC.4 gXgXgXgXgXgXgXgXgXgXgXgXgXgXgXgXgXgXA q s c @ @ gXgXgXgXgXgXgXgXgXgXgXgXgX",
"gXgXgXgXgXgXgXgXgXgXgXgXgXgXgXG e.0.l.l.M.^ J H f Z f o.;X;X=.5 gXgXgXgXgXgXgXgXgXgXgXgXgXgXgXgXgXgXS f h C 0 O gXgXgXgXgXgXgXgXgXgXgXgXgX",
"gXgXgXgXgXgXgXgXgXgXgXgXgXgXD r.d.x.g.8.G H H J H H Z J { O.f q gXgXgXgXgXgXgXgXgXgXgXgXgXgXgXgXgXgX~ D z.f.< O gXgXgXgXgXgXgXgXgXgXgXgXgX",
"gXgXgXgXgXgXgXgXgXgXgXgXgXc 8.g.h.a.u.e.j l J H H Z H H H V i p gXgXgXgXgXgXgXgXgXgXgXgXgXgXgXgXgXgXZ ^ c.s., O gXgXgXgXgXgXgXgXgXgXgXgXgX",
"gXgXgXgXgXgXgXgXgXgXq * r 1.d.h.a.s.u.^ j l k l H H H Z f g k d 7 = - & & - - - - * = = = = 2 b 2.D.#X Xp.p., O gXgXgXgXgXgXgXgXgXgXgXgXgX",
"gXgXgXgXgXgXgXgXgXe , 5 n u.v.s.s.b.j.^ j k k H H H H H f f k a u s ( } } } | %.%.O.] ! Z f V 1.m.oXaX<Xn.,.r O gXgXgXgXgXgXgXgXgXgXgXgXgX",
"gXgXgXgXgXgXgXgXgXgX= 6 n x.s.5.e.L.|.+.d k g f f d d f a ! ^.&X| 9 7.t.t.y.y.t.u.y.4.T f g Z w.oXtXaX<Xj.x t # gXgXgXgXgXgXgXgXgXgXgXgXgX",
"gXgXgXgXgXgXgXgXgXgXgX~ :.g.9.T _ '.0X^.d i s d Z k Z d a ] &X9X=.9 4.p.x.f.a.s.s.a.u.Q k d L ^.aXaXiX+XG h , 1 gXgXgXgXgXgXgXgXgXgXgXgXgX",
"gXgXgXgXgXgXgXgXgXgX+ $ / Y.K.P _ '.dX7XC.H s [ !.~.Q.Q.Q.`.0X9X-.= v 9.k.f.j.4.<.1.<.A k h J `.sXiX-X' i G Y gXgXgXgXgXgXgXgXgXgXgXgXgXgX",
"gXgXgXgXgXgXgXgXgXT ~ i S.uX-XO.L ].sXsXqX!.d -.dXaXdXdXdXsXdX7X;.$ 6 q m n.9.p g j h j d d L ^.pX&XS c G b gXgXgXgXgXgXgXgXgXgXgXgXgXgXgX",
"gXgXgXgXgXgXgXgXgX@ > $ O.-XXX=.&.].wXdXdXOX{ C.sXsXsXdXsXdX0XXX..m W Q W q.^ l l j k k k o.C.C.;X] e Z A gXgXgXgXgXgXgXgXgXgXgXgXgXgXgXgX",
"gXgXgXgXgXgXgXgXgXgXgXgXgXu *.=X8X.XW.3XsXsXeXyXsXsXdXsXdX>X*.F 0.f.f.k.5.V l H l l k Z K XXqXQ.p r e Z gXgXgXgXgXgXgXgXgXgXgXgXgXgXgXgXgX",
"gXgXgXgXgXgXgXgXgXgXgXgXgXgX{ :X8X.XF.%XsXpXsXpXsXsXdXdXdX>X#.D M.G.b.s.6.h j l k g k L U {.fX!.3 q ~ gXgXgXgXgXgXgXgXgXgXgXgXgXgXgXgXgXgX",
"gXgXgXgXgXgXgXgXgXgXgXgXgXgXgXU e.E N C A L H i p [ ].dXdXsXpXuXiX4XR.u.1.s g s d g P j.u.C H 0 e = gXgXgXgXgXgXgXgXgXgXgXgXgXgXgXgXgXgXgX",
"gXgXgXgXgXgXgXgXgXgXgXgXgXgXgXX = > > = 2 2 > @ > , I *XsXsXsXpXdXeX@Xq.<.B a d g f T x.x.9.B y G . gXgXgXgXgXgXgXgXgXgXgXgXgXgXgXgXgXgXgX",
"gXgXgXgXgXgXgXgXgXgXgXgXgXgXgXgXgXgXgXgXgXgXgX+ 7 5 > [ 9XpXpXpXpXaXdXtXyXtX0X0X7X$XA.l.v.v.c.:.Z o gXgXgXgXgXgXgXgXgXgXgXgXgXgXgXgXgXgXgX",
"gXgXgXgXgXgXgXgXgXgXgXgXgXgXgXgXgXgXgXgXgXgXgXgXq q > f ].dXpXdXsXaXaXaXdXdXdXaXuXeX-XR.b.v.x.5.Y o gXgXgXgXgXgXgXgXgXgXgXgXgXgXgXgXgXgXgX",
"gXgXgXgXgXgXgXgXgXgXgXgXgXgXgXgXgXgXgXgXgXgX$ =.rX5X].V.] *.6X1XT.D.B.+.O.O.o.{ ` H ) XX@Xn.x.5.D o gXgXgXgXgXgXgXgXgXgXgXgXgXgXgXgXgXgXgX",
"gXgXgXgXgXgXgXgXgXgXgXgXgXgXgXgXgXgXgXgXgXgXi Z.pXpXpX=XK p /.I.n.i.:.8 3 1 8 u u u [ ;XeXP.x.8.e   gXgXgXgXgXgXgXgXgXgXgXgXgXgXgXgXgXgXgX",
"gXgXgXgXgXgXgXgXgXgXgXgXgXgXgXgXgXgXgXgXgXgX0 ..^.^./.N.% X a B.Y.6XK.9 3 7 ` [.[._.'.uXrXU.M G :   gXgXgXgXgXgXgXgXgXgXgXgXgXgXgXgXgXgXgX",
"gXgXgXgXgXgXgXgXgXgXgXgXgXgXgXgXgXgXgXgXgXgXF D A U / ~ . . $ O.<XeX).< 3 w *.sXsXpXsXsXrXA.s o   gXgXgXgXgXgXgXgXgXgXgXgXgXgXgXgXgXgXgXgX",
"gXgXgXgXgXgXgXgXgXgXgXgXgXgXgXgXgXgXgXgXgXgXgX      .     gX  y H.|.$.9 , o ! *X2X5X5X2X=X..    gXgXgXgXgXgXgXgXgXgXgXgXgXgXgXgXgXgXgXgXgX",
"gXgXgXgXgXgXgXgXgXgXgXgXgXgXgXgXgXgXgXgXgXgXgXgXgXgXgXgXgXgXgX  + 7 c D B   . @ # > # # O . gXgXgXgXgXgXgXgXgXgXgXgXgXgXgXgXgXgXgXgXgXgXgX",
"gXgXgXgXgXgXgXgXgXgXgXgXgXgXgXgXgXgXgXgXgXgXgXgXgXgXgXgXgXgXgXgX  X + $ o       . . X . .   gXgXgXgXgXgXgXgXgXgXgXgXgXgXgXgXgXgXgXgXgXgXgX",
"gXgXgXgXgXgXgXgXgXgXgXgXgXgXgXgXgXgXgXgXgXgXgXgXgXgXgXgXgXgXgXgXgX      gXgXgX            gXgXgXgXgXgXgXgXgXgXgXgXgXgXgXgXgXgXgXgXgXgXgXgX",
"gXgXgXgXgXgXgXgXgXgXgXgXgXgXgXgXgXgXgXgXgXgXgXgXgXgXgXgXgXgXgXgXgXgXgXgXgXgXgXgXgXgXgXgXgXgXgXgXgXgXgXgXgXgXgXgXgXgXgXgXgXgXgXgXgXgXgXgXgX",
"gXgXgXgXgXgXgXgXgXgXgXgXgXgXgXgXgXgXgXgXgXgXgXgXgXgXgXgXgXgXgXgXgXgXgXgXgXgXgXgXgXgXgXgXgXgXgXgXgXgXgXgXgXgXgXgXgXgXgXgXgXgXgXgXgXgXgXgXgX",
"gXgXgXgXgXgXgXgXgXgXgXgXgXgXgXgXgXgXgXgXgXgXgXgXgXgXgXgXgXgXgXgXgXgXgXgXgXgXgXgXgXgXgXgXgXgXgXgXgXgXgXgXgXgXgXgXgXgXgXgXgXgXgXgXgXgXgXgXgX"
};
