/* XPM */
static char *result[] = {
/* columns rows colors chars-per-pixel */
"69 69 228 2 ",
"   c #030102",
".  c #0A0505",
"X  c #0D0905",
"o  c #0C090A",
"O  c #060508",
"+  c #130C0C",
"@  c #1C0E0C",
"#  c #110805",
"$  c #1D110D",
"%  c #12110E",
"&  c #170E10",
"*  c #0D1218",
"=  c #141316",
"-  c #1B1413",
";  c #121318",
":  c #1E1816",
">  c #210E0D",
",  c #2E0E07",
"<  c #21130E",
"1  c #2A150C",
"2  c #260E14",
"3  c #231413",
"4  c #2A1514",
"5  c #231B16",
"6  c #2C1C13",
"7  c #231B1B",
"8  c #2C1F1B",
"9  c #321D15",
"0  c #361D18",
"q  c #2C231B",
"w  c #33231C",
"e  c #3B251C",
"r  c #33291F",
"t  c #3C291D",
"y  c #362312",
"u  c #33230F",
"i  c #351E20",
"p  c #2D2323",
"a  c #2C272E",
"s  c #342423",
"d  c #3B2622",
"f  c #342926",
"g  c #3B2B25",
"h  c #352A2A",
"j  c #3C2D2B",
"k  c #3D312E",
"l  c #383229",
"z  c #363235",
"x  c #3D3333",
"c  c #3D363A",
"v  c #561D1D",
"b  c #641E18",
"n  c #492C0F",
"m  c #46271A",
"M  c #49341B",
"N  c #583319",
"B  c #683918",
"V  c #753A19",
"C  c #6E2F11",
"Z  c #492322",
"A  c #442C2B",
"S  c #482B28",
"D  c #5A2B26",
"F  c #4A3126",
"G  c #42332D",
"H  c #4D362D",
"J  c #493B2C",
"K  c #533323",
"L  c #5E3A25",
"P  c #51342B",
"I  c #5A3B2B",
"U  c #523B26",
"Y  c #423533",
"T  c #4E3C34",
"R  c #443A3B",
"E  c #493A37",
"W  c #533B34",
"Q  c #543732",
"!  c #402E31",
"~  c #782B21",
"^  c #643C27",
"/  c #7B4216",
"(  c #444232",
")  c #57443B",
"_  c #59412F",
"`  c #774526",
"'  c #644337",
"]  c #6C4C36",
"[  c #3F3F4C",
"{  c #4D3B41",
"}  c #643F42",
"|  c #544542",
" . c #594A46",
".. c #5E524E",
"X. c #494B59",
"o. c #575457",
"O. c #4C4A4D",
"+. c #645246",
"@. c #635552",
"#. c #6B5A5A",
"$. c #655B5A",
"%. c #6C554D",
"&. c #7B6954",
"*. c #5C5D64",
"=. c #686263",
"-. c #726364",
";. c #756A67",
":. c #796B69",
">. c #7D716E",
",. c #7C7477",
"<. c #8E3C0C",
"1. c #BB3B03",
"2. c #884715",
"3. c #964917",
"4. c #96551E",
"5. c #A9560E",
"6. c #B9560B",
"7. c #A8551A",
"8. c #B55816",
"9. c #AA4C0D",
"0. c #BA641A",
"q. c #B1600D",
"w. c #985425",
"e. c #85532C",
"r. c #BD7129",
"t. c #CB5A0A",
"y. c #C85909",
"u. c #D65C01",
"i. c #CB6709",
"p. c #DA6501",
"a. c #D56B04",
"s. c #DB6C03",
"d. c #D96C0B",
"f. c #D56709",
"g. c #DD7309",
"h. c #C86714",
"j. c #D66C14",
"k. c #D27718",
"l. c #E26C03",
"z. c #E26A07",
"x. c #E57302",
"c. c #EA7304",
"v. c #E67417",
"b. c #C76B26",
"n. c #C57B29",
"m. c #C06F39",
"M. c #805E59",
"N. c #906E54",
"B. c #A97957",
"V. c #857A7A",
"C. c #88706F",
"Z. c #D37849",
"A. c #CB5C7B",
"S. c #BF8233",
"D. c #E6800B",
"F. c #EE9732",
"G. c #9B8377",
"H. c #AA866A",
"J. c #A2887C",
"K. c #B29C78",
"L. c #EFA743",
"P. c #C19666",
"I. c #C5A170",
"U. c #E0A568",
"Y. c #C26289",
"T. c #8D8382",
"R. c #9A8D8C",
"E. c #988A86",
"W. c #9B928C",
"Q. c #9E9394",
"!. c #9B8F91",
"~. c #A59899",
"^. c #B39B96",
"/. c #B09987",
"(. c #B4A59E",
"). c #BCA595",
"_. c #B4AB9C",
"`. c #B19EA4",
"'. c #ACA4A5",
"]. c #B6AAA8",
"[. c #BBB0AB",
"{. c #BAB5B7",
"}. c #B7ACBD",
"|. c #D7969E",
" X c #DCB484",
".X c #E1B798",
"XX c #D89DB1",
"oX c #C3B1AA",
"OX c #C7BBBA",
"+X c #CDB7AB",
"@X c #E8C494",
"#X c #D4C5BE",
"$X c #D7C6BB",
"%X c #E5C8A7",
"&X c #E6B6C4",
"*X c #CDC8C8",
"=X c #D5CAC2",
"-X c #D5D2CD",
";X c #DFD4C8",
":X c #DBD4D2",
">X c #DCD9D4",
",X c #DFDBDB",
"<X c #E5D9CA",
"1X c #E6DBDD",
"2X c #F3DFC5",
"3X c #DEE0D9",
"4X c #E5E5DE",
"5X c #EAE4DA",
"6X c #F4E6D6",
"7X c #DCDDE1",
"8X c #E3E4E2",
"9X c #E9E7E5",
"0X c #EDE9E2",
"qX c #EDECEE",
"wX c #E5E8E9",
"eX c #F4E5E5",
"rX c #F2F2EE",
"tX c #F8F4EA",
"yX c #EDFDF9",
"uX c #F4F5F5",
"iX c #FAF4F4",
"pX c #F5FAF4",
"aX c #FBFAF4",
"sX c #F9F7F9",
"dX c #F6FCFB",
"fX c #FBFBFA",
"gX c #EDEDF3",
"hX c None",
/* pixels */
"hXhXhXhXhXhXhXhXhXhXhXhXhXhXhXhXhXhXhXhXhXhXhXhXhXhXhXhXhXhXhXhXhXhXhXhXhXhXhXhXhXhXhXhXhXhXhXhXhXhXhXhXhXhXhXhXhXhXhXhXhXhXhXhXhXhXhXhXhX",
"hXhXhXhXhXhXhXhXhXhXhXhXhXhXhXhXhXhXhXhXhXhXhXhXhXhXhXhXhXhXhXhXhXhXhXhXhXhXhXhXhXhXhXhXhXhXhXhXhXhXhXhXhXhXhXhXhXhXhXhXhXhXhXhXhXhXhXhXhX",
"hXhXhXhXhXhXhXhXhXhXhXhXhXhXhXhXhXhXhXhXhXhXhXhXhXhXhXhXhXhXhXhXhXhXhXhXhXhXhXhXhXhXhXhXhXhXhXhXhXhXhXhXhXhXhXhXhXhXhXhXhXhXhXhXhXhXhXhXhX",
"hXhXhXhXhXhXhXhXhXhXhXhXhXhXhXhXhXhXhXhXhXhXhXhXhXhXhXhXhXhXhXhXhXhXhXhXhXhXhXhXhXhXhXhXhXhXhXhXhXhXhXhXhXhXhXhXhXhXhXhXhXhXhXhXhXhXhXhXhX",
"hXhXhXhXhXhXhXhXhXhXhXhXhXhXhXhXhXhXhXhXhXhXhXhXhXhXhXhXhXhXhXhXhXhXhXhXhXhXhXhXhXhXhXhXhXhXhXhXhXhXhXhXhXhXhXhXhXhXhXhXhXhXhXhXhXhXhXhXhX",
"hXhXhXhXhXhXhXhXhXhXhXhXhXhXhXhXhXhXhXhXhXhXhXhXhXhXhXhXhXhXhXhXhXhXhXhXhXhXhXhXhXhXhXhXhXhXhXhXhXhXhXhXhXhXhXhXhXhXhXhXhXhXhXhXhXhXhXhXhX",
"hXhXhXhXhXhXhXhXhXhXhXhXhXhXhXhXhXhXhXhXhXhXhXhXhXhXhXhXhXhXhXhXhXhXhXhXhXhXhXhXhXhXhXhXhXhXhXhXhXhXhXhXhXhXhXhXhXhXhXhXhXhXhXhXhXhXhXhXhX",
"hXhXhXhXhXhXhXhXhXhXhXhXhXhXhXhXhXhXhXhXhXhXhXhXhXhXhXhXhXhXhXhXhXhXhXhXhXhXhXhXhXhXhXhXhXhXhXhXhXhXhXhXhXhXhXhXhXhXhXhXhXhXhXhXhXhXhXhXhX",
"hXhXhXhXhXhXhXhXhXhXhXhXhXhXhXhXhXhXhXhXhXhXhXhXhXhXhXhXhXhXhXhXhXhXhXhXhXhXhXhXhXhXhXhXhXhXhXhXhXhXhXhXhXhXhXhXhXhXhXhXhXhXhXhXhXhXhXhXhX",
"hXhXhXhXhXhXhXhXhXhXhXhXhXhXhXhXhXhXhXhXhXhXhXhXhXhXhXhXhXhXhXhXhXhXhXhXhXhXhXhXhXhXhXhXhXhXhXhXhXhXhXhXhXhXhXhXhXhXhXhXhXhXhXhXhXhXhXhXhX",
"hXhXhXhXhXhXhXhXhXhXhXhXhXhXhXhXhXhXhXhXhXhXhXhXhXhXhXhXhXhXhXhXhXhXhXhXhXhXhXhXhXhXhXhXhXhXhXhXhXhXhXhXhXhXhXhXhXhXhXhXhXhXhXhXhXhXhXhXhX",
"hXhXhXhXhXhXhXhXhXhXhXhXhXhXhXhXhXhXhXhXhXhXhXhXhXhXhXhXhXhXhXhXhXhXhXhXhXhXhXhXhXhXhXhXhXhXhXhXhXhXhXhXhXhXhXhXhXhXhXhXhXhXhXhXhXhXhXhXhX",
"hXhXhXhXhXhXhXhXhXhXhXhXhXhXhXhXhXhXhXhXhXhXhXhXhXhXhXhXhXhXhXhXhXhXhXhXhXhXhXhXhXhXhXhXhXhXhXhXhXhXhXhXhXhXhXhXhXhXhXhXhXhXhXhXhXhXhXhXhX",
"hXhXhXhXhXhXhXhXhXhXhXhXhXhXhXhXhXhXhXhXhXhXhXhXhXhXhXhXhXhXhXhXhXhXhXhXhXhXhXhXhXhXhXhXhXhXhXhXhXhXhXhXhXhXhXhXhXhXhXhXhXhXhXhXhXhXhXhXhX",
"hXhXhXhXhXhXhXhXhXhXhXhXhXhXhXhXhXhXhXhXhXhXhXhXhXhXhXhXhXhXhXhXhXhXhXhXhXhXhXhXhXhXhXhXhXhXhXhXhXhXhXhXhXhXhXhXhXhXhXhXhXhXhXhXhXhXhXhXhX",
"hXhXhXhXhXhXhXhXhXhXhXhXhXhXhXhXhXhXhXhXhXhXhXhXhXhXhXhXhXhXhXhXhXhXhXhXhXhXhXhXhXhXhXhXhXhXhXhXhXhXhXhXhXhXhXhXhXhXhXhXhXhXhXhXhXhXhXhXhX",
"hXhXhXhXhXhXhXhXhXhXhXhXhXhXhXhXhXhXhXhXhXhXhXhXhXhXhXhXhXhXhXhXhXhXhXhXhXhXhXhXhXhXhXhXhXhXhXhXhXhXhXhXhXhXhXhXhXhXhXhXhXhXhXhXhXhXhXhXhX",
"hXhXhXhXhXhXhXhXhXhXhXhXhXhXhXhXhXhXhXhXhXhXhXhXhXhXhXhXhXhXhXhXhXhXhXhXhXhXhXhXhXhXhXhXhXhXhXhXhXhXhXhXhXhXhXhXhXhXhXhXhXhXhXhXhXhXhXhXhX",
"hXhXhXhXhXhXhXhXhXhXhXhXhXhXhXhXhXhXhXhXhXhXhXhXhXhXhXhXhXhXhXhXhXhXhXhXhXhXhXhXhXhXhXhXhXhXhXhXhXhXhXhXhXhXhXhXhXhXhXhXhXhXhXhXhXhXhXhXhX",
"hXhXhXhXhXhXhXhXhXhXhXhXhXhXhXhXhXhXhXhXhXhXhXhXhXhXhXhXhXhXhXhXhXhXhXhXhXhXhXhXhXhXhXhXhXhXhXhXhXhXhXhXhXhXhXhXhXhXhXhXhXhXhXhXhXhXhXhXhX",
"hXhXhXhXhXhXhXhXhXhXhXhXhXhXhXhXhXhXhXhXhXhXhXhXhXhXhXhXhXhXhXhXhXhXhXhXhXhXhXhXhXhXhXhXhXhXhXhXhXhXhXhXhXhXhXhXhXhXhXhXhXhXhXhXhXhXhXhXhX",
"hXhXhXhXhXhXhXhXhXhXhXhXhXhXhXhXhXhXhXhXhXhXhXhXhXhXhXhXhXhXhXhXhXhXhXhXhXhXhXhXhXhXhXhXhXhXhXhXhXhXhXhXhXhXhXhXhXhXhXhXhXhXhXhXhXhXhXhXhX",
"hXhXhXhXhXhXhXhXhXhXhXhXhXhXhXhXhXhXhXhXhXhXhXhXhXhXhXhXhXhXhXhXhXhXhXhXhXhXhXhXhXhXhXhXhXhXhXhXhXhXhXhXhXhXhXhXhXhXhXhXhXhXhXhXhXhXhXhXhX",
"hXhXhXhXhXhXhXhXhXhXhXhXhXhXhXhXhXhXhXhXhXhXhXhXhXhXhXhXhXhXhXhXhXhXhXhXhXhXhXhXhXhXhXhXhXhXhXhXhXhXhXhXhXhXhXhXhXhXhXhXhXhXhXhXhXhXhXhXhX",
"hXhXhXhXhXhXhXhXhXhXhXhXhXhXhXhXhXhXhXhXhXhXhXhXhXhXhXhXhXhXhXhXhXhXhXhXhXhXhXhXhXhXhXhXhXhXhXhXhXhXhXhXhXhXhXhXhXhXhXhXhXhXhXhXhXhXhXhXhX",
"hXhXhXhXhXhXhXhXhXhXhXhXhXhXhXhXhXhXhXhXhXhXhXhXhXhXhXhXhXhXhXhXhXhXhXhXhXhXhXhXhXhXhXhXhXhXhXhXhXhXhXhXhXhXhXhXhXhXhXhXhXhXhXhXhXhXhXhXhX",
"hXhXhXhXhXhXhXhXhXhXhXhXhXhXhXhXhXhXhXhXhXhXhXhXhXhXhXhXhXhXhXhXhXhXhXhXhXhXhXhXhXhXhXhXhXhXhXhXhXhXhXhXhXhXhXhXhXhXhXhXhXhXhXhXhXhXhXhXhX",
"hXhXhXhXhXhXhXhXhXhXhXhXhXhXhXhXhXhXhXhXhXhXhXhXhXhXhXhXhXhXhXhXhXhXhXhXhXhXhXhXhXhXhXhXhXhXhXhXhXhXhXhXhXhXhXhXhXhXhXhXhXhXhXhXhXhXhXhXhX",
"hXhXhXhXhXhXhXhXhXhXhXhXhXhXhXhXhXhXhXhXhXhXhXhXhXhXhXhXhXhXhXhXhXhXhXhXhXhXhXhXhXhXhXhXhXhXhXhXhXhXhXhXhXhXhXhXhXhXhXhXhXhXhXhXhXhXhXhXhX",
"hXhXhXhXhXhXhXhXhXhXhXhXhXhXhXhXhXhXhXhXhXhXhXhXhXhXhXhXhXhXhXhXhXhXhXhXhXhXhXhXhXhXhXhXhXhXhXhXhXhXhXhXhXhXhXhXhXhXhXhXhXhXhXhXhXhXhXhXhX",
"hXhXhXhXhXhXhXhXhXhXhXhXhXhXhXhXhXhXhXhXhXhXhXhXhXhXhXhXhXhXhXhXhXhXhXhXhXhXhXhXhXhXhXhXhXhXhXhX- : + hXhXhXhXhXhXhXhXhXhXhXhXhXhXhXhXhXhX",
"hXhXhXhXhXhXhXhXhXhXhXhXhXhXhXhXhXhXhXhXhXhXhXhXhXhXhXhXhXhXhXhXhXhXhXhXhXhXhXhXhXhXhXhXhXhXhXhXx x k h hXhXhXhXhXhXhXhXhXhXhXhXhXhXhXhXhX",
"hXhXhXhXhXhXhXhXhXhXhXhXhXhXhXhXhXhX7 : + hXhXhXhXhXhXhXhXhXhXhXhXhXhXhXhXhXhXhXhXhXhXhXhXhXhX=.6X<X=XoX8 hXhXhXhXhXhXhXhXhXhXhXhXhXhXhXhX",
"hXhXhXhXhXhXhXhXhXhXhXhXhXhXhXhXhX+ s ' ) q hXhXhXhXhXhXhXhXhXhXhXhXhXhXhXhXhXhXhXhXhXhXhXhXhXT.fXfXfX3Xf - hXhXhXhXhXhXhXhXhXhXhXhXhXhXhX",
"hXhXhXhXhXhXhXhXhXhXhXhXhXhXhXhXhXX g J.;XV.7 hXhXhXhXhXhXhXhXhXhXhXhXhXhXhXhXhXhXhXhXhXhXhXhXE $XtXaX-Xs 8 4 hXhXhXhXhXhXhXhXhXhXhXhXhXhX",
"hXhXhXhXhXhXhXhXhXhXhXhXhXhXhXhXhXX H (.tX[.g   hXhXhXhX7 s P &.hXhXhXhXhXhXhXhXhXhXhXhXhXhXhXhXf ).4X(.0 g h w hXhXhXhXhXhXhXhXhXhXhXhXhX",
"hXhXhXhXhXhXhXhXhXhXhXhXhXhXhXhXhX. G ].pX{.l   hXhXhXk /.).;.( hXhXhXhXhXhXhXhXhXhXhXhXhXhXhXhX# E #X$.f s f s hXhXhXhXhXhXhXhXhXhXhXhXhX",
"hXhXhXhXhXhXhXhXhXhXhXhXhXhXhXhXhX. G (.tX].y . hXhX- | <X0XW.l hXhXhXhXhXhXhXhXhXhXhXhXhXhXhXhXhX% R p a f f w hXhXhXhXhXhXhXhXhXhXhXhXhX",
"hXhXhXhXhXhXhXhXhXhXhXhXhXhXhXhXhX  g (.0X^.B n hX+ 4 ) ;X4XW.r hXhXhXhXhXhXhXhXhXhXhXhXhXhXhXhXhXhX| m V <.g q hXhXhXhXhXhXhXhXhXhXhXhXhX",
"hXhXhXhXhXhXhXhXhXhXhXhXhXhXhXhXhX. j ^.<XK.6.3.m q q | >X4XW.r hXhXhXhXhXhXhXhXhXhXhXhXhXhXhXhXhXhX@.8.l.p.N f hXhXhXhXhXhXhXhXhXhXhXhXhX",
"hXhXhXhXhXhXhXhXhXhXhXhXhXhXhXhXhX$ y N. Xn.h.w.g f r  .>X4XE.f hXhXhXhXhXhXhXhXhXhXhXhXhXhXhXhXhXhX+.3.z.h.M q hXhXhXhXhXhXhXhXhXhXhXhXhX",
"hXhXhXhXhXhXhXhXhXhXhXhXhXhXhXhXP w.6.i.D.0.I l k l g ..,X8XE.r hXhXhXhXhXhXhXhXhXhXhXhXhXhXhXhXhXhX+.7 a Z e q hXhXhXhXhXhXhXhXhXhXhXhXhX",
"hXhXhXhXhXhXhXhXhXhXhXhXhXhXhXP w.8.j.j.r.` R x x G k @.-X>XG.s hXhXhXhXhXhXhXhXhXhXhXhXhXhXhXhXhXhX+.g j A F w hXhXhXhXhXhXhXhXhXhXhXhXhX",
"hXhXhXhXhXhXhXhXhXhXhXhXhX= K 7.j.d.d.4.H x R Y G G G E ..$.k q hXhXhXhXhXhXhXhXhXhXhXhXhXhXhXhXhXhX&.L g.j.K 7 hXhXhXhXhXhXhXhXhXhXhXhXhX",
"hXhXhXhXhXhXhXhXhXhXhXhXhXF 3.p.s.a.f.3.Y c x Y Y G Y Y G G g p hXhXhXhXhXhXhXhXhXhXhXhXhXhXhXhXhX5 ( e.c.d.m 7 hXhXhXhXhXhXhXhXhXhXhXhXhX",
"hXhXhXhXhXhXhXhXhXhX7 = m 3.d.g.a.s.i.` c x x Y Y Y G Y x k j g q = * * * ; ; * ; ; = - - - 4 N 3.Z.%X.Xz.u.M 5 hXhXhXhXhXhXhXhXhXhXhXhXhX",
"hXhXhXhXhXhXhXhXhXm u 9 C y.l.s.s.x.h.` z x x x Y G G Y k G G k s h { X.X.X.o.*.=.$.@.T G k A <.v.@XdX6Xv.1.U 5 hXhXhXhXhXhXhXhXhXhXhXhXhX",
"hXhXhXhXhXhXhXhXhXhX$ 5 C p.p.5.e.H._.&.g k x k k x j j j E Q.*X$.e 7.t.t.y.y.y.t.6.9.B x k k w.@XyXdX6Xb.C T 9 hXhXhXhXhXhXhXhXhXhXhXhXhX",
"hXhXhXhXhXhXhXhXhXhXhXP <.t.8.K [ ~.gX~.G h h j x x G j j  .OXwXV.0 5.a.s.d.a.d.s.p.i.` x j ! ^.dXdXaX;X^ A F e hXhXhXhXhXhXhXhXhXhXhXhXhX",
"hXhXhXhXhXhXhXhXhXhX+ 3 ' I.K.W { '.sX1XV.Y f | T.Q.R.R.W.'.qX9XV.5 V 8.v.d.h.5.2.7.2.A x j R '.fXdX>X .w A A hXhXhXhXhXhXhXhXhXhXhXhXhXhX",
"hXhXhXhXhXhXhXhXhX_ ^ g C.iX<X:.Y ~.fXfX9XT.k :.uXfXsXsXsXfXsX8X,.- 7 7 N d.h.l z z z x j j R ~.fX-XJ d _ P hXhXhXhXhXhXhXhXhXhXhXhXhXhXhX",
"hXhXhXhXhXhXhXhXhX> @ @ #.-XOX>.=.|.1XfXfX*X+.T.uXfXfXsXfXsXqX{.) B / / 2.8.` x c c x x x @.!.C.>X| e U F hXhXhXhXhXhXhXhXhXhXhXhXhXhXhXhX",
"hXhXhXhXhXhXhXhXhXhXhXhXhXh ;.#XeXXXY.eXfXfXrXrXfXfXfXfXsX1X>.I 8.d.d.j.5.H x c x x x x | =X4XR.f e g S hXhXhXhXhXhXhXhXhXhXhXhXhXhXhXhXhX",
"hXhXhXhXhXhXhXhXhXhXhXhXhX. ..:XeX|.Y.&XfXfXfXfXfXfXfXfXsX1X;.N r.F.x.s.8.j x x z k x Y { {.9X,.4 7 W hXhXhXhXhXhXhXhXhXhXhXhXhXhXhXhXhXhX",
"hXhXhXhXhXhXhXhXhXhXhXhXhXhXhXW ] ~ b m F A A 0 q  .].iXsXiXfXiXuX4XU.f.3.g k k z l W b.f.Z R 9 d 5 hXhXhXhXhXhXhXhXhXhXhXhXhXhXhXhXhXhXhX",
"hXhXhXhXhXhXhXhXhXhXhXhXhXhXhX+ - 3 < < > 3 < < 6 6 | OXsXfXfXiXpXdX<X0.2.F l k h x ^ d.c.h.m l _ # hXhXhXhXhXhXhXhXhXhXhXhXhXhXhXhXhXhXhX",
"hXhXhXhXhXhXhXhXhXhXhXhXhXhXhXhXhXhXhXhXhXhXhX- t u 6 @.iXfXfXsXfXdXsXuXqXgXwXwX7X}.J.g.g.x.s.~ (   hXhXhXhXhXhXhXhXhXhXhXhXhXhXhXhXhXhXhX",
"hXhXhXhXhXhXhXhXhXhXhXhXhXhXhXhXhXhXhXhXhXhXhXhXe m 1 P +XsXfXaXaXpXdXpXdXdXfXfXsXiX2XL.c.x.g.8.c o   hXhXhXhXhXhXhXhXhXhXhXhXhXhXhXhXhXhX",
"hXhXhXhXhXhXhXhXhXhXhXhXhXhXhXhXhXhXhXhXhXhXhXhX  o 5 n r.@XsXwXQ. .-.C.>.>.:.-.#.} D v V l.c.k.}.R.#   hXhXhXhXhXhXhXhXhXhXhXhXhXhXhXhXhX",
"hXhXhXhXhXhXhXhXhXhXhXhXhXhXhXhXhXhXhXhXhXhXhXhX  o 5 B q.r.%X1X;.> @ @ 3 > - 3 2 2 > 3 y 8.x.m.9XoXd %   hXhXhXhXhXhXhXhXhXhXhXhXhXhXhXhX",
"hXhXhXhXhXhXhXhXhXhXhXhXhXhXhXhXhXhXhXhXhXhXhX  o  .OX$XH.S.B.E.e , > o 0 n 9 0 0 + O   O m w.H.aX<X3 X   hXhXhXhXhXhXhXhXhXhXhXhXhXhXhXhX",
"hXhXhXhXhXhXhXhXhXhXhXhXhXhXhXhXhXhXhXhXhXhXhXO p G.aXfXtXoXm S ' M -   % ^ 9 9 J   hXhX  + T <XaX$X5 X   hXhXhXhXhXhXhXhXhXhXhXhXhXhXhXhX",
"hXhXhXhXhXhXhXhXhXhXhXhXhXhXhXhXhXhXhXhXhXhXhXo 0 M.$XoXG.M.j .   .   hX  o $ + .   hXhXhXo F E.5XW.O   hXhXhXhXhXhXhXhXhXhXhXhXhXhXhXhXhX",
"hXhXhXhXhXhXhXhXhXhXhXhXhXhXhXhXhXhXhXhXhXhXhXhXK 9 > > 4 3 . hXhXhXhXhXhXhXhXhXhXhXhXhXhX7 N.0 - X hXhXhXhXhXhXhXhXhXhXhXhXhXhXhXhXhXhXhX",
"hXhXhXhXhXhXhXhXhXhXhXhXhXhXhXhXhXhXhXhXhXhXhXhXhX& + + o .   hXhXhXhXhXhXhXhXhXhXhXhXhXhXO - + .   hXhXhXhXhXhXhXhXhXhXhXhXhXhXhXhXhXhXhX",
"hXhXhXhXhXhXhXhXhXhXhXhXhXhXhXhXhXhXhXhXhXhXhXhXhXhXhX    hXhXhXhXhXhXhXhXhXhXhXhXhXhXhXhXhX    hXhXhXhXhXhXhXhXhXhXhXhXhXhXhXhXhXhXhXhXhX",
"hXhXhXhXhXhXhXhXhXhXhXhXhXhXhXhXhXhXhXhXhXhXhXhXhXhXhXhXhXhXhXhXhXhXhXhXhXhXhXhXhXhXhXhXhXhXhXhXhXhXhXhXhXhXhXhXhXhXhXhXhXhXhXhXhXhXhXhXhX",
"hXhXhXhXhXhXhXhXhXhXhXhXhXhXhXhXhXhXhXhXhXhXhXhXhXhXhXhXhXhXhXhXhXhXhXhXhXhXhXhXhXhXhXhXhXhXhXhXhXhXhXhXhXhXhXhXhXhXhXhXhXhXhXhXhXhXhXhXhX",
"hXhXhXhXhXhXhXhXhXhXhXhXhXhXhXhXhXhXhXhXhXhXhXhXhXhXhXhXhXhXhXhXhXhXhXhXhXhXhXhXhXhXhXhXhXhXhXhXhXhXhXhXhXhXhXhXhXhXhXhXhXhXhXhXhXhXhXhXhX"
};
