/* XPM */
static char *walkl01750862861[] = {
/* columns rows colors chars-per-pixel */
"64 64 227 2 ",
"   c #030101",
".  c #0C0303",
"X  c #090B04",
"o  c #130605",
"O  c #140A06",
"+  c #190906",
"@  c #150B0A",
"#  c #1B0C0A",
"$  c #0B1A03",
"%  c #1B1906",
"&  c #1C110E",
"*  c #1C0E12",
"=  c #1F1612",
"-  c #230E0D",
";  c #23120D",
":  c #2B150D",
">  c #341B0E",
",  c #231613",
"<  c #231915",
"1  c #2C1B15",
"2  c #261919",
"3  c #371F19",
"4  c #0D240D",
"5  c #142B06",
"6  c #152808",
"7  c #193708",
"8  c #2B2F0D",
"9  c #2B360E",
"0  c #262813",
"q  c #2C221D",
"w  c #38241D",
"e  c #2A3A18",
"r  c #323E16",
"t  c #171925",
"y  c #211D22",
"u  c #342523",
"i  c #3C2624",
"p  c #362926",
"a  c #3A2A26",
"s  c #34252B",
"d  c #362B2B",
"f  c #3B2E2B",
"g  c #3E302E",
"h  c #343032",
"j  c #3B3132",
"k  c #4D250C",
"l  c #5C270D",
"z  c #452617",
"x  c #542A16",
"c  c #58351D",
"v  c #672A0B",
"b  c #6B320F",
"n  c #673819",
"m  c #743917",
"M  c #452B24",
"N  c #42312B",
"B  c #4B3229",
"V  c #553728",
"C  c #5C3B2B",
"Z  c #413331",
"A  c #493939",
"S  c #4C3D3C",
"D  c #543C34",
"F  c #543F39",
"G  c #653B23",
"H  c #7B372A",
"J  c #623932",
"K  c #1A4619",
"L  c #2B490E",
"P  c #27580B",
"I  c #2A4814",
"U  c #334013",
"Y  c #3B4D11",
"T  c #365114",
"R  c #2A650F",
"E  c #367A0D",
"W  c #2E6810",
"Q  c #356513",
"!  c #366C15",
"~  c #2F7010",
"^  c #347413",
"/  c #337A12",
"(  c #3C4421",
")  c #265622",
"_  c #375E2A",
"`  c #296C27",
"'  c #3B6F2F",
"]  c #2E782B",
"[  c #317E2F",
"{  c #455F18",
"}  c #73411C",
"|  c #407D1D",
" . c #444B24",
".. c #4E4F2E",
"X. c #53433C",
"o. c #76462C",
"O. c #654738",
"+. c #4E732B",
"@. c #483C41",
"#. c #4B4243",
"$. c #554846",
"%. c #544A46",
"&. c #5C4B44",
"*. c #5B4E4A",
"=. c #5B544C",
"-. c #5C5252",
";. c #654E43",
":. c #62524D",
">. c #735749",
",. c #625452",
"<. c #665654",
"1. c #6A5A54",
"2. c #6B5D5A",
"3. c #725D55",
"4. c #6F605C",
"5. c #74625C",
"6. c #7A685D",
"7. c #786863",
"8. c #7D726D",
"9. c #8E3C0B",
"0. c #874818",
"q. c #934D17",
"w. c #AA4C0D",
"e. c #B84E03",
"r. c #AA540A",
"t. c #B85807",
"y. c #AB5C1A",
"u. c #BD6108",
"i. c #B46212",
"p. c #935526",
"a. c #A55F2A",
"s. c #B57137",
"d. c #C85701",
"f. c #C35D04",
"g. c #C96508",
"h. c #D96902",
"j. c #DC6B02",
"k. c #DE7403",
"l. c #CB6E14",
"z. c #D97614",
"x. c #E36A00",
"c. c #E47302",
"v. c #E97602",
"b. c #E47F17",
"n. c #C3752C",
"m. c #875C45",
"M. c #9A684C",
"N. c #83736D",
"B. c #867B77",
"V. c #378513",
"C. c #3A8514",
"Z. c #3A9311",
"A. c #3D9815",
"S. c #30802E",
"D. c #328530",
"F. c #498319",
"G. c #419517",
"H. c #419A16",
"J. c #419A18",
"K. c #55991A",
"L. c #43A117",
"P. c #44A318",
"I. c #54A313",
"U. c #58AC14",
"Y. c #5BA21E",
"T. c #5F9826",
"R. c #66922D",
"E. c #5FA420",
"W. c #66B423",
"Q. c #6ABC23",
"!. c #6EC324",
"~. c #70C725",
"^. c #78D027",
"/. c #E5821D",
"(. c #CA802B",
"). c #D68331",
"_. c #E49038",
"`. c #84D235",
"'. c #94FF30",
"]. c #98857F",
"[. c #BE9877",
"{. c #DB934C",
"}. c #E2994A",
"|. c #D9A16D",
" X c #D2708A",
".X c #9A8C88",
"XX c #A7988E",
"oX c #A89B96",
"OX c #ADA19D",
"+X c #B7A59A",
"@X c #B6ACA9",
"#X c #B8B2AF",
"$X c #BBB4B1",
"%X c #D2B190",
"&X c #E0A99F",
"*X c #C9B9AA",
"=X c #D5B6AB",
"-X c #C4B9B3",
";X c #C4BCB9",
":X c #E6C492",
">X c #D7C3A7",
",X c #C8C2B9",
"<X c #D5C8B8",
"1X c #E4C6A6",
"2X c #E9D6BF",
"3X c #CCC6C7",
"4X c #D4CCC6",
"5X c #D6D2CD",
"6X c #DCD3CA",
"7X c #DCCED2",
"8X c #D8D4D3",
"9X c #DCD9D4",
"0X c #DDDBDA",
"qX c #EAD3C6",
"wX c #E1DCD5",
"eX c #E4DEDC",
"rX c #EFE9D7",
"tX c #E7E4DB",
"yX c #EBE7E4",
"uX c #EEECEB",
"iX c #F6EDE5",
"pX c #F3EEED",
"aX c #F5F1EA",
"sX c #F4F4F2",
"dX c #F8F6F6",
"fX c #F9F8F7",
"gX c #FAFAF9",
/* pixels */
"~.D.P.~.P.P.U.'.U.P.~.D.~.P.D.P.~.D.P.~.P.P.U.~.U.P.~.D.~.P.D.P.~.D.P.~.P.P.U.'.U.P.~.D.~.P.D.P.~.D.P.~.P.P.U.~.U.P.~.D.~.P.D.P.",
"~.P.P.P.Z.P.'.P.P.P.P.~.P.P.P.P.~.P.D.P.P.P.P.~.P.P.P.~.D.P.P.D.~.P.P.P.Z.P.'.P.P.P.P.~.P.P.P.P.~.P.D.P.P.P.P.~.P.P.P.~.D.P.P.D.",
"P.P.~.U.P.Z.~.P.P.D.A.~.P.P.A.D.P.P.D.P.'.P.D.P.P.P.P.~.P.P.P.D.P.P.~.U.P.Z.~.P.P.D.A.~.P.P.A.D.P.P.D.P.'.P.D.P.P.P.P.~.P.P.P.D.",
"D.P.P.~.A.P.P.P.~.U.D.P.P.~.'.P.D.P.P.'.P.P.P.U.P.~.U.P.U.P.~.P.D.P.P.~.A.P.P.P.~.U.D.P.P.~.'.P.D.P.P.'.P.P.P.U.P.~.U.P.U.P.~.P.",
"P.P.Z.~.Z.~.P.Z.P.~.D.P.Z.P.D.'.P.D.P.~.P.~.P.D.P.P.~.P.P.P.U.~.P.P.Z.~.Z.~.P.Z.P.~.D.P.Z.P.D.'.P.D.P.~.P.~.P.D.P.P.~.P.P.P.U.~.",
"P.~.U.P.A.D.P.P.P.~.P.P.P.P.P.~.P.D.P.P.D.U.D.U.P.P.~.D.P.P.P.~.P.~.U.P.A.D.P.P.P.~.P.P.P.P.P.~.P.D.P.P.D.U.D.U.P.P.~.D.P.P.P.~.",
"P.P.~.P.D.P.U.'.P.P.P.P.~.P.~.D.P.~.U.D.P.P.P.P.D.P.P.P.D.P.~.D.P.P.~.P.D.P.U.'.P.P.P.P.~.P.~.D.P.~.U.D.P.P.P.P.D.P.P.P.D.P.~.D.",
"D.Z.~.Z.D.P.'.P.P.P.~.P.P.~.P.~.D.P.~.D.U.'.P.D.P.P.U.P.D.P.P.~.D.Z.~.Z.D.P.'.P.P.P.~.P.P.~.P.~.D.P.~.D.U.'.P.D.P.P.U.P.D.P.P.~.",
"P.Z.Z.Z.Z.P.~.P.D.A.P.~.P.D.P.~.P.D.~.P.'.P.P.D.P.D.P.P.P.U.P.~.P.Z.Z.Z.Z.P.~.P.D.A.P.~.P.D.P.~.P.D.~.P.'.P.P.D.P.D.P.P.P.U.P.~.",
"A.D.A.~.U.P.P.P.~.D.P.P.D.A.P.P.G.D.P.P.~.D.P.P.P.P.D.'.U.P.P.P.A.D.A.~.U.P.P.P.~.D.P.P.D.A.P.P.A.D.P.P.~.D.P.P.P.P.D.'.U.P.P.P.",
"~.P.D.P.U.~.P.Z.A.D.P.'.U.~.Z.P.~.U.P.D.P.P.D.~.U.P.D.P.'.P.D.P.~.P.D.P.U.~.P.Z.A.D.P.'.U.~.Z.P.~.U.P.D.P.P.D.~.U.P.D.P.'.P.D.P.",
"P.P.D.P.~.P.P.P.~.U.P.P.'.P.P.Z.U.~.D.P.U.P.D.P.~.P.U.P.~.D.P.Z.P.P.D.P.~.P.P.P.~.U.P.P.'.P.P.Z.U.~.D.P.U.P.D.P.~.P.U.P.~.D.P.Z.",
"P.'.P.P.~.P.D.A.P.~.P.Z.~.Z.P.P.P.P.D.P.P.P.P.P.~.P.P.P.P.D.P.P.P.'.P.P.~.P.D.A.P.~.P.Z.~.Z.P.P.P.P.D.P.P.P.P.P.~.P.P.P.P.D.P.P.",
"P.P.'.A.D.U.~.D.P.~.P.Z.Z.P.A.D.P.~.U.P.~.U.~.P.P.P.D.P.U.P.P.D.P.P.'.A.D.U.~.D.P.~.P.Z.Z.L.A.D.P.~.U.P.~.U.~.P.P.P.D.P.U.P.P.D.",
"D.A.~.D.P.~.Z.D.Z.P.D.A.P.~.D.P.D.P.~.P.P.~.U.P.U.P.P.D.L.U.L.L.D.A.~.D.P.~.Z.D.Z.P.D.A.P.~.) 1 , ^ ~.P.P.~.U.P.U.P.P.D.P.U.P.P.",
"P.D.P.D.P.~.P.Z.Z.~.P.D.U.P.D.'.P.D.Q.] Z.Q.P.Z.~.P.P.D.U.L.D.~.P.D.P.D.P.~.P.Z.Z.~.P.D.I.+.4.N.7.1.R.S.P.~.P.Z.~.P.P.D.U.P.D.~.",
"~.D.P.~.P.P.U.~.U.P.~.D.~.P.D.P.'.D.! 2 , L I.'.U.P.~.D.~.P.S.L.~.D.P.~.P.P.U.~.U.P.~.S.+.1.<XaXiX*X1.T.L.L.U.'.U.P.~.D.~.P.D.P.",
"~.P.D.P.P.P.P.~.P.P.P.~.D.P.P.D.~.C.< u 1.&.R.A.P.P.P.~.L.V.V.L.~.P.D.P.P.P.P.~.P.P.P.E.0 3.*XtXsX,X1.q ! P.'.L.P.P.P.~.P.P.P.P.",
"P.P.D.P.~.P.D.P.P.P.P.~.P.P.P.D.P.C.* %.6X-X2.T Z.D.G.^.! @ 0 ' P.P.D.P.~.P.D.P.P.P.P.E.> z D B.4X+X&.i 1 Q ~.P.P.D.A.~.P.P.A.D.",
"D.P.P.~.P.P.P.U.P.'.U.P.U.P.~.P.D.C.@ *.tX5XB.q R.U.S.F.6.7.X. .D.P.P.~.P.P.P.U.P.'.U.G.{ 9 . p .X].A i u 1 P.P.~.U.D.P.P.~.D.P.",
"P.D.P.~.P.~.P.D.P.P.'.P.P.P.U.~.L.V.o %.tX4X6.= E ~.) X.6X4X=.U P.D.P.~.P.~.P.D.P.P.'.P.P.C.P r &.:.d d u 2 P.Z.P.~.D.P.Z.P.D.~.",
"P.D.P.P.D.U.D.U.P.P.~.D.P.P.P.~.L.Y.. #.wX=X>.z r Q ; <.wXtX,.U P.D.P.P.S.U.D.U.P.P.~.S.P.P.P.T. .D n G z 2 P.P.P.~.P.P.P.P.P.~.",
"P.~.U.D.P.P.P.P.D.P.P.P.D.P.~.D.P.V.. D 4X>X(.i.x ; < ,.9XyX:.0 P.~.U.D.P.P.P.P.D.P.P.P.D.P.~.D.+.p.f.t.v , U.~.P.P.P.P.~.P.~.D.",
"D.P.~.D.U.'.P.D.P.P.U.P.D.P.P.~.D.E : ..[.}.z.q.B q q 2.9XtX:.r D.P.~.D.U.'.P.D.P.P.U.P.D.P.P.~. .9.g.e.l , ~.P.P.P.~.P.P.~.P.~.",
"P.D.~.P.'.P.P.D.P.D.P.P.P.U.P.~.6 O.0.t.z.z.0.B f a u 4.0XtX=.r P.D.~.P.'.P.P.D.P.D.P.P.P.U.P.~.Y 3 z M 3 , ~.P.D.A.P.~.P.D.P.~.",
"A.D.P.P.~.D.P.P.P.P.D.'.U.P.P.P.G q.g.j.l.q.D N g f a 4.9X0X*.8 H.D.P.P.~.D.P.P.P.P.D.'.U.P.P.Q B B N s i 3 P.P.~.D.P.P.D.A.P.P.",
"~.U.P.D.P.P.D.~.U.P.D.P.'.P.X o.r.k.k.g.} Z j j g g N N %.D 3 r ~.U.P.S.P.P.D.~.U.P.D.L.'.P._ M s G l.t.l @ P.Z.A.D.P.'.U.~.Z.L.",
"U.~.D.P.U.P.D.P.~.P.I.H.Q.D.V r.c.c.k.u.V j j g f N g N f a u q L !.[ H.I.H.[ H.Q.J.I.H.Q._ x m >.a.z.d.b = P.P.~.U.P.P.'.P.P.Z.",
"P.P.D.P.P.P.P.P.~.P. .a @ w w.j.x.h.k.i.V j h j N g N j g f f p 2 t t t t t t t t t 2 2 = k 9.n.1X1X_.t.v # D.A.P.~.P.Z.~.Z.P.P.",
"P.'.U.P.~.U.~.P.P.P.+.V ; l h.x.g.g.).s.V f g h g g N N a N %.#.s i x B M z z z k k > 1 q l s.:XuX2X{.w.x 8 ~.D.P.~.P.Z.Z.P.A.D.",
"D.P.'.P.P.~.U.P.U.P.P.K t m h.j.v J <X;X:.d p f f f f a f &.3X3X@.x e.d.d.d.d.e.f.t.n u s ;.*XiXdX1XM.G U ~.Z.D.Z.P.D.A.P.~.D.P.",
"P.D.~.D.P.~.P.Z.~.P.P.` 0 o.n.{.1 #.tXtX.XA u j -.2.2.1.1.B.eX5X#.x r.g.c.v.g.u.g.i.C d d 2.8XdXtXXX%.e H.~.P.Z.Z.~.P.D.U.P.D.~.",
"~.D.P.~.P.P.U.'.U.P.R.0 + 1.,XrXs @.0XdX8XB.Z ,.#X3X3X3X3X8XsX4X@.2 k 0.l.g.} } c V N f f 2.5XuXOXX.I W.P.P.U.~.U.P.~.D.~.P.D.P.",
"~.P.P.P.Z.L.'.P.P.P.C.8 o S @X6X@.2.7XyXsX3X7.B.0XfXgXgXgXsX9XOXV x x b y.q...h h h f j -.B.;X@X%.L ` L.P.P.P.~.P.P.P.~.D.P.P.D.",
"P.P.~.U.P.Z.~.P.P.D.A.K.R ! X..X3X3X&X&XpXsX5X5XsXgXgXgXfX8X7.O.r.t.g.r.m V f h j f j ,.#X$XB.#.I Z.D.P.'.P.D.P.P.P.P.~.P.P.P.D.",
"D.P.L.~.H.P.P.P.~.U.D.P.P.~.Q.;.7XqX X XeXpXpXpXuXuXfXgXgX8X3.H ).b.c.t.C h h j h h D 7.-X#X2.q ) P.P.'.P.P.P.U.P.~.U.P.U.P.~.P.",
"P.P.Z.~.Z.~.P.Z.P.~.D.P.Z.P.D.`.N.M.H J &.:.%.%.%.=.@XuXgXsX8X4X2X:X_.r.c s d f h B y.y.>.%.N 1 ! D.P.~.P.~.P.D.P.P.~.P.P.P.U.~.",
"P.~.U.P.H.D.L.P.P.~.P.P.P.P.P.~.{ # o o + + @ # 2 ; D -XfXgXgXgXfXwX|.a.C N N h h o.g.h.0.z w ; W D.P.P.D.U.D.U.P.P.~.D.P.P.P.~.",
"P.P.~.P.D.P.U.'.P.P.P.P.~.P.~.D.P.Q.K.] H.H.H.7 3 > - =.0XgXgXgXgXfXsXpXpXpXuXuX3X%X/.v.x.e.l & W !.U.D.P.P.P.P.D.P.P.P.D.P.~.D.",
"D.Z.~.Z.D.P.'.P.P.P.~.P.P.~.P.~.D.H.~.D.U.'.P.D...u i N OXuXgXgXgXfXgXfXgXgXgXfXiX&X}.v.c.f.m : ) P.~.D.U.'.P.D.P.P.U.P.D.P.P.~.",
"P.Z.Z.Z.Z.P.~.P.D.A.P.~.P.D.P.~.P.D.~.P.'.P.P.D. .&.XX.Xu 7.wXgXgX;X%.i f M w ; - * * v g.g.b ; W D.~.P.'.P.P.D.P.D.P.P.P.U.P.~.",
"A.D.A.~.U.P.P.P.~.D.P.P.D.A.P.P.A.D.P.P.~.D.P.G.( 2.@X;Xd D >XiXtXoXf # + # # ; j u y M s.l.m % R D.P.P.~.D.P.P.P.P.D.'.U.P.P.P.",
"~.P.D.P.U.~.P.Z.A.S.P.'.U.~.Z.P.~.U.P.D.L.P.D.L = 7.*X*Xd x n.{.m.M o $ 5 X @ B ;XoXS A *X,X5.= Q K.P.D.P.P.D.~.U.P.D.P.'.P.D.P.",
"P.P.D.P.~.P.P.P.~.U.P.P.'.P.P.Z.U.~.D.P.U.P.[ K o &.+XOXu x n.n.n #   P ~.6 # z XX.X1.8.8X5X7.,   F.D.P.U.P.D.P.~.P.U.P.~.D.P.Z.",
"L.'.P.P.~.P.D.A.P.~.P.Z.~.Z.P.P.P.P.S.P.L.P.P.R L % 5.>.: X.>X>X;.@ 6 ^ !.5 ; > B N.#XwXsX6X7.<   ~ D.P.P.P.P.P.~.P.P.P.P.D.P.P.",
"P.P.'.A.D.U.~.D.P.~.P.Z.Z.P.H.D.P.~.U.P.~.U.~.L.P.$ < > ; =.<X,XS o | A.D.5 ; : : 7.#XyXpX,X1.* 5 Y.U.P.~.U.~.P.P.P.D.P.U.P.P.D.",
"D.A.~.D.P.~.Z.D.Z.P.S.H.P.~.D.P.D.P.~.P.P.~.U.P.U.R R O z B 1.=.2 4 K.D.P.F.P O i B X.2.2.$.2 7 ` P.~.P.P.~.U.P.U.P.P.D.P.U.P.P.",
"P.D.P.D.P.~.P.Z.Z.~.P.S.U.P.D.'.P.D.~.S.P.~.P.Z.~.P.P.  : ; O   6 ` P.D.P.~.H.X ; # o o .   4 ^.P.D.~.D.P.~.P.Z.~.P.P.D.U.P.D.~.",
"~.D.P.~.P.P.U.~.U.P.~.D.~.P.D.P.'.D.P.~.P.P.U.'.U.P.~.) F.    $ Y.D.P.~.P.P.U.K.        5 ~ ` P.'.D.P.~.P.P.U.'.U.P.~.D.~.P.D.P.",
"~.P.D.P.P.P.P.~.P.P.P.~.D.P.P.D.~.P.P.P.Z.P.'.P.P.P.P.~.P./ / V.~.P.D.P.P.P.J.~./ / / K.` P.P.D.~.P.P.P.Z.P.'.P.P.P.P.~.P.P.P.P.",
"P.P.D.P.~.P.D.P.P.L.P.~.P.P.P.D.P.P.~.U.P.Z.~.P.P.D.A.~.P.P.A.D.P.P.D.P.~.P.D.P.P.P.P.~.P.P.P.D.P.P.~.U.P.Z.~.P.P.D.A.~.P.P.A.D.",
"D.P.P.~.P.P.P.U.P.'.U.P.U.P.~.P.D.P.P.~.A.P.P.P.~.U.D.P.P.~.D.P.D.P.P.~.P.P.P.U.P.'.U.P.U.P.~.P.D.P.P.~.A.P.P.P.~.U.D.P.P.~.D.P.",
"P.D.P.~.P.~.P.D.P.P.'.P.P.P.U.~.P.P.Z.~.Z.~.P.Z.P.~.D.P.Z.P.D.~.P.D.P.~.P.~.P.D.P.P.'.P.P.P.U.~.P.P.Z.~.Z.~.P.Z.P.~.D.P.Z.P.D.~.",
"P.D.P.P.D.U.D.U.P.P.~.D.P.P.P.~.P.~.U.P.A.D.P.P.P.~.P.P.P.P.P.~.P.D.P.P.D.U.D.U.P.P.~.D.P.P.P.~.P.~.U.P.A.D.P.P.P.~.P.P.P.P.P.~.",
"P.~.U.D.P.P.P.P.D.P.P.P.D.P.~.D.P.P.~.P.D.P.U.~.P.P.P.P.~.P.~.D.P.~.U.D.P.P.P.P.D.P.P.P.D.P.~.D.P.P.~.P.D.P.U.~.P.P.P.P.~.P.~.D.",
"D.P.~.D.U.'.P.D.P.P.U.P.D.P.P.~.D.Z.~.Z.D.P.~.P.P.P.~.P.P.~.P.~.D.P.~.D.U.'.P.D.P.P.U.P.D.P.P.~.D.Z.~.Z.D.P.~.P.P.P.~.P.P.~.P.~.",
"P.D.~.P.'.P.P.D.P.D.L.P.P.U.P.~.P.Z.Z.Z.Z.P.~.P.D.A.P.~.P.D.P.~.P.D.~.P.'.P.P.D.P.D.P.P.P.U.P.~.P.Z.Z.Z.Z.P.~.P.D.A.P.~.P.D.P.~.",
"A.D.P.P.~.D.P.P.P.P.D.'.U.P.P.P.A.D.A.~.U.P.P.P.~.D.P.P.D.A.P.P.A.D.P.P.~.D.P.P.P.P.D.'.U.P.P.P.A.D.A.~.U.P.P.P.~.D.P.P.D.A.P.P.",
"~.U.P.D.L.P.D.~.U.P.D.P.'.P.D.P.~.P.D.P.U.'.P.Z.A.D.P.'.U.~.Z.P.~.U.P.D.P.P.D.~.U.P.D.P.'.P.D.P.~.P.D.P.U.'.P.Z.A.D.P.'.U.~.Z.P.",
"U.~.D.P.U.P.D.P.~.P.U.P.~.D.P.Z.P.P.D.P.'.P.P.P.~.U.P.P.'.P.P.Z.U.~.D.P.U.P.D.P.~.P.U.P.~.D.P.Z.P.P.D.P.'.P.P.P.~.U.P.P.'.P.P.Z.",
"P.P.D.P.P.P.P.P.~.P.P.P.P.D.P.P.P.~.P.P.~.P.D.A.P.~.P.Z.~.Z.P.P.P.P.D.P.P.P.P.P.~.P.P.P.P.D.P.P.P.~.P.P.~.P.D.A.P.~.P.Z.~.Z.P.P.",
"P.'.U.P.~.U.~.P.P.P.D.P.U.P.P.D.P.P.~.A.D.U.~.D.P.~.P.Z.Z.P.A.D.P.'.U.P.~.U.~.P.P.P.D.P.U.P.P.D.P.P.~.A.D.U.~.D.P.~.P.Z.Z.P.A.D.",
"D.P.'.L.P.~.U.P.U.P.P.D.P.U.P.P.D.A.~.D.P.~.Z.D.Z.P.D.A.P.~.D.P.D.P.'.P.P.~.U.P.U.P.P.D.P.U.P.P.D.A.~.D.P.~.Z.D.Z.P.D.A.P.~.D.P.",
"P.D.~.D.P.~.P.Z.~.P.P.D.U.P.D.~.P.D.P.D.P.~.P.Z.Z.~.P.D.U.P.D.~.P.D.~.D.P.~.P.Z.~.P.P.D.U.P.D.~.P.D.P.D.P.~.P.Z.Z.~.P.D.U.P.D.~."
};
