/* XPM */
static char *result[] = {
/* columns rows colors chars-per-pixel */
"69 69 211 2 ",
"   c #020101",
".  c #0D0605",
"X  c #0D0B0B",
"o  c #120C0C",
"O  c #1C0E0D",
"+  c #100605",
"@  c #1B1313",
"#  c #161216",
"$  c #150F11",
"%  c #2B110C",
"&  c #23120E",
"*  c #241413",
"=  c #261B15",
"-  c #2C1B16",
";  c #25171C",
":  c #241C1C",
">  c #2A1D1A",
",  c #2C1615",
"<  c #311A14",
"1  c #351F18",
"2  c #2D211C",
"3  c #33221D",
"4  c #3C241E",
"5  c #3D2216",
"6  c #0D0E24",
"7  c #0B0F2C",
"8  c #181927",
"9  c #2C1D25",
"0  c #261A25",
"q  c #3A1E28",
"w  c #17222F",
"e  c #1E2830",
"r  c #2C2323",
"t  c #2C262A",
"y  c #2A2A29",
"u  c #342423",
"i  c #3B2524",
"p  c #342A24",
"a  c #3C2A25",
"s  c #32262A",
"d  c #342B2C",
"f  c #3C2D2B",
"g  c #3A2728",
"h  c #3D322D",
"j  c #2C2C34",
"k  c #342D31",
"l  c #3D2A30",
"z  c #243035",
"x  c #353034",
"c  c #3D3332",
"v  c #3A373C",
"b  c #43230F",
"n  c #46261B",
"m  c #5C2D14",
"M  c #512E19",
"N  c #56341F",
"B  c #69310F",
"V  c #75370E",
"C  c #643A1B",
"Z  c #683517",
"A  c #713511",
"S  c #783D16",
"D  c #412C25",
"F  c #412F2C",
"G  c #482928",
"H  c #453226",
"J  c #41312E",
"K  c #4C3B2C",
"L  c #4B3627",
"P  c #573324",
"I  c #57382B",
"U  c #423431",
"Y  c #4C3B35",
"T  c #483B3A",
"R  c #553B35",
"E  c #6A3B24",
"W  c #603927",
"Q  c #54422F",
"!  c #54443D",
"~  c #564133",
"^  c #6B4126",
"/  c #754327",
"(  c #684F3D",
")  c #75573B",
"_  c #363242",
"`  c #4F4341",
"'  c #554542",
"]  c #564B4A",
"[  c #5C5049",
"{  c #5A5051",
"}  c #674D47",
"|  c #6A584E",
" . c #7C5C49",
".. c #6C5B56",
"X. c #645856",
"o. c #73665C",
"O. c #6D6066",
"+. c #7B6965",
"@. c #7D7166",
"#. c #746B76",
"$. c #843F0F",
"%. c #89460E",
"&. c #83431A",
"*. c #84491F",
"=. c #8C4617",
"-. c #934A19",
";. c #99561B",
":. c #A64A0A",
">. c #AC540B",
",. c #A6580D",
"<. c #BA580A",
"1. c #A34F11",
"2. c #A24F1A",
"3. c #AD5812",
"4. c #A55417",
"5. c #B35513",
"6. c #BB600C",
"7. c #BD6D11",
"8. c #844B26",
"9. c #964C20",
"0. c #925122",
"q. c #854633",
"w. c #9F6637",
"e. c #A26121",
"r. c #B26B2D",
"t. c #C65A05",
"y. c #D45E06",
"u. c #C05C11",
"i. c #CD6104",
"p. c #CB630C",
"a. c #C9660C",
"s. c #D6640A",
"d. c #D46D0D",
"f. c #DB6D0D",
"g. c #DB6504",
"h. c #D7700D",
"j. c #D9710D",
"k. c #D97C0E",
"l. c #C86614",
"z. c #D26E11",
"x. c #DA6D11",
"c. c #D06413",
"v. c #D17212",
"b. c #E56C0A",
"n. c #E06E10",
"m. c #E57910",
"M. c #EB7405",
"N. c #C16A21",
"B. c #CC7B30",
"V. c #D57D37",
"C. c #DF7929",
"Z. c #8F584D",
"A. c #8A6759",
"S. c #B87C57",
"D. c #826C64",
"F. c #816F69",
"G. c #827168",
"H. c #837671",
"J. c #937168",
"K. c #CD7945",
"L. c #DF862C",
"P. c #8C817A",
"I. c #968479",
"U. c #B28B6F",
"Y. c #DB914F",
"T. c #E3924A",
"R. c #CF976B",
"E. c #DFA269",
"W. c #8F7C84",
"Q. c #988C87",
"!. c #9D918F",
"~. c #958D8B",
"^. c #A3958B",
"/. c #A19087",
"(. c #A79B9B",
"). c #B6A388",
"_. c #B7AAA8",
"`. c #B5AEAC",
"'. c #DFB79A",
"]. c #EABD92",
"[. c #C2B5AB",
"{. c #C8BCB7",
"}. c #D4BFB1",
"|. c #D9C8B9",
" X c #C8C0BB",
".X c #EEDDBF",
"XX c #CDC6C7",
"oX c #D5CDC6",
"OX c #D7C9C3",
"+X c #DDD4CB",
"@X c #DFD6CA",
"#X c #DFD8DA",
"$X c #D9D4D3",
"%X c #F0DBCA",
"&X c #E8DCD3",
"*X c #E3DDDA",
"=X c #E3DDD5",
"-X c #E9E5D9",
";X c #F0E2D7",
":X c #E5E2E2",
">X c #EBE6E2",
",X c #F2EEE6",
"<X c #F2EDEB",
"1X c #F9EBE6",
"2X c #F7F1ED",
"3X c #F6F4F4",
"4X c #F9F6F7",
"5X c #FBF9F6",
"6X c #F7FCF9",
"7X c #FBFAFA",
"8X c None",
/* pixels */
"8X8X8X8X8X8X8X8X8X8X8X8X8X8X8X8X8X8X8X8X8X8X8X8X8X8X8X8X8X8X8X8X8X8X8X8X8X8X8X8X8X8X8X8X8X8X8X8X8X8X8X8X8X8X8X8X8X8X8X8X8X8X8X8X8X8X8X8X8X",
"8X8X8X8X8X8X8X8X8X8X8X8X8X8X8X8X8X8X8X8X8X8X8X8X8X8X8X8X8X8X8X8X8X8X8X8X8X8X8X8X8X8X8X8X8X8X8X8X8X8X8X8X8X8X8X8X8X8X8X8X8X8X8X8X8X8X8X8X8X",
"8X8X8X8X8X8X8X8X8X8X8X8X8X8X8X8X8X8X8X8X8X8X8X8X8X8X8X8X8X8X8X8X8X8X8X8X8X8X8X8X8X8X8X8X8X8X8X8X8X8X8X8X8X8X8X8X8X8X8X8X8X8X8X8X8X8X8X8X8X",
"8X8X8X8X8X8X8X8X8X8X8X8X8X8X8X8X8X8X8X8X8X8X8X8X8X8X8X8X8X8X8X8X8X8X8X8X8X8X8X8X8X8X8X8X8X8X8X8X8X8X8X8X8X8X8X8X8X8X8X8X8X8X8X8X8X8X8X8X8X",
"8X8X8X8X8X8X8X8X8X8X8X8X8X8X8X8X8X8X8X8X8X8X8X8X8X8X8X8X8X8X8X8X8X8X8X8X8X8X8X8X8X8X8X8X8X8X8X8X8X8X8X8X8X8X8X8X8X8X8X8X8X8X8X8X8X8X8X8X8X",
"8X8X8X8X8X8X8X8X8X8X8X8X8X8X8X8X8X8X8X8X8X8X8X8X8X8X8X8X8X8X8X8X8X8X8X8X8X8X8X8X8X8X8X8X8X8X8X8X8X8X8X8X8X8X8X8X8X8X8X8X8X8X8X8X8X8X8X8X8X",
"8X8X8X8X8X8X8X8X8X8X8X8X8X8X8X8X8X8X8X8X8X8X8X8X8X8X8X8X8X8X8X8X8X8X8X8X8X8X8X8X8X8X8X8X8X8X8X8X8X8X8X8X8X8X8X8X8X8X8X8X8X8X8X8X8X8X8X8X8X",
"8X8X8X8X8X8X8X8X8X8X8X8X8X8X8X8X8X8X8X8X8X8X8X8X8X8X8X8X8X8X8X8X8X8X8X8X8X8X8X8X8X8X8X8X8X8X8X8X8X8X8X8X8X8X8X8X8X8X8X8X8X8X8X8X8X8X8X8X8X",
"8X8X8X8X8X8X8X8X8X8X8X8X8X8X8X8X8X8X8X8X8X8X8X8X8X8X8X8X8X8X8X8X8X8X8X8X8X8X8X8X8X8X8X8X8X8X8X8X8X8X8X8X8X8X8X8X8X8X8X8X8X8X8X8X8X8X8X8X8X",
"8X8X8X8X8X8X8X8X8X8X8X8X8X8X8X8X8X8X8X8X8X8X8X8X8X8X8X8X8X8X8X8X8X8X8X8X8X8X8X8X8X8X8X8X8X8X8X8X8X8X8X8X8X8X8X8X8X8X8X8X8X8X8X8X8X8X8X8X8X",
"8X8X8X8X8X8X8X8X8X8X8X8X8X8X8X8X8X8X8X8X8X8X8X8X8X8X8X8X8X8X8X8X8X8X8X8X8X8X8X8X8X8X8X8X8X8X8X8X8X8X8X8X8X8X8X8X8X8X8X8X8X8X8X8X8X8X8X8X8X",
"8X8X8X8X8X8X8X8X8X8X8X8X8X8X8X8X8X8X8X8X8X8X8X8X8X8X8X8X8X8X8X8X8X8X8X8X8X8X8X8X8X8X8X8X8X8X8X8X8X8X8X8X8X8X8X8X8X8X8X8X8X8X8X8X8X8X8X8X8X",
"8X8X8X8X8X8X8X8X8X8X8X8X8X8X8X8X8X8X8X8X8X8X8X8X8X8X8X8X8X8X8X8X8X8X8X8X8X8X8X8X8X8X8X8X8X8X8X8X8X8X8X8X8X8X8X8X8X8X8X8X8X8X8X8X8X8X8X8X8X",
"8X8X8X8X8X8X8X8X8X8X8X8X8X8X8X8X8X8X8X8X8X8X8X8X8X8X8X8X8X8X8X8X8X8X8X8X8X8X8X8X8X8X8X8X8X8X8X8X8X8X8X8X8X8X8X8X8X8X8X8X8X8X8X8X8X8X8X8X8X",
"8X8X8X8X8X8X8X8X8X8X8X8X8X8X8X8X8X8X8X8X8X8X8X8X8X8X8X8X8X8X8X8X8X8X8X8X8X8X8X8X8X8X8X8X8X8X8X8X8X8X8X8X8X8X8X8X8X8X8X8X8X8X8X8X8X8X8X8X8X",
"8X8X8X8X8X8X8X8X8X8X8X8X8X8X8X8X8X8X8X8X8X8X8X8X8X8X8X8X8X8X8X8X8X8X8X8X8X8X8X8X8X8X8X8X8X8X8X8X8X8X8X8X8X8X8X8X8X8X8X8X8X8X8X8X8X8X8X8X8X",
"8X8X8X8X8X8X8X8X8X8X8X8X8X8X8X8X8X8X8X8X8X8X8X8X8X8X8X8X8X8X8X8X8X8X8X8X8X8X8X8X8X8X8X8X8X8X8X8X8X8X8X8X8X8X8X8X8X8X8X8X8X8X8X8X8X8X8X8X8X",
"8X8X8X8X8X8X8X8X8X8X8X8X8X8X8X8X8X8X8X8X8X8X8X8X8X8X8X8X8X8X8X8X8X8X8X8X8X8X8X8X8X8X8X8X8X8X8X8X8X8X8X8X8X8X8X8X8X8X8X8X8X8X8X8X8X8X8X8X8X",
"8X8X8X8X8X8X8X8X8X8X8X8X8X8X8X8X8X8X8X8X8X8X8X8X8X8X8X8X8X8X8X8X8X8X8X8X8X8X8X8X8X8X8X8X8X8X8X8X8X8X8X8X8X8X8X8X8X8X8X8X8X8X8X8X8X8X8X8X8X",
"8X8X8X8X8X8X8X8X8X8X8X8X8X8X8X8X8X8X8X8X8X8X8X8X8X8X8X8X8X8X8X8X8X8X8X8X8X8X8X8X8X8X8X8X8X8X8X8X8X8X8X8X8X8X8X8X8X8X8X8X8X8X8X8X8X8X8X8X8X",
"8X8X8X8X8X8X8X8X8X8X8X8X8X8X8X8X8X8X8X8X8X8X8X8X8X8X8X8X8X8X8X8X8X8X8X8X8X8X8X8X8X8X8X8X8X8X8X8X8X8X8X8X8X8X8X8X8X8X8X8X8X8X8X8X8X8X8X8X8X",
"8X8X8X8X8X8X8X8X8X8X8X8X8X8X8X8X8X8X8X8X8X8X8X8X8X8X8X8X8X8X8X8X8X8X8X8X8X8X8X8X8X8X8X8X8X8X8X8X8X8X8X8X8X8X8X8X8X8X8X8X8X8X8X8X8X8X8X8X8X",
"8X8X8X8X8X8X8X8X8X8X8X8X8X8X8X8X8X8X8X8X8X8X8X8X8X8X8X8X8X8X8X8X8X8X8X8X8X8X8X8X8X8X8X8X8X8X8X8X8X8X8X8X8X8X8X8X8X8X8X8X8X8X8X8X8X8X8X8X8X",
"8X8X8X8X8X8X8X8X8X8X8X8X8X8X8X8X8X8X8X8X8X8X8X8X8X8X8X8X8X8X8X8X8X8X8X8X8X8X8X8X8X8X8X8X8X8X8X8X8X8X8X8X8X8X8X8X8X8X8X8X8X8X8X8X8X8X8X8X8X",
"8X8X8X8X8X8X8X8X8X8X8X8X8X8X8X8X8X8X8X8X8X8X8X8X8X8X8X8X8X8X8X8X8X8X8X8X8X8X8X8X8X8X8X8X8X8X8X8X8X8X8X8X8X8X8X8X8X8X8X8X8X8X8X8X8X8X8X8X8X",
"8X8X8X8X8X8X8X8X8X8X8X8X8X8X8X8X8X8X8X8X8X8X8X8X8X8X8X8X8X8X8X8X8X8X8X8X8X8X8X8X8X8X8X8X8X8X8X8X8X8X8X8X8X8X8X8X8X8X8X8X8X8X8X8X8X8X8X8X8X",
"8X8X8X8X8X8X8X8X8X8X8X8X8X8X8X8X8X8X8X8X8X8X8X8X8X8X: 3 i = 8X8X8X8X8X8X8X8X8X8X8X$ p p ~ 8X8X8X8X8X8X8X8X8X8X8X8X8X8X8X8X8X8X8X8X8X8X8X8X",
"8X8X8X8X8X8X8X8X8X8X8X8X8X8X8X8X8X8X8X8X8X8X8X8X8X8X; a D.+.8X8X8X8X8X8X8X8X8X8X8X[ G.~ ( 8X8X8X8X8X8X8X8X8X8X8X8X8X8X8X8X8X8X8X8X8X8X8X8X",
"8X8X8X8X8X8X8X8X8X8X8X8X8X8X8X8X8X8X8X8X8X8X8X8X8X8XO Y +X+X@.o 8X8X8X8X8X8X8XX ] |.=X@.h 8X8X8X8X8X8X8X8X8X8X8X8X8X8X8X8X8X8X8X8X8X8X8X8X",
"8X8X8X8X8X8X8X8X8X8X8X8X8X8X8X8X8X8X8X8X8X8X8X8X8X8XO ! >X3X`.K : 8X8X8X8X8X8Xc I.5X-XP.3 8X8X8X8X8X8X8X8X8X8X8X8X8X8X8X8X8X8X8X8X8X8X8X8X",
"8X8X8X8X8X8X8X8X8X8X8X8X8X8X8X8X8X8X8X8X8X8X8X8X8X8XO ' ,X7X=X^.O.@ # o X # v Q.-X6X=XP.p 8X8X8X8X8X8X8X8X8X8X8X8X8X8X8X8X8X8X8X8X8X8X8X8X",
"8X8X8X8X8X8X8X8X8X8X8X8X8X8X8X8X8X8X8X8X8X8X8X8X8X8X* ! =X:X+X`.F.r t r r a  .].%X-X@XG.p 8X8X8X8X8X8X8X8X8X8X8X8X8X8X8X8X8X8X8X8X8X8X8X8X",
"8X8X8X8X8X8X8X8X8X8X8X8X8X8X8X8X8X8X8X8X8X8X8X8X8X8X; J H.~.@.| U d k x I -.l.V.Y.E.R.) p 8X8X8X8X8X8X8X8X8X8X8X8X8X8X8X8X8X8X8X8X8X8X8X8X",
"8X8X8X8X8X8X8X8X8X8X8X8X8X8X8X8X8X8X8X8X8X8X8X8X8X8Xu a h h h h h x c Y -.n.f.d.d.d.i.&.h 8X8X8X8X8X8X8X8X8X8X8X8X8X8X8X8X8X8X8X8X8X8X8X8X",
"8X8X8X8X8X8X8X8X8X8X8X8X8X8X8X8X8X8X8X8X8X8X8X8X8X> p U c c J J c c R 0.c.x.z.z.z.d.d.5./ b 8X8X8X8X8X8X8X8X8X8X8X8X8X8X8X8X8X8X8X8X8X8X8X",
"8X8X8X8X8X8X8X8X8X8X8X8X8X8X8X8X8X8X8X8X8X8X3 3 p f U U U U U U c Y 8.n.n.z.z.z.d.z.d.d.l.S # 2 a 8X8X8X8X8X8X8X8X8X8X8X8X8X8X8X8X8X8X8X8X",
"8X8X8X8X8X8X8X8X8X8X8X8X8X8X8X8X8X8X8X8X8X8X> 3 f h U U U U U U U U ^ 4.l.x.z.z.z.h.z.z.l.%.# = p 8X8X8X8X8X8X8X8X8X8X8X8X8X8X8X8X8X8X8X8X",
"8X8X8X8X8X8X8X8X8X8X8X8X8X8X8X8X8X8X8X8X8X8X8X@ a c c U U U U U J h c J 8.x.z.z.z.d.h.j.d.%.6 . 8X8X8X8X8X8X8X8X8X8X8X8X8X8X8X8X8X8X8X8X8X",
"8X8X8X8X8X8X8X8X8X8X8X8X8X8X8X8X8X8X8X8X8X8X8X3 J U U U U U U U J h h f / j.z.z.z.z.j.j.d.%.6 @ 8X8X8X8X8X8X8X8X8X8X8X8X8X8X8X8X8X8X8X8X8X",
"8X8X8X8X8X8X8X8X8X8X8X8X8X8X8X8X8X8X8X8X8X8X5 4 f h c U U U J U J h p a ^ h.f.z.h.z.j.j.d.%.7 r n 8X8X8X8X8X8X8X8X8X8X8X8X8X8X8X8X8X8X8X8X",
"8X8X8X8X8X8X8X8X8X8X8X8X8X8X8X8X8X8X8X8X8X8X5 4 D f U U U U J J h f Y X.( ,.a.d.d.d.h.h.d.%.6 ; L 8X8X8X8X8X8X8X8X8X8X8X8X8X8X8X8X8X8X8X8X",
"8X8X8X8X8X8X8X8X8X8X8X8X8X8X8X8X8X8X8X8X8X8X8X> i F U J U J J F f J +.@X^.i Z a.p.p.d.z.s.S ; & 8X8X8X8X8X8X8X8X8X8X8X8X8X8X8X8X8X8X8X8X8X",
"8X8X8X8X8X8X8X8X8X8X8X8X8X8X8X8X8X8X8X8X8X8X8X8X4 D F J J J F F g F J..X).t H 6.<.,.>.<.<.E q 8X8X8X8X8X8X8X8X8X8X8X8X8X8X8X8X8X8X8X8X8X8X",
"8X8X8X8X8X8X8X8X8X8X8X8X8X8X8X8X8X8X8X8X8X8X8X8X8X> D F F h F F D G q.T.r.r H t.>.M G S 8.G 8X8X8X8X8X8X8X8X8X8X8X8X8X8X8X8X8X8X8X8X8X8X8X",
"8X8X8X8X8X8X8X8X8X8X8X8X8X8X8X8X8X8X8X8X8X8X8X8X8X8X3 a J f I I i f *.g.:.s H <.1.i 0 R Z.8X8X8X8X8X8X8X8X8X8X8X8X8X8X8X8X8X8X8X8X8X8X8X8X",
"8X8X8X8X8X8X8X8X8X8X8X8X8X8X8X8X8X8X8X8X8X8X8X8X8X8X8X: u F 8.3.n d =.g.>.s a *./ d 0 # 8X8X8X8X8X8X8X8X8X8X8X8X8X8X8X8X8X8X8X8X8X8X8X8X8X",
"8X8X8X8X8X8X8X8X8X8X8X8X8X8X8X8X8X8X8X8X8X8X8X8X8X8X8X8X0 I 5.t.A y &.s.:.t j j j x t 8X8X8X8X8X8X8X8X8X8X8X8X8X8X8X8X8X8X8X8X8X8X8X8X8X8X",
"8X8X8X8X8X8X8X8X8X8X8X8X8X8X8X8X8X8X8X8X8X8X8X8X8X8X8X5 Z ;.i.y.S 0 N 2./ t j j x c d 3 8X8X8X8X8X8X8X8X8X8X8X8X8X8X8X8X8X8X8X8X8X8X8X8X8X",
"8X8X8X8X8X8X8X8X8X8X8X8X8X8X8X8X8X8X8X8X8X8X8X8X8X8X9 E 1.d.f.t.Z 8 t H d t j T U c h p Y 8X8X8X8X8X8X8X8X8X8X8X8X8X8X8X8X8X8X8X8X8X8X8X8X",
"8X8X8X8X8X8X8X8X8X8X8X8X8X8X8X8X8X8X8X8X8X8X8X8X8X8Xr C s.b.c.;.g w H ;.C r J 0.;.f h d J 8X8X8X8X8X8X8X8X8X8X8X8X8X8X8X8X8X8X8X8X8X8X8X8X",
"8X8X8X8X8X8X8X8X8X8X8X8X8X8X8X8X8X8X8X8X8X8X8X8X8X8X9 C s.s.9.c e d *.l.e.g P k.k.M d p H 8X8X8X8X8X8X8X8X8X8X8X8X8X8X8X8X8X8X8X8X8X8X8X8X",
"8X8X8X8X8X8X8X8X8X8X8X8X8X8X8X8X8X8X8X8X8X8X8X8X8X8Xr N 2.2.R z _ ..S.R.U.F.A.v.7.a d p K 8X8X8X8X8X8X8X8X8X8X8X8X8X8X8X8X8X8X8X8X8X8X8X8X",
"8X8X8X8X8X8X8X8X8X8X8X8X8X8X8X8X8X8X8X8X8X8X8X8X8X8X2 H I F x _ O.OX1X7X7X4XOXl.-.f k s L 8X8X8X8X8X8X8X8X8X8X8X8X8X8X8X8X8X8X8X8X8X8X8X8X",
"8X8X8X8X8X8X8X8X8X8X8X8X8X8X8X8X8X8X8X8X8X8X8X8X8X8X> D F k X.#.Q.OX2X5X7X7X&Xr.2.C W p Q   8X8X8X8X8X8X8X8X8X8X8X8X8X8X8X8X8X8X8X8X8X8X8X",
"8X8X8X8X8X8X8X8X8X8X8X8X8X8X8X8X8X8X8X8X8X8X8X8X8XX = p g ' XX<X_.W.:X5X7X7X&X5.t.b.y.m U   8X8X8X8X8X8X8X8X8X8X8X8X8X8X8X8X8X8X8X8X8X8X8X",
"8X8X8X8X8X8X8X8X8X8X8X8X8X8X8X8X8X8X8X8X8X8X8X8X8XX = 4 q ] #X7X*X(.*X5X7X7X;XK.C.M.y.A h   8X8X8X8X8X8X8X8X8X8X8X8X8X8X8X8X8X8X8X8X8X8X8X",
"8X8X8X8X8X8X8X8X8X8X8X8X8X8X8X8X8X8X8X8X8X8X8X8X8XX < q 9 ] XX4X3X:X7X7X7X7X4X;X].m.s.B c   8X8X8X8X8X8X8X8X8X8X8X8X8X8X8X8X8X8X8X8X8X8X8X",
"8X8X8X8X8X8X8X8X8X8X8X8X8X8X8X8X8X8X8X8X8X8X8X8X8Xo 1 4 D } {.4X5X4X<X#X:X7X7X7X;XV.<.m T   8X8X8X8X8X8X8X8X8X8X8X8X8X8X8X8X8X8X8X8X8X8X8X",
"8X8X8X8X8X8X8X8X8X8X8X8X8X8X8X8X8X8X8X8X8X8X8X8X8X$ 3 m :.B.|.4X5X4XXX{ ~.4X5X5X*XZ.E p Y   8X8X8X8X8X8X8X8X8X8X8X8X8X8X8X8X8X8X8X8X8X8X8X",
"8X8X8X8X8X8X8X8X8X8X8X8X8X8X8X8X8X8X8X8X8X8X8X8X8XX > B t.L.|.6X5X<X(.> X.3X7X<X{.[ y y L   8X8X8X8X8X8X8X8X8X8X8X8X8X8X8X8X8X8X8X8X8X8X8X",
"8X8X8X8X8X8X8X8X8X8X8X8X8X8X8X8X8X8X8X8X8X8X8X8X8X  X % A w.|.7X7X>X^.* ] <X*X_.X.r y u L   8X8X8X8X8X8X8X8X8X8X8X8X8X8X8X8X8X8X8X8X8X8X8X",
"8X8X8X8X8X8X8X8X8X8X8X8X8X8X8X8X8X8X8X8X8X8X8X8X8X8X8X. @ } %X4X1XOXP.* T $X#.l K ' T u Q   8X8X8X8X8X8X8X8X8X8X8X8X8X8X8X8X8X8X8X8X8X8X8X",
"8X8X8X8X8X8X8X8X8X8X8X8X8X8X8X8X8X8X8X8X8X8X8X8X8X8X8X. @ ! _.`.^.J.| + t ^.' ..P.`.(.' Q   8X8X8X8X8X8X8X8X8X8X8X8X8X8X8X8X8X8X8X8X8X8X8X",
"8X8X8X8X8X8X8X8X8X8X8X8X8X8X8X8X8X8X8X8X8X8X8X8X8X8X8X. 3 P , , , , @   + J H.@X2X7X,X^.p   8X8X8X8X8X8X8X8X8X8X8X8X8X8X8X8X8X8X8X8X8X8X8X",
"8X8X8X8X8X8X8X8X8X8X8X8X8X8X8X8X8X8X8X8X8X8X8X8X8X8X8X  o = @ @ @ o     . - R I.[.oX{.o.$   8X8X8X8X8X8X8X8X8X8X8X8X8X8X8X8X8X8X8X8X8X8X8X",
"8X8X8X8X8X8X8X8X8X8X8X8X8X8X8X8X8X8X8X8X8X8X8X8X8X8X8X8X8X          8X8X+ n < % < D p .   8X8X8X8X8X8X8X8X8X8X8X8X8X8X8X8X8X8X8X8X8X8X8X8X",
"8X8X8X8X8X8X8X8X8X8X8X8X8X8X8X8X8X8X8X8X8X8X8X8X8X8X8X8X8X8X8X8X8X8X8X8X. 3 2 @ o . . 8X8X8X8X8X8X8X8X8X8X8X8X8X8X8X8X8X8X8X8X8X8X8X8X8X8X",
"8X8X8X8X8X8X8X8X8X8X8X8X8X8X8X8X8X8X8X8X8X8X8X8X8X8X8X8X8X8X8X8X8X8X8X8X8X          8X8X8X8X8X8X8X8X8X8X8X8X8X8X8X8X8X8X8X8X8X8X8X8X8X8X8X",
"8X8X8X8X8X8X8X8X8X8X8X8X8X8X8X8X8X8X8X8X8X8X8X8X8X8X8X8X8X8X8X8X8X8X8X8X8X8X8X8X8X8X8X8X8X8X8X8X8X8X8X8X8X8X8X8X8X8X8X8X8X8X8X8X8X8X8X8X8X"
};
