/* XPM */
static char *result[] = {
/* columns rows colors chars-per-pixel */
"69 69 215 2 ",
"   c #020101",
".  c #0A0504",
"X  c #0C0805",
"o  c #0E0B0C",
"O  c #0D050C",
"+  c #120707",
"@  c #100B06",
"#  c #130C0B",
"$  c #150A0B",
"%  c #1E120E",
"&  c #0D0D12",
"*  c #140D12",
"=  c #1B1213",
"-  c #19131A",
";  c #22110F",
":  c #28110E",
">  c #3D1C0D",
",  c #231413",
"<  c #2D1B17",
"1  c #24171B",
"2  c #241B1A",
"3  c #2C1D1B",
"4  c #231916",
"5  c #351A15",
"6  c #321E1D",
"7  c #3D1E17",
"8  c #2B211C",
"9  c #24201F",
"0  c #3A2316",
"q  c #33231E",
"w  c #3D261C",
"e  c #3C2B1D",
"r  c #37291B",
"t  c #171728",
"y  c #2A1D28",
"u  c #251A24",
"i  c #371E24",
"p  c #1C2127",
"a  c #2C2324",
"s  c #262329",
"d  c #2C2329",
"f  c #2A2A2D",
"g  c #2A2623",
"h  c #342524",
"j  c #3B2522",
"k  c #352925",
"l  c #3C2A24",
"z  c #332B2C",
"x  c #3C2D2B",
"c  c #36242B",
"v  c #3E312D",
"b  c #2C2C33",
"n  c #322D32",
"m  c #3A2933",
"M  c #3D3331",
"N  c #373337",
"B  c #542C0E",
"V  c #42241A",
"C  c #432C1E",
"Z  c #4E2C1A",
"A  c #472718",
"S  c #542918",
"D  c #45321F",
"F  c #522B11",
"G  c #753B0F",
"H  c #673618",
"J  c #763B15",
"K  c #792E09",
"L  c #432C24",
"P  c #422D2B",
"I  c #432424",
"U  c #443225",
"Y  c #4B3326",
"T  c #41322E",
"R  c #4B322C",
"E  c #4F392F",
"W  c #583827",
"Q  c #423431",
"!  c #453937",
"~  c #493B39",
"^  c #573E35",
"/  c #5C3730",
"(  c #703722",
")  c #4F413E",
"_  c #51423C",
"`  c #694025",
"'  c #794322",
"]  c #774225",
"[  c #704E35",
"{  c #4C4545",
"}  c #5B4E4B",
"|  c #564845",
" . c #5A5050",
".. c #694A41",
"X. c #68544E",
"o. c #725D51",
"O. c #70574F",
"+. c #6A625F",
"@. c #74645C",
"#. c #7B6B64",
"$. c #736463",
"%. c #7D726D",
"&. c #833C0C",
"*. c #923E16",
"=. c #824214",
"-. c #834219",
";. c #894A15",
":. c #964B1A",
">. c #9B5115",
",. c #98541C",
"<. c #8A450F",
"1. c #AB540B",
"2. c #A4510E",
"3. c #B7560C",
"4. c #A34E13",
"5. c #AC5713",
"6. c #A65815",
"7. c #B4510E",
"8. c #BD620C",
"9. c #834B2B",
"0. c #844922",
"q. c #984E20",
"w. c #935322",
"e. c #B66837",
"r. c #A86526",
"t. c #C85C06",
"y. c #D85A04",
"u. c #D75E18",
"i. c #CD6305",
"p. c #CC610D",
"a. c #CD6A0E",
"s. c #CE6A04",
"d. c #D46B06",
"f. c #D4610A",
"g. c #D46D0D",
"h. c #DA6C0D",
"j. c #DB6604",
"k. c #D5720C",
"l. c #D9710D",
"z. c #D87107",
"x. c #D46E11",
"c. c #DA6D12",
"v. c #D26515",
"b. c #C86E1B",
"n. c #E97A02",
"m. c #E57306",
"M. c #E17014",
"N. c #EF6F06",
"B. c #DE6928",
"V. c #DA7E31",
"C. c #E07C3B",
"Z. c #816348",
"A. c #AF7541",
"S. c #906F65",
"D. c #847169",
"F. c #867D7D",
"G. c #907B73",
"H. c #947B6E",
"J. c #A37F6D",
"K. c #ED8A34",
"L. c #AD835C",
"P. c #8B807B",
"I. c #BA8F71",
"U. c #DC914E",
"Y. c #DD8944",
"T. c #E29343",
"R. c #E2A25D",
"E. c #C89060",
"W. c #D5986B",
"Q. c #DFA168",
"!. c #CDA273",
"~. c #9C8B87",
"^. c #979290",
"/. c #8A8583",
"(. c #A59290",
"). c #AA9991",
"_. c #B9A998",
"`. c #A9A399",
"'. c #A89EA0",
"]. c #B9B3AB",
"[. c #E1B899",
"{. c #C2ACA1",
"}. c #C3B9AE",
"|. c #C6B8B6",
" X c #D0BEB0",
".X c #CFC3BC",
"XX c #D0C0B4",
"oX c #E3CEBF",
"OX c #F1DDBD",
"+X c #F3E0BF",
"@X c #CABFC2",
"#X c #DAD2CB",
"$X c #D4CEC9",
"%X c #E0CDC2",
"&X c #E5DCD1",
"*X c #E4DEDD",
"=X c #EAD6D4",
"-X c #F0DBCA",
";X c #DFE3D9",
":X c #EBE3DA",
">X c #E9E3D8",
",X c #F1E3DB",
"<X c #F1E5C8",
"1X c #EAE5E1",
"2X c #E9E7E5",
"3X c #F2EEE7",
"4X c #F3EAE6",
"5X c #F7F3EF",
"6X c #F5F5F2",
"7X c #FAF6F5",
"8X c #F5FBF5",
"9X c #FCF9F6",
"0X c #F7FBFC",
"qX c #FBFBF9",
"wX c None",
/* pixels */
"wXwXwXwXwXwXwXwXwXwXwXwXwXwXwXwXwXwXwXwXwXwXwXwXwXwXwXwXwXwXwXwXwXwXwXwXwXwXwXwXwXwXwXwXwXwXwXwXwXwXwXwXwXwXwXwXwXwXwXwXwXwXwXwXwXwXwXwXwX",
"wXwXwXwXwXwXwXwXwXwXwXwXwXwXwXwXwXwXwXwXwXwXwXwXwXwXwXwXwXwXwXwXwXwXwXwXwXwXwXwXwXwXwXwXwXwXwXwXwXwXwXwXwXwXwXwXwXwXwXwXwXwXwXwXwXwXwXwXwX",
"wXwXwXwXwXwXwXwXwXwXwXwXwXwXwXwXwXwXwXwXwXwXwXwXwXwXwXwXwXwXwXwXwXwXwXwXwXwXwXwXwXwXwXwXwXwXwXwXwXwXwXwXwXwXwXwXwXwXwXwXwXwXwXwXwXwXwXwXwX",
"wXwXwXwXwXwXwXwXwXwXwXwXwXwXwXwXwXwXwXwXwXwXwXwXwXwXwXwXwXwXwXwXwXwXwXwXwXwXwXwXwXwXwXwXwXwXwXwXwXwXwXwXwXwXwXwXwXwXwXwXwXwXwXwXwXwXwXwXwX",
"wXwXwXwXwXwXwXwXwXwXwXwXwXwXwXwXwXwXwXwXwXwXwXwXwXwXwXwXwXwXwXwXwXwXwXwXwXwXwXwXwXwXwXwXwXwXwXwXwXwXwXwXwXwXwXwXwXwXwXwXwXwXwXwXwXwXwXwXwX",
"wXwXwXwXwXwXwXwXwXwXwXwXwXwXwXwXwXwXwXwXwXwXwXwXwXwXwXwXwXwXwXwXwXwXwXwXwXwXwXwXwXwXwXwXwXwXwXwXwXwXwXwXwXwXwXwXwXwXwXwXwXwXwXwXwXwXwXwXwX",
"wXwXwXwXwXwXwXwXwXwXwXwXwXwXwXwXwXwXwXwXwXwXwXwXwXwXwXwXwXwXwXwXwXwXwXwXwXwXwXwXwXwXwXwXwXwXwXwXwXwXwXwXwXwXwXwXwXwXwXwXwXwXwXwXwXwXwXwXwX",
"wXwXwXwXwXwXwXwXwXwXwXwXwXwXwXwXwXwXwXwXwXwXwXwXwXwXwXwXwXwXwXwXwXwXwXwXwXwXwXwXwXwXwXwXwXwXwXwXwXwXwXwXwXwXwXwXwXwXwXwXwXwXwXwXwXwXwXwXwX",
"wXwXwXwXwXwXwXwXwXwXwXwXwXwXwXwXwXwXwXwXwXwXwXwXwXwXwXwXwXwXwXwXwXwXwXwXwXwXwXwXwXwXwXwXwXwXwXwXwXwXwXwXwXwXwXwXwXwXwXwXwXwXwXwXwXwXwXwXwX",
"wXwXwXwXwXwXwXwXwXwXwXwXwXwXwXwXwXwXwXwXwXwXwXwXwXwXwXwXwXwXwXwXwXwXwXwXwXwXwXwXwXwXwXwXwXwXwXwXwXwXwXwXwXwXwXwXwXwXwXwXwXwXwXwXwXwXwXwXwX",
"wXwXwXwXwXwXwXwXwXwXwXwXwXwXwXwXwXwXwXwXwXwXwXwXwXwXwXwXwXwXwXwXwXwXwXwXwXwXwXwXwXwXwXwXwXwXwXwXwXwXwXwXwXwXwXwXwXwXwXwXwXwXwXwXwXwXwXwXwX",
"wXwXwXwXwXwXwXwXwXwXwXwXwXwXwXwXwXwXwXwXwXwXwXwXwXwXwXwXwXwXwXwXwXwXwXwXwXwXwXwXwXwXwXwXwXwXwXwXwXwXwXwXwXwXwXwXwXwXwXwXwXwXwXwXwXwXwXwXwX",
"wXwXwXwXwXwXwXwXwXwXwXwXwXwXwXwXwXwXwXwXwXwXwXwXwXwXwXwXwXwXwXwXwXwXwXwXwXwXwXwXwXwXwXwXwXwXwXwXwXwXwXwXwXwXwXwXwXwXwXwXwXwXwXwXwXwXwXwXwX",
"wXwXwXwXwXwXwXwXwXwXwXwXwXwXwXwXwXwXwXwXwXwXwXwXwXwXwXwXwXwXwXwXwXwXwXwXwXwXwXwXwXwXwXwXwXwXwXwXwXwXwXwXwXwXwXwXwXwXwXwXwXwXwXwXwXwXwXwXwX",
"wXwXwXwXwXwXwXwXwXwXwXwXwXwXwXwXwXwXwXwXwXwXwXwXwXwXwXwXwXwXwXwXwXwXwXwXwXwXwXwXwXwXwXwXwXwXwXwXwXwXwXwXwXwXwXwXwXwXwXwXwXwXwXwXwXwXwXwXwX",
"wXwXwXwXwXwXwXwXwXwXwXwXwXwXwXwXwXwXwXwXwXwXwXwXwXwXwXwXwXwXwXwXwXwXwXwXwXwXwXwXwXwXwXwXwXwXwXwXwXwXwXwXwXwXwXwXwXwXwXwXwXwXwXwXwXwXwXwXwX",
"wXwXwXwXwXwXwXwXwXwXwXwXwXwXwXwXwXwXwXwXwXwXwXwXwXwXwXwXwXwXwXwXwXwXwXwXwXwXwXwXwXwXwXwXwXwXwXwXwXwXwXwXwXwXwXwXwXwXwXwXwXwXwXwXwXwXwXwXwX",
"wXwXwXwXwXwXwXwXwXwXwXwXwXwXwXwXwXwXwXwXwXwXwXwXwXwXwXwXwXwXwXwXwXwXwXwXwXwXwXwXwXwXwXwXwXwXwXwXwXwXwXwXwXwXwXwXwXwXwXwXwXwXwXwXwXwXwXwXwX",
"wXwXwXwXwXwXwXwXwXwXwXwXwXwXwXwXwXwXwXwXwXwXwXwXwXwXwXwXwXwXwXwXwXwXwXwXwXwXwXwXwXwXwXwXwXwXwXwXwXwXwXwXwXwXwXwXwXwXwXwXwXwXwXwXwXwXwXwXwX",
"wXwXwXwXwXwXwXwXwXwXwXwXwXwXwXwXwXwXwXwXwXwXwXwXwXwXwXwXwXwXwXwXwXwXwXwXwXwXwXwXwXwXwXwXwXwXwXwXwXwXwXwXwXwXwXwXwXwXwXwXwXwXwXwXwXwXwXwXwX",
"wXwXwXwXwXwXwXwXwXwXwXwXwXwXwXwXwXwXwXwXwXwXwXwXwXwXwXwXwXwXwXwXwXwXwXwXwXwXwXwXwXwXwXwXwXwXwXwXwXwXwXwXwXwXwXwXwXwXwXwXwXwXwXwXwXwXwXwXwX",
"wXwXwXwXwXwXwXwXwXwXwXwXwXwXwXwXwXwXwXwXwXwXwXwXwXwXwXwXwXwXwXwXwXwXwXwXwXwXwXwXwXwXwXwXwXwXwXwXwXwXwXwXwXwXwXwXwXwXwXwXwXwXwXwXwXwXwXwXwX",
"wXwXwXwXwXwXwXwXwXwXwXwXwXwXwXwXwXwXwXwXwXwXwXwXwXwXwXwXwXwXwXwXwXwXwXwXwXwXwXwXwXwXwXwXwXwXwXwXwXwXwXwXwXwXwXwXwXwXwXwXwXwXwXwXwXwXwXwXwX",
"wXwXwXwXwXwXwXwXwXwXwXwXwXwXwXwXwXwXwXwXwXwXwXwXwXwXwXwXwXwXwXwXwXwXwXwXwXwXwXwXwXwXwXwXwXwXwXwXwXwXwXwXwXwXwXwXwXwXwXwXwXwXwXwXwXwXwXwXwX",
"wXwXwXwXwXwXwXwXwXwXwXwXwXwXwXwXwXwXwXwXwXwXwXwXwXwXwXwXwXwXwXwXwXwXwXwXwXwXwXwXwXwXwXwXwXwXwXwXwXwXwXwXwXwXwXwXwXwXwXwXwXwXwXwXwXwXwXwXwX",
"wXwXwXwXwXwXwXwXwXwXwXwXwXwXwXwXwXwXwXwXwXwXwXwXwXwXwXwXwXwXwXwXwXwXwXwXwXwXwXwXwXwXwXwXwXwXwXwXwXwXwXwXwXwXwXwXwXwXwXwXwXwXwXwXwXwXwXwXwX",
"wXwXwXwXwXwXwXwXwXwXwXwXwXwXwXwXwXwXwXwXwXwXwXwXwXwX- < h 4 wXwXwXwXwXwXwXwXwXwXwX= k k Y wXwXwXwXwXwXwXwXwXwXwXwXwXwXwXwXwXwXwXwXwXwXwXwX",
"wXwXwXwXwXwXwXwXwXwXwXwXwXwXwXwXwXwXwXwXwXwXwXwXwXwX- q #.#.z wXwXwXwXwXwXwXwXwXwX} #.M E wXwXwXwXwXwXwXwXwXwXwXwXwXwXwXwXwXwXwXwXwXwXwXwX",
"wXwXwXwXwXwXwXwXwXwXwXwXwXwXwXwXwXwXwXwXwXwXwXwXwXwX% Q #X&XD.+ wXwXwXwXwXwXwX& _ XX&X@.8 wXwXwXwXwXwXwXwXwXwXwXwXwXwXwXwXwXwXwXwXwXwXwXwX",
"wXwXwXwXwXwXwXwXwXwXwXwXwXwXwXwXwXwXwXwXwXwXwXwXwXwX; ~ >X7X].T 2 wXwXwXwXwX& v (.qX>X#.9 wXwXwXwXwXwXwXwXwXwXwXwXwXwXwXwXwXwXwXwXwXwXwXwX",
"wXwXwXwXwXwXwXwXwXwXwXwXwXwXwXwXwXwXwXwXwXwXwXwXwXwX% _ 1X0X&X~.X.- - # # = N ~.,X8X>X@.2 wXwXwXwXwXwXwXwXwXwXwXwXwXwXwXwXwXwXwXwXwXwXwXwX",
"wXwXwXwXwXwXwXwXwXwXwXwXwXwXwXwXwXwXwXwXwXwXwXwXwXwX, ~ $X2X$X`.$.a g g g Y Z.[.-X:X#Xo.8 wXwXwXwXwXwXwXwXwXwXwXwXwXwXwXwXwXwXwXwXwXwXwXwX",
"wXwXwXwXwXwXwXwXwXwXwXwXwXwXwXwXwXwXwXwXwXwXwXwXwXwX4 x F./.%.X.Q z n n E :.b.V.U.Q.W.[ g wXwXwXwXwXwXwXwXwXwXwXwXwXwXwXwXwXwXwXwXwXwXwXwX",
"wXwXwXwXwXwXwXwXwXwXwXwXwXwXwXwXwXwXwXwXwXwXwXwXwXwX6 x x v v x v N M E q.M.h.d.g.d.t.J k wXwXwXwXwXwXwXwXwXwXwXwXwXwXwXwXwXwXwXwXwXwXwXwX",
"wXwXwXwXwXwXwXwXwXwXwXwXwXwXwXwXwXwXwXwXwXwXwXwXwX3 k v v Q Q v M Q ^ w.v.c.x.x.x.g.g.7.' > wXwXwXwXwXwXwXwXwXwXwXwXwXwXwXwXwXwXwXwXwXwXwX",
"wXwXwXwXwXwXwXwXwXwXwXwXwXwXwXwXwXwXwXwXwXwXq r k v Q Q M Q Q Q Q Q 9.c.c.x.x.x.g.x.g.d.3.G - 3 8 wXwXwXwXwXwXwXwXwXwXwXwXwXwXwXwXwXwXwXwX",
"wXwXwXwXwXwXwXwXwXwXwXwXwXwXwXwXwXwXwXwXwXwX< q x v M Q Q Q Q Q Q Q ` 5.a.g.g.x.g.x.k.c.a.&.t 2 q wXwXwXwXwXwXwXwXwXwXwXwXwXwXwXwXwXwXwXwX",
"wXwXwXwXwXwXwXwXwXwXwXwXwXwXwXwXwXwXwXwXwXwXwX- k v M Q Q Q T Q Q T N E ,.g.g.g.x.l.x.l.g.&.t o wXwXwXwXwXwXwXwXwXwXwXwXwXwXwXwXwXwXwXwXwX",
"wXwXwXwXwXwXwXwXwXwXwXwXwXwXwXwXwXwXwXwXwXwXwXq T M M Q Q Q Q Q T Q N z Y >.a.l.x.x.l.l.d.<.t 1 wXwXwXwXwXwXwXwXwXwXwXwXwXwXwXwXwXwXwXwXwX",
"wXwXwXwXwXwXwXwXwXwXwXwXwXwXwXwXwXwXwXwXwXwXw w P v v Q T Q Q T T T x f s h w.l.g.k.l.c.d.<.t a 0 wXwXwXwXwXwXwXwXwXwXwXwXwXwXwXwXwXwXwXwX",
"wXwXwXwXwXwXwXwXwXwXwXwXwXwXwXwXwXwXwXwXwXwX0 w x P Q M T T T T v T ) +.{ t Z k.k.g.k.h.z.&.t 1 I wXwXwXwXwXwXwXwXwXwXwXwXwXwXwXwXwXwXwXwX",
"wXwXwXwXwXwXwXwXwXwXwXwXwXwXwXwXwXwXwXwXwXwXwX2 j P P T x T T T v Q D.:X`.t C s.s.a.g.g.f.J h , wXwXwXwXwXwXwXwXwXwXwXwXwXwXwXwXwXwXwXwXwX",
"wXwXwXwXwXwXwXwXwXwXwXwXwXwXwXwXwXwXwXwXwXwXwXwXh L P P x v x x x Q S.+X_.g L d.8.6.1.3.3.H L wXwXwXwXwXwXwXwXwXwXwXwXwXwXwXwXwXwXwXwXwXwX",
"wXwXwXwXwXwXwXwXwXwXwXwXwXwXwXwXwXwXwXwXwXwXwXwXwX5 l x v v x P l x 9.T.e.t D i.1.Z L J ' I wXwXwXwXwXwXwXwXwXwXwXwXwXwXwXwXwXwXwXwXwXwXwX",
"wXwXwXwXwXwXwXwXwXwXwXwXwXwXwXwXwXwXwXwXwXwXwXwXwXwX8 l x x R / I z &.j.1.y D t.2.h u / O.wXwXwXwXwXwXwXwXwXwXwXwXwXwXwXwXwXwXwXwXwXwXwXwX",
"wXwXwXwXwXwXwXwXwXwXwXwXwXwXwXwXwXwXwXwXwXwXwXwXwXwXwX2 c Q 0.5.Z z -.j.1.y L 0.] z y * wXwXwXwXwXwXwXwXwXwXwXwXwXwXwXwXwXwXwXwXwXwXwXwXwX",
"wXwXwXwXwXwXwXwXwXwXwXwXwXwXwXwXwXwXwXwXwXwXwXwXwXwXwXwX9 W 3.t.H g -.j.4.d f b b z d = wXwXwXwXwXwXwXwXwXwXwXwXwXwXwXwXwXwXwXwXwXwXwXwXwX",
"wXwXwXwXwXwXwXwXwXwXwXwXwXwXwXwXwXwXwXwXwXwXwXwXwXwXwX0 H >.p.i.G p W >.' d b b n v v h wXwXwXwXwXwXwXwXwXwXwXwXwXwXwXwXwXwXwXwXwXwXwXwXwX",
"wXwXwXwXwXwXwXwXwXwXwXwXwXwXwXwXwXwXwXwXwXwXwXwXwXwX= H 4.g.h.t.H t s L c d n ~ Q v x k v wXwXwXwXwXwXwXwXwXwXwXwXwXwXwXwXwXwXwXwXwXwXwXwX",
"wXwXwXwXwXwXwXwXwXwXwXwXwXwXwXwXwXwXwXwXwXwXwXwXwXwX$ B p.m.t.4.e p Y ,.` a P 6.,.P x k k wXwXwXwXwXwXwXwXwXwXwXwXwXwXwXwXwXwXwXwXwXwXwXwX",
"wXwXwXwXwXwXwXwXwXwXwXwXwXwXwXwXwXwXwXwXwXwXwXwXwXwX= B t.f.:.v s v 9.b.r.1 S n.z.Z z a r wXwXwXwXwXwXwXwXwXwXwXwXwXwXwXwXwXwXwXwXwXwXwXwX",
"wXwXwXwXwXwXwXwXwXwXwXwXwXwXwXwXwXwXwXwXwXwXwXwXwXwX* A >.:.Y b { H.I.!.L., F n.k.C z 3 l wXwXwXwXwXwXwXwXwXwXwXwXwXwXwXwXwXwXwXwXwXwXwXwX",
"wXwXwXwXwXwXwXwXwXwXwXwXwXwXwXwXwXwXwXwXwXwXwXwXwXwX# 1 R P f ! '.7XqX6X}.: F n.k.I n a l wXwXwXwXwXwXwXwXwXwXwXwXwXwXwXwXwXwXwXwXwXwXwXwX",
"wXwXwXwXwXwXwXwXwXwXwXwXwXwXwXwXwXwXwXwXwXwXwXwXwXwX+ 3 m c m $.>XqX8X6X|.> J m.k.( W j e wXwXwXwXwXwXwXwXwXwXwXwXwXwXwXwXwXwXwXwXwXwXwXwX",
"wXwXwXwXwXwXwXwXwXwXwXwXwXwXwXwXwXwXwXwXwXwXwXwXwX  + 3 c i } |.9XqXqX6X XK u.m.N.N.u.J r   wXwXwXwXwXwXwXwXwXwXwXwXwXwXwXwXwXwXwXwXwXwXwX",
"wXwXwXwXwXwXwXwXwXwXwXwXwXwXwXwXwXwXwXwXwXwXwXwXwX  + 5 i c F.qX9X9XqX7X%Xe.V.Y.K.m.y.-.g . wXwXwXwXwXwXwXwXwXwXwXwXwXwXwXwXwXwXwXwXwXwXwX",
"wXwXwXwXwXwXwXwXwXwXwXwXwXwXwXwXwXwXwXwXwXwXwXwXwX  $ 5 i ~ @X9X9X9XqXqX6X=X:X6XOXM.y.-.h   wXwXwXwXwXwXwXwXwXwXwXwXwXwXwXwXwXwXwXwXwXwXwX",
"wXwXwXwXwXwXwXwXwXwXwXwXwXwXwXwXwXwXwXwXwXwXwXwXwX. % 7 V ..=XqX9X6X>X*X2XqX0X0X&XB.y.=.a   wXwXwXwXwXwXwXwXwXwXwXwXwXwXwXwXwXwXwXwXwXwXwX",
"wXwXwXwXwXwXwXwXwXwXwXwXwXwXwXwXwXwXwXwXwXwXwXwXwXO 4 > &.e.,XqX5X$XG.$.^.qXqXqX=XB.t.;.l   wXwXwXwXwXwXwXwXwXwXwXwXwXwXwXwXwXwXwXwXwXwXwX",
"wXwXwXwXwXwXwXwXwXwXwXwXwXwXwXwXwXwXwXwXwXwXwXwXwXo 1 > 5.R.3X0X1X~.P ,  .qX0X8XoXu.1.;.q   wXwXwXwXwXwXwXwXwXwXwXwXwXwXwXwXwXwXwXwXwXwXwX",
"wXwXwXwXwXwXwXwXwXwXwXwXwXwXwXwXwXwXwXwXwXwXwXwXwX& a Z E.<X0XqX3X X#.,  .qX2X}.J.*.S 0 O   wXwXwXwXwXwXwXwXwXwXwXwXwXwXwXwXwXwXwXwXwXwXwX",
"wXwXwXwXwXwXwXwXwXwXwXwXwXwXwXwXwXwXwXwXwXwXwXwXwXo u ^ %XqXqXqX3X{.O.%  .4X~.6 i w 1 . wXwXwXwXwXwXwXwXwXwXwXwXwXwXwXwXwXwXwXwXwXwXwXwXwX",
"wXwXwXwXwXwXwXwXwXwXwXwXwXwXwXwXwXwXwXwXwXwXwXwXwXX 4 _ *XqX0X3X.XG.| # ~ ).I 5 < 6 6 . wXwXwXwXwXwXwXwXwXwXwXwXwXwXwXwXwXwXwXwXwXwXwXwXwX",
"wXwXwXwXwXwXwXwXwXwXwXwXwXwXwXwXwXwXwXwXwXwXwXwXwX. = | 1X0X2X|.X., X . # R V V C w L X wXwXwXwXwXwXwXwXwXwXwXwXwXwXwXwXwXwXwXwXwXwXwXwXwX",
"wXwXwXwXwXwXwXwXwXwXwXwXwXwXwXwXwXwXwXwXwXwXwXwXwX  X !  X$X(...V 0 @     X , 4 , , 4   wXwXwXwXwXwXwXwXwXwXwXwXwXwXwXwXwXwXwXwXwXwXwXwXwX",
"wXwXwXwXwXwXwXwXwXwXwXwXwXwXwXwXwXwXwXwXwXwXwXwXwXwXwX= ! Q 7 V A C #   wX          wXwXwXwXwXwXwXwXwXwXwXwXwXwXwXwXwXwXwXwXwXwXwXwXwXwXwX",
"wXwXwXwXwXwXwXwXwXwXwXwXwXwXwXwXwXwXwXwXwXwXwXwXwXwXwXwX. o % 5 e L @ wXwXwXwXwXwXwXwXwXwXwXwXwXwXwXwXwXwXwXwXwXwXwXwXwXwXwXwXwXwXwXwXwXwX",
"wXwXwXwXwXwXwXwXwXwXwXwXwXwXwXwXwXwXwXwXwXwXwXwXwXwXwXwXwX          wXwXwXwXwXwXwXwXwXwXwXwXwXwXwXwXwXwXwXwXwXwXwXwXwXwXwXwXwXwXwXwXwXwXwX",
"wXwXwXwXwXwXwXwXwXwXwXwXwXwXwXwXwXwXwXwXwXwXwXwXwXwXwXwXwXwXwXwXwXwXwXwXwXwXwXwXwXwXwXwXwXwXwXwXwXwXwXwXwXwXwXwXwXwXwXwXwXwXwXwXwXwXwXwXwX"
};
