/* XPM */
static char *result[] = {
/* columns rows colors chars-per-pixel */
"69 69 218 2 ",
"   c #030101",
".  c #0A0404",
"X  c #0B0806",
"o  c #0D080B",
"O  c #080508",
"+  c #140806",
"@  c #130B0A",
"#  c #1A0E0D",
"$  c #150706",
"%  c #1D120D",
"&  c #120D13",
"*  c #1D1414",
"=  c #1D141A",
"-  c #1A1618",
";  c #29130F",
":  c #221413",
">  c #251B15",
",  c #2D1B16",
"<  c #251D1C",
"1  c #2A1C1A",
"2  c #211519",
"3  c #341E16",
"4  c #321C1C",
"5  c #2C211A",
"6  c #34231C",
"7  c #39231C",
"8  c #372C1A",
"9  c #3C2B1E",
"0  c #372015",
"q  c #1B192B",
"w  c #261C20",
"e  c #2B1D22",
"r  c #281F2B",
"t  c #1E272B",
"y  c #2D2223",
"u  c #2C2A2B",
"i  c #262629",
"p  c #352522",
"a  c #3A2523",
"s  c #342925",
"d  c #3B2B24",
"f  c #33272A",
"g  c #38262B",
"h  c #342B2C",
"j  c #3C2D2B",
"k  c #3E312D",
"l  c #323026",
"z  c #2D2C32",
"x  c #342D33",
"c  c #3B2D31",
"v  c #352C3A",
"b  c #3D3232",
"n  c #373335",
"m  c #2B3027",
"M  c #4A1D0E",
"N  c #481E15",
"B  c #4E240D",
"V  c #4C2917",
"C  c #582D17",
"Z  c #41331E",
"A  c #5C361E",
"S  c #5C2D09",
"D  c #69350D",
"F  c #6B3314",
"G  c #6A3812",
"H  c #66371C",
"J  c #753B16",
"K  c #432F2C",
"L  c #4B2F2D",
"P  c #472C25",
"I  c #42322E",
"U  c #4E3427",
"Y  c #543722",
"T  c #543A25",
"R  c #533429",
"E  c #5F3A29",
"W  c #423431",
"Q  c #4A3633",
"!  c #483B36",
"~  c #493A36",
"^  c #573630",
"/  c #532B24",
"(  c #653E26",
")  c #653A27",
"_  c #6C401D",
"`  c #7A441B",
"'  c #4C423F",
"]  c #58443E",
"[  c #6A4528",
"{  c #734321",
"}  c #7F4720",
"|  c #463F42",
" . c #4F4042",
".. c #594B46",
"X. c #5C5050",
"o. c #624D4A",
"O. c #65524C",
"+. c #69534E",
"@. c #685C56",
"#. c #76584B",
"$. c #6B615F",
"%. c #6E6560",
"&. c #726462",
"*. c #79696B",
"=. c #7C716F",
"-. c #7E7371",
";. c #7C797A",
":. c #87380F",
">. c #8D4104",
",. c #9E540C",
"<. c #824A1E",
"1. c #8B4B1B",
"2. c #884617",
"3. c #9B4C13",
"4. c #934E10",
"5. c #8B5212",
"6. c #9C5319",
"7. c #97561B",
"8. c #9A4D0C",
"9. c #A54C0A",
"0. c #AB550C",
"q. c #B4560D",
"w. c #A85518",
"e. c #B65B14",
"r. c #BC6511",
"t. c #914F26",
"y. c #8A5421",
"u. c #935522",
"i. c #9C5523",
"p. c #9D5C22",
"a. c #985834",
"s. c #9D6226",
"d. c #CA5B0A",
"f. c #D75C01",
"g. c #D25205",
"h. c #C1460A",
"j. c #C6630B",
"k. c #C6690E",
"l. c #CD6B0D",
"z. c #CD6506",
"x. c #D46D0D",
"c. c #DB6D0B",
"v. c #D56707",
"b. c #D6700E",
"n. c #DA710D",
"m. c #DE7004",
"M. c #CE6C12",
"N. c #C76615",
"B. c #D26E11",
"V. c #D66711",
"C. c #E46A06",
"Z. c #EB7304",
"A. c #F47C02",
"S. c #D57422",
"D. c #DB6231",
"F. c #D67E3F",
"G. c #EA7D2E",
"H. c #E2763C",
"J. c #845942",
"K. c #9B6950",
"L. c #896D4E",
"P. c #826D66",
"I. c #86796E",
"U. c #867B77",
"Y. c #937E78",
"T. c #DF9029",
"R. c #E38931",
"E. c #AB875D",
"W. c #A58264",
"Q. c #DB8840",
"!. c #C18053",
"~. c #E08E4B",
"^. c #D99B66",
"/. c #E2A069",
"(. c #958B87",
"). c #9C9492",
"_. c #A6958C",
"`. c #A29990",
"'. c #B09C93",
"]. c #A68D84",
"[. c #BCA194",
"{. c #B6A69E",
"}. c #ADA39B",
"|. c #B8ABA6",
" X c #B6B1AE",
".X c #BBB0B0",
"XX c #B7AEB3",
"oX c #DFAF92",
"OX c #C8B0A0",
"+X c #D8BDAF",
"@X c #C9BCB4",
"#X c #E7D294",
"$X c #C7C0BF",
"%X c #E1CBB1",
"&X c #EDD5B6",
"*X c #CCC4C3",
"=X c #CFC8C6",
"-X c #D2CBC3",
";X c #D2CECA",
":X c #D9C8C1",
">X c #DBD1C7",
",X c #DBD6D3",
"<X c #DEDED9",
"1X c #E3DBCE",
"2X c #E2DDDC",
"3X c #E4DCD3",
"4X c #E4E1DD",
"5X c #EBE4DC",
"6X c #EDE4D3",
"7X c #ECEAE9",
"8X c #EDE8E7",
"9X c #F1EAE3",
"0X c #F4F2EA",
"qX c #F6FDF6",
"wX c #FCFAF6",
"eX c #FCFCF9",
"rX c #F8FBF8",
"tX c None",
/* pixels */
"tXtXtXtXtXtXtXtXtXtXtXtXtXtXtXtXtXtXtXtXtXtXtXtXtXtXtXtXtXtXtXtXtXtXtXtXtXtXtXtXtXtXtXtXtXtXtXtXtXtXtXtXtXtXtXtXtXtXtXtXtXtXtXtXtXtXtXtXtX",
"tXtXtXtXtXtXtXtXtXtXtXtXtXtXtXtXtXtXtXtXtXtXtXtXtXtXtXtXtXtXtXtXtXtXtXtXtXtXtXtXtXtXtXtXtXtXtXtXtXtXtXtXtXtXtXtXtXtXtXtXtXtXtXtXtXtXtXtXtX",
"tXtXtXtXtXtXtXtXtXtXtXtXtXtXtXtXtXtXtXtXtXtXtXtXtXtXtXtXtXtXtXtXtXtXtXtXtXtXtXtXtXtXtXtXtXtXtXtXtXtXtXtXtXtXtXtXtXtXtXtXtXtXtXtXtXtXtXtXtX",
"tXtXtXtXtXtXtXtXtXtXtXtXtXtXtXtXtXtXtXtXtXtXtXtXtXtXtXtXtXtXtXtXtXtXtXtXtXtXtXtXtXtXtXtXtXtXtXtXtXtXtXtXtXtXtXtXtXtXtXtXtXtXtXtXtXtXtXtXtX",
"tXtXtXtXtXtXtXtXtXtXtXtXtXtXtXtXtXtXtXtXtXtXtXtXtXtXtXtXtXtXtXtXtXtXtXtXtXtXtXtXtXtXtXtXtXtXtXtXtXtXtXtXtXtXtXtXtXtXtXtXtXtXtXtXtXtXtXtXtX",
"tXtXtXtXtXtXtXtXtXtXtXtXtXtXtXtXtXtXtXtXtXtXtXtXtXtXtXtXtXtXtXtXtXtXtXtXtXtXtXtXtXtXtXtXtXtXtXtXtXtXtXtXtXtXtXtXtXtXtXtXtXtXtXtXtXtXtXtXtX",
"tXtXtXtXtXtXtXtXtXtXtXtXtXtXtXtXtXtXtXtXtXtXtXtXtXtXtXtXtXtXtXtXtXtXtXtXtXtXtXtXtXtXtXtXtXtXtXtXtXtXtXtXtXtXtXtXtXtXtXtXtXtXtXtXtXtXtXtXtX",
"tXtXtXtXtXtXtXtXtXtXtXtXtXtXtXtXtXtXtXtXtXtXtXtXtXtXtXtXtXtXtXtXtXtXtXtXtXtXtXtXtXtXtXtXtXtXtXtXtXtXtXtXtXtXtXtXtXtXtXtXtXtXtXtXtXtXtXtXtX",
"tXtXtXtXtXtXtXtXtXtXtXtXtXtXtXtXtXtXtXtXtXtXtXtXtXtXtXtXtXtXtXtXtXtXtXtXtXtXtXtXtXtXtXtXtXtXtXtXtXtXtXtXtXtXtXtXtXtXtXtXtXtXtXtXtXtXtXtXtX",
"tXtXtXtXtXtXtXtXtXtXtXtXtXtXtXtXtXtXtXtXtXtXtXtXtXtXtXtXtXtXtXtXtXtXtXtXtXtXtXtXtXtXtXtXtXtXtXtXtXtXtXtXtXtXtXtXtXtXtXtXtXtXtXtXtXtXtXtXtX",
"tXtXtXtXtXtXtXtXtXtXtXtXtXtXtXtXtXtXtXtXtXtXtXtXtXtXtXtXtXtXtXtXtXtXtXtXtXtXtXtXtXtXtXtXtXtXtXtXtXtXtXtXtXtXtXtXtXtXtXtXtXtXtXtXtXtXtXtXtX",
"tXtXtXtXtXtXtXtXtXtXtXtXtXtXtXtXtXtXtXtXtXtXtXtXtXtXtXtXtXtXtXtXtXtXtXtXtXtXtXtXtXtXtXtXtXtXtXtXtXtXtXtXtXtXtXtXtXtXtXtXtXtXtXtXtXtXtXtXtX",
"tXtXtXtXtXtXtXtXtXtXtXtXtXtXtXtXtXtXtXtXtXtXtXtXtXtXtXtXtXtXtXtXtXtXtXtXtXtXtXtXtXtXtXtXtXtXtXtXtXtXtXtXtXtXtXtXtXtXtXtXtXtXtXtXtXtXtXtXtX",
"tXtXtXtXtXtXtXtXtXtXtXtXtXtXtXtXtXtXtXtXtXtXtXtXtXtXtXtXtXtXtXtXtXtXtXtXtXtXtXtXtXtXtXtXtXtXtXtXtXtXtXtXtXtXtXtXtXtXtXtXtXtXtXtXtXtXtXtXtX",
"tXtXtXtXtXtXtXtXtXtXtXtXtXtXtXtXtXtXtXtXtXtXtXtXtXtXtXtXtXtXtXtXtXtXtXtXtXtXtXtXtXtXtXtXtXtXtXtXtXtXtXtXtXtXtXtXtXtXtXtXtXtXtXtXtXtXtXtXtX",
"tXtXtXtXtXtXtXtXtXtXtXtXtXtXtXtXtXtXtXtXtXtXtXtXtXtXtXtXtXtXtXtXtXtXtXtXtXtXtXtXtXtXtXtXtXtXtXtXtXtXtXtXtXtXtXtXtXtXtXtXtXtXtXtXtXtXtXtXtX",
"tXtXtXtXtXtXtXtXtXtXtXtXtXtXtXtXtXtXtXtXtXtXtXtXtXtXtXtXtXtXtXtXtXtXtXtXtXtXtXtXtXtXtXtXtXtXtXtXtXtXtXtXtXtXtXtXtXtXtXtXtXtXtXtXtXtXtXtXtX",
"tXtXtXtXtXtXtXtXtXtXtXtXtXtXtXtXtXtXtXtXtXtXtXtXtXtXtXtXtXtXtXtXtXtXtXtXtXtXtXtXtXtXtXtXtXtXtXtXtXtXtXtXtXtXtXtXtXtXtXtXtXtXtXtXtXtXtXtXtX",
"tXtXtXtXtXtXtXtXtXtXtXtXtXtXtXtXtXtXtXtXtXtXtXtXtXtXtXtXtXtXtXtXtXtXtXtXtXtXtXtXtXtXtXtXtXtXtXtXtXtXtXtXtXtXtXtXtXtXtXtXtXtXtXtXtXtXtXtXtX",
"tXtXtXtXtXtXtXtXtXtXtXtXtXtXtXtXtXtXtXtXtXtXtXtXtXtXtXtXtXtXtXtXtXtXtXtXtXtXtXtXtXtXtXtXtXtXtXtXtXtXtXtXtXtXtXtXtXtXtXtXtXtXtXtXtXtXtXtXtX",
"tXtXtXtXtXtXtXtXtXtXtXtXtXtXtXtXtXtXtXtXtXtXtXtXtXtXtXtXtXtXtXtXtXtXtXtXtXtXtXtXtXtXtXtXtXtXtXtXtXtXtXtXtXtXtXtXtXtXtXtXtXtXtXtXtXtXtXtXtX",
"tXtXtXtXtXtXtXtXtXtXtXtXtXtXtXtXtXtXtXtXtXtXtXtXtXtXtXtXtXtXtXtXtXtXtXtXtXtXtXtXtXtXtXtXtXtXtXtXtXtXtXtXtXtXtXtXtXtXtXtXtXtXtXtXtXtXtXtXtX",
"tXtXtXtXtXtXtXtXtXtXtXtXtXtXtXtXtXtXtXtXtXtXtXtXtXtXtXtXtXtXtXtXtXtXtXtXtXtXtXtXtXtXtXtXtXtXtXtXtXtXtXtXtXtXtXtXtXtXtXtXtXtXtXtXtXtXtXtXtX",
"tXtXtXtXtXtXtXtXtXtXtXtXtXtXtXtXtXtXtXtXtXtXtXtXtXtXtXtXtXtXtXtXtXtXtXtXtXtXtXtXtXtXtXtXtXtXtXtXtXtXtXtXtXtXtXtXtXtXtXtXtXtXtXtXtXtXtXtXtX",
"tXtXtXtXtXtXtXtXtXtXtXtXtXtXtXtXtXtXtXtXtXtXtXtXtXtXe p ..8 tXtXtXtXtXtXtXtXtXtXtXp j ~ s tXtXtXtXtXtXtXtXtXtXtXtXtXtXtXtXtXtXtXtXtXtXtXtX",
"tXtXtXtXtXtXtXtXtXtXtXtXtXtXtXtXtXtXtXtXtXtXtXtXtXtX* K '.I.h tXtXtXtXtXtXtXtXtX6 I.Y.O.1 tXtXtXtXtXtXtXtXtXtXtXtXtXtXtXtXtXtXtXtXtXtXtXtX",
"tXtXtXtXtXtXtXtXtXtXtXtXtXtXtXtXtXtXtXtXtXtXtXtXtXtX* ] >X,X$.% tXtXtXtXtXtXtX& @.1X5XI.1 tXtXtXtXtXtXtXtXtXtXtXtXtXtXtXtXtXtXtXtXtXtXtXtX",
"tXtXtXtXtXtXtXtXtXtXtXtXtXtXtXtXtXtXtXtXtXtXtXtXtXtX; o.,XqX`.X.y tXtXtXtXtX* Q |.0X7XI.> tXtXtXtXtXtXtXtXtXtXtXtXtXtXtXtXtXtXtXtXtXtXtXtX",
"tXtXtXtXtXtXtXtXtXtXtXtXtXtXtXtXtXtXtXtXtXtXtXtXtXtX# +.,XeX1XOXX.5 - - - -  .].6XwX9XI.> tXtXtXtXtXtXtXtXtXtXtXtXtXtXtXtXtXtXtXtXtXtXtXtX",
"tXtXtXtXtXtXtXtXtXtXtXtXtXtXtXtXtXtXtXtXtXtXtXtXtXtX: o.$X4X-X{.O.c f f h U K.oX1X5X1XP.> tXtXtXtXtXtXtXtXtXtXtXtXtXtXtXtXtXtXtXtXtXtXtXtX",
"tXtXtXtXtXtXtXtXtXtXtXtXtXtXtXtXtXtXtXtXtXtXtXtXtXtX> Q =.U.$...b x v v ) w.N.S.Q././.[ > tXtXtXtXtXtXtXtXtXtXtXtXtXtXtXtXtXtXtXtXtXtXtXtX",
"tXtXtXtXtXtXtXtXtXtXtXtXtXtXtXtXtXtXtXtXtXtXtXtXtXtX6 g j k k k k n ~ ^ i.V.V.n.c.c.B.<.8 % tXtXtXtXtXtXtXtXtXtXtXtXtXtXtXtXtXtXtXtXtXtXtX",
"tXtXtXtXtXtXtXtXtXtXtXtXtXtXtXtXtXtXtXtXtXtX1 1 1 5 k b b I W W b b [ w.V.V.S.B.B.x.c.e.1.V > > 6 tXtXtXtXtXtXtXtXtXtXtXtXtXtXtXtXtXtXtXtX",
"tXtXtXtXtXtXtXtXtXtXtXtXtXtXtXtXtXtXtXtXtXtX6 a k k W W W W W W b W 6.x.n.V.B.B.M.B.x.x.d.F p a P tXtXtXtXtXtXtXtXtXtXtXtXtXtXtXtXtXtXtXtX",
"tXtXtXtXtXtXtXtXtXtXtXtXtXtXtXtXtXtXtXtXtXtX% 1 d k W W W W W W I k [ 1.r.B.B.B.B.b.b.b.V.F - * : tXtXtXtXtXtXtXtXtXtXtXtXtXtXtXtXtXtXtXtX",
"tXtXtXtXtXtXtXtXtXtXtXtXtXtXtXtXtXtXtXtXtXtXtX2 k k W W W W W W W k n x t.M.B.B.B.B.b.b.c.G = o tXtXtXtXtXtXtXtXtXtXtXtXtXtXtXtXtXtXtXtXtX",
"tXtXtXtXtXtXtXtXtXtXtXtXtXtXtXtXtXtXtXtXtXtXtX5 I W W W W W I W k k n v u.M.B.B.B.B.b.b.c.G w - tXtXtXtXtXtXtXtXtXtXtXtXtXtXtXtXtXtXtXtXtX",
"tXtXtXtXtXtXtXtXtXtXtXtXtXtXtXtXtXtXtXtXtXtX7 P d j k I W I j j j j z v u.B.b.B.l.b.B.b.n.G r y 7 tXtXtXtXtXtXtXtXtXtXtXtXtXtXtXtXtXtXtXtX",
"tXtXtXtXtXtXtXtXtXtXtXtXtXtXtXtXtXtXtXtXtXtX3 p d d I b I W j g @.%.| z 1.k.l.M.M.l.M.x.c.D < < > tXtXtXtXtXtXtXtXtXtXtXtXtXtXtXtXtXtXtXtX",
"tXtXtXtXtXtXtXtXtXtXtXtXtXtXtXtXtXtXtXtXtXtXtX1 d K I I j K j j  X4X;.z ` r.k.k.k.k.l.l.z.D 3 : tXtXtXtXtXtXtXtXtXtXtXtXtXtXtXtXtXtXtXtXtX",
"tXtXtXtXtXtXtXtXtXtXtXtXtXtXtXtXtXtXtXtXtXtXtXtX7 P j I j j d c [.&XW.T _ 5.0.e.q.,.,.0.9.C , tXtXtXtXtXtXtXtXtXtXtXtXtXtXtXtXtXtXtXtXtXtX",
"tXtXtXtXtXtXtXtXtXtXtXtXtXtXtXtXtXtXtXtXtXtXtXtXtX1 a K j d h f a.S.x.j.2.9 ` 0.9.V 7 S A 4 tXtXtXtXtXtXtXtXtXtXtXtXtXtXtXtXtXtXtXtXtXtXtX",
"tXtXtXtXtXtXtXtXtXtXtXtXtXtXtXtXtXtXtXtXtXtXtXtXtXtX1 a d h K C F 3.v.T.4.l U 8.2.g q a 3 tXtXtXtXtXtXtXtXtXtXtXtXtXtXtXtXtXtXtXtXtXtXtXtX",
"tXtXtXtXtXtXtXtXtXtXtXtXtXtXtXtXtXtXtXtXtXtXtXtXtXtXtX1 f g ` 9./ V q.Z.3.l f [ R x i & tXtXtXtXtXtXtXtXtXtXtXtXtXtXtXtXtXtXtXtXtXtXtXtXtX",
"tXtXtXtXtXtXtXtXtXtXtXtXtXtXtXtXtXtXtXtXtXtXtXtXtXtXtXtXj Y q.v.A i <.c.2.g z x j j f - tXtXtXtXtXtXtXtXtXtXtXtXtXtXtXtXtXtXtXtXtXtXtXtXtX",
"tXtXtXtXtXtXtXtXtXtXtXtXtXtXtXtXtXtXtXtXtXtXtXtXtXtXtX, J 8.z.Z.H t T 7.E f h x n W I p > tXtXtXtXtXtXtXtXtXtXtXtXtXtXtXtXtXtXtXtXtXtXtXtX",
"tXtXtXtXtXtXtXtXtXtXtXtXtXtXtXtXtXtXtXtXtXtXtXtXtXtXg M 0.x.C.c.A t m l s f h j k I I j d tXtXtXtXtXtXtXtXtXtXtXtXtXtXtXtXtXtXtXtXtXtXtXtX",
"tXtXtXtXtXtXtXtXtXtXtXtXtXtXtXtXtXtXtXtXtXtXtXtXtXtXy M d.c.N.1.l t [ 7.A f h x k I W j p tXtXtXtXtXtXtXtXtXtXtXtXtXtXtXtXtXtXtXtXtXtXtXtX",
"tXtXtXtXtXtXtXtXtXtXtXtXtXtXtXtXtXtXtXtXtXtXtXtXtXtXy M j.V.` h i i s.T.<.a j L I k I d 5 tXtXtXtXtXtXtXtXtXtXtXtXtXtXtXtXtXtXtXtXtXtXtXtX",
"tXtXtXtXtXtXtXtXtXtXtXtXtXtXtXtXtXtXtXtXtXtXtXtXtXtX1 N w.<.K u r e E.#XL.d U 2._ Q W d 1 tXtXtXtXtXtXtXtXtXtXtXtXtXtXtXtXtXtXtXtXtXtXtXtX",
"tXtXtXtXtXtXtXtXtXtXtXtXtXtXtXtXtXtXtXtXtXtXtXtXtXtX1 K g f n v y 1 {.0X(.I ` z.j.( k l > tXtXtXtXtXtXtXtXtXtXtXtXtXtXtXtXtXtXtXtXtXtXtXtX",
"tXtXtXtXtXtXtXtXtXtXtXtXtXtXtXtXtXtXtXtXtXtXtXtXtXtX< R g g U.(.X.W .XwX_.( 0.v.x.6.{ T 5 tXtXtXtXtXtXtXtXtXtXtXtXtXtXtXtXtXtXtXtXtXtXtXtX",
"tXtXtXtXtXtXtXtXtXtXtXtXtXtXtXtXtXtXtXtXtXtXtXtXtXtX5 R s ! =XeXXX*.$XwX[.t.d.C.m.C.g.<.8 tXtXtXtXtXtXtXtXtXtXtXtXtXtXtXtXtXtXtXtXtXtXtXtX",
"tXtXtXtXtXtXtXtXtXtXtXtXtXtXtXtXtXtXtXtXtXtXtXtXtXtX1 L p W *XrX8XXX2XeX+X!.F.~.R.C.f.7.9 tXtXtXtXtXtXtXtXtXtXtXtXtXtXtXtXtXtXtXtXtXtXtXtX",
"tXtXtXtXtXtXtXtXtXtXtXtXtXtXtXtXtXtXtXtXtXtXtXtXtX  5 L p L *XrXwXwXwXwXwX9X0XqX&XG.f.u.9 X tXtXtXtXtXtXtXtXtXtXtXtXtXtXtXtXtXtXtXtXtXtXtX",
"tXtXtXtXtXtXtXtXtXtXtXtXtXtXtXtXtXtXtXtXtXtXtXtXtXO , / V / :XeXeXeX2X*X4XeXeXeX5XH.f.p.d X tXtXtXtXtXtXtXtXtXtXtXtXtXtXtXtXtXtXtXtXtXtXtX",
"tXtXtXtXtXtXtXtXtXtXtXtXtXtXtXtXtXtXtXtXtXtXtXtXtX. , F :.3.:XwXeXeX(.f (.7XeXeX2XH.g.i.P X tXtXtXtXtXtXtXtXtXtXtXtXtXtXtXtXtXtXtXtXtXtXtX",
"tXtXtXtXtXtXtXtXtXtXtXtXtXtXtXtXtXtXtXtXtXtXtXtXtX  ; S >.6.1XeXeXeX-.: -.2XrX7X%XD.h.t.8 X tXtXtXtXtXtXtXtXtXtXtXtXtXtXtXtXtXtXtXtXtXtXtX",
"tXtXtXtXtXtXtXtXtXtXtXtXtXtXtXtXtXtXtXtXtXtXtXtXtX    # B [ -XeXeX9X$.# *.2X;X(.J.:.H 1 O   tXtXtXtXtXtXtXtXtXtXtXtXtXtXtXtXtXtXtXtXtXtXtX",
"tXtXtXtXtXtXtXtXtXtXtXtXtXtXtXtXtXtXtXtXtXtXtXtXtXtXtX  X d =XeX4X|...# &.$X*.f 4 g =   tXtXtXtXtXtXtXtXtXtXtXtXtXtXtXtXtXtXtXtXtXtXtXtXtX",
"tXtXtXtXtXtXtXtXtXtXtXtXtXtXtXtXtXtXtXtXtXtXtXtXtXtXtX  + I -XwX).] > . ' P.Q 4 1 K *   tXtXtXtXtXtXtXtXtXtXtXtXtXtXtXtXtXtXtXtXtXtXtXtXtX",
"tXtXtXtXtXtXtXtXtXtXtXtXtXtXtXtXtXtXtXtXtXtXtXtXtXtXtX  + I -XeX-.>     + , d Q n L :   tXtXtXtXtXtXtXtXtXtXtXtXtXtXtXtXtXtXtXtXtXtXtXtXtX",
"tXtXtXtXtXtXtXtXtXtXtXtXtXtXtXtXtXtXtXtXtXtXtXtXtXtXtX  + ! ;XwX-.< .   . : $.}.U.b #   tXtXtXtXtXtXtXtXtXtXtXtXtXtXtXtXtXtXtXtXtXtXtXtXtX",
"tXtXtXtXtXtXtXtXtXtXtXtXtXtXtXtXtXtXtXtXtXtXtXtXtXtXtX  + ! ;XeX*.< .   X : _.9X1X@.* . tXtXtXtXtXtXtXtXtXtXtXtXtXtXtXtXtXtXtXtXtXtXtXtXtX",
"tXtXtXtXtXtXtXtXtXtXtXtXtXtXtXtXtXtXtXtXtXtXtXtXtXtXtX  . d |.,X#.1 o   o : *.@X|.! X . tXtXtXtXtXtXtXtXtXtXtXtXtXtXtXtXtXtXtXtXtXtXtXtXtX",
"tXtXtXtXtXtXtXtXtXtXtXtXtXtXtXtXtXtXtXtXtXtXtXtXtXtXtXtXtX  Q +.^ 0 o   @ 3 P ] s X   tXtXtXtXtXtXtXtXtXtXtXtXtXtXtXtXtXtXtXtXtXtXtXtXtXtX",
"tXtXtXtXtXtXtXtXtXtXtXtXtXtXtXtXtXtXtXtXtXtXtXtXtXtXtXtXtX    # d 6 @   . 6 > + .   tXtXtXtXtXtXtXtXtXtXtXtXtXtXtXtXtXtXtXtXtXtXtXtXtXtXtX",
"tXtXtXtXtXtXtXtXtXtXtXtXtXtXtXtXtXtXtXtXtXtXtXtXtXtXtXtXtXtXtX      tXtXtX        tXtXtXtXtXtXtXtXtXtXtXtXtXtXtXtXtXtXtXtXtXtXtXtXtXtXtXtX",
"tXtXtXtXtXtXtXtXtXtXtXtXtXtXtXtXtXtXtXtXtXtXtXtXtXtXtXtXtXtXtXtXtXtXtXtXtXtXtXtXtXtXtXtXtXtXtXtXtXtXtXtXtXtXtXtXtXtXtXtXtXtXtXtXtXtXtXtXtX"
};
