/* XPM */
static char *result[] = {
/* columns rows colors chars-per-pixel */
"69 69 216 2 ",
"   c #020101",
".  c #0A0504",
"X  c #090409",
"o  c #0C090B",
"O  c #0E0906",
"+  c #120605",
"@  c #140D0A",
"#  c #1B0E0A",
"$  c #1C110D",
"%  c #130E10",
"&  c #1C1415",
"*  c #1B191A",
"=  c #1C1719",
"-  c #0D0711",
";  c #20130F",
":  c #29110D",
">  c #221513",
",  c #251A15",
"<  c #2B1B15",
"1  c #251B1A",
"2  c #2B1C1B",
"3  c #21141D",
"4  c #311D1B",
"5  c #341D19",
"6  c #2D211D",
"7  c #34221D",
"8  c #3B231A",
"9  c #3D281F",
"0  c #3A2417",
"q  c #261C22",
"w  c #2C1D23",
"e  c #241D2A",
"r  c #1F2329",
"t  c #252324",
"y  c #2D2325",
"u  c #2A262C",
"i  c #2B2A2B",
"p  c #262728",
"a  c #342422",
"s  c #3B2522",
"d  c #352A26",
"f  c #3C2A24",
"g  c #35262B",
"h  c #352B2D",
"j  c #3C2D2B",
"k  c #3C272C",
"l  c #3E312E",
"z  c #2E2C30",
"x  c #332E31",
"c  c #3D3332",
"v  c #393639",
"b  c #4E260F",
"n  c #472B1C",
"m  c #552A1A",
"M  c #57331D",
"N  c #5A2C08",
"B  c #642F0E",
"V  c #622F15",
"C  c #6F3813",
"Z  c #61321B",
"A  c #6F3B18",
"S  c #683417",
"D  c #7D3C13",
"F  c #773A1A",
"G  c #72390D",
"H  c #442921",
"J  c #402E2A",
"K  c #472823",
"L  c #41322E",
"P  c #4C352B",
"I  c #4B3325",
"U  c #553426",
"Y  c #53362B",
"T  c #593826",
"R  c #412F36",
"E  c #423431",
"W  c #4B3532",
"Q  c #493A36",
"!  c #4C3D3B",
"~  c #463A37",
"^  c #533D35",
"/  c #633D2C",
"(  c #663C23",
")  c #603D3A",
"_  c #7A471E",
"`  c #4F413C",
"'  c #55433D",
"]  c #6F492F",
"[  c #694320",
"{  c #714020",
"}  c #714E36",
"|  c #3E3F43",
" . c #443E41",
".. c #4F4547",
"X. c #5C4C4A",
"o. c #564945",
"O. c #5E504E",
"+. c #5D5150",
"@. c #65524E",
"#. c #6E5F5C",
"$. c #6A5852",
"%. c #725A55",
"&. c #6E635E",
"*. c #73635B",
"=. c #685C65",
"-. c #6E6460",
";. c #766661",
":. c #776B67",
">. c #843818",
",. c #843E04",
"<. c #9B4D0F",
"1. c #854A1D",
"2. c #8A4A1D",
"3. c #884415",
"4. c #994D17",
"5. c #9B5718",
"6. c #8B4104",
"7. c #B95908",
"8. c #A75717",
"9. c #B45511",
"0. c #B65C17",
"q. c #B04D0B",
"w. c #BE610C",
"e. c #844922",
"r. c #8B4921",
"t. c #904F21",
"y. c #9E5B21",
"u. c #985322",
"i. c #AD6726",
"p. c #CE4F04",
"a. c #C75709",
"s. c #D45B01",
"d. c #C3620C",
"f. c #CC6209",
"g. c #CC680E",
"h. c #DA6B05",
"j. c #D56C0B",
"k. c #D96E0B",
"l. c #D36807",
"z. c #DB700D",
"x. c #DA7007",
"c. c #CD6711",
"v. c #CC6911",
"b. c #CA6518",
"n. c #D46712",
"m. c #D56E10",
"M. c #DA6C11",
"N. c #E56C08",
"B. c #E47205",
"V. c #D67E3F",
"C. c #DA6E2B",
"Z. c #E47B3C",
"A. c #E97D2C",
"S. c #825742",
"D. c #8F664B",
"F. c #B67544",
"G. c #88746D",
"H. c #8B7D7A",
"J. c #857876",
"K. c #957F78",
"L. c #C17E50",
"P. c #DB873F",
"I. c #E28830",
"U. c #E6952C",
"Y. c #8B817E",
"T. c #92837A",
"R. c #B28D60",
"E. c #A68A78",
"W. c #DF8E4B",
"Q. c #D79A65",
"!. c #E3A068",
"~. c #948C89",
"^. c #9F928C",
"/. c #9D9390",
"(. c #8B8283",
"). c #A68D83",
"_. c #A8958F",
"`. c #A79B97",
"'. c #B99787",
"]. c #A8A39D",
"[. c #BAAA9E",
"{. c #ACA4A6",
"}. c #BAABA3",
"|. c #BBB1AE",
" X c #E0AE91",
".X c #C6BCB7",
"XX c #CEB4A7",
"oX c #EBD498",
"OX c #E3CFB1",
"+X c #EFD6BE",
"@X c #EBD6AC",
"#X c #CAC5C3",
"$X c #D4CECC",
"%X c #D6CDC6",
"&X c #D5D1CD",
"*X c #DAD3CD",
"=X c #DCD5CA",
"-X c #DFDCD9",
";X c #DBD6D5",
":X c #E3D6C9",
">X c #E5DDD9",
",X c #E0DDD7",
"<X c #F0E6CE",
"1X c #EBE4D9",
"2X c #E6E3DA",
"3X c #F3E9DF",
"4X c #E7E5E2",
"5X c #E9E5E3",
"6X c #EAE9E6",
"7X c #F1ECE8",
"8X c #F6F2E9",
"9X c #F8F6F4",
"0X c #F6FAF4",
"qX c #FCFAF6",
"wX c #FCFCFA",
"eX c None",
/* pixels */
"eXeXeXeXeXeXeXeXeXeXeXeXeXeXeXeXeXeXeXeXeXeXeXeXeXeXeXeXeXeXeXeXeXeXeXeXeXeXeXeXeXeXeXeXeXeXeXeXeXeXeXeXeXeXeXeXeXeXeXeXeXeXeXeXeXeXeXeXeX",
"eXeXeXeXeXeXeXeXeXeXeXeXeXeXeXeXeXeXeXeXeXeXeXeXeXeXeXeXeXeXeXeXeXeXeXeXeXeXeXeXeXeXeXeXeXeXeXeXeXeXeXeXeXeXeXeXeXeXeXeXeXeXeXeXeXeXeXeXeX",
"eXeXeXeXeXeXeXeXeXeXeXeXeXeXeXeXeXeXeXeXeXeXeXeXeXeXeXeXeXeXeXeXeXeXeXeXeXeXeXeXeXeXeXeXeXeXeXeXeXeXeXeXeXeXeXeXeXeXeXeXeXeXeXeXeXeXeXeXeX",
"eXeXeXeXeXeXeXeXeXeXeXeXeXeXeXeXeXeXeXeXeXeXeXeXeXeXeXeXeXeXeXeXeXeXeXeXeXeXeXeXeXeXeXeXeXeXeXeXeXeXeXeXeXeXeXeXeXeXeXeXeXeXeXeXeXeXeXeXeX",
"eXeXeXeXeXeXeXeXeXeXeXeXeXeXeXeXeXeXeXeXeXeXeXeXeXeXeXeXeXeXeXeXeXeXeXeXeXeXeXeXeXeXeXeXeXeXeXeXeXeXeXeXeXeXeXeXeXeXeXeXeXeXeXeXeXeXeXeXeX",
"eXeXeXeXeXeXeXeXeXeXeXeXeXeXeXeXeXeXeXeXeXeXeXeXeXeXeXeXeXeXeXeXeXeXeXeXeXeXeXeXeXeXeXeXeXeXeXeXeXeXeXeXeXeXeXeXeXeXeXeXeXeXeXeXeXeXeXeXeX",
"eXeXeXeXeXeXeXeXeXeXeXeXeXeXeXeXeXeXeXeXeXeXeXeXeXeXeXeXeXeXeXeXeXeXeXeXeXeXeXeXeXeXeXeXeXeXeXeXeXeXeXeXeXeXeXeXeXeXeXeXeXeXeXeXeXeXeXeXeX",
"eXeXeXeXeXeXeXeXeXeXeXeXeXeXeXeXeXeXeXeXeXeXeXeXeXeXeXeXeXeXeXeXeXeXeXeXeXeXeXeXeXeXeXeXeXeXeXeXeXeXeXeXeXeXeXeXeXeXeXeXeXeXeXeXeXeXeXeXeX",
"eXeXeXeXeXeXeXeXeXeXeXeXeXeXeXeXeXeXeXeXeXeXeXeXeXeXeXeXeXeXeXeXeXeXeXeXeXeXeXeXeXeXeXeXeXeXeXeXeXeXeXeXeXeXeXeXeXeXeXeXeXeXeXeXeXeXeXeXeX",
"eXeXeXeXeXeXeXeXeXeXeXeXeXeXeXeXeXeXeXeXeXeXeXeXeXeXeXeXeXeXeXeXeXeXeXeXeXeXeXeXeXeXeXeXeXeXeXeXeXeXeXeXeXeXeXeXeXeXeXeXeXeXeXeXeXeXeXeXeX",
"eXeXeXeXeXeXeXeXeXeXeXeXeXeXeXeXeXeXeXeXeXeXeXeXeXeXeXeXeXeXeXeXeXeXeXeXeXeXeXeXeXeXeXeXeXeXeXeXeXeXeXeXeXeXeXeXeXeXeXeXeXeXeXeXeXeXeXeXeX",
"eXeXeXeXeXeXeXeXeXeXeXeXeXeXeXeXeXeXeXeXeXeXeXeXeXeXeXeXeXeXeXeXeXeXeXeXeXeXeXeXeXeXeXeXeXeXeXeXeXeXeXeXeXeXeXeXeXeXeXeXeXeXeXeXeXeXeXeXeX",
"eXeXeXeXeXeXeXeXeXeXeXeXeXeXeXeXeXeXeXeXeXeXeXeXeXeXeXeXeXeXeXeXeXeXeXeXeXeXeXeXeXeXeXeXeXeXeXeXeXeXeXeXeXeXeXeXeXeXeXeXeXeXeXeXeXeXeXeXeX",
"eXeXeXeXeXeXeXeXeXeXeXeXeXeXeXeXeXeXeXeXeXeXeXeXeXeXeXeXeXeXeXeXeXeXeXeXeXeXeXeXeXeXeXeXeXeXeXeXeXeXeXeXeXeXeXeXeXeXeXeXeXeXeXeXeXeXeXeXeX",
"eXeXeXeXeXeXeXeXeXeXeXeXeXeXeXeXeXeXeXeXeXeXeXeXeXeXeXeXeXeXeXeXeXeXeXeXeXeXeXeXeXeXeXeXeXeXeXeXeXeXeXeXeXeXeXeXeXeXeXeXeXeXeXeXeXeXeXeXeX",
"eXeXeXeXeXeXeXeXeXeXeXeXeXeXeXeXeXeXeXeXeXeXeXeXeXeXeXeXeXeXeXeXeXeXeXeXeXeXeXeXeXeXeXeXeXeXeXeXeXeXeXeXeXeXeXeXeXeXeXeXeXeXeXeXeXeXeXeXeX",
"eXeXeXeXeXeXeXeXeXeXeXeXeXeXeXeXeXeXeXeXeXeXeXeXeXeXeXeXeXeXeXeXeXeXeXeXeXeXeXeXeXeXeXeXeXeXeXeXeXeXeXeXeXeXeXeXeXeXeXeXeXeXeXeXeXeXeXeXeX",
"eXeXeXeXeXeXeXeXeXeXeXeXeXeXeXeXeXeXeXeXeXeXeXeXeXeXeXeXeXeXeXeXeXeXeXeXeXeXeXeXeXeXeXeXeXeXeXeXeXeXeXeXeXeXeXeXeXeXeXeXeXeXeXeXeXeXeXeXeX",
"eXeXeXeXeXeXeXeXeXeXeXeXeXeXeXeXeXeXeXeXeXeXeXeXeXeXeXeXeXeXeXeXeXeXeXeXeXeXeXeXeXeXeXeXeXeXeXeXeXeXeXeXeXeXeXeXeXeXeXeXeXeXeXeXeXeXeXeXeX",
"eXeXeXeXeXeXeXeXeXeXeXeXeXeXeXeXeXeXeXeXeXeXeXeXeXeXeXeXeXeXeXeXeXeXeXeXeXeXeXeXeXeXeXeXeXeXeXeXeXeXeXeXeXeXeXeXeXeXeXeXeXeXeXeXeXeXeXeXeX",
"eXeXeXeXeXeXeXeXeXeXeXeXeXeXeXeXeXeXeXeXeXeXeXeXeXeXeXeXeXeXeXeXeXeXeXeXeXeXeXeXeXeXeXeXeXeXeXeXeXeXeXeXeXeXeXeXeXeXeXeXeXeXeXeXeXeXeXeXeX",
"eXeXeXeXeXeXeXeXeXeXeXeXeXeXeXeXeXeXeXeXeXeXeXeXeXeXeXeXeXeXeXeXeXeXeXeXeXeXeXeXeXeXeXeXeXeXeXeXeXeXeXeXeXeXeXeXeXeXeXeXeXeXeXeXeXeXeXeXeX",
"eXeXeXeXeXeXeXeXeXeXeXeXeXeXeXeXeXeXeXeXeXeXeXeXeXeXeXeXeXeXeXeXeXeXeXeXeXeXeXeXeXeXeXeXeXeXeXeXeXeXeXeXeXeXeXeXeXeXeXeXeXeXeXeXeXeXeXeXeX",
"eXeXeXeXeXeXeXeXeXeXeXeXeXeXeXeXeXeXeXeXeXeXeXeXeXeXeXeXeXeXeXeXeXeXeXeXeXeXeXeXeXeXeXeXeXeXeXeXeXeXeXeXeXeXeXeXeXeXeXeXeXeXeXeXeXeXeXeXeX",
"eXeXeXeXeXeXeXeXeXeXeXeXeXeXeXeXeXeXeXeXeXeXeXeXeXeXt s ' f eXeXeXeXeXeXeXeXeXeXeXd L L 7 eXeXeXeXeXeXeXeXeXeXeXeXeXeXeXeXeXeXeXeXeXeXeXeX",
"eXeXeXeXeXeXeXeXeXeXeXeXeXeXeXeXeXeXeXeXeXeXeXeXeXeX> W _.T.l eXeXeXeXeXeXeXeXeXa G.K.X.2 eXeXeXeXeXeXeXeXeXeXeXeXeXeXeXeXeXeXeXeXeXeXeXeX",
"eXeXeXeXeXeXeXeXeXeXeXeXeXeXeXeXeXeXeXeXeXeXeXeXeXeX> $.;X;X&.& eXeXeXeXeXeXeX% *.%X2X;.> eXeXeXeXeXeXeXeXeXeXeXeXeXeXeXeXeXeXeXeXeXeXeXeX",
"eXeXeXeXeXeXeXeXeXeXeXeXeXeXeXeXeXeXeXeXeXeXeXeXeXeX; *.,X0X/.X.t eXeXeXeXeXeXQ }.8X6X;.# eXeXeXeXeXeXeXeXeXeXeXeXeXeXeXeXeXeXeXeXeXeXeXeX",
"eXeXeXeXeXeXeXeXeXeXeXeXeXeXeXeXeXeXeXeXeXeXeXeXeXeX; *.,XwX=XXX@.t = 3 = * ..).2X0X5X*.$ eXeXeXeXeXeXeXeXeXeXeXeXeXeXeXeXeXeXeXeXeXeXeXeX",
"eXeXeXeXeXeXeXeXeXeXeXeXeXeXeXeXeXeXeXeXeXeXeXeXeXeX; *.#X2X%X}.$.h g u g P D. X+X1X:X*.$ eXeXeXeXeXeXeXeXeXeXeXeXeXeXeXeXeXeXeXeXeXeXeXeX",
"eXeXeXeXeXeXeXeXeXeXeXeXeXeXeXeXeXeXeXeXeXeXeXeXeXeX< ! :.H.-.o.c h v x / 8.n.C.P.!.Q.} $ eXeXeXeXeXeXeXeXeXeXeXeXeXeXeXeXeXeXeXeXeXeXeXeX",
"eXeXeXeXeXeXeXeXeXeXeXeXeXeXeXeXeXeXeXeXeXeXeXeXeXeX7 h c L l l c x R ^ 8.M.k.k.j.k.l.3.0 @ eXeXeXeXeXeXeXeXeXeXeXeXeXeXeXeXeXeXeXeXeXeXeX",
"eXeXeXeXeXeXeXeXeXeXeXeXeXeXeXeXeXeXeXeXeXeXeX< 1 6 l c E E L E c c ] 0.n.M.m.m.m.j.x.9.3.n , > 9 eXeXeXeXeXeXeXeXeXeXeXeXeXeXeXeXeXeXeXeX",
"eXeXeXeXeXeXeXeXeXeXeXeXeXeXeXeXeXeXeXeXeXeX7 s j l E E E E E L c E u.k.M.M.m.m.j.m.j.j.a.C 7 7 Y eXeXeXeXeXeXeXeXeXeXeXeXeXeXeXeXeXeXeXeX",
"eXeXeXeXeXeXeXeXeXeXeXeXeXeXeXeXeXeXeXeXeXeXeX2 f l c E E E E ~ E c [ 4.v.z.m.m.j.j.m.k.f.S = & > eXeXeXeXeXeXeXeXeXeXeXeXeXeXeXeXeXeXeXeX",
"eXeXeXeXeXeXeXeXeXeXeXeXeXeXeXeXeXeXeXeXeXeXeX= l c c E E E E E ~ E v E u.v.m.x.k.k.k.k.j.C 3 - eXeXeXeXeXeXeXeXeXeXeXeXeXeXeXeXeXeXeXeXeX",
"eXeXeXeXeXeXeXeXeXeXeXeXeXeXeXeXeXeXeXeXeXeXeX7 l l E c L E E E E E c c ^ 1.5.8.7.k.k.k.k.A q & eXeXeXeXeXeXeXeXeXeXeXeXeXeXeXeXeXeXeXeXeX",
"eXeXeXeXeXeXeXeXeXeXeXeXeXeXeXeXeXeXeXeXeXeX0 s f l l L E E E E E E E l x z y 6 _ f.k.k.k.A e q 9 eXeXeXeXeXeXeXeXeXeXeXeXeXeXeXeXeXeXeXeX",
"eXeXeXeXeXeXeXeXeXeXeXeXeXeXeXeXeXeXeXeXeXeX5 a f l l L L L E L E L l l ..:...i S w.j.h.k.C 1 = 1 eXeXeXeXeXeXeXeXeXeXeXeXeXeXeXeXeXeXeXeX",
"eXeXeXeXeXeXeXeXeXeXeXeXeXeXeXeXeXeXeXeXeXeXeX, H l L L c L L L L L l x T.2X].| U 7.j.l.l.G 7 > eXeXeXeXeXeXeXeXeXeXeXeXeXeXeXeXeXeXeXeXeX",
"eXeXeXeXeXeXeXeXeXeXeXeXeXeXeXeXeXeXeXeXeXeXeXeX7 f J J J L l j l l P [ E.1X`. .I <.7.7.q.S 9 eXeXeXeXeXeXeXeXeXeXeXeXeXeXeXeXeXeXeXeXeXeX",
"eXeXeXeXeXeXeXeXeXeXeXeXeXeXeXeXeXeXeXeXeXeXeXeXeX< s J j j l l j x e.d.F.%X(.R u I V V m 7 eXeXeXeXeXeXeXeXeXeXeXeXeXeXeXeXeXeXeXeXeXeXeX",
"eXeXeXeXeXeXeXeXeXeXeXeXeXeXeXeXeXeXeXeXeXeXeXeXeXeX< s k j Y Y l z 8.B.i._.-.l g u e w 4 eXeXeXeXeXeXeXeXeXeXeXeXeXeXeXeXeXeXeXeXeXeXeXeX",
"eXeXeXeXeXeXeXeXeXeXeXeXeXeXeXeXeXeXeXeXeXeXeXeXeXeXeX1 y E 4.8.I i <.h.4.) E h h k w & eXeXeXeXeXeXeXeXeXeXeXeXeXeXeXeXeXeXeXeXeXeXeXeXeX",
"eXeXeXeXeXeXeXeXeXeXeXeXeXeXeXeXeXeXeXeXeXeXeXeXeXeXeXeXd ( 9.j.M i 3.l._ k k j l h d , eXeXeXeXeXeXeXeXeXeXeXeXeXeXeXeXeXeXeXeXeXeXeXeXeX",
"eXeXeXeXeXeXeXeXeXeXeXeXeXeXeXeXeXeXeXeXeXeXeXeXeXeXeXH 2.<.a.B.M p M 5.U g x l l L J 7 , eXeXeXeXeXeXeXeXeXeXeXeXeXeXeXeXeXeXeXeXeXeXeXeX",
"eXeXeXeXeXeXeXeXeXeXeXeXeXeXeXeXeXeXeXeXeXeXeXeXeXeXW Z 0.k.k.j.M r p l d g k j l L L J s eXeXeXeXeXeXeXeXeXeXeXeXeXeXeXeXeXeXeXeXeXeXeXeX",
"eXeXeXeXeXeXeXeXeXeXeXeXeXeXeXeXeXeXeXeXeXeXeXeXeXeXs M n.z.b.2.d r [ 5.M g h c l L L l 7 eXeXeXeXeXeXeXeXeXeXeXeXeXeXeXeXeXeXeXeXeXeXeXeX",
"eXeXeXeXeXeXeXeXeXeXeXeXeXeXeXeXeXeXeXeXeXeXeXeXeXeXa M g.c.{ j p t i.U._ a k L L L L J 7 eXeXeXeXeXeXeXeXeXeXeXeXeXeXeXeXeXeXeXeXeXeXeXeX",
"eXeXeXeXeXeXeXeXeXeXeXeXeXeXeXeXeXeXeXeXeXeXeXeXeXeX2 m 8.e.P u t q R.oXS.d U 1.{ P L h 6 eXeXeXeXeXeXeXeXeXeXeXeXeXeXeXeXeXeXeXeXeXeXeXeX",
"eXeXeXeXeXeXeXeXeXeXeXeXeXeXeXeXeXeXeXeXeXeXeXeXeXeX< s g a c v t w |.0XT.L e.l.d.( E f < eXeXeXeXeXeXeXeXeXeXeXeXeXeXeXeXeXeXeXeXeXeXeXeX",
"eXeXeXeXeXeXeXeXeXeXeXeXeXeXeXeXeXeXeXeXeXeXeXeXeXeX> K g k J.~.+.R .XqX).T q.h.j.4.[ n , eXeXeXeXeXeXeXeXeXeXeXeXeXeXeXeXeXeXeXeXeXeXeXeX",
"eXeXeXeXeXeXeXeXeXeXeXeXeXeXeXeXeXeXeXeXeXeXeXeXeXeX1 n 7  .$XwX|.=.#XwX'.r.a.h.x.N.p.C , eXeXeXeXeXeXeXeXeXeXeXeXeXeXeXeXeXeXeXeXeXeXeXeX",
"eXeXeXeXeXeXeXeXeXeXeXeXeXeXeXeXeXeXeXeXeXeXeXeXeXeX3 H 8  .$XwX6X{.,XwXXXL.P.W.I.N.s.D 2 eXeXeXeXeXeXeXeXeXeXeXeXeXeXeXeXeXeXeXeXeXeXeXeX",
"eXeXeXeXeXeXeXeXeXeXeXeXeXeXeXeXeXeXeXeXeXeXeXeXeX  < K 7 W $XwXqXwXwXwXwX3X8X0X@XA.s.D < . eXeXeXeXeXeXeXeXeXeXeXeXeXeXeXeXeXeXeXeXeXeXeX",
"eXeXeXeXeXeXeXeXeXeXeXeXeXeXeXeXeXeXeXeXeXeXeXeXeX  < n K / %XwXwXwX>X#X2X0XwXwX1XZ.s.3.< . eXeXeXeXeXeXeXeXeXeXeXeXeXeXeXeXeXeXeXeXeXeXeX",
"eXeXeXeXeXeXeXeXeXeXeXeXeXeXeXeXeXeXeXeXeXeXeXeXeX  < B ,.y.:XwXwXwX~.g /.7XwXwX<XZ.p.>.: X eXeXeXeXeXeXeXeXeXeXeXeXeXeXeXeXeXeXeXeXeXeXeX",
"eXeXeXeXeXeXeXeXeXeXeXeXeXeXeXeXeXeXeXeXeXeXeXeXeX  : N ,.y.:XwXqX9X;.> H.4XwX6XOXC.q.F < . eXeXeXeXeXeXeXeXeXeXeXeXeXeXeXeXeXeXeXeXeXeXeX",
"eXeXeXeXeXeXeXeXeXeXeXeXeXeXeXeXeXeXeXeXeXeXeXeXeXeX. # b ] =XwXwX>XX.# J.4X&X~.S.>.S 2 X   eXeXeXeXeXeXeXeXeXeXeXeXeXeXeXeXeXeXeXeXeXeXeX",
"eXeXeXeXeXeXeXeXeXeXeXeXeXeXeXeXeXeXeXeXeXeXeXeXeXeXeX  O W $XwX5X_.Q # :.$X:.a 4 k q X eXeXeXeXeXeXeXeXeXeXeXeXeXeXeXeXeXeXeXeXeXeXeXeXeX",
"eXeXeXeXeXeXeXeXeXeXeXeXeXeXeXeXeXeXeXeXeXeXeXeXeXeXeX  @ Q &XwX{.' & . o.G.! 4 2 J a O eXeXeXeXeXeXeXeXeXeXeXeXeXeXeXeXeXeXeXeXeXeXeXeXeX",
"eXeXeXeXeXeXeXeXeXeXeXeXeXeXeXeXeXeXeXeXeXeXeXeXeXeXeX  + ! &XqXH., .   . < J Q c W a @ eXeXeXeXeXeXeXeXeXeXeXeXeXeXeXeXeXeXeXeXeXeXeXeXeX",
"eXeXeXeXeXeXeXeXeXeXeXeXeXeXeXeXeXeXeXeXeXeXeXeXeXeXeX  + ` &XwXH.1 .   . , *.].Y.~ , O eXeXeXeXeXeXeXeXeXeXeXeXeXeXeXeXeXeXeXeXeXeXeXeXeX",
"eXeXeXeXeXeXeXeXeXeXeXeXeXeXeXeXeXeXeXeXeXeXeXeXeXeXeX  + ` &X0XJ.1     X ; _.7X1X*.1 O eXeXeXeXeXeXeXeXeXeXeXeXeXeXeXeXeXeXeXeXeXeXeXeXeX",
"eXeXeXeXeXeXeXeXeXeXeXeXeXeXeXeXeXeXeXeXeXeXeXeXeXeXeX  . l |.*X%.< .   o < G..X}.~ O   eXeXeXeXeXeXeXeXeXeXeXeXeXeXeXeXeXeXeXeXeXeXeXeXeX",
"eXeXeXeXeXeXeXeXeXeXeXeXeXeXeXeXeXeXeXeXeXeXeXeXeXeXeXeXeX  ! @.Y 7 @   X f I ' d O   eXeXeXeXeXeXeXeXeXeXeXeXeXeXeXeXeXeXeXeXeXeXeXeXeXeX",
"eXeXeXeXeXeXeXeXeXeXeXeXeXeXeXeXeXeXeXeXeXeXeXeXeXeXeXeXeXeX  @ f n @ eX  f 6 @ .   eXeXeXeXeXeXeXeXeXeXeXeXeXeXeXeXeXeXeXeXeXeXeXeXeXeXeX",
"eXeXeXeXeXeXeXeXeXeXeXeXeXeXeXeXeXeXeXeXeXeXeXeXeXeXeXeXeXeXeX      eXeXeX        eXeXeXeXeXeXeXeXeXeXeXeXeXeXeXeXeXeXeXeXeXeXeXeXeXeXeXeX",
"eXeXeXeXeXeXeXeXeXeXeXeXeXeXeXeXeXeXeXeXeXeXeXeXeXeXeXeXeXeXeXeXeXeXeXeXeXeXeXeXeXeXeXeXeXeXeXeXeXeXeXeXeXeXeXeXeXeXeXeXeXeXeXeXeXeXeXeXeX"
};
