/* XPM */
static char *b9eb9b9a6cbe4372b938b5f0f9d33036ik0gpVYKRgODW1PM[] = {
/* columns rows colors chars-per-pixel */
"64 64 205 2 ",
"   c #030102",
".  c #0B0404",
"X  c #110708",
"o  c #140B0B",
"O  c #1B0C0C",
"+  c #19110E",
"@  c #1B0E12",
"#  c #1B1211",
"$  c #191019",
"%  c #19151C",
"&  c #270B04",
"*  c #22110D",
"=  c #28150F",
"-  c #221415",
";  c #2B1816",
":  c #251619",
">  c #25191E",
",  c #2C1C1A",
"<  c #331D14",
"1  c #341F1F",
"2  c #2B211E",
"3  c #32211E",
"4  c #3C2219",
"5  c #1D1520",
"6  c #1E1A25",
"7  c #201620",
"8  c #261B26",
"9  c #2A1D24",
"0  c #2B1E29",
"q  c #1D2021",
"w  c #2D2324",
"e  c #2C202D",
"r  c #342524",
"t  c #3C2525",
"y  c #3B2A27",
"u  c #382729",
"i  c #342A2B",
"p  c #3C2D2B",
"a  c #3E312E",
"s  c #2A2635",
"d  c #2C2B30",
"f  c #2E2B3D",
"g  c #322430",
"h  c #3A2731",
"j  c #372B32",
"k  c #3C3032",
"l  c #441F0F",
"z  c #562C13",
"x  c #502E19",
"c  c #6C3710",
"v  c #683B19",
"b  c #4A2926",
"n  c #422C2B",
"m  c #4A2A2C",
"M  c #43322D",
"N  c #4B322C",
"B  c #5A3826",
"V  c #56392A",
"C  c #442B36",
"Z  c #4D2B33",
"A  c #432D39",
"S  c #522D38",
"D  c #433633",
"F  c #4A3633",
"G  c #4B3D3C",
"H  c #5F3637",
"J  c #563C34",
"K  c #52313E",
"L  c #683E24",
"P  c #66393A",
"I  c #34601D",
"U  c #305933",
"Y  c #365A30",
"T  c #3B5A37",
"R  c #3A6921",
"E  c #38682B",
"W  c #76431C",
"Q  c #456E1F",
"!  c #4E403E",
"~  c #594037",
"^  c #51413A",
"/  c #594D3E",
"(  c #754829",
")  c #674736",
"_  c #447024",
"`  c #4F7522",
"'  c #537D28",
"]  c #4E7933",
"[  c #557D39",
"{  c #2F2E41",
"}  c #302F43",
"|  c #343247",
" . c #383247",
".. c #363249",
"X. c #38344B",
"o. c #3E3651",
"O. c #3D3951",
"+. c #5D3442",
"@. c #423B56",
"#. c #453E5A",
"$. c #6C3E44",
"%. c #554541",
"&. c #5E4843",
"*. c #5B4E4B",
"=. c #5F504E",
"-. c #47405B",
";. c #4A425E",
":. c #624D46",
">. c #754346",
",. c #7A4646",
"<. c #7A4A47",
"1. c #62524D",
"2. c #705845",
"3. c #645654",
"4. c #695852",
"5. c #6D5D59",
"6. c #715C57",
"7. c #4C6341",
"8. c #7C6255",
"9. c #73635B",
"0. c #4C4461",
"q. c #665D65",
"w. c #766864",
"e. c #7B716F",
"r. c #8E4914",
"t. c #944B14",
"y. c #B65B05",
"u. c #B15B0B",
"i. c #AA5C12",
"p. c #BD6309",
"a. c #B96416",
"s. c #885434",
"d. c #C45E05",
"f. c #C56406",
"g. c #CC6702",
"h. c #CD6904",
"j. c #D56D03",
"k. c #DA6D02",
"l. c #D97105",
"z. c #CC6B15",
"x. c #CA7836",
"c. c #824A4A",
"v. c #8E664E",
"b. c #BD7A40",
"n. c #837269",
"m. c #8C756C",
"M. c #857774",
"N. c #3A9311",
"B. c #3D9815",
"V. c #328530",
"C. c #429B1A",
"Z. c #44A318",
"A. c #55A417",
"S. c #58AC14",
"D. c #6FB12D",
"F. c #70C725",
"G. c #DB8128",
"H. c #C8823A",
"J. c #D78639",
"K. c #94FF30",
"L. c #B08264",
"P. c #D58E4C",
"I. c #DC974D",
"U. c #D26E88",
"Y. c #978986",
"T. c #AC9A93",
"R. c #95AC88",
"E. c #B5A19D",
"W. c #ABA9A3",
"Q. c #B5A7A3",
"!. c #CEB99F",
"~. c #DABC9D",
"^. c #E4B68B",
"/. c #DF98AB",
"(. c #C7B6A9",
"). c #D7BEA2",
"_. c #C4BAB5",
"`. c #C2BBB8",
"'. c #E5A0B0",
"]. c #E4B7B6",
"[. c #E4C29A",
"{. c #DCD0AE",
"}. c #CAC1BD",
"|. c #D6C3B6",
" X c #E7CCB0",
".X c #CEC8C5",
"XX c #D4C8C1",
"oX c #D3CDCA",
"OX c #D9D3CE",
"+X c #D9D5D3",
"@X c #DED9D5",
"#X c #EBCDCF",
"$X c #EBDAC6",
"%X c #E5DAD6",
"&X c #E2DEDB",
"*X c #DEE0DD",
"=X c #EDE3CF",
"-X c #EAE4DB",
";X c #EAE6DD",
":X c #EDDEE2",
">X c #EAE9E5",
",X c #F3EAE6",
"<X c #F4F0E5",
"1X c #F3F2EE",
"2X c #F4F6F4",
/* pixels */
"F.V.Z.F.Z.Z.S.K.S.Z.F.V.F.Z.V.Z.F.V.Z.F.Z.Z.S.F.S.Z.F.V.F.Z.V.Z.F.V.Z.F.Z.Z.S.K.S.Z.F.V.F.Z.V.Z.F.V.Z.F.Z.Z.S.F.S.Z.F.V.F.Z.V.Z.",
"F.Z.Z.Z.N.Z.K.Z.Z.Z.Z.F.Z.Z.Z.Z.F.Z.V.Z.Z.Z.Z.F.Z.Z.Z.F.V.Z.Z.V.F.Z.Z.Z.N.Z.K.Z.Z.Z.Z.F.Z.Z.Z.Z.F.Z.V.Z.Z.Z.Z.F.Z.Z.Z.F.V.Z.Z.V.",
"Z.Z.F.S.Z.N.F.Z.Z.V.B.F.Z.Z.B.V.Z.Z.V.Z.K.Z.V.Z.Z.Z.Z.F.Z.Z.Z.V.Z.Z.F.S.Z.N.F.Z.Z.V.B.F.Z.Z.B.V.Z.Z.V.Z.K.Z.V.Z.Z.Z.Z.F.Z.Z.Z.V.",
"V.Z.Z.F.B.Z.Z.Z.F.S.V.Z.Z.F.K.Z.V.Z.Z.K.Z.Z.Z.S.Z.F.S.Z.S.Z.F.Z.V.Z.Z.F.B.Z.Z.Z.F.S.V.Z.Z.F.K.Z.V.Z.Z.K.Z.Z.Z.S.Z.F.S.Z.S.Z.F.Z.",
"Z.Z.N.F.N.F.Z.N.Z.F.V.Z.N.Z.V.K.Z.V.Z.F.Z.F.Z.V.Z.Z.F.Z.Z.Z.S.F.Z.Z.N.F.N.F.Z.N.Z.F.V.Z.N.Z.V.K.Z.V.Z.F.Z.F.Z.V.Z.Z.F.Z.Z.Z.S.F.",
"Z.F.S.Z.B.V.Z.Z.Z.F.Z.Z.Z.Z.Z.F.Z.V.Z.Z.V.S.V.S.Z.Z.F.V.Z.Z.Z.F.Z.F.S.Z.B.V.Z.Z.Z.F.Z.Z.Z.Z.Z.F.Z.V.Z.Z.V.S.V.S.Z.Z.F.V.Z.Z.Z.F.",
"Z.Z.F.Z.V.Z.S.K.Z.Z.Z.Z.F.Z.F.V.Z.F.S.V.Z.Z.Z.Z.V.Z.Z.Z.V.Z.F.V.Z.Z.F.Z.V.Z.S.K.Z.Z.Z.Z.F.Z.F.V.Z.F.S.V.Z.Z.Z.Z.V.Z.Z.Z.V.Z.F.V.",
"V.N.F.N.V.Z.K.Z.Z.Z.F.Z.Z.F.Z.F.V.Z.F.V.S.K.Z.V.Z.Z.S.Z.V.Z.Z.F.V.N.F.N.V.Z.K.Z.Z.Z.F.Z.Z.F.Z.F.V.Z.F.V.S.K.Z.V.Z.Z.S.Z.V.Z.Z.F.",
"Z.N.N.N.N.Z.F.Z.V.B.Z.F.Z.V.Z.F.Z.V.F.Z.K.Z.Z.V.Z.V.Z.Z.Z.S.Z.F.Z.N.N.N.N.Z.F.Z.V.B.Z.F.Z.V.Z.F.Z.V.F.Z.K.Z.Z.V.Z.V.Z.Z.Z.S.Z.F.",
"B.V.B.F.S.Z.Z.Z.F.V.Z.Z.V.B.+.+.+.+.+.+.F.V.Z.Z.Z.Z.V.K.S.Z.Z.Z.B.V.B.F.S.Z.Z.Z.F.V.Z.Z.+.+.+.+.+.+.Z.Z.F.V.Z.Z.Z.Z.V.K.S.Z.Z.Z.",
"F.Z.V.Z.S.F.Z.N.B.V.Z.K.S.F.+.+.+.+.+.+.Z.Z.V.F.S.Z.V.Z.K.Z.V.Z.F.Z.V.Z.S.F.Z.N.B.V.Z.K.+.+.+.+.+.+.Z.V.Z.Z.V.F.S.Z.V.Z.K.Z.V.Z.",
"Z.Z.V.Z.F.Z.Z.Z.F.S.Z._ D._ $.$.$.$.$.$.` _ Y R ' R Q R ' U R I R R.W.] ' R R R ' ` _ _ $.$.$.$.$.$.Y _ ` Z.V.Z.F.Z.S.Z.F.V.Z.N.",
"Z.K.Z.Z.F.Z.V.B.Z.F.Z.A A A c.c.c.c.c.c.A A A e e e e e e e e e e Y.q.g e e e e e A A A c.c.c.c.c.c.A A A Z.Z.Z.F.Z.Z.Z.Z.V.Z.Z.",
"Z.Z.K.B.V.S.F.V.Z.F.Z.A A A c.c.c.c.c.c.A A A e e e e e e e e e e j e e e e e e e A A A c.c.c.c.c.c.A A A S.F.Z.Z.Z.V.Z.S.Z.Z.V.",
"V.B.F.V.Z.F.N.V.N.Z.V.A A A c.c.c.c.c.c.A A A e e e e e e e e e e e e e e e e e e A A A c.c.c.c.c.c.A A A F.S.Z.S.Z.Z.V.Z.S.Z.Z.",
"Z.V.Z.V.Z.F.Z.N.N.F.Z.A A A +.+.+.+.+.+.A A A : : : : : : : : % q > > J , : : : : A A A +.+.+.+.+.+.A A A F.Z.N.F.Z.Z.V.S.Z.V.F.",
"F.V.Z.F.Z.Z.S.F.S.Z.F.A A A +.+.+.+.+.+.A A A : : : : : : ; , z v ( ) J 2 : : : : A A A +.+.+.+.+.+.A A A Z.S.K.S.Z.F.V.F.Z.V.Z.",
"F.Z.V.Z.Z.Z.Z.F.Y Y Y K K K >.>.>.>.>.>.$.$.$.H H H H H H B r.d.J.[.).n.2 H H H H $.$.$.>.>.>.>.>.>.K K K Y [ Y Z.Z.Z.F.Z.Z.Z.Z.",
"Z.Z.V.Z.F.Z.V.Z.{ { { +.+.+.c.c.c.c.c.c.c.c.c.c.c.c.c.c.P 4 r.a.I.{.(.9.r c.c.c.c.c.c.c.c.c.c.c.c.c.+.+.+.{ { { Z.V.B.F.Z.Z.B.V.",
"V.Z.Z.F.Z.Z.Z.S.{ { { +.+.+.c.c.c.c.c.c.c.c.c.c.c.c.c.c.P @ > r J 1.%.N ,.c.c.c.c.c.c.c.c.c.c.c.c.c.+.+.+.{ { { F.S.V.Z.Z.F.V.Z.",
"Z.V.Z.F.Z.F.Z.V.f f f +.+.+.>.>.>.<.<.<.>.>.>.>.m m m m b z v v z 4 # n m m m Z >.>.>.>.<.<.<.>.>.>.+.+.+.f f f Z.F.V.Z.N.Z.V.F.",
"Z.V.Z.Z.V.S.V.S.e e e A A A A A A / / / A A A r O o o o l u.j.k.y.L r - # O O - t A A A / / / A A A A A A e e e Z.F.Z.Z.Z.Z.Z.F.",
"Z.F.S.V.Z.Z.Z.Z.e e e A A A A A A / / / A A A - M w.*., z g.k.f.t.V i , r 6.5.N ; A A A / / / A A A A A A e e e Z.Z.Z.Z.F.Z.F.V.",
"V.Z.F.V.S.K.Z.V.> > > g g g g g g j j j g g g * 4.oX`.G z g.f.r.B u r 3 1.}.}.3.@ g g g j j j g g g g g g > > > Z.Z.F.Z.Z.F.Z.F.",
"Z.V.F.Z.K.Z.Z.V.: : : e e e e e e e e e e e e o 8.-X>Xw.x u.t.V p i r D Y.>X;X5.O e e e e e e e e e e e e : : : V.B.Z.F.Z.V.Z.F.",
"B.V.Z.Z.F.V.Z.Z.: : : e e e e e e e e e e e e . w.&X,XW.n.) M i d w %.M.}.1X>X5.O e e e e e e e e e e e e : : : F.V.Z.Z.V.B.Z.Z.",
"F.S.Z.V.Z.Z.V.F.: : : 8 8 8 e e e g g g e e e . w.&X1X(.L.) V L B u k w.`.1X>X5.O e e e g g g e e e 8 8 8 : : : B.V.Z.K.S.F.N.Z.",
"S.F.V.Z.S.Z.V.Z.: : : $ $ $ e e e A A A e e e . 8.&X,XP.z.h.f.g.y.v u p M.-X>X5.O e e e A A A e e e $ $ $ : : : F.S.Z.Z.K.Z.Z.N.",
"Z.Z.V.Z.Z.Z.Z.Z.: : : $ $ $ e e e A A C 0 0 e & 8.%X XG.k.l.l.l.i.B p p 5.oXoX5.* o 0 0 C A A e e e $ $ $ : : : Z.F.Z.N.F.N.Z.Z.",
"Z.K.S.Z.F.S.F.Z.: : : $ $ $ e e e A A r = * v t.a.J.G.l.j.l.y.c N a k a D 1.=.D r 1 , , t A A e e e $ $ $ : : : Z.F.Z.N.N.Z.B.V.",
"V.Z.K.Z.Z.F.S.Z.: : : $ $ $ e e e A A n b t L p.g.j.j.j.j.l.u.B i k k M a M M p p p r t C A A e e e $ $ $ : : : N.Z.V.B.Z.F.V.Z.",
"Z.V.F.V.Z.F.Z.N.: : : $ $ $ e e e A A A $ 5 W p.j.j.j.j.j.k.u.v a k k a M M p p p u , : A A A e e e $ $ $ : : : N.F.Z.V.S.Z.V.F.",
"F.V.Z.F.Z.Z.S.K.: : : 0 0 0 C C C K K K , w W p.j.j.j.y.y.j.z.v.3.D p p p p p p y u , , Z K K C C C 0 0 0 : : : S.Z.F.V.F.Z.V.Z.",
"F.Z.Z.Z.N.Z.K.Z.: : : A A A +.+.+.+.+.Z < > v f.k.j.d.c c g.P.|.Q.*.p u i u p u r r 3 < m +.+.+.+.+.A A A : : : Z.Z.Z.F.V.Z.Z.V.",
"Z.Z.F.S.Z.N.F.Z.: : : A A A +.+.+.+.+.m < > ( x.I.I.P.b x H.^.,X&XY.G u p 5.e.w.3.p , ; m +.+.+.+.+.A A A : : : Z.Z.Z.F.Z.Z.Z.V.",
"V.Z.Z.F.B.Z.Z.Z.: : : A A A +.+.+.+.+.+.S u v.).$X=X|.J F !.;X2X2X+XY.G =.`.*X@X_.4.t m Z +.+.+.+.+.A A A : : : Z.F.S.Z.S.Z.F.Z.",
"Z.Z.N.F.N.F.Z.N.: : : e e e A A A / / / A 9 &.(.<X2X>XM.w.@X1X%X%X1XoXM.Y.>X2X-X(.*.9 A / / / A A A e e e : : : Z.Z.F.Z.Z.Z.S.F.",
"Z.F.S.Z.B.V.Z.Z.: : : e e e A A A / / / A h A 3._.1X2XoX.X1X:X/.'.,X1XoX+X2X>XQ.4.w h A / / / A A A e e e : : : Z.Z.F.V.Z.Z.Z.F.",
"Z.Z.F.Z.V.Z.S.K.s s s 7 7 7 g g g k k k g g g o 3._.oX.X&X1X#XU.U.#X,XOX.X>X`.=.- g g g k k k g g g 7 7 7 s s s V.Z.Z.Z.V.Z.F.V.",
"V.N.F.N.V.Z.K.Z.{ { { $ $ $ e e e e e e e e e   X G ^ F 3.Q.#X].].%XQ.3.G 3.G o . e e e e e e e e e $ $ $ { { { Z.Z.S.Z.V.Z.Z.F.",
"Z.N.N.N.N.Z.F.Z.{ { { $ $ $ e e e e e e e e e :   @ , F ^ 6.Y.(.|.E.n.6.F 1 +   : e e e e e e e e e $ $ $ { { { Z.V.Z.Z.Z.S.Z.F.",
"B.V.B.F.S.Z.Z.Z.| | | 5 5 5 0 0 0 e e e 0 0 0 :   O n E.Y.n 1 n n t t Y.Y.N O   : 0 0 0 e e e 0 0 0 5 5 5 | | | Z.Z.V.K.S.Z.Z.Z.",
"F.Z.V.Z.S.F.Z.N.0.0.0.{ { { $ $ $ e e e : : : :   . M oX`.%.; O @ 9 4.}.}.^ X   : : : : e e e $ $ $ { { { 0.0.0.S.Z.V.Z.K.Z.V.Z.",
"Z.Z.V.Z.F.Z.Z.Z.0.0.0.{ { { $ $ $ e e e : : : :   . ~ @X,X_.m.n *.Q.%X1XOX^ .   : : : : e e e $ $ $ { { { 0.0.0.F.Z.S.Z.F.V.Z.N.",
"Z.K.Z.Z.F.Z.V.B.0.0.0.#.#.#.s s s > > > : : : $   . &.@X,XQ.9.3 ! T.|.$X~.V .   $ : : : > > > s s s #.#.#.@.@.@.F.Z.Z.Z.Z.V.Z.Z.",
"Z.Z.K.B.V.S.F.V.0.0.0.0.0.0.{ { { : : : : : : $   . :.@X@X5.; . o y s.x.x.z X   $ : : : : : : { { { 0.0.0.o.o.o.Z.Z.V.Z.S.Z.Z.V.",
"V.B.F.V.Z.F.N.V.0.0.0.0.0.0.{ { { : : : : : : $   . :.@X+X*.o     O ( b.H.v o   $ : : : : : : { { { 0.0.0.o.o.o.S.Z.Z.V.Z.S.Z.Z.",
"Z.V.Z.V.Z.F.Z.N.@.@.@.#.#.#.X.X.X.e e e 9 9 9 %   . 1.@X+X=.o     * 8.). X2.o . % 9 9 9 e e e X.X.X.#.#.#.7.T T F.Z.Z.V.S.Z.V.F.",
"F.V.Z.F.Z.Z.S.F.{ { { o.o.o.0.0.0.o.o.o.{ { { e     ^ XX.X%.o     O 9.(.|.%.. . e { { { o.o.o.0.0.0.o.o.o.Z.S.K.S.Z.F.V.F.Z.V.Z.",
"F.Z.V.Z.Z.Z.Z.F.{ { { o.o.o.0.0.0.o.o.o.{ { { e % % - w.m.J = .   < ) n.9.#   7 e { { { o.o.o.0.0.0.o.o.o.Z.K.Z.Z.Z.Z.F.Z.Z.Z.Z.",
"Z.Z.V.Z.F.Z.V.Z.C.C.C.{ { { } } } o.o.o.;.;.;.;.;.#.  # 3 < O 6 % * ; , #    .;.;.;.;.;.o.o.o.} } } D.A.C.N.F.Z.Z.V.B.F.Z.Z.B.V.",
"V.Z.Z.F.Z.Z.Z.S.Z.K.S.{ { { { { { o.o.o.0.0.0.0.0.0.@.|     6 -.#.$     X.@.0.0.0.0.0.0.o.o.o.{ { { Z.F.B.Z.Z.Z.F.S.V.Z.Z.F.V.Z.",
"Z.V.Z.F.Z.F.Z.V.Z.Z.K.{ { { { { { o.o.o.0.0.0.0.0.0.0.0.-.-.;.0.0.;.-.-.0.0.0.0.0.0.0.0.o.o.o.{ { { N.F.N.F.Z.N.Z.F.V.Z.N.Z.V.F.",
"Z.V.Z.Z.V.S.V.S.Z.Z.F.U E E E ] E ......O.O.O.O.O.O.O.O.O.O.O.O.#.#.#.O.O.O.#.#.#.O.O.O.......] E ] S.Z.B.V.Z.Z.Z.F.Z.Z.Z.Z.Z.F.",
"Z.F.S.V.Z.Z.Z.Z.V.Z.Z.Z.V.Z.F.V.Z.{ { { { { { { { { { { { { { { o.o.o.{ { { o.o.o.{ { { { { { V.Z.Z.F.Z.V.Z.S.F.Z.Z.Z.Z.F.Z.F.V.",
"V.Z.F.V.S.K.Z.V.Z.Z.S.Z.V.Z.Z.F.V.{ { { { { { { { { { { { { { { o.o.o.{ { { o.o.o.{ { { { { { F.V.N.F.N.V.Z.F.Z.Z.Z.F.Z.Z.F.Z.F.",
"Z.V.F.Z.K.Z.Z.V.Z.V.Z.Z.Z.S.Z.F.Z.N.N.N.N.Z.F.Z.V.B.Z.F.Z.V.Z.F.Z.V.F.Z.K.Z.Z.V.Z.V.Z.Z.Z.S.Z.F.Z.N.N.N.N.Z.F.Z.V.B.Z.F.Z.V.Z.F.",
"B.V.Z.Z.F.V.Z.Z.Z.Z.V.K.S.Z.Z.Z.B.V.B.F.S.Z.Z.Z.F.V.Z.Z.V.B.Z.Z.B.V.Z.Z.F.V.Z.Z.Z.Z.V.K.S.Z.Z.Z.B.V.B.F.S.Z.Z.Z.F.V.Z.Z.V.B.Z.Z.",
"F.S.Z.V.Z.Z.V.F.S.Z.V.Z.K.Z.V.Z.F.Z.V.Z.S.K.Z.N.B.V.Z.K.S.F.N.Z.F.S.Z.V.Z.Z.V.F.S.Z.V.Z.K.Z.V.Z.F.Z.V.Z.S.K.Z.N.B.V.Z.K.S.F.N.Z.",
"S.F.V.Z.S.Z.V.Z.F.Z.S.Z.F.V.Z.N.Z.Z.V.Z.K.Z.Z.Z.F.S.Z.Z.K.Z.Z.N.S.F.V.Z.S.Z.V.Z.F.Z.S.Z.F.V.Z.N.Z.Z.V.Z.K.Z.Z.Z.F.S.Z.Z.K.Z.Z.N.",
"Z.Z.V.Z.Z.Z.Z.Z.F.Z.Z.Z.Z.V.Z.Z.Z.F.Z.Z.F.Z.V.B.Z.F.Z.N.F.N.Z.Z.Z.Z.V.Z.Z.Z.Z.Z.F.Z.Z.Z.Z.V.Z.Z.Z.F.Z.Z.F.Z.V.B.Z.F.Z.N.F.N.Z.Z.",
"Z.K.S.Z.F.S.F.Z.Z.Z.V.Z.S.Z.Z.V.Z.Z.F.B.V.S.F.V.Z.F.Z.N.N.Z.B.V.Z.K.S.Z.F.S.F.Z.Z.Z.V.Z.S.Z.Z.V.Z.Z.F.B.V.S.F.V.Z.F.Z.N.N.Z.B.V.",
"V.Z.K.Z.Z.F.S.Z.S.Z.Z.V.Z.S.Z.Z.V.B.F.V.Z.F.N.V.N.Z.V.B.Z.F.V.Z.V.Z.K.Z.Z.F.S.Z.S.Z.Z.V.Z.S.Z.Z.V.B.F.V.Z.F.N.V.N.Z.V.B.Z.F.V.Z.",
"Z.V.F.V.Z.F.Z.N.F.Z.Z.V.S.Z.V.F.Z.V.Z.V.Z.F.Z.N.N.F.Z.V.S.Z.V.F.Z.V.F.V.Z.F.Z.N.F.Z.Z.V.S.Z.V.F.Z.V.Z.V.Z.F.Z.N.N.F.Z.V.S.Z.V.F."
};
