/* XPM */
static char *fish31750847462[] = {
/* columns rows colors chars-per-pixel */
"64 64 13 1 ",
"  c #18081B",
". c #692800",
"X c #B00000",
"o c #E15454",
"O c #3A9311",
"+ c #3D9815",
"@ c #328530",
"# c #44A318",
"$ c #58AC14",
"% c #70C725",
"& c #94FF30",
"* c #FF9494",
"= c #FFCDCD",
/* pixels */
"%@#%##$&$#%@%#@#%@#%##$%$#%@%#@#%@#%##$&$#%@%#@#%@#%##$%$#%@%#@#",
"%###O#&####%####%#@####%###%@##@%###O#&####%####%#@####%###%@##@",
"##%$#O%##@+%##+@##@#&#@####%###@##%$#O%##@+%##+@##@#&#@####%###@",
"@##%+###%$@##%&#@##&###$#%$#$#%#@##%+###%$@##%&#@##&###$#%$#$#%#",
"##O%O%#O#%@#O#@&#@#%#%#@##%###$%##O%O%#O#%@#O#@&#@#%#%#@##%###$%",
"#%$#+@###%#####%#@##@$@$##%@###%#%$#+@###%#####%#@##@$@$##%@###%",
"##%#@#$&####%#%@#%$@####@###@#%@##%#@#$&####%#%@#%$@####@###@#%@",
"@O%O@#&###%##%#%@#%@$&#@##$#@##%@O%O@#&###%##%#%@#%@$&#@##$#@##%",
"#OOOO#%#@+#%#@#%#@%#&##@#@###$#%#OOOO#%#@+#%#@#%#@%#&##@#@###$#%",
"+@+%$###%@##@+##+@##%@####@&$###+@+%$###%@##@+##+@##%@####@&$###",
"%#@#$%#O+@#&$%O#%$#@##@%$#@#&#@#%#@#$%#O+@#&$%O#%$#@##@%$#@#&#@#",
"##@#%###%$##&##O$%@#$#@#%#$#%@#O##@#%###%$##&##O$%@#$#@#%#$#%@#O",
"#&##%#@+#%#O%O####@#####%####@###&##%#@+#%#O%O####@#####%####@##",
"##&+@$%@#%#OO#+@#%$#%$%###@#$##@##&+@$%@#%#OO#+@#%$#%$%###@#$##@",
"@+%@#%O@O#@+#%@#@#%##%$#$##@#$##@+%@#%.........#@#%##%$#$##@#$##",
"#@#@#%#OO%#@$#@&#@%@#%#O%##@$#@%#@#@#%.........&#@%@#%#O%##@$#@%",
"%@#%##$%$#%@%#@#&@#%##$&$#%@%#@#%@#%##.........#&@#%##$&$#%@%#@#",
"%#@####%###%@##@%###O#&####%####......******...@%###O#&####%####",
"##@#%#@####%###@##%$#O%##@+%##+@......******...@##%$#O%##@+%##+@",
"@##%###$#&$#$#%#@##%+###%$@##%@#......******...#@##%+###%$@##%@#",
"#@#%#%#@##&###$%##O%O%#.........XXX***   ***ooo...O%O%#O#%@#O#@%",
"#@##@$@$##%@###%#%$#+@#.........XXX***   ***ooo...$#+@###%#####%",
"#%$@####@###@#%@##%#@#$.........XXX***   ***ooo...%#@#$%####%#%@",
"@#%@$&#@##$#@##%@O%O...ooo...XXXXXX***===***ooo...%O@#%###%##%#%",
"#@%#&##@#@###$#%#OOO...ooo...XXXXXX***===***ooo...OOO#%#@+#%#@#%",
"+@##%@####@&$###+@+%...ooo...XXXXXX***===***ooo...+%$###%@##@+##",
"%$#@##@%$#@#&#@#%#@#...ooo...oooooo*********...#%#@#$&#O+@#&$%O#",
"$%@#$#@#%#$#%@#O##@#...ooo...oooooo*********...O##@#&###%$##&##O",
"##@#####%####@###%##...ooo...oooooo*********...##%##%#@+#%#O%O##",
"#&$#%$%###@#$##@##%+@$%...ooo***===ooooooXXX...@##%+@$%@#%#OO#+@",
"@#&##%$#$##@#$##@+%@#%O...ooo***===ooooooXXX...#@+%@#%O@O#@+#%@#",
"#@%@#%#O%##@$#@%#@#@#%#...ooo***===ooooooXXX...%#@#@#%#OO%#@$#@%",
"%@#%##$&$#%@%#@#%@#%##$...***===***oooXXX...%#@#%@#%##$%$#%@%#@#",
"%###O#&####%####%#@####...***===***oooXXX...####%#@####%###%@##@",
"##%$#O%##@+%##+@##@#&#@...***===***oooXXX...##+@##@#&#@####%###@",
"@##%+###%$@##%&#@......XXXooo***ooo......$@##%&#@##&###$#%$#$#%#",
"##O%O%#O#%@#O#@&#......XXXooo***ooo......%@#O#@&#@#%#%#@##%###$%",
"#%$#+@###%#####%#......XXXooo***ooo......%#####%#@##@$@$##%@###%",
"##%#@#$&####%#...===ooo...XXX......***...###%#%@#%$@####@###@#%@",
"@O%O@#&###%##%...===ooo...XXX......***...#%##%#%@#%@$&#@##$#@##%",
"#OOOO#%#@+#%#@...===ooo...XXX......***...+#%#@#%#@%#&##@#@###$#%",
"+@+%$###%@##@+......***ooo...###......##%@##@+##+@##%@####@&$###",
"%#@#$%#O+@#&$%......***ooo...#@#......#O+@#&$%O#%$#@##@%$#@#&#@#",
"##@#%###%$##&#......***ooo...@#O......##%$##&##O$%@#$#@#%#$#%@#O",
"#&##%#@+#%#O%O####@#...===...@###&##%#@+#%#O%O####@#####%####@##",
"##&+@$%@#%#OO#+@#%$#...===...##@##&+@$%@#%#OO#+@#%$#%$%###@#$##@",
"@+%@#%O@O#@+#%@#@#%#...===...$##@+%@#%O@O#@+#%@#@#%##%$#$##@#$##",
"#@#@#%#OO%#@$#@&#@%@#%#...#@$#@%#@#@#%#OO%#@$#@&#@%@#%#O%##@$#@%",
"%@#%##$%$#%@%#@#&@#%##$...%@%#@#%@#%##$%$#%@%#@#&@#%##$&$#%@%#@#",
"%#@####%###%@##@%###O#&...#%####%#@####%###%@##@%###O#&####%####",
"##@#%#@####%###@##%$#O%##@+%##+@##@#%#@####%###@##%$#O%##@+%##+@",
"@##%###$#&$#$#%#@##%+###%$@##%@#@##%###$#&$#$#%#@##%+###%$@##%@#",
"#@#%#%#@##&###$%##O%O%#O#%@#O#@%#@#%#%#@##&###$%##O%O%#O#%@#O#@%",
"#@##@$@$##%@###%#%$#+@###%#####%#@##@$@$##%@###%#%$#+@###%#####%",
"#%$@####@###@#%@##%#@#$%####%#%@#%$@####@###@#%@##%#@#$%####%#%@",
"@#%@$&#@##$#@##%@O%O@#%###%##%#%@#%@$&#@##$#@##%@O%O@#%###%##%#%",
"#@%#&##@#@###$#%#OOOO#%#@+#%#@#%#@%#&##@#@###$#%#OOOO#%#@+#%#@#%",
"+@##%@####@&$###+@+%$###%@##@+##+@##%@####@&$###+@+%$###%@##@+##",
"%$#@##@%$#@#&#@#%#@#$&#O+@#&$%O#%$#@##@%$#@#&#@#%#@#$&#O+@#&$%O#",
"$%@#$#@#%#$#%@#O##@#&###%$##&##O$%@#$#@#%#$#%@#O##@#&###%$##&##O",
"##@#####%####@###%##%#@+#%#O%O####@#####%####@###%##%#@+#%#O%O##",
"#&$#%$%###@#$##@##%+@$%@#%#OO#+@#&$#%$%###@#$##@##%+@$%@#%#OO#+@",
"@#&##%$#$##@#$##@+%@#%O@O#@+#%@#@#&##%$#$##@#$##@+%@#%O@O#@+#%@#",
"#@%@#%#O%##@$#@%#@#@#%#OO%#@$#@%#@%@#%#O%##@$#@%#@#@#%#OO%#@$#@%"
};
