/* XPM */
static char *idle011750858416[] = {
/* columns rows colors chars-per-pixel */
"64 64 212 2 ",
"   c #030101",
".  c #0D0505",
"X  c #050B02",
"o  c #0B0508",
"O  c #180B07",
"+  c #150D0D",
"@  c #0B1706",
"#  c #1E120E",
"$  c #181A09",
"%  c #190D13",
"&  c #1A1411",
"*  c #1B1413",
"=  c #26130E",
"-  c #2A140E",
";  c #3B0610",
":  c #380E10",
">  c #231512",
",  c #2A1513",
"<  c #231B15",
"1  c #2B1A16",
"2  c #251B1B",
"3  c #2D1C1B",
"4  c #351A16",
"5  c #321C1A",
"6  c #142B0B",
"7  c #1E3A18",
"8  c #28280F",
"9  c #35200F",
"0  c #2A2518",
"q  c #34241D",
"w  c #39271A",
"e  c #293415",
"r  c #363A19",
"t  c #2C2121",
"y  c #352623",
"u  c #352B23",
"i  c #3A2926",
"p  c #342A28",
"a  c #3B2D2A",
"s  c #3C3629",
"d  c #3D312E",
"f  c #3D3031",
"g  c #461B08",
"h  c #4A1310",
"j  c #472912",
"k  c #4C2B1B",
"l  c #5B2617",
"z  c #532E14",
"x  c #5B2D14",
"c  c #58331B",
"v  c #6D370A",
"b  c #743408",
"n  c #642A11",
"m  c #663518",
"M  c #492628",
"N  c #412E2B",
"B  c #572B2A",
"V  c #42322D",
"C  c #48332A",
"Z  c #433532",
"A  c #493633",
"S  c #4A3A36",
"D  c #463A38",
"F  c #4B3D3A",
"G  c #543934",
"H  c #1E440B",
"J  c #21450B",
"K  c #25470C",
"L  c #364916",
"P  c #395714",
"I  c #2A660F",
"U  c #2C6A0F",
"Y  c #306A0E",
"T  c #35750E",
"R  c #2D6E10",
"E  c #376715",
"W  c #2F7110",
"Q  c #397916",
"!  c #2C4524",
"~  c #354B26",
"^  c #2A5622",
"/  c #385627",
"(  c #256224",
")  c #336F2C",
"_  c #425416",
"`  c #6E421E",
"'  c #457619",
"]  c #49711C",
"[  c #444426",
"{  c #4A4C31",
"}  c #53463B",
"|  c #6D413F",
" . c #407139",
".. c #6C3C42",
"X. c #544442",
"o. c #584846",
"O. c #564B4A",
"+. c #5B4C4B",
"@. c #5E514C",
"#. c #5E5556",
"$. c #614E49",
"%. c #6C5247",
"&. c #64524D",
"*. c #645552",
"=. c #665A56",
"-. c #6A5A56",
";. c #6A5B5A",
":. c #735957",
">. c #6C6559",
",. c #746663",
"<. c #796B68",
"1. c #7E716D",
"2. c #9E520B",
"3. c #B55709",
"4. c #BE640C",
"5. c #87522F",
"6. c #935A2C",
"7. c #C35D02",
"8. c #C56404",
"9. c #C8680A",
"0. c #D56D04",
"q. c #D96D04",
"w. c #D66F09",
"e. c #D96D0A",
"r. c #D47006",
"t. c #CD7114",
"y. c #D87F20",
"u. c #8D3F42",
"i. c #83564F",
"p. c #B04F52",
"a. c #AB5253",
"s. c #846764",
"d. c #88736C",
"f. c #827573",
"g. c #897871",
"h. c #B56165",
"j. c #CB6A69",
"k. c #D26C6C",
"l. c #368313",
"z. c #3D8015",
"x. c #3A9311",
"c. c #3D9815",
"v. c #328530",
"b. c #4F8A15",
"n. c #419716",
"m. c #43A117",
"M. c #44A318",
"N. c #58AC14",
"B. c #4F892A",
"V. c #588C26",
"C. c #61942C",
"Z. c #62AE20",
"A. c #69BB22",
"S. c #70C725",
"D. c #D48737",
"F. c #89E92C",
"G. c #94FF30",
"H. c #BF8C5F",
"J. c #8B816B",
"K. c #95827D",
"L. c #AB957A",
"P. c #D58F46",
"I. c #DB9854",
"U. c #C59762",
"Y. c #B67F83",
"T. c #948684",
"R. c #998D87",
"E. c #A28E88",
"W. c #B48386",
"Q. c #A89B97",
"!. c #B1A39B",
"~. c #AFA5A2",
"^. c #B4A3A1",
"/. c #B3AAA4",
"(. c #B4ABAA",
"). c #BEB3AD",
"_. c #BCB6B2",
"`. c #BFBBBF",
"'. c #D0AB8F",
"]. c #D8B187",
"[. c #C7AEA9",
"{. c #C5B9B1",
"}. c #C5B9B5",
"|. c #D8C09F",
" X c #D7C3A5",
".X c #C9C1BC",
"XX c #DBCAB6",
"oX c #E7D2BA",
"OX c #CBC5C4",
"+X c #C8C5C6",
"@X c #CDC9C6",
"#X c #CECBC9",
"$X c #D2C3C1",
"%X c #D4CCC5",
"&X c #D3CDCA",
"*X c #D4D2D1",
"=X c #DBD6D2",
"-X c #DED8D3",
";X c #DBD9D8",
":X c #E1D5C5",
">X c #E3DBD3",
",X c #E2DDD9",
"<X c #E5E2DD",
"1X c #EDE4DC",
"2X c #EAE9E6",
"3X c #EDEAE5",
"4X c #F2EDE6",
"5X c #F0EEE9",
"6X c #F5F2EC",
"7X c #F5F5F3",
"8X c #F9F9F7",
"9X c #FAFAF9",
/* pixels */
"S.v.M.S.M.M.N.G.N.M.S.v.S.M.v.M.S.v.M.S.M.M.N.S.N.M.S.v.S.M.v.M.S.v.M.S.M.M.N.G.N.M.S.v.S.M.v.M.S.v.M.S.M.M.N.S.N.M.S.v.S.M.v.M.",
"S.M.M.M.x.M.G.M.M.M.M.S.M.M.M.M.S.M.v.M.M.M.M.S.M.M.M.S.v.M.M.v.S.M.M.M.x.M.G.M.M.M.M.S.M.M.M.M.S.M.v.M.M.M.M.S.M.M.M.S.v.M.M.v.",
"M.M.S.N.M.x.S.M.M.v.c.S.M.M.c.v.M.M.v.M.G.M.v.M.M.M.M.S.M.M.M.v.M.M.S.N.M.x.S.M.M.v.c.S.M.M.c.v.M.M.v.M.G.M.v.M.M.M.M.S.M.M.M.v.",
"v.M.M.S.c.M.M.M.S.N.v.M.M.S.G.M.v.M.M.G.M.M.M.N.M.S.N.M.N.M.S.M.v.M.M.S.c.M.M.M.S.N.v.M.M.S.G.M.v.M.M.G.M.M.M.N.M.S.N.M.N.M.S.M.",
"M.M.x.S.x.S.M.x.M.S.v.M.x.M.v.G.M.v.M.S.M.S.M.v.M.M.S.M.M.M.N.S.M.M.x.S.x.S.M.x.M.S.v.M.x.M.v.G.M.v.M.S.M.S.M.v.M.M.S.M.M.M.N.S.",
"M.S.N.M.c.v.M.M.M.S.M.M.M.M.M.S.M.v.M.M.v.N.v.N.M.M.S.v.M.M.M.S.M.S.N.M.c.v.M.M.M.S.M.M.M.M.M.S.M.v.M.M.v.N.v.N.M.M.S.v.M.M.M.S.",
"M.M.S.M.v.M.N.G.M.M.M.M.S.M.S.v.M.S.N.v.M.M.M.M.v.M.M.M.v.M.S.v.M.M.S.M.v.M.N.G.M.M.M.M.S.M.S.v.M.S.N.v.M.M.M.M.v.M.M.M.v.M.S.v.",
"v.x.S.x.v.M.G.M.M.M.S.M.M.S.M.S.v.M.S.v.N.G.M.v.M.M.N.M.v.M.M.S.v.x.S.x.v.M.G.M.M.M.S.M.M.S.M.S.v.M.S.v.N.G.M.v.M.M.N.M.v.M.M.S.",
"M.x.x.x.x.M.S.M.v.c.M.S.M.v.M.S.M.v.S.M.G.M.M.v.M.v.M.M.M.N.M.S.M.x.x.x.c.m.S.M.v.c.M.S.M.v.M.S.M.v.S.M.G.M.M.v.M.v.M.M.M.N.M.S.",
"c.v.c.S.N.M.M.M.S.v.M.M.v.c.M.M.c.v.M.M.S.v.M.M.M.M.v.G.N.M.M.M.c.v.c.S.N.M.m.m.S.v.M.M.v.c.M.M.c.v.M.M.S.v.M.M.M.M.v.G.N.M.M.M.",
"S.M.v.M.N.S.M.x.c.v.M.G.N.S.x.M.S.N.M.v.M.M.v.S.N.M.v.M.G.M.v.M.S.M.v.M.N.S.m.x.c.v.M.G.N.S.x.M.S.N.M.v.M.M.v.S.N.M.v.M.G.M.v.M.",
"M.M.v.M.S.M.M.M.S.N.M.M.G.M.M.x.N.S.v.M.N.M.v.M.S.M.N.M.S.v.M.x.M.M.v.M.S.m.m.m.S.N.M.M.G.M.M.x.N.S.v.M.N.M.v.M.S.M.N.M.S.v.M.x.",
"M.G.M.M.S.M.v.c.M.S.M.x.S.x.M.M.M.M.v.M.M.M.M.M.S.M.M.M.M.v.M.M.M.G.M.M.S.M.v.c.M.S.M.x.S.x.M.M.M.M.v.M.M.M.M.M.S.M.M.M.M.v.M.M.",
"M.M.G.c.v.N.S.v.M.S.M.x.x.M.c.v.M.S.N.M.S.N.S.M.M.M.v.M.N.M.M.v.M.M.G.c.v.N.S.v.M.S.M.x.x.M.c.v.M.S.N.M.S.N.S.M.M.M.v.M.N.M.M.v.",
"v.c.S.v.M.S.x.v.x.M.v.c.M.S.v.M.v.M.S.M.M.S.N.M.b.z.M.v.M.N.M.M.v.c.S.v.M.S.W ) x.M.v.c.M.S.v.m.v.M.S.M.M.S.N.M.N.M.M.v.M.N.M.M.",
"M.v.M.v.M.S.M.x.x.S.M.v.N.M.v.G.M.v.S.v.M.S.m.Y q Z B.v.N.M.v.S.M.v.M.v.M.C.y s ' S.M.v.N.M.v.G.M.v.S.v.M.S.M.x.S.M.M.v.N.M.v.S.",
"S.v.M.S.M.M.N.S.N.M.S.v.S.M.v.M.G.v.M.S.M.M.N.8 i K.J. .S.M.v.M.S.v.M.S.' ,.g.V [ M.S.v.S.M.v.M.G.v.M.S.M.M.N.G.N.M.S.v.S.M.v.M.",
"S.M.v.M.M.M.M.S.M.M.M.S.v.M.M.v.S.M.M.M.x.M.G.$ a &X.X>.Q M.M.M.S.M.v.E } {..X$.r M.M.S.v.M.M.v.S.M.M.M.x.M.G.M.M.M.M.S.M.M.M.M.",
"M.M.v.M.S.M.v.M.M.M.M.S.M.M.M.v.M.M.S.N.M.c.S.$ D 3X2XE.S ' c.v.M.M.^ s E.4X-X*.r M.M.S.M.M.M.v.M.M.S.N.M.x.S.M.M.v.c.S.M.M.c.v.",
"v.M.M.S.M.M.M.N.M.G.N.M.N.M.S.M.v.M.M.S.c.M.M.$ F 5X7X$Xg.{ ! / ~ L s K.>X8X=X*.r G.N.M.N.M.S.M.v.M.M.S.c.M.M.M.S.N.v.M.M.S.v.M.",
"M.v.M.S.M.S.M.v.M.M.G.M.M.M.N.S.M.M.x.S.x.S.M.$ A oXoX].H.5.c d a p D K._.@X/.} r M.G.M.M.M.N.S.M.M.x.S.x.S.M.x.M.S.v.M.x.M.v.S.",
"M.v.M.M.v.N.v.N.M.M.S.v.M.M.M.S.M.S.N.M.c.v.n.$ k I.P.y.t.9.2.c f p p O.;.,.-.V [ M.S.v.M.M.M.S.M.S.N.M.c.v.M.M.M.S.M.M.M.M.M.S.",
"M.S.N.v.M.M.M.M.v.M.M.M.v.M.S.v.M.M.S.M.v.M.L k v e.q.w.w.w.8.` p d d f Z Z C N a K M.M.v.M.S.v.M.M.S.M.v.M.N.S.M.M.M.M.S.M.S.v.",
"v.M.S.v.N.G.M.v.M.M.N.M.v.M.M.S.v.x.S.P w : z 6.3.q.0.w.0.0.8.` a d f d Z d V V V 5 4 i / M.M.S.v.x.S.x.v.M.S.M.M.M.S.M.M.S.M.S.",
"M.v.S.M.G.M.M.v.M.v.M.M.M.N.M.S.M.x.x._ w 4 x 4.w.w.w.w.w.0.4.i.+.f f a f f d d V N w u ] N.M.S.M.x.x.x.x.M.S.M.v.c.M.S.M.v.M.S.",
"c.v.M.M.S.v.M.M.M.M.v.G.N.M.M.M.c.v.c.S.L y c 0.0.w.0.0.e.e.y.'.~.@.s f d a d V a a 3 ] N.m.M.M.c.v.c.S.N.M.M.M.S.v.M.M.v.c.M.M.",
"S.N.M.v.M.M.v.S.N.M.v.M.G.M.v.M.S.M.v.n.L 3 m q.q.8.8.8.e.D.].,X2XR.X.a a d u a i i 3 K F.M.v.M.S.M.v.M.N.G.M.x.c.v.M.G.N.S.x.M.",
"N.S.v.M.N.M.v.M.S.M.N.M.S.v.M.x.M.M.v._ 9 1 m w.8.b x n 5.'.,X7X5X=XR.D q w u i i y q 1 ] v.M.x.M.M.v.M.G.M.M.M.S.N.M.M.G.M.M.x.",
"M.M.v.M.M.M.M.M.S.M.M.M.M.v.M.M.M.S.M.' r - ` D.H.| +.O.1.*X5X*X#X2X=X1.@.&.*.=.&.V 3 r Q v.M.M.M.S.M.M.S.M.v.c.M.S.M.x.S.x.M.M.",
"M.G.N.M.S.N.S.M.M.M.v.M.N.M.M.v.M.M.S.c.^ r %.XX:X.X+X+X*X5X;XT.1.=X7X;X+X@X#X@X).&.0 Q N.M.M.v.M.M.S.c.v.N.S.v.M.S.M.x.x.M.c.v.",
"v.M.G.M.M.S.N.M.N.M.M.v.M.N.M.M.v.c.S.v.M.V.i..X&X@X@X@X#X+X(.s.i.$X8X9X9X9X8X<X/.X.J v.M.N.M.M.v.c.S.v.M.S.x.v.x.M.v.c.M.S.v.M.",
"M.v.S.v.M.S.M.x.S.M.M.v.N.M.v.S.M.v.M.v.M.S.V.>.=.>.=.*.#.#.:.a.j.[.;X7X9X9X2XT.F e Q v.N.M.v.S.M.v.M.v.M.S.M.x.x.S.M.v.N.M.v.S.",
"S.v.M.S.M.M.N.G.N.M.S.v.S.M.v.M.S.v.M.S.M.M.N.8 i ,.f.<.;.f B p.k.W.^.(._.}.Q.D 8 l.S.v.S.M.v.M.S.v.M.S.M.M.N.S.N.M.S.v.S.M.v.M.",
"S.M.M.M.x.m.G.M.M.M.M.S.M.M.M.m.S.M.v.M.M.M.M.> A `.>X>X(.O.M p.j.W.,.X.X.O.D 2 r m.M.S.M.M.M.M.S.M.v.M.M.M.M.S.M.M.M.S.v.M.M.v.",
"M.M.S.N.M.x.S.M.M.v.c.S.M.M.c.v.M.M.v.M.G.M.e O A =X9X7X&XO.4 u.h.Y.Y.<.;.2 2 l v _ c.S.M.M.c.v.M.M.v.M.G.M.v.M.M.M.M.S.M.M.M.v.",
"v.M.M.S.c.M.M.M.S.N.v.M.M.S.G.M.v.M.M.G.M.L 4 > y ^.9X7X#XO.# M ..E.@X<X.Xt y 8.7.v ^ M.M.S.G.M.v.M.M.G.M.M.M.N.M.S.N.M.N.M.S.M.",
"M.M.x.S.x.S.M.x.M.S.v.M.x.M.v.G.M.v.M.S.M._ y , , *.^.*X_.X.N *.;.,./.5X;Xi j 0.7.v 2 H x.M.v.G.M.v.M.S.M.S.M.v.M.M.S.M.M.M.N.S.",
"M.S.N.M.c.v.M.M.M.S.M.M.M.M.M.S.M.v.M.M.7 q 5 , , 4 A :.<.d.^.%X}.F +.,X=Xy j 0.7.n # H M.M.m.S.M.v.M.M.v.N.v.N.M.M.S.v.M.M.M.S.",
"M.M.S.M.v.M.N.G.M.M.M.M.S.M.S.v.M.S.N.v.7 - M F o.V , , V Q.6X6X&XF C XXXX9 j t.9.l & H S.M.S.v.M.S.N.v.M.M.M.M.v.M.M.M.v.M.S.v.",
"v.x.S.x.v.m.G.M.M.M.S.M.M.S.M.S.v.M.S.v.J > *.Q.{./.f.i N !.4X4XOXZ 9 P.I.: A U.H.| 0 J M.S.M.S.v.M.S.v.N.G.M.v.M.M.N.M.v.M.M.S.",
"M.x.x.x.x.M.S.M.v.c.M.S.M.v.M.S.M.v.S.M.E O +.!.+X3X@X-.A T.{.}.Q.i g 0.r.; d L.L.} + P M.v.M.S.M.v.S.M.G.M.M.v.M.v.M.M.M.N.M.S.",
"c.v.c.S.N.M.M.M.S.v.M.M.v.c.M.M.c.v.M.M.' X # } g.1X5X).s.$.o.%.$., g r.9.; 2 &.%.2 @ R v.c.M.M.c.v.M.M.S.v.M.M.M.M.v.G.N.M.M.M.",
"S.M.v.M.N.S.M.x.c.v.M.G.N.S.x.M.S.N.M.v.M.I X   F %X,XXXR.N . = - = x D.D.h % 2 # @ U G.N.S.x.M.S.N.M.v.M.M.v.S.N.M.v.M.G.M.v.M.",
"M.M.v.M.S.M.M.M.S.N.M.M.G.m.M.x.N.S.v.M.N.M.^ X * ,.g.s.} %     . = G  X Xl + . @ T M.m.G.M.M.x.N.S.v.M.N.M.v.M.S.M.N.M.S.v.M.x.",
"m.G.M.M.S.M.v.c.M.S.M.x.S.x.M.M.M.M.v.M.m.m.M.U X & < 5 + @ I I 6 < G {.{.C . X R S.M.x.S.x.M.M.M.M.v.M.M.M.M.M.S.M.M.M.M.v.M.M.",
"M.M.G.c.v.N.S.v.M.S.M.x.x.M.c.v.M.S.N.M.S.N.S.M.W R     $ l.M.v.K 1 i d.>.% X ( M.S.M.x.x.M.c.v.M.S.N.M.S.N.S.M.M.M.v.M.N.M.M.v.",
"v.c.S.v.M.S.x.v.x.M.v.c.M.S.v.M.v.M.S.M.M.S.N.M.N.M.Q ( l.N.M.M.J > > t *   U v.x.M.v.c.M.S.v.M.v.M.S.M.M.S.N.M.N.M.M.v.M.N.M.M.",
"M.v.M.v.M.S.M.x.x.S.M.v.N.M.v.G.M.v.S.v.M.S.M.x.S.M.M.v.N.M.v.S.n.6       Z.M.x.x.S.M.v.N.M.v.G.M.v.S.v.M.S.M.x.S.M.M.v.N.M.v.S.",
"S.v.M.S.M.M.N.S.N.M.S.v.S.M.v.M.G.v.M.S.M.M.N.G.N.M.S.v.S.M.v.M.S.v.n.A.c.M.N.S.N.M.S.v.S.M.v.M.G.v.M.S.M.M.N.G.N.M.S.v.S.M.v.M.",
"S.M.v.M.M.M.M.S.M.M.M.S.v.M.M.v.S.M.M.M.x.M.G.M.M.M.M.S.M.M.M.M.S.M.v.M.M.M.M.S.M.M.M.S.v.M.M.v.S.M.M.M.x.M.G.M.M.M.M.S.M.M.M.M.",
"M.M.v.M.S.M.v.M.M.M.M.S.M.M.M.v.M.M.S.N.M.x.S.M.M.v.c.S.M.M.c.v.M.M.v.M.S.M.v.M.M.M.M.S.M.M.M.v.M.M.S.N.M.x.S.M.M.v.c.S.M.M.c.v.",
"v.M.M.S.M.M.M.N.M.G.N.M.N.M.S.M.v.M.M.S.c.M.M.M.S.N.v.M.M.S.v.M.v.M.M.S.M.M.M.N.M.G.N.M.N.M.S.M.v.M.M.S.c.M.M.M.S.N.v.M.M.S.v.M.",
"M.v.M.S.M.S.M.v.M.M.G.M.M.M.N.S.M.M.x.S.x.S.M.x.M.S.v.M.x.M.v.S.M.v.M.S.M.S.M.v.M.M.G.M.M.M.N.S.M.M.x.S.x.S.M.x.M.S.v.M.x.M.v.S.",
"M.v.M.M.v.N.v.N.M.M.S.v.M.M.M.S.M.S.N.M.c.v.M.M.M.S.M.M.M.M.M.S.M.v.M.M.v.N.v.N.M.M.S.v.M.M.M.S.M.S.N.M.c.v.M.M.M.S.M.M.M.M.M.S.",
"M.S.N.v.M.M.M.M.v.M.M.M.v.M.S.v.M.M.S.M.v.M.N.S.M.M.M.M.S.M.S.v.M.S.N.v.M.M.M.M.v.M.M.M.v.M.S.v.M.M.S.M.v.M.N.S.M.M.M.M.S.M.S.v.",
"v.M.S.v.N.G.M.v.M.M.N.M.v.M.M.S.v.x.S.x.v.M.S.M.M.M.S.M.M.S.M.S.v.M.S.v.N.G.M.v.M.M.N.M.v.M.M.S.v.x.S.x.v.M.S.M.M.M.S.M.M.S.M.S.",
"M.v.S.M.G.M.M.v.M.v.M.M.M.N.M.S.M.x.x.x.x.M.S.M.v.c.M.S.M.v.M.S.M.v.S.M.G.M.M.v.M.v.M.M.M.N.M.S.M.x.x.x.x.M.S.M.v.c.M.S.M.v.M.S.",
"c.v.M.M.S.v.M.M.M.M.v.G.N.M.M.M.c.v.c.S.N.M.M.M.S.v.M.M.v.c.M.M.c.v.M.M.S.v.M.M.M.M.v.G.N.M.M.M.c.v.c.S.N.M.M.M.S.v.M.M.v.c.M.M.",
"S.N.M.v.M.M.v.S.N.M.v.M.G.M.v.M.S.M.v.M.N.G.M.x.c.v.M.G.N.S.x.M.S.N.M.v.M.M.v.S.N.M.v.M.G.M.v.M.S.M.v.M.N.G.M.x.c.v.M.G.N.S.x.M.",
"N.S.v.M.N.M.v.M.S.M.N.M.S.v.M.x.M.M.v.M.G.M.M.M.S.N.M.M.G.M.M.x.N.S.v.M.N.M.v.M.S.M.N.M.S.v.M.x.M.M.v.M.G.M.M.M.S.N.M.M.G.M.M.x.",
"M.M.v.M.M.M.M.M.S.M.M.M.M.v.M.M.M.S.M.M.S.M.v.c.M.S.M.x.S.x.M.M.M.M.v.M.M.M.M.M.S.M.M.M.M.v.M.M.M.S.M.M.S.M.v.c.M.S.M.x.S.x.M.M.",
"M.G.N.M.S.N.S.M.M.M.v.M.N.M.M.v.M.M.S.c.v.N.S.v.M.S.M.x.x.M.c.v.M.G.N.M.S.N.S.M.M.M.v.M.N.M.M.v.M.M.S.c.v.N.S.v.M.S.M.x.x.M.c.v.",
"v.M.G.M.M.S.N.M.N.M.M.v.M.N.M.M.v.c.S.v.M.S.x.v.x.M.v.c.M.S.v.M.v.M.G.M.M.S.N.M.N.M.M.v.M.N.M.M.v.c.S.v.M.S.x.v.x.M.v.c.M.S.v.M.",
"M.v.S.v.M.S.M.x.S.M.M.v.N.M.v.S.M.v.M.v.M.S.M.x.x.S.M.v.N.M.v.S.M.v.S.v.M.S.M.x.S.M.M.v.N.M.v.S.M.v.M.v.M.S.M.x.x.S.M.v.N.M.v.S."
};
