/* XPM */
static char *walkup11750930679[] = {
/* columns rows colors chars-per-pixel */
"64 64 210 2 ",
"   c #020101",
".  c #0C0403",
"X  c #060C01",
"o  c #0E0807",
"O  c #190905",
"+  c #120B09",
"@  c #1B0E0A",
"#  c #0B1204",
"$  c #0D1D04",
"%  c #1C150C",
"&  c #140B10",
"*  c #190E15",
"=  c #1C1313",
"-  c #1E1817",
";  c #1B1519",
":  c #21110A",
">  c #251A0E",
",  c #3D1B07",
"<  c #241512",
"1  c #261918",
"2  c #2A1C1A",
"3  c #351E16",
"4  c #331E1A",
"5  c #0F290F",
"6  c #182606",
"7  c #183208",
"8  c #183908",
"9  c #1C2313",
"0  c #183513",
"q  c #23230B",
"w  c #25240B",
"e  c #262D0C",
"r  c #2B2B0D",
"t  c #2B300D",
"y  c #2B2A14",
"u  c #2F221E",
"i  c #35231D",
"p  c #3C231B",
"a  c #38291A",
"s  c #323514",
"d  c #3D371A",
"f  c #201624",
"g  c #2B2324",
"h  c #282328",
"j  c #342423",
"k  c #392424",
"l  c #3C2A25",
"z  c #342529",
"x  c #382228",
"c  c #352A2B",
"v  c #3D2D2A",
"b  c #3D302D",
"n  c #372F31",
"m  c #482208",
"M  c #592B0D",
"N  c #442514",
"B  c #42231B",
"V  c #432B1C",
"C  c #4C2B19",
"Z  c #532B14",
"A  c #5B2D14",
"S  c #4C321E",
"D  c #5A361D",
"F  c #612B0D",
"G  c #783709",
"H  c #6E2F10",
"J  c #643314",
"K  c #613A1C",
"L  c #763816",
"P  c #472B23",
"I  c #422D28",
"U  c #4C3223",
"Y  c #493727",
"T  c #41312D",
"R  c #543423",
"E  c #593623",
"W  c #5D3A23",
"Q  c #5A3B2B",
"!  c #443533",
"~  c #483A38",
"^  c #523E37",
"/  c #693B25",
"(  c #2F4C0C",
")  c #294815",
"_  c #364218",
"`  c #365A18",
"'  c #2F6B0F",
"]  c #3B6414",
"[  c #377813",
"{  c #3D4F24",
"}  c #2E6C27",
"|  c #307F2E",
" . c #454B1C",
".. c #43521C",
"X. c #4A6519",
"o. c #41472A",
"O. c #524A33",
"+. c #53423D",
"@. c #704C37",
"#. c #4D3B42",
"$. c #4C4547",
"%. c #544542",
"&. c #5A4742",
"*. c #5C4D49",
"=. c #5B524B",
"-. c #544E50",
";. c #5B5150",
":. c #664E44",
">. c #63524B",
",. c #625552",
"<. c #685752",
"1. c #6B5A54",
"2. c #6D605C",
"3. c #77665D",
"4. c #6C6262",
"5. c #776866",
"6. c #7D716E",
"7. c #863D01",
"8. c #994908",
"9. c #8A4612",
"0. c #914D11",
"q. c #974F14",
"w. c #985116",
"e. c #A44A08",
"r. c #B14C07",
"t. c #A7540B",
"y. c #BC5B04",
"u. c #B55908",
"i. c #A25411",
"p. c #A25618",
"a. c #BD6108",
"s. c #A2611C",
"d. c #8C5B3C",
"f. c #BD6D26",
"g. c #A56931",
"h. c #CC5201",
"j. c #CA5A01",
"k. c #C56205",
"l. c #C96208",
"z. c #CD650A",
"x. c #CD6809",
"c. c #D36402",
"v. c #D56C04",
"b. c #D96E03",
"n. c #D56908",
"m. c #CF6C16",
"M. c #E66C02",
"N. c #D0712D",
"B. c #E97C25",
"V. c #E57C38",
"C. c #876850",
"Z. c #AD7B42",
"A. c #857671",
"S. c #398510",
"D. c #3D8E15",
"F. c #3A9311",
"G. c #3D9815",
"H. c #31822F",
"J. c #328530",
"K. c #499316",
"L. c #409916",
"P. c #57991A",
"I. c #43A117",
"U. c #44A318",
"Y. c #58AC14",
"T. c #61A120",
"R. c #69B823",
"E. c #70C725",
"W. c #DC8335",
"Q. c #E18426",
"!. c #94FF30",
"~. c #99837B",
"^. c #B28466",
"/. c #D18D4F",
"(. c #CD9850",
"). c #E29755",
"_. c #D29B78",
"`. c #897E80",
"'. c #8E8383",
"]. c #9D918D",
"[. c #A69993",
"{. c #B39B91",
"}. c #B0A498",
"|. c #B9AFA9",
" X c #BCB3B2",
".X c #CDB29D",
"XX c #C5BBB4",
"oX c #C4BEBB",
"OX c #C7C1BE",
"+X c #CCC2BC",
"@X c #D6C6B7",
"#X c #ECCFAC",
"$X c #CAC5C2",
"%X c #CDCAC7",
"&X c #D5CECA",
"*X c #D7D2CC",
"=X c #DCD7D3",
"-X c #DDD9D5",
";X c #E4D7CB",
":X c #E5DCD3",
">X c #E1DDD9",
",X c #E9E4DE",
"<X c #F2E9D8",
"1X c #E8E6E3",
"2X c #F3EDE6",
"3X c #F2F2EB",
"4X c #F5F4F1",
"5X c #F7F8F3",
"6X c #F9F8F6",
"7X c #FBFBF9",
/* pixels */
"E.J.U.E.U.U.Y.!.Y.U.E.J.E.U.J.U.E.J.U.E.U.U.Y.E.Y.U.E.J.E.U.J.U.E.J.U.E.U.U.Y.!.Y.U.E.J.E.U.J.U.E.J.U.E.U.U.Y.E.Y.U.E.J.E.U.J.U.",
"E.U.U.U.F.U.!.U.U.U.U.E.U.U.U.U.E.U.J.U.U.U.U.E.U.U.U.E.J.U.U.J.E.U.U.U.F.U.!.U.U.U.U.E.U.U.U.U.E.U.J.U.U.U.U.E.U.U.U.E.J.U.U.J.",
"U.U.E.Y.U.F.E.U.U.J.G.E.U.U.G.J.U.U.J.U.!.U.J.U.U.U.U.E.U.U.U.J.U.U.E.Y.U.F.E.U.U.J.L.E.U.U.G.H.U.U.J.U.!.U.J.U.U.U.U.E.U.U.U.J.",
"J.U.U.E.G.U.U.U.E.Y.J.U.U.E.!.U.J.U.U.!.U.U.U.Y.U.E.Y.U.Y.U.E.U.J.U.U.E.L.U.U.U.E.Y.J.U.U.E.!.U.H.U.U.!.U.U.U.Y.U.E.Y.U.Y.U.E.U.",
"U.U.F.E.F.E.U.F.U.E.J.U.F.U.J.!.U.J.U.E.U.E.U.J.U.U.E.U.U.U.Y.E.U.U.F.E.F.E.U.F.U.E.J.U.F.U.H.!.U.J.U.E.U.E.U.J.U.U.E.U.U.U.Y.E.",
"U.E.Y.U.G.J.U.U.U.E.U.U.U.U.U.E.U.J.U.U.J.Y.J.Y.U.U.E.J.U.U.U.E.U.E.Y.U.G.J.U.U.U.E.U.U.U.U.U.E.U.J.U.U.J.Y.J.Y.U.U.E.J.U.U.U.E.",
"U.U.E.U.J.U.Y.!.U.U.U.U.E.U.E.J.U.E.Y.J.U.U.U.U.J.U.U.U.J.U.E.J.U.U.E.U.J.U.Y.!.U.U.U.U.E.U.E.J.U.E.Y.J.U.U.U.U.J.U.U.U.J.U.E.J.",
"J.F.E.F.J.U.!.U.U.U.E.U.U.E.U.E.J.U.E.J.Y.!.U.J.U.U.Y.U.J.U.U.E.J.F.E.F.J.U.!.U.U.U.E.U.U.E.U.E.J.U.E.J.Y.!.U.H.U.U.Y.U.J.U.U.E.",
"U.F.F.F.F.U.E.U.J.G.U.E.U.J.U.E.U.J.E.U.!.U.U.J.U.J.U.U.U.Y.U.E.U.F.F.F.F.U.E.U.J.G.U.E.U.J.U.E.U.J.E.U.!.U.U.J.U.J.U.U.U.Y.U.E.",
"G.J.G.E.Y.U.U.U.E.J.U.U.J.G.U.U.G.J.U.U.E.H.U.U.U.U.H.!.Y.U.U.U.G.J.G.E.Y.I.U.U.E.J.U.U.H.G.U.U.L.J.U.U.E.J.U.U.U.U.J.!.Y.U.U.U.",
"E.U.J.U.Y.E.U.F.G.J.U.!.Y.E.F.U.E.Y.U.J.U.U.J.E.Y.U.J.U.!.U.J.U.E.U.J.U.Y.E.I.F.G.J.U.!.Y.E.F.U.E.Y.U.J.U.U.J.E.Y.U.J.U.!.U.J.U.",
"U.U.J.U.E.U.U.U.E.Y.U.U.!.U.U.F.Y.E.J.U.Y.U.J.) ..O...U.E.H.U.F.U.U.J.U.E._ o.{ X.Y.U.U.!.U.U.F.Y.E.J.U.Y.U.J.U.E.U.Y.U.E.J.U.F.",
"U.!.U.U.E.U.J.G.U.E.U.F.E.F.U.U.U.U.J.U.U.U.U.w Y '.3...I.H.I.U.U.!.U.U. .5.A.~ y E.U.F.E.F.U.U.I.U.J.U.U.U.U.U.E.U.U.U.U.J.U.U.",
"U.U.!.G.J.Y.E.J.U.E.U.F.F.U.G.J.U.E.Y.U.E.Y.E.w :.&XOX;.) U.I.H.U.U.!.5 :.+X&X1.r E.U.F.F.U.L.H.U.E.Y.U.E.Y.E.U.U.U.J.U.Y.U.U.J.",
"J.G.E.J.U.E.F.J.F.U.J.G.U.E.J.U.J.U.E.U.U.E.Y.> 2.>X2X'.$.` U.U.J.G.E.{ [.2X,X1.6 U.J.G.U.E.J.U.J.U.E.U.U.E.Y.U.Y.U.U.J.U.Y.U.U.",
"U.J.U.J.U.E.U.F.F.E.U.J.Y.U.J.!.U.J.E.H.U.E.U.$ 1.>X5X&X{.~ ; * * = ~ ~.;X5X-X<.% E.U.J.Y.U.J.!.U.J.E.J.U.E.U.F.E.U.U.J.Y.U.J.E.",
"E.J.U.E.U.U.Y.E.Y.U.E.J.E.U.J.U.!.J.U.E.U.U.Y.r <.oX*XXX].^ z h z U d._.#X;X@X@.w L.E.H.E.U.J.U.!.J.U.E.U.U.Y.!.Y.U.E.J.E.U.J.U.",
"E.U.J.U.U.U.U.E.U.U.U.E.J.U.U.J.E.U.U.U.F.U.!.r ! 2.6.;.~ c n n R p.z.m.W.)./.@.w L.U.E.J.U.U.J.E.U.U.U.F.U.!.U.U.U.U.E.U.U.U.U.",
"U.U.J.U.E.U.J.U.U.U.U.E.U.U.U.J.U.U.E.Y.F.' P.l c v v v b c b Q w.z.v.b.v.v.c.9.m 7 [ T.L.I.U.H.U.U.E.Y.U.F.E.U.U.J.G.E.U.U.G.J.",
"J.U.U.E.U.U.U.Y.U.!.Y.U.Y.U.E.U.J.U.U.T.s 1 u v b T v v b b Q p.z.n.v.v.v.v.b.y.8.N : i X.U.E.U.J.U.U.E.G.U.U.U.E.Y.J.U.U.E.J.U.",
"U.J.U.E.U.E.U.J.U.U.!.U.U.U.Y.E.U.U.F.P.s j l v b T T ! b v D t.z.n.n.b.b.v.v.v.y.M < 4 X.U.Y.E.U.U.F.E.F.E.U.F.U.E.J.U.F.U.J.E.",
"U.J.U.U.J.Y.J.Y.U.U.E.J.U.U.U.E.U.E.Y.U.) i v v b T T b ! T Y O.w.z.m.b.b.b.b.b.y.m & 9 [ U.U.E.U.E.Y.U.G.J.U.U.U.E.U.U.U.U.U.E.",
"U.E.Y.J.U.U.U.U.J.U.U.U.J.U.E.J.U.U.E.I.) j v b b T b T T T b b O.w.a.a.k.b.b.b.k.Z & ) H.I.E.J.U.U.E.U.J.U.Y.E.U.U.U.U.E.U.E.J.",
"J.U.E.J.Y.!.U.J.U.U.Y.U.J.U.U.E.J.F.E.] l j v v v b T T T b b v l b S S 9.c.b.b.l.Z ; y } U.U.E.J.F.E.F.J.U.E.U.U.U.E.U.U.E.U.E.",
"U.J.E.U.!.U.U.J.U.J.U.U.U.Y.U.E.U.F.F.( u i l v I v b T b b v v ! =.$.h K a.b.v.k.M - = ` Y.U.E.U.F.F.F.F.U.E.U.J.G.U.E.U.J.U.E.",
"G.J.U.U.E.J.U.U.U.U.J.!.Y.U.U.U.G.J.L.R.s 3 l v v b I v v v v v ,.|.[.$.R y.b.c.j.M < X.P.U.U.U.G.J.G.E.Y.U.U.U.E.J.U.U.J.G.U.U.",
"E.Y.U.J.U.U.J.E.Y.U.J.U.!.U.J.U.E.U.J.U.Y. .i l l l v l l v T E C.@X|.-.U 8.y.y.e.M _ L.!.U.J.U.E.U.J.U.Y.!.U.F.G.J.U.!.Y.E.F.U.",
"Y.E.J.U.Y.U.J.U.E.U.Y.U.E.J.U.F.U.U.J.U.!.U.t i l c l v v c R i.f..X[.#.h S F F Z _ Y.U.E.H.U.F.U.U.J.U.!.U.U.U.E.Y.U.U.!.U.U.F.",
"U.U.J.U.U.U.U.U.E.U.U.U.U.J.U.U.U.E.U.U.E.U.J.t 3 k l E R c D l.m.^.5.! j h f 1  .L.U.U.U.J.U.U.U.E.U.U.E.U.J.G.U.E.U.F.E.F.U.U.",
"U.!.Y.U.E.Y.E.U.U.U.J.U.Y.U.U.J.U.U.E.G.J.Y.E.J.y g U i.0.l A y.u./ ! z z x 1 - U.U.H.U.Y.U.U.J.U.U.E.G.J.Y.E.J.U.E.U.F.F.U.G.J.",
"J.U.!.U.U.E.Y.U.Y.U.U.J.U.Y.U.U.J.G.E.J.U.E.F.J.S.V L y.y.V S t.0.P x c l c i q K.U.U.J.U.Y.U.U.J.G.E.J.U.E.F.J.F.U.J.G.U.E.J.U.",
"U.J.E.J.U.E.U.F.E.U.U.J.Y.U.J.E.U.J.U.J.U.E.U.X.C q.y.c.a.a i K K k z c v v l i s U.U.J.Y.U.J.E.U.J.U.J.U.E.U.F.F.E.U.J.Y.U.J.E.",
"E.J.U.E.U.U.Y.!.Y.U.E.J.E.U.J.U.E.J.U.E.U.U.Y.o.A l.b.x.q.i h R S j z l l v v l d U.E.J.E.U.J.U.E.J.U.E.U.U.Y.E.Y.U.E.J.E.U.J.U.",
"E.U.U.U.F.U.!.U.U.U.U.E.U.U.U.U.E.U.J.U.U.U.U.V S n.x.w.D g S s.0.V j v v v v l s U.U.E.U.U.U.U.E.U.J.U.U.U.U.E.U.U.U.E.J.U.U.J.",
"U.U.E.Y.U.F.E.U.U.J.G.E.U.U.G.J.U.U.J.U.!.U.J.y Z u.w.W g - Q (.Z.U P E E Y v j s J.G.E.U.U.G.H.U.U.J.U.!.U.J.U.U.U.U.E.U.U.U.J.",
"J.U.U.E.G.U.U.U.E.Y.J.U.U.E.!.U.J.U.U.!.U.U.U.r B W U b h 1 ,.@X}.+./ t.t.E I j s Y.J.U.U.E.!.U.H.U.U.!.U.U.U.Y.U.E.Y.U.Y.U.E.U.",
"U.U.F.E.F.E.U.F.U.E.J.U.F.U.J.!.U.J.U.E.U.E.U.9 3 x v 4.4.#.4.-XXX@.9.c.c.9.W p e E.H.U.F.U.J.!.U.J.U.E.U.E.U.J.U.U.E.U.U.U.Y.E.",
"U.E.Y.U.G.J.U.U.U.E.U.U.U.U.U.E.U.J.U.U.J.Y.J.q N 4 $.OX%X`.`.1X@Xd.r.b.b.c.r.M e E.U.U.U.U.U.E.U.J.U.U.J.Y.J.Y.U.U.E.J.U.U.U.E.",
"U.U.E.U.J.U.Y.!.U.U.U.U.E.U.E.J.U.E.Y.J.I.I.I.1 B B -.>X4X$X X2X;X^.N./.Q.M.j.G y U.U.U.E.U.E.J.U.E.Y.J.U.U.U.U.J.U.U.U.J.U.E.J.",
"J.F.E.F.J.U.!.U.U.U.E.U.U.E.U.E.J.U.E.J.Y.!.6 : B 4 #.=X7X6X6X7X6X2X<X3X#XB.h.G % 8 E.U.U.E.U.E.J.U.E.J.Y.!.U.J.U.U.Y.U.J.U.U.E.",
"U.F.F.F.F.U.E.U.J.G.U.E.U.J.U.E.U.J.E.U.!.U.$ : N B @.;X7X7X3X*X;X3X7X7X2XV.h.7.* 7 U.E.I.J.U.E.U.J.E.U.!.U.U.J.U.J.U.U.U.Y.U.E.",
"G.J.G.E.Y.U.U.U.E.J.U.U.J.G.U.U.L.J.U.U.E.J.6 : F 7.g.:X7X7X$X,.4.&X6X7X<XV.h.7.O ; U.U.J.G.U.U.G.J.U.U.E.J.U.U.U.U.J.!.Y.U.U.U.",
"E.U.J.U.Y.E.U.F.G.J.U.!.Y.E.F.U.E.Y.I.J.U.U.5 O m 7.g.:X7X6XXX! *.$X4X>XXXm.e.J @ 5 U.!.Y.E.F.U.E.Y.U.J.U.U.J.E.Y.U.J.U.!.U.J.U.",
"U.U.J.U.E.U.U.U.E.Y.U.U.!.U.U.F.Y.E.J.U.Y.U.H.7 O , :.:X7X1X].j %.OX$XA.@.H Z % 7 ( U.U.!.U.U.F.Y.E.J.U.Y.U.J.U.E.U.Y.U.E.J.U.F.",
"U.!.U.U.E.U.J.G.U.E.U.F.E.F.U.U.U.U.H.U.U.U.U.U.X . &.-X3X X1.< ! [.6.l < x 1 X U.E.U.F.E.F.U.U.U.U.J.U.U.U.U.U.E.U.U.U.U.J.U.U.",
"U.U.!.G.J.Y.E.J.U.E.U.F.F.U.G.J.U.E.Y.U.E.Y.E.U.X o *.-X1X6.2   ; %.^ k i I 4 # U.E.U.F.F.U.G.J.U.E.Y.U.E.Y.E.U.U.U.J.U.Y.U.U.J.",
"J.G.E.J.U.E.F.J.F.U.J.G.U.E.J.U.J.U.E.U.U.E.Y.U.X . *.-X-X,.+     @ ! 1.;.! 1 # F.U.J.G.U.E.J.U.J.U.E.U.U.E.Y.U.Y.U.U.J.U.Y.U.U.",
"U.J.U.J.U.E.U.F.F.E.U.J.Y.U.J.!.U.J.E.H.U.E.U.F.X o *.-X-X,.+     + 3.oXXX>.% # F.E.U.J.Y.U.J.!.U.J.E.J.U.E.U.F.E.U.U.J.Y.U.J.E.",
"E.J.U.E.U.U.Y.E.Y.U.E.J.E.U.J.U.!.J.U.E.U.U.Y.!.X . %.$X+X&.@     + 3.+X+X%.+ # Y.U.E.J.E.U.J.U.!.J.U.E.U.U.Y.!.Y.U.E.J.E.U.J.U.",
"E.U.J.U.U.U.U.E.U.U.U.E.J.U.U.J.E.U.U.U.F.U.!.U.' ' - 5.5.Y @     < Q 2.>.* X K.U.U.U.E.J.U.U.J.E.U.U.U.F.U.!.U.U.U.U.E.U.U.U.U.",
"U.U.J.U.E.U.J.U.U.U.U.E.U.U.U.J.U.U.E.Y.U.F.E.U.U.J.' + 1 B > 0 7 1 i < +   } I.U.U.U.E.U.U.U.J.U.U.E.Y.U.F.E.U.U.J.G.E.U.U.G.J.",
"J.U.U.E.U.U.U.Y.U.!.Y.U.Y.U.E.U.J.U.U.E.G.U.U.U.E.Y.J.'   X 0 G.| 7       D.U.Y.U.!.Y.U.Y.U.E.U.J.U.U.E.G.U.U.U.E.Y.J.U.U.E.J.U.",
"U.J.U.E.U.E.U.J.U.U.!.U.U.U.Y.E.U.U.F.E.F.E.U.F.U.E.J.U.S.G.J.E.I.H.G.R.L.E.U.J.U.U.!.U.U.U.Y.E.U.U.F.E.F.E.U.F.U.E.J.U.F.U.J.E.",
"U.J.U.U.J.Y.J.Y.U.U.E.J.U.U.U.E.U.E.Y.U.G.J.U.U.U.E.U.U.U.U.U.E.I.H.U.U.J.Y.J.Y.U.U.E.J.U.U.U.E.U.E.Y.U.G.J.U.U.U.E.U.U.U.U.U.E.",
"U.E.Y.J.U.U.U.U.J.U.U.U.J.U.E.J.U.U.E.U.J.U.Y.E.U.U.U.U.E.U.E.J.U.E.Y.H.U.U.U.U.J.U.U.U.J.U.E.J.U.U.E.U.J.U.Y.E.U.U.U.U.E.U.E.J.",
"J.U.E.J.Y.!.U.J.U.U.Y.U.J.U.U.E.J.F.E.F.J.U.E.U.U.U.E.U.U.E.U.E.J.U.E.J.Y.!.U.J.U.U.Y.U.J.U.U.E.J.F.E.F.J.U.E.U.U.U.E.U.U.E.U.E.",
"U.J.E.U.!.U.U.J.U.J.U.U.U.Y.U.E.U.F.F.F.F.U.E.U.J.G.U.E.U.J.U.E.U.J.E.U.!.U.U.J.U.J.U.U.U.Y.U.E.U.F.F.F.F.U.E.U.J.G.U.E.U.J.U.E.",
"G.J.U.U.E.J.U.U.U.U.J.!.Y.U.U.U.G.J.G.E.Y.U.U.U.E.J.U.U.J.G.U.U.G.J.U.U.E.H.U.U.U.U.J.!.Y.U.U.U.G.J.G.E.Y.U.U.U.E.J.U.U.J.G.U.U.",
"E.Y.U.J.U.U.J.E.Y.U.J.U.!.U.J.U.E.U.J.U.Y.!.U.F.G.J.U.!.Y.E.F.U.E.Y.U.J.U.U.J.E.Y.U.J.U.!.U.J.U.E.U.J.U.Y.!.U.F.G.J.U.!.Y.E.F.U.",
"Y.E.J.U.Y.U.J.U.E.U.Y.U.E.J.U.F.U.U.J.U.!.U.U.U.E.Y.U.U.!.U.U.F.Y.E.J.U.Y.U.J.U.E.U.Y.U.E.J.U.F.U.U.J.U.!.U.U.U.E.Y.U.U.!.U.U.F.",
"U.U.J.U.U.U.U.U.E.U.U.U.U.J.U.U.U.E.U.U.E.U.J.G.U.E.U.F.E.F.U.U.U.U.J.U.U.U.U.U.E.U.U.U.U.J.U.U.U.E.U.U.E.U.J.G.U.E.U.F.E.F.U.U.",
"U.!.Y.U.E.Y.E.U.U.U.J.U.Y.U.U.J.U.U.E.G.J.Y.E.J.U.E.U.F.F.U.G.J.U.!.Y.U.E.Y.E.U.U.U.J.U.Y.U.U.J.U.U.E.G.J.Y.E.J.U.E.U.F.F.U.G.J.",
"J.U.!.U.U.E.Y.U.Y.U.U.J.U.Y.U.U.J.G.E.J.U.E.F.J.F.U.J.G.U.E.J.U.J.U.!.U.U.E.Y.U.Y.U.U.J.U.Y.U.U.J.G.E.J.U.E.F.J.F.U.J.G.U.E.J.U.",
"U.J.E.J.U.E.U.F.E.U.U.J.Y.U.J.E.U.J.U.J.U.E.U.F.F.E.U.J.Y.U.J.E.U.J.E.J.U.E.U.F.E.U.U.J.Y.U.J.E.U.J.U.J.U.E.U.F.F.E.U.J.Y.U.J.E."
};
