/* XPM */
static char *walkd41750930846[] = {
/* columns rows colors chars-per-pixel */
"64 64 198 2 ",
"   c #030101",
".  c #0A0201",
"X  c #050B01",
"o  c #090D02",
"O  c #160805",
"+  c #140C0B",
"@  c #1B0E0B",
"#  c #0B1607",
"$  c #161707",
"%  c #1C110C",
"&  c #210F0C",
"*  c #22110D",
"=  c #2D180F",
"-  c #30170D",
";  c #241312",
":  c #281814",
">  c #2D1916",
",  c #29161A",
"<  c #2C1D1B",
"1  c #331C14",
"2  c #311D1A",
"3  c #0F2A0F",
"4  c #1A3E09",
"5  c #263C0D",
"6  c #222212",
"7  c #32231C",
"8  c #3B241B",
"9  c #2B3517",
"0  c #37371C",
"q  c #341F24",
"w  c #342522",
"e  c #3F2624",
"r  c #362A26",
"t  c #3A2A26",
"y  c #322629",
"u  c #362A2D",
"i  c #3B2D2A",
"p  c #3D302E",
"a  c #352E31",
"s  c #392F30",
"d  c #3B3131",
"f  c #5A2C0F",
"g  c #57350F",
"h  c #4C2B16",
"j  c #592E11",
"k  c #55361D",
"l  c #5C331A",
"z  c #69390F",
"x  c #602F14",
"c  c #6B3A15",
"v  c #432F27",
"b  c #43312B",
"n  c #4B352D",
"m  c #553726",
"M  c #402D30",
"N  c #423431",
"B  c #483836",
"V  c #4C3D3A",
"C  c #513E39",
"Z  c #673D23",
"A  c #1B4009",
"S  c #1A4218",
"D  c #1F521D",
"F  c #2C450F",
"G  c #2B490E",
"H  c #295B0D",
"J  c #315411",
"K  c #355715",
"L  c #32620B",
"P  c #3B6915",
"I  c #357813",
"U  c #384B20",
"Y  c #32742E",
"T  c #764012",
"R  c #526F16",
"E  c #427617",
"W  c #444723",
"Q  c #56542A",
"!  c #5E4031",
"~  c #53423E",
"^  c #654820",
"/  c #754829",
"(  c #674439",
")  c #704632",
"_  c #4E6D22",
"`  c #4A7724",
"'  c #6B643C",
"]  c #544441",
"[  c #594641",
"{  c #5C4B46",
"}  c #5B4C4A",
"|  c #5A5C49",
" . c #564F52",
".. c #5C5353",
"X. c #614945",
"o. c #69534B",
"O. c #75584E",
"+. c #655553",
"@. c #685A55",
"#. c #6D5D5A",
"$. c #6D615D",
"%. c #74625D",
"&. c #7C6258",
"*. c #776A65",
"=. c #7B6E69",
"-. c #9C4909",
";. c #9E510F",
":. c #8E5016",
">. c #AB550D",
",. c #B85B05",
"<. c #B96009",
"1. c #B27333",
"2. c #C15C08",
"3. c #C46204",
"4. c #CA6808",
"5. c #D56D03",
"6. c #DC6E02",
"7. c #D77006",
"8. c #DA7305",
"9. c #C76C1A",
"0. c #D67210",
"q. c #E56F01",
"w. c #E47301",
"e. c #CA7A2B",
"r. c #C97A31",
"t. c #815C4B",
"y. c #956845",
"u. c #877C7A",
"i. c #3B8615",
"p. c #3B8118",
"a. c #3A9311",
"s. c #3D9815",
"d. c #30802E",
"f. c #328530",
"g. c #43840F",
"h. c #478916",
"j. c #409916",
"k. c #459719",
"l. c #57981C",
"z. c #44A318",
"x. c #56A913",
"c. c #58AC14",
"v. c #679F21",
"b. c #5FA420",
"n. c #62A420",
"m. c #67B622",
"M. c #6EC123",
"N. c #70C725",
"B. c #D8842B",
"V. c #C8803F",
"C. c #DC8834",
"Z. c #82DC29",
"A. c #94FF30",
"S. c #9C877C",
"D. c #B48A64",
"F. c #DA8E40",
"G. c #DFA871",
"H. c #C37C8B",
"J. c #978A85",
"K. c #A9988C",
"L. c #A29693",
"P. c #B8AA9D",
"I. c #AFA5A3",
"U. c #B6AAA4",
"Y. c #B4ADAA",
"T. c #BAB1AE",
"R. c #C8A88C",
"E. c #D7BB9B",
"W. c #E8B782",
"Q. c #E19AB0",
"!. c #C3B7AD",
"~. c #CBB8B5",
"^. c #C3BEB9",
"/. c #E1A6B9",
"(. c #C8C4BA",
"). c #CCC3BC",
"_. c #DBCBB9",
"`. c #E6C7A6",
"'. c #CDC9C4",
"]. c #CDC8C5",
"[. c #D1CDC7",
"{. c #D2CECA",
"}. c #D9D4D2",
"|. c #DEDAD6",
" X c #DFDBDA",
".X c #E9D9C5",
"XX c #E0DAD6",
"oX c #E1DDD6",
"OX c #ECE4D5",
"+X c #EBE7E5",
"@X c #F2EBE9",
"#X c #EDF0EC",
"$X c #F3F2ED",
"%X c #EEF2F0",
"&X c #F5F6F2",
"*X c #F8F7F1",
"=X c #FBFAF5",
"-X c #F9FBF8",
/* pixels */
"N.f.z.N.z.z.c.A.c.z.N.f.N.z.f.z.N.f.z.N.z.z.c.N.c.z.N.f.N.z.f.z.N.f.z.N.z.z.c.A.c.z.N.f.N.z.f.z.N.f.z.N.z.z.c.N.c.z.N.f.N.z.f.z.",
"N.z.z.z.a.z.A.z.z.z.z.N.z.z.z.z.N.z.f.z.z.z.z.N.z.z.z.N.f.z.z.f.N.z.z.z.a.z.A.z.z.z.z.N.z.z.z.z.N.z.f.z.z.z.z.N.z.z.z.N.f.z.z.f.",
"z.z.N.c.z.a.N.z.z.f.s.N.z.z.s.f.z.z.f.z.A.z.f.z.z.z.z.N.z.z.z.f.z.z.N.c.z.a.N.z.z.f.s.N.z.z.s.f.z.z.f.z.A.z.f.z.z.z.z.N.z.z.z.f.",
"f.z.z.N.s.z.z.z.N.c.f.z.z.N.A.z.f.z.z.A.z.z.z.c.z.N.c.z.c.z.N.z.f.z.z.N.s.z.z.z.N.c.f.z.z.N.A.z.f.z.z.A.z.z.z.c.z.N.c.z.c.z.N.z.",
"z.z.a.N.a.N.z.a.z.N.f.z.a.z.f.A.z.f.z.N.z.N.z.f.z.z.N.z.z.z.c.N.z.z.a.N.a.N.z.a.z.N.f.z.a.z.f.A.z.f.z.N.z.N.z.f.z.z.N.z.z.z.c.N.",
"z.N.c.z.s.f.z.z.z.N.z.z.z.z.z.N.z.f.z.z.f.c.f.c.z.z.N.f.z.z.z.N.z.N.c.z.s.f.z.z.z.N.z.z.z.z.z.N.z.f.z.z.f.c.f.c.z.z.N.f.z.z.z.N.",
"z.z.N.z.f.z.c.A.z.z.z.z.N.z.N.f.z.N.c.f.z.z.z.z.f.z.z.z.f.z.N.f.z.z.N.z.f.z.c.A.z.z.z.z.N.z.N.f.z.N.c.f.z.z.z.z.f.z.z.z.f.z.N.f.",
"f.a.N.a.f.z.A.z.z.z.N.z.z.N.z.N.f.z.N.f.c.A.z.f.z.z.c.z.f.z.z.N.f.a.N.a.f.z.A.z.z.z.N.z.z.N.z.N.f.z.N.f.c.A.z.f.z.z.c.z.f.z.z.N.",
"z.a.a.a.a.z.N.z.f.s.z.N.z.f.z.N.z.f.N.z.A.z.z.f.z.f.z.z.z.c.z.N.z.a.a.a.a.z.N.z.f.s.z.N.z.f.z.N.z.f.N.z.A.z.z.f.z.f.z.z.z.c.z.N.",
"s.f.s.N.c.z.z.z.N.f.z.z.f.s.z.z.s.f.z.z.N.f.z.z.z.z.f.A.c.z.z.z.s.f.s.N.c.z.z.z.N.f.z.z.f.s.z.z.s.f.z.z.N.f.z.z.z.z.f.A.c.z.z.z.",
"N.z.f.z.c.N.z.a.s.f.z.A.c.N.a.z.N.c.z.f.z.z.f.N.c.z.f.z.A.z.f.z.N.z.f.z.c.N.z.a.s.f.z.A.c.N.a.z.N.c.z.f.z.z.f.N.c.z.f.z.A.z.f.z.",
"z.z.f.z.N.z.z.z.N.c.z.z.A.z.z.a.c.N.f.z.c.z.f.z.N.z.c.z.N.f.z.a.z.z.f.z.N.z.z.z.N.c.z.z.A.z.z.a.c.N.f.z.c.z.f.z.N.z.c.z.N.f.z.a.",
"z.A.z.z.N.z.f.s.z.N.z.a.N.a.z.z.z.z.f.z.z.z.z.z.N.z.z.z.z.f.z.z.z.A.z.z.N.z.f.s.z.N.z.a.N.a.z.z.z.z.f.z.z.z.z.z.N.z.z.z.z.f.z.z.",
"z.z.A.s.f.c.N.f.z.N.z.a.a.z.s.f.z.N.c.z.N.c.N.z.z.z.f.z.c.` 8 + H z.A.s.f.c.N.f.z.N.z.a.a.z.s.f.z.N.c.z.N.c.N.z.z.z.f.z.c.z.z.f.",
"f.s.N.f.z.N.a.f.a.z.f.s.z.N.f.z.f.z.N.z.z.N.c.z.c.z.z.f.I 2 C O.*.` M.f.z.N.a.f.a.z.f.s.z.N.f.z.f.z.N.z.z.N.c.z.c.z.z.f.z.c.z.z.",
"z.f.z.f.z.N.z.a.a.N.z.f.c.z.f.A.z.f.N.f.z.N.z.a.N.z.z.f.g.2 &.!.!.o.P f.z.N.z.a.a.N.z.f.c.z.f.A.z.f.N.f.z.N.z.a.N.z.z.f.c.z.f.N.",
"N.f.z.N.z.z.c.N.c.z.N.f.N.z.f.z.A.f.z.N.z.z.c.A.c.z.N.f.l.w t.R.E.o.; c.z.z.c.N.c.z.N.f.N.z.f.z.A.f.z.N.z.z.c.A.c.z.N.f.N.z.f.z.",
"N.z.f.z.z.z.z.N.z.z.z.N.f.z.z.f.N.z.z.z.a.z.A.z.z.z.z.N.p.r Z 9.0.c ; i.z.z.z.N.z.z.z.N.f.z.z.f.N.z.z.z.a.z.A.z.z.z.z.N.z.z.z.z.",
"z.z.f.z.N.z.f.z.z.z.z.N.z.z.z.f.z.z.N.c.z.a.N.z.z.f.s.N.p.t Z -.-.f = i.N.z.f.z.z.z.z.N.z.z.z.f.z.z.N.c.z.a.N.z.z.f.s.N.z.z.s.f.",
"f.z.z.N.z.z.z.c.z.A.c.z.c.z.N.z.f.z.z.N.s.z.z.z.N.c.f.z.p.r m l l 8 = n.z.z.z.c.z.A.c.z.c.z.N.z.f.z.z.N.s.z.z.z.N.c.f.z.z.N.f.z.",
"z.f.z.N.z.N.z.f.z.z.A.z.z.z.c.N.z.z.a.N.a.N.z.a.z.N.d.z.I 7 b u r w ; b.z.N.z.f.z.z.A.z.z.z.c.N.z.z.a.N.a.N.z.a.z.N.f.z.a.z.f.N.",
"z.f.z.z.f.c.f.c.z.z.N.f.z.z.z.N.z.N.c.z.s.f.z.z.z.N.z.z.I < b y y < ; i.f.c.f.c.z.z.N.f.z.z.z.N.z.N.c.z.s.f.z.z.z.N.z.z.z.z.z.N.",
"z.N.c.f.z.z.z.z.f.z.z.z.f.z.N.f.z.z.N.z.f.z.c.N.z.z.z.z.v.k c c / %.@.Y z.z.z.z.f.z.z.z.f.z.N.f.z.z.N.z.f.z.c.N.z.z.z.z.N.z.N.f.",
"f.z.N.f.c.A.z.f.z.z.c.z.f.z.z.N.f.a.N.a.f.z.N.z.z.z.N.k.k -.3.3.e.E.U.| 6 A.z.f.z.z.c.z.f.z.z.N.f.a.N.a.f.z.N.z.z.z.N.z.z.N.z.N.",
"z.f.N.z.A.z.z.f.z.f.z.z.z.c.z.N.z.a.a.a.a.z.N.z.f.s.k.^ :.2.q.6.V._.(.X.* $ z.f.z.f.z.z.z.c.z.N.z.a.a.a.a.z.N.z.f.s.z.N.z.f.z.N.",
"s.f.z.z.N.f.z.z.z.z.f.A.c.z.z.z.s.f.s.N.c.z.z.9 n & h 2.q.w.,.c V } ~ t 7 * * b ' z.f.A.c.z.z.z.s.f.s.N.c.z.z.z.N.f.z.z.f.s.z.z.",
"N.c.z.f.z.z.f.N.c.z.f.z.A.z.f.z.N.z.f.z.c.A.z.6 M t.) ;.8.e.1.! a a r r p +.$.e Q z.f.z.A.z.f.z.N.z.f.z.c.A.z.a.s.f.z.A.c.N.a.z.",
"c.N.f.z.c.z.f.z.N.z.c.z.N.f.z.a.z.z.f.z.A.z.z.$ V XXI.] t.P.'.*.a u u r ~ ).'.$.W z.c.z.N.f.z.a.z.z.f.z.A.z.z.z.N.c.z.z.A.z.z.a.",
"z.z.f.z.z.z.z.z.N.z.z.z.z.f.z.z.z.N.z.z.N.z.d.$ V -X Xu.+.Y.^.$.u u u B =.*XoX=.0 z.z.z.z.f.z.z.z.N.z.z.N.z.f.s.z.N.z.a.N.a.z.z.",
"z.A.c.z.N.c.N.z.z.z.f.z.c.z.z.f.z.z.N.s.f.c.N.$ V &X&X~.u... .s y y N J.).=XoX=.9 z.f.z.c.z.z.f.z.z.N.s.f.c.N.f.z.N.z.a.a.z.s.f.",
"f.z.A.z.z.N.c.z.c.z.z.f.z.c.z.z.f.s.N.f.z.N.a.$ V *X$X_.D./ Z Z l e d J.T.=XoX*.0 z.z.f.z.c.z.z.f.s.N.f.z.N.a.f.a.z.f.s.z.N.f.z.",
"z.f.N.f.z.N.z.a.N.z.z.f.c.z.f.N.z.f.z.f.z.N.z.o ~ *X+XG.0.2.3.3.,.k t V *.=X}.*.W z.z.f.c.z.f.N.z.f.z.f.z.N.z.a.a.N.z.f.c.z.f.N.",
"N.f.z.N.z.z.c.A.c.z.N.f.N.z.f.z.N.f.z.N.z.z.R j ) .X`.C.7.5.5.,.;.C u p ~ (.Y...0 P N.Y N.z.f.z.N.f.z.N.z.z.c.N.c.z.N.f.N.z.f.z.",
"N.z.z.z.a.z.A.z.z.z.z.N.z.z.z.z.N.z.f.E J J g >.>.F.C.7.7.5.3.:.n p p p N @.+.n t 0 K _ I z.z.z.N.z.f.z.z.z.z.M.z.z.z.N.f.z.z.f.",
"z.z.N.c.z.a.N.z.z.f.s.N.z.z.s.f.z.z.f.J & ; j 4.7.7.7.7.7.5.,.Z s s p p p b p b v i 7 : K z.s.f.z.z.f.z.A.z.f.z.z.z.z.N.z.z.z.f.",
"f.z.z.N.s.z.z.z.N.c.f.z.z.N.A.z.f.z.z.Z.9 q j 4.8.7.5.5.5.7.,.Z a a s p b p v p i i < 5 k.N.A.z.f.z.z.A.z.z.z.c.z.N.c.z.c.z.N.z.",
"z.z.a.N.a.N.z.a.z.N.f.z.a.z.f.A.z.f.z.N.F , x 5.8.5.5.2.2.q.3.y...d s i p p p p i t < G a.z.f.A.z.f.z.N.z.N.z.f.z.z.N.z.z.z.c.N.",
"z.N.c.z.s.f.z.z.z.N.z.z.z.z.z.N.z.f.k.R h 2 f 5.8.5.,.T z 2.C.E.T.} i t r i t r r w 7 v E z.z.N.z.f.z.z.f.c.f.c.z.z.N.f.z.z.z.N.",
"z.z.N.z.f.z.c.A.z.z.z.z.N.z.N.f.z.N.c.U 8 : l B.B.B.1.x m r.W.+X+XJ.N w r ~ $.$.~ 7 7 7 ` z.N.f.z.N.c.f.z.z.z.z.f.z.z.z.f.z.N.f.",
"f.a.N.a.f.z.A.z.z.z.N.z.z.N.z.N.f.z.N.S @ ; O.`.OX.X~.$.~ R.@X&X&X XL.s B '.oX}.(.o.@ * J N.z.N.f.z.N.f.c.A.z.f.z.z.c.z.f.z.z.N.",
"z.a.a.a.a.z.N.z.f.s.z.N.z.f.z.N.z.f.N.z.P @ o._.@X&XXXu.@.].*X+X+X&X|.%.+.-X-X%X^.{   K z.f.z.N.z.f.N.z.A.z.z.f.z.f.z.z.z.c.z.N.",
"s.f.s.N.c.z.z.z.N.f.z.z.f.s.z.z.s.f.z.z.P $ : ..L.@X*XXX{.#X$X/.Q.@X&X}.{.-X+XI.} % 3 H f.s.z.z.s.f.z.z.N.f.z.z.z.z.f.A.c.z.z.z.",
"N.z.f.z.c.N.z.a.s.f.z.A.c.N.a.z.N.c.z.f.z.z.# + ] !.[.].].].~.H.H.~.'.{.{.}.T.} + 3 z.A.c.N.a.z.N.c.z.f.z.z.f.N.c.z.f.z.A.z.f.z.",
"z.z.f.z.N.z.z.z.N.c.z.z.A.z.z.a.c.N.f.z.c.z.S A + B [ ~ ] } [ C C } } +.@.#.} % G L z.z.A.z.z.a.c.N.f.z.c.z.f.z.N.z.c.z.N.f.z.s.",
"z.A.z.z.N.z.f.s.z.N.z.a.N.a.z.z.z.z.f.z.z.z.z.z.X + t C ] w & & - - > > 1 2 & o z.N.z.a.N.a.z.z.z.z.f.z.z.z.z.z.N.z.z.z.z.f.z.z.",
"z.z.A.s.f.c.N.f.z.N.z.a.a.z.s.f.z.N.c.z.N.c.N.z.X @ o.K.I.[ O   O - - - > O E D z.N.z.a.a.z.s.f.z.N.c.z.N.c.N.z.z.z.f.z.c.z.z.f.",
"f.s.N.f.z.N.a.f.a.z.f.s.z.N.f.z.f.z.N.z.z.N.c.z.X & X.S.J.n O     @ & @ % . a.f.a.z.f.s.z.N.f.z.f.z.N.z.z.N.c.z.c.z.z.f.z.c.z.z.",
"z.f.z.f.z.N.z.a.a.N.z.f.c.z.f.A.z.f.N.f.z.N.z.a.+ 2 Z ( o.m > . 4 #       h.z.a.a.N.z.f.x.z.f.A.z.f.N.f.z.N.z.a.N.z.z.f.c.z.f.N.",
"N.f.z.N.z.z.c.N.c.z.N.f.N.z.f.z.A.f.z.N.z.z.c.A.i.% 1 ; 1 1 @ 4 b.Y I l.I z.c.N.c.z.N.f.N.z.f.z.A.f.z.N.z.z.c.A.c.z.N.f.N.z.f.z.",
"N.z.f.z.z.z.z.N.z.z.z.N.f.z.z.f.N.z.z.z.a.z.A.z.z.i.        A j.M.z.f.z.z.z.z.N.z.z.z.N.f.z.z.f.N.z.z.z.a.z.A.z.z.z.z.N.z.z.z.z.",
"z.z.f.z.N.z.f.z.z.z.z.N.z.z.z.f.z.z.N.c.z.a.N.z.z.f.a.m.j.j.s.f.z.z.f.z.N.z.f.z.z.z.z.N.z.z.z.f.z.z.N.c.z.a.N.z.z.f.s.N.z.z.s.f.",
"f.z.z.N.z.z.z.c.z.A.c.z.c.z.N.z.f.z.z.N.s.z.z.z.N.c.f.z.z.N.f.z.f.z.z.N.z.z.z.c.z.A.c.z.c.z.N.z.f.z.z.N.s.z.z.z.N.c.f.z.z.N.f.z.",
"z.f.z.N.z.N.z.f.z.z.A.z.z.z.c.N.z.z.a.N.a.N.z.a.z.N.f.z.a.z.f.N.z.f.z.N.z.N.z.f.z.z.A.z.z.z.c.N.z.z.a.N.a.N.z.a.z.N.f.z.a.z.f.N.",
"z.f.z.z.f.c.f.c.z.z.N.f.z.z.z.N.z.N.c.z.s.f.z.z.z.N.z.z.z.z.z.N.z.f.z.z.f.c.f.c.z.z.N.f.z.z.z.N.z.N.c.z.s.f.z.z.z.N.z.z.z.z.z.N.",
"z.N.c.f.z.z.z.z.f.z.z.z.f.z.N.f.z.z.N.z.f.z.c.N.z.z.z.z.N.z.N.f.z.N.c.f.z.z.z.z.f.z.z.z.f.z.N.f.z.z.N.z.f.z.c.N.z.z.z.z.N.z.N.f.",
"f.z.N.f.c.A.z.f.z.z.c.z.f.z.z.N.f.a.N.a.f.z.N.z.z.z.N.z.z.N.z.N.f.z.N.f.c.A.z.f.z.z.c.z.f.z.z.N.f.a.N.a.f.z.N.z.z.z.N.z.z.N.z.N.",
"z.f.N.z.A.z.z.f.z.f.z.z.z.c.z.N.z.a.a.a.a.z.N.z.f.s.z.N.z.f.z.N.z.f.N.z.A.z.z.f.z.f.z.z.z.c.z.N.z.a.a.a.a.z.N.z.f.s.z.N.z.f.z.N.",
"s.f.z.z.N.f.z.z.z.z.f.A.c.z.z.z.s.f.s.N.c.z.z.z.N.f.z.z.f.s.z.z.s.f.z.z.N.f.z.z.z.z.f.A.c.z.z.z.s.f.s.N.c.z.z.z.N.f.z.z.f.s.z.z.",
"N.c.z.f.z.z.f.N.c.z.f.z.A.z.f.z.N.z.f.z.c.A.z.a.s.f.z.A.c.N.a.z.N.c.z.f.z.z.f.N.c.z.f.z.A.z.f.z.N.z.f.z.c.A.z.a.s.f.z.A.c.N.a.z.",
"c.N.f.z.c.z.f.z.N.z.c.z.N.f.z.a.z.z.f.z.A.z.z.z.N.c.z.z.A.z.z.a.c.N.f.z.c.z.f.z.N.z.c.z.N.f.z.a.z.z.f.z.A.z.z.z.N.c.z.z.A.z.z.a.",
"z.z.f.z.z.z.z.z.N.z.z.z.z.f.z.z.z.N.z.z.N.z.f.s.z.N.z.a.N.a.z.z.z.z.f.z.z.z.z.z.N.z.z.z.z.f.z.z.z.N.z.z.N.z.f.s.z.N.z.a.N.a.z.z.",
"z.A.c.z.N.c.N.z.z.z.f.z.c.z.z.f.z.z.N.s.f.c.N.f.z.N.z.a.a.z.s.f.z.A.c.z.N.c.N.z.z.z.f.z.c.z.z.f.z.z.N.s.f.c.N.f.z.N.z.a.a.z.s.f.",
"f.z.A.z.z.N.c.z.c.z.z.f.z.c.z.z.f.s.N.f.z.N.a.f.a.z.f.s.z.N.f.z.f.z.A.z.z.N.c.z.c.z.z.f.z.c.z.z.f.s.N.f.z.N.a.f.a.z.f.s.z.N.f.z.",
"z.f.N.f.z.N.z.a.N.z.z.f.c.z.f.N.z.f.z.f.z.N.z.a.a.N.z.f.c.z.f.N.z.f.N.f.z.N.z.a.N.z.z.f.c.z.f.N.z.f.z.f.z.N.z.a.a.N.z.f.c.z.f.N."
};
